G04 #@! TF.GenerationSoftware,KiCad,Pcbnew,(5.1.5)-2*
G04 #@! TF.CreationDate,2020-06-07T05:43:36+12:00*
G04 #@! TF.ProjectId,JVCard-panel,4a564361-7264-42d7-9061-6e656c2e6b69,rev?*
G04 #@! TF.SameCoordinates,Original*
G04 #@! TF.FileFunction,Legend,Top*
G04 #@! TF.FilePolarity,Positive*
%FSLAX46Y46*%
G04 Gerber Fmt 4.6, Leading zero omitted, Abs format (unit mm)*
G04 Created by KiCad (PCBNEW (5.1.5)-2) date 2020-06-07 05:43:36*
%MOMM*%
%LPD*%
G04 APERTURE LIST*
%ADD10C,0.150000*%
%ADD11C,0.120000*%
%ADD12C,0.300000*%
%ADD13C,0.400000*%
%ADD14C,0.010000*%
G04 APERTURE END LIST*
D10*
X-125297619Y7817619D02*
X-125107142Y7817619D01*
X-125011904Y7865238D01*
X-124964285Y7912857D01*
X-124869047Y8055714D01*
X-124821428Y8246190D01*
X-124821428Y8627142D01*
X-124869047Y8722380D01*
X-124916666Y8770000D01*
X-125011904Y8817619D01*
X-125202380Y8817619D01*
X-125297619Y8770000D01*
X-125345238Y8722380D01*
X-125392857Y8627142D01*
X-125392857Y8389047D01*
X-125345238Y8293809D01*
X-125297619Y8246190D01*
X-125202380Y8198571D01*
X-125011904Y8198571D01*
X-124916666Y8246190D01*
X-124869047Y8293809D01*
X-124821428Y8389047D01*
X-124440476Y8722380D02*
X-124392857Y8770000D01*
X-124297619Y8817619D01*
X-124059523Y8817619D01*
X-123964285Y8770000D01*
X-123916666Y8722380D01*
X-123869047Y8627142D01*
X-123869047Y8531904D01*
X-123916666Y8389047D01*
X-124488095Y7817619D01*
X-123869047Y7817619D01*
X-123440476Y7912857D02*
X-123392857Y7865238D01*
X-123440476Y7817619D01*
X-123488095Y7865238D01*
X-123440476Y7912857D01*
X-123440476Y7817619D01*
X-122488095Y8817619D02*
X-122964285Y8817619D01*
X-123011904Y8341428D01*
X-122964285Y8389047D01*
X-122869047Y8436666D01*
X-122630952Y8436666D01*
X-122535714Y8389047D01*
X-122488095Y8341428D01*
X-122440476Y8246190D01*
X-122440476Y8008095D01*
X-122488095Y7912857D01*
X-122535714Y7865238D01*
X-122630952Y7817619D01*
X-122869047Y7817619D01*
X-122964285Y7865238D01*
X-123011904Y7912857D01*
X-121821428Y8817619D02*
X-121726190Y8817619D01*
X-121630952Y8770000D01*
X-121583333Y8722380D01*
X-121535714Y8627142D01*
X-121488095Y8436666D01*
X-121488095Y8198571D01*
X-121535714Y8008095D01*
X-121583333Y7912857D01*
X-121630952Y7865238D01*
X-121726190Y7817619D01*
X-121821428Y7817619D01*
X-121916666Y7865238D01*
X-121964285Y7912857D01*
X-122011904Y8008095D01*
X-122059523Y8198571D01*
X-122059523Y8436666D01*
X-122011904Y8627142D01*
X-121964285Y8722380D01*
X-121916666Y8770000D01*
X-121821428Y8817619D01*
X-120869047Y8817619D02*
X-120773809Y8817619D01*
X-120678571Y8770000D01*
X-120630952Y8722380D01*
X-120583333Y8627142D01*
X-120535714Y8436666D01*
X-120535714Y8198571D01*
X-120583333Y8008095D01*
X-120630952Y7912857D01*
X-120678571Y7865238D01*
X-120773809Y7817619D01*
X-120869047Y7817619D01*
X-120964285Y7865238D01*
X-121011904Y7912857D01*
X-121059523Y8008095D01*
X-121107142Y8198571D01*
X-121107142Y8436666D01*
X-121059523Y8627142D01*
X-121011904Y8722380D01*
X-120964285Y8770000D01*
X-120869047Y8817619D01*
X-119345238Y7817619D02*
X-119345238Y8484285D01*
X-119345238Y8389047D02*
X-119297619Y8436666D01*
X-119202380Y8484285D01*
X-119059523Y8484285D01*
X-118964285Y8436666D01*
X-118916666Y8341428D01*
X-118916666Y7817619D01*
X-118916666Y8341428D02*
X-118869047Y8436666D01*
X-118773809Y8484285D01*
X-118630952Y8484285D01*
X-118535714Y8436666D01*
X-118488095Y8341428D01*
X-118488095Y7817619D01*
X-118011904Y7817619D02*
X-118011904Y8484285D01*
X-118011904Y8389047D02*
X-117964285Y8436666D01*
X-117869047Y8484285D01*
X-117726190Y8484285D01*
X-117630952Y8436666D01*
X-117583333Y8341428D01*
X-117583333Y7817619D01*
X-117583333Y8341428D02*
X-117535714Y8436666D01*
X-117440476Y8484285D01*
X-117297619Y8484285D01*
X-117202380Y8436666D01*
X-117154761Y8341428D01*
X-117154761Y7817619D01*
D11*
X-167500000Y7000000D02*
X-75000000Y7000000D01*
X-167500000Y2500000D02*
X-167500000Y7586421D01*
X-75000000Y2500000D02*
X-75000000Y7586421D01*
X-75000000Y7000000D02*
X-76126504Y6413579D01*
X-75000000Y7000000D02*
X-76126504Y7586421D01*
X-167500000Y7000000D02*
X-166373496Y6413579D01*
X-167500000Y7000000D02*
X-166373496Y7586421D01*
D10*
X-68777619Y-78797619D02*
X-68777619Y-79369047D01*
X-68777619Y-79083333D02*
X-69777619Y-79083333D01*
X-69634761Y-79178571D01*
X-69539523Y-79273809D01*
X-69491904Y-79369047D01*
X-69777619Y-77892857D02*
X-69777619Y-78369047D01*
X-69301428Y-78416666D01*
X-69349047Y-78369047D01*
X-69396666Y-78273809D01*
X-69396666Y-78035714D01*
X-69349047Y-77940476D01*
X-69301428Y-77892857D01*
X-69206190Y-77845238D01*
X-68968095Y-77845238D01*
X-68872857Y-77892857D01*
X-68825238Y-77940476D01*
X-68777619Y-78035714D01*
X-68777619Y-78273809D01*
X-68825238Y-78369047D01*
X-68872857Y-78416666D01*
X-69444285Y-76988095D02*
X-68777619Y-76988095D01*
X-69825238Y-77226190D02*
X-69110952Y-77464285D01*
X-69110952Y-76845238D01*
X-68872857Y-76464285D02*
X-68825238Y-76416666D01*
X-68777619Y-76464285D01*
X-68825238Y-76511904D01*
X-68872857Y-76464285D01*
X-68777619Y-76464285D01*
X-69777619Y-75511904D02*
X-69777619Y-75988095D01*
X-69301428Y-76035714D01*
X-69349047Y-75988095D01*
X-69396666Y-75892857D01*
X-69396666Y-75654761D01*
X-69349047Y-75559523D01*
X-69301428Y-75511904D01*
X-69206190Y-75464285D01*
X-68968095Y-75464285D01*
X-68872857Y-75511904D01*
X-68825238Y-75559523D01*
X-68777619Y-75654761D01*
X-68777619Y-75892857D01*
X-68825238Y-75988095D01*
X-68872857Y-76035714D01*
X-69777619Y-74845238D02*
X-69777619Y-74750000D01*
X-69730000Y-74654761D01*
X-69682380Y-74607142D01*
X-69587142Y-74559523D01*
X-69396666Y-74511904D01*
X-69158571Y-74511904D01*
X-68968095Y-74559523D01*
X-68872857Y-74607142D01*
X-68825238Y-74654761D01*
X-68777619Y-74750000D01*
X-68777619Y-74845238D01*
X-68825238Y-74940476D01*
X-68872857Y-74988095D01*
X-68968095Y-75035714D01*
X-69158571Y-75083333D01*
X-69396666Y-75083333D01*
X-69587142Y-75035714D01*
X-69682380Y-74988095D01*
X-69730000Y-74940476D01*
X-69777619Y-74845238D01*
X-69777619Y-73892857D02*
X-69777619Y-73797619D01*
X-69730000Y-73702380D01*
X-69682380Y-73654761D01*
X-69587142Y-73607142D01*
X-69396666Y-73559523D01*
X-69158571Y-73559523D01*
X-68968095Y-73607142D01*
X-68872857Y-73654761D01*
X-68825238Y-73702380D01*
X-68777619Y-73797619D01*
X-68777619Y-73892857D01*
X-68825238Y-73988095D01*
X-68872857Y-74035714D01*
X-68968095Y-74083333D01*
X-69158571Y-74130952D01*
X-69396666Y-74130952D01*
X-69587142Y-74083333D01*
X-69682380Y-74035714D01*
X-69730000Y-73988095D01*
X-69777619Y-73892857D01*
X-68777619Y-72369047D02*
X-69444285Y-72369047D01*
X-69349047Y-72369047D02*
X-69396666Y-72321428D01*
X-69444285Y-72226190D01*
X-69444285Y-72083333D01*
X-69396666Y-71988095D01*
X-69301428Y-71940476D01*
X-68777619Y-71940476D01*
X-69301428Y-71940476D02*
X-69396666Y-71892857D01*
X-69444285Y-71797619D01*
X-69444285Y-71654761D01*
X-69396666Y-71559523D01*
X-69301428Y-71511904D01*
X-68777619Y-71511904D01*
X-68777619Y-71035714D02*
X-69444285Y-71035714D01*
X-69349047Y-71035714D02*
X-69396666Y-70988095D01*
X-69444285Y-70892857D01*
X-69444285Y-70750000D01*
X-69396666Y-70654761D01*
X-69301428Y-70607142D01*
X-68777619Y-70607142D01*
X-69301428Y-70607142D02*
X-69396666Y-70559523D01*
X-69444285Y-70464285D01*
X-69444285Y-70321428D01*
X-69396666Y-70226190D01*
X-69301428Y-70178571D01*
X-68777619Y-70178571D01*
D11*
X-70500000Y-152000000D02*
X-70500000Y2500000D01*
X-75000000Y-152000000D02*
X-69913579Y-152000000D01*
X-75000000Y2500000D02*
X-69913579Y2500000D01*
X-70500000Y2500000D02*
X-69913579Y1373496D01*
X-70500000Y2500000D02*
X-71086421Y1373496D01*
X-70500000Y-152000000D02*
X-69913579Y-150873496D01*
X-70500000Y-152000000D02*
X-71086421Y-150873496D01*
D12*
X-137159523Y-47309523D02*
X-137254761Y-47595238D01*
X-137254761Y-48071428D01*
X-137159523Y-48261904D01*
X-137064285Y-48357142D01*
X-136873809Y-48452380D01*
X-136683333Y-48452380D01*
X-136492857Y-48357142D01*
X-136397619Y-48261904D01*
X-136302380Y-48071428D01*
X-136207142Y-47690476D01*
X-136111904Y-47500000D01*
X-136016666Y-47404761D01*
X-135826190Y-47309523D01*
X-135635714Y-47309523D01*
X-135445238Y-47404761D01*
X-135350000Y-47500000D01*
X-135254761Y-47690476D01*
X-135254761Y-48166666D01*
X-135350000Y-48452380D01*
X-137064285Y-50452380D02*
X-137159523Y-50357142D01*
X-137254761Y-50071428D01*
X-137254761Y-49880952D01*
X-137159523Y-49595238D01*
X-136969047Y-49404761D01*
X-136778571Y-49309523D01*
X-136397619Y-49214285D01*
X-136111904Y-49214285D01*
X-135730952Y-49309523D01*
X-135540476Y-49404761D01*
X-135350000Y-49595238D01*
X-135254761Y-49880952D01*
X-135254761Y-50071428D01*
X-135350000Y-50357142D01*
X-135445238Y-50452380D01*
X-136683333Y-51214285D02*
X-136683333Y-52166666D01*
X-137254761Y-51023809D02*
X-135254761Y-51690476D01*
X-137254761Y-52357142D01*
X-137254761Y-54166666D02*
X-136302380Y-53500000D01*
X-137254761Y-53023809D02*
X-135254761Y-53023809D01*
X-135254761Y-53785714D01*
X-135350000Y-53976190D01*
X-135445238Y-54071428D01*
X-135635714Y-54166666D01*
X-135921428Y-54166666D01*
X-136111904Y-54071428D01*
X-136207142Y-53976190D01*
X-136302380Y-53785714D01*
X-136302380Y-53023809D01*
X-135254761Y-54738095D02*
X-135254761Y-55880952D01*
X-137254761Y-55309523D02*
X-135254761Y-55309523D01*
X-140554761Y-38357142D02*
X-139602380Y-37690476D01*
X-140554761Y-37214285D02*
X-138554761Y-37214285D01*
X-138554761Y-37976190D01*
X-138650000Y-38166666D01*
X-138745238Y-38261904D01*
X-138935714Y-38357142D01*
X-139221428Y-38357142D01*
X-139411904Y-38261904D01*
X-139507142Y-38166666D01*
X-139602380Y-37976190D01*
X-139602380Y-37214285D01*
X-138650000Y-40261904D02*
X-138554761Y-40071428D01*
X-138554761Y-39785714D01*
X-138650000Y-39500000D01*
X-138840476Y-39309523D01*
X-139030952Y-39214285D01*
X-139411904Y-39119047D01*
X-139697619Y-39119047D01*
X-140078571Y-39214285D01*
X-140269047Y-39309523D01*
X-140459523Y-39500000D01*
X-140554761Y-39785714D01*
X-140554761Y-39976190D01*
X-140459523Y-40261904D01*
X-140364285Y-40357142D01*
X-139697619Y-40357142D01*
X-139697619Y-39976190D01*
X-139507142Y-41880952D02*
X-139602380Y-42166666D01*
X-139697619Y-42261904D01*
X-139888095Y-42357142D01*
X-140173809Y-42357142D01*
X-140364285Y-42261904D01*
X-140459523Y-42166666D01*
X-140554761Y-41976190D01*
X-140554761Y-41214285D01*
X-138554761Y-41214285D01*
X-138554761Y-41880952D01*
X-138650000Y-42071428D01*
X-138745238Y-42166666D01*
X-138935714Y-42261904D01*
X-139126190Y-42261904D01*
X-139316666Y-42166666D01*
X-139411904Y-42071428D01*
X-139507142Y-41880952D01*
X-139507142Y-41214285D01*
X-140459523Y-43119047D02*
X-140554761Y-43404761D01*
X-140554761Y-43880952D01*
X-140459523Y-44071428D01*
X-140364285Y-44166666D01*
X-140173809Y-44261904D01*
X-139983333Y-44261904D01*
X-139792857Y-44166666D01*
X-139697619Y-44071428D01*
X-139602380Y-43880952D01*
X-139507142Y-43500000D01*
X-139411904Y-43309523D01*
X-139316666Y-43214285D01*
X-139126190Y-43119047D01*
X-138935714Y-43119047D01*
X-138745238Y-43214285D01*
X-138650000Y-43309523D01*
X-138554761Y-43500000D01*
X-138554761Y-43976190D01*
X-138650000Y-44261904D01*
X-138459523Y-48071428D02*
X-141030952Y-46357142D01*
X-139602380Y-50642857D02*
X-140554761Y-50642857D01*
X-138554761Y-49976190D02*
X-139602380Y-50642857D01*
X-138554761Y-51309523D01*
X-140554761Y-51976190D02*
X-138554761Y-51976190D01*
X-138554761Y-52738095D01*
X-138650000Y-52928571D01*
X-138745238Y-53023809D01*
X-138935714Y-53119047D01*
X-139221428Y-53119047D01*
X-139411904Y-53023809D01*
X-139507142Y-52928571D01*
X-139602380Y-52738095D01*
X-139602380Y-51976190D01*
X-140554761Y-53976190D02*
X-138554761Y-53976190D01*
X-139316666Y-53976190D02*
X-139221428Y-54166666D01*
X-139221428Y-54547619D01*
X-139316666Y-54738095D01*
X-139411904Y-54833333D01*
X-139602380Y-54928571D01*
X-140173809Y-54928571D01*
X-140364285Y-54833333D01*
X-140459523Y-54738095D01*
X-140554761Y-54547619D01*
X-140554761Y-54166666D01*
X-140459523Y-53976190D01*
X-140554761Y-55785714D02*
X-138554761Y-55785714D01*
X-138554761Y-56547619D01*
X-138650000Y-56738095D01*
X-138745238Y-56833333D01*
X-138935714Y-56928571D01*
X-139221428Y-56928571D01*
X-139411904Y-56833333D01*
X-139507142Y-56738095D01*
X-139602380Y-56547619D01*
X-139602380Y-55785714D01*
X-140554761Y-57785714D02*
X-139221428Y-57785714D01*
X-139602380Y-57785714D02*
X-139411904Y-57880952D01*
X-139316666Y-57976190D01*
X-139221428Y-58166666D01*
X-139221428Y-58357142D01*
X-140554761Y-60833333D02*
X-140459523Y-60642857D01*
X-140364285Y-60547619D01*
X-140173809Y-60452380D01*
X-139602380Y-60452380D01*
X-139411904Y-60547619D01*
X-139316666Y-60642857D01*
X-139221428Y-60833333D01*
X-139221428Y-61119047D01*
X-139316666Y-61309523D01*
X-139411904Y-61404761D01*
X-139602380Y-61500000D01*
X-140173809Y-61500000D01*
X-140364285Y-61404761D01*
X-140459523Y-61309523D01*
X-140554761Y-61119047D01*
X-140554761Y-60833333D01*
X-139221428Y-62357142D02*
X-140554761Y-62357142D01*
X-139411904Y-62357142D02*
X-139316666Y-62452380D01*
X-139221428Y-62642857D01*
X-139221428Y-62928571D01*
X-139316666Y-63119047D01*
X-139507142Y-63214285D01*
X-140554761Y-63214285D01*
X-140554761Y-64452380D02*
X-140459523Y-64261904D01*
X-140269047Y-64166666D01*
X-138554761Y-64166666D01*
X-139221428Y-65023809D02*
X-140554761Y-65500000D01*
X-139221428Y-65976190D02*
X-140554761Y-65500000D01*
X-141030952Y-65309523D01*
X-141126190Y-65214285D01*
X-141221428Y-65023809D01*
D13*
X-159120952Y-13904761D02*
X-159787619Y-12952380D01*
X-160263809Y-13904761D02*
X-160263809Y-11904761D01*
X-159501904Y-11904761D01*
X-159311428Y-12000000D01*
X-159216190Y-12095238D01*
X-159120952Y-12285714D01*
X-159120952Y-12571428D01*
X-159216190Y-12761904D01*
X-159311428Y-12857142D01*
X-159501904Y-12952380D01*
X-160263809Y-12952380D01*
X-157216190Y-12000000D02*
X-157406666Y-11904761D01*
X-157692380Y-11904761D01*
X-157978095Y-12000000D01*
X-158168571Y-12190476D01*
X-158263809Y-12380952D01*
X-158359047Y-12761904D01*
X-158359047Y-13047619D01*
X-158263809Y-13428571D01*
X-158168571Y-13619047D01*
X-157978095Y-13809523D01*
X-157692380Y-13904761D01*
X-157501904Y-13904761D01*
X-157216190Y-13809523D01*
X-157120952Y-13714285D01*
X-157120952Y-13047619D01*
X-157501904Y-13047619D01*
X-155597142Y-12857142D02*
X-155311428Y-12952380D01*
X-155216190Y-13047619D01*
X-155120952Y-13238095D01*
X-155120952Y-13523809D01*
X-155216190Y-13714285D01*
X-155311428Y-13809523D01*
X-155501904Y-13904761D01*
X-156263809Y-13904761D01*
X-156263809Y-11904761D01*
X-155597142Y-11904761D01*
X-155406666Y-12000000D01*
X-155311428Y-12095238D01*
X-155216190Y-12285714D01*
X-155216190Y-12476190D01*
X-155311428Y-12666666D01*
X-155406666Y-12761904D01*
X-155597142Y-12857142D01*
X-156263809Y-12857142D01*
X-152835238Y-11809523D02*
X-154549523Y-14380952D01*
X-151787619Y-12952380D02*
X-151787619Y-13904761D01*
X-152454285Y-11904761D02*
X-151787619Y-12952380D01*
X-151120952Y-11904761D01*
X-150454285Y-13904761D02*
X-150454285Y-11904761D01*
X-149692380Y-11904761D01*
X-149501904Y-12000000D01*
X-149406666Y-12095238D01*
X-149311428Y-12285714D01*
X-149311428Y-12571428D01*
X-149406666Y-12761904D01*
X-149501904Y-12857142D01*
X-149692380Y-12952380D01*
X-150454285Y-12952380D01*
X-148454285Y-13904761D02*
X-148454285Y-11904761D01*
X-148454285Y-12666666D02*
X-148263809Y-12571428D01*
X-147882857Y-12571428D01*
X-147692380Y-12666666D01*
X-147597142Y-12761904D01*
X-147501904Y-12952380D01*
X-147501904Y-13523809D01*
X-147597142Y-13714285D01*
X-147692380Y-13809523D01*
X-147882857Y-13904761D01*
X-148263809Y-13904761D01*
X-148454285Y-13809523D01*
X-146644761Y-13904761D02*
X-146644761Y-11904761D01*
X-145882857Y-11904761D01*
X-145692380Y-12000000D01*
X-145597142Y-12095238D01*
X-145501904Y-12285714D01*
X-145501904Y-12571428D01*
X-145597142Y-12761904D01*
X-145692380Y-12857142D01*
X-145882857Y-12952380D01*
X-146644761Y-12952380D01*
X-144644761Y-13904761D02*
X-144644761Y-12571428D01*
X-144644761Y-12952380D02*
X-144549523Y-12761904D01*
X-144454285Y-12666666D01*
X-144263809Y-12571428D01*
X-144073333Y-12571428D01*
X-141882857Y-13904761D02*
X-141882857Y-11904761D01*
X-140930476Y-12571428D02*
X-140930476Y-13904761D01*
X-140930476Y-12761904D02*
X-140835238Y-12666666D01*
X-140644761Y-12571428D01*
X-140359047Y-12571428D01*
X-140168571Y-12666666D01*
X-140073333Y-12857142D01*
X-140073333Y-13904761D01*
X-139120952Y-12571428D02*
X-139120952Y-14571428D01*
X-139120952Y-12666666D02*
X-138930476Y-12571428D01*
X-138549523Y-12571428D01*
X-138359047Y-12666666D01*
X-138263809Y-12761904D01*
X-138168571Y-12952380D01*
X-138168571Y-13523809D01*
X-138263809Y-13714285D01*
X-138359047Y-13809523D01*
X-138549523Y-13904761D01*
X-138930476Y-13904761D01*
X-139120952Y-13809523D01*
X-136454285Y-12571428D02*
X-136454285Y-13904761D01*
X-137311428Y-12571428D02*
X-137311428Y-13619047D01*
X-137216190Y-13809523D01*
X-137025714Y-13904761D01*
X-136740000Y-13904761D01*
X-136549523Y-13809523D01*
X-136454285Y-13714285D01*
X-135787619Y-12571428D02*
X-135025714Y-12571428D01*
X-135501904Y-11904761D02*
X-135501904Y-13619047D01*
X-135406666Y-13809523D01*
X-135216190Y-13904761D01*
X-135025714Y-13904761D01*
X-131692380Y-13714285D02*
X-131787619Y-13809523D01*
X-132073333Y-13904761D01*
X-132263809Y-13904761D01*
X-132549523Y-13809523D01*
X-132740000Y-13619047D01*
X-132835238Y-13428571D01*
X-132930476Y-13047619D01*
X-132930476Y-12761904D01*
X-132835238Y-12380952D01*
X-132740000Y-12190476D01*
X-132549523Y-12000000D01*
X-132263809Y-11904761D01*
X-132073333Y-11904761D01*
X-131787619Y-12000000D01*
X-131692380Y-12095238D01*
X-129978095Y-13904761D02*
X-129978095Y-12857142D01*
X-130073333Y-12666666D01*
X-130263809Y-12571428D01*
X-130644761Y-12571428D01*
X-130835238Y-12666666D01*
X-129978095Y-13809523D02*
X-130168571Y-13904761D01*
X-130644761Y-13904761D01*
X-130835238Y-13809523D01*
X-130930476Y-13619047D01*
X-130930476Y-13428571D01*
X-130835238Y-13238095D01*
X-130644761Y-13142857D01*
X-130168571Y-13142857D01*
X-129978095Y-13047619D01*
X-129025714Y-13904761D02*
X-129025714Y-12571428D01*
X-129025714Y-12952380D02*
X-128930476Y-12761904D01*
X-128835238Y-12666666D01*
X-128644761Y-12571428D01*
X-128454285Y-12571428D01*
X-126930476Y-13904761D02*
X-126930476Y-11904761D01*
X-126930476Y-13809523D02*
X-127120952Y-13904761D01*
X-127501904Y-13904761D01*
X-127692380Y-13809523D01*
X-127787619Y-13714285D01*
X-127882857Y-13523809D01*
X-127882857Y-12952380D01*
X-127787619Y-12761904D01*
X-127692380Y-12666666D01*
X-127501904Y-12571428D01*
X-127120952Y-12571428D01*
X-126930476Y-12666666D01*
D12*
X-146185952Y-127904761D02*
X-146852619Y-126952380D01*
X-147328809Y-127904761D02*
X-147328809Y-125904761D01*
X-146566904Y-125904761D01*
X-146376428Y-126000000D01*
X-146281190Y-126095238D01*
X-146185952Y-126285714D01*
X-146185952Y-126571428D01*
X-146281190Y-126761904D01*
X-146376428Y-126857142D01*
X-146566904Y-126952380D01*
X-147328809Y-126952380D01*
X-145328809Y-127904761D02*
X-145328809Y-126571428D01*
X-145328809Y-125904761D02*
X-145424047Y-126000000D01*
X-145328809Y-126095238D01*
X-145233571Y-126000000D01*
X-145328809Y-125904761D01*
X-145328809Y-126095238D01*
X-143519285Y-126571428D02*
X-143519285Y-128190476D01*
X-143614523Y-128380952D01*
X-143709761Y-128476190D01*
X-143900238Y-128571428D01*
X-144185952Y-128571428D01*
X-144376428Y-128476190D01*
X-143519285Y-127809523D02*
X-143709761Y-127904761D01*
X-144090714Y-127904761D01*
X-144281190Y-127809523D01*
X-144376428Y-127714285D01*
X-144471666Y-127523809D01*
X-144471666Y-126952380D01*
X-144376428Y-126761904D01*
X-144281190Y-126666666D01*
X-144090714Y-126571428D01*
X-143709761Y-126571428D01*
X-143519285Y-126666666D01*
X-142566904Y-127904761D02*
X-142566904Y-125904761D01*
X-141709761Y-127904761D02*
X-141709761Y-126857142D01*
X-141805000Y-126666666D01*
X-141995476Y-126571428D01*
X-142281190Y-126571428D01*
X-142471666Y-126666666D01*
X-142566904Y-126761904D01*
X-141043095Y-126571428D02*
X-140281190Y-126571428D01*
X-140757380Y-125904761D02*
X-140757380Y-127619047D01*
X-140662142Y-127809523D01*
X-140471666Y-127904761D01*
X-140281190Y-127904761D01*
X-160328809Y-16904761D02*
X-160328809Y-14904761D01*
X-158709761Y-15857142D02*
X-159376428Y-15857142D01*
X-159376428Y-16904761D02*
X-159376428Y-14904761D01*
X-158424047Y-14904761D01*
X-157662142Y-16142857D02*
X-156138333Y-16142857D01*
X-154043095Y-16714285D02*
X-154138333Y-16809523D01*
X-154424047Y-16904761D01*
X-154614523Y-16904761D01*
X-154900238Y-16809523D01*
X-155090714Y-16619047D01*
X-155185952Y-16428571D01*
X-155281190Y-16047619D01*
X-155281190Y-15761904D01*
X-155185952Y-15380952D01*
X-155090714Y-15190476D01*
X-154900238Y-15000000D01*
X-154614523Y-14904761D01*
X-154424047Y-14904761D01*
X-154138333Y-15000000D01*
X-154043095Y-15095238D01*
X-152805000Y-14904761D02*
X-152614523Y-14904761D01*
X-152424047Y-15000000D01*
X-152328809Y-15095238D01*
X-152233571Y-15285714D01*
X-152138333Y-15666666D01*
X-152138333Y-16142857D01*
X-152233571Y-16523809D01*
X-152328809Y-16714285D01*
X-152424047Y-16809523D01*
X-152614523Y-16904761D01*
X-152805000Y-16904761D01*
X-152995476Y-16809523D01*
X-153090714Y-16714285D01*
X-153185952Y-16523809D01*
X-153281190Y-16142857D01*
X-153281190Y-15666666D01*
X-153185952Y-15285714D01*
X-153090714Y-15095238D01*
X-152995476Y-15000000D01*
X-152805000Y-14904761D01*
X-150233571Y-16904761D02*
X-151376428Y-16904761D01*
X-150805000Y-16904761D02*
X-150805000Y-14904761D01*
X-150995476Y-15190476D01*
X-151185952Y-15380952D01*
X-151376428Y-15476190D01*
X-148233571Y-16714285D02*
X-148328809Y-16809523D01*
X-148614523Y-16904761D01*
X-148805000Y-16904761D01*
X-149090714Y-16809523D01*
X-149281190Y-16619047D01*
X-149376428Y-16428571D01*
X-149471666Y-16047619D01*
X-149471666Y-15761904D01*
X-149376428Y-15380952D01*
X-149281190Y-15190476D01*
X-149090714Y-15000000D01*
X-148805000Y-14904761D01*
X-148614523Y-14904761D01*
X-148328809Y-15000000D01*
X-148233571Y-15095238D01*
X-146995476Y-14904761D02*
X-146614523Y-14904761D01*
X-146424047Y-15000000D01*
X-146233571Y-15190476D01*
X-146138333Y-15571428D01*
X-146138333Y-16238095D01*
X-146233571Y-16619047D01*
X-146424047Y-16809523D01*
X-146614523Y-16904761D01*
X-146995476Y-16904761D01*
X-147185952Y-16809523D01*
X-147376428Y-16619047D01*
X-147471666Y-16238095D01*
X-147471666Y-15571428D01*
X-147376428Y-15190476D01*
X-147185952Y-15000000D01*
X-146995476Y-14904761D01*
X-145281190Y-16904761D02*
X-145281190Y-14904761D01*
X-144614523Y-16333333D01*
X-143947857Y-14904761D01*
X-143947857Y-16904761D01*
X-141947857Y-15000000D02*
X-142138333Y-14904761D01*
X-142424047Y-14904761D01*
X-142709761Y-15000000D01*
X-142900238Y-15190476D01*
X-142995476Y-15380952D01*
X-143090714Y-15761904D01*
X-143090714Y-16047619D01*
X-142995476Y-16428571D01*
X-142900238Y-16619047D01*
X-142709761Y-16809523D01*
X-142424047Y-16904761D01*
X-142233571Y-16904761D01*
X-141947857Y-16809523D01*
X-141852619Y-16714285D01*
X-141852619Y-16047619D01*
X-142233571Y-16047619D01*
X-138614523Y-16809523D02*
X-138805000Y-16904761D01*
X-139185952Y-16904761D01*
X-139376428Y-16809523D01*
X-139471666Y-16714285D01*
X-139566904Y-16523809D01*
X-139566904Y-15952380D01*
X-139471666Y-15761904D01*
X-139376428Y-15666666D01*
X-139185952Y-15571428D01*
X-138805000Y-15571428D01*
X-138614523Y-15666666D01*
X-137471666Y-16904761D02*
X-137662142Y-16809523D01*
X-137757380Y-16714285D01*
X-137852619Y-16523809D01*
X-137852619Y-15952380D01*
X-137757380Y-15761904D01*
X-137662142Y-15666666D01*
X-137471666Y-15571428D01*
X-137185952Y-15571428D01*
X-136995476Y-15666666D01*
X-136900238Y-15761904D01*
X-136805000Y-15952380D01*
X-136805000Y-16523809D01*
X-136900238Y-16714285D01*
X-136995476Y-16809523D01*
X-137185952Y-16904761D01*
X-137471666Y-16904761D01*
X-135947857Y-16904761D02*
X-135947857Y-15571428D01*
X-135947857Y-15761904D02*
X-135852619Y-15666666D01*
X-135662142Y-15571428D01*
X-135376428Y-15571428D01*
X-135185952Y-15666666D01*
X-135090714Y-15857142D01*
X-135090714Y-16904761D01*
X-135090714Y-15857142D02*
X-134995476Y-15666666D01*
X-134805000Y-15571428D01*
X-134519285Y-15571428D01*
X-134328809Y-15666666D01*
X-134233571Y-15857142D01*
X-134233571Y-16904761D01*
X-133281190Y-15571428D02*
X-133281190Y-17571428D01*
X-133281190Y-15666666D02*
X-133090714Y-15571428D01*
X-132709761Y-15571428D01*
X-132519285Y-15666666D01*
X-132424047Y-15761904D01*
X-132328809Y-15952380D01*
X-132328809Y-16523809D01*
X-132424047Y-16714285D01*
X-132519285Y-16809523D01*
X-132709761Y-16904761D01*
X-133090714Y-16904761D01*
X-133281190Y-16809523D01*
X-130614523Y-16904761D02*
X-130614523Y-15857142D01*
X-130709761Y-15666666D01*
X-130900238Y-15571428D01*
X-131281190Y-15571428D01*
X-131471666Y-15666666D01*
X-130614523Y-16809523D02*
X-130805000Y-16904761D01*
X-131281190Y-16904761D01*
X-131471666Y-16809523D01*
X-131566904Y-16619047D01*
X-131566904Y-16428571D01*
X-131471666Y-16238095D01*
X-131281190Y-16142857D01*
X-130805000Y-16142857D01*
X-130614523Y-16047619D01*
X-129947857Y-15571428D02*
X-129185952Y-15571428D01*
X-129662142Y-14904761D02*
X-129662142Y-16619047D01*
X-129566904Y-16809523D01*
X-129376428Y-16904761D01*
X-129185952Y-16904761D01*
X-128519285Y-16904761D02*
X-128519285Y-15571428D01*
X-128519285Y-14904761D02*
X-128614523Y-15000000D01*
X-128519285Y-15095238D01*
X-128424047Y-15000000D01*
X-128519285Y-14904761D01*
X-128519285Y-15095238D01*
X-127566904Y-16904761D02*
X-127566904Y-14904761D01*
X-127566904Y-15666666D02*
X-127376428Y-15571428D01*
X-126995476Y-15571428D01*
X-126805000Y-15666666D01*
X-126709761Y-15761904D01*
X-126614523Y-15952380D01*
X-126614523Y-16523809D01*
X-126709761Y-16714285D01*
X-126805000Y-16809523D01*
X-126995476Y-16904761D01*
X-127376428Y-16904761D01*
X-127566904Y-16809523D01*
X-125471666Y-16904761D02*
X-125662142Y-16809523D01*
X-125757380Y-16619047D01*
X-125757380Y-14904761D01*
X-123947857Y-16809523D02*
X-124138333Y-16904761D01*
X-124519285Y-16904761D01*
X-124709761Y-16809523D01*
X-124805000Y-16619047D01*
X-124805000Y-15857142D01*
X-124709761Y-15666666D01*
X-124519285Y-15571428D01*
X-124138333Y-15571428D01*
X-123947857Y-15666666D01*
X-123852619Y-15857142D01*
X-123852619Y-16047619D01*
X-124805000Y-16238095D01*
X-146376428Y-114904761D02*
X-147328809Y-114904761D01*
X-147328809Y-112904761D01*
X-144947857Y-114809523D02*
X-145138333Y-114904761D01*
X-145519285Y-114904761D01*
X-145709761Y-114809523D01*
X-145805000Y-114619047D01*
X-145805000Y-113857142D01*
X-145709761Y-113666666D01*
X-145519285Y-113571428D01*
X-145138333Y-113571428D01*
X-144947857Y-113666666D01*
X-144852619Y-113857142D01*
X-144852619Y-114047619D01*
X-145805000Y-114238095D01*
X-144281190Y-113571428D02*
X-143519285Y-113571428D01*
X-143995476Y-114904761D02*
X-143995476Y-113190476D01*
X-143900238Y-113000000D01*
X-143709761Y-112904761D01*
X-143519285Y-112904761D01*
X-143138333Y-113571428D02*
X-142376428Y-113571428D01*
X-142852619Y-112904761D02*
X-142852619Y-114619047D01*
X-142757380Y-114809523D01*
X-142566904Y-114904761D01*
X-142376428Y-114904761D01*
X-112828809Y-16904761D02*
X-112828809Y-14904761D01*
X-111209761Y-15857142D02*
X-111876428Y-15857142D01*
X-111876428Y-16904761D02*
X-111876428Y-14904761D01*
X-110924047Y-14904761D01*
X-110162142Y-16142857D02*
X-108638333Y-16142857D01*
X-106543095Y-16714285D02*
X-106638333Y-16809523D01*
X-106924047Y-16904761D01*
X-107114523Y-16904761D01*
X-107400238Y-16809523D01*
X-107590714Y-16619047D01*
X-107685952Y-16428571D01*
X-107781190Y-16047619D01*
X-107781190Y-15761904D01*
X-107685952Y-15380952D01*
X-107590714Y-15190476D01*
X-107400238Y-15000000D01*
X-107114523Y-14904761D01*
X-106924047Y-14904761D01*
X-106638333Y-15000000D01*
X-106543095Y-15095238D01*
X-105305000Y-14904761D02*
X-105114523Y-14904761D01*
X-104924047Y-15000000D01*
X-104828809Y-15095238D01*
X-104733571Y-15285714D01*
X-104638333Y-15666666D01*
X-104638333Y-16142857D01*
X-104733571Y-16523809D01*
X-104828809Y-16714285D01*
X-104924047Y-16809523D01*
X-105114523Y-16904761D01*
X-105305000Y-16904761D01*
X-105495476Y-16809523D01*
X-105590714Y-16714285D01*
X-105685952Y-16523809D01*
X-105781190Y-16142857D01*
X-105781190Y-15666666D01*
X-105685952Y-15285714D01*
X-105590714Y-15095238D01*
X-105495476Y-15000000D01*
X-105305000Y-14904761D01*
X-102733571Y-16904761D02*
X-103876428Y-16904761D01*
X-103305000Y-16904761D02*
X-103305000Y-14904761D01*
X-103495476Y-15190476D01*
X-103685952Y-15380952D01*
X-103876428Y-15476190D01*
X-100733571Y-16714285D02*
X-100828809Y-16809523D01*
X-101114523Y-16904761D01*
X-101305000Y-16904761D01*
X-101590714Y-16809523D01*
X-101781190Y-16619047D01*
X-101876428Y-16428571D01*
X-101971666Y-16047619D01*
X-101971666Y-15761904D01*
X-101876428Y-15380952D01*
X-101781190Y-15190476D01*
X-101590714Y-15000000D01*
X-101305000Y-14904761D01*
X-101114523Y-14904761D01*
X-100828809Y-15000000D01*
X-100733571Y-15095238D01*
X-99495476Y-14904761D02*
X-99114523Y-14904761D01*
X-98924047Y-15000000D01*
X-98733571Y-15190476D01*
X-98638333Y-15571428D01*
X-98638333Y-16238095D01*
X-98733571Y-16619047D01*
X-98924047Y-16809523D01*
X-99114523Y-16904761D01*
X-99495476Y-16904761D01*
X-99685952Y-16809523D01*
X-99876428Y-16619047D01*
X-99971666Y-16238095D01*
X-99971666Y-15571428D01*
X-99876428Y-15190476D01*
X-99685952Y-15000000D01*
X-99495476Y-14904761D01*
X-97781190Y-16904761D02*
X-97781190Y-14904761D01*
X-97114523Y-16333333D01*
X-96447857Y-14904761D01*
X-96447857Y-16904761D01*
X-94447857Y-15000000D02*
X-94638333Y-14904761D01*
X-94924047Y-14904761D01*
X-95209761Y-15000000D01*
X-95400238Y-15190476D01*
X-95495476Y-15380952D01*
X-95590714Y-15761904D01*
X-95590714Y-16047619D01*
X-95495476Y-16428571D01*
X-95400238Y-16619047D01*
X-95209761Y-16809523D01*
X-94924047Y-16904761D01*
X-94733571Y-16904761D01*
X-94447857Y-16809523D01*
X-94352619Y-16714285D01*
X-94352619Y-16047619D01*
X-94733571Y-16047619D01*
X-91114523Y-16809523D02*
X-91305000Y-16904761D01*
X-91685952Y-16904761D01*
X-91876428Y-16809523D01*
X-91971666Y-16714285D01*
X-92066904Y-16523809D01*
X-92066904Y-15952380D01*
X-91971666Y-15761904D01*
X-91876428Y-15666666D01*
X-91685952Y-15571428D01*
X-91305000Y-15571428D01*
X-91114523Y-15666666D01*
X-89971666Y-16904761D02*
X-90162142Y-16809523D01*
X-90257380Y-16714285D01*
X-90352619Y-16523809D01*
X-90352619Y-15952380D01*
X-90257380Y-15761904D01*
X-90162142Y-15666666D01*
X-89971666Y-15571428D01*
X-89685952Y-15571428D01*
X-89495476Y-15666666D01*
X-89400238Y-15761904D01*
X-89305000Y-15952380D01*
X-89305000Y-16523809D01*
X-89400238Y-16714285D01*
X-89495476Y-16809523D01*
X-89685952Y-16904761D01*
X-89971666Y-16904761D01*
X-88447857Y-16904761D02*
X-88447857Y-15571428D01*
X-88447857Y-15761904D02*
X-88352619Y-15666666D01*
X-88162142Y-15571428D01*
X-87876428Y-15571428D01*
X-87685952Y-15666666D01*
X-87590714Y-15857142D01*
X-87590714Y-16904761D01*
X-87590714Y-15857142D02*
X-87495476Y-15666666D01*
X-87305000Y-15571428D01*
X-87019285Y-15571428D01*
X-86828809Y-15666666D01*
X-86733571Y-15857142D01*
X-86733571Y-16904761D01*
X-85781190Y-15571428D02*
X-85781190Y-17571428D01*
X-85781190Y-15666666D02*
X-85590714Y-15571428D01*
X-85209761Y-15571428D01*
X-85019285Y-15666666D01*
X-84924047Y-15761904D01*
X-84828809Y-15952380D01*
X-84828809Y-16523809D01*
X-84924047Y-16714285D01*
X-85019285Y-16809523D01*
X-85209761Y-16904761D01*
X-85590714Y-16904761D01*
X-85781190Y-16809523D01*
X-83114523Y-16904761D02*
X-83114523Y-15857142D01*
X-83209761Y-15666666D01*
X-83400238Y-15571428D01*
X-83781190Y-15571428D01*
X-83971666Y-15666666D01*
X-83114523Y-16809523D02*
X-83305000Y-16904761D01*
X-83781190Y-16904761D01*
X-83971666Y-16809523D01*
X-84066904Y-16619047D01*
X-84066904Y-16428571D01*
X-83971666Y-16238095D01*
X-83781190Y-16142857D01*
X-83305000Y-16142857D01*
X-83114523Y-16047619D01*
X-82447857Y-15571428D02*
X-81685952Y-15571428D01*
X-82162142Y-14904761D02*
X-82162142Y-16619047D01*
X-82066904Y-16809523D01*
X-81876428Y-16904761D01*
X-81685952Y-16904761D01*
X-81019285Y-16904761D02*
X-81019285Y-15571428D01*
X-81019285Y-14904761D02*
X-81114523Y-15000000D01*
X-81019285Y-15095238D01*
X-80924047Y-15000000D01*
X-81019285Y-14904761D01*
X-81019285Y-15095238D01*
X-80066904Y-16904761D02*
X-80066904Y-14904761D01*
X-80066904Y-15666666D02*
X-79876428Y-15571428D01*
X-79495476Y-15571428D01*
X-79305000Y-15666666D01*
X-79209761Y-15761904D01*
X-79114523Y-15952380D01*
X-79114523Y-16523809D01*
X-79209761Y-16714285D01*
X-79305000Y-16809523D01*
X-79495476Y-16904761D01*
X-79876428Y-16904761D01*
X-80066904Y-16809523D01*
X-77971666Y-16904761D02*
X-78162142Y-16809523D01*
X-78257380Y-16619047D01*
X-78257380Y-14904761D01*
X-76447857Y-16809523D02*
X-76638333Y-16904761D01*
X-77019285Y-16904761D01*
X-77209761Y-16809523D01*
X-77305000Y-16619047D01*
X-77305000Y-15857142D01*
X-77209761Y-15666666D01*
X-77019285Y-15571428D01*
X-76638333Y-15571428D01*
X-76447857Y-15666666D01*
X-76352619Y-15857142D01*
X-76352619Y-16047619D01*
X-77305000Y-16238095D01*
D13*
X-111620952Y-13904761D02*
X-112287619Y-12952380D01*
X-112763809Y-13904761D02*
X-112763809Y-11904761D01*
X-112001904Y-11904761D01*
X-111811428Y-12000000D01*
X-111716190Y-12095238D01*
X-111620952Y-12285714D01*
X-111620952Y-12571428D01*
X-111716190Y-12761904D01*
X-111811428Y-12857142D01*
X-112001904Y-12952380D01*
X-112763809Y-12952380D01*
X-109716190Y-12000000D02*
X-109906666Y-11904761D01*
X-110192380Y-11904761D01*
X-110478095Y-12000000D01*
X-110668571Y-12190476D01*
X-110763809Y-12380952D01*
X-110859047Y-12761904D01*
X-110859047Y-13047619D01*
X-110763809Y-13428571D01*
X-110668571Y-13619047D01*
X-110478095Y-13809523D01*
X-110192380Y-13904761D01*
X-110001904Y-13904761D01*
X-109716190Y-13809523D01*
X-109620952Y-13714285D01*
X-109620952Y-13047619D01*
X-110001904Y-13047619D01*
X-108097142Y-12857142D02*
X-107811428Y-12952380D01*
X-107716190Y-13047619D01*
X-107620952Y-13238095D01*
X-107620952Y-13523809D01*
X-107716190Y-13714285D01*
X-107811428Y-13809523D01*
X-108001904Y-13904761D01*
X-108763809Y-13904761D01*
X-108763809Y-11904761D01*
X-108097142Y-11904761D01*
X-107906666Y-12000000D01*
X-107811428Y-12095238D01*
X-107716190Y-12285714D01*
X-107716190Y-12476190D01*
X-107811428Y-12666666D01*
X-107906666Y-12761904D01*
X-108097142Y-12857142D01*
X-108763809Y-12857142D01*
X-105335238Y-11809523D02*
X-107049523Y-14380952D01*
X-104287619Y-12952380D02*
X-104287619Y-13904761D01*
X-104954285Y-11904761D02*
X-104287619Y-12952380D01*
X-103620952Y-11904761D01*
X-102954285Y-13904761D02*
X-102954285Y-11904761D01*
X-102192380Y-11904761D01*
X-102001904Y-12000000D01*
X-101906666Y-12095238D01*
X-101811428Y-12285714D01*
X-101811428Y-12571428D01*
X-101906666Y-12761904D01*
X-102001904Y-12857142D01*
X-102192380Y-12952380D01*
X-102954285Y-12952380D01*
X-100954285Y-13904761D02*
X-100954285Y-11904761D01*
X-100954285Y-12666666D02*
X-100763809Y-12571428D01*
X-100382857Y-12571428D01*
X-100192380Y-12666666D01*
X-100097142Y-12761904D01*
X-100001904Y-12952380D01*
X-100001904Y-13523809D01*
X-100097142Y-13714285D01*
X-100192380Y-13809523D01*
X-100382857Y-13904761D01*
X-100763809Y-13904761D01*
X-100954285Y-13809523D01*
X-99144761Y-13904761D02*
X-99144761Y-11904761D01*
X-98382857Y-11904761D01*
X-98192380Y-12000000D01*
X-98097142Y-12095238D01*
X-98001904Y-12285714D01*
X-98001904Y-12571428D01*
X-98097142Y-12761904D01*
X-98192380Y-12857142D01*
X-98382857Y-12952380D01*
X-99144761Y-12952380D01*
X-97144761Y-13904761D02*
X-97144761Y-12571428D01*
X-97144761Y-12952380D02*
X-97049523Y-12761904D01*
X-96954285Y-12666666D01*
X-96763809Y-12571428D01*
X-96573333Y-12571428D01*
X-94382857Y-13904761D02*
X-94382857Y-11904761D01*
X-93430476Y-12571428D02*
X-93430476Y-13904761D01*
X-93430476Y-12761904D02*
X-93335238Y-12666666D01*
X-93144761Y-12571428D01*
X-92859047Y-12571428D01*
X-92668571Y-12666666D01*
X-92573333Y-12857142D01*
X-92573333Y-13904761D01*
X-91620952Y-12571428D02*
X-91620952Y-14571428D01*
X-91620952Y-12666666D02*
X-91430476Y-12571428D01*
X-91049523Y-12571428D01*
X-90859047Y-12666666D01*
X-90763809Y-12761904D01*
X-90668571Y-12952380D01*
X-90668571Y-13523809D01*
X-90763809Y-13714285D01*
X-90859047Y-13809523D01*
X-91049523Y-13904761D01*
X-91430476Y-13904761D01*
X-91620952Y-13809523D01*
X-88954285Y-12571428D02*
X-88954285Y-13904761D01*
X-89811428Y-12571428D02*
X-89811428Y-13619047D01*
X-89716190Y-13809523D01*
X-89525714Y-13904761D01*
X-89240000Y-13904761D01*
X-89049523Y-13809523D01*
X-88954285Y-13714285D01*
X-88287619Y-12571428D02*
X-87525714Y-12571428D01*
X-88001904Y-11904761D02*
X-88001904Y-13619047D01*
X-87906666Y-13809523D01*
X-87716190Y-13904761D01*
X-87525714Y-13904761D01*
X-84192380Y-13714285D02*
X-84287619Y-13809523D01*
X-84573333Y-13904761D01*
X-84763809Y-13904761D01*
X-85049523Y-13809523D01*
X-85240000Y-13619047D01*
X-85335238Y-13428571D01*
X-85430476Y-13047619D01*
X-85430476Y-12761904D01*
X-85335238Y-12380952D01*
X-85240000Y-12190476D01*
X-85049523Y-12000000D01*
X-84763809Y-11904761D01*
X-84573333Y-11904761D01*
X-84287619Y-12000000D01*
X-84192380Y-12095238D01*
X-82478095Y-13904761D02*
X-82478095Y-12857142D01*
X-82573333Y-12666666D01*
X-82763809Y-12571428D01*
X-83144761Y-12571428D01*
X-83335238Y-12666666D01*
X-82478095Y-13809523D02*
X-82668571Y-13904761D01*
X-83144761Y-13904761D01*
X-83335238Y-13809523D01*
X-83430476Y-13619047D01*
X-83430476Y-13428571D01*
X-83335238Y-13238095D01*
X-83144761Y-13142857D01*
X-82668571Y-13142857D01*
X-82478095Y-13047619D01*
X-81525714Y-13904761D02*
X-81525714Y-12571428D01*
X-81525714Y-12952380D02*
X-81430476Y-12761904D01*
X-81335238Y-12666666D01*
X-81144761Y-12571428D01*
X-80954285Y-12571428D01*
X-79430476Y-13904761D02*
X-79430476Y-11904761D01*
X-79430476Y-13809523D02*
X-79620952Y-13904761D01*
X-80001904Y-13904761D01*
X-80192380Y-13809523D01*
X-80287619Y-13714285D01*
X-80382857Y-13523809D01*
X-80382857Y-12952380D01*
X-80287619Y-12761904D01*
X-80192380Y-12666666D01*
X-80001904Y-12571428D01*
X-79620952Y-12571428D01*
X-79430476Y-12666666D01*
D12*
X-99924047Y-114333333D02*
X-98971666Y-114333333D01*
X-100114523Y-114904761D02*
X-99447857Y-112904761D01*
X-98781190Y-114904761D01*
X-97257380Y-113571428D02*
X-97257380Y-114904761D01*
X-98114523Y-113571428D02*
X-98114523Y-114619047D01*
X-98019285Y-114809523D01*
X-97828809Y-114904761D01*
X-97543095Y-114904761D01*
X-97352619Y-114809523D01*
X-97257380Y-114714285D01*
X-95447857Y-114904761D02*
X-95447857Y-112904761D01*
X-95447857Y-114809523D02*
X-95638333Y-114904761D01*
X-96019285Y-114904761D01*
X-96209761Y-114809523D01*
X-96305000Y-114714285D01*
X-96400238Y-114523809D01*
X-96400238Y-113952380D01*
X-96305000Y-113761904D01*
X-96209761Y-113666666D01*
X-96019285Y-113571428D01*
X-95638333Y-113571428D01*
X-95447857Y-113666666D01*
X-94495476Y-114904761D02*
X-94495476Y-113571428D01*
X-94495476Y-112904761D02*
X-94590714Y-113000000D01*
X-94495476Y-113095238D01*
X-94400238Y-113000000D01*
X-94495476Y-112904761D01*
X-94495476Y-113095238D01*
X-93257380Y-114904761D02*
X-93447857Y-114809523D01*
X-93543095Y-114714285D01*
X-93638333Y-114523809D01*
X-93638333Y-113952380D01*
X-93543095Y-113761904D01*
X-93447857Y-113666666D01*
X-93257380Y-113571428D01*
X-92971666Y-113571428D01*
X-92781190Y-113666666D01*
X-92685952Y-113761904D01*
X-92590714Y-113952380D01*
X-92590714Y-114523809D01*
X-92685952Y-114714285D01*
X-92781190Y-114809523D01*
X-92971666Y-114904761D01*
X-93257380Y-114904761D01*
X-95614523Y-93904761D02*
X-94947857Y-95904761D01*
X-94281190Y-93904761D01*
X-93709761Y-95809523D02*
X-93519285Y-95904761D01*
X-93138333Y-95904761D01*
X-92947857Y-95809523D01*
X-92852619Y-95619047D01*
X-92852619Y-95523809D01*
X-92947857Y-95333333D01*
X-93138333Y-95238095D01*
X-93424047Y-95238095D01*
X-93614523Y-95142857D01*
X-93709761Y-94952380D01*
X-93709761Y-94857142D01*
X-93614523Y-94666666D01*
X-93424047Y-94571428D01*
X-93138333Y-94571428D01*
X-92947857Y-94666666D01*
X-92185952Y-94571428D02*
X-91709761Y-95904761D01*
X-91233571Y-94571428D02*
X-91709761Y-95904761D01*
X-91900238Y-96380952D01*
X-91995476Y-96476190D01*
X-92185952Y-96571428D01*
X-90471666Y-94571428D02*
X-90471666Y-95904761D01*
X-90471666Y-94761904D02*
X-90376428Y-94666666D01*
X-90185952Y-94571428D01*
X-89900238Y-94571428D01*
X-89709761Y-94666666D01*
X-89614523Y-94857142D01*
X-89614523Y-95904761D01*
X-87805000Y-95809523D02*
X-87995476Y-95904761D01*
X-88376428Y-95904761D01*
X-88566904Y-95809523D01*
X-88662142Y-95714285D01*
X-88757380Y-95523809D01*
X-88757380Y-94952380D01*
X-88662142Y-94761904D01*
X-88566904Y-94666666D01*
X-88376428Y-94571428D01*
X-87995476Y-94571428D01*
X-87805000Y-94666666D01*
X-95328809Y-79904761D02*
X-95328809Y-77904761D01*
X-95328809Y-78857142D02*
X-94185952Y-78857142D01*
X-94185952Y-79904761D02*
X-94185952Y-77904761D01*
X-90281190Y-77809523D02*
X-91995476Y-80380952D01*
X-86947857Y-79714285D02*
X-87043095Y-79809523D01*
X-87328809Y-79904761D01*
X-87519285Y-79904761D01*
X-87805000Y-79809523D01*
X-87995476Y-79619047D01*
X-88090714Y-79428571D01*
X-88185952Y-79047619D01*
X-88185952Y-78761904D01*
X-88090714Y-78380952D01*
X-87995476Y-78190476D01*
X-87805000Y-78000000D01*
X-87519285Y-77904761D01*
X-87328809Y-77904761D01*
X-87043095Y-78000000D01*
X-86947857Y-78095238D01*
X-86185952Y-79809523D02*
X-85995476Y-79904761D01*
X-85614523Y-79904761D01*
X-85424047Y-79809523D01*
X-85328809Y-79619047D01*
X-85328809Y-79523809D01*
X-85424047Y-79333333D01*
X-85614523Y-79238095D01*
X-85900238Y-79238095D01*
X-86090714Y-79142857D01*
X-86185952Y-78952380D01*
X-86185952Y-78857142D01*
X-86090714Y-78666666D01*
X-85900238Y-78571428D01*
X-85614523Y-78571428D01*
X-85424047Y-78666666D01*
X-84662142Y-78571428D02*
X-84185952Y-79904761D01*
X-83709761Y-78571428D02*
X-84185952Y-79904761D01*
X-84376428Y-80380952D01*
X-84471666Y-80476190D01*
X-84662142Y-80571428D01*
X-82947857Y-78571428D02*
X-82947857Y-79904761D01*
X-82947857Y-78761904D02*
X-82852619Y-78666666D01*
X-82662142Y-78571428D01*
X-82376428Y-78571428D01*
X-82185952Y-78666666D01*
X-82090714Y-78857142D01*
X-82090714Y-79904761D01*
X-80281190Y-79809523D02*
X-80471666Y-79904761D01*
X-80852619Y-79904761D01*
X-81043095Y-79809523D01*
X-81138333Y-79714285D01*
X-81233571Y-79523809D01*
X-81233571Y-78952380D01*
X-81138333Y-78761904D01*
X-81043095Y-78666666D01*
X-80852619Y-78571428D01*
X-80471666Y-78571428D01*
X-80281190Y-78666666D01*
X-94662142Y-62857142D02*
X-94376428Y-62952380D01*
X-94281190Y-63047619D01*
X-94185952Y-63238095D01*
X-94185952Y-63523809D01*
X-94281190Y-63714285D01*
X-94376428Y-63809523D01*
X-94566904Y-63904761D01*
X-95328809Y-63904761D01*
X-95328809Y-61904761D01*
X-94662142Y-61904761D01*
X-94471666Y-62000000D01*
X-94376428Y-62095238D01*
X-94281190Y-62285714D01*
X-94281190Y-62476190D01*
X-94376428Y-62666666D01*
X-94471666Y-62761904D01*
X-94662142Y-62857142D01*
X-95328809Y-62857142D01*
X-93043095Y-63904761D02*
X-93233571Y-63809523D01*
X-93328809Y-63619047D01*
X-93328809Y-61904761D01*
X-91424047Y-62571428D02*
X-91424047Y-63904761D01*
X-92281190Y-62571428D02*
X-92281190Y-63619047D01*
X-92185952Y-63809523D01*
X-91995476Y-63904761D01*
X-91709761Y-63904761D01*
X-91519285Y-63809523D01*
X-91424047Y-63714285D01*
X-89709761Y-63809523D02*
X-89900238Y-63904761D01*
X-90281190Y-63904761D01*
X-90471666Y-63809523D01*
X-90566904Y-63619047D01*
X-90566904Y-62857142D01*
X-90471666Y-62666666D01*
X-90281190Y-62571428D01*
X-89900238Y-62571428D01*
X-89709761Y-62666666D01*
X-89614523Y-62857142D01*
X-89614523Y-63047619D01*
X-90566904Y-63238095D01*
X-85805000Y-61809523D02*
X-87519285Y-64380952D01*
X-83614523Y-63904761D02*
X-83614523Y-61904761D01*
X-82852619Y-61904761D01*
X-82662142Y-62000000D01*
X-82566904Y-62095238D01*
X-82471666Y-62285714D01*
X-82471666Y-62571428D01*
X-82566904Y-62761904D01*
X-82662142Y-62857142D01*
X-82852619Y-62952380D01*
X-83614523Y-62952380D01*
X-81614523Y-63904761D02*
X-81614523Y-61904761D01*
X-81614523Y-62666666D02*
X-81424047Y-62571428D01*
X-81043095Y-62571428D01*
X-80852619Y-62666666D01*
X-80757380Y-62761904D01*
X-80662142Y-62952380D01*
X-80662142Y-63523809D01*
X-80757380Y-63714285D01*
X-80852619Y-63809523D01*
X-81043095Y-63904761D01*
X-81424047Y-63904761D01*
X-81614523Y-63809523D01*
X-94281190Y-46000000D02*
X-94471666Y-45904761D01*
X-94757380Y-45904761D01*
X-95043095Y-46000000D01*
X-95233571Y-46190476D01*
X-95328809Y-46380952D01*
X-95424047Y-46761904D01*
X-95424047Y-47047619D01*
X-95328809Y-47428571D01*
X-95233571Y-47619047D01*
X-95043095Y-47809523D01*
X-94757380Y-47904761D01*
X-94566904Y-47904761D01*
X-94281190Y-47809523D01*
X-94185952Y-47714285D01*
X-94185952Y-47047619D01*
X-94566904Y-47047619D01*
X-93328809Y-47904761D02*
X-93328809Y-46571428D01*
X-93328809Y-46952380D02*
X-93233571Y-46761904D01*
X-93138333Y-46666666D01*
X-92947857Y-46571428D01*
X-92757380Y-46571428D01*
X-91328809Y-47809523D02*
X-91519285Y-47904761D01*
X-91900238Y-47904761D01*
X-92090714Y-47809523D01*
X-92185952Y-47619047D01*
X-92185952Y-46857142D01*
X-92090714Y-46666666D01*
X-91900238Y-46571428D01*
X-91519285Y-46571428D01*
X-91328809Y-46666666D01*
X-91233571Y-46857142D01*
X-91233571Y-47047619D01*
X-92185952Y-47238095D01*
X-89614523Y-47809523D02*
X-89805000Y-47904761D01*
X-90185952Y-47904761D01*
X-90376428Y-47809523D01*
X-90471666Y-47619047D01*
X-90471666Y-46857142D01*
X-90376428Y-46666666D01*
X-90185952Y-46571428D01*
X-89805000Y-46571428D01*
X-89614523Y-46666666D01*
X-89519285Y-46857142D01*
X-89519285Y-47047619D01*
X-90471666Y-47238095D01*
X-88662142Y-46571428D02*
X-88662142Y-47904761D01*
X-88662142Y-46761904D02*
X-88566904Y-46666666D01*
X-88376428Y-46571428D01*
X-88090714Y-46571428D01*
X-87900238Y-46666666D01*
X-87805000Y-46857142D01*
X-87805000Y-47904761D01*
X-83900238Y-45809523D02*
X-85614523Y-48380952D01*
X-81328809Y-46952380D02*
X-81328809Y-47904761D01*
X-81995476Y-45904761D02*
X-81328809Y-46952380D01*
X-80662142Y-45904761D01*
X-94185952Y-31904761D02*
X-94852619Y-30952380D01*
X-95328809Y-31904761D02*
X-95328809Y-29904761D01*
X-94566904Y-29904761D01*
X-94376428Y-30000000D01*
X-94281190Y-30095238D01*
X-94185952Y-30285714D01*
X-94185952Y-30571428D01*
X-94281190Y-30761904D01*
X-94376428Y-30857142D01*
X-94566904Y-30952380D01*
X-95328809Y-30952380D01*
X-92566904Y-31809523D02*
X-92757380Y-31904761D01*
X-93138333Y-31904761D01*
X-93328809Y-31809523D01*
X-93424047Y-31619047D01*
X-93424047Y-30857142D01*
X-93328809Y-30666666D01*
X-93138333Y-30571428D01*
X-92757380Y-30571428D01*
X-92566904Y-30666666D01*
X-92471666Y-30857142D01*
X-92471666Y-31047619D01*
X-93424047Y-31238095D01*
X-90757380Y-31904761D02*
X-90757380Y-29904761D01*
X-90757380Y-31809523D02*
X-90947857Y-31904761D01*
X-91328809Y-31904761D01*
X-91519285Y-31809523D01*
X-91614523Y-31714285D01*
X-91709761Y-31523809D01*
X-91709761Y-30952380D01*
X-91614523Y-30761904D01*
X-91519285Y-30666666D01*
X-91328809Y-30571428D01*
X-90947857Y-30571428D01*
X-90757380Y-30666666D01*
X-86852619Y-29809523D02*
X-88566904Y-32380952D01*
X-84662142Y-31904761D02*
X-84662142Y-29904761D01*
X-83900238Y-29904761D01*
X-83709761Y-30000000D01*
X-83614523Y-30095238D01*
X-83519285Y-30285714D01*
X-83519285Y-30571428D01*
X-83614523Y-30761904D01*
X-83709761Y-30857142D01*
X-83900238Y-30952380D01*
X-84662142Y-30952380D01*
X-82662142Y-31904761D02*
X-82662142Y-30571428D01*
X-82662142Y-30952380D02*
X-82566904Y-30761904D01*
X-82471666Y-30666666D01*
X-82281190Y-30571428D01*
X-82090714Y-30571428D01*
D14*
G36*
X-163812800Y-12061600D02*
G01*
X-163812800Y-11655200D01*
X-163406400Y-11655200D01*
X-163406400Y-12061600D01*
X-163812800Y-12061600D01*
G37*
X-163812800Y-12061600D02*
X-163812800Y-11655200D01*
X-163406400Y-11655200D01*
X-163406400Y-12061600D01*
X-163812800Y-12061600D01*
G36*
X-164625600Y-11248800D02*
G01*
X-163812800Y-11248800D01*
X-163812800Y-11655200D01*
X-164625600Y-11655200D01*
X-164625600Y-11248800D01*
G37*
X-164625600Y-11248800D02*
X-163812800Y-11248800D01*
X-163812800Y-11655200D01*
X-164625600Y-11655200D01*
X-164625600Y-11248800D01*
G36*
X-162187200Y-11248800D02*
G01*
X-161374400Y-11248800D01*
X-161374400Y-11655200D01*
X-160968000Y-11655200D01*
X-160968000Y-16125600D01*
X-161374400Y-16125600D01*
X-161374400Y-16532000D01*
X-161780800Y-16532000D01*
X-161780800Y-16938400D01*
X-162187200Y-16938400D01*
X-162187200Y-17344800D01*
X-162593600Y-17344800D01*
X-162593600Y-17751200D01*
X-163406400Y-17751200D01*
X-163406400Y-17344800D01*
X-163812800Y-17344800D01*
X-163812800Y-16938400D01*
X-164219200Y-16938400D01*
X-164219200Y-16532000D01*
X-164625600Y-16532000D01*
X-164625600Y-16125600D01*
X-165032000Y-16125600D01*
X-165032000Y-11655200D01*
X-164625600Y-11655200D01*
X-164625600Y-15719200D01*
X-164219200Y-15719200D01*
X-164219200Y-16125600D01*
X-163812800Y-16125600D01*
X-163812800Y-16532000D01*
X-163406400Y-16532000D01*
X-163406400Y-16938400D01*
X-162593600Y-16938400D01*
X-162593600Y-16532000D01*
X-162187200Y-16532000D01*
X-162187200Y-16125600D01*
X-161780800Y-16125600D01*
X-161780800Y-15719200D01*
X-161374400Y-15719200D01*
X-161374400Y-15312800D01*
X-161780800Y-15312800D01*
X-161780800Y-14906400D01*
X-161374400Y-14906400D01*
X-161374400Y-14500000D01*
X-161780800Y-14500000D01*
X-161780800Y-14093600D01*
X-161374400Y-14093600D01*
X-161374400Y-13687200D01*
X-161780800Y-13687200D01*
X-161780800Y-13280800D01*
X-161374400Y-13280800D01*
X-161374400Y-12874400D01*
X-161780800Y-12874400D01*
X-161780800Y-12468000D01*
X-161374400Y-12468000D01*
X-161374400Y-12061600D01*
X-161780800Y-12061600D01*
X-161780800Y-11655200D01*
X-162187200Y-11655200D01*
X-162187200Y-11248800D01*
G37*
X-162187200Y-11248800D02*
X-161374400Y-11248800D01*
X-161374400Y-11655200D01*
X-160968000Y-11655200D01*
X-160968000Y-16125600D01*
X-161374400Y-16125600D01*
X-161374400Y-16532000D01*
X-161780800Y-16532000D01*
X-161780800Y-16938400D01*
X-162187200Y-16938400D01*
X-162187200Y-17344800D01*
X-162593600Y-17344800D01*
X-162593600Y-17751200D01*
X-163406400Y-17751200D01*
X-163406400Y-17344800D01*
X-163812800Y-17344800D01*
X-163812800Y-16938400D01*
X-164219200Y-16938400D01*
X-164219200Y-16532000D01*
X-164625600Y-16532000D01*
X-164625600Y-16125600D01*
X-165032000Y-16125600D01*
X-165032000Y-11655200D01*
X-164625600Y-11655200D01*
X-164625600Y-15719200D01*
X-164219200Y-15719200D01*
X-164219200Y-16125600D01*
X-163812800Y-16125600D01*
X-163812800Y-16532000D01*
X-163406400Y-16532000D01*
X-163406400Y-16938400D01*
X-162593600Y-16938400D01*
X-162593600Y-16532000D01*
X-162187200Y-16532000D01*
X-162187200Y-16125600D01*
X-161780800Y-16125600D01*
X-161780800Y-15719200D01*
X-161374400Y-15719200D01*
X-161374400Y-15312800D01*
X-161780800Y-15312800D01*
X-161780800Y-14906400D01*
X-161374400Y-14906400D01*
X-161374400Y-14500000D01*
X-161780800Y-14500000D01*
X-161780800Y-14093600D01*
X-161374400Y-14093600D01*
X-161374400Y-13687200D01*
X-161780800Y-13687200D01*
X-161780800Y-13280800D01*
X-161374400Y-13280800D01*
X-161374400Y-12874400D01*
X-161780800Y-12874400D01*
X-161780800Y-12468000D01*
X-161374400Y-12468000D01*
X-161374400Y-12061600D01*
X-161780800Y-12061600D01*
X-161780800Y-11655200D01*
X-162187200Y-11655200D01*
X-162187200Y-11248800D01*
G36*
X-162593600Y-11655200D02*
G01*
X-162187200Y-11655200D01*
X-162187200Y-12061600D01*
X-162593600Y-12061600D01*
X-162593600Y-11655200D01*
G37*
X-162593600Y-11655200D02*
X-162187200Y-11655200D01*
X-162187200Y-12061600D01*
X-162593600Y-12061600D01*
X-162593600Y-11655200D01*
G36*
X-162593600Y-12061600D02*
G01*
X-162593600Y-12468000D01*
X-163406400Y-12468000D01*
X-163406400Y-12061600D01*
X-162593600Y-12061600D01*
G37*
X-162593600Y-12061600D02*
X-162593600Y-12468000D01*
X-163406400Y-12468000D01*
X-163406400Y-12061600D01*
X-162593600Y-12061600D01*
G36*
X-162593600Y-16532000D02*
G01*
X-163000000Y-16532000D01*
X-163000000Y-16125600D01*
X-162593600Y-16125600D01*
X-162593600Y-16532000D01*
G37*
X-162593600Y-16532000D02*
X-163000000Y-16532000D01*
X-163000000Y-16125600D01*
X-162593600Y-16125600D01*
X-162593600Y-16532000D01*
G36*
X-162187200Y-12061600D02*
G01*
X-161780800Y-12061600D01*
X-161780800Y-12468000D01*
X-162187200Y-12468000D01*
X-162187200Y-12061600D01*
G37*
X-162187200Y-12061600D02*
X-161780800Y-12061600D01*
X-161780800Y-12468000D01*
X-162187200Y-12468000D01*
X-162187200Y-12061600D01*
G36*
X-162593600Y-12468000D02*
G01*
X-162187200Y-12468000D01*
X-162187200Y-12874400D01*
X-162593600Y-12874400D01*
X-162593600Y-12468000D01*
G37*
X-162593600Y-12468000D02*
X-162187200Y-12468000D01*
X-162187200Y-12874400D01*
X-162593600Y-12874400D01*
X-162593600Y-12468000D01*
G36*
X-163000000Y-13280800D02*
G01*
X-163000000Y-12874400D01*
X-162593600Y-12874400D01*
X-162593600Y-13280800D01*
X-163000000Y-13280800D01*
G37*
X-163000000Y-13280800D02*
X-163000000Y-12874400D01*
X-162593600Y-12874400D01*
X-162593600Y-13280800D01*
X-163000000Y-13280800D01*
G36*
X-162187200Y-12874400D02*
G01*
X-161780800Y-12874400D01*
X-161780800Y-13280800D01*
X-162187200Y-13280800D01*
X-162187200Y-12874400D01*
G37*
X-162187200Y-12874400D02*
X-161780800Y-12874400D01*
X-161780800Y-13280800D01*
X-162187200Y-13280800D01*
X-162187200Y-12874400D01*
G36*
X-163000000Y-14093600D02*
G01*
X-163000000Y-13687200D01*
X-162593600Y-13687200D01*
X-162593600Y-14093600D01*
X-163000000Y-14093600D01*
G37*
X-163000000Y-14093600D02*
X-163000000Y-13687200D01*
X-162593600Y-13687200D01*
X-162593600Y-14093600D01*
X-163000000Y-14093600D01*
G36*
X-162187200Y-13687200D02*
G01*
X-161780800Y-13687200D01*
X-161780800Y-14093600D01*
X-162187200Y-14093600D01*
X-162187200Y-13687200D01*
G37*
X-162187200Y-13687200D02*
X-161780800Y-13687200D01*
X-161780800Y-14093600D01*
X-162187200Y-14093600D01*
X-162187200Y-13687200D01*
G36*
X-163000000Y-14906400D02*
G01*
X-163000000Y-14500000D01*
X-162593600Y-14500000D01*
X-162593600Y-14906400D01*
X-163000000Y-14906400D01*
G37*
X-163000000Y-14906400D02*
X-163000000Y-14500000D01*
X-162593600Y-14500000D01*
X-162593600Y-14906400D01*
X-163000000Y-14906400D01*
G36*
X-162187200Y-14500000D02*
G01*
X-161780800Y-14500000D01*
X-161780800Y-14906400D01*
X-162187200Y-14906400D01*
X-162187200Y-14500000D01*
G37*
X-162187200Y-14500000D02*
X-161780800Y-14500000D01*
X-161780800Y-14906400D01*
X-162187200Y-14906400D01*
X-162187200Y-14500000D01*
G36*
X-163000000Y-15719200D02*
G01*
X-163000000Y-15312800D01*
X-162593600Y-15312800D01*
X-162593600Y-15719200D01*
X-163000000Y-15719200D01*
G37*
X-163000000Y-15719200D02*
X-163000000Y-15312800D01*
X-162593600Y-15312800D01*
X-162593600Y-15719200D01*
X-163000000Y-15719200D01*
G36*
X-162187200Y-15312800D02*
G01*
X-161780800Y-15312800D01*
X-161780800Y-15719200D01*
X-162187200Y-15719200D01*
X-162187200Y-15312800D01*
G37*
X-162187200Y-15312800D02*
X-161780800Y-15312800D01*
X-161780800Y-15719200D01*
X-162187200Y-15719200D01*
X-162187200Y-15312800D01*
G36*
X-162187200Y-13687200D02*
G01*
X-162593600Y-13687200D01*
X-162593600Y-13280800D01*
X-162187200Y-13280800D01*
X-162187200Y-13687200D01*
G37*
X-162187200Y-13687200D02*
X-162593600Y-13687200D01*
X-162593600Y-13280800D01*
X-162187200Y-13280800D01*
X-162187200Y-13687200D01*
G36*
X-162187200Y-14500000D02*
G01*
X-162593600Y-14500000D01*
X-162593600Y-14093600D01*
X-162187200Y-14093600D01*
X-162187200Y-14500000D01*
G37*
X-162187200Y-14500000D02*
X-162593600Y-14500000D01*
X-162593600Y-14093600D01*
X-162187200Y-14093600D01*
X-162187200Y-14500000D01*
G36*
X-162187200Y-15312800D02*
G01*
X-162593600Y-15312800D01*
X-162593600Y-14906400D01*
X-162187200Y-14906400D01*
X-162187200Y-15312800D01*
G37*
X-162187200Y-15312800D02*
X-162593600Y-15312800D01*
X-162593600Y-14906400D01*
X-162187200Y-14906400D01*
X-162187200Y-15312800D01*
G36*
X-162187200Y-16125600D02*
G01*
X-162593600Y-16125600D01*
X-162593600Y-15719200D01*
X-162187200Y-15719200D01*
X-162187200Y-16125600D01*
G37*
X-162187200Y-16125600D02*
X-162593600Y-16125600D01*
X-162593600Y-15719200D01*
X-162187200Y-15719200D01*
X-162187200Y-16125600D01*
G36*
X-114687200Y-16125600D02*
G01*
X-115093600Y-16125600D01*
X-115093600Y-15719200D01*
X-114687200Y-15719200D01*
X-114687200Y-16125600D01*
G37*
X-114687200Y-16125600D02*
X-115093600Y-16125600D01*
X-115093600Y-15719200D01*
X-114687200Y-15719200D01*
X-114687200Y-16125600D01*
G36*
X-114687200Y-15312800D02*
G01*
X-115093600Y-15312800D01*
X-115093600Y-14906400D01*
X-114687200Y-14906400D01*
X-114687200Y-15312800D01*
G37*
X-114687200Y-15312800D02*
X-115093600Y-15312800D01*
X-115093600Y-14906400D01*
X-114687200Y-14906400D01*
X-114687200Y-15312800D01*
G36*
X-114687200Y-14500000D02*
G01*
X-115093600Y-14500000D01*
X-115093600Y-14093600D01*
X-114687200Y-14093600D01*
X-114687200Y-14500000D01*
G37*
X-114687200Y-14500000D02*
X-115093600Y-14500000D01*
X-115093600Y-14093600D01*
X-114687200Y-14093600D01*
X-114687200Y-14500000D01*
G36*
X-114687200Y-13687200D02*
G01*
X-115093600Y-13687200D01*
X-115093600Y-13280800D01*
X-114687200Y-13280800D01*
X-114687200Y-13687200D01*
G37*
X-114687200Y-13687200D02*
X-115093600Y-13687200D01*
X-115093600Y-13280800D01*
X-114687200Y-13280800D01*
X-114687200Y-13687200D01*
G36*
X-114687200Y-15312800D02*
G01*
X-114280800Y-15312800D01*
X-114280800Y-15719200D01*
X-114687200Y-15719200D01*
X-114687200Y-15312800D01*
G37*
X-114687200Y-15312800D02*
X-114280800Y-15312800D01*
X-114280800Y-15719200D01*
X-114687200Y-15719200D01*
X-114687200Y-15312800D01*
G36*
X-115500000Y-15719200D02*
G01*
X-115500000Y-15312800D01*
X-115093600Y-15312800D01*
X-115093600Y-15719200D01*
X-115500000Y-15719200D01*
G37*
X-115500000Y-15719200D02*
X-115500000Y-15312800D01*
X-115093600Y-15312800D01*
X-115093600Y-15719200D01*
X-115500000Y-15719200D01*
G36*
X-114687200Y-14500000D02*
G01*
X-114280800Y-14500000D01*
X-114280800Y-14906400D01*
X-114687200Y-14906400D01*
X-114687200Y-14500000D01*
G37*
X-114687200Y-14500000D02*
X-114280800Y-14500000D01*
X-114280800Y-14906400D01*
X-114687200Y-14906400D01*
X-114687200Y-14500000D01*
G36*
X-115500000Y-14906400D02*
G01*
X-115500000Y-14500000D01*
X-115093600Y-14500000D01*
X-115093600Y-14906400D01*
X-115500000Y-14906400D01*
G37*
X-115500000Y-14906400D02*
X-115500000Y-14500000D01*
X-115093600Y-14500000D01*
X-115093600Y-14906400D01*
X-115500000Y-14906400D01*
G36*
X-114687200Y-13687200D02*
G01*
X-114280800Y-13687200D01*
X-114280800Y-14093600D01*
X-114687200Y-14093600D01*
X-114687200Y-13687200D01*
G37*
X-114687200Y-13687200D02*
X-114280800Y-13687200D01*
X-114280800Y-14093600D01*
X-114687200Y-14093600D01*
X-114687200Y-13687200D01*
G36*
X-115500000Y-14093600D02*
G01*
X-115500000Y-13687200D01*
X-115093600Y-13687200D01*
X-115093600Y-14093600D01*
X-115500000Y-14093600D01*
G37*
X-115500000Y-14093600D02*
X-115500000Y-13687200D01*
X-115093600Y-13687200D01*
X-115093600Y-14093600D01*
X-115500000Y-14093600D01*
G36*
X-114687200Y-12874400D02*
G01*
X-114280800Y-12874400D01*
X-114280800Y-13280800D01*
X-114687200Y-13280800D01*
X-114687200Y-12874400D01*
G37*
X-114687200Y-12874400D02*
X-114280800Y-12874400D01*
X-114280800Y-13280800D01*
X-114687200Y-13280800D01*
X-114687200Y-12874400D01*
G36*
X-115500000Y-13280800D02*
G01*
X-115500000Y-12874400D01*
X-115093600Y-12874400D01*
X-115093600Y-13280800D01*
X-115500000Y-13280800D01*
G37*
X-115500000Y-13280800D02*
X-115500000Y-12874400D01*
X-115093600Y-12874400D01*
X-115093600Y-13280800D01*
X-115500000Y-13280800D01*
G36*
X-115093600Y-12468000D02*
G01*
X-114687200Y-12468000D01*
X-114687200Y-12874400D01*
X-115093600Y-12874400D01*
X-115093600Y-12468000D01*
G37*
X-115093600Y-12468000D02*
X-114687200Y-12468000D01*
X-114687200Y-12874400D01*
X-115093600Y-12874400D01*
X-115093600Y-12468000D01*
G36*
X-114687200Y-12061600D02*
G01*
X-114280800Y-12061600D01*
X-114280800Y-12468000D01*
X-114687200Y-12468000D01*
X-114687200Y-12061600D01*
G37*
X-114687200Y-12061600D02*
X-114280800Y-12061600D01*
X-114280800Y-12468000D01*
X-114687200Y-12468000D01*
X-114687200Y-12061600D01*
G36*
X-115093600Y-16532000D02*
G01*
X-115500000Y-16532000D01*
X-115500000Y-16125600D01*
X-115093600Y-16125600D01*
X-115093600Y-16532000D01*
G37*
X-115093600Y-16532000D02*
X-115500000Y-16532000D01*
X-115500000Y-16125600D01*
X-115093600Y-16125600D01*
X-115093600Y-16532000D01*
G36*
X-115093600Y-12061600D02*
G01*
X-115093600Y-12468000D01*
X-115906400Y-12468000D01*
X-115906400Y-12061600D01*
X-115093600Y-12061600D01*
G37*
X-115093600Y-12061600D02*
X-115093600Y-12468000D01*
X-115906400Y-12468000D01*
X-115906400Y-12061600D01*
X-115093600Y-12061600D01*
G36*
X-115093600Y-11655200D02*
G01*
X-114687200Y-11655200D01*
X-114687200Y-12061600D01*
X-115093600Y-12061600D01*
X-115093600Y-11655200D01*
G37*
X-115093600Y-11655200D02*
X-114687200Y-11655200D01*
X-114687200Y-12061600D01*
X-115093600Y-12061600D01*
X-115093600Y-11655200D01*
G36*
X-114687200Y-11248800D02*
G01*
X-113874400Y-11248800D01*
X-113874400Y-11655200D01*
X-113468000Y-11655200D01*
X-113468000Y-16125600D01*
X-113874400Y-16125600D01*
X-113874400Y-16532000D01*
X-114280800Y-16532000D01*
X-114280800Y-16938400D01*
X-114687200Y-16938400D01*
X-114687200Y-17344800D01*
X-115093600Y-17344800D01*
X-115093600Y-17751200D01*
X-115906400Y-17751200D01*
X-115906400Y-17344800D01*
X-116312800Y-17344800D01*
X-116312800Y-16938400D01*
X-116719200Y-16938400D01*
X-116719200Y-16532000D01*
X-117125600Y-16532000D01*
X-117125600Y-16125600D01*
X-117532000Y-16125600D01*
X-117532000Y-11655200D01*
X-117125600Y-11655200D01*
X-117125600Y-15719200D01*
X-116719200Y-15719200D01*
X-116719200Y-16125600D01*
X-116312800Y-16125600D01*
X-116312800Y-16532000D01*
X-115906400Y-16532000D01*
X-115906400Y-16938400D01*
X-115093600Y-16938400D01*
X-115093600Y-16532000D01*
X-114687200Y-16532000D01*
X-114687200Y-16125600D01*
X-114280800Y-16125600D01*
X-114280800Y-15719200D01*
X-113874400Y-15719200D01*
X-113874400Y-15312800D01*
X-114280800Y-15312800D01*
X-114280800Y-14906400D01*
X-113874400Y-14906400D01*
X-113874400Y-14500000D01*
X-114280800Y-14500000D01*
X-114280800Y-14093600D01*
X-113874400Y-14093600D01*
X-113874400Y-13687200D01*
X-114280800Y-13687200D01*
X-114280800Y-13280800D01*
X-113874400Y-13280800D01*
X-113874400Y-12874400D01*
X-114280800Y-12874400D01*
X-114280800Y-12468000D01*
X-113874400Y-12468000D01*
X-113874400Y-12061600D01*
X-114280800Y-12061600D01*
X-114280800Y-11655200D01*
X-114687200Y-11655200D01*
X-114687200Y-11248800D01*
G37*
X-114687200Y-11248800D02*
X-113874400Y-11248800D01*
X-113874400Y-11655200D01*
X-113468000Y-11655200D01*
X-113468000Y-16125600D01*
X-113874400Y-16125600D01*
X-113874400Y-16532000D01*
X-114280800Y-16532000D01*
X-114280800Y-16938400D01*
X-114687200Y-16938400D01*
X-114687200Y-17344800D01*
X-115093600Y-17344800D01*
X-115093600Y-17751200D01*
X-115906400Y-17751200D01*
X-115906400Y-17344800D01*
X-116312800Y-17344800D01*
X-116312800Y-16938400D01*
X-116719200Y-16938400D01*
X-116719200Y-16532000D01*
X-117125600Y-16532000D01*
X-117125600Y-16125600D01*
X-117532000Y-16125600D01*
X-117532000Y-11655200D01*
X-117125600Y-11655200D01*
X-117125600Y-15719200D01*
X-116719200Y-15719200D01*
X-116719200Y-16125600D01*
X-116312800Y-16125600D01*
X-116312800Y-16532000D01*
X-115906400Y-16532000D01*
X-115906400Y-16938400D01*
X-115093600Y-16938400D01*
X-115093600Y-16532000D01*
X-114687200Y-16532000D01*
X-114687200Y-16125600D01*
X-114280800Y-16125600D01*
X-114280800Y-15719200D01*
X-113874400Y-15719200D01*
X-113874400Y-15312800D01*
X-114280800Y-15312800D01*
X-114280800Y-14906400D01*
X-113874400Y-14906400D01*
X-113874400Y-14500000D01*
X-114280800Y-14500000D01*
X-114280800Y-14093600D01*
X-113874400Y-14093600D01*
X-113874400Y-13687200D01*
X-114280800Y-13687200D01*
X-114280800Y-13280800D01*
X-113874400Y-13280800D01*
X-113874400Y-12874400D01*
X-114280800Y-12874400D01*
X-114280800Y-12468000D01*
X-113874400Y-12468000D01*
X-113874400Y-12061600D01*
X-114280800Y-12061600D01*
X-114280800Y-11655200D01*
X-114687200Y-11655200D01*
X-114687200Y-11248800D01*
G36*
X-117125600Y-11248800D02*
G01*
X-116312800Y-11248800D01*
X-116312800Y-11655200D01*
X-117125600Y-11655200D01*
X-117125600Y-11248800D01*
G37*
X-117125600Y-11248800D02*
X-116312800Y-11248800D01*
X-116312800Y-11655200D01*
X-117125600Y-11655200D01*
X-117125600Y-11248800D01*
G36*
X-116312800Y-12061600D02*
G01*
X-116312800Y-11655200D01*
X-115906400Y-11655200D01*
X-115906400Y-12061600D01*
X-116312800Y-12061600D01*
G37*
X-116312800Y-12061600D02*
X-116312800Y-11655200D01*
X-115906400Y-11655200D01*
X-115906400Y-12061600D01*
X-116312800Y-12061600D01*
M02*
