G04 #@! TF.GenerationSoftware,KiCad,Pcbnew,(5.1.5)-2*
G04 #@! TF.CreationDate,2020-06-07T05:43:36+12:00*
G04 #@! TF.ProjectId,JVCard-panel,4a564361-7264-42d7-9061-6e656c2e6b69,rev?*
G04 #@! TF.SameCoordinates,Original*
G04 #@! TF.FileFunction,Soldermask,Bot*
G04 #@! TF.FilePolarity,Negative*
%FSLAX46Y46*%
G04 Gerber Fmt 4.6, Leading zero omitted, Abs format (unit mm)*
G04 Created by KiCad (PCBNEW (5.1.5)-2) date 2020-06-07 05:43:36*
%MOMM*%
%LPD*%
G04 APERTURE LIST*
%ADD10C,0.100000*%
G04 APERTURE END LIST*
D10*
G36*
X-87891290Y-144345070D02*
G01*
X-87199553Y-144631597D01*
X-87199552Y-144631598D01*
X-86577004Y-145047571D01*
X-86047571Y-145577004D01*
X-85769626Y-145992978D01*
X-85631597Y-146199553D01*
X-85345070Y-146891290D01*
X-85199000Y-147625633D01*
X-85199000Y-148374367D01*
X-85345070Y-149108710D01*
X-85631597Y-149800447D01*
X-85631598Y-149800448D01*
X-86047571Y-150422996D01*
X-86577004Y-150952429D01*
X-86992978Y-151230374D01*
X-87199553Y-151368403D01*
X-87891290Y-151654930D01*
X-88625633Y-151801000D01*
X-89374367Y-151801000D01*
X-90108710Y-151654930D01*
X-90800447Y-151368403D01*
X-91007022Y-151230374D01*
X-91422996Y-150952429D01*
X-91952429Y-150422996D01*
X-92368402Y-149800448D01*
X-92368403Y-149800447D01*
X-92654930Y-149108710D01*
X-92801000Y-148374367D01*
X-92801000Y-147625633D01*
X-92654930Y-146891290D01*
X-92368403Y-146199553D01*
X-92230374Y-145992978D01*
X-91952429Y-145577004D01*
X-91422996Y-145047571D01*
X-90800448Y-144631598D01*
X-90800447Y-144631597D01*
X-90108710Y-144345070D01*
X-89374367Y-144199000D01*
X-88625633Y-144199000D01*
X-87891290Y-144345070D01*
G37*
G36*
X-135391290Y-144345070D02*
G01*
X-134699553Y-144631597D01*
X-134699552Y-144631598D01*
X-134077004Y-145047571D01*
X-133547571Y-145577004D01*
X-133269626Y-145992978D01*
X-133131597Y-146199553D01*
X-132845070Y-146891290D01*
X-132699000Y-147625633D01*
X-132699000Y-148374367D01*
X-132845070Y-149108710D01*
X-133131597Y-149800447D01*
X-133131598Y-149800448D01*
X-133547571Y-150422996D01*
X-134077004Y-150952429D01*
X-134492978Y-151230374D01*
X-134699553Y-151368403D01*
X-135391290Y-151654930D01*
X-136125633Y-151801000D01*
X-136874367Y-151801000D01*
X-137608710Y-151654930D01*
X-138300447Y-151368403D01*
X-138507022Y-151230374D01*
X-138922996Y-150952429D01*
X-139452429Y-150422996D01*
X-139868402Y-149800448D01*
X-139868403Y-149800447D01*
X-140154930Y-149108710D01*
X-140301000Y-148374367D01*
X-140301000Y-147625633D01*
X-140154930Y-146891290D01*
X-139868403Y-146199553D01*
X-139730374Y-145992978D01*
X-139452429Y-145577004D01*
X-138922996Y-145047571D01*
X-138300448Y-144631598D01*
X-138300447Y-144631597D01*
X-137608710Y-144345070D01*
X-136874367Y-144199000D01*
X-136125633Y-144199000D01*
X-135391290Y-144345070D01*
G37*
G36*
X-102891290Y1654930D02*
G01*
X-102199553Y1368403D01*
X-102199552Y1368402D01*
X-101577004Y952429D01*
X-101047571Y422996D01*
X-100769626Y7022D01*
X-100631597Y-199553D01*
X-100345070Y-891290D01*
X-100199000Y-1625633D01*
X-100199000Y-2374367D01*
X-100345070Y-3108710D01*
X-100631597Y-3800447D01*
X-100631598Y-3800448D01*
X-101047571Y-4422996D01*
X-101577004Y-4952429D01*
X-101992978Y-5230374D01*
X-102199553Y-5368403D01*
X-102891290Y-5654930D01*
X-103625633Y-5801000D01*
X-104374367Y-5801000D01*
X-105108710Y-5654930D01*
X-105800447Y-5368403D01*
X-106007022Y-5230374D01*
X-106422996Y-4952429D01*
X-106952429Y-4422996D01*
X-107368402Y-3800448D01*
X-107368403Y-3800447D01*
X-107654930Y-3108710D01*
X-107801000Y-2374367D01*
X-107801000Y-1625633D01*
X-107654930Y-891290D01*
X-107368403Y-199553D01*
X-107230374Y7022D01*
X-106952429Y422996D01*
X-106422996Y952429D01*
X-105800448Y1368402D01*
X-105800447Y1368403D01*
X-105108710Y1654930D01*
X-104374367Y1801000D01*
X-103625633Y1801000D01*
X-102891290Y1654930D01*
G37*
G36*
X-150391290Y1654930D02*
G01*
X-149699553Y1368403D01*
X-149699552Y1368402D01*
X-149077004Y952429D01*
X-148547571Y422996D01*
X-148269626Y7022D01*
X-148131597Y-199553D01*
X-147845070Y-891290D01*
X-147699000Y-1625633D01*
X-147699000Y-2374367D01*
X-147845070Y-3108710D01*
X-148131597Y-3800447D01*
X-148131598Y-3800448D01*
X-148547571Y-4422996D01*
X-149077004Y-4952429D01*
X-149492978Y-5230374D01*
X-149699553Y-5368403D01*
X-150391290Y-5654930D01*
X-151125633Y-5801000D01*
X-151874367Y-5801000D01*
X-152608710Y-5654930D01*
X-153300447Y-5368403D01*
X-153507022Y-5230374D01*
X-153922996Y-4952429D01*
X-154452429Y-4422996D01*
X-154868402Y-3800448D01*
X-154868403Y-3800447D01*
X-155154930Y-3108710D01*
X-155301000Y-2374367D01*
X-155301000Y-1625633D01*
X-155154930Y-891290D01*
X-154868403Y-199553D01*
X-154730374Y7022D01*
X-154452429Y422996D01*
X-153922996Y952429D01*
X-153300448Y1368402D01*
X-153300447Y1368403D01*
X-152608710Y1654930D01*
X-151874367Y1801000D01*
X-151125633Y1801000D01*
X-150391290Y1654930D01*
G37*
M02*
