G04 #@! TF.GenerationSoftware,KiCad,Pcbnew,(6.0.5)*
G04 #@! TF.CreationDate,2022-09-16T18:15:02+12:00*
G04 #@! TF.ProjectId,JVCard-panel,4a564361-7264-42d7-9061-6e656c2e6b69,rev?*
G04 #@! TF.SameCoordinates,Original*
G04 #@! TF.FileFunction,Legend,Bot*
G04 #@! TF.FilePolarity,Positive*
%FSLAX46Y46*%
G04 Gerber Fmt 4.6, Leading zero omitted, Abs format (unit mm)*
G04 Created by KiCad (PCBNEW (6.0.5)) date 2022-09-16 18:15:02*
%MOMM*%
%LPD*%
G01*
G04 APERTURE LIST*
%ADD10C,0.150000*%
%ADD11C,0.010000*%
G04 APERTURE END LIST*
D10*
X-127666666Y-130480714D02*
X-127857142Y-131147380D01*
X-128047619Y-130671190D01*
X-128238095Y-131147380D01*
X-128428571Y-130480714D01*
X-129238095Y-131147380D02*
X-129238095Y-130623571D01*
X-129190476Y-130528333D01*
X-129095238Y-130480714D01*
X-128904761Y-130480714D01*
X-128809523Y-130528333D01*
X-129238095Y-131099761D02*
X-129142857Y-131147380D01*
X-128904761Y-131147380D01*
X-128809523Y-131099761D01*
X-128761904Y-131004523D01*
X-128761904Y-130909285D01*
X-128809523Y-130814047D01*
X-128904761Y-130766428D01*
X-129142857Y-130766428D01*
X-129238095Y-130718809D01*
X-129714285Y-131147380D02*
X-129714285Y-130147380D01*
X-129809523Y-130766428D02*
X-130095238Y-131147380D01*
X-130095238Y-130480714D02*
X-129714285Y-130861666D01*
X-130952380Y-131147380D02*
X-130952380Y-130623571D01*
X-130904761Y-130528333D01*
X-130809523Y-130480714D01*
X-130619047Y-130480714D01*
X-130523809Y-130528333D01*
X-130952380Y-131099761D02*
X-130857142Y-131147380D01*
X-130619047Y-131147380D01*
X-130523809Y-131099761D01*
X-130476190Y-131004523D01*
X-130476190Y-130909285D01*
X-130523809Y-130814047D01*
X-130619047Y-130766428D01*
X-130857142Y-130766428D01*
X-130952380Y-130718809D01*
X-131428571Y-131147380D02*
X-131428571Y-130147380D01*
X-131428571Y-130528333D02*
X-131523809Y-130480714D01*
X-131714285Y-130480714D01*
X-131809523Y-130528333D01*
X-131857142Y-130575952D01*
X-131904761Y-130671190D01*
X-131904761Y-130956904D01*
X-131857142Y-131052142D01*
X-131809523Y-131099761D01*
X-131714285Y-131147380D01*
X-131523809Y-131147380D01*
X-131428571Y-131099761D01*
X-132761904Y-131147380D02*
X-132761904Y-130623571D01*
X-132714285Y-130528333D01*
X-132619047Y-130480714D01*
X-132428571Y-130480714D01*
X-132333333Y-130528333D01*
X-132761904Y-131099761D02*
X-132666666Y-131147380D01*
X-132428571Y-131147380D01*
X-132333333Y-131099761D01*
X-132285714Y-131004523D01*
X-132285714Y-130909285D01*
X-132333333Y-130814047D01*
X-132428571Y-130766428D01*
X-132666666Y-130766428D01*
X-132761904Y-130718809D01*
X-133142857Y-130480714D02*
X-133380952Y-131147380D01*
X-133619047Y-130480714D01*
X-134000000Y-131147380D02*
X-134000000Y-130480714D01*
X-134000000Y-130147380D02*
X-133952380Y-130195000D01*
X-134000000Y-130242619D01*
X-134047619Y-130195000D01*
X-134000000Y-130147380D01*
X-134000000Y-130242619D01*
X-134904761Y-131147380D02*
X-134904761Y-130147380D01*
X-134904761Y-131099761D02*
X-134809523Y-131147380D01*
X-134619047Y-131147380D01*
X-134523809Y-131099761D01*
X-134476190Y-131052142D01*
X-134428571Y-130956904D01*
X-134428571Y-130671190D01*
X-134476190Y-130575952D01*
X-134523809Y-130528333D01*
X-134619047Y-130480714D01*
X-134809523Y-130480714D01*
X-134904761Y-130528333D01*
X-135761904Y-131099761D02*
X-135666666Y-131147380D01*
X-135476190Y-131147380D01*
X-135380952Y-131099761D01*
X-135333333Y-131004523D01*
X-135333333Y-130623571D01*
X-135380952Y-130528333D01*
X-135476190Y-130480714D01*
X-135666666Y-130480714D01*
X-135761904Y-130528333D01*
X-135809523Y-130623571D01*
X-135809523Y-130718809D01*
X-135333333Y-130814047D01*
X-136380952Y-131147380D02*
X-136285714Y-131099761D01*
X-136238095Y-131052142D01*
X-136190476Y-130956904D01*
X-136190476Y-130671190D01*
X-136238095Y-130575952D01*
X-136285714Y-130528333D01*
X-136380952Y-130480714D01*
X-136523809Y-130480714D01*
X-136619047Y-130528333D01*
X-136666666Y-130575952D01*
X-136714285Y-130671190D01*
X-136714285Y-130956904D01*
X-136666666Y-131052142D01*
X-136619047Y-131099761D01*
X-136523809Y-131147380D01*
X-136380952Y-131147380D01*
X-137142857Y-131052142D02*
X-137190476Y-131099761D01*
X-137142857Y-131147380D01*
X-137095238Y-131099761D01*
X-137142857Y-131052142D01*
X-137142857Y-131147380D01*
X-138047619Y-131099761D02*
X-137952380Y-131147380D01*
X-137761904Y-131147380D01*
X-137666666Y-131099761D01*
X-137619047Y-131052142D01*
X-137571428Y-130956904D01*
X-137571428Y-130671190D01*
X-137619047Y-130575952D01*
X-137666666Y-130528333D01*
X-137761904Y-130480714D01*
X-137952380Y-130480714D01*
X-138047619Y-130528333D01*
X-138619047Y-131147380D02*
X-138523809Y-131099761D01*
X-138476190Y-131052142D01*
X-138428571Y-130956904D01*
X-138428571Y-130671190D01*
X-138476190Y-130575952D01*
X-138523809Y-130528333D01*
X-138619047Y-130480714D01*
X-138761904Y-130480714D01*
X-138857142Y-130528333D01*
X-138904761Y-130575952D01*
X-138952380Y-130671190D01*
X-138952380Y-130956904D01*
X-138904761Y-131052142D01*
X-138857142Y-131099761D01*
X-138761904Y-131147380D01*
X-138619047Y-131147380D01*
X-139380952Y-131147380D02*
X-139380952Y-130480714D01*
X-139380952Y-130575952D02*
X-139428571Y-130528333D01*
X-139523809Y-130480714D01*
X-139666666Y-130480714D01*
X-139761904Y-130528333D01*
X-139809523Y-130623571D01*
X-139809523Y-131147380D01*
X-139809523Y-130623571D02*
X-139857142Y-130528333D01*
X-139952380Y-130480714D01*
X-140095238Y-130480714D01*
X-140190476Y-130528333D01*
X-140238095Y-130623571D01*
X-140238095Y-131147380D01*
X-123690476Y-132090714D02*
X-123690476Y-133090714D01*
X-123690476Y-132138333D02*
X-123785714Y-132090714D01*
X-123976190Y-132090714D01*
X-124071428Y-132138333D01*
X-124119047Y-132185952D01*
X-124166666Y-132281190D01*
X-124166666Y-132566904D01*
X-124119047Y-132662142D01*
X-124071428Y-132709761D01*
X-123976190Y-132757380D01*
X-123785714Y-132757380D01*
X-123690476Y-132709761D01*
X-125023809Y-132757380D02*
X-125023809Y-132233571D01*
X-124976190Y-132138333D01*
X-124880952Y-132090714D01*
X-124690476Y-132090714D01*
X-124595238Y-132138333D01*
X-125023809Y-132709761D02*
X-124928571Y-132757380D01*
X-124690476Y-132757380D01*
X-124595238Y-132709761D01*
X-124547619Y-132614523D01*
X-124547619Y-132519285D01*
X-124595238Y-132424047D01*
X-124690476Y-132376428D01*
X-124928571Y-132376428D01*
X-125023809Y-132328809D01*
X-125500000Y-132090714D02*
X-125500000Y-132757380D01*
X-125500000Y-132185952D02*
X-125547619Y-132138333D01*
X-125642857Y-132090714D01*
X-125785714Y-132090714D01*
X-125880952Y-132138333D01*
X-125928571Y-132233571D01*
X-125928571Y-132757380D01*
X-126785714Y-132709761D02*
X-126690476Y-132757380D01*
X-126500000Y-132757380D01*
X-126404761Y-132709761D01*
X-126357142Y-132614523D01*
X-126357142Y-132233571D01*
X-126404761Y-132138333D01*
X-126500000Y-132090714D01*
X-126690476Y-132090714D01*
X-126785714Y-132138333D01*
X-126833333Y-132233571D01*
X-126833333Y-132328809D01*
X-126357142Y-132424047D01*
X-127404761Y-132757380D02*
X-127309523Y-132709761D01*
X-127261904Y-132614523D01*
X-127261904Y-131757380D01*
X-128547619Y-132757380D02*
X-128547619Y-132090714D01*
X-128547619Y-132281190D02*
X-128595238Y-132185952D01*
X-128642857Y-132138333D01*
X-128738095Y-132090714D01*
X-128833333Y-132090714D01*
X-129547619Y-132709761D02*
X-129452380Y-132757380D01*
X-129261904Y-132757380D01*
X-129166666Y-132709761D01*
X-129119047Y-132614523D01*
X-129119047Y-132233571D01*
X-129166666Y-132138333D01*
X-129261904Y-132090714D01*
X-129452380Y-132090714D01*
X-129547619Y-132138333D01*
X-129595238Y-132233571D01*
X-129595238Y-132328809D01*
X-129119047Y-132424047D01*
X-129928571Y-132090714D02*
X-130166666Y-132757380D01*
X-130404761Y-132090714D01*
X-132071428Y-132757380D02*
X-131499999Y-132757380D01*
X-131785714Y-132757380D02*
X-131785714Y-131757380D01*
X-131690476Y-131900238D01*
X-131595238Y-131995476D01*
X-131499999Y-132043095D01*
X-132499999Y-132662142D02*
X-132547619Y-132709761D01*
X-132499999Y-132757380D01*
X-132452380Y-132709761D01*
X-132499999Y-132662142D01*
X-132499999Y-132757380D01*
X-133166666Y-131757380D02*
X-133261904Y-131757380D01*
X-133357142Y-131805000D01*
X-133404761Y-131852619D01*
X-133452380Y-131947857D01*
X-133499999Y-132138333D01*
X-133499999Y-132376428D01*
X-133452380Y-132566904D01*
X-133404761Y-132662142D01*
X-133357142Y-132709761D01*
X-133261904Y-132757380D01*
X-133166666Y-132757380D01*
X-133071428Y-132709761D01*
X-133023809Y-132662142D01*
X-132976190Y-132566904D01*
X-132928571Y-132376428D01*
X-132928571Y-132138333D01*
X-132976190Y-131947857D01*
X-133023809Y-131852619D01*
X-133071428Y-131805000D01*
X-133166666Y-131757380D01*
X-134642857Y-131852619D02*
X-134690476Y-131805000D01*
X-134785714Y-131757380D01*
X-135023809Y-131757380D01*
X-135119047Y-131805000D01*
X-135166666Y-131852619D01*
X-135214285Y-131947857D01*
X-135214285Y-132043095D01*
X-135166666Y-132185952D01*
X-134595238Y-132757380D01*
X-135214285Y-132757380D01*
X-135833333Y-131757380D02*
X-135928571Y-131757380D01*
X-136023809Y-131805000D01*
X-136071428Y-131852619D01*
X-136119047Y-131947857D01*
X-136166666Y-132138333D01*
X-136166666Y-132376428D01*
X-136119047Y-132566904D01*
X-136071428Y-132662142D01*
X-136023809Y-132709761D01*
X-135928571Y-132757380D01*
X-135833333Y-132757380D01*
X-135738095Y-132709761D01*
X-135690476Y-132662142D01*
X-135642857Y-132566904D01*
X-135595238Y-132376428D01*
X-135595238Y-132138333D01*
X-135642857Y-131947857D01*
X-135690476Y-131852619D01*
X-135738095Y-131805000D01*
X-135833333Y-131757380D01*
X-137119047Y-132757380D02*
X-136547619Y-132757380D01*
X-136833333Y-132757380D02*
X-136833333Y-131757380D01*
X-136738095Y-131900238D01*
X-136642857Y-131995476D01*
X-136547619Y-132043095D01*
X-137595238Y-132757380D02*
X-137785714Y-132757380D01*
X-137880952Y-132709761D01*
X-137928571Y-132662142D01*
X-138023809Y-132519285D01*
X-138071428Y-132328809D01*
X-138071428Y-131947857D01*
X-138023809Y-131852619D01*
X-137976190Y-131805000D01*
X-137880952Y-131757380D01*
X-137690476Y-131757380D01*
X-137595238Y-131805000D01*
X-137547619Y-131852619D01*
X-137500000Y-131947857D01*
X-137500000Y-132185952D01*
X-137547619Y-132281190D01*
X-137595238Y-132328809D01*
X-137690476Y-132376428D01*
X-137880952Y-132376428D01*
X-137976190Y-132328809D01*
X-138023809Y-132281190D01*
X-138071428Y-132185952D01*
X-138500000Y-132376428D02*
X-139261904Y-132376428D01*
X-140261904Y-132757380D02*
X-139690476Y-132757380D01*
X-139976190Y-132757380D02*
X-139976190Y-131757380D01*
X-139880952Y-131900238D01*
X-139785714Y-131995476D01*
X-139690476Y-132043095D01*
X-140880952Y-131757380D02*
X-140976190Y-131757380D01*
X-141071428Y-131805000D01*
X-141119047Y-131852619D01*
X-141166666Y-131947857D01*
X-141214285Y-132138333D01*
X-141214285Y-132376428D01*
X-141166666Y-132566904D01*
X-141119047Y-132662142D01*
X-141071428Y-132709761D01*
X-140976190Y-132757380D01*
X-140880952Y-132757380D01*
X-140785714Y-132709761D01*
X-140738095Y-132662142D01*
X-140690476Y-132566904D01*
X-140642857Y-132376428D01*
X-140642857Y-132138333D01*
X-140690476Y-131947857D01*
X-140738095Y-131852619D01*
X-140785714Y-131805000D01*
X-140880952Y-131757380D01*
X-141642857Y-132376428D02*
X-142404761Y-132376428D01*
X-142833333Y-131852619D02*
X-142880952Y-131805000D01*
X-142976190Y-131757380D01*
X-143214285Y-131757380D01*
X-143309523Y-131805000D01*
X-143357142Y-131852619D01*
X-143404761Y-131947857D01*
X-143404761Y-132043095D01*
X-143357142Y-132185952D01*
X-142785714Y-132757380D01*
X-143404761Y-132757380D01*
X-143738095Y-131757380D02*
X-144404761Y-131757380D01*
X-143976190Y-132757380D01*
X-80166666Y-130480714D02*
X-80357142Y-131147380D01*
X-80547619Y-130671190D01*
X-80738095Y-131147380D01*
X-80928571Y-130480714D01*
X-81738095Y-131147380D02*
X-81738095Y-130623571D01*
X-81690476Y-130528333D01*
X-81595238Y-130480714D01*
X-81404761Y-130480714D01*
X-81309523Y-130528333D01*
X-81738095Y-131099761D02*
X-81642857Y-131147380D01*
X-81404761Y-131147380D01*
X-81309523Y-131099761D01*
X-81261904Y-131004523D01*
X-81261904Y-130909285D01*
X-81309523Y-130814047D01*
X-81404761Y-130766428D01*
X-81642857Y-130766428D01*
X-81738095Y-130718809D01*
X-82214285Y-131147380D02*
X-82214285Y-130147380D01*
X-82309523Y-130766428D02*
X-82595238Y-131147380D01*
X-82595238Y-130480714D02*
X-82214285Y-130861666D01*
X-83452380Y-131147380D02*
X-83452380Y-130623571D01*
X-83404761Y-130528333D01*
X-83309523Y-130480714D01*
X-83119047Y-130480714D01*
X-83023809Y-130528333D01*
X-83452380Y-131099761D02*
X-83357142Y-131147380D01*
X-83119047Y-131147380D01*
X-83023809Y-131099761D01*
X-82976190Y-131004523D01*
X-82976190Y-130909285D01*
X-83023809Y-130814047D01*
X-83119047Y-130766428D01*
X-83357142Y-130766428D01*
X-83452380Y-130718809D01*
X-83928571Y-131147380D02*
X-83928571Y-130147380D01*
X-83928571Y-130528333D02*
X-84023809Y-130480714D01*
X-84214285Y-130480714D01*
X-84309523Y-130528333D01*
X-84357142Y-130575952D01*
X-84404761Y-130671190D01*
X-84404761Y-130956904D01*
X-84357142Y-131052142D01*
X-84309523Y-131099761D01*
X-84214285Y-131147380D01*
X-84023809Y-131147380D01*
X-83928571Y-131099761D01*
X-85261904Y-131147380D02*
X-85261904Y-130623571D01*
X-85214285Y-130528333D01*
X-85119047Y-130480714D01*
X-84928571Y-130480714D01*
X-84833333Y-130528333D01*
X-85261904Y-131099761D02*
X-85166666Y-131147380D01*
X-84928571Y-131147380D01*
X-84833333Y-131099761D01*
X-84785714Y-131004523D01*
X-84785714Y-130909285D01*
X-84833333Y-130814047D01*
X-84928571Y-130766428D01*
X-85166666Y-130766428D01*
X-85261904Y-130718809D01*
X-85642857Y-130480714D02*
X-85880952Y-131147380D01*
X-86119047Y-130480714D01*
X-86500000Y-131147380D02*
X-86500000Y-130480714D01*
X-86500000Y-130147380D02*
X-86452380Y-130195000D01*
X-86500000Y-130242619D01*
X-86547619Y-130195000D01*
X-86500000Y-130147380D01*
X-86500000Y-130242619D01*
X-87404761Y-131147380D02*
X-87404761Y-130147380D01*
X-87404761Y-131099761D02*
X-87309523Y-131147380D01*
X-87119047Y-131147380D01*
X-87023809Y-131099761D01*
X-86976190Y-131052142D01*
X-86928571Y-130956904D01*
X-86928571Y-130671190D01*
X-86976190Y-130575952D01*
X-87023809Y-130528333D01*
X-87119047Y-130480714D01*
X-87309523Y-130480714D01*
X-87404761Y-130528333D01*
X-88261904Y-131099761D02*
X-88166666Y-131147380D01*
X-87976190Y-131147380D01*
X-87880952Y-131099761D01*
X-87833333Y-131004523D01*
X-87833333Y-130623571D01*
X-87880952Y-130528333D01*
X-87976190Y-130480714D01*
X-88166666Y-130480714D01*
X-88261904Y-130528333D01*
X-88309523Y-130623571D01*
X-88309523Y-130718809D01*
X-87833333Y-130814047D01*
X-88880952Y-131147380D02*
X-88785714Y-131099761D01*
X-88738095Y-131052142D01*
X-88690476Y-130956904D01*
X-88690476Y-130671190D01*
X-88738095Y-130575952D01*
X-88785714Y-130528333D01*
X-88880952Y-130480714D01*
X-89023809Y-130480714D01*
X-89119047Y-130528333D01*
X-89166666Y-130575952D01*
X-89214285Y-130671190D01*
X-89214285Y-130956904D01*
X-89166666Y-131052142D01*
X-89119047Y-131099761D01*
X-89023809Y-131147380D01*
X-88880952Y-131147380D01*
X-89642857Y-131052142D02*
X-89690476Y-131099761D01*
X-89642857Y-131147380D01*
X-89595238Y-131099761D01*
X-89642857Y-131052142D01*
X-89642857Y-131147380D01*
X-90547619Y-131099761D02*
X-90452380Y-131147380D01*
X-90261904Y-131147380D01*
X-90166666Y-131099761D01*
X-90119047Y-131052142D01*
X-90071428Y-130956904D01*
X-90071428Y-130671190D01*
X-90119047Y-130575952D01*
X-90166666Y-130528333D01*
X-90261904Y-130480714D01*
X-90452380Y-130480714D01*
X-90547619Y-130528333D01*
X-91119047Y-131147380D02*
X-91023809Y-131099761D01*
X-90976190Y-131052142D01*
X-90928571Y-130956904D01*
X-90928571Y-130671190D01*
X-90976190Y-130575952D01*
X-91023809Y-130528333D01*
X-91119047Y-130480714D01*
X-91261904Y-130480714D01*
X-91357142Y-130528333D01*
X-91404761Y-130575952D01*
X-91452380Y-130671190D01*
X-91452380Y-130956904D01*
X-91404761Y-131052142D01*
X-91357142Y-131099761D01*
X-91261904Y-131147380D01*
X-91119047Y-131147380D01*
X-91880952Y-131147380D02*
X-91880952Y-130480714D01*
X-91880952Y-130575952D02*
X-91928571Y-130528333D01*
X-92023809Y-130480714D01*
X-92166666Y-130480714D01*
X-92261904Y-130528333D01*
X-92309523Y-130623571D01*
X-92309523Y-131147380D01*
X-92309523Y-130623571D02*
X-92357142Y-130528333D01*
X-92452380Y-130480714D01*
X-92595238Y-130480714D01*
X-92690476Y-130528333D01*
X-92738095Y-130623571D01*
X-92738095Y-131147380D01*
X-76190476Y-132090714D02*
X-76190476Y-133090714D01*
X-76190476Y-132138333D02*
X-76285714Y-132090714D01*
X-76476190Y-132090714D01*
X-76571428Y-132138333D01*
X-76619047Y-132185952D01*
X-76666666Y-132281190D01*
X-76666666Y-132566904D01*
X-76619047Y-132662142D01*
X-76571428Y-132709761D01*
X-76476190Y-132757380D01*
X-76285714Y-132757380D01*
X-76190476Y-132709761D01*
X-77523809Y-132757380D02*
X-77523809Y-132233571D01*
X-77476190Y-132138333D01*
X-77380952Y-132090714D01*
X-77190476Y-132090714D01*
X-77095238Y-132138333D01*
X-77523809Y-132709761D02*
X-77428571Y-132757380D01*
X-77190476Y-132757380D01*
X-77095238Y-132709761D01*
X-77047619Y-132614523D01*
X-77047619Y-132519285D01*
X-77095238Y-132424047D01*
X-77190476Y-132376428D01*
X-77428571Y-132376428D01*
X-77523809Y-132328809D01*
X-78000000Y-132090714D02*
X-78000000Y-132757380D01*
X-78000000Y-132185952D02*
X-78047619Y-132138333D01*
X-78142857Y-132090714D01*
X-78285714Y-132090714D01*
X-78380952Y-132138333D01*
X-78428571Y-132233571D01*
X-78428571Y-132757380D01*
X-79285714Y-132709761D02*
X-79190476Y-132757380D01*
X-79000000Y-132757380D01*
X-78904761Y-132709761D01*
X-78857142Y-132614523D01*
X-78857142Y-132233571D01*
X-78904761Y-132138333D01*
X-79000000Y-132090714D01*
X-79190476Y-132090714D01*
X-79285714Y-132138333D01*
X-79333333Y-132233571D01*
X-79333333Y-132328809D01*
X-78857142Y-132424047D01*
X-79904761Y-132757380D02*
X-79809523Y-132709761D01*
X-79761904Y-132614523D01*
X-79761904Y-131757380D01*
X-81047619Y-132757380D02*
X-81047619Y-132090714D01*
X-81047619Y-132281190D02*
X-81095238Y-132185952D01*
X-81142857Y-132138333D01*
X-81238095Y-132090714D01*
X-81333333Y-132090714D01*
X-82047619Y-132709761D02*
X-81952380Y-132757380D01*
X-81761904Y-132757380D01*
X-81666666Y-132709761D01*
X-81619047Y-132614523D01*
X-81619047Y-132233571D01*
X-81666666Y-132138333D01*
X-81761904Y-132090714D01*
X-81952380Y-132090714D01*
X-82047619Y-132138333D01*
X-82095238Y-132233571D01*
X-82095238Y-132328809D01*
X-81619047Y-132424047D01*
X-82428571Y-132090714D02*
X-82666666Y-132757380D01*
X-82904761Y-132090714D01*
X-84571428Y-132757380D02*
X-83999999Y-132757380D01*
X-84285714Y-132757380D02*
X-84285714Y-131757380D01*
X-84190476Y-131900238D01*
X-84095238Y-131995476D01*
X-83999999Y-132043095D01*
X-84999999Y-132662142D02*
X-85047619Y-132709761D01*
X-84999999Y-132757380D01*
X-84952380Y-132709761D01*
X-84999999Y-132662142D01*
X-84999999Y-132757380D01*
X-85666666Y-131757380D02*
X-85761904Y-131757380D01*
X-85857142Y-131805000D01*
X-85904761Y-131852619D01*
X-85952380Y-131947857D01*
X-85999999Y-132138333D01*
X-85999999Y-132376428D01*
X-85952380Y-132566904D01*
X-85904761Y-132662142D01*
X-85857142Y-132709761D01*
X-85761904Y-132757380D01*
X-85666666Y-132757380D01*
X-85571428Y-132709761D01*
X-85523809Y-132662142D01*
X-85476190Y-132566904D01*
X-85428571Y-132376428D01*
X-85428571Y-132138333D01*
X-85476190Y-131947857D01*
X-85523809Y-131852619D01*
X-85571428Y-131805000D01*
X-85666666Y-131757380D01*
X-87142857Y-131852619D02*
X-87190476Y-131805000D01*
X-87285714Y-131757380D01*
X-87523809Y-131757380D01*
X-87619047Y-131805000D01*
X-87666666Y-131852619D01*
X-87714285Y-131947857D01*
X-87714285Y-132043095D01*
X-87666666Y-132185952D01*
X-87095238Y-132757380D01*
X-87714285Y-132757380D01*
X-88333333Y-131757380D02*
X-88428571Y-131757380D01*
X-88523809Y-131805000D01*
X-88571428Y-131852619D01*
X-88619047Y-131947857D01*
X-88666666Y-132138333D01*
X-88666666Y-132376428D01*
X-88619047Y-132566904D01*
X-88571428Y-132662142D01*
X-88523809Y-132709761D01*
X-88428571Y-132757380D01*
X-88333333Y-132757380D01*
X-88238095Y-132709761D01*
X-88190476Y-132662142D01*
X-88142857Y-132566904D01*
X-88095238Y-132376428D01*
X-88095238Y-132138333D01*
X-88142857Y-131947857D01*
X-88190476Y-131852619D01*
X-88238095Y-131805000D01*
X-88333333Y-131757380D01*
X-89619047Y-132757380D02*
X-89047619Y-132757380D01*
X-89333333Y-132757380D02*
X-89333333Y-131757380D01*
X-89238095Y-131900238D01*
X-89142857Y-131995476D01*
X-89047619Y-132043095D01*
X-90095238Y-132757380D02*
X-90285714Y-132757380D01*
X-90380952Y-132709761D01*
X-90428571Y-132662142D01*
X-90523809Y-132519285D01*
X-90571428Y-132328809D01*
X-90571428Y-131947857D01*
X-90523809Y-131852619D01*
X-90476190Y-131805000D01*
X-90380952Y-131757380D01*
X-90190476Y-131757380D01*
X-90095238Y-131805000D01*
X-90047619Y-131852619D01*
X-89999999Y-131947857D01*
X-89999999Y-132185952D01*
X-90047619Y-132281190D01*
X-90095238Y-132328809D01*
X-90190476Y-132376428D01*
X-90380952Y-132376428D01*
X-90476190Y-132328809D01*
X-90523809Y-132281190D01*
X-90571428Y-132185952D01*
X-90999999Y-132376428D02*
X-91761904Y-132376428D01*
X-92761904Y-132757380D02*
X-92190476Y-132757380D01*
X-92476190Y-132757380D02*
X-92476190Y-131757380D01*
X-92380952Y-131900238D01*
X-92285714Y-131995476D01*
X-92190476Y-132043095D01*
X-93380952Y-131757380D02*
X-93476190Y-131757380D01*
X-93571428Y-131805000D01*
X-93619047Y-131852619D01*
X-93666666Y-131947857D01*
X-93714285Y-132138333D01*
X-93714285Y-132376428D01*
X-93666666Y-132566904D01*
X-93619047Y-132662142D01*
X-93571428Y-132709761D01*
X-93476190Y-132757380D01*
X-93380952Y-132757380D01*
X-93285714Y-132709761D01*
X-93238095Y-132662142D01*
X-93190476Y-132566904D01*
X-93142857Y-132376428D01*
X-93142857Y-132138333D01*
X-93190476Y-131947857D01*
X-93238095Y-131852619D01*
X-93285714Y-131805000D01*
X-93380952Y-131757380D01*
X-94142857Y-132376428D02*
X-94904761Y-132376428D01*
X-95333333Y-131852619D02*
X-95380952Y-131805000D01*
X-95476190Y-131757380D01*
X-95714285Y-131757380D01*
X-95809523Y-131805000D01*
X-95857142Y-131852619D01*
X-95904761Y-131947857D01*
X-95904761Y-132043095D01*
X-95857142Y-132185952D01*
X-95285714Y-132757380D01*
X-95904761Y-132757380D01*
X-96238095Y-131757380D02*
X-96904761Y-131757380D01*
X-96476190Y-132757380D01*
G36*
X-81059570Y-134524183D02*
G01*
X-80900722Y-134581061D01*
X-80762044Y-134631406D01*
X-80589341Y-134684414D01*
X-80452250Y-134716276D01*
X-80389026Y-134728529D01*
X-80299053Y-134764742D01*
X-80272333Y-134819332D01*
X-80276146Y-134858871D01*
X-80302719Y-134923607D01*
X-80315021Y-134931418D01*
X-80400412Y-134938322D01*
X-80535672Y-134918484D01*
X-80699651Y-134878354D01*
X-80871199Y-134824381D01*
X-81029168Y-134763017D01*
X-81152409Y-134700711D01*
X-81219772Y-134643915D01*
X-81242887Y-134589416D01*
X-81217271Y-134523004D01*
X-81213631Y-134519670D01*
X-81158866Y-134504637D01*
X-81059570Y-134524183D01*
G37*
D11*
X-81059570Y-134524183D02*
X-80900722Y-134581061D01*
X-80762044Y-134631406D01*
X-80589341Y-134684414D01*
X-80452250Y-134716276D01*
X-80389026Y-134728529D01*
X-80299053Y-134764742D01*
X-80272333Y-134819332D01*
X-80276146Y-134858871D01*
X-80302719Y-134923607D01*
X-80315021Y-134931418D01*
X-80400412Y-134938322D01*
X-80535672Y-134918484D01*
X-80699651Y-134878354D01*
X-80871199Y-134824381D01*
X-81029168Y-134763017D01*
X-81152409Y-134700711D01*
X-81219772Y-134643915D01*
X-81242887Y-134589416D01*
X-81217271Y-134523004D01*
X-81213631Y-134519670D01*
X-81158866Y-134504637D01*
X-81059570Y-134524183D01*
G36*
X-81484761Y-134674317D02*
G01*
X-81485353Y-134705904D01*
X-81544608Y-134782338D01*
X-81680750Y-134885983D01*
X-81759270Y-134937045D01*
X-81881342Y-134999709D01*
X-82002885Y-135027830D01*
X-82166185Y-135034333D01*
X-82283329Y-135032709D01*
X-82378057Y-135022647D01*
X-82421140Y-134998365D01*
X-82431333Y-134954195D01*
X-82430795Y-134940967D01*
X-82396950Y-134872029D01*
X-82302759Y-134834203D01*
X-82137445Y-134822666D01*
X-82003783Y-134802607D01*
X-81821527Y-134716833D01*
X-81796091Y-134700058D01*
X-81650421Y-134627314D01*
X-81544325Y-134618441D01*
X-81484761Y-134674317D01*
G37*
X-81484761Y-134674317D02*
X-81485353Y-134705904D01*
X-81544608Y-134782338D01*
X-81680750Y-134885983D01*
X-81759270Y-134937045D01*
X-81881342Y-134999709D01*
X-82002885Y-135027830D01*
X-82166185Y-135034333D01*
X-82283329Y-135032709D01*
X-82378057Y-135022647D01*
X-82421140Y-134998365D01*
X-82431333Y-134954195D01*
X-82430795Y-134940967D01*
X-82396950Y-134872029D01*
X-82302759Y-134834203D01*
X-82137445Y-134822666D01*
X-82003783Y-134802607D01*
X-81821527Y-134716833D01*
X-81796091Y-134700058D01*
X-81650421Y-134627314D01*
X-81544325Y-134618441D01*
X-81484761Y-134674317D01*
G36*
X-82023752Y-135238468D02*
G01*
X-81965710Y-135351702D01*
X-81962796Y-135360264D01*
X-81904333Y-135476743D01*
X-81830098Y-135560906D01*
X-81757469Y-135598041D01*
X-81703827Y-135573431D01*
X-81681823Y-135509781D01*
X-81669981Y-135403421D01*
X-81663635Y-135352176D01*
X-81620596Y-135275677D01*
X-81556349Y-135251026D01*
X-81493990Y-135292747D01*
X-81469052Y-135385933D01*
X-81476137Y-135519852D01*
X-81510535Y-135655968D01*
X-81566473Y-135757285D01*
X-81606219Y-135794183D01*
X-81723916Y-135836361D01*
X-81859202Y-135796461D01*
X-82012980Y-135674313D01*
X-82106534Y-135570456D01*
X-82162277Y-135468657D01*
X-82177333Y-135356813D01*
X-82174513Y-135287235D01*
X-82151615Y-135220933D01*
X-82095950Y-135203666D01*
X-82023752Y-135238468D01*
G37*
X-82023752Y-135238468D02*
X-81965710Y-135351702D01*
X-81962796Y-135360264D01*
X-81904333Y-135476743D01*
X-81830098Y-135560906D01*
X-81757469Y-135598041D01*
X-81703827Y-135573431D01*
X-81681823Y-135509781D01*
X-81669981Y-135403421D01*
X-81663635Y-135352176D01*
X-81620596Y-135275677D01*
X-81556349Y-135251026D01*
X-81493990Y-135292747D01*
X-81469052Y-135385933D01*
X-81476137Y-135519852D01*
X-81510535Y-135655968D01*
X-81566473Y-135757285D01*
X-81606219Y-135794183D01*
X-81723916Y-135836361D01*
X-81859202Y-135796461D01*
X-82012980Y-135674313D01*
X-82106534Y-135570456D01*
X-82162277Y-135468657D01*
X-82177333Y-135356813D01*
X-82174513Y-135287235D01*
X-82151615Y-135220933D01*
X-82095950Y-135203666D01*
X-82023752Y-135238468D01*
G36*
X-80903755Y-135194561D02*
G01*
X-80847009Y-135263218D01*
X-80782874Y-135403346D01*
X-80780287Y-135409771D01*
X-80727068Y-135515598D01*
X-80674430Y-135584724D01*
X-80626674Y-135602387D01*
X-80558743Y-135569215D01*
X-80505519Y-135485355D01*
X-80484000Y-135369976D01*
X-80478853Y-135282796D01*
X-80466296Y-135246000D01*
X-80450812Y-135243203D01*
X-80384875Y-135221549D01*
X-80335732Y-135223002D01*
X-80272981Y-135287122D01*
X-80252368Y-135353055D01*
X-80263406Y-135492069D01*
X-80325730Y-135635506D01*
X-80429273Y-135753338D01*
X-80432022Y-135755487D01*
X-80572323Y-135828219D01*
X-80703155Y-135817300D01*
X-80830740Y-135722250D01*
X-80901184Y-135637851D01*
X-80989952Y-135491298D01*
X-81034669Y-135356557D01*
X-81030829Y-135250387D01*
X-80973928Y-135189545D01*
X-80963263Y-135186013D01*
X-80903755Y-135194561D01*
G37*
X-80903755Y-135194561D02*
X-80847009Y-135263218D01*
X-80782874Y-135403346D01*
X-80780287Y-135409771D01*
X-80727068Y-135515598D01*
X-80674430Y-135584724D01*
X-80626674Y-135602387D01*
X-80558743Y-135569215D01*
X-80505519Y-135485355D01*
X-80484000Y-135369976D01*
X-80478853Y-135282796D01*
X-80466296Y-135246000D01*
X-80450812Y-135243203D01*
X-80384875Y-135221549D01*
X-80335732Y-135223002D01*
X-80272981Y-135287122D01*
X-80252368Y-135353055D01*
X-80263406Y-135492069D01*
X-80325730Y-135635506D01*
X-80429273Y-135753338D01*
X-80432022Y-135755487D01*
X-80572323Y-135828219D01*
X-80703155Y-135817300D01*
X-80830740Y-135722250D01*
X-80901184Y-135637851D01*
X-80989952Y-135491298D01*
X-81034669Y-135356557D01*
X-81030829Y-135250387D01*
X-80973928Y-135189545D01*
X-80963263Y-135186013D01*
X-80903755Y-135194561D01*
G36*
X-81223980Y-136199259D02*
G01*
X-81170549Y-136255459D01*
X-81171166Y-136288610D01*
X-81227033Y-136297792D01*
X-81268020Y-136282406D01*
X-81321451Y-136226207D01*
X-81320834Y-136193055D01*
X-81264967Y-136183873D01*
X-81223980Y-136199259D01*
G37*
X-81223980Y-136199259D02*
X-81170549Y-136255459D01*
X-81171166Y-136288610D01*
X-81227033Y-136297792D01*
X-81268020Y-136282406D01*
X-81321451Y-136226207D01*
X-81320834Y-136193055D01*
X-81264967Y-136183873D01*
X-81223980Y-136199259D01*
G36*
X-80885453Y-136184462D02*
G01*
X-80865000Y-136240833D01*
X-80872206Y-136270417D01*
X-80927171Y-136304333D01*
X-80958471Y-136295447D01*
X-80964975Y-136240833D01*
X-80949082Y-136211022D01*
X-80902804Y-136177333D01*
X-80885453Y-136184462D01*
G37*
X-80885453Y-136184462D02*
X-80865000Y-136240833D01*
X-80872206Y-136270417D01*
X-80927171Y-136304333D01*
X-80958471Y-136295447D01*
X-80964975Y-136240833D01*
X-80949082Y-136211022D01*
X-80902804Y-136177333D01*
X-80885453Y-136184462D01*
G36*
X-82460326Y-136118783D02*
G01*
X-82399194Y-136200201D01*
X-82375492Y-136238526D01*
X-82338357Y-136315893D01*
X-82341409Y-136346666D01*
X-82389429Y-136315087D01*
X-82448873Y-136238976D01*
X-82495984Y-136152981D01*
X-82508084Y-136091786D01*
X-82501152Y-136086955D01*
X-82460326Y-136118783D01*
G37*
X-82460326Y-136118783D02*
X-82399194Y-136200201D01*
X-82375492Y-136238526D01*
X-82338357Y-136315893D01*
X-82341409Y-136346666D01*
X-82389429Y-136315087D01*
X-82448873Y-136238976D01*
X-82495984Y-136152981D01*
X-82508084Y-136091786D01*
X-82501152Y-136086955D01*
X-82460326Y-136118783D01*
G36*
X-82303979Y-136113600D02*
G01*
X-82218755Y-136220946D01*
X-82203260Y-136243463D01*
X-82162228Y-136317002D01*
X-82162519Y-136346666D01*
X-82171603Y-136344491D01*
X-82228814Y-136300823D01*
X-82300962Y-136223216D01*
X-82362779Y-136141019D01*
X-82389000Y-136083583D01*
X-82388713Y-136077558D01*
X-82363564Y-136063438D01*
X-82303979Y-136113600D01*
G37*
X-82303979Y-136113600D02*
X-82218755Y-136220946D01*
X-82203260Y-136243463D01*
X-82162228Y-136317002D01*
X-82162519Y-136346666D01*
X-82171603Y-136344491D01*
X-82228814Y-136300823D01*
X-82300962Y-136223216D01*
X-82362779Y-136141019D01*
X-82389000Y-136083583D01*
X-82388713Y-136077558D01*
X-82363564Y-136063438D01*
X-82303979Y-136113600D01*
G36*
X-82127006Y-136131453D02*
G01*
X-82074119Y-136194163D01*
X-82027836Y-136263431D01*
X-82008000Y-136314732D01*
X-82008531Y-136318909D01*
X-82036118Y-136311181D01*
X-82092667Y-136250448D01*
X-82095661Y-136246618D01*
X-82153015Y-136162286D01*
X-82175925Y-136107156D01*
X-82166659Y-136099826D01*
X-82127006Y-136131453D01*
G37*
X-82127006Y-136131453D02*
X-82074119Y-136194163D01*
X-82027836Y-136263431D01*
X-82008000Y-136314732D01*
X-82008531Y-136318909D01*
X-82036118Y-136311181D01*
X-82092667Y-136250448D01*
X-82095661Y-136246618D01*
X-82153015Y-136162286D01*
X-82175925Y-136107156D01*
X-82166659Y-136099826D01*
X-82127006Y-136131453D01*
G36*
X-82007699Y-136071686D02*
G01*
X-82003587Y-136074611D01*
X-81955200Y-136134835D01*
X-81899921Y-136232934D01*
X-81834778Y-136367833D01*
X-81942345Y-136240833D01*
X-81986863Y-136185101D01*
X-82039089Y-136103597D01*
X-82047716Y-136061438D01*
X-82007699Y-136071686D01*
G37*
X-82007699Y-136071686D02*
X-82003587Y-136074611D01*
X-81955200Y-136134835D01*
X-81899921Y-136232934D01*
X-81834778Y-136367833D01*
X-81942345Y-136240833D01*
X-81986863Y-136185101D01*
X-82039089Y-136103597D01*
X-82047716Y-136061438D01*
X-82007699Y-136071686D01*
G36*
X-81756316Y-136240000D02*
G01*
X-81713607Y-136300707D01*
X-81692342Y-136358324D01*
X-81705648Y-136389000D01*
X-81708791Y-136388783D01*
X-81752766Y-136351742D01*
X-81783687Y-136283571D01*
X-81779593Y-136231148D01*
X-81756316Y-136240000D01*
G37*
X-81756316Y-136240000D02*
X-81713607Y-136300707D01*
X-81692342Y-136358324D01*
X-81705648Y-136389000D01*
X-81708791Y-136388783D01*
X-81752766Y-136351742D01*
X-81783687Y-136283571D01*
X-81779593Y-136231148D01*
X-81756316Y-136240000D01*
G36*
X-80080487Y-136196007D02*
G01*
X-80042919Y-136259854D01*
X-80019833Y-136344174D01*
X-80020004Y-136348283D01*
X-80037740Y-136364818D01*
X-80081833Y-136304333D01*
X-80119238Y-136230927D01*
X-80140460Y-136164131D01*
X-80127487Y-136148003D01*
X-80080487Y-136196007D01*
G37*
X-80080487Y-136196007D02*
X-80042919Y-136259854D01*
X-80019833Y-136344174D01*
X-80020004Y-136348283D01*
X-80037740Y-136364818D01*
X-80081833Y-136304333D01*
X-80119238Y-136230927D01*
X-80140460Y-136164131D01*
X-80127487Y-136148003D01*
X-80080487Y-136196007D01*
G36*
X-79990922Y-136106138D02*
G01*
X-79943593Y-136148068D01*
X-79882315Y-136220110D01*
X-79829277Y-136294961D01*
X-79806667Y-136345320D01*
X-79813148Y-136358461D01*
X-79868485Y-136374888D01*
X-79876338Y-136373564D01*
X-79925907Y-136328724D01*
X-79974920Y-136245707D01*
X-80006103Y-136159411D01*
X-80002184Y-136104739D01*
X-79990922Y-136106138D01*
G37*
X-79990922Y-136106138D02*
X-79943593Y-136148068D01*
X-79882315Y-136220110D01*
X-79829277Y-136294961D01*
X-79806667Y-136345320D01*
X-79813148Y-136358461D01*
X-79868485Y-136374888D01*
X-79876338Y-136373564D01*
X-79925907Y-136328724D01*
X-79974920Y-136245707D01*
X-80006103Y-136159411D01*
X-80002184Y-136104739D01*
X-79990922Y-136106138D01*
G36*
X-80346663Y-136175281D02*
G01*
X-80297250Y-136254747D01*
X-80277485Y-136295087D01*
X-80256282Y-136369460D01*
X-80283545Y-136403506D01*
X-80322016Y-136417772D01*
X-80381545Y-136419456D01*
X-80415971Y-136364370D01*
X-80438765Y-136289955D01*
X-80427215Y-136269526D01*
X-80376820Y-136323007D01*
X-80360630Y-136343434D01*
X-80321510Y-136376408D01*
X-80320701Y-136344071D01*
X-80360430Y-136255591D01*
X-80384194Y-136197748D01*
X-80384718Y-136148606D01*
X-80381719Y-136146961D01*
X-80346663Y-136175281D01*
G37*
X-80346663Y-136175281D02*
X-80297250Y-136254747D01*
X-80277485Y-136295087D01*
X-80256282Y-136369460D01*
X-80283545Y-136403506D01*
X-80322016Y-136417772D01*
X-80381545Y-136419456D01*
X-80415971Y-136364370D01*
X-80438765Y-136289955D01*
X-80427215Y-136269526D01*
X-80376820Y-136323007D01*
X-80360630Y-136343434D01*
X-80321510Y-136376408D01*
X-80320701Y-136344071D01*
X-80360430Y-136255591D01*
X-80384194Y-136197748D01*
X-80384718Y-136148606D01*
X-80381719Y-136146961D01*
X-80346663Y-136175281D01*
G36*
X-80262403Y-136092908D02*
G01*
X-80230000Y-136108663D01*
X-80228743Y-136114824D01*
X-80206718Y-136176697D01*
X-80165932Y-136277996D01*
X-80152489Y-136312101D01*
X-80128166Y-136397084D01*
X-80134182Y-136430902D01*
X-80145261Y-136424757D01*
X-80187379Y-136364748D01*
X-80237439Y-136261569D01*
X-80256078Y-136213281D01*
X-80278396Y-136126888D01*
X-80269189Y-136092666D01*
X-80262403Y-136092908D01*
G37*
X-80262403Y-136092908D02*
X-80230000Y-136108663D01*
X-80228743Y-136114824D01*
X-80206718Y-136176697D01*
X-80165932Y-136277996D01*
X-80152489Y-136312101D01*
X-80128166Y-136397084D01*
X-80134182Y-136430902D01*
X-80145261Y-136424757D01*
X-80187379Y-136364748D01*
X-80237439Y-136261569D01*
X-80256078Y-136213281D01*
X-80278396Y-136126888D01*
X-80269189Y-136092666D01*
X-80262403Y-136092908D01*
G36*
X-81463834Y-136788443D02*
G01*
X-81369230Y-136865250D01*
X-81317654Y-136921130D01*
X-81276299Y-136933087D01*
X-81230778Y-136886416D01*
X-81186738Y-136841673D01*
X-81094915Y-136817464D01*
X-80991283Y-136876481D01*
X-80943126Y-136911440D01*
X-80889156Y-136907920D01*
X-80806789Y-136851263D01*
X-80798248Y-136844742D01*
X-80703977Y-136793609D01*
X-80630922Y-136785786D01*
X-80610969Y-136795436D01*
X-80573294Y-136853285D01*
X-80593738Y-136930395D01*
X-80658072Y-137012084D01*
X-80752067Y-137083673D01*
X-80861494Y-137130480D01*
X-80972124Y-137137824D01*
X-81082752Y-137133643D01*
X-81164966Y-137154141D01*
X-81176222Y-137160971D01*
X-81273968Y-137189613D01*
X-81375207Y-137153790D01*
X-81497295Y-137047956D01*
X-81523236Y-137020087D01*
X-81599781Y-136912469D01*
X-81612762Y-136836290D01*
X-81610191Y-136830053D01*
X-81550786Y-136775923D01*
X-81463834Y-136788443D01*
G37*
X-81463834Y-136788443D02*
X-81369230Y-136865250D01*
X-81317654Y-136921130D01*
X-81276299Y-136933087D01*
X-81230778Y-136886416D01*
X-81186738Y-136841673D01*
X-81094915Y-136817464D01*
X-80991283Y-136876481D01*
X-80943126Y-136911440D01*
X-80889156Y-136907920D01*
X-80806789Y-136851263D01*
X-80798248Y-136844742D01*
X-80703977Y-136793609D01*
X-80630922Y-136785786D01*
X-80610969Y-136795436D01*
X-80573294Y-136853285D01*
X-80593738Y-136930395D01*
X-80658072Y-137012084D01*
X-80752067Y-137083673D01*
X-80861494Y-137130480D01*
X-80972124Y-137137824D01*
X-81082752Y-137133643D01*
X-81164966Y-137154141D01*
X-81176222Y-137160971D01*
X-81273968Y-137189613D01*
X-81375207Y-137153790D01*
X-81497295Y-137047956D01*
X-81523236Y-137020087D01*
X-81599781Y-136912469D01*
X-81612762Y-136836290D01*
X-81610191Y-136830053D01*
X-81550786Y-136775923D01*
X-81463834Y-136788443D01*
G36*
X-78822358Y-137062009D02*
G01*
X-78854638Y-137200463D01*
X-78921893Y-137276870D01*
X-79053530Y-137342842D01*
X-79227028Y-137388157D01*
X-79420751Y-137405000D01*
X-79444825Y-137404896D01*
X-79599586Y-137394022D01*
X-79717317Y-137356522D01*
X-79839500Y-137280014D01*
X-80012038Y-137155029D01*
X-80123893Y-137243015D01*
X-80167336Y-137273098D01*
X-80334476Y-137354218D01*
X-80543832Y-137423353D01*
X-80764111Y-137471340D01*
X-80964021Y-137489016D01*
X-81115285Y-137481206D01*
X-81396801Y-137436336D01*
X-81688915Y-137358081D01*
X-81972590Y-137253846D01*
X-82228787Y-137131038D01*
X-82438470Y-136997063D01*
X-82582602Y-136859327D01*
X-82712705Y-136689409D01*
X-82767604Y-136909621D01*
X-82789037Y-136988833D01*
X-82878170Y-137212799D01*
X-82999239Y-137373724D01*
X-83162618Y-137486767D01*
X-83294330Y-137538798D01*
X-83531673Y-137564762D01*
X-83629644Y-137554911D01*
X-83709211Y-137526104D01*
X-83777281Y-137461106D01*
X-83861024Y-137341500D01*
X-83976747Y-137141588D01*
X-84072932Y-136904470D01*
X-84137005Y-136637588D01*
X-84173026Y-136323434D01*
X-84185055Y-135944500D01*
X-84184946Y-135923333D01*
X-84141698Y-135923333D01*
X-84138463Y-136084274D01*
X-84126457Y-136306443D01*
X-84107805Y-136502428D01*
X-84084815Y-136643000D01*
X-84036718Y-136805906D01*
X-83945723Y-137031015D01*
X-83837581Y-137238099D01*
X-83727846Y-137394416D01*
X-83643389Y-137456561D01*
X-83499091Y-137485882D01*
X-83335598Y-137460931D01*
X-83172383Y-137388225D01*
X-83028920Y-137274280D01*
X-82924680Y-137125613D01*
X-82886740Y-137009292D01*
X-82849463Y-136815276D01*
X-82817701Y-136565071D01*
X-82792972Y-136273477D01*
X-82776795Y-135955291D01*
X-82770689Y-135625310D01*
X-82767036Y-135458856D01*
X-82729414Y-135103707D01*
X-82648571Y-134804942D01*
X-82521422Y-134549232D01*
X-82447665Y-134447510D01*
X-82388656Y-134398349D01*
X-82364920Y-134417202D01*
X-82382904Y-134496859D01*
X-82449059Y-134630113D01*
X-82493352Y-134713229D01*
X-82576429Y-134931567D01*
X-82635852Y-135198449D01*
X-82673777Y-135525326D01*
X-82692356Y-135923653D01*
X-82696240Y-136132698D01*
X-82696103Y-136306133D01*
X-82689176Y-136427548D01*
X-82673439Y-136514293D01*
X-82646873Y-136583718D01*
X-82607460Y-136653174D01*
X-82496474Y-136805708D01*
X-82309678Y-136978351D01*
X-82067714Y-137121096D01*
X-81756117Y-137243980D01*
X-81566483Y-137303108D01*
X-81373252Y-137349242D01*
X-81187495Y-137372472D01*
X-80970833Y-137379419D01*
X-80933265Y-137379497D01*
X-80744710Y-137375211D01*
X-80605761Y-137358803D01*
X-80486448Y-137324826D01*
X-80356805Y-137267836D01*
X-80234040Y-137202305D01*
X-79996998Y-137026078D01*
X-79837943Y-136822318D01*
X-79758496Y-136592856D01*
X-79744265Y-136464343D01*
X-79755847Y-136132423D01*
X-79827935Y-135780205D01*
X-79956618Y-135430637D01*
X-79999618Y-135330677D01*
X-80066707Y-135145801D01*
X-80115281Y-134973464D01*
X-80141814Y-134830064D01*
X-80142779Y-134731999D01*
X-80114651Y-134695666D01*
X-80102516Y-134702111D01*
X-80071422Y-134765801D01*
X-80047457Y-134875583D01*
X-80043316Y-134899895D01*
X-80005849Y-135037474D01*
X-79943842Y-135211248D01*
X-79868333Y-135389546D01*
X-79831934Y-135472680D01*
X-79731625Y-135766987D01*
X-79669059Y-136065076D01*
X-79644828Y-136351341D01*
X-79659522Y-136610178D01*
X-79713731Y-136825980D01*
X-79808046Y-136983142D01*
X-79927804Y-137111344D01*
X-79762134Y-137220980D01*
X-79701812Y-137258824D01*
X-79603293Y-137302649D01*
X-79493129Y-137317734D01*
X-79335346Y-137311727D01*
X-79229616Y-137300309D01*
X-79058803Y-137251306D01*
X-78949847Y-137158714D01*
X-78892204Y-137010700D01*
X-78875333Y-136795433D01*
X-78879392Y-136679485D01*
X-78903609Y-136503099D01*
X-78954112Y-136314762D01*
X-79035996Y-136099800D01*
X-79154356Y-135843541D01*
X-79314287Y-135531310D01*
X-79327253Y-135506660D01*
X-79435394Y-135292034D01*
X-79533310Y-135082967D01*
X-79610687Y-134902269D01*
X-79657215Y-134772748D01*
X-79698114Y-134646039D01*
X-79784199Y-134469562D01*
X-79899040Y-134345203D01*
X-80058794Y-134252010D01*
X-80146306Y-134207554D01*
X-80209382Y-134152975D01*
X-80189824Y-134113899D01*
X-80088083Y-134090817D01*
X-79904608Y-134084220D01*
X-79728320Y-134092417D01*
X-79578377Y-134121582D01*
X-79453638Y-134178042D01*
X-79349228Y-134231460D01*
X-79304725Y-134234425D01*
X-79326230Y-134187095D01*
X-79415083Y-134092446D01*
X-79463960Y-134049331D01*
X-79673334Y-133930773D01*
X-79912757Y-133891333D01*
X-80006607Y-133885169D01*
X-80069685Y-133859092D01*
X-80052123Y-133818304D01*
X-79951921Y-133769044D01*
X-79926346Y-133759034D01*
X-79848683Y-133714576D01*
X-79829674Y-133676688D01*
X-79843758Y-133662434D01*
X-79927372Y-133639233D01*
X-80049796Y-133642947D01*
X-80180977Y-133670764D01*
X-80290859Y-133719868D01*
X-80335127Y-133747169D01*
X-80424866Y-133780975D01*
X-80460634Y-133750732D01*
X-80441097Y-133657001D01*
X-80420130Y-133586286D01*
X-80423650Y-133552666D01*
X-80479135Y-133569106D01*
X-80572878Y-133619248D01*
X-80661941Y-133681042D01*
X-80709881Y-133731692D01*
X-80711269Y-133734860D01*
X-80747676Y-133747462D01*
X-80813286Y-133684750D01*
X-80894828Y-133584000D01*
X-80962230Y-133680231D01*
X-81029633Y-133776461D01*
X-81326575Y-133680982D01*
X-81490540Y-133635963D01*
X-81677195Y-133616700D01*
X-81824452Y-133651314D01*
X-81948785Y-133741404D01*
X-81964257Y-133753808D01*
X-82062372Y-133793029D01*
X-82190940Y-133810886D01*
X-82219004Y-133812032D01*
X-82326053Y-133822693D01*
X-82430698Y-133840155D01*
X-82512577Y-133859796D01*
X-82551326Y-133876990D01*
X-82526583Y-133887113D01*
X-82507409Y-133891534D01*
X-82473667Y-133933666D01*
X-82500248Y-133952681D01*
X-82591501Y-133969539D01*
X-82726193Y-133976000D01*
X-82813439Y-133974716D01*
X-82937162Y-133960459D01*
X-83030311Y-133920954D01*
X-83128360Y-133844614D01*
X-83202142Y-133786226D01*
X-83264910Y-133758594D01*
X-83275468Y-133792673D01*
X-83228908Y-133886423D01*
X-83216130Y-133910872D01*
X-83211634Y-133969663D01*
X-83251955Y-134037292D01*
X-83346154Y-134125660D01*
X-83503297Y-134246665D01*
X-83551553Y-134284224D01*
X-83642327Y-134367344D01*
X-83689365Y-134429205D01*
X-83732013Y-134498744D01*
X-83806894Y-134585712D01*
X-83828849Y-134613248D01*
X-83889837Y-134723046D01*
X-83957848Y-134879294D01*
X-84021835Y-135057735D01*
X-84062929Y-135190794D01*
X-84104502Y-135354166D01*
X-84128664Y-135510324D01*
X-84139651Y-135689852D01*
X-84141698Y-135923333D01*
X-84184946Y-135923333D01*
X-84183740Y-135688178D01*
X-84176239Y-135490362D01*
X-84160295Y-135333594D01*
X-84133665Y-135195949D01*
X-84094106Y-135055500D01*
X-83983300Y-134766676D01*
X-83794580Y-134439093D01*
X-83561642Y-134177197D01*
X-83489363Y-134111346D01*
X-83433621Y-134051511D01*
X-83432348Y-134024684D01*
X-83479083Y-134018447D01*
X-83538453Y-134009086D01*
X-83574333Y-133976000D01*
X-83573945Y-133972813D01*
X-83530420Y-133944576D01*
X-83436750Y-133932144D01*
X-83299167Y-133930621D01*
X-83426167Y-133826521D01*
X-83445460Y-133811372D01*
X-83548207Y-133748020D01*
X-83629748Y-133722210D01*
X-83670112Y-133714068D01*
X-83677283Y-133675001D01*
X-83677022Y-133674586D01*
X-83615879Y-133647617D01*
X-83505451Y-133651172D01*
X-83429700Y-133660128D01*
X-83375514Y-133646209D01*
X-83362667Y-133592338D01*
X-83362173Y-133574258D01*
X-83340406Y-133516922D01*
X-83286417Y-133537856D01*
X-83200236Y-133637051D01*
X-83140067Y-133716116D01*
X-83065689Y-133796207D01*
X-82988259Y-133842707D01*
X-82892256Y-133857182D01*
X-82762161Y-133841199D01*
X-82582454Y-133796325D01*
X-82337613Y-133724127D01*
X-82231961Y-133692788D01*
X-81942786Y-133615649D01*
X-81711765Y-133571176D01*
X-81524312Y-133558011D01*
X-81365845Y-133574795D01*
X-81221780Y-133620170D01*
X-81186803Y-133634606D01*
X-81097424Y-133664556D01*
X-81046774Y-133657419D01*
X-81004943Y-133612079D01*
X-80972231Y-133560657D01*
X-80949667Y-133502242D01*
X-80925238Y-133469550D01*
X-80866399Y-133481130D01*
X-80805335Y-133533414D01*
X-80801614Y-133538428D01*
X-80761965Y-133573826D01*
X-80704851Y-133572154D01*
X-80600944Y-133533414D01*
X-80491679Y-133494106D01*
X-80371056Y-133469889D01*
X-80297152Y-133480023D01*
X-80285115Y-133524915D01*
X-80283475Y-133555543D01*
X-80230799Y-133569486D01*
X-80109728Y-133563494D01*
X-80076344Y-133560977D01*
X-79893921Y-133574050D01*
X-79700833Y-133641027D01*
X-79489167Y-133736896D01*
X-79637333Y-133761283D01*
X-79785500Y-133785671D01*
X-79575824Y-133891419D01*
X-79410131Y-133998933D01*
X-79226574Y-134202872D01*
X-79158790Y-134308172D01*
X-79098069Y-134425793D01*
X-79090588Y-134486212D01*
X-79136235Y-134486461D01*
X-79234898Y-134423575D01*
X-79292105Y-134382079D01*
X-79501973Y-134259459D01*
X-79710901Y-134177028D01*
X-79891333Y-134146421D01*
X-80039500Y-134145649D01*
X-79910688Y-134224201D01*
X-79891951Y-134235995D01*
X-79761866Y-134348416D01*
X-79663072Y-134504120D01*
X-79581987Y-134723749D01*
X-79568355Y-134769145D01*
X-79543951Y-134844986D01*
X-79515755Y-134920772D01*
X-79477988Y-135009084D01*
X-79424874Y-135122502D01*
X-79350635Y-135273608D01*
X-79249494Y-135474981D01*
X-79115674Y-135739202D01*
X-79025116Y-135926668D01*
X-78935950Y-136129937D01*
X-78866973Y-136307516D01*
X-78828253Y-136435028D01*
X-78818941Y-136486784D01*
X-78803332Y-136671016D01*
X-78804271Y-136795433D01*
X-78804864Y-136874142D01*
X-78822358Y-137062009D01*
G37*
X-78822358Y-137062009D02*
X-78854638Y-137200463D01*
X-78921893Y-137276870D01*
X-79053530Y-137342842D01*
X-79227028Y-137388157D01*
X-79420751Y-137405000D01*
X-79444825Y-137404896D01*
X-79599586Y-137394022D01*
X-79717317Y-137356522D01*
X-79839500Y-137280014D01*
X-80012038Y-137155029D01*
X-80123893Y-137243015D01*
X-80167336Y-137273098D01*
X-80334476Y-137354218D01*
X-80543832Y-137423353D01*
X-80764111Y-137471340D01*
X-80964021Y-137489016D01*
X-81115285Y-137481206D01*
X-81396801Y-137436336D01*
X-81688915Y-137358081D01*
X-81972590Y-137253846D01*
X-82228787Y-137131038D01*
X-82438470Y-136997063D01*
X-82582602Y-136859327D01*
X-82712705Y-136689409D01*
X-82767604Y-136909621D01*
X-82789037Y-136988833D01*
X-82878170Y-137212799D01*
X-82999239Y-137373724D01*
X-83162618Y-137486767D01*
X-83294330Y-137538798D01*
X-83531673Y-137564762D01*
X-83629644Y-137554911D01*
X-83709211Y-137526104D01*
X-83777281Y-137461106D01*
X-83861024Y-137341500D01*
X-83976747Y-137141588D01*
X-84072932Y-136904470D01*
X-84137005Y-136637588D01*
X-84173026Y-136323434D01*
X-84185055Y-135944500D01*
X-84184946Y-135923333D01*
X-84141698Y-135923333D01*
X-84138463Y-136084274D01*
X-84126457Y-136306443D01*
X-84107805Y-136502428D01*
X-84084815Y-136643000D01*
X-84036718Y-136805906D01*
X-83945723Y-137031015D01*
X-83837581Y-137238099D01*
X-83727846Y-137394416D01*
X-83643389Y-137456561D01*
X-83499091Y-137485882D01*
X-83335598Y-137460931D01*
X-83172383Y-137388225D01*
X-83028920Y-137274280D01*
X-82924680Y-137125613D01*
X-82886740Y-137009292D01*
X-82849463Y-136815276D01*
X-82817701Y-136565071D01*
X-82792972Y-136273477D01*
X-82776795Y-135955291D01*
X-82770689Y-135625310D01*
X-82767036Y-135458856D01*
X-82729414Y-135103707D01*
X-82648571Y-134804942D01*
X-82521422Y-134549232D01*
X-82447665Y-134447510D01*
X-82388656Y-134398349D01*
X-82364920Y-134417202D01*
X-82382904Y-134496859D01*
X-82449059Y-134630113D01*
X-82493352Y-134713229D01*
X-82576429Y-134931567D01*
X-82635852Y-135198449D01*
X-82673777Y-135525326D01*
X-82692356Y-135923653D01*
X-82696240Y-136132698D01*
X-82696103Y-136306133D01*
X-82689176Y-136427548D01*
X-82673439Y-136514293D01*
X-82646873Y-136583718D01*
X-82607460Y-136653174D01*
X-82496474Y-136805708D01*
X-82309678Y-136978351D01*
X-82067714Y-137121096D01*
X-81756117Y-137243980D01*
X-81566483Y-137303108D01*
X-81373252Y-137349242D01*
X-81187495Y-137372472D01*
X-80970833Y-137379419D01*
X-80933265Y-137379497D01*
X-80744710Y-137375211D01*
X-80605761Y-137358803D01*
X-80486448Y-137324826D01*
X-80356805Y-137267836D01*
X-80234040Y-137202305D01*
X-79996998Y-137026078D01*
X-79837943Y-136822318D01*
X-79758496Y-136592856D01*
X-79744265Y-136464343D01*
X-79755847Y-136132423D01*
X-79827935Y-135780205D01*
X-79956618Y-135430637D01*
X-79999618Y-135330677D01*
X-80066707Y-135145801D01*
X-80115281Y-134973464D01*
X-80141814Y-134830064D01*
X-80142779Y-134731999D01*
X-80114651Y-134695666D01*
X-80102516Y-134702111D01*
X-80071422Y-134765801D01*
X-80047457Y-134875583D01*
X-80043316Y-134899895D01*
X-80005849Y-135037474D01*
X-79943842Y-135211248D01*
X-79868333Y-135389546D01*
X-79831934Y-135472680D01*
X-79731625Y-135766987D01*
X-79669059Y-136065076D01*
X-79644828Y-136351341D01*
X-79659522Y-136610178D01*
X-79713731Y-136825980D01*
X-79808046Y-136983142D01*
X-79927804Y-137111344D01*
X-79762134Y-137220980D01*
X-79701812Y-137258824D01*
X-79603293Y-137302649D01*
X-79493129Y-137317734D01*
X-79335346Y-137311727D01*
X-79229616Y-137300309D01*
X-79058803Y-137251306D01*
X-78949847Y-137158714D01*
X-78892204Y-137010700D01*
X-78875333Y-136795433D01*
X-78879392Y-136679485D01*
X-78903609Y-136503099D01*
X-78954112Y-136314762D01*
X-79035996Y-136099800D01*
X-79154356Y-135843541D01*
X-79314287Y-135531310D01*
X-79327253Y-135506660D01*
X-79435394Y-135292034D01*
X-79533310Y-135082967D01*
X-79610687Y-134902269D01*
X-79657215Y-134772748D01*
X-79698114Y-134646039D01*
X-79784199Y-134469562D01*
X-79899040Y-134345203D01*
X-80058794Y-134252010D01*
X-80146306Y-134207554D01*
X-80209382Y-134152975D01*
X-80189824Y-134113899D01*
X-80088083Y-134090817D01*
X-79904608Y-134084220D01*
X-79728320Y-134092417D01*
X-79578377Y-134121582D01*
X-79453638Y-134178042D01*
X-79349228Y-134231460D01*
X-79304725Y-134234425D01*
X-79326230Y-134187095D01*
X-79415083Y-134092446D01*
X-79463960Y-134049331D01*
X-79673334Y-133930773D01*
X-79912757Y-133891333D01*
X-80006607Y-133885169D01*
X-80069685Y-133859092D01*
X-80052123Y-133818304D01*
X-79951921Y-133769044D01*
X-79926346Y-133759034D01*
X-79848683Y-133714576D01*
X-79829674Y-133676688D01*
X-79843758Y-133662434D01*
X-79927372Y-133639233D01*
X-80049796Y-133642947D01*
X-80180977Y-133670764D01*
X-80290859Y-133719868D01*
X-80335127Y-133747169D01*
X-80424866Y-133780975D01*
X-80460634Y-133750732D01*
X-80441097Y-133657001D01*
X-80420130Y-133586286D01*
X-80423650Y-133552666D01*
X-80479135Y-133569106D01*
X-80572878Y-133619248D01*
X-80661941Y-133681042D01*
X-80709881Y-133731692D01*
X-80711269Y-133734860D01*
X-80747676Y-133747462D01*
X-80813286Y-133684750D01*
X-80894828Y-133584000D01*
X-80962230Y-133680231D01*
X-81029633Y-133776461D01*
X-81326575Y-133680982D01*
X-81490540Y-133635963D01*
X-81677195Y-133616700D01*
X-81824452Y-133651314D01*
X-81948785Y-133741404D01*
X-81964257Y-133753808D01*
X-82062372Y-133793029D01*
X-82190940Y-133810886D01*
X-82219004Y-133812032D01*
X-82326053Y-133822693D01*
X-82430698Y-133840155D01*
X-82512577Y-133859796D01*
X-82551326Y-133876990D01*
X-82526583Y-133887113D01*
X-82507409Y-133891534D01*
X-82473667Y-133933666D01*
X-82500248Y-133952681D01*
X-82591501Y-133969539D01*
X-82726193Y-133976000D01*
X-82813439Y-133974716D01*
X-82937162Y-133960459D01*
X-83030311Y-133920954D01*
X-83128360Y-133844614D01*
X-83202142Y-133786226D01*
X-83264910Y-133758594D01*
X-83275468Y-133792673D01*
X-83228908Y-133886423D01*
X-83216130Y-133910872D01*
X-83211634Y-133969663D01*
X-83251955Y-134037292D01*
X-83346154Y-134125660D01*
X-83503297Y-134246665D01*
X-83551553Y-134284224D01*
X-83642327Y-134367344D01*
X-83689365Y-134429205D01*
X-83732013Y-134498744D01*
X-83806894Y-134585712D01*
X-83828849Y-134613248D01*
X-83889837Y-134723046D01*
X-83957848Y-134879294D01*
X-84021835Y-135057735D01*
X-84062929Y-135190794D01*
X-84104502Y-135354166D01*
X-84128664Y-135510324D01*
X-84139651Y-135689852D01*
X-84141698Y-135923333D01*
X-84184946Y-135923333D01*
X-84183740Y-135688178D01*
X-84176239Y-135490362D01*
X-84160295Y-135333594D01*
X-84133665Y-135195949D01*
X-84094106Y-135055500D01*
X-83983300Y-134766676D01*
X-83794580Y-134439093D01*
X-83561642Y-134177197D01*
X-83489363Y-134111346D01*
X-83433621Y-134051511D01*
X-83432348Y-134024684D01*
X-83479083Y-134018447D01*
X-83538453Y-134009086D01*
X-83574333Y-133976000D01*
X-83573945Y-133972813D01*
X-83530420Y-133944576D01*
X-83436750Y-133932144D01*
X-83299167Y-133930621D01*
X-83426167Y-133826521D01*
X-83445460Y-133811372D01*
X-83548207Y-133748020D01*
X-83629748Y-133722210D01*
X-83670112Y-133714068D01*
X-83677283Y-133675001D01*
X-83677022Y-133674586D01*
X-83615879Y-133647617D01*
X-83505451Y-133651172D01*
X-83429700Y-133660128D01*
X-83375514Y-133646209D01*
X-83362667Y-133592338D01*
X-83362173Y-133574258D01*
X-83340406Y-133516922D01*
X-83286417Y-133537856D01*
X-83200236Y-133637051D01*
X-83140067Y-133716116D01*
X-83065689Y-133796207D01*
X-82988259Y-133842707D01*
X-82892256Y-133857182D01*
X-82762161Y-133841199D01*
X-82582454Y-133796325D01*
X-82337613Y-133724127D01*
X-82231961Y-133692788D01*
X-81942786Y-133615649D01*
X-81711765Y-133571176D01*
X-81524312Y-133558011D01*
X-81365845Y-133574795D01*
X-81221780Y-133620170D01*
X-81186803Y-133634606D01*
X-81097424Y-133664556D01*
X-81046774Y-133657419D01*
X-81004943Y-133612079D01*
X-80972231Y-133560657D01*
X-80949667Y-133502242D01*
X-80925238Y-133469550D01*
X-80866399Y-133481130D01*
X-80805335Y-133533414D01*
X-80801614Y-133538428D01*
X-80761965Y-133573826D01*
X-80704851Y-133572154D01*
X-80600944Y-133533414D01*
X-80491679Y-133494106D01*
X-80371056Y-133469889D01*
X-80297152Y-133480023D01*
X-80285115Y-133524915D01*
X-80283475Y-133555543D01*
X-80230799Y-133569486D01*
X-80109728Y-133563494D01*
X-80076344Y-133560977D01*
X-79893921Y-133574050D01*
X-79700833Y-133641027D01*
X-79489167Y-133736896D01*
X-79637333Y-133761283D01*
X-79785500Y-133785671D01*
X-79575824Y-133891419D01*
X-79410131Y-133998933D01*
X-79226574Y-134202872D01*
X-79158790Y-134308172D01*
X-79098069Y-134425793D01*
X-79090588Y-134486212D01*
X-79136235Y-134486461D01*
X-79234898Y-134423575D01*
X-79292105Y-134382079D01*
X-79501973Y-134259459D01*
X-79710901Y-134177028D01*
X-79891333Y-134146421D01*
X-80039500Y-134145649D01*
X-79910688Y-134224201D01*
X-79891951Y-134235995D01*
X-79761866Y-134348416D01*
X-79663072Y-134504120D01*
X-79581987Y-134723749D01*
X-79568355Y-134769145D01*
X-79543951Y-134844986D01*
X-79515755Y-134920772D01*
X-79477988Y-135009084D01*
X-79424874Y-135122502D01*
X-79350635Y-135273608D01*
X-79249494Y-135474981D01*
X-79115674Y-135739202D01*
X-79025116Y-135926668D01*
X-78935950Y-136129937D01*
X-78866973Y-136307516D01*
X-78828253Y-136435028D01*
X-78818941Y-136486784D01*
X-78803332Y-136671016D01*
X-78804271Y-136795433D01*
X-78804864Y-136874142D01*
X-78822358Y-137062009D01*
G36*
X-127322358Y-137062009D02*
G01*
X-127354638Y-137200463D01*
X-127421893Y-137276870D01*
X-127553530Y-137342842D01*
X-127727028Y-137388157D01*
X-127920751Y-137405000D01*
X-127944825Y-137404896D01*
X-128099586Y-137394022D01*
X-128217317Y-137356522D01*
X-128339500Y-137280014D01*
X-128512038Y-137155029D01*
X-128623893Y-137243015D01*
X-128667336Y-137273098D01*
X-128834476Y-137354218D01*
X-129043832Y-137423353D01*
X-129264111Y-137471340D01*
X-129464021Y-137489016D01*
X-129615285Y-137481206D01*
X-129896801Y-137436336D01*
X-130188915Y-137358081D01*
X-130472590Y-137253846D01*
X-130728787Y-137131038D01*
X-130938470Y-136997063D01*
X-131082602Y-136859327D01*
X-131212705Y-136689409D01*
X-131267604Y-136909621D01*
X-131289037Y-136988833D01*
X-131378170Y-137212799D01*
X-131499239Y-137373724D01*
X-131662618Y-137486767D01*
X-131794330Y-137538798D01*
X-132031673Y-137564762D01*
X-132129644Y-137554911D01*
X-132209211Y-137526104D01*
X-132277281Y-137461106D01*
X-132361024Y-137341500D01*
X-132476747Y-137141588D01*
X-132572932Y-136904470D01*
X-132637005Y-136637588D01*
X-132673026Y-136323434D01*
X-132685055Y-135944500D01*
X-132684946Y-135923333D01*
X-132641698Y-135923333D01*
X-132638463Y-136084274D01*
X-132626457Y-136306443D01*
X-132607805Y-136502428D01*
X-132584815Y-136643000D01*
X-132536718Y-136805906D01*
X-132445723Y-137031015D01*
X-132337581Y-137238099D01*
X-132227846Y-137394416D01*
X-132143389Y-137456561D01*
X-131999091Y-137485882D01*
X-131835598Y-137460931D01*
X-131672383Y-137388225D01*
X-131528920Y-137274280D01*
X-131424680Y-137125613D01*
X-131386740Y-137009292D01*
X-131349463Y-136815276D01*
X-131317701Y-136565071D01*
X-131292972Y-136273477D01*
X-131276795Y-135955291D01*
X-131270689Y-135625310D01*
X-131267036Y-135458856D01*
X-131229414Y-135103707D01*
X-131148571Y-134804942D01*
X-131021422Y-134549232D01*
X-130947665Y-134447510D01*
X-130888656Y-134398349D01*
X-130864920Y-134417202D01*
X-130882904Y-134496859D01*
X-130949059Y-134630113D01*
X-130993352Y-134713229D01*
X-131076429Y-134931567D01*
X-131135852Y-135198449D01*
X-131173777Y-135525326D01*
X-131192356Y-135923653D01*
X-131196240Y-136132698D01*
X-131196103Y-136306133D01*
X-131189176Y-136427548D01*
X-131173439Y-136514293D01*
X-131146873Y-136583718D01*
X-131107460Y-136653174D01*
X-130996474Y-136805708D01*
X-130809678Y-136978351D01*
X-130567714Y-137121096D01*
X-130256117Y-137243980D01*
X-130066483Y-137303108D01*
X-129873252Y-137349242D01*
X-129687495Y-137372472D01*
X-129470833Y-137379419D01*
X-129433265Y-137379497D01*
X-129244710Y-137375211D01*
X-129105761Y-137358803D01*
X-128986448Y-137324826D01*
X-128856805Y-137267836D01*
X-128734040Y-137202305D01*
X-128496998Y-137026078D01*
X-128337943Y-136822318D01*
X-128258496Y-136592856D01*
X-128244265Y-136464343D01*
X-128255847Y-136132423D01*
X-128327935Y-135780205D01*
X-128456618Y-135430637D01*
X-128499618Y-135330677D01*
X-128566707Y-135145801D01*
X-128615281Y-134973464D01*
X-128641814Y-134830064D01*
X-128642779Y-134731999D01*
X-128614651Y-134695666D01*
X-128602516Y-134702111D01*
X-128571422Y-134765801D01*
X-128547457Y-134875583D01*
X-128543316Y-134899895D01*
X-128505849Y-135037474D01*
X-128443842Y-135211248D01*
X-128368333Y-135389546D01*
X-128331934Y-135472680D01*
X-128231625Y-135766987D01*
X-128169059Y-136065076D01*
X-128144828Y-136351341D01*
X-128159522Y-136610178D01*
X-128213731Y-136825980D01*
X-128308046Y-136983142D01*
X-128427804Y-137111344D01*
X-128262134Y-137220980D01*
X-128201812Y-137258824D01*
X-128103293Y-137302649D01*
X-127993129Y-137317734D01*
X-127835346Y-137311727D01*
X-127729616Y-137300309D01*
X-127558803Y-137251306D01*
X-127449847Y-137158714D01*
X-127392204Y-137010700D01*
X-127375333Y-136795433D01*
X-127379392Y-136679485D01*
X-127403609Y-136503099D01*
X-127454112Y-136314762D01*
X-127535996Y-136099800D01*
X-127654356Y-135843541D01*
X-127814287Y-135531310D01*
X-127827253Y-135506660D01*
X-127935394Y-135292034D01*
X-128033310Y-135082967D01*
X-128110687Y-134902269D01*
X-128157215Y-134772748D01*
X-128198114Y-134646039D01*
X-128284199Y-134469562D01*
X-128399040Y-134345203D01*
X-128558794Y-134252010D01*
X-128646306Y-134207554D01*
X-128709382Y-134152975D01*
X-128689824Y-134113899D01*
X-128588083Y-134090817D01*
X-128404608Y-134084220D01*
X-128228320Y-134092417D01*
X-128078377Y-134121582D01*
X-127953638Y-134178042D01*
X-127849228Y-134231460D01*
X-127804725Y-134234425D01*
X-127826230Y-134187095D01*
X-127915083Y-134092446D01*
X-127963960Y-134049331D01*
X-128173334Y-133930773D01*
X-128412757Y-133891333D01*
X-128506607Y-133885169D01*
X-128569685Y-133859092D01*
X-128552123Y-133818304D01*
X-128451921Y-133769044D01*
X-128426346Y-133759034D01*
X-128348683Y-133714576D01*
X-128329674Y-133676688D01*
X-128343758Y-133662434D01*
X-128427372Y-133639233D01*
X-128549796Y-133642947D01*
X-128680977Y-133670764D01*
X-128790859Y-133719868D01*
X-128835127Y-133747169D01*
X-128924866Y-133780975D01*
X-128960634Y-133750732D01*
X-128941097Y-133657001D01*
X-128920130Y-133586286D01*
X-128923650Y-133552666D01*
X-128979135Y-133569106D01*
X-129072878Y-133619248D01*
X-129161941Y-133681042D01*
X-129209881Y-133731692D01*
X-129211269Y-133734860D01*
X-129247676Y-133747462D01*
X-129313286Y-133684750D01*
X-129394828Y-133584000D01*
X-129462230Y-133680231D01*
X-129529633Y-133776461D01*
X-129826575Y-133680982D01*
X-129990540Y-133635963D01*
X-130177195Y-133616700D01*
X-130324452Y-133651314D01*
X-130448785Y-133741404D01*
X-130464257Y-133753808D01*
X-130562372Y-133793029D01*
X-130690940Y-133810886D01*
X-130719004Y-133812032D01*
X-130826053Y-133822693D01*
X-130930698Y-133840155D01*
X-131012577Y-133859796D01*
X-131051326Y-133876990D01*
X-131026583Y-133887113D01*
X-131007409Y-133891534D01*
X-130973667Y-133933666D01*
X-131000248Y-133952681D01*
X-131091501Y-133969539D01*
X-131226193Y-133976000D01*
X-131313439Y-133974716D01*
X-131437162Y-133960459D01*
X-131530311Y-133920954D01*
X-131628360Y-133844614D01*
X-131702142Y-133786226D01*
X-131764910Y-133758594D01*
X-131775468Y-133792673D01*
X-131728908Y-133886423D01*
X-131716130Y-133910872D01*
X-131711634Y-133969663D01*
X-131751955Y-134037292D01*
X-131846154Y-134125660D01*
X-132003297Y-134246665D01*
X-132051553Y-134284224D01*
X-132142327Y-134367344D01*
X-132189365Y-134429205D01*
X-132232013Y-134498744D01*
X-132306894Y-134585712D01*
X-132328849Y-134613248D01*
X-132389837Y-134723046D01*
X-132457848Y-134879294D01*
X-132521835Y-135057735D01*
X-132562929Y-135190794D01*
X-132604502Y-135354166D01*
X-132628664Y-135510324D01*
X-132639651Y-135689852D01*
X-132641698Y-135923333D01*
X-132684946Y-135923333D01*
X-132683740Y-135688178D01*
X-132676239Y-135490362D01*
X-132660295Y-135333594D01*
X-132633665Y-135195949D01*
X-132594106Y-135055500D01*
X-132483300Y-134766676D01*
X-132294580Y-134439093D01*
X-132061642Y-134177197D01*
X-131989363Y-134111346D01*
X-131933621Y-134051511D01*
X-131932348Y-134024684D01*
X-131979083Y-134018447D01*
X-132038453Y-134009086D01*
X-132074333Y-133976000D01*
X-132073945Y-133972813D01*
X-132030420Y-133944576D01*
X-131936750Y-133932144D01*
X-131799167Y-133930621D01*
X-131926167Y-133826521D01*
X-131945460Y-133811372D01*
X-132048207Y-133748020D01*
X-132129748Y-133722210D01*
X-132170112Y-133714068D01*
X-132177283Y-133675001D01*
X-132177022Y-133674586D01*
X-132115879Y-133647617D01*
X-132005451Y-133651172D01*
X-131929700Y-133660128D01*
X-131875514Y-133646209D01*
X-131862667Y-133592338D01*
X-131862173Y-133574258D01*
X-131840406Y-133516922D01*
X-131786417Y-133537856D01*
X-131700236Y-133637051D01*
X-131640067Y-133716116D01*
X-131565689Y-133796207D01*
X-131488259Y-133842707D01*
X-131392256Y-133857182D01*
X-131262161Y-133841199D01*
X-131082454Y-133796325D01*
X-130837613Y-133724127D01*
X-130731961Y-133692788D01*
X-130442786Y-133615649D01*
X-130211765Y-133571176D01*
X-130024312Y-133558011D01*
X-129865845Y-133574795D01*
X-129721780Y-133620170D01*
X-129686803Y-133634606D01*
X-129597424Y-133664556D01*
X-129546774Y-133657419D01*
X-129504943Y-133612079D01*
X-129472231Y-133560657D01*
X-129449667Y-133502242D01*
X-129425238Y-133469550D01*
X-129366399Y-133481130D01*
X-129305335Y-133533414D01*
X-129301614Y-133538428D01*
X-129261965Y-133573826D01*
X-129204851Y-133572154D01*
X-129100944Y-133533414D01*
X-128991679Y-133494106D01*
X-128871056Y-133469889D01*
X-128797152Y-133480023D01*
X-128785115Y-133524915D01*
X-128783475Y-133555543D01*
X-128730799Y-133569486D01*
X-128609728Y-133563494D01*
X-128576344Y-133560977D01*
X-128393921Y-133574050D01*
X-128200833Y-133641027D01*
X-127989167Y-133736896D01*
X-128137333Y-133761283D01*
X-128285500Y-133785671D01*
X-128075824Y-133891419D01*
X-127910131Y-133998933D01*
X-127726574Y-134202872D01*
X-127658790Y-134308172D01*
X-127598069Y-134425793D01*
X-127590588Y-134486212D01*
X-127636235Y-134486461D01*
X-127734898Y-134423575D01*
X-127792105Y-134382079D01*
X-128001973Y-134259459D01*
X-128210901Y-134177028D01*
X-128391333Y-134146421D01*
X-128539500Y-134145649D01*
X-128410688Y-134224201D01*
X-128391951Y-134235995D01*
X-128261866Y-134348416D01*
X-128163072Y-134504120D01*
X-128081987Y-134723749D01*
X-128068355Y-134769145D01*
X-128043951Y-134844986D01*
X-128015755Y-134920772D01*
X-127977988Y-135009084D01*
X-127924874Y-135122502D01*
X-127850635Y-135273608D01*
X-127749494Y-135474981D01*
X-127615674Y-135739202D01*
X-127525116Y-135926668D01*
X-127435950Y-136129937D01*
X-127366973Y-136307516D01*
X-127328253Y-136435028D01*
X-127318941Y-136486784D01*
X-127303332Y-136671016D01*
X-127304271Y-136795433D01*
X-127304864Y-136874142D01*
X-127322358Y-137062009D01*
G37*
X-127322358Y-137062009D02*
X-127354638Y-137200463D01*
X-127421893Y-137276870D01*
X-127553530Y-137342842D01*
X-127727028Y-137388157D01*
X-127920751Y-137405000D01*
X-127944825Y-137404896D01*
X-128099586Y-137394022D01*
X-128217317Y-137356522D01*
X-128339500Y-137280014D01*
X-128512038Y-137155029D01*
X-128623893Y-137243015D01*
X-128667336Y-137273098D01*
X-128834476Y-137354218D01*
X-129043832Y-137423353D01*
X-129264111Y-137471340D01*
X-129464021Y-137489016D01*
X-129615285Y-137481206D01*
X-129896801Y-137436336D01*
X-130188915Y-137358081D01*
X-130472590Y-137253846D01*
X-130728787Y-137131038D01*
X-130938470Y-136997063D01*
X-131082602Y-136859327D01*
X-131212705Y-136689409D01*
X-131267604Y-136909621D01*
X-131289037Y-136988833D01*
X-131378170Y-137212799D01*
X-131499239Y-137373724D01*
X-131662618Y-137486767D01*
X-131794330Y-137538798D01*
X-132031673Y-137564762D01*
X-132129644Y-137554911D01*
X-132209211Y-137526104D01*
X-132277281Y-137461106D01*
X-132361024Y-137341500D01*
X-132476747Y-137141588D01*
X-132572932Y-136904470D01*
X-132637005Y-136637588D01*
X-132673026Y-136323434D01*
X-132685055Y-135944500D01*
X-132684946Y-135923333D01*
X-132641698Y-135923333D01*
X-132638463Y-136084274D01*
X-132626457Y-136306443D01*
X-132607805Y-136502428D01*
X-132584815Y-136643000D01*
X-132536718Y-136805906D01*
X-132445723Y-137031015D01*
X-132337581Y-137238099D01*
X-132227846Y-137394416D01*
X-132143389Y-137456561D01*
X-131999091Y-137485882D01*
X-131835598Y-137460931D01*
X-131672383Y-137388225D01*
X-131528920Y-137274280D01*
X-131424680Y-137125613D01*
X-131386740Y-137009292D01*
X-131349463Y-136815276D01*
X-131317701Y-136565071D01*
X-131292972Y-136273477D01*
X-131276795Y-135955291D01*
X-131270689Y-135625310D01*
X-131267036Y-135458856D01*
X-131229414Y-135103707D01*
X-131148571Y-134804942D01*
X-131021422Y-134549232D01*
X-130947665Y-134447510D01*
X-130888656Y-134398349D01*
X-130864920Y-134417202D01*
X-130882904Y-134496859D01*
X-130949059Y-134630113D01*
X-130993352Y-134713229D01*
X-131076429Y-134931567D01*
X-131135852Y-135198449D01*
X-131173777Y-135525326D01*
X-131192356Y-135923653D01*
X-131196240Y-136132698D01*
X-131196103Y-136306133D01*
X-131189176Y-136427548D01*
X-131173439Y-136514293D01*
X-131146873Y-136583718D01*
X-131107460Y-136653174D01*
X-130996474Y-136805708D01*
X-130809678Y-136978351D01*
X-130567714Y-137121096D01*
X-130256117Y-137243980D01*
X-130066483Y-137303108D01*
X-129873252Y-137349242D01*
X-129687495Y-137372472D01*
X-129470833Y-137379419D01*
X-129433265Y-137379497D01*
X-129244710Y-137375211D01*
X-129105761Y-137358803D01*
X-128986448Y-137324826D01*
X-128856805Y-137267836D01*
X-128734040Y-137202305D01*
X-128496998Y-137026078D01*
X-128337943Y-136822318D01*
X-128258496Y-136592856D01*
X-128244265Y-136464343D01*
X-128255847Y-136132423D01*
X-128327935Y-135780205D01*
X-128456618Y-135430637D01*
X-128499618Y-135330677D01*
X-128566707Y-135145801D01*
X-128615281Y-134973464D01*
X-128641814Y-134830064D01*
X-128642779Y-134731999D01*
X-128614651Y-134695666D01*
X-128602516Y-134702111D01*
X-128571422Y-134765801D01*
X-128547457Y-134875583D01*
X-128543316Y-134899895D01*
X-128505849Y-135037474D01*
X-128443842Y-135211248D01*
X-128368333Y-135389546D01*
X-128331934Y-135472680D01*
X-128231625Y-135766987D01*
X-128169059Y-136065076D01*
X-128144828Y-136351341D01*
X-128159522Y-136610178D01*
X-128213731Y-136825980D01*
X-128308046Y-136983142D01*
X-128427804Y-137111344D01*
X-128262134Y-137220980D01*
X-128201812Y-137258824D01*
X-128103293Y-137302649D01*
X-127993129Y-137317734D01*
X-127835346Y-137311727D01*
X-127729616Y-137300309D01*
X-127558803Y-137251306D01*
X-127449847Y-137158714D01*
X-127392204Y-137010700D01*
X-127375333Y-136795433D01*
X-127379392Y-136679485D01*
X-127403609Y-136503099D01*
X-127454112Y-136314762D01*
X-127535996Y-136099800D01*
X-127654356Y-135843541D01*
X-127814287Y-135531310D01*
X-127827253Y-135506660D01*
X-127935394Y-135292034D01*
X-128033310Y-135082967D01*
X-128110687Y-134902269D01*
X-128157215Y-134772748D01*
X-128198114Y-134646039D01*
X-128284199Y-134469562D01*
X-128399040Y-134345203D01*
X-128558794Y-134252010D01*
X-128646306Y-134207554D01*
X-128709382Y-134152975D01*
X-128689824Y-134113899D01*
X-128588083Y-134090817D01*
X-128404608Y-134084220D01*
X-128228320Y-134092417D01*
X-128078377Y-134121582D01*
X-127953638Y-134178042D01*
X-127849228Y-134231460D01*
X-127804725Y-134234425D01*
X-127826230Y-134187095D01*
X-127915083Y-134092446D01*
X-127963960Y-134049331D01*
X-128173334Y-133930773D01*
X-128412757Y-133891333D01*
X-128506607Y-133885169D01*
X-128569685Y-133859092D01*
X-128552123Y-133818304D01*
X-128451921Y-133769044D01*
X-128426346Y-133759034D01*
X-128348683Y-133714576D01*
X-128329674Y-133676688D01*
X-128343758Y-133662434D01*
X-128427372Y-133639233D01*
X-128549796Y-133642947D01*
X-128680977Y-133670764D01*
X-128790859Y-133719868D01*
X-128835127Y-133747169D01*
X-128924866Y-133780975D01*
X-128960634Y-133750732D01*
X-128941097Y-133657001D01*
X-128920130Y-133586286D01*
X-128923650Y-133552666D01*
X-128979135Y-133569106D01*
X-129072878Y-133619248D01*
X-129161941Y-133681042D01*
X-129209881Y-133731692D01*
X-129211269Y-133734860D01*
X-129247676Y-133747462D01*
X-129313286Y-133684750D01*
X-129394828Y-133584000D01*
X-129462230Y-133680231D01*
X-129529633Y-133776461D01*
X-129826575Y-133680982D01*
X-129990540Y-133635963D01*
X-130177195Y-133616700D01*
X-130324452Y-133651314D01*
X-130448785Y-133741404D01*
X-130464257Y-133753808D01*
X-130562372Y-133793029D01*
X-130690940Y-133810886D01*
X-130719004Y-133812032D01*
X-130826053Y-133822693D01*
X-130930698Y-133840155D01*
X-131012577Y-133859796D01*
X-131051326Y-133876990D01*
X-131026583Y-133887113D01*
X-131007409Y-133891534D01*
X-130973667Y-133933666D01*
X-131000248Y-133952681D01*
X-131091501Y-133969539D01*
X-131226193Y-133976000D01*
X-131313439Y-133974716D01*
X-131437162Y-133960459D01*
X-131530311Y-133920954D01*
X-131628360Y-133844614D01*
X-131702142Y-133786226D01*
X-131764910Y-133758594D01*
X-131775468Y-133792673D01*
X-131728908Y-133886423D01*
X-131716130Y-133910872D01*
X-131711634Y-133969663D01*
X-131751955Y-134037292D01*
X-131846154Y-134125660D01*
X-132003297Y-134246665D01*
X-132051553Y-134284224D01*
X-132142327Y-134367344D01*
X-132189365Y-134429205D01*
X-132232013Y-134498744D01*
X-132306894Y-134585712D01*
X-132328849Y-134613248D01*
X-132389837Y-134723046D01*
X-132457848Y-134879294D01*
X-132521835Y-135057735D01*
X-132562929Y-135190794D01*
X-132604502Y-135354166D01*
X-132628664Y-135510324D01*
X-132639651Y-135689852D01*
X-132641698Y-135923333D01*
X-132684946Y-135923333D01*
X-132683740Y-135688178D01*
X-132676239Y-135490362D01*
X-132660295Y-135333594D01*
X-132633665Y-135195949D01*
X-132594106Y-135055500D01*
X-132483300Y-134766676D01*
X-132294580Y-134439093D01*
X-132061642Y-134177197D01*
X-131989363Y-134111346D01*
X-131933621Y-134051511D01*
X-131932348Y-134024684D01*
X-131979083Y-134018447D01*
X-132038453Y-134009086D01*
X-132074333Y-133976000D01*
X-132073945Y-133972813D01*
X-132030420Y-133944576D01*
X-131936750Y-133932144D01*
X-131799167Y-133930621D01*
X-131926167Y-133826521D01*
X-131945460Y-133811372D01*
X-132048207Y-133748020D01*
X-132129748Y-133722210D01*
X-132170112Y-133714068D01*
X-132177283Y-133675001D01*
X-132177022Y-133674586D01*
X-132115879Y-133647617D01*
X-132005451Y-133651172D01*
X-131929700Y-133660128D01*
X-131875514Y-133646209D01*
X-131862667Y-133592338D01*
X-131862173Y-133574258D01*
X-131840406Y-133516922D01*
X-131786417Y-133537856D01*
X-131700236Y-133637051D01*
X-131640067Y-133716116D01*
X-131565689Y-133796207D01*
X-131488259Y-133842707D01*
X-131392256Y-133857182D01*
X-131262161Y-133841199D01*
X-131082454Y-133796325D01*
X-130837613Y-133724127D01*
X-130731961Y-133692788D01*
X-130442786Y-133615649D01*
X-130211765Y-133571176D01*
X-130024312Y-133558011D01*
X-129865845Y-133574795D01*
X-129721780Y-133620170D01*
X-129686803Y-133634606D01*
X-129597424Y-133664556D01*
X-129546774Y-133657419D01*
X-129504943Y-133612079D01*
X-129472231Y-133560657D01*
X-129449667Y-133502242D01*
X-129425238Y-133469550D01*
X-129366399Y-133481130D01*
X-129305335Y-133533414D01*
X-129301614Y-133538428D01*
X-129261965Y-133573826D01*
X-129204851Y-133572154D01*
X-129100944Y-133533414D01*
X-128991679Y-133494106D01*
X-128871056Y-133469889D01*
X-128797152Y-133480023D01*
X-128785115Y-133524915D01*
X-128783475Y-133555543D01*
X-128730799Y-133569486D01*
X-128609728Y-133563494D01*
X-128576344Y-133560977D01*
X-128393921Y-133574050D01*
X-128200833Y-133641027D01*
X-127989167Y-133736896D01*
X-128137333Y-133761283D01*
X-128285500Y-133785671D01*
X-128075824Y-133891419D01*
X-127910131Y-133998933D01*
X-127726574Y-134202872D01*
X-127658790Y-134308172D01*
X-127598069Y-134425793D01*
X-127590588Y-134486212D01*
X-127636235Y-134486461D01*
X-127734898Y-134423575D01*
X-127792105Y-134382079D01*
X-128001973Y-134259459D01*
X-128210901Y-134177028D01*
X-128391333Y-134146421D01*
X-128539500Y-134145649D01*
X-128410688Y-134224201D01*
X-128391951Y-134235995D01*
X-128261866Y-134348416D01*
X-128163072Y-134504120D01*
X-128081987Y-134723749D01*
X-128068355Y-134769145D01*
X-128043951Y-134844986D01*
X-128015755Y-134920772D01*
X-127977988Y-135009084D01*
X-127924874Y-135122502D01*
X-127850635Y-135273608D01*
X-127749494Y-135474981D01*
X-127615674Y-135739202D01*
X-127525116Y-135926668D01*
X-127435950Y-136129937D01*
X-127366973Y-136307516D01*
X-127328253Y-136435028D01*
X-127318941Y-136486784D01*
X-127303332Y-136671016D01*
X-127304271Y-136795433D01*
X-127304864Y-136874142D01*
X-127322358Y-137062009D01*
G36*
X-129963834Y-136788443D02*
G01*
X-129869230Y-136865250D01*
X-129817654Y-136921130D01*
X-129776299Y-136933087D01*
X-129730778Y-136886416D01*
X-129686738Y-136841673D01*
X-129594915Y-136817464D01*
X-129491283Y-136876481D01*
X-129443126Y-136911440D01*
X-129389156Y-136907920D01*
X-129306789Y-136851263D01*
X-129298248Y-136844742D01*
X-129203977Y-136793609D01*
X-129130922Y-136785786D01*
X-129110969Y-136795436D01*
X-129073294Y-136853285D01*
X-129093738Y-136930395D01*
X-129158072Y-137012084D01*
X-129252067Y-137083673D01*
X-129361494Y-137130480D01*
X-129472124Y-137137824D01*
X-129582752Y-137133643D01*
X-129664966Y-137154141D01*
X-129676222Y-137160971D01*
X-129773968Y-137189613D01*
X-129875207Y-137153790D01*
X-129997295Y-137047956D01*
X-130023236Y-137020087D01*
X-130099781Y-136912469D01*
X-130112762Y-136836290D01*
X-130110191Y-136830053D01*
X-130050786Y-136775923D01*
X-129963834Y-136788443D01*
G37*
X-129963834Y-136788443D02*
X-129869230Y-136865250D01*
X-129817654Y-136921130D01*
X-129776299Y-136933087D01*
X-129730778Y-136886416D01*
X-129686738Y-136841673D01*
X-129594915Y-136817464D01*
X-129491283Y-136876481D01*
X-129443126Y-136911440D01*
X-129389156Y-136907920D01*
X-129306789Y-136851263D01*
X-129298248Y-136844742D01*
X-129203977Y-136793609D01*
X-129130922Y-136785786D01*
X-129110969Y-136795436D01*
X-129073294Y-136853285D01*
X-129093738Y-136930395D01*
X-129158072Y-137012084D01*
X-129252067Y-137083673D01*
X-129361494Y-137130480D01*
X-129472124Y-137137824D01*
X-129582752Y-137133643D01*
X-129664966Y-137154141D01*
X-129676222Y-137160971D01*
X-129773968Y-137189613D01*
X-129875207Y-137153790D01*
X-129997295Y-137047956D01*
X-130023236Y-137020087D01*
X-130099781Y-136912469D01*
X-130112762Y-136836290D01*
X-130110191Y-136830053D01*
X-130050786Y-136775923D01*
X-129963834Y-136788443D01*
G36*
X-128762403Y-136092908D02*
G01*
X-128730000Y-136108663D01*
X-128728743Y-136114824D01*
X-128706718Y-136176697D01*
X-128665932Y-136277996D01*
X-128652489Y-136312101D01*
X-128628166Y-136397084D01*
X-128634182Y-136430902D01*
X-128645261Y-136424757D01*
X-128687379Y-136364748D01*
X-128737439Y-136261569D01*
X-128756078Y-136213281D01*
X-128778396Y-136126888D01*
X-128769189Y-136092666D01*
X-128762403Y-136092908D01*
G37*
X-128762403Y-136092908D02*
X-128730000Y-136108663D01*
X-128728743Y-136114824D01*
X-128706718Y-136176697D01*
X-128665932Y-136277996D01*
X-128652489Y-136312101D01*
X-128628166Y-136397084D01*
X-128634182Y-136430902D01*
X-128645261Y-136424757D01*
X-128687379Y-136364748D01*
X-128737439Y-136261569D01*
X-128756078Y-136213281D01*
X-128778396Y-136126888D01*
X-128769189Y-136092666D01*
X-128762403Y-136092908D01*
G36*
X-128846663Y-136175281D02*
G01*
X-128797250Y-136254747D01*
X-128777485Y-136295087D01*
X-128756282Y-136369460D01*
X-128783545Y-136403506D01*
X-128822016Y-136417772D01*
X-128881545Y-136419456D01*
X-128915971Y-136364370D01*
X-128938765Y-136289955D01*
X-128927215Y-136269526D01*
X-128876820Y-136323007D01*
X-128860630Y-136343434D01*
X-128821510Y-136376408D01*
X-128820701Y-136344071D01*
X-128860430Y-136255591D01*
X-128884194Y-136197748D01*
X-128884718Y-136148606D01*
X-128881719Y-136146961D01*
X-128846663Y-136175281D01*
G37*
X-128846663Y-136175281D02*
X-128797250Y-136254747D01*
X-128777485Y-136295087D01*
X-128756282Y-136369460D01*
X-128783545Y-136403506D01*
X-128822016Y-136417772D01*
X-128881545Y-136419456D01*
X-128915971Y-136364370D01*
X-128938765Y-136289955D01*
X-128927215Y-136269526D01*
X-128876820Y-136323007D01*
X-128860630Y-136343434D01*
X-128821510Y-136376408D01*
X-128820701Y-136344071D01*
X-128860430Y-136255591D01*
X-128884194Y-136197748D01*
X-128884718Y-136148606D01*
X-128881719Y-136146961D01*
X-128846663Y-136175281D01*
G36*
X-128490922Y-136106138D02*
G01*
X-128443593Y-136148068D01*
X-128382315Y-136220110D01*
X-128329277Y-136294961D01*
X-128306667Y-136345320D01*
X-128313148Y-136358461D01*
X-128368485Y-136374888D01*
X-128376338Y-136373564D01*
X-128425907Y-136328724D01*
X-128474920Y-136245707D01*
X-128506103Y-136159411D01*
X-128502184Y-136104739D01*
X-128490922Y-136106138D01*
G37*
X-128490922Y-136106138D02*
X-128443593Y-136148068D01*
X-128382315Y-136220110D01*
X-128329277Y-136294961D01*
X-128306667Y-136345320D01*
X-128313148Y-136358461D01*
X-128368485Y-136374888D01*
X-128376338Y-136373564D01*
X-128425907Y-136328724D01*
X-128474920Y-136245707D01*
X-128506103Y-136159411D01*
X-128502184Y-136104739D01*
X-128490922Y-136106138D01*
G36*
X-128580487Y-136196007D02*
G01*
X-128542919Y-136259854D01*
X-128519833Y-136344174D01*
X-128520004Y-136348283D01*
X-128537740Y-136364818D01*
X-128581833Y-136304333D01*
X-128619238Y-136230927D01*
X-128640460Y-136164131D01*
X-128627487Y-136148003D01*
X-128580487Y-136196007D01*
G37*
X-128580487Y-136196007D02*
X-128542919Y-136259854D01*
X-128519833Y-136344174D01*
X-128520004Y-136348283D01*
X-128537740Y-136364818D01*
X-128581833Y-136304333D01*
X-128619238Y-136230927D01*
X-128640460Y-136164131D01*
X-128627487Y-136148003D01*
X-128580487Y-136196007D01*
G36*
X-130256316Y-136240000D02*
G01*
X-130213607Y-136300707D01*
X-130192342Y-136358324D01*
X-130205648Y-136389000D01*
X-130208791Y-136388783D01*
X-130252766Y-136351742D01*
X-130283687Y-136283571D01*
X-130279593Y-136231148D01*
X-130256316Y-136240000D01*
G37*
X-130256316Y-136240000D02*
X-130213607Y-136300707D01*
X-130192342Y-136358324D01*
X-130205648Y-136389000D01*
X-130208791Y-136388783D01*
X-130252766Y-136351742D01*
X-130283687Y-136283571D01*
X-130279593Y-136231148D01*
X-130256316Y-136240000D01*
G36*
X-130507699Y-136071686D02*
G01*
X-130503587Y-136074611D01*
X-130455200Y-136134835D01*
X-130399921Y-136232934D01*
X-130334778Y-136367833D01*
X-130442345Y-136240833D01*
X-130486863Y-136185101D01*
X-130539089Y-136103597D01*
X-130547716Y-136061438D01*
X-130507699Y-136071686D01*
G37*
X-130507699Y-136071686D02*
X-130503587Y-136074611D01*
X-130455200Y-136134835D01*
X-130399921Y-136232934D01*
X-130334778Y-136367833D01*
X-130442345Y-136240833D01*
X-130486863Y-136185101D01*
X-130539089Y-136103597D01*
X-130547716Y-136061438D01*
X-130507699Y-136071686D01*
G36*
X-130627006Y-136131453D02*
G01*
X-130574119Y-136194163D01*
X-130527836Y-136263431D01*
X-130508000Y-136314732D01*
X-130508531Y-136318909D01*
X-130536118Y-136311181D01*
X-130592667Y-136250448D01*
X-130595661Y-136246618D01*
X-130653015Y-136162286D01*
X-130675925Y-136107156D01*
X-130666659Y-136099826D01*
X-130627006Y-136131453D01*
G37*
X-130627006Y-136131453D02*
X-130574119Y-136194163D01*
X-130527836Y-136263431D01*
X-130508000Y-136314732D01*
X-130508531Y-136318909D01*
X-130536118Y-136311181D01*
X-130592667Y-136250448D01*
X-130595661Y-136246618D01*
X-130653015Y-136162286D01*
X-130675925Y-136107156D01*
X-130666659Y-136099826D01*
X-130627006Y-136131453D01*
G36*
X-130803979Y-136113600D02*
G01*
X-130718755Y-136220946D01*
X-130703260Y-136243463D01*
X-130662228Y-136317002D01*
X-130662519Y-136346666D01*
X-130671603Y-136344491D01*
X-130728814Y-136300823D01*
X-130800962Y-136223216D01*
X-130862779Y-136141019D01*
X-130889000Y-136083583D01*
X-130888713Y-136077558D01*
X-130863564Y-136063438D01*
X-130803979Y-136113600D01*
G37*
X-130803979Y-136113600D02*
X-130718755Y-136220946D01*
X-130703260Y-136243463D01*
X-130662228Y-136317002D01*
X-130662519Y-136346666D01*
X-130671603Y-136344491D01*
X-130728814Y-136300823D01*
X-130800962Y-136223216D01*
X-130862779Y-136141019D01*
X-130889000Y-136083583D01*
X-130888713Y-136077558D01*
X-130863564Y-136063438D01*
X-130803979Y-136113600D01*
G36*
X-130960326Y-136118783D02*
G01*
X-130899194Y-136200201D01*
X-130875492Y-136238526D01*
X-130838357Y-136315893D01*
X-130841409Y-136346666D01*
X-130889429Y-136315087D01*
X-130948873Y-136238976D01*
X-130995984Y-136152981D01*
X-131008084Y-136091786D01*
X-131001152Y-136086955D01*
X-130960326Y-136118783D01*
G37*
X-130960326Y-136118783D02*
X-130899194Y-136200201D01*
X-130875492Y-136238526D01*
X-130838357Y-136315893D01*
X-130841409Y-136346666D01*
X-130889429Y-136315087D01*
X-130948873Y-136238976D01*
X-130995984Y-136152981D01*
X-131008084Y-136091786D01*
X-131001152Y-136086955D01*
X-130960326Y-136118783D01*
G36*
X-129385453Y-136184462D02*
G01*
X-129365000Y-136240833D01*
X-129372206Y-136270417D01*
X-129427171Y-136304333D01*
X-129458471Y-136295447D01*
X-129464975Y-136240833D01*
X-129449082Y-136211022D01*
X-129402804Y-136177333D01*
X-129385453Y-136184462D01*
G37*
X-129385453Y-136184462D02*
X-129365000Y-136240833D01*
X-129372206Y-136270417D01*
X-129427171Y-136304333D01*
X-129458471Y-136295447D01*
X-129464975Y-136240833D01*
X-129449082Y-136211022D01*
X-129402804Y-136177333D01*
X-129385453Y-136184462D01*
G36*
X-129723980Y-136199259D02*
G01*
X-129670549Y-136255459D01*
X-129671166Y-136288610D01*
X-129727033Y-136297792D01*
X-129768020Y-136282406D01*
X-129821451Y-136226207D01*
X-129820834Y-136193055D01*
X-129764967Y-136183873D01*
X-129723980Y-136199259D01*
G37*
X-129723980Y-136199259D02*
X-129670549Y-136255459D01*
X-129671166Y-136288610D01*
X-129727033Y-136297792D01*
X-129768020Y-136282406D01*
X-129821451Y-136226207D01*
X-129820834Y-136193055D01*
X-129764967Y-136183873D01*
X-129723980Y-136199259D01*
G36*
X-129403755Y-135194561D02*
G01*
X-129347009Y-135263218D01*
X-129282874Y-135403346D01*
X-129280287Y-135409771D01*
X-129227068Y-135515598D01*
X-129174430Y-135584724D01*
X-129126674Y-135602387D01*
X-129058743Y-135569215D01*
X-129005519Y-135485355D01*
X-128984000Y-135369976D01*
X-128978853Y-135282796D01*
X-128966296Y-135246000D01*
X-128950812Y-135243203D01*
X-128884875Y-135221549D01*
X-128835732Y-135223002D01*
X-128772981Y-135287122D01*
X-128752368Y-135353055D01*
X-128763406Y-135492069D01*
X-128825730Y-135635506D01*
X-128929273Y-135753338D01*
X-128932022Y-135755487D01*
X-129072323Y-135828219D01*
X-129203155Y-135817300D01*
X-129330740Y-135722250D01*
X-129401184Y-135637851D01*
X-129489952Y-135491298D01*
X-129534669Y-135356557D01*
X-129530829Y-135250387D01*
X-129473928Y-135189545D01*
X-129463263Y-135186013D01*
X-129403755Y-135194561D01*
G37*
X-129403755Y-135194561D02*
X-129347009Y-135263218D01*
X-129282874Y-135403346D01*
X-129280287Y-135409771D01*
X-129227068Y-135515598D01*
X-129174430Y-135584724D01*
X-129126674Y-135602387D01*
X-129058743Y-135569215D01*
X-129005519Y-135485355D01*
X-128984000Y-135369976D01*
X-128978853Y-135282796D01*
X-128966296Y-135246000D01*
X-128950812Y-135243203D01*
X-128884875Y-135221549D01*
X-128835732Y-135223002D01*
X-128772981Y-135287122D01*
X-128752368Y-135353055D01*
X-128763406Y-135492069D01*
X-128825730Y-135635506D01*
X-128929273Y-135753338D01*
X-128932022Y-135755487D01*
X-129072323Y-135828219D01*
X-129203155Y-135817300D01*
X-129330740Y-135722250D01*
X-129401184Y-135637851D01*
X-129489952Y-135491298D01*
X-129534669Y-135356557D01*
X-129530829Y-135250387D01*
X-129473928Y-135189545D01*
X-129463263Y-135186013D01*
X-129403755Y-135194561D01*
G36*
X-130523752Y-135238468D02*
G01*
X-130465710Y-135351702D01*
X-130462796Y-135360264D01*
X-130404333Y-135476743D01*
X-130330098Y-135560906D01*
X-130257469Y-135598041D01*
X-130203827Y-135573431D01*
X-130181823Y-135509781D01*
X-130169981Y-135403421D01*
X-130163635Y-135352176D01*
X-130120596Y-135275677D01*
X-130056349Y-135251026D01*
X-129993990Y-135292747D01*
X-129969052Y-135385933D01*
X-129976137Y-135519852D01*
X-130010535Y-135655968D01*
X-130066473Y-135757285D01*
X-130106219Y-135794183D01*
X-130223916Y-135836361D01*
X-130359202Y-135796461D01*
X-130512980Y-135674313D01*
X-130606534Y-135570456D01*
X-130662277Y-135468657D01*
X-130677333Y-135356813D01*
X-130674513Y-135287235D01*
X-130651615Y-135220933D01*
X-130595950Y-135203666D01*
X-130523752Y-135238468D01*
G37*
X-130523752Y-135238468D02*
X-130465710Y-135351702D01*
X-130462796Y-135360264D01*
X-130404333Y-135476743D01*
X-130330098Y-135560906D01*
X-130257469Y-135598041D01*
X-130203827Y-135573431D01*
X-130181823Y-135509781D01*
X-130169981Y-135403421D01*
X-130163635Y-135352176D01*
X-130120596Y-135275677D01*
X-130056349Y-135251026D01*
X-129993990Y-135292747D01*
X-129969052Y-135385933D01*
X-129976137Y-135519852D01*
X-130010535Y-135655968D01*
X-130066473Y-135757285D01*
X-130106219Y-135794183D01*
X-130223916Y-135836361D01*
X-130359202Y-135796461D01*
X-130512980Y-135674313D01*
X-130606534Y-135570456D01*
X-130662277Y-135468657D01*
X-130677333Y-135356813D01*
X-130674513Y-135287235D01*
X-130651615Y-135220933D01*
X-130595950Y-135203666D01*
X-130523752Y-135238468D01*
G36*
X-129984761Y-134674317D02*
G01*
X-129985353Y-134705904D01*
X-130044608Y-134782338D01*
X-130180750Y-134885983D01*
X-130259270Y-134937045D01*
X-130381342Y-134999709D01*
X-130502885Y-135027830D01*
X-130666185Y-135034333D01*
X-130783329Y-135032709D01*
X-130878057Y-135022647D01*
X-130921140Y-134998365D01*
X-130931333Y-134954195D01*
X-130930795Y-134940967D01*
X-130896950Y-134872029D01*
X-130802759Y-134834203D01*
X-130637445Y-134822666D01*
X-130503783Y-134802607D01*
X-130321527Y-134716833D01*
X-130296091Y-134700058D01*
X-130150421Y-134627314D01*
X-130044325Y-134618441D01*
X-129984761Y-134674317D01*
G37*
X-129984761Y-134674317D02*
X-129985353Y-134705904D01*
X-130044608Y-134782338D01*
X-130180750Y-134885983D01*
X-130259270Y-134937045D01*
X-130381342Y-134999709D01*
X-130502885Y-135027830D01*
X-130666185Y-135034333D01*
X-130783329Y-135032709D01*
X-130878057Y-135022647D01*
X-130921140Y-134998365D01*
X-130931333Y-134954195D01*
X-130930795Y-134940967D01*
X-130896950Y-134872029D01*
X-130802759Y-134834203D01*
X-130637445Y-134822666D01*
X-130503783Y-134802607D01*
X-130321527Y-134716833D01*
X-130296091Y-134700058D01*
X-130150421Y-134627314D01*
X-130044325Y-134618441D01*
X-129984761Y-134674317D01*
G36*
X-129559570Y-134524183D02*
G01*
X-129400722Y-134581061D01*
X-129262044Y-134631406D01*
X-129089341Y-134684414D01*
X-128952250Y-134716276D01*
X-128889026Y-134728529D01*
X-128799053Y-134764742D01*
X-128772333Y-134819332D01*
X-128776146Y-134858871D01*
X-128802719Y-134923607D01*
X-128815021Y-134931418D01*
X-128900412Y-134938322D01*
X-129035672Y-134918484D01*
X-129199651Y-134878354D01*
X-129371199Y-134824381D01*
X-129529168Y-134763017D01*
X-129652409Y-134700711D01*
X-129719772Y-134643915D01*
X-129742887Y-134589416D01*
X-129717271Y-134523004D01*
X-129713631Y-134519670D01*
X-129658866Y-134504637D01*
X-129559570Y-134524183D01*
G37*
X-129559570Y-134524183D02*
X-129400722Y-134581061D01*
X-129262044Y-134631406D01*
X-129089341Y-134684414D01*
X-128952250Y-134716276D01*
X-128889026Y-134728529D01*
X-128799053Y-134764742D01*
X-128772333Y-134819332D01*
X-128776146Y-134858871D01*
X-128802719Y-134923607D01*
X-128815021Y-134931418D01*
X-128900412Y-134938322D01*
X-129035672Y-134918484D01*
X-129199651Y-134878354D01*
X-129371199Y-134824381D01*
X-129529168Y-134763017D01*
X-129652409Y-134700711D01*
X-129719772Y-134643915D01*
X-129742887Y-134589416D01*
X-129717271Y-134523004D01*
X-129713631Y-134519670D01*
X-129658866Y-134504637D01*
X-129559570Y-134524183D01*
M02*
