G04 #@! TF.GenerationSoftware,KiCad,Pcbnew,(6.0.5)*
G04 #@! TF.CreationDate,2022-09-16T18:15:02+12:00*
G04 #@! TF.ProjectId,JVCard-panel,4a564361-7264-42d7-9061-6e656c2e6b69,rev?*
G04 #@! TF.SameCoordinates,Original*
G04 #@! TF.FileFunction,Profile,NP*
%FSLAX46Y46*%
G04 Gerber Fmt 4.6, Leading zero omitted, Abs format (unit mm)*
G04 Created by KiCad (PCBNEW (6.0.5)) date 2022-09-16 18:15:02*
%MOMM*%
%LPD*%
G01*
G04 APERTURE LIST*
G04 #@! TA.AperFunction,Profile*
%ADD10C,0.050000*%
G04 #@! TD*
G04 APERTURE END LIST*
D10*
X-119000000Y-141000000D02*
X-96000000Y-141000000D01*
X-120000000Y-140000000D02*
X-120000000Y-139000000D01*
X-143500000Y-27500000D02*
X-158500000Y-27500000D01*
X-142500000Y-28500000D02*
X-143500000Y-27500000D01*
X-142500000Y-74500000D02*
X-142500000Y-28500000D01*
X-143500000Y-75500000D02*
X-142500000Y-74500000D01*
X-158500000Y-75500000D02*
X-143500000Y-75500000D01*
X-159500000Y-74500000D02*
X-158500000Y-75500000D01*
X-159500000Y-28500000D02*
X-159500000Y-74500000D01*
X-158500000Y-27500000D02*
X-159500000Y-28500000D01*
X-166500000Y2500000D02*
X-167500000Y1500000D01*
X-145500000Y-8000000D02*
X-145500000Y1500000D01*
X-167500000Y-140000000D02*
X-166500000Y-141000000D01*
X-144500000Y-9000000D02*
X-145500000Y-8000000D01*
X-141500000Y-152000000D02*
X-123500000Y-152000000D01*
X-142500000Y-142000000D02*
X-142500000Y-151000000D01*
X-167500000Y1500000D02*
X-167500000Y-140000000D01*
X-123500000Y-152000000D02*
X-122500000Y-151000000D01*
X-123500000Y-9000000D02*
X-144500000Y-9000000D01*
X-122500000Y-151000000D02*
X-122500000Y-10000000D01*
X-122500000Y-10000000D02*
X-123500000Y-9000000D01*
X-166500000Y-141000000D02*
X-143500000Y-141000000D01*
X-143500000Y-141000000D02*
X-142500000Y-142000000D01*
X-146500000Y2500000D02*
X-166500000Y2500000D01*
X-145500000Y1500000D02*
X-146500000Y2500000D01*
X-142500000Y-151000000D02*
X-141500000Y-152000000D01*
X-95000000Y-142000000D02*
X-95000000Y-151000000D01*
X-96000000Y-141000000D02*
X-95000000Y-142000000D01*
X-120000000Y-140000000D02*
X-119000000Y-141000000D01*
X-120000000Y1500000D02*
X-120000000Y-139000000D01*
X-119000000Y2500000D02*
X-120000000Y1500000D01*
X-99000000Y2500000D02*
X-119000000Y2500000D01*
X-98000000Y1500000D02*
X-99000000Y2500000D01*
X-98000000Y-9000000D02*
X-98000000Y1500000D01*
X-97000000Y-10000000D02*
X-98000000Y-9000000D01*
X-76000000Y-10000000D02*
X-97000000Y-10000000D01*
X-75000000Y-11000000D02*
X-76000000Y-10000000D01*
X-75000000Y-151000000D02*
X-75000000Y-11000000D01*
X-76000000Y-152000000D02*
X-75000000Y-151000000D01*
X-94000000Y-152000000D02*
X-76000000Y-152000000D01*
X-95000000Y-151000000D02*
X-94000000Y-152000000D01*
M02*
