M48
; DRILL file {KiCad (5.1.5)-2} date 20/05/2020 03:01:27
; FORMAT={-:-/ absolute / inch / decimal}
; #@! TF.CreationDate,2020-05-20T03:01:27+12:00
; #@! TF.GenerationSoftware,Kicad,Pcbnew,(5.1.5)-2
; #@! TF.FileFunction,Plated,1,2,PTH
FMAT,2
INCH
T1C0.0157
T2C0.0350
T3C0.0394
T4C0.0512
T5C0.0787
T6C0.0791
T7C0.1417
%
G90
G05
T1
X-2.3031Y-3.2283
X-2.3031Y-3.9764
X-2.2835Y-0.4724
X-2.2835Y-2.7756
X-2.2835Y-5.4331
X-2.1654Y-2.7756
X-2.1654Y-3.2283
X-2.1654Y-3.9764
X-2.126Y-4.3898
X-2.0472Y-3.2283
X-2.0472Y-3.9567
X-2.0276Y-2.874
X-1.9488Y-4.4094
X-1.9094Y-4.7441
X-1.811Y-4.4291
X-1.6339Y-4.4094
X-1.6339Y-4.7244
X-1.5748Y-0.4528
X-1.5748Y-4.626
X-1.5748Y-5.4331
X-1.4173Y-4.626
X-1.3386Y-1.1614
X-1.3386Y-1.378
X-1.3386Y-1.7913
X-1.3386Y-2.0079
X-1.3386Y-2.4213
X-1.3386Y-2.6378
X-1.3386Y-3.0512
X-1.3386Y-3.2677
X-1.3386Y-3.6811
X-1.3386Y-3.8976
X-1.2402Y-1.4567
X-1.2402Y-2.0866
X-1.2402Y-2.7165
X-1.2402Y-3.3661
X-1.2402Y-3.9961
X-1.2205Y-4.3307
X-1.1417Y-3.0512
X-1.1417Y-3.6811
X-1.063Y-1.1614
X-1.063Y-1.7913
X-1.063Y-2.4213
X-0.9843Y-1.5354
X-0.9843Y-2.1654
X-0.9843Y-2.7953
X-0.9646Y-3.0315
X-0.9646Y-3.3465
X-0.9646Y-3.6614
X-0.9646Y-3.9764
X-0.9252Y-4.5669
X-0.9055Y-3.248
X-0.9055Y-3.878
X-0.9055Y-4.1929
X-0.9055Y-4.311
X-0.8858Y-1.1417
X-0.8858Y-1.4567
X-0.8858Y-1.7717
X-0.8858Y-2.0866
X-0.8858Y-2.4016
X-0.8858Y-2.7165
X-0.8661Y-4.4094
X-0.8465Y-1.0827
X-0.8465Y-1.7126
X-0.8465Y-2.3425
X-0.8465Y-2.9528
X-0.8465Y-3.5827
X-0.8465Y-4.252
X-0.8071Y-1.0039
X-0.8071Y-1.6339
X-0.8071Y-2.2638
X-0.7874Y-1.3583
X-0.7874Y-1.9882
X-0.7874Y-2.6181
X-0.748Y-3.248
X-0.748Y-3.878
X-0.748Y-4.1732
X-0.748Y-4.3307
X-0.6693Y-1.3583
X-0.6693Y-1.9882
X-0.6693Y-2.6181
X-0.5512Y-2.9528
X-0.5512Y-3.5827
X-0.5315Y-4.3504
X-0.4724Y-1.063
X-0.4724Y-1.6929
X-0.4724Y-2.3228
X-0.4134Y-3.0315
X-0.4134Y-3.6614
X-0.4134Y-4.6457
X-0.3937Y-4.4488
X-0.374Y-1.1614
X-0.374Y-3.7992
X-0.3543Y-3.1693
X-0.3346Y-2.5197
X-0.315Y-1.2795
X-0.2362Y-1.3976
X-0.2362Y-1.752
X-0.2362Y-2.1457
X-0.2165Y-2.8346
X-0.1969Y-5.2756
X-0.1772Y-3.4252
X-0.1378Y-4.4291
X-0.1378Y-4.9016
X-0.1181Y-2.9331
X-0.1181Y-5.1575
X-0.0984Y-0.8661
X-0.0787Y-1.4764
X-0.0787Y-1.8307
X-0.0787Y-2.2047
X-0.0787Y-2.5984
X-0.0591Y-3.5039
X-0.0591Y-4.7441
X0.0Y-0.9646
X0.0787Y-1.4961
X0.0787Y-1.9094
X0.0787Y-2.2638
X0.0787Y-2.6575
X0.0787Y-3.1496
X0.0984Y-1.063
X0.1969Y-1.1614
X0.2362Y-1.9882
X0.2362Y-2.3228
X0.2362Y-2.7165
X0.2362Y-3.1496
X0.2559Y-1.4961
X0.2756Y-0.4921
X0.2953Y-1.2598
X0.3543Y-0.6102
X0.3937Y-1.3583
X0.4331Y-0.7283
X0.5118Y-0.8465
X0.5906Y-0.9646
X0.6693Y-1.0827
X1.3976Y-0.4921
X1.3976Y-0.6102
X1.3976Y-0.7283
X1.3976Y-0.8465
X1.3976Y-0.9646
X1.3976Y-1.0827
X1.5157Y-4.7638
X1.5157Y-4.8819
X1.5157Y-5.1575
X1.5157Y-5.2756
X2.7559Y-0.4921
X2.7559Y-0.6102
X2.7559Y-0.7283
X2.7559Y-0.8465
X2.7559Y-0.9646
X2.7559Y-1.0827
X3.0512Y-4.7638
X3.1299Y-4.8819
X3.189Y-5.1575
X3.2677Y-5.2756
X3.5433Y-4.4488
X3.6024Y-1.0827
X3.6417Y-4.7244
X3.6614Y-0.9646
X3.6614Y-4.1732
X3.6811Y-1.1614
X3.6811Y-1.4567
X3.6811Y-2.0472
X3.7205Y-4.8031
X3.7402Y-0.8465
X3.7992Y-1.1024
X3.7992Y-1.4567
X3.7992Y-2.0472
X3.7992Y-3.9173
X3.8189Y-0.7283
X3.8976Y-0.6102
X3.8976Y-4.0945
X3.9173Y-1.0236
X3.9173Y-1.4567
X3.9173Y-1.6535
X3.9173Y-2.0472
X3.937Y-2.1654
X3.937Y-2.3031
X3.937Y-4.4291
X3.9567Y-3.7402
X3.9567Y-3.9173
X3.9764Y-0.4921
X3.9764Y-1.5748
X4.0157Y-4.5079
X4.0354Y-0.9449
X4.0354Y-1.5354
X4.1339Y-4.2323
X4.1535Y-0.8661
X4.1535Y-1.6142
X4.2126Y-4.311
X4.252Y-0.4724
X4.252Y-5.4331
X4.2717Y-0.7874
T2
X-1.6535Y-1.2205
X-1.6535Y-1.3205
X-1.6535Y-2.4803
X-1.6535Y-2.5803
X-1.6535Y-3.1102
X-1.6535Y-3.2102
X-1.6535Y-3.7402
X-1.6535Y-3.8402
X-1.6535Y-1.8504
X-1.6535Y-1.9504
T3
X4.0354Y-1.752
X4.0354Y-1.852
X4.0354Y-1.952
X4.0354Y-2.052
X4.0354Y-2.152
X4.0354Y-2.252
X4.0354Y-2.352
X4.0354Y-2.452
X4.0354Y-2.552
X4.0354Y-2.652
X4.0354Y-2.752
X4.0354Y-2.852
X4.0354Y-2.952
X4.0354Y-3.052
X4.0354Y-3.152
X4.0354Y-3.252
X4.0354Y-3.352
X4.0354Y-3.452
X4.0354Y-3.552
X4.0354Y-3.652
X4.0354Y-3.752
X4.0354Y-3.852
X4.0354Y-3.952
X4.0354Y-4.052
X4.0354Y-4.152
X4.1354Y-1.752
X4.1354Y-1.852
X4.1354Y-1.952
X4.1354Y-2.052
X4.1354Y-2.152
X4.1354Y-2.252
X4.1354Y-2.352
X4.1354Y-2.452
X4.1354Y-2.552
X4.1354Y-2.652
X4.1354Y-2.752
X4.1354Y-2.852
X4.1354Y-2.952
X4.1354Y-3.052
X4.1354Y-3.152
X4.1354Y-3.252
X4.1354Y-3.352
X4.1354Y-3.452
X4.1354Y-3.552
X4.1354Y-3.652
X4.1354Y-3.752
X4.1354Y-3.852
X4.1354Y-3.952
X4.1354Y-4.052
X4.1354Y-4.152
T4
X-2.2205Y-1.3512
X-2.2205Y-1.5012
X-2.2205Y-1.6512
X-2.2205Y-1.8012
X-2.2205Y-1.9512
X-2.2205Y-2.1012
X-2.2205Y-2.2512
X-2.2205Y-2.4012
X-2.2205Y-2.5512
X-2.2205Y-2.7012
X-2.0205Y-1.2762
X-2.0205Y-1.4262
X-2.0205Y-1.5762
X-2.0205Y-1.7262
X-2.0205Y-1.8762
X-2.0205Y-2.0262
X-2.0205Y-2.1762
X-2.0205Y-2.3262
X-2.0205Y-2.4762
X-2.0205Y-2.6262
X-2.0205Y-2.7762
T5
X-2.3287Y-4.3209
X-2.3287Y-4.6555
X-2.3287Y-4.8327
X-2.3287Y-5.1673
T6
X-1.8535Y-1.0205
X-1.8535Y-1.4205
X-1.8535Y-2.2803
X-1.8535Y-2.6803
X-1.8535Y-2.9102
X-1.8535Y-3.3102
X-1.8535Y-3.5402
X-1.8535Y-3.9402
X-1.8535Y-1.6504
X-1.8535Y-2.0504
T7
X-2.3071Y-1.0083
X-2.3071Y-3.0661
T3
G00X-2.0571Y-5.0
M15
G01X-1.998Y-5.0
M16
G05
G00X-2.0571Y-4.4882
M15
G01X-1.998Y-4.4882
M16
G05
T4
G00X-2.2047Y-4.5118
M15
G01X-2.2047Y-4.4646
M16
G05
G00X-2.2047Y-5.0236
M15
G01X-2.2047Y-4.9764
M16
G05
T0
M30
