M48
; DRILL file {KiCad (5.1.8)-1} date 01/21/21 14:16:08
; FORMAT={-:-/ absolute / inch / decimal}
; #@! TF.CreationDate,2021-01-21T14:16:08+13:00
; #@! TF.GenerationSoftware,Kicad,Pcbnew,(5.1.8)-1
; #@! TF.FileFunction,Plated,1,2,PTH
FMAT,2
INCH
T1C0.0157
T2C0.0350
T3C0.0394
T4C0.0512
T5C0.0787
T6C0.0791
T7C0.1417
%
G90
G05
T1
X0.5709Y-3.3465
X0.5709Y-4.0945
X0.5709Y-8.5827
X0.5709Y-9.3307
X0.5906Y-0.5906
X0.5906Y-2.8937
X0.5906Y-5.5512
X0.5906Y-5.8268
X0.5906Y-8.1299
X0.5906Y-10.7874
X0.7087Y-2.8937
X0.7087Y-3.3465
X0.7087Y-4.0945
X0.7087Y-8.1299
X0.7087Y-8.5827
X0.7087Y-9.3307
X0.748Y-4.5079
X0.748Y-9.7441
X0.8268Y-3.3465
X0.8268Y-4.0748
X0.8268Y-8.5827
X0.8268Y-9.311
X0.8465Y-2.9921
X0.8465Y-8.2283
X0.9252Y-4.5276
X0.9252Y-9.7638
X0.9646Y-4.8622
X0.9646Y-10.0984
X1.063Y-4.5472
X1.063Y-9.7835
X1.2402Y-4.5276
X1.2402Y-4.8425
X1.2402Y-9.7638
X1.2402Y-10.0787
X1.2992Y-0.5709
X1.2992Y-4.7441
X1.2992Y-5.5512
X1.2992Y-5.8071
X1.2992Y-9.9803
X1.2992Y-10.7874
X1.4567Y-4.7441
X1.4567Y-9.9803
X1.5354Y-1.2795
X1.5354Y-1.4961
X1.5354Y-1.9094
X1.5354Y-2.126
X1.5354Y-2.5394
X1.5354Y-2.7559
X1.5354Y-3.1693
X1.5354Y-3.3858
X1.5354Y-3.7992
X1.5354Y-4.0157
X1.5354Y-6.5157
X1.5354Y-6.7323
X1.5354Y-7.1457
X1.5354Y-7.3622
X1.5354Y-7.7756
X1.5354Y-7.9921
X1.5354Y-8.4055
X1.5354Y-8.622
X1.5354Y-9.0354
X1.5354Y-9.252
X1.6339Y-1.5748
X1.6339Y-2.2047
X1.6339Y-2.8346
X1.6339Y-3.4843
X1.6339Y-4.1142
X1.6339Y-6.811
X1.6339Y-7.4409
X1.6339Y-8.0709
X1.6339Y-8.7205
X1.6339Y-9.3504
X1.6535Y-4.4488
X1.6535Y-9.685
X1.7323Y-3.1693
X1.7323Y-3.7992
X1.7323Y-8.4055
X1.7323Y-9.0354
X1.811Y-1.2795
X1.811Y-1.9094
X1.811Y-2.5394
X1.811Y-6.5157
X1.811Y-7.1457
X1.811Y-7.7756
X1.8898Y-1.6535
X1.8898Y-2.2835
X1.8898Y-2.9134
X1.8898Y-6.8898
X1.8898Y-7.5197
X1.8898Y-8.1496
X1.9094Y-3.1496
X1.9094Y-3.4646
X1.9094Y-3.7795
X1.9094Y-4.0945
X1.9094Y-8.3858
X1.9094Y-8.7008
X1.9094Y-9.0157
X1.9094Y-9.3307
X1.9488Y-4.685
X1.9488Y-9.9213
X1.9685Y-3.3661
X1.9685Y-3.9961
X1.9685Y-4.311
X1.9685Y-4.4291
X1.9685Y-8.6024
X1.9685Y-9.2323
X1.9685Y-9.5472
X1.9685Y-9.6654
X1.9882Y-1.2598
X1.9882Y-1.5748
X1.9882Y-1.8898
X1.9882Y-2.2047
X1.9882Y-2.5197
X1.9882Y-2.8346
X1.9882Y-6.4961
X1.9882Y-6.811
X1.9882Y-7.126
X1.9882Y-7.4409
X1.9882Y-7.7559
X1.9882Y-8.0709
X2.0079Y-4.5276
X2.0079Y-9.7638
X2.0276Y-1.2008
X2.0276Y-1.8307
X2.0276Y-2.4606
X2.0276Y-3.0709
X2.0276Y-3.7008
X2.0276Y-4.3701
X2.0276Y-6.437
X2.0276Y-7.0669
X2.0276Y-7.6969
X2.0276Y-8.3071
X2.0276Y-8.937
X2.0276Y-9.6063
X2.0669Y-1.122
X2.0669Y-1.752
X2.0669Y-2.3819
X2.0669Y-6.3583
X2.0669Y-6.9882
X2.0669Y-7.6181
X2.0866Y-1.4764
X2.0866Y-2.1063
X2.0866Y-2.7362
X2.0866Y-6.7126
X2.0866Y-7.3425
X2.0866Y-7.9724
X2.126Y-3.3661
X2.126Y-3.9961
X2.126Y-4.2913
X2.126Y-4.4488
X2.126Y-8.6024
X2.126Y-9.2323
X2.126Y-9.5276
X2.126Y-9.685
X2.2047Y-1.4764
X2.2047Y-2.1063
X2.2047Y-2.7362
X2.2047Y-6.7126
X2.2047Y-7.3425
X2.2047Y-7.9724
X2.3228Y-3.0709
X2.3228Y-3.7008
X2.3228Y-8.3071
X2.3228Y-8.937
X2.3425Y-4.4685
X2.3425Y-9.7047
X2.4016Y-1.1811
X2.4016Y-1.811
X2.4016Y-2.4409
X2.4016Y-6.4173
X2.4016Y-7.0472
X2.4016Y-7.6772
X2.4606Y-3.1496
X2.4606Y-3.7795
X2.4606Y-4.7638
X2.4606Y-8.3858
X2.4606Y-9.0157
X2.4606Y-10.0
X2.4803Y-4.5669
X2.4803Y-9.8031
X2.5Y-1.2795
X2.5Y-3.9173
X2.5Y-6.5157
X2.5Y-9.1535
X2.5197Y-3.2874
X2.5197Y-8.5236
X2.5394Y-2.6378
X2.5394Y-7.874
X2.5591Y-1.3976
X2.5591Y-6.6339
X2.6378Y-1.5157
X2.6378Y-1.8701
X2.6378Y-2.2638
X2.6378Y-6.752
X2.6378Y-7.1063
X2.6378Y-7.5
X2.6575Y-2.9528
X2.6575Y-8.189
X2.6772Y-5.3937
X2.6772Y-10.6299
X2.6969Y-3.5433
X2.6969Y-8.7795
X2.7362Y-4.5472
X2.7362Y-5.0197
X2.7362Y-9.7835
X2.7362Y-10.2559
X2.7559Y-3.0512
X2.7559Y-5.2756
X2.7559Y-8.2874
X2.7559Y-10.5118
X2.7756Y-0.9843
X2.7756Y-6.2205
X2.7953Y-1.5945
X2.7953Y-1.9488
X2.7953Y-2.3228
X2.7953Y-2.7165
X2.7953Y-6.8307
X2.7953Y-7.185
X2.7953Y-7.5591
X2.7953Y-7.9528
X2.815Y-3.622
X2.815Y-4.8622
X2.815Y-8.8583
X2.815Y-10.0984
X2.874Y-1.0827
X2.874Y-6.3189
X2.9528Y-1.6142
X2.9528Y-2.0276
X2.9528Y-2.3819
X2.9528Y-2.7756
X2.9528Y-3.2677
X2.9528Y-6.8504
X2.9528Y-7.2638
X2.9528Y-7.6181
X2.9528Y-8.0118
X2.9528Y-8.5039
X2.9724Y-1.1811
X2.9724Y-6.4173
X3.0709Y-1.2795
X3.0709Y-6.5157
X3.1102Y-2.1063
X3.1102Y-2.4409
X3.1102Y-2.8346
X3.1102Y-3.2677
X3.1102Y-7.3425
X3.1102Y-7.6772
X3.1102Y-8.0709
X3.1102Y-8.5039
X3.1299Y-1.6142
X3.1299Y-6.8504
X3.1496Y-0.6102
X3.1496Y-5.8465
X3.1693Y-1.378
X3.1693Y-6.6142
X3.2283Y-0.7283
X3.2283Y-5.9646
X3.2677Y-1.4764
X3.2677Y-6.7126
X3.3071Y-0.8465
X3.3071Y-6.0827
X3.3858Y-0.9646
X3.3858Y-6.2008
X3.4646Y-1.0827
X3.4646Y-6.3189
X3.5433Y-1.2008
X3.5433Y-6.437
X4.2717Y-0.6102
X4.2717Y-0.7283
X4.2717Y-0.8465
X4.2717Y-0.9646
X4.2717Y-1.0827
X4.2717Y-1.2008
X4.2717Y-5.8465
X4.2717Y-5.9646
X4.2717Y-6.0827
X4.2717Y-6.2008
X4.2717Y-6.3189
X4.2717Y-6.437
X4.3898Y-4.8819
X4.3898Y-5.0
X4.3898Y-5.2756
X4.3898Y-5.3937
X4.3898Y-10.1181
X4.3898Y-10.2362
X4.3898Y-10.5118
X4.3898Y-10.6299
X5.6299Y-0.6102
X5.6299Y-0.7283
X5.6299Y-0.8465
X5.6299Y-0.9646
X5.6299Y-1.0827
X5.6299Y-1.2008
X5.6299Y-5.8465
X5.6299Y-5.9646
X5.6299Y-6.0827
X5.6299Y-6.2008
X5.6299Y-6.3189
X5.6299Y-6.437
X5.9252Y-4.8819
X5.9252Y-10.1181
X6.0039Y-5.0
X6.0039Y-10.2362
X6.063Y-5.2756
X6.063Y-10.5118
X6.1417Y-5.3937
X6.1417Y-10.6299
X6.4173Y-4.5669
X6.4173Y-9.8031
X6.4764Y-1.2008
X6.4764Y-6.437
X6.5157Y-4.8425
X6.5157Y-10.0787
X6.5354Y-1.0827
X6.5354Y-4.2913
X6.5354Y-6.3189
X6.5354Y-9.5276
X6.5551Y-1.2795
X6.5551Y-1.5748
X6.5551Y-2.1654
X6.5551Y-6.5157
X6.5551Y-6.811
X6.5551Y-7.4016
X6.5945Y-4.9213
X6.5945Y-10.1575
X6.6142Y-0.9646
X6.6142Y-6.2008
X6.6732Y-1.2205
X6.6732Y-1.5748
X6.6732Y-2.1654
X6.6732Y-4.0354
X6.6732Y-6.4567
X6.6732Y-6.811
X6.6732Y-7.4016
X6.6732Y-9.2717
X6.6929Y-0.8465
X6.6929Y-6.0827
X6.7717Y-0.7283
X6.7717Y-4.2126
X6.7717Y-5.9646
X6.7717Y-9.4488
X6.7913Y-1.1417
X6.7913Y-1.5748
X6.7913Y-1.7717
X6.7913Y-2.1654
X6.7913Y-6.378
X6.7913Y-6.811
X6.7913Y-7.0079
X6.7913Y-7.4016
X6.811Y-2.2835
X6.811Y-2.4213
X6.811Y-4.5472
X6.811Y-7.5197
X6.811Y-7.6575
X6.811Y-9.7835
X6.8307Y-3.8583
X6.8307Y-4.0354
X6.8307Y-9.0945
X6.8307Y-9.2717
X6.8504Y-0.6102
X6.8504Y-1.6929
X6.8504Y-5.8465
X6.8504Y-6.9291
X6.8898Y-4.626
X6.8898Y-9.8622
X6.9094Y-1.063
X6.9094Y-1.6535
X6.9094Y-6.2992
X6.9094Y-6.8898
X7.0079Y-4.3504
X7.0079Y-9.5866
X7.0276Y-0.9843
X7.0276Y-1.7323
X7.0276Y-6.2205
X7.0276Y-6.9685
X7.0866Y-4.4291
X7.0866Y-9.6654
X7.126Y-0.5906
X7.126Y-5.5512
X7.126Y-5.8268
X7.126Y-10.7874
X7.1457Y-0.9055
X7.1457Y-6.1417
T2
X1.2205Y-1.9685
X1.2205Y-2.0685
X1.2205Y-7.8346
X1.2205Y-7.9346
X1.2205Y-3.2283
X1.2205Y-3.3283
X1.2205Y-2.5984
X1.2205Y-2.6984
X1.2205Y-6.5748
X1.2205Y-6.6748
X1.2205Y-7.2047
X1.2205Y-7.3047
X1.2205Y-1.3386
X1.2205Y-1.4386
X1.2205Y-8.4646
X1.2205Y-8.5646
X1.2205Y-3.8583
X1.2205Y-3.9583
X1.2205Y-9.0945
X1.2205Y-9.1945
T3
X6.9094Y-1.8701
X6.9094Y-1.9701
X6.9094Y-2.0701
X6.9094Y-2.1701
X6.9094Y-2.2701
X6.9094Y-2.3701
X6.9094Y-2.4701
X6.9094Y-2.5701
X6.9094Y-2.6701
X6.9094Y-2.7701
X6.9094Y-2.8701
X6.9094Y-2.9701
X6.9094Y-3.0701
X6.9094Y-3.1701
X6.9094Y-3.2701
X6.9094Y-3.3701
X6.9094Y-3.4701
X6.9094Y-3.5701
X6.9094Y-3.6701
X6.9094Y-3.7701
X6.9094Y-3.8701
X6.9094Y-3.9701
X6.9094Y-4.0701
X6.9094Y-4.1701
X6.9094Y-4.2701
X7.0094Y-1.8701
X7.0094Y-1.9701
X7.0094Y-2.0701
X7.0094Y-2.1701
X7.0094Y-2.2701
X7.0094Y-2.3701
X7.0094Y-2.4701
X7.0094Y-2.5701
X7.0094Y-2.6701
X7.0094Y-2.7701
X7.0094Y-2.8701
X7.0094Y-2.9701
X7.0094Y-3.0701
X7.0094Y-3.1701
X7.0094Y-3.2701
X7.0094Y-3.3701
X7.0094Y-3.4701
X7.0094Y-3.5701
X7.0094Y-3.6701
X7.0094Y-3.7701
X7.0094Y-3.8701
X7.0094Y-3.9701
X7.0094Y-4.0701
X7.0094Y-4.1701
X7.0094Y-4.2701
X6.9094Y-7.1063
X6.9094Y-7.2063
X6.9094Y-7.3063
X6.9094Y-7.4063
X6.9094Y-7.5063
X6.9094Y-7.6063
X6.9094Y-7.7063
X6.9094Y-7.8063
X6.9094Y-7.9063
X6.9094Y-8.0063
X6.9094Y-8.1063
X6.9094Y-8.2063
X6.9094Y-8.3063
X6.9094Y-8.4063
X6.9094Y-8.5063
X6.9094Y-8.6063
X6.9094Y-8.7063
X6.9094Y-8.8063
X6.9094Y-8.9063
X6.9094Y-9.0063
X6.9094Y-9.1063
X6.9094Y-9.2063
X6.9094Y-9.3063
X6.9094Y-9.4063
X6.9094Y-9.5063
X7.0094Y-7.1063
X7.0094Y-7.2063
X7.0094Y-7.3063
X7.0094Y-7.4063
X7.0094Y-7.5063
X7.0094Y-7.6063
X7.0094Y-7.7063
X7.0094Y-7.8063
X7.0094Y-7.9063
X7.0094Y-8.0063
X7.0094Y-8.1063
X7.0094Y-8.2063
X7.0094Y-8.3063
X7.0094Y-8.4063
X7.0094Y-8.5063
X7.0094Y-8.6063
X7.0094Y-8.7063
X7.0094Y-8.8063
X7.0094Y-8.9063
X7.0094Y-9.0063
X7.0094Y-9.1063
X7.0094Y-9.2063
X7.0094Y-9.3063
X7.0094Y-9.4063
X7.0094Y-9.5063
T4
X0.6535Y-6.7055
X0.6535Y-6.8555
X0.6535Y-7.0055
X0.6535Y-7.1555
X0.6535Y-7.3055
X0.6535Y-7.4555
X0.6535Y-7.6055
X0.6535Y-7.7555
X0.6535Y-7.9055
X0.6535Y-8.0555
X0.8535Y-6.6305
X0.8535Y-6.7805
X0.8535Y-6.9305
X0.8535Y-7.0805
X0.8535Y-7.2305
X0.8535Y-7.3805
X0.8535Y-7.5305
X0.8535Y-7.6805
X0.8535Y-7.8305
X0.8535Y-7.9805
X0.8535Y-8.1305
X0.6535Y-1.4693
X0.6535Y-1.6193
X0.6535Y-1.7693
X0.6535Y-1.9193
X0.6535Y-2.0693
X0.6535Y-2.2193
X0.6535Y-2.3693
X0.6535Y-2.5193
X0.6535Y-2.6693
X0.6535Y-2.8193
X0.8535Y-1.3943
X0.8535Y-1.5443
X0.8535Y-1.6943
X0.8535Y-1.8443
X0.8535Y-1.9943
X0.8535Y-2.1443
X0.8535Y-2.2943
X0.8535Y-2.4443
X0.8535Y-2.5943
X0.8535Y-2.7443
X0.8535Y-2.8943
T5
X0.5453Y-10.187
X0.5453Y-10.5217
X0.5453Y-4.9508
X0.5453Y-5.2854
X0.5453Y-4.439
X0.5453Y-4.7736
X0.5453Y-9.6752
X0.5453Y-10.0098
T6
X1.0205Y-3.0283
X1.0205Y-3.4283
X1.0205Y-2.3984
X1.0205Y-2.7984
X1.0205Y-6.3748
X1.0205Y-6.7748
X1.0205Y-7.0047
X1.0205Y-7.4047
X1.0205Y-1.1386
X1.0205Y-1.5386
X1.0205Y-8.2646
X1.0205Y-8.6646
X1.0205Y-3.6583
X1.0205Y-4.0583
X1.0205Y-8.8945
X1.0205Y-9.2945
X1.0205Y-1.7685
X1.0205Y-2.1685
X1.0205Y-7.6346
X1.0205Y-8.0346
T7
X0.5669Y-6.3626
X0.5669Y-8.4205
X0.5669Y-1.1264
X0.5669Y-3.1843
T3
G00X0.8169Y-9.8425
M15
G01X0.876Y-9.8425
M16
G05
G00X0.8169Y-10.3543
M15
G01X0.876Y-10.3543
M16
G05
G00X0.8169Y-5.1181
M15
G01X0.876Y-5.1181
M16
G05
G00X0.8169Y-4.6063
M15
G01X0.876Y-4.6063
M16
G05
T4
G00X0.6693Y-9.8661
M15
G01X0.6693Y-9.8189
M16
G05
G00X0.6693Y-10.378
M15
G01X0.6693Y-10.3307
M16
G05
G00X0.6693Y-5.1417
M15
G01X0.6693Y-5.0945
M16
G05
G00X0.6693Y-4.6299
M15
G01X0.6693Y-4.5827
M16
G05
T0
M30
