G04 #@! TF.GenerationSoftware,KiCad,Pcbnew,(5.1.8)-1*
G04 #@! TF.CreationDate,2021-01-21T14:16:06+13:00*
G04 #@! TF.ProjectId,output.JVCardx4,6f757470-7574-42e4-9a56-436172647834,rev?*
G04 #@! TF.SameCoordinates,Original*
G04 #@! TF.FileFunction,Profile,NP*
%FSLAX46Y46*%
G04 Gerber Fmt 4.6, Leading zero omitted, Abs format (unit mm)*
G04 Created by KiCad (PCBNEW (5.1.8)-1) date 2021-01-21 14:16:06*
%MOMM*%
%LPD*%
G01*
G04 APERTURE LIST*
G04 #@! TA.AperFunction,Profile*
%ADD10C,0.050000*%
G04 #@! TD*
G04 #@! TA.AperFunction,Profile*
%ADD11C,0.100000*%
G04 #@! TD*
G04 APERTURE END LIST*
D10*
X183000000Y-275000000D02*
G75*
G02*
X182000000Y-276000000I-1000000J0D01*
G01*
X13000000Y-147000000D02*
G75*
G02*
X14000000Y-146000000I1000000J0D01*
G01*
X14000000Y-276000000D02*
G75*
G02*
X13000000Y-275000000I0J1000000D01*
G01*
X14000000Y-276000000D02*
X182000000Y-276000000D01*
X183000000Y-271000000D02*
X183000000Y-147000000D01*
X13000000Y-147000000D02*
X13000000Y-275000000D01*
X182000000Y-146000000D02*
G75*
G02*
X183000000Y-147000000I0J-1000000D01*
G01*
X183000000Y-275000000D02*
X183000000Y-271000000D01*
X183000000Y-142000000D02*
G75*
G02*
X182000000Y-143000000I-1000000J0D01*
G01*
X14000000Y-143000000D02*
G75*
G02*
X13000000Y-142000000I0J1000000D01*
G01*
X13000000Y-14000000D02*
G75*
G02*
X14000000Y-13000000I1000000J0D01*
G01*
X182000000Y-13000000D02*
G75*
G02*
X183000000Y-14000000I0J-1000000D01*
G01*
X183000000Y-142000000D02*
X183000000Y-138000000D01*
X13000000Y-14000000D02*
X13000000Y-142000000D01*
X182000000Y-13000000D02*
X14000000Y-13000000D01*
X183000000Y-138000000D02*
X183000000Y-14000000D01*
D11*
X95499950Y-146000000D02*
X95599654Y-145992313D01*
X95499950Y-143000000D02*
X95599654Y-143007687D01*
X95599654Y-145992313D02*
X95698472Y-145976985D01*
X95599654Y-143007687D02*
X95698472Y-143023015D01*
X95698472Y-145976985D02*
X95795819Y-145954107D01*
X95698472Y-143023015D02*
X95795819Y-143045893D01*
X95795819Y-145954107D02*
X95891119Y-145923814D01*
X95795819Y-143045893D02*
X95891119Y-143076186D01*
X95891119Y-145923814D02*
X95983809Y-145886285D01*
X95891119Y-143076186D02*
X95983809Y-143113715D01*
X95983809Y-145886285D02*
X96073340Y-145841742D01*
X95983809Y-143113715D02*
X96073340Y-143158258D01*
X96073340Y-145841742D02*
X96159182Y-145790449D01*
X96073340Y-143158258D02*
X96159182Y-143209551D01*
X96159182Y-145790449D02*
X96240827Y-145732709D01*
X96159182Y-143209551D02*
X96240827Y-143267291D01*
X96240827Y-145732709D02*
X96317792Y-145668864D01*
X96240827Y-143267291D02*
X96317792Y-143331136D01*
X96317792Y-145668864D02*
X96389622Y-145599292D01*
X96317792Y-143331136D02*
X96389622Y-143400708D01*
X96389622Y-145599292D02*
X96455892Y-145524405D01*
X96389622Y-143400708D02*
X96455892Y-143475595D01*
X96455892Y-145524405D02*
X96516210Y-145444646D01*
X96455892Y-143475595D02*
X96516210Y-143555354D01*
X96516210Y-145444646D02*
X96570219Y-145360487D01*
X96516210Y-143555354D02*
X96570219Y-143639513D01*
X96570219Y-145360487D02*
X96617599Y-145272426D01*
X96570219Y-143639513D02*
X96617599Y-143727574D01*
X96617599Y-145272426D02*
X96658070Y-145180984D01*
X96617599Y-143727574D02*
X96658070Y-143819016D01*
X96658070Y-145180984D02*
X96691392Y-145086702D01*
X96658070Y-143819016D02*
X96691392Y-143913298D01*
X96691392Y-145086702D02*
X96717368Y-144990138D01*
X96691392Y-143913298D02*
X96717368Y-144009862D01*
X96717368Y-144990138D02*
X96735845Y-144891863D01*
X96717368Y-144009862D02*
X96735845Y-144108137D01*
X96735845Y-144891863D02*
X96746713Y-144792458D01*
X96735845Y-144108137D02*
X96746713Y-144207542D01*
X96746713Y-144792458D02*
X96749908Y-144692512D01*
X96746713Y-144207542D02*
X96749908Y-144307488D01*
X96749908Y-144307488D02*
X96749908Y-144692512D01*
X100500050Y-146000000D02*
X100400346Y-145992313D01*
X100500050Y-143000000D02*
X100400346Y-143007687D01*
X100400346Y-145992313D02*
X100301528Y-145976985D01*
X100400346Y-143007687D02*
X100301528Y-143023015D01*
X100301528Y-145976985D02*
X100204181Y-145954107D01*
X100301528Y-143023015D02*
X100204181Y-143045893D01*
X100204181Y-145954107D02*
X100108881Y-145923814D01*
X100204181Y-143045893D02*
X100108881Y-143076186D01*
X100108881Y-145923814D02*
X100016191Y-145886285D01*
X100108881Y-143076186D02*
X100016191Y-143113715D01*
X100016191Y-145886285D02*
X99926660Y-145841742D01*
X100016191Y-143113715D02*
X99926660Y-143158258D01*
X99926660Y-145841742D02*
X99840818Y-145790449D01*
X99926660Y-143158258D02*
X99840818Y-143209551D01*
X99840818Y-145790449D02*
X99759173Y-145732709D01*
X99840818Y-143209551D02*
X99759173Y-143267291D01*
X99759173Y-145732709D02*
X99682208Y-145668864D01*
X99759173Y-143267291D02*
X99682208Y-143331136D01*
X99682208Y-145668864D02*
X99610378Y-145599292D01*
X99682208Y-143331136D02*
X99610378Y-143400708D01*
X99610378Y-145599292D02*
X99544108Y-145524405D01*
X99610378Y-143400708D02*
X99544108Y-143475595D01*
X99544108Y-145524405D02*
X99483790Y-145444646D01*
X99544108Y-143475595D02*
X99483790Y-143555354D01*
X99483790Y-145444646D02*
X99429781Y-145360487D01*
X99483790Y-143555354D02*
X99429781Y-143639513D01*
X99429781Y-145360487D02*
X99382401Y-145272426D01*
X99429781Y-143639513D02*
X99382401Y-143727574D01*
X99382401Y-145272426D02*
X99341930Y-145180984D01*
X99382401Y-143727574D02*
X99341930Y-143819016D01*
X99341930Y-145180984D02*
X99308608Y-145086702D01*
X99341930Y-143819016D02*
X99308608Y-143913298D01*
X99308608Y-145086702D02*
X99282632Y-144990138D01*
X99308608Y-143913298D02*
X99282632Y-144009862D01*
X99282632Y-144990138D02*
X99264155Y-144891863D01*
X99282632Y-144009862D02*
X99264155Y-144108137D01*
X99264155Y-144891863D02*
X99253287Y-144792458D01*
X99264155Y-144108137D02*
X99253287Y-144207542D01*
X99253287Y-144792458D02*
X99250092Y-144692512D01*
X99253287Y-144207542D02*
X99250092Y-144307488D01*
X99250092Y-144307488D02*
X99250092Y-144692512D01*
X160500002Y-143000000D02*
X100500050Y-143000000D01*
X165500020Y-143000000D02*
X182000000Y-143000000D01*
X160500002Y-146000000D02*
X100500050Y-146000000D01*
X165500020Y-146000000D02*
X182000000Y-146000000D01*
X160500002Y-146000000D02*
X160599706Y-145992313D01*
X160500002Y-143000000D02*
X160599706Y-143007687D01*
X160599706Y-145992313D02*
X160698524Y-145976985D01*
X160599706Y-143007687D02*
X160698524Y-143023015D01*
X160698524Y-145976985D02*
X160795871Y-145954107D01*
X160698524Y-143023015D02*
X160795871Y-143045893D01*
X160795871Y-145954107D02*
X160891171Y-145923814D01*
X160795871Y-143045893D02*
X160891171Y-143076186D01*
X160891171Y-145923814D02*
X160983861Y-145886285D01*
X160891171Y-143076186D02*
X160983861Y-143113715D01*
X160983861Y-145886285D02*
X161073392Y-145841742D01*
X160983861Y-143113715D02*
X161073392Y-143158258D01*
X161073392Y-145841742D02*
X161159234Y-145790449D01*
X161073392Y-143158258D02*
X161159234Y-143209551D01*
X161159234Y-145790449D02*
X161240879Y-145732709D01*
X161159234Y-143209551D02*
X161240879Y-143267291D01*
X161240879Y-145732709D02*
X161317844Y-145668864D01*
X161240879Y-143267291D02*
X161317844Y-143331136D01*
X161317844Y-145668864D02*
X161389674Y-145599292D01*
X161317844Y-143331136D02*
X161389674Y-143400708D01*
X161389674Y-145599292D02*
X161455944Y-145524405D01*
X161389674Y-143400708D02*
X161455944Y-143475595D01*
X161455944Y-145524405D02*
X161516262Y-145444646D01*
X161455944Y-143475595D02*
X161516262Y-143555354D01*
X161516262Y-145444646D02*
X161570271Y-145360487D01*
X161516262Y-143555354D02*
X161570271Y-143639513D01*
X161570271Y-145360487D02*
X161617651Y-145272426D01*
X161570271Y-143639513D02*
X161617651Y-143727574D01*
X161617651Y-145272426D02*
X161658122Y-145180984D01*
X161617651Y-143727574D02*
X161658122Y-143819016D01*
X161658122Y-145180984D02*
X161691444Y-145086702D01*
X161658122Y-143819016D02*
X161691444Y-143913298D01*
X161691444Y-145086702D02*
X161717420Y-144990138D01*
X161691444Y-143913298D02*
X161717420Y-144009862D01*
X161717420Y-144990138D02*
X161735897Y-144891863D01*
X161717420Y-144009862D02*
X161735897Y-144108137D01*
X161735897Y-144891863D02*
X161746765Y-144792458D01*
X161735897Y-144108137D02*
X161746765Y-144207542D01*
X161746765Y-144792458D02*
X161749960Y-144692512D01*
X161746765Y-144207542D02*
X161749960Y-144307488D01*
X161749960Y-144307488D02*
X161749960Y-144692512D01*
X165500020Y-146000000D02*
X165400316Y-145992313D01*
X165500020Y-143000000D02*
X165400316Y-143007687D01*
X165400316Y-145992313D02*
X165301498Y-145976985D01*
X165400316Y-143007687D02*
X165301498Y-143023015D01*
X165301498Y-145976985D02*
X165204151Y-145954107D01*
X165301498Y-143023015D02*
X165204151Y-143045893D01*
X165204151Y-145954107D02*
X165108851Y-145923814D01*
X165204151Y-143045893D02*
X165108851Y-143076186D01*
X165108851Y-145923814D02*
X165016161Y-145886285D01*
X165108851Y-143076186D02*
X165016161Y-143113715D01*
X165016161Y-145886285D02*
X164926630Y-145841742D01*
X165016161Y-143113715D02*
X164926630Y-143158258D01*
X164926630Y-145841742D02*
X164840788Y-145790449D01*
X164926630Y-143158258D02*
X164840788Y-143209551D01*
X164840788Y-145790449D02*
X164759143Y-145732709D01*
X164840788Y-143209551D02*
X164759143Y-143267291D01*
X164759143Y-145732709D02*
X164682178Y-145668864D01*
X164759143Y-143267291D02*
X164682178Y-143331136D01*
X164682178Y-145668864D02*
X164610348Y-145599292D01*
X164682178Y-143331136D02*
X164610348Y-143400708D01*
X164610348Y-145599292D02*
X164544078Y-145524405D01*
X164610348Y-143400708D02*
X164544078Y-143475595D01*
X164544078Y-145524405D02*
X164483760Y-145444646D01*
X164544078Y-143475595D02*
X164483760Y-143555354D01*
X164483760Y-145444646D02*
X164429751Y-145360487D01*
X164483760Y-143555354D02*
X164429751Y-143639513D01*
X164429751Y-145360487D02*
X164382371Y-145272426D01*
X164429751Y-143639513D02*
X164382371Y-143727574D01*
X164382371Y-145272426D02*
X164341900Y-145180984D01*
X164382371Y-143727574D02*
X164341900Y-143819016D01*
X164341900Y-145180984D02*
X164308578Y-145086702D01*
X164341900Y-143819016D02*
X164308578Y-143913298D01*
X164308578Y-145086702D02*
X164282602Y-144990138D01*
X164308578Y-143913298D02*
X164282602Y-144009862D01*
X164282602Y-144990138D02*
X164264125Y-144891863D01*
X164282602Y-144009862D02*
X164264125Y-144108137D01*
X164264125Y-144891863D02*
X164253257Y-144792458D01*
X164264125Y-144108137D02*
X164253257Y-144207542D01*
X164253257Y-144792458D02*
X164250062Y-144692512D01*
X164253257Y-144207542D02*
X164250062Y-144307488D01*
X164250062Y-144307488D02*
X164250062Y-144692512D01*
X35499998Y-143000000D02*
X95499950Y-143000000D01*
X30499980Y-143000000D02*
X14000000Y-143000000D01*
X35499998Y-146000000D02*
X95499950Y-146000000D01*
X30499980Y-146000000D02*
X14000000Y-146000000D01*
X30499980Y-146000000D02*
X30599684Y-145992313D01*
X30499980Y-143000000D02*
X30599684Y-143007687D01*
X30599684Y-145992313D02*
X30698502Y-145976985D01*
X30599684Y-143007687D02*
X30698502Y-143023015D01*
X30698502Y-145976985D02*
X30795849Y-145954107D01*
X30698502Y-143023015D02*
X30795849Y-143045893D01*
X30795849Y-145954107D02*
X30891149Y-145923814D01*
X30795849Y-143045893D02*
X30891149Y-143076186D01*
X30891149Y-145923814D02*
X30983839Y-145886285D01*
X30891149Y-143076186D02*
X30983839Y-143113715D01*
X30983839Y-145886285D02*
X31073370Y-145841742D01*
X30983839Y-143113715D02*
X31073370Y-143158258D01*
X31073370Y-145841742D02*
X31159212Y-145790449D01*
X31073370Y-143158258D02*
X31159212Y-143209551D01*
X31159212Y-145790449D02*
X31240857Y-145732709D01*
X31159212Y-143209551D02*
X31240857Y-143267291D01*
X31240857Y-145732709D02*
X31317822Y-145668864D01*
X31240857Y-143267291D02*
X31317822Y-143331136D01*
X31317822Y-145668864D02*
X31389652Y-145599292D01*
X31317822Y-143331136D02*
X31389652Y-143400708D01*
X31389652Y-145599292D02*
X31455922Y-145524405D01*
X31389652Y-143400708D02*
X31455922Y-143475595D01*
X31455922Y-145524405D02*
X31516240Y-145444646D01*
X31455922Y-143475595D02*
X31516240Y-143555354D01*
X31516240Y-145444646D02*
X31570249Y-145360487D01*
X31516240Y-143555354D02*
X31570249Y-143639513D01*
X31570249Y-145360487D02*
X31617629Y-145272426D01*
X31570249Y-143639513D02*
X31617629Y-143727574D01*
X31617629Y-145272426D02*
X31658100Y-145180984D01*
X31617629Y-143727574D02*
X31658100Y-143819016D01*
X31658100Y-145180984D02*
X31691422Y-145086702D01*
X31658100Y-143819016D02*
X31691422Y-143913298D01*
X31691422Y-145086702D02*
X31717398Y-144990138D01*
X31691422Y-143913298D02*
X31717398Y-144009862D01*
X31717398Y-144990138D02*
X31735875Y-144891863D01*
X31717398Y-144009862D02*
X31735875Y-144108137D01*
X31735875Y-144891863D02*
X31746743Y-144792458D01*
X31735875Y-144108137D02*
X31746743Y-144207542D01*
X31746743Y-144792458D02*
X31749938Y-144692512D01*
X31746743Y-144207542D02*
X31749938Y-144307488D01*
X31749938Y-144307488D02*
X31749938Y-144692512D01*
X35499998Y-146000000D02*
X35400294Y-145992313D01*
X35499998Y-143000000D02*
X35400294Y-143007687D01*
X35400294Y-145992313D02*
X35301476Y-145976985D01*
X35400294Y-143007687D02*
X35301476Y-143023015D01*
X35301476Y-145976985D02*
X35204129Y-145954107D01*
X35301476Y-143023015D02*
X35204129Y-143045893D01*
X35204129Y-145954107D02*
X35108829Y-145923814D01*
X35204129Y-143045893D02*
X35108829Y-143076186D01*
X35108829Y-145923814D02*
X35016139Y-145886285D01*
X35108829Y-143076186D02*
X35016139Y-143113715D01*
X35016139Y-145886285D02*
X34926608Y-145841742D01*
X35016139Y-143113715D02*
X34926608Y-143158258D01*
X34926608Y-145841742D02*
X34840766Y-145790449D01*
X34926608Y-143158258D02*
X34840766Y-143209551D01*
X34840766Y-145790449D02*
X34759121Y-145732709D01*
X34840766Y-143209551D02*
X34759121Y-143267291D01*
X34759121Y-145732709D02*
X34682156Y-145668864D01*
X34759121Y-143267291D02*
X34682156Y-143331136D01*
X34682156Y-145668864D02*
X34610326Y-145599292D01*
X34682156Y-143331136D02*
X34610326Y-143400708D01*
X34610326Y-145599292D02*
X34544056Y-145524405D01*
X34610326Y-143400708D02*
X34544056Y-143475595D01*
X34544056Y-145524405D02*
X34483738Y-145444646D01*
X34544056Y-143475595D02*
X34483738Y-143555354D01*
X34483738Y-145444646D02*
X34429729Y-145360487D01*
X34483738Y-143555354D02*
X34429729Y-143639513D01*
X34429729Y-145360487D02*
X34382349Y-145272426D01*
X34429729Y-143639513D02*
X34382349Y-143727574D01*
X34382349Y-145272426D02*
X34341878Y-145180984D01*
X34382349Y-143727574D02*
X34341878Y-143819016D01*
X34341878Y-145180984D02*
X34308556Y-145086702D01*
X34341878Y-143819016D02*
X34308556Y-143913298D01*
X34308556Y-145086702D02*
X34282580Y-144990138D01*
X34308556Y-143913298D02*
X34282580Y-144009862D01*
X34282580Y-144990138D02*
X34264103Y-144891863D01*
X34282580Y-144009862D02*
X34264103Y-144108137D01*
X34264103Y-144891863D02*
X34253235Y-144792458D01*
X34264103Y-144108137D02*
X34253235Y-144207542D01*
X34253235Y-144792458D02*
X34250040Y-144692512D01*
X34253235Y-144207542D02*
X34250040Y-144307488D01*
X34250040Y-144307488D02*
X34250040Y-144692512D01*
M02*
