M48
; DRILL file {KiCad (5.1.8)-1} date 01/21/21 14:16:08
; FORMAT={-:-/ absolute / inch / decimal}
; #@! TF.CreationDate,2021-01-21T14:16:08+13:00
; #@! TF.GenerationSoftware,Kicad,Pcbnew,(5.1.8)-1
; #@! TF.FileFunction,NonPlated,1,2,NPTH
FMAT,2
INCH
T1C0.0315
T2C0.1260
%
G90
G05
T1
X1.2008Y-5.7657
X1.2402Y-5.7657
X1.2795Y-5.7657
X1.3189Y-5.7657
X1.3583Y-5.7657
X1.3976Y-5.7657
X3.7598Y-5.6122
X3.7992Y-5.6122
X3.8386Y-5.6122
X3.878Y-5.6122
X3.9173Y-5.6122
X3.9567Y-5.6122
X3.7598Y-5.7657
X3.7992Y-5.7657
X3.8386Y-5.7657
X3.878Y-5.7657
X3.9173Y-5.7657
X3.9567Y-5.7657
X6.3189Y-5.6122
X6.3583Y-5.6122
X6.3976Y-5.6122
X6.437Y-5.6122
X6.4764Y-5.6122
X6.5157Y-5.6122
X1.2008Y-5.6122
X1.2402Y-5.6122
X1.2795Y-5.6122
X1.3189Y-5.6122
X1.3583Y-5.6122
X1.3976Y-5.6122
X6.3189Y-5.7657
X6.3583Y-5.7657
X6.3976Y-5.7657
X6.437Y-5.7657
X6.4764Y-5.7657
X6.5157Y-5.7657
T2
X1.2992Y-6.122
X1.2992Y-5.2559
X1.2992Y-10.4921
X1.2992Y-0.8858
T0
M30
