G04 #@! TF.GenerationSoftware,KiCad,Pcbnew,(5.1.5)-2*
G04 #@! TF.CreationDate,2020-03-28T02:41:11+13:00*
G04 #@! TF.ProjectId,JVCard,4a564361-7264-42e6-9b69-6361645f7063,rev?*
G04 #@! TF.SameCoordinates,Original*
G04 #@! TF.FileFunction,Soldermask,Bot*
G04 #@! TF.FilePolarity,Negative*
%FSLAX46Y46*%
G04 Gerber Fmt 4.6, Leading zero omitted, Abs format (unit mm)*
G04 Created by KiCad (PCBNEW (5.1.5)-2) date 2020-03-28 02:41:11*
%MOMM*%
%LPD*%
G04 APERTURE LIST*
%ADD10C,0.100000*%
G04 APERTURE END LIST*
D10*
G36*
X-58925451Y-130121116D02*
G01*
X-58814266Y-130143232D01*
X-58604797Y-130229997D01*
X-58416280Y-130355960D01*
X-58255960Y-130516280D01*
X-58129997Y-130704797D01*
X-58043232Y-130914266D01*
X-57999000Y-131136636D01*
X-57999000Y-131363364D01*
X-58043232Y-131585734D01*
X-58129997Y-131795203D01*
X-58255960Y-131983720D01*
X-58416280Y-132144040D01*
X-58604797Y-132270003D01*
X-58814266Y-132356768D01*
X-58925451Y-132378884D01*
X-59036635Y-132401000D01*
X-59263365Y-132401000D01*
X-59374549Y-132378884D01*
X-59485734Y-132356768D01*
X-59695203Y-132270003D01*
X-59883720Y-132144040D01*
X-60044040Y-131983720D01*
X-60170003Y-131795203D01*
X-60256768Y-131585734D01*
X-60301000Y-131363364D01*
X-60301000Y-131136636D01*
X-60256768Y-130914266D01*
X-60170003Y-130704797D01*
X-60044040Y-130516280D01*
X-59883720Y-130355960D01*
X-59695203Y-130229997D01*
X-59485734Y-130143232D01*
X-59374549Y-130121116D01*
X-59263365Y-130099000D01*
X-59036635Y-130099000D01*
X-58925451Y-130121116D01*
G37*
G36*
X-39624744Y-128891298D02*
G01*
X-39518421Y-128912447D01*
X-39217958Y-129036903D01*
X-38947549Y-129217585D01*
X-38717585Y-129447549D01*
X-38717584Y-129447551D01*
X-38536902Y-129717960D01*
X-38412447Y-130018422D01*
X-38349000Y-130337389D01*
X-38349000Y-130662611D01*
X-38357392Y-130704799D01*
X-38412447Y-130981579D01*
X-38536903Y-131282042D01*
X-38717585Y-131552451D01*
X-38947549Y-131782415D01*
X-39217958Y-131963097D01*
X-39518421Y-132087553D01*
X-39624744Y-132108702D01*
X-39837389Y-132151000D01*
X-40162611Y-132151000D01*
X-40375256Y-132108702D01*
X-40481579Y-132087553D01*
X-40782042Y-131963097D01*
X-41052451Y-131782415D01*
X-41282415Y-131552451D01*
X-41463097Y-131282042D01*
X-41587553Y-130981579D01*
X-41642608Y-130704799D01*
X-41651000Y-130662611D01*
X-41651000Y-130337389D01*
X-41587553Y-130018422D01*
X-41463098Y-129717960D01*
X-41282416Y-129447551D01*
X-41282415Y-129447549D01*
X-41052451Y-129217585D01*
X-40782042Y-129036903D01*
X-40481579Y-128912447D01*
X-40375256Y-128891298D01*
X-40162611Y-128849000D01*
X-39837389Y-128849000D01*
X-39624744Y-128891298D01*
G37*
G36*
X-55697415Y-125478802D02*
G01*
X-55547590Y-125508604D01*
X-55265326Y-125625521D01*
X-55011295Y-125795259D01*
X-54795259Y-126011295D01*
X-54625521Y-126265326D01*
X-54508604Y-126547590D01*
X-54449000Y-126847240D01*
X-54449000Y-127152760D01*
X-54508604Y-127452410D01*
X-54625521Y-127734674D01*
X-54795259Y-127988705D01*
X-55011295Y-128204741D01*
X-55265326Y-128374479D01*
X-55547590Y-128491396D01*
X-55697415Y-128521198D01*
X-55847239Y-128551000D01*
X-56152761Y-128551000D01*
X-56302585Y-128521198D01*
X-56452410Y-128491396D01*
X-56734674Y-128374479D01*
X-56988705Y-128204741D01*
X-57204741Y-127988705D01*
X-57374479Y-127734674D01*
X-57491396Y-127452410D01*
X-57551000Y-127152760D01*
X-57551000Y-126847240D01*
X-57491396Y-126547590D01*
X-57374479Y-126265326D01*
X-57204741Y-126011295D01*
X-56988705Y-125795259D01*
X-56734674Y-125625521D01*
X-56452410Y-125508604D01*
X-56302585Y-125478802D01*
X-56152761Y-125449000D01*
X-55847239Y-125449000D01*
X-55697415Y-125478802D01*
G37*
G36*
X-51197415Y-125478802D02*
G01*
X-51047590Y-125508604D01*
X-50765326Y-125625521D01*
X-50511295Y-125795259D01*
X-50295259Y-126011295D01*
X-50125521Y-126265326D01*
X-50008604Y-126547590D01*
X-49949000Y-126847240D01*
X-49949000Y-127152760D01*
X-50008604Y-127452410D01*
X-50125521Y-127734674D01*
X-50295259Y-127988705D01*
X-50511295Y-128204741D01*
X-50765326Y-128374479D01*
X-51047590Y-128491396D01*
X-51197415Y-128521198D01*
X-51347239Y-128551000D01*
X-51652761Y-128551000D01*
X-51802585Y-128521198D01*
X-51952410Y-128491396D01*
X-52234674Y-128374479D01*
X-52488705Y-128204741D01*
X-52704741Y-127988705D01*
X-52874479Y-127734674D01*
X-52991396Y-127452410D01*
X-53051000Y-127152760D01*
X-53051000Y-126847240D01*
X-52991396Y-126547590D01*
X-52874479Y-126265326D01*
X-52704741Y-126011295D01*
X-52488705Y-125795259D01*
X-52234674Y-125625521D01*
X-51952410Y-125508604D01*
X-51802585Y-125478802D01*
X-51652761Y-125449000D01*
X-51347239Y-125449000D01*
X-51197415Y-125478802D01*
G37*
G36*
X-58925451Y-121621116D02*
G01*
X-58814266Y-121643232D01*
X-58604797Y-121729997D01*
X-58416280Y-121855960D01*
X-58255960Y-122016280D01*
X-58129997Y-122204797D01*
X-58043232Y-122414266D01*
X-57999000Y-122636636D01*
X-57999000Y-122863364D01*
X-58043232Y-123085734D01*
X-58129997Y-123295203D01*
X-58255960Y-123483720D01*
X-58416280Y-123644040D01*
X-58604797Y-123770003D01*
X-58814266Y-123856768D01*
X-58925451Y-123878884D01*
X-59036635Y-123901000D01*
X-59263365Y-123901000D01*
X-59374549Y-123878884D01*
X-59485734Y-123856768D01*
X-59695203Y-123770003D01*
X-59883720Y-123644040D01*
X-60044040Y-123483720D01*
X-60170003Y-123295203D01*
X-60256768Y-123085734D01*
X-60301000Y-122863364D01*
X-60301000Y-122636636D01*
X-60256768Y-122414266D01*
X-60170003Y-122204797D01*
X-60044040Y-122016280D01*
X-59883720Y-121855960D01*
X-59695203Y-121729997D01*
X-59485734Y-121643232D01*
X-59374549Y-121621116D01*
X-59263365Y-121599000D01*
X-59036635Y-121599000D01*
X-58925451Y-121621116D01*
G37*
G36*
X-58925451Y-117121116D02*
G01*
X-58814266Y-117143232D01*
X-58604797Y-117229997D01*
X-58416280Y-117355960D01*
X-58255960Y-117516280D01*
X-58129997Y-117704797D01*
X-58043232Y-117914266D01*
X-57999000Y-118136636D01*
X-57999000Y-118363364D01*
X-58043232Y-118585734D01*
X-58129997Y-118795203D01*
X-58255960Y-118983720D01*
X-58416280Y-119144040D01*
X-58604797Y-119270003D01*
X-58814266Y-119356768D01*
X-58925451Y-119378884D01*
X-59036635Y-119401000D01*
X-59263365Y-119401000D01*
X-59374549Y-119378884D01*
X-59485734Y-119356768D01*
X-59695203Y-119270003D01*
X-59883720Y-119144040D01*
X-60044040Y-118983720D01*
X-60170003Y-118795203D01*
X-60256768Y-118585734D01*
X-60301000Y-118363364D01*
X-60301000Y-118136636D01*
X-60256768Y-117914266D01*
X-60170003Y-117704797D01*
X-60044040Y-117516280D01*
X-59883720Y-117355960D01*
X-59695203Y-117229997D01*
X-59485734Y-117143232D01*
X-59374549Y-117121116D01*
X-59263365Y-117099000D01*
X-59036635Y-117099000D01*
X-58925451Y-117121116D01*
G37*
G36*
X-51197415Y-112478802D02*
G01*
X-51047590Y-112508604D01*
X-50765326Y-112625521D01*
X-50511295Y-112795259D01*
X-50295259Y-113011295D01*
X-50125521Y-113265326D01*
X-50008604Y-113547590D01*
X-49949000Y-113847240D01*
X-49949000Y-114152760D01*
X-50008604Y-114452410D01*
X-50125521Y-114734674D01*
X-50295259Y-114988705D01*
X-50511295Y-115204741D01*
X-50765326Y-115374479D01*
X-51047590Y-115491396D01*
X-51197415Y-115521198D01*
X-51347239Y-115551000D01*
X-51652761Y-115551000D01*
X-51802585Y-115521198D01*
X-51952410Y-115491396D01*
X-52234674Y-115374479D01*
X-52488705Y-115204741D01*
X-52704741Y-114988705D01*
X-52874479Y-114734674D01*
X-52991396Y-114452410D01*
X-53051000Y-114152760D01*
X-53051000Y-113847240D01*
X-52991396Y-113547590D01*
X-52874479Y-113265326D01*
X-52704741Y-113011295D01*
X-52488705Y-112795259D01*
X-52234674Y-112625521D01*
X-51952410Y-112508604D01*
X-51802585Y-112478802D01*
X-51652761Y-112449000D01*
X-51347239Y-112449000D01*
X-51197415Y-112478802D01*
G37*
G36*
X-55697415Y-112478802D02*
G01*
X-55547590Y-112508604D01*
X-55265326Y-112625521D01*
X-55011295Y-112795259D01*
X-54795259Y-113011295D01*
X-54625521Y-113265326D01*
X-54508604Y-113547590D01*
X-54449000Y-113847240D01*
X-54449000Y-114152760D01*
X-54508604Y-114452410D01*
X-54625521Y-114734674D01*
X-54795259Y-114988705D01*
X-55011295Y-115204741D01*
X-55265326Y-115374479D01*
X-55547590Y-115491396D01*
X-55697415Y-115521198D01*
X-55847239Y-115551000D01*
X-56152761Y-115551000D01*
X-56302585Y-115521198D01*
X-56452410Y-115491396D01*
X-56734674Y-115374479D01*
X-56988705Y-115204741D01*
X-57204741Y-114988705D01*
X-57374479Y-114734674D01*
X-57491396Y-114452410D01*
X-57551000Y-114152760D01*
X-57551000Y-113847240D01*
X-57491396Y-113547590D01*
X-57374479Y-113265326D01*
X-57204741Y-113011295D01*
X-56988705Y-112795259D01*
X-56734674Y-112625521D01*
X-56452410Y-112508604D01*
X-56302585Y-112478802D01*
X-56152761Y-112449000D01*
X-55847239Y-112449000D01*
X-55697415Y-112478802D01*
G37*
G36*
X-58925451Y-108621116D02*
G01*
X-58814266Y-108643232D01*
X-58604797Y-108729997D01*
X-58416280Y-108855960D01*
X-58255960Y-109016280D01*
X-58129997Y-109204797D01*
X-58043232Y-109414266D01*
X-57999000Y-109636636D01*
X-57999000Y-109863364D01*
X-58043232Y-110085734D01*
X-58129997Y-110295203D01*
X-58255960Y-110483720D01*
X-58416280Y-110644040D01*
X-58604797Y-110770003D01*
X-58814266Y-110856768D01*
X-58925451Y-110878884D01*
X-59036635Y-110901000D01*
X-59263365Y-110901000D01*
X-59374549Y-110878884D01*
X-59485734Y-110856768D01*
X-59695203Y-110770003D01*
X-59883720Y-110644040D01*
X-60044040Y-110483720D01*
X-60170003Y-110295203D01*
X-60256768Y-110085734D01*
X-60301000Y-109863364D01*
X-60301000Y-109636636D01*
X-60256768Y-109414266D01*
X-60170003Y-109204797D01*
X-60044040Y-109016280D01*
X-59883720Y-108855960D01*
X-59695203Y-108729997D01*
X-59485734Y-108643232D01*
X-59374549Y-108621116D01*
X-59263365Y-108599000D01*
X-59036635Y-108599000D01*
X-58925451Y-108621116D01*
G37*
G36*
X102613512Y-104563927D02*
G01*
X102762812Y-104593624D01*
X102926784Y-104661544D01*
X103074354Y-104760147D01*
X103199853Y-104885646D01*
X103298456Y-105033216D01*
X103366376Y-105197188D01*
X103401000Y-105371259D01*
X103401000Y-105548741D01*
X103366376Y-105722812D01*
X103298456Y-105886784D01*
X103199853Y-106034354D01*
X103074354Y-106159853D01*
X102926784Y-106258456D01*
X102762812Y-106326376D01*
X102613512Y-106356073D01*
X102588742Y-106361000D01*
X102411258Y-106361000D01*
X102386488Y-106356073D01*
X102237188Y-106326376D01*
X102073216Y-106258456D01*
X101925646Y-106159853D01*
X101800147Y-106034354D01*
X101701544Y-105886784D01*
X101633624Y-105722812D01*
X101599000Y-105548741D01*
X101599000Y-105371259D01*
X101633624Y-105197188D01*
X101701544Y-105033216D01*
X101800147Y-104885646D01*
X101925646Y-104760147D01*
X102073216Y-104661544D01*
X102237188Y-104593624D01*
X102386488Y-104563927D01*
X102411258Y-104559000D01*
X102588742Y-104559000D01*
X102613512Y-104563927D01*
G37*
G36*
X105153512Y-104563927D02*
G01*
X105302812Y-104593624D01*
X105466784Y-104661544D01*
X105614354Y-104760147D01*
X105739853Y-104885646D01*
X105838456Y-105033216D01*
X105906376Y-105197188D01*
X105941000Y-105371259D01*
X105941000Y-105548741D01*
X105906376Y-105722812D01*
X105838456Y-105886784D01*
X105739853Y-106034354D01*
X105614354Y-106159853D01*
X105466784Y-106258456D01*
X105302812Y-106326376D01*
X105153512Y-106356073D01*
X105128742Y-106361000D01*
X104951258Y-106361000D01*
X104926488Y-106356073D01*
X104777188Y-106326376D01*
X104613216Y-106258456D01*
X104465646Y-106159853D01*
X104340147Y-106034354D01*
X104241544Y-105886784D01*
X104173624Y-105722812D01*
X104139000Y-105548741D01*
X104139000Y-105371259D01*
X104173624Y-105197188D01*
X104241544Y-105033216D01*
X104340147Y-104885646D01*
X104465646Y-104760147D01*
X104613216Y-104661544D01*
X104777188Y-104593624D01*
X104926488Y-104563927D01*
X104951258Y-104559000D01*
X105128742Y-104559000D01*
X105153512Y-104563927D01*
G37*
G36*
X102613512Y-102023927D02*
G01*
X102762812Y-102053624D01*
X102926784Y-102121544D01*
X103074354Y-102220147D01*
X103199853Y-102345646D01*
X103298456Y-102493216D01*
X103366376Y-102657188D01*
X103401000Y-102831259D01*
X103401000Y-103008741D01*
X103366376Y-103182812D01*
X103298456Y-103346784D01*
X103199853Y-103494354D01*
X103074354Y-103619853D01*
X102926784Y-103718456D01*
X102762812Y-103786376D01*
X102613512Y-103816073D01*
X102588742Y-103821000D01*
X102411258Y-103821000D01*
X102386488Y-103816073D01*
X102237188Y-103786376D01*
X102073216Y-103718456D01*
X101925646Y-103619853D01*
X101800147Y-103494354D01*
X101701544Y-103346784D01*
X101633624Y-103182812D01*
X101599000Y-103008741D01*
X101599000Y-102831259D01*
X101633624Y-102657188D01*
X101701544Y-102493216D01*
X101800147Y-102345646D01*
X101925646Y-102220147D01*
X102073216Y-102121544D01*
X102237188Y-102053624D01*
X102386488Y-102023927D01*
X102411258Y-102019000D01*
X102588742Y-102019000D01*
X102613512Y-102023927D01*
G37*
G36*
X105153512Y-102023927D02*
G01*
X105302812Y-102053624D01*
X105466784Y-102121544D01*
X105614354Y-102220147D01*
X105739853Y-102345646D01*
X105838456Y-102493216D01*
X105906376Y-102657188D01*
X105941000Y-102831259D01*
X105941000Y-103008741D01*
X105906376Y-103182812D01*
X105838456Y-103346784D01*
X105739853Y-103494354D01*
X105614354Y-103619853D01*
X105466784Y-103718456D01*
X105302812Y-103786376D01*
X105153512Y-103816073D01*
X105128742Y-103821000D01*
X104951258Y-103821000D01*
X104926488Y-103816073D01*
X104777188Y-103786376D01*
X104613216Y-103718456D01*
X104465646Y-103619853D01*
X104340147Y-103494354D01*
X104241544Y-103346784D01*
X104173624Y-103182812D01*
X104139000Y-103008741D01*
X104139000Y-102831259D01*
X104173624Y-102657188D01*
X104241544Y-102493216D01*
X104340147Y-102345646D01*
X104465646Y-102220147D01*
X104613216Y-102121544D01*
X104777188Y-102053624D01*
X104926488Y-102023927D01*
X104951258Y-102019000D01*
X105128742Y-102019000D01*
X105153512Y-102023927D01*
G37*
G36*
X-43153331Y-98287686D02*
G01*
X-42976942Y-98305059D01*
X-42637452Y-98408042D01*
X-42637450Y-98408043D01*
X-42324578Y-98575277D01*
X-42324576Y-98575278D01*
X-42324577Y-98575278D01*
X-42050339Y-98800339D01*
X-41825278Y-99074577D01*
X-41658042Y-99387452D01*
X-41555059Y-99726942D01*
X-41520286Y-100080000D01*
X-41555059Y-100433058D01*
X-41658042Y-100772548D01*
X-41658043Y-100772550D01*
X-41825277Y-101085422D01*
X-42050339Y-101359661D01*
X-42324578Y-101584723D01*
X-42637450Y-101751957D01*
X-42637452Y-101751958D01*
X-42976942Y-101854941D01*
X-43153331Y-101872314D01*
X-43241524Y-101881000D01*
X-46918476Y-101881000D01*
X-47006669Y-101872314D01*
X-47183058Y-101854941D01*
X-47522548Y-101751958D01*
X-47522550Y-101751957D01*
X-47835422Y-101584723D01*
X-48109661Y-101359661D01*
X-48334723Y-101085422D01*
X-48501957Y-100772550D01*
X-48501958Y-100772548D01*
X-48604941Y-100433058D01*
X-48639714Y-100080000D01*
X-48604941Y-99726942D01*
X-48501958Y-99387452D01*
X-48334722Y-99074577D01*
X-48109661Y-98800339D01*
X-47835423Y-98575278D01*
X-47835424Y-98575278D01*
X-47835422Y-98575277D01*
X-47522550Y-98408043D01*
X-47522548Y-98408042D01*
X-47183058Y-98305059D01*
X-47006669Y-98287686D01*
X-46918476Y-98279000D01*
X-43241524Y-98279000D01*
X-43153331Y-98287686D01*
G37*
G36*
X102613512Y-99483927D02*
G01*
X102762812Y-99513624D01*
X102926784Y-99581544D01*
X103074354Y-99680147D01*
X103199853Y-99805646D01*
X103298456Y-99953216D01*
X103366376Y-100117188D01*
X103401000Y-100291259D01*
X103401000Y-100468741D01*
X103366376Y-100642812D01*
X103298456Y-100806784D01*
X103199853Y-100954354D01*
X103074354Y-101079853D01*
X102926784Y-101178456D01*
X102762812Y-101246376D01*
X102613512Y-101276073D01*
X102588742Y-101281000D01*
X102411258Y-101281000D01*
X102386488Y-101276073D01*
X102237188Y-101246376D01*
X102073216Y-101178456D01*
X101925646Y-101079853D01*
X101800147Y-100954354D01*
X101701544Y-100806784D01*
X101633624Y-100642812D01*
X101599000Y-100468741D01*
X101599000Y-100291259D01*
X101633624Y-100117188D01*
X101701544Y-99953216D01*
X101800147Y-99805646D01*
X101925646Y-99680147D01*
X102073216Y-99581544D01*
X102237188Y-99513624D01*
X102386488Y-99483927D01*
X102411258Y-99479000D01*
X102588742Y-99479000D01*
X102613512Y-99483927D01*
G37*
G36*
X105153512Y-99483927D02*
G01*
X105302812Y-99513624D01*
X105466784Y-99581544D01*
X105614354Y-99680147D01*
X105739853Y-99805646D01*
X105838456Y-99953216D01*
X105906376Y-100117188D01*
X105941000Y-100291259D01*
X105941000Y-100468741D01*
X105906376Y-100642812D01*
X105838456Y-100806784D01*
X105739853Y-100954354D01*
X105614354Y-101079853D01*
X105466784Y-101178456D01*
X105302812Y-101246376D01*
X105153512Y-101276073D01*
X105128742Y-101281000D01*
X104951258Y-101281000D01*
X104926488Y-101276073D01*
X104777188Y-101246376D01*
X104613216Y-101178456D01*
X104465646Y-101079853D01*
X104340147Y-100954354D01*
X104241544Y-100806784D01*
X104173624Y-100642812D01*
X104139000Y-100468741D01*
X104139000Y-100291259D01*
X104173624Y-100117188D01*
X104241544Y-99953216D01*
X104340147Y-99805646D01*
X104465646Y-99680147D01*
X104613216Y-99581544D01*
X104777188Y-99513624D01*
X104926488Y-99483927D01*
X104951258Y-99479000D01*
X105128742Y-99479000D01*
X105153512Y-99483927D01*
G37*
G36*
X102613512Y-96943927D02*
G01*
X102762812Y-96973624D01*
X102926784Y-97041544D01*
X103074354Y-97140147D01*
X103199853Y-97265646D01*
X103298456Y-97413216D01*
X103366376Y-97577188D01*
X103401000Y-97751259D01*
X103401000Y-97928741D01*
X103366376Y-98102812D01*
X103298456Y-98266784D01*
X103199853Y-98414354D01*
X103074354Y-98539853D01*
X102926784Y-98638456D01*
X102762812Y-98706376D01*
X102613512Y-98736073D01*
X102588742Y-98741000D01*
X102411258Y-98741000D01*
X102386488Y-98736073D01*
X102237188Y-98706376D01*
X102073216Y-98638456D01*
X101925646Y-98539853D01*
X101800147Y-98414354D01*
X101701544Y-98266784D01*
X101633624Y-98102812D01*
X101599000Y-97928741D01*
X101599000Y-97751259D01*
X101633624Y-97577188D01*
X101701544Y-97413216D01*
X101800147Y-97265646D01*
X101925646Y-97140147D01*
X102073216Y-97041544D01*
X102237188Y-96973624D01*
X102386488Y-96943927D01*
X102411258Y-96939000D01*
X102588742Y-96939000D01*
X102613512Y-96943927D01*
G37*
G36*
X105153512Y-96943927D02*
G01*
X105302812Y-96973624D01*
X105466784Y-97041544D01*
X105614354Y-97140147D01*
X105739853Y-97265646D01*
X105838456Y-97413216D01*
X105906376Y-97577188D01*
X105941000Y-97751259D01*
X105941000Y-97928741D01*
X105906376Y-98102812D01*
X105838456Y-98266784D01*
X105739853Y-98414354D01*
X105614354Y-98539853D01*
X105466784Y-98638456D01*
X105302812Y-98706376D01*
X105153512Y-98736073D01*
X105128742Y-98741000D01*
X104951258Y-98741000D01*
X104926488Y-98736073D01*
X104777188Y-98706376D01*
X104613216Y-98638456D01*
X104465646Y-98539853D01*
X104340147Y-98414354D01*
X104241544Y-98266784D01*
X104173624Y-98102812D01*
X104139000Y-97928741D01*
X104139000Y-97751259D01*
X104173624Y-97577188D01*
X104241544Y-97413216D01*
X104340147Y-97265646D01*
X104465646Y-97140147D01*
X104613216Y-97041544D01*
X104777188Y-96973624D01*
X104926488Y-96943927D01*
X104951258Y-96939000D01*
X105128742Y-96939000D01*
X105153512Y-96943927D01*
G37*
G36*
X-39383177Y-96701313D02*
G01*
X-39222758Y-96749976D01*
X-39090094Y-96820886D01*
X-39074922Y-96828996D01*
X-38945341Y-96935341D01*
X-38838996Y-97064922D01*
X-38838995Y-97064924D01*
X-38759976Y-97212758D01*
X-38711313Y-97373177D01*
X-38694883Y-97540000D01*
X-38711313Y-97706823D01*
X-38759976Y-97867242D01*
X-38830886Y-97999906D01*
X-38838996Y-98015078D01*
X-38945341Y-98144659D01*
X-39074922Y-98251004D01*
X-39074924Y-98251005D01*
X-39222758Y-98330024D01*
X-39383177Y-98378687D01*
X-39508196Y-98391000D01*
X-40491804Y-98391000D01*
X-40616823Y-98378687D01*
X-40777242Y-98330024D01*
X-40925076Y-98251005D01*
X-40925078Y-98251004D01*
X-41054659Y-98144659D01*
X-41161004Y-98015078D01*
X-41169114Y-97999906D01*
X-41240024Y-97867242D01*
X-41288687Y-97706823D01*
X-41305117Y-97540000D01*
X-41288687Y-97373177D01*
X-41240024Y-97212758D01*
X-41161005Y-97064924D01*
X-41161004Y-97064922D01*
X-41054659Y-96935341D01*
X-40925078Y-96828996D01*
X-40909906Y-96820886D01*
X-40777242Y-96749976D01*
X-40616823Y-96701313D01*
X-40491804Y-96689000D01*
X-39508196Y-96689000D01*
X-39383177Y-96701313D01*
G37*
G36*
X102613512Y-94403927D02*
G01*
X102762812Y-94433624D01*
X102926784Y-94501544D01*
X103074354Y-94600147D01*
X103199853Y-94725646D01*
X103298456Y-94873216D01*
X103366376Y-95037188D01*
X103401000Y-95211259D01*
X103401000Y-95388741D01*
X103366376Y-95562812D01*
X103298456Y-95726784D01*
X103199853Y-95874354D01*
X103074354Y-95999853D01*
X102926784Y-96098456D01*
X102762812Y-96166376D01*
X102613512Y-96196073D01*
X102588742Y-96201000D01*
X102411258Y-96201000D01*
X102386488Y-96196073D01*
X102237188Y-96166376D01*
X102073216Y-96098456D01*
X101925646Y-95999853D01*
X101800147Y-95874354D01*
X101701544Y-95726784D01*
X101633624Y-95562812D01*
X101599000Y-95388741D01*
X101599000Y-95211259D01*
X101633624Y-95037188D01*
X101701544Y-94873216D01*
X101800147Y-94725646D01*
X101925646Y-94600147D01*
X102073216Y-94501544D01*
X102237188Y-94433624D01*
X102386488Y-94403927D01*
X102411258Y-94399000D01*
X102588742Y-94399000D01*
X102613512Y-94403927D01*
G37*
G36*
X105153512Y-94403927D02*
G01*
X105302812Y-94433624D01*
X105466784Y-94501544D01*
X105614354Y-94600147D01*
X105739853Y-94725646D01*
X105838456Y-94873216D01*
X105906376Y-95037188D01*
X105941000Y-95211259D01*
X105941000Y-95388741D01*
X105906376Y-95562812D01*
X105838456Y-95726784D01*
X105739853Y-95874354D01*
X105614354Y-95999853D01*
X105466784Y-96098456D01*
X105302812Y-96166376D01*
X105153512Y-96196073D01*
X105128742Y-96201000D01*
X104951258Y-96201000D01*
X104926488Y-96196073D01*
X104777188Y-96166376D01*
X104613216Y-96098456D01*
X104465646Y-95999853D01*
X104340147Y-95874354D01*
X104241544Y-95726784D01*
X104173624Y-95562812D01*
X104139000Y-95388741D01*
X104139000Y-95211259D01*
X104173624Y-95037188D01*
X104241544Y-94873216D01*
X104340147Y-94725646D01*
X104465646Y-94600147D01*
X104613216Y-94501544D01*
X104777188Y-94433624D01*
X104926488Y-94403927D01*
X104951258Y-94399000D01*
X105128742Y-94399000D01*
X105153512Y-94403927D01*
G37*
G36*
X-39383177Y-94161313D02*
G01*
X-39222758Y-94209976D01*
X-39090094Y-94280886D01*
X-39074922Y-94288996D01*
X-38945341Y-94395341D01*
X-38838996Y-94524922D01*
X-38838995Y-94524924D01*
X-38759976Y-94672758D01*
X-38711313Y-94833177D01*
X-38694883Y-95000000D01*
X-38711313Y-95166823D01*
X-38759976Y-95327242D01*
X-38830886Y-95459906D01*
X-38838996Y-95475078D01*
X-38945341Y-95604659D01*
X-39074922Y-95711004D01*
X-39074924Y-95711005D01*
X-39222758Y-95790024D01*
X-39383177Y-95838687D01*
X-39508196Y-95851000D01*
X-40491804Y-95851000D01*
X-40616823Y-95838687D01*
X-40777242Y-95790024D01*
X-40925076Y-95711005D01*
X-40925078Y-95711004D01*
X-41054659Y-95604659D01*
X-41161004Y-95475078D01*
X-41169114Y-95459906D01*
X-41240024Y-95327242D01*
X-41288687Y-95166823D01*
X-41305117Y-95000000D01*
X-41288687Y-94833177D01*
X-41240024Y-94672758D01*
X-41161005Y-94524924D01*
X-41161004Y-94524922D01*
X-41054659Y-94395341D01*
X-40925078Y-94288996D01*
X-40909906Y-94280886D01*
X-40777242Y-94209976D01*
X-40616823Y-94161313D01*
X-40491804Y-94149000D01*
X-39508196Y-94149000D01*
X-39383177Y-94161313D01*
G37*
G36*
X102613512Y-91863927D02*
G01*
X102762812Y-91893624D01*
X102926784Y-91961544D01*
X103074354Y-92060147D01*
X103199853Y-92185646D01*
X103298456Y-92333216D01*
X103366376Y-92497188D01*
X103401000Y-92671259D01*
X103401000Y-92848741D01*
X103366376Y-93022812D01*
X103298456Y-93186784D01*
X103199853Y-93334354D01*
X103074354Y-93459853D01*
X102926784Y-93558456D01*
X102762812Y-93626376D01*
X102613512Y-93656073D01*
X102588742Y-93661000D01*
X102411258Y-93661000D01*
X102386488Y-93656073D01*
X102237188Y-93626376D01*
X102073216Y-93558456D01*
X101925646Y-93459853D01*
X101800147Y-93334354D01*
X101701544Y-93186784D01*
X101633624Y-93022812D01*
X101599000Y-92848741D01*
X101599000Y-92671259D01*
X101633624Y-92497188D01*
X101701544Y-92333216D01*
X101800147Y-92185646D01*
X101925646Y-92060147D01*
X102073216Y-91961544D01*
X102237188Y-91893624D01*
X102386488Y-91863927D01*
X102411258Y-91859000D01*
X102588742Y-91859000D01*
X102613512Y-91863927D01*
G37*
G36*
X105153512Y-91863927D02*
G01*
X105302812Y-91893624D01*
X105466784Y-91961544D01*
X105614354Y-92060147D01*
X105739853Y-92185646D01*
X105838456Y-92333216D01*
X105906376Y-92497188D01*
X105941000Y-92671259D01*
X105941000Y-92848741D01*
X105906376Y-93022812D01*
X105838456Y-93186784D01*
X105739853Y-93334354D01*
X105614354Y-93459853D01*
X105466784Y-93558456D01*
X105302812Y-93626376D01*
X105153512Y-93656073D01*
X105128742Y-93661000D01*
X104951258Y-93661000D01*
X104926488Y-93656073D01*
X104777188Y-93626376D01*
X104613216Y-93558456D01*
X104465646Y-93459853D01*
X104340147Y-93334354D01*
X104241544Y-93186784D01*
X104173624Y-93022812D01*
X104139000Y-92848741D01*
X104139000Y-92671259D01*
X104173624Y-92497188D01*
X104241544Y-92333216D01*
X104340147Y-92185646D01*
X104465646Y-92060147D01*
X104613216Y-91961544D01*
X104777188Y-91893624D01*
X104926488Y-91863927D01*
X104951258Y-91859000D01*
X105128742Y-91859000D01*
X105153512Y-91863927D01*
G37*
G36*
X-43153331Y-88127686D02*
G01*
X-42976942Y-88145059D01*
X-42637452Y-88248042D01*
X-42637450Y-88248043D01*
X-42324578Y-88415277D01*
X-42324576Y-88415278D01*
X-42324577Y-88415278D01*
X-42050339Y-88640339D01*
X-41825278Y-88914577D01*
X-41658042Y-89227452D01*
X-41555059Y-89566942D01*
X-41520286Y-89920000D01*
X-41555059Y-90273058D01*
X-41658042Y-90612548D01*
X-41658043Y-90612550D01*
X-41825277Y-90925422D01*
X-42050339Y-91199661D01*
X-42324578Y-91424723D01*
X-42637450Y-91591957D01*
X-42637452Y-91591958D01*
X-42976942Y-91694941D01*
X-43153331Y-91712314D01*
X-43241524Y-91721000D01*
X-46918476Y-91721000D01*
X-47006669Y-91712314D01*
X-47183058Y-91694941D01*
X-47522548Y-91591958D01*
X-47522550Y-91591957D01*
X-47835422Y-91424723D01*
X-48109661Y-91199661D01*
X-48334723Y-90925422D01*
X-48501957Y-90612550D01*
X-48501958Y-90612548D01*
X-48604941Y-90273058D01*
X-48639714Y-89920000D01*
X-48604941Y-89566942D01*
X-48501958Y-89227452D01*
X-48334722Y-88914577D01*
X-48109661Y-88640339D01*
X-47835423Y-88415278D01*
X-47835424Y-88415278D01*
X-47835422Y-88415277D01*
X-47522550Y-88248043D01*
X-47522548Y-88248042D01*
X-47183058Y-88145059D01*
X-47006669Y-88127686D01*
X-46918476Y-88119000D01*
X-43241524Y-88119000D01*
X-43153331Y-88127686D01*
G37*
G36*
X102613512Y-89323927D02*
G01*
X102762812Y-89353624D01*
X102926784Y-89421544D01*
X103074354Y-89520147D01*
X103199853Y-89645646D01*
X103298456Y-89793216D01*
X103366376Y-89957188D01*
X103401000Y-90131259D01*
X103401000Y-90308741D01*
X103366376Y-90482812D01*
X103298456Y-90646784D01*
X103199853Y-90794354D01*
X103074354Y-90919853D01*
X102926784Y-91018456D01*
X102762812Y-91086376D01*
X102613512Y-91116073D01*
X102588742Y-91121000D01*
X102411258Y-91121000D01*
X102386488Y-91116073D01*
X102237188Y-91086376D01*
X102073216Y-91018456D01*
X101925646Y-90919853D01*
X101800147Y-90794354D01*
X101701544Y-90646784D01*
X101633624Y-90482812D01*
X101599000Y-90308741D01*
X101599000Y-90131259D01*
X101633624Y-89957188D01*
X101701544Y-89793216D01*
X101800147Y-89645646D01*
X101925646Y-89520147D01*
X102073216Y-89421544D01*
X102237188Y-89353624D01*
X102386488Y-89323927D01*
X102411258Y-89319000D01*
X102588742Y-89319000D01*
X102613512Y-89323927D01*
G37*
G36*
X105153512Y-89323927D02*
G01*
X105302812Y-89353624D01*
X105466784Y-89421544D01*
X105614354Y-89520147D01*
X105739853Y-89645646D01*
X105838456Y-89793216D01*
X105906376Y-89957188D01*
X105941000Y-90131259D01*
X105941000Y-90308741D01*
X105906376Y-90482812D01*
X105838456Y-90646784D01*
X105739853Y-90794354D01*
X105614354Y-90919853D01*
X105466784Y-91018456D01*
X105302812Y-91086376D01*
X105153512Y-91116073D01*
X105128742Y-91121000D01*
X104951258Y-91121000D01*
X104926488Y-91116073D01*
X104777188Y-91086376D01*
X104613216Y-91018456D01*
X104465646Y-90919853D01*
X104340147Y-90794354D01*
X104241544Y-90646784D01*
X104173624Y-90482812D01*
X104139000Y-90308741D01*
X104139000Y-90131259D01*
X104173624Y-89957188D01*
X104241544Y-89793216D01*
X104340147Y-89645646D01*
X104465646Y-89520147D01*
X104613216Y-89421544D01*
X104777188Y-89353624D01*
X104926488Y-89323927D01*
X104951258Y-89319000D01*
X105128742Y-89319000D01*
X105153512Y-89323927D01*
G37*
G36*
X102613512Y-86783927D02*
G01*
X102762812Y-86813624D01*
X102926784Y-86881544D01*
X103074354Y-86980147D01*
X103199853Y-87105646D01*
X103298456Y-87253216D01*
X103366376Y-87417188D01*
X103401000Y-87591259D01*
X103401000Y-87768741D01*
X103366376Y-87942812D01*
X103298456Y-88106784D01*
X103199853Y-88254354D01*
X103074354Y-88379853D01*
X102926784Y-88478456D01*
X102762812Y-88546376D01*
X102613512Y-88576073D01*
X102588742Y-88581000D01*
X102411258Y-88581000D01*
X102386488Y-88576073D01*
X102237188Y-88546376D01*
X102073216Y-88478456D01*
X101925646Y-88379853D01*
X101800147Y-88254354D01*
X101701544Y-88106784D01*
X101633624Y-87942812D01*
X101599000Y-87768741D01*
X101599000Y-87591259D01*
X101633624Y-87417188D01*
X101701544Y-87253216D01*
X101800147Y-87105646D01*
X101925646Y-86980147D01*
X102073216Y-86881544D01*
X102237188Y-86813624D01*
X102386488Y-86783927D01*
X102411258Y-86779000D01*
X102588742Y-86779000D01*
X102613512Y-86783927D01*
G37*
G36*
X105153512Y-86783927D02*
G01*
X105302812Y-86813624D01*
X105466784Y-86881544D01*
X105614354Y-86980147D01*
X105739853Y-87105646D01*
X105838456Y-87253216D01*
X105906376Y-87417188D01*
X105941000Y-87591259D01*
X105941000Y-87768741D01*
X105906376Y-87942812D01*
X105838456Y-88106784D01*
X105739853Y-88254354D01*
X105614354Y-88379853D01*
X105466784Y-88478456D01*
X105302812Y-88546376D01*
X105153512Y-88576073D01*
X105128742Y-88581000D01*
X104951258Y-88581000D01*
X104926488Y-88576073D01*
X104777188Y-88546376D01*
X104613216Y-88478456D01*
X104465646Y-88379853D01*
X104340147Y-88254354D01*
X104241544Y-88106784D01*
X104173624Y-87942812D01*
X104139000Y-87768741D01*
X104139000Y-87591259D01*
X104173624Y-87417188D01*
X104241544Y-87253216D01*
X104340147Y-87105646D01*
X104465646Y-86980147D01*
X104613216Y-86881544D01*
X104777188Y-86813624D01*
X104926488Y-86783927D01*
X104951258Y-86779000D01*
X105128742Y-86779000D01*
X105153512Y-86783927D01*
G37*
G36*
X102613512Y-84243927D02*
G01*
X102762812Y-84273624D01*
X102926784Y-84341544D01*
X103074354Y-84440147D01*
X103199853Y-84565646D01*
X103298456Y-84713216D01*
X103366376Y-84877188D01*
X103401000Y-85051259D01*
X103401000Y-85228741D01*
X103366376Y-85402812D01*
X103298456Y-85566784D01*
X103199853Y-85714354D01*
X103074354Y-85839853D01*
X102926784Y-85938456D01*
X102762812Y-86006376D01*
X102613512Y-86036073D01*
X102588742Y-86041000D01*
X102411258Y-86041000D01*
X102386488Y-86036073D01*
X102237188Y-86006376D01*
X102073216Y-85938456D01*
X101925646Y-85839853D01*
X101800147Y-85714354D01*
X101701544Y-85566784D01*
X101633624Y-85402812D01*
X101599000Y-85228741D01*
X101599000Y-85051259D01*
X101633624Y-84877188D01*
X101701544Y-84713216D01*
X101800147Y-84565646D01*
X101925646Y-84440147D01*
X102073216Y-84341544D01*
X102237188Y-84273624D01*
X102386488Y-84243927D01*
X102411258Y-84239000D01*
X102588742Y-84239000D01*
X102613512Y-84243927D01*
G37*
G36*
X105153512Y-84243927D02*
G01*
X105302812Y-84273624D01*
X105466784Y-84341544D01*
X105614354Y-84440147D01*
X105739853Y-84565646D01*
X105838456Y-84713216D01*
X105906376Y-84877188D01*
X105941000Y-85051259D01*
X105941000Y-85228741D01*
X105906376Y-85402812D01*
X105838456Y-85566784D01*
X105739853Y-85714354D01*
X105614354Y-85839853D01*
X105466784Y-85938456D01*
X105302812Y-86006376D01*
X105153512Y-86036073D01*
X105128742Y-86041000D01*
X104951258Y-86041000D01*
X104926488Y-86036073D01*
X104777188Y-86006376D01*
X104613216Y-85938456D01*
X104465646Y-85839853D01*
X104340147Y-85714354D01*
X104241544Y-85566784D01*
X104173624Y-85402812D01*
X104139000Y-85228741D01*
X104139000Y-85051259D01*
X104173624Y-84877188D01*
X104241544Y-84713216D01*
X104340147Y-84565646D01*
X104465646Y-84440147D01*
X104613216Y-84341544D01*
X104777188Y-84273624D01*
X104926488Y-84243927D01*
X104951258Y-84239000D01*
X105128742Y-84239000D01*
X105153512Y-84243927D01*
G37*
G36*
X-43153331Y-82287686D02*
G01*
X-42976942Y-82305059D01*
X-42637452Y-82408042D01*
X-42637450Y-82408043D01*
X-42324578Y-82575277D01*
X-42050339Y-82800339D01*
X-41825277Y-83074578D01*
X-41704865Y-83299852D01*
X-41658042Y-83387452D01*
X-41555059Y-83726942D01*
X-41520286Y-84080000D01*
X-41555059Y-84433058D01*
X-41658042Y-84772548D01*
X-41658043Y-84772550D01*
X-41825277Y-85085422D01*
X-42050339Y-85359661D01*
X-42324578Y-85584723D01*
X-42567098Y-85714353D01*
X-42637452Y-85751958D01*
X-42976942Y-85854941D01*
X-43153331Y-85872314D01*
X-43241524Y-85881000D01*
X-46918476Y-85881000D01*
X-47006669Y-85872314D01*
X-47183058Y-85854941D01*
X-47522548Y-85751958D01*
X-47592902Y-85714353D01*
X-47835422Y-85584723D01*
X-48109661Y-85359661D01*
X-48334723Y-85085422D01*
X-48501957Y-84772550D01*
X-48501958Y-84772548D01*
X-48604941Y-84433058D01*
X-48639714Y-84080000D01*
X-48604941Y-83726942D01*
X-48501958Y-83387452D01*
X-48455135Y-83299852D01*
X-48334723Y-83074578D01*
X-48109661Y-82800339D01*
X-47835422Y-82575277D01*
X-47522550Y-82408043D01*
X-47522548Y-82408042D01*
X-47183058Y-82305059D01*
X-47006669Y-82287686D01*
X-46918476Y-82279000D01*
X-43241524Y-82279000D01*
X-43153331Y-82287686D01*
G37*
G36*
X102613512Y-81703927D02*
G01*
X102762812Y-81733624D01*
X102926784Y-81801544D01*
X103074354Y-81900147D01*
X103199853Y-82025646D01*
X103298456Y-82173216D01*
X103366376Y-82337188D01*
X103401000Y-82511259D01*
X103401000Y-82688741D01*
X103366376Y-82862812D01*
X103298456Y-83026784D01*
X103199853Y-83174354D01*
X103074354Y-83299853D01*
X102926784Y-83398456D01*
X102762812Y-83466376D01*
X102613512Y-83496073D01*
X102588742Y-83501000D01*
X102411258Y-83501000D01*
X102386488Y-83496073D01*
X102237188Y-83466376D01*
X102073216Y-83398456D01*
X101925646Y-83299853D01*
X101800147Y-83174354D01*
X101701544Y-83026784D01*
X101633624Y-82862812D01*
X101599000Y-82688741D01*
X101599000Y-82511259D01*
X101633624Y-82337188D01*
X101701544Y-82173216D01*
X101800147Y-82025646D01*
X101925646Y-81900147D01*
X102073216Y-81801544D01*
X102237188Y-81733624D01*
X102386488Y-81703927D01*
X102411258Y-81699000D01*
X102588742Y-81699000D01*
X102613512Y-81703927D01*
G37*
G36*
X105153512Y-81703927D02*
G01*
X105302812Y-81733624D01*
X105466784Y-81801544D01*
X105614354Y-81900147D01*
X105739853Y-82025646D01*
X105838456Y-82173216D01*
X105906376Y-82337188D01*
X105941000Y-82511259D01*
X105941000Y-82688741D01*
X105906376Y-82862812D01*
X105838456Y-83026784D01*
X105739853Y-83174354D01*
X105614354Y-83299853D01*
X105466784Y-83398456D01*
X105302812Y-83466376D01*
X105153512Y-83496073D01*
X105128742Y-83501000D01*
X104951258Y-83501000D01*
X104926488Y-83496073D01*
X104777188Y-83466376D01*
X104613216Y-83398456D01*
X104465646Y-83299853D01*
X104340147Y-83174354D01*
X104241544Y-83026784D01*
X104173624Y-82862812D01*
X104139000Y-82688741D01*
X104139000Y-82511259D01*
X104173624Y-82337188D01*
X104241544Y-82173216D01*
X104340147Y-82025646D01*
X104465646Y-81900147D01*
X104613216Y-81801544D01*
X104777188Y-81733624D01*
X104926488Y-81703927D01*
X104951258Y-81699000D01*
X105128742Y-81699000D01*
X105153512Y-81703927D01*
G37*
G36*
X-39383177Y-80701313D02*
G01*
X-39222758Y-80749976D01*
X-39090094Y-80820886D01*
X-39074922Y-80828996D01*
X-38945341Y-80935341D01*
X-38838996Y-81064922D01*
X-38838995Y-81064924D01*
X-38759976Y-81212758D01*
X-38711313Y-81373177D01*
X-38694883Y-81540000D01*
X-38711313Y-81706823D01*
X-38759976Y-81867242D01*
X-38777565Y-81900148D01*
X-38838996Y-82015078D01*
X-38945341Y-82144659D01*
X-39074922Y-82251004D01*
X-39074924Y-82251005D01*
X-39222758Y-82330024D01*
X-39383177Y-82378687D01*
X-39508196Y-82391000D01*
X-40491804Y-82391000D01*
X-40616823Y-82378687D01*
X-40777242Y-82330024D01*
X-40925076Y-82251005D01*
X-40925078Y-82251004D01*
X-41054659Y-82144659D01*
X-41161004Y-82015078D01*
X-41222435Y-81900148D01*
X-41240024Y-81867242D01*
X-41288687Y-81706823D01*
X-41305117Y-81540000D01*
X-41288687Y-81373177D01*
X-41240024Y-81212758D01*
X-41161005Y-81064924D01*
X-41161004Y-81064922D01*
X-41054659Y-80935341D01*
X-40925078Y-80828996D01*
X-40909906Y-80820886D01*
X-40777242Y-80749976D01*
X-40616823Y-80701313D01*
X-40491804Y-80689000D01*
X-39508196Y-80689000D01*
X-39383177Y-80701313D01*
G37*
G36*
X102613512Y-79163927D02*
G01*
X102762812Y-79193624D01*
X102926784Y-79261544D01*
X103074354Y-79360147D01*
X103199853Y-79485646D01*
X103298456Y-79633216D01*
X103366376Y-79797188D01*
X103401000Y-79971259D01*
X103401000Y-80148741D01*
X103366376Y-80322812D01*
X103298456Y-80486784D01*
X103199853Y-80634354D01*
X103074354Y-80759853D01*
X102926784Y-80858456D01*
X102762812Y-80926376D01*
X102613512Y-80956073D01*
X102588742Y-80961000D01*
X102411258Y-80961000D01*
X102386488Y-80956073D01*
X102237188Y-80926376D01*
X102073216Y-80858456D01*
X101925646Y-80759853D01*
X101800147Y-80634354D01*
X101701544Y-80486784D01*
X101633624Y-80322812D01*
X101599000Y-80148741D01*
X101599000Y-79971259D01*
X101633624Y-79797188D01*
X101701544Y-79633216D01*
X101800147Y-79485646D01*
X101925646Y-79360147D01*
X102073216Y-79261544D01*
X102237188Y-79193624D01*
X102386488Y-79163927D01*
X102411258Y-79159000D01*
X102588742Y-79159000D01*
X102613512Y-79163927D01*
G37*
G36*
X105153512Y-79163927D02*
G01*
X105302812Y-79193624D01*
X105466784Y-79261544D01*
X105614354Y-79360147D01*
X105739853Y-79485646D01*
X105838456Y-79633216D01*
X105906376Y-79797188D01*
X105941000Y-79971259D01*
X105941000Y-80148741D01*
X105906376Y-80322812D01*
X105838456Y-80486784D01*
X105739853Y-80634354D01*
X105614354Y-80759853D01*
X105466784Y-80858456D01*
X105302812Y-80926376D01*
X105153512Y-80956073D01*
X105128742Y-80961000D01*
X104951258Y-80961000D01*
X104926488Y-80956073D01*
X104777188Y-80926376D01*
X104613216Y-80858456D01*
X104465646Y-80759853D01*
X104340147Y-80634354D01*
X104241544Y-80486784D01*
X104173624Y-80322812D01*
X104139000Y-80148741D01*
X104139000Y-79971259D01*
X104173624Y-79797188D01*
X104241544Y-79633216D01*
X104340147Y-79485646D01*
X104465646Y-79360147D01*
X104613216Y-79261544D01*
X104777188Y-79193624D01*
X104926488Y-79163927D01*
X104951258Y-79159000D01*
X105128742Y-79159000D01*
X105153512Y-79163927D01*
G37*
G36*
X-39383177Y-78161313D02*
G01*
X-39222758Y-78209976D01*
X-39090094Y-78280886D01*
X-39074922Y-78288996D01*
X-38945341Y-78395341D01*
X-38838996Y-78524922D01*
X-38838995Y-78524924D01*
X-38759976Y-78672758D01*
X-38711313Y-78833177D01*
X-38694883Y-79000000D01*
X-38711313Y-79166823D01*
X-38759976Y-79327242D01*
X-38777565Y-79360148D01*
X-38838996Y-79475078D01*
X-38945341Y-79604659D01*
X-39074922Y-79711004D01*
X-39074924Y-79711005D01*
X-39222758Y-79790024D01*
X-39383177Y-79838687D01*
X-39508196Y-79851000D01*
X-40491804Y-79851000D01*
X-40616823Y-79838687D01*
X-40777242Y-79790024D01*
X-40925076Y-79711005D01*
X-40925078Y-79711004D01*
X-41054659Y-79604659D01*
X-41161004Y-79475078D01*
X-41222435Y-79360148D01*
X-41240024Y-79327242D01*
X-41288687Y-79166823D01*
X-41305117Y-79000000D01*
X-41288687Y-78833177D01*
X-41240024Y-78672758D01*
X-41161005Y-78524924D01*
X-41161004Y-78524922D01*
X-41054659Y-78395341D01*
X-40925078Y-78288996D01*
X-40909906Y-78280886D01*
X-40777242Y-78209976D01*
X-40616823Y-78161313D01*
X-40491804Y-78149000D01*
X-39508196Y-78149000D01*
X-39383177Y-78161313D01*
G37*
G36*
X105153512Y-76623927D02*
G01*
X105302812Y-76653624D01*
X105466784Y-76721544D01*
X105614354Y-76820147D01*
X105739853Y-76945646D01*
X105838456Y-77093216D01*
X105906376Y-77257188D01*
X105941000Y-77431259D01*
X105941000Y-77608741D01*
X105906376Y-77782812D01*
X105838456Y-77946784D01*
X105739853Y-78094354D01*
X105614354Y-78219853D01*
X105466784Y-78318456D01*
X105302812Y-78386376D01*
X105153512Y-78416073D01*
X105128742Y-78421000D01*
X104951258Y-78421000D01*
X104926488Y-78416073D01*
X104777188Y-78386376D01*
X104613216Y-78318456D01*
X104465646Y-78219853D01*
X104340147Y-78094354D01*
X104241544Y-77946784D01*
X104173624Y-77782812D01*
X104139000Y-77608741D01*
X104139000Y-77431259D01*
X104173624Y-77257188D01*
X104241544Y-77093216D01*
X104340147Y-76945646D01*
X104465646Y-76820147D01*
X104613216Y-76721544D01*
X104777188Y-76653624D01*
X104926488Y-76623927D01*
X104951258Y-76619000D01*
X105128742Y-76619000D01*
X105153512Y-76623927D01*
G37*
G36*
X102613512Y-76623927D02*
G01*
X102762812Y-76653624D01*
X102926784Y-76721544D01*
X103074354Y-76820147D01*
X103199853Y-76945646D01*
X103298456Y-77093216D01*
X103366376Y-77257188D01*
X103401000Y-77431259D01*
X103401000Y-77608741D01*
X103366376Y-77782812D01*
X103298456Y-77946784D01*
X103199853Y-78094354D01*
X103074354Y-78219853D01*
X102926784Y-78318456D01*
X102762812Y-78386376D01*
X102613512Y-78416073D01*
X102588742Y-78421000D01*
X102411258Y-78421000D01*
X102386488Y-78416073D01*
X102237188Y-78386376D01*
X102073216Y-78318456D01*
X101925646Y-78219853D01*
X101800147Y-78094354D01*
X101701544Y-77946784D01*
X101633624Y-77782812D01*
X101599000Y-77608741D01*
X101599000Y-77431259D01*
X101633624Y-77257188D01*
X101701544Y-77093216D01*
X101800147Y-76945646D01*
X101925646Y-76820147D01*
X102073216Y-76721544D01*
X102237188Y-76653624D01*
X102386488Y-76623927D01*
X102411258Y-76619000D01*
X102588742Y-76619000D01*
X102613512Y-76623927D01*
G37*
G36*
X105153512Y-74083927D02*
G01*
X105302812Y-74113624D01*
X105466784Y-74181544D01*
X105614354Y-74280147D01*
X105739853Y-74405646D01*
X105838456Y-74553216D01*
X105906376Y-74717188D01*
X105941000Y-74891259D01*
X105941000Y-75068741D01*
X105906376Y-75242812D01*
X105838456Y-75406784D01*
X105739853Y-75554354D01*
X105614354Y-75679853D01*
X105466784Y-75778456D01*
X105302812Y-75846376D01*
X105153512Y-75876073D01*
X105128742Y-75881000D01*
X104951258Y-75881000D01*
X104926488Y-75876073D01*
X104777188Y-75846376D01*
X104613216Y-75778456D01*
X104465646Y-75679853D01*
X104340147Y-75554354D01*
X104241544Y-75406784D01*
X104173624Y-75242812D01*
X104139000Y-75068741D01*
X104139000Y-74891259D01*
X104173624Y-74717188D01*
X104241544Y-74553216D01*
X104340147Y-74405646D01*
X104465646Y-74280147D01*
X104613216Y-74181544D01*
X104777188Y-74113624D01*
X104926488Y-74083927D01*
X104951258Y-74079000D01*
X105128742Y-74079000D01*
X105153512Y-74083927D01*
G37*
G36*
X102613512Y-74083927D02*
G01*
X102762812Y-74113624D01*
X102926784Y-74181544D01*
X103074354Y-74280147D01*
X103199853Y-74405646D01*
X103298456Y-74553216D01*
X103366376Y-74717188D01*
X103401000Y-74891259D01*
X103401000Y-75068741D01*
X103366376Y-75242812D01*
X103298456Y-75406784D01*
X103199853Y-75554354D01*
X103074354Y-75679853D01*
X102926784Y-75778456D01*
X102762812Y-75846376D01*
X102613512Y-75876073D01*
X102588742Y-75881000D01*
X102411258Y-75881000D01*
X102386488Y-75876073D01*
X102237188Y-75846376D01*
X102073216Y-75778456D01*
X101925646Y-75679853D01*
X101800147Y-75554354D01*
X101701544Y-75406784D01*
X101633624Y-75242812D01*
X101599000Y-75068741D01*
X101599000Y-74891259D01*
X101633624Y-74717188D01*
X101701544Y-74553216D01*
X101800147Y-74405646D01*
X101925646Y-74280147D01*
X102073216Y-74181544D01*
X102237188Y-74113624D01*
X102386488Y-74083927D01*
X102411258Y-74079000D01*
X102588742Y-74079000D01*
X102613512Y-74083927D01*
G37*
G36*
X-43153331Y-72127686D02*
G01*
X-42976942Y-72145059D01*
X-42637452Y-72248042D01*
X-42637450Y-72248043D01*
X-42324578Y-72415277D01*
X-42050339Y-72640339D01*
X-41825277Y-72914578D01*
X-41704865Y-73139852D01*
X-41658042Y-73227452D01*
X-41555059Y-73566942D01*
X-41520286Y-73920000D01*
X-41555059Y-74273058D01*
X-41658042Y-74612548D01*
X-41658043Y-74612550D01*
X-41825277Y-74925422D01*
X-42050339Y-75199661D01*
X-42324578Y-75424723D01*
X-42567098Y-75554353D01*
X-42637452Y-75591958D01*
X-42976942Y-75694941D01*
X-43153331Y-75712314D01*
X-43241524Y-75721000D01*
X-46918476Y-75721000D01*
X-47006669Y-75712314D01*
X-47183058Y-75694941D01*
X-47522548Y-75591958D01*
X-47592902Y-75554353D01*
X-47835422Y-75424723D01*
X-48109661Y-75199661D01*
X-48334723Y-74925422D01*
X-48501957Y-74612550D01*
X-48501958Y-74612548D01*
X-48604941Y-74273058D01*
X-48639714Y-73920000D01*
X-48604941Y-73566942D01*
X-48501958Y-73227452D01*
X-48455135Y-73139852D01*
X-48334723Y-72914578D01*
X-48109661Y-72640339D01*
X-47835422Y-72415277D01*
X-47522550Y-72248043D01*
X-47522548Y-72248042D01*
X-47183058Y-72145059D01*
X-47006669Y-72127686D01*
X-46918476Y-72119000D01*
X-43241524Y-72119000D01*
X-43153331Y-72127686D01*
G37*
G36*
X105153512Y-71543927D02*
G01*
X105302812Y-71573624D01*
X105466784Y-71641544D01*
X105614354Y-71740147D01*
X105739853Y-71865646D01*
X105838456Y-72013216D01*
X105906376Y-72177188D01*
X105941000Y-72351259D01*
X105941000Y-72528741D01*
X105906376Y-72702812D01*
X105838456Y-72866784D01*
X105739853Y-73014354D01*
X105614354Y-73139853D01*
X105466784Y-73238456D01*
X105302812Y-73306376D01*
X105153512Y-73336073D01*
X105128742Y-73341000D01*
X104951258Y-73341000D01*
X104926488Y-73336073D01*
X104777188Y-73306376D01*
X104613216Y-73238456D01*
X104465646Y-73139853D01*
X104340147Y-73014354D01*
X104241544Y-72866784D01*
X104173624Y-72702812D01*
X104139000Y-72528741D01*
X104139000Y-72351259D01*
X104173624Y-72177188D01*
X104241544Y-72013216D01*
X104340147Y-71865646D01*
X104465646Y-71740147D01*
X104613216Y-71641544D01*
X104777188Y-71573624D01*
X104926488Y-71543927D01*
X104951258Y-71539000D01*
X105128742Y-71539000D01*
X105153512Y-71543927D01*
G37*
G36*
X102613512Y-71543927D02*
G01*
X102762812Y-71573624D01*
X102926784Y-71641544D01*
X103074354Y-71740147D01*
X103199853Y-71865646D01*
X103298456Y-72013216D01*
X103366376Y-72177188D01*
X103401000Y-72351259D01*
X103401000Y-72528741D01*
X103366376Y-72702812D01*
X103298456Y-72866784D01*
X103199853Y-73014354D01*
X103074354Y-73139853D01*
X102926784Y-73238456D01*
X102762812Y-73306376D01*
X102613512Y-73336073D01*
X102588742Y-73341000D01*
X102411258Y-73341000D01*
X102386488Y-73336073D01*
X102237188Y-73306376D01*
X102073216Y-73238456D01*
X101925646Y-73139853D01*
X101800147Y-73014354D01*
X101701544Y-72866784D01*
X101633624Y-72702812D01*
X101599000Y-72528741D01*
X101599000Y-72351259D01*
X101633624Y-72177188D01*
X101701544Y-72013216D01*
X101800147Y-71865646D01*
X101925646Y-71740147D01*
X102073216Y-71641544D01*
X102237188Y-71573624D01*
X102386488Y-71543927D01*
X102411258Y-71539000D01*
X102588742Y-71539000D01*
X102613512Y-71543927D01*
G37*
G36*
X-51095451Y-69386116D02*
G01*
X-50984266Y-69408232D01*
X-50774797Y-69494997D01*
X-50586280Y-69620960D01*
X-50425960Y-69781280D01*
X-50299997Y-69969797D01*
X-50213232Y-70179266D01*
X-50169000Y-70401636D01*
X-50169000Y-70628364D01*
X-50213232Y-70850734D01*
X-50299997Y-71060203D01*
X-50425960Y-71248720D01*
X-50586280Y-71409040D01*
X-50774797Y-71535003D01*
X-50774798Y-71535004D01*
X-50774799Y-71535004D01*
X-50836150Y-71560416D01*
X-50984266Y-71621768D01*
X-51083687Y-71641544D01*
X-51206635Y-71666000D01*
X-51433365Y-71666000D01*
X-51556313Y-71641544D01*
X-51655734Y-71621768D01*
X-51803850Y-71560416D01*
X-51865201Y-71535004D01*
X-51865202Y-71535004D01*
X-51865203Y-71535003D01*
X-52053720Y-71409040D01*
X-52214040Y-71248720D01*
X-52340003Y-71060203D01*
X-52426768Y-70850734D01*
X-52471000Y-70628364D01*
X-52471000Y-70401636D01*
X-52426768Y-70179266D01*
X-52340003Y-69969797D01*
X-52214040Y-69781280D01*
X-52053720Y-69620960D01*
X-51865203Y-69494997D01*
X-51655734Y-69408232D01*
X-51544549Y-69386116D01*
X-51433365Y-69364000D01*
X-51206635Y-69364000D01*
X-51095451Y-69386116D01*
G37*
G36*
X105153512Y-69003927D02*
G01*
X105302812Y-69033624D01*
X105466784Y-69101544D01*
X105614354Y-69200147D01*
X105739853Y-69325646D01*
X105838456Y-69473216D01*
X105906376Y-69637188D01*
X105941000Y-69811259D01*
X105941000Y-69988741D01*
X105906376Y-70162812D01*
X105838456Y-70326784D01*
X105739853Y-70474354D01*
X105614354Y-70599853D01*
X105466784Y-70698456D01*
X105302812Y-70766376D01*
X105153512Y-70796073D01*
X105128742Y-70801000D01*
X104951258Y-70801000D01*
X104926488Y-70796073D01*
X104777188Y-70766376D01*
X104613216Y-70698456D01*
X104465646Y-70599853D01*
X104340147Y-70474354D01*
X104241544Y-70326784D01*
X104173624Y-70162812D01*
X104139000Y-69988741D01*
X104139000Y-69811259D01*
X104173624Y-69637188D01*
X104241544Y-69473216D01*
X104340147Y-69325646D01*
X104465646Y-69200147D01*
X104613216Y-69101544D01*
X104777188Y-69033624D01*
X104926488Y-69003927D01*
X104951258Y-68999000D01*
X105128742Y-68999000D01*
X105153512Y-69003927D01*
G37*
G36*
X102613512Y-69003927D02*
G01*
X102762812Y-69033624D01*
X102926784Y-69101544D01*
X103074354Y-69200147D01*
X103199853Y-69325646D01*
X103298456Y-69473216D01*
X103366376Y-69637188D01*
X103401000Y-69811259D01*
X103401000Y-69988741D01*
X103366376Y-70162812D01*
X103298456Y-70326784D01*
X103199853Y-70474354D01*
X103074354Y-70599853D01*
X102926784Y-70698456D01*
X102762812Y-70766376D01*
X102613512Y-70796073D01*
X102588742Y-70801000D01*
X102411258Y-70801000D01*
X102386488Y-70796073D01*
X102237188Y-70766376D01*
X102073216Y-70698456D01*
X101925646Y-70599853D01*
X101800147Y-70474354D01*
X101701544Y-70326784D01*
X101633624Y-70162812D01*
X101599000Y-69988741D01*
X101599000Y-69811259D01*
X101633624Y-69637188D01*
X101701544Y-69473216D01*
X101800147Y-69325646D01*
X101925646Y-69200147D01*
X102073216Y-69101544D01*
X102237188Y-69033624D01*
X102386488Y-69003927D01*
X102411258Y-68999000D01*
X102588742Y-68999000D01*
X102613512Y-69003927D01*
G37*
G36*
X-43153331Y-66287686D02*
G01*
X-42976942Y-66305059D01*
X-42637452Y-66408042D01*
X-42637450Y-66408043D01*
X-42324578Y-66575277D01*
X-42050339Y-66800339D01*
X-41825277Y-67074578D01*
X-41731403Y-67250203D01*
X-41658042Y-67387452D01*
X-41555059Y-67726942D01*
X-41520286Y-68080000D01*
X-41555059Y-68433058D01*
X-41643123Y-68723365D01*
X-41658043Y-68772550D01*
X-41825277Y-69085422D01*
X-42050339Y-69359661D01*
X-42324578Y-69584723D01*
X-42409291Y-69630003D01*
X-42637452Y-69751958D01*
X-42976942Y-69854941D01*
X-43153331Y-69872314D01*
X-43241524Y-69881000D01*
X-46918476Y-69881000D01*
X-47006669Y-69872314D01*
X-47183058Y-69854941D01*
X-47522548Y-69751958D01*
X-47750709Y-69630003D01*
X-47835422Y-69584723D01*
X-48109661Y-69359661D01*
X-48334723Y-69085422D01*
X-48501957Y-68772550D01*
X-48516877Y-68723365D01*
X-48604941Y-68433058D01*
X-48639714Y-68080000D01*
X-48604941Y-67726942D01*
X-48501958Y-67387452D01*
X-48428597Y-67250203D01*
X-48334723Y-67074578D01*
X-48109661Y-66800339D01*
X-47835422Y-66575277D01*
X-47522550Y-66408043D01*
X-47522548Y-66408042D01*
X-47183058Y-66305059D01*
X-47006669Y-66287686D01*
X-46918476Y-66279000D01*
X-43241524Y-66279000D01*
X-43153331Y-66287686D01*
G37*
G36*
X-56175451Y-67481116D02*
G01*
X-56064266Y-67503232D01*
X-55854797Y-67589997D01*
X-55666280Y-67715960D01*
X-55505960Y-67876280D01*
X-55379997Y-68064797D01*
X-55293232Y-68274266D01*
X-55249000Y-68496636D01*
X-55249000Y-68723364D01*
X-55293232Y-68945734D01*
X-55379997Y-69155203D01*
X-55505960Y-69343720D01*
X-55666280Y-69504040D01*
X-55854797Y-69630003D01*
X-55854798Y-69630004D01*
X-55854799Y-69630004D01*
X-55916150Y-69655416D01*
X-56064266Y-69716768D01*
X-56175451Y-69738884D01*
X-56286635Y-69761000D01*
X-56513365Y-69761000D01*
X-56624549Y-69738884D01*
X-56735734Y-69716768D01*
X-56883850Y-69655416D01*
X-56945201Y-69630004D01*
X-56945202Y-69630004D01*
X-56945203Y-69630003D01*
X-57133720Y-69504040D01*
X-57294040Y-69343720D01*
X-57420003Y-69155203D01*
X-57506768Y-68945734D01*
X-57551000Y-68723364D01*
X-57551000Y-68496636D01*
X-57506768Y-68274266D01*
X-57420003Y-68064797D01*
X-57294040Y-67876280D01*
X-57133720Y-67715960D01*
X-56945203Y-67589997D01*
X-56735734Y-67503232D01*
X-56624549Y-67481116D01*
X-56513365Y-67459000D01*
X-56286635Y-67459000D01*
X-56175451Y-67481116D01*
G37*
G36*
X105153512Y-66463927D02*
G01*
X105302812Y-66493624D01*
X105466784Y-66561544D01*
X105614354Y-66660147D01*
X105739853Y-66785646D01*
X105838456Y-66933216D01*
X105906376Y-67097188D01*
X105936073Y-67246488D01*
X105941000Y-67271258D01*
X105941000Y-67448742D01*
X105936073Y-67473512D01*
X105906376Y-67622812D01*
X105838456Y-67786784D01*
X105739853Y-67934354D01*
X105614354Y-68059853D01*
X105466784Y-68158456D01*
X105302812Y-68226376D01*
X105153512Y-68256073D01*
X105128742Y-68261000D01*
X104951258Y-68261000D01*
X104926488Y-68256073D01*
X104777188Y-68226376D01*
X104613216Y-68158456D01*
X104465646Y-68059853D01*
X104340147Y-67934354D01*
X104241544Y-67786784D01*
X104173624Y-67622812D01*
X104143927Y-67473512D01*
X104139000Y-67448742D01*
X104139000Y-67271258D01*
X104143927Y-67246488D01*
X104173624Y-67097188D01*
X104241544Y-66933216D01*
X104340147Y-66785646D01*
X104465646Y-66660147D01*
X104613216Y-66561544D01*
X104777188Y-66493624D01*
X104926488Y-66463927D01*
X104951258Y-66459000D01*
X105128742Y-66459000D01*
X105153512Y-66463927D01*
G37*
G36*
X102613512Y-66463927D02*
G01*
X102762812Y-66493624D01*
X102926784Y-66561544D01*
X103074354Y-66660147D01*
X103199853Y-66785646D01*
X103298456Y-66933216D01*
X103366376Y-67097188D01*
X103396073Y-67246488D01*
X103401000Y-67271258D01*
X103401000Y-67448742D01*
X103396073Y-67473512D01*
X103366376Y-67622812D01*
X103298456Y-67786784D01*
X103199853Y-67934354D01*
X103074354Y-68059853D01*
X102926784Y-68158456D01*
X102762812Y-68226376D01*
X102613512Y-68256073D01*
X102588742Y-68261000D01*
X102411258Y-68261000D01*
X102386488Y-68256073D01*
X102237188Y-68226376D01*
X102073216Y-68158456D01*
X101925646Y-68059853D01*
X101800147Y-67934354D01*
X101701544Y-67786784D01*
X101633624Y-67622812D01*
X101603927Y-67473512D01*
X101599000Y-67448742D01*
X101599000Y-67271258D01*
X101603927Y-67246488D01*
X101633624Y-67097188D01*
X101701544Y-66933216D01*
X101800147Y-66785646D01*
X101925646Y-66660147D01*
X102073216Y-66561544D01*
X102237188Y-66493624D01*
X102386488Y-66463927D01*
X102411258Y-66459000D01*
X102588742Y-66459000D01*
X102613512Y-66463927D01*
G37*
G36*
X-51095451Y-65576116D02*
G01*
X-50984266Y-65598232D01*
X-50774797Y-65684997D01*
X-50586280Y-65810960D01*
X-50425960Y-65971280D01*
X-50299997Y-66159797D01*
X-50213232Y-66369266D01*
X-50169000Y-66591636D01*
X-50169000Y-66818364D01*
X-50213232Y-67040734D01*
X-50299997Y-67250203D01*
X-50425960Y-67438720D01*
X-50586280Y-67599040D01*
X-50774797Y-67725003D01*
X-50984266Y-67811768D01*
X-51095451Y-67833884D01*
X-51206635Y-67856000D01*
X-51433365Y-67856000D01*
X-51544549Y-67833884D01*
X-51655734Y-67811768D01*
X-51865203Y-67725003D01*
X-52053720Y-67599040D01*
X-52214040Y-67438720D01*
X-52340003Y-67250203D01*
X-52426768Y-67040734D01*
X-52471000Y-66818364D01*
X-52471000Y-66591636D01*
X-52426768Y-66369266D01*
X-52340003Y-66159797D01*
X-52214040Y-65971280D01*
X-52053720Y-65810960D01*
X-51865203Y-65684997D01*
X-51655734Y-65598232D01*
X-51544549Y-65576116D01*
X-51433365Y-65554000D01*
X-51206635Y-65554000D01*
X-51095451Y-65576116D01*
G37*
G36*
X-39383177Y-64701313D02*
G01*
X-39222758Y-64749976D01*
X-39090094Y-64820886D01*
X-39074922Y-64828996D01*
X-38945341Y-64935341D01*
X-38838996Y-65064922D01*
X-38838995Y-65064924D01*
X-38759976Y-65212758D01*
X-38711313Y-65373177D01*
X-38694883Y-65540000D01*
X-38711313Y-65706823D01*
X-38759976Y-65867242D01*
X-38804746Y-65951000D01*
X-38838996Y-66015078D01*
X-38945341Y-66144659D01*
X-39074922Y-66251004D01*
X-39074924Y-66251005D01*
X-39222758Y-66330024D01*
X-39383177Y-66378687D01*
X-39508196Y-66391000D01*
X-40491804Y-66391000D01*
X-40616823Y-66378687D01*
X-40777242Y-66330024D01*
X-40925076Y-66251005D01*
X-40925078Y-66251004D01*
X-41054659Y-66144659D01*
X-41161004Y-66015078D01*
X-41195254Y-65951000D01*
X-41240024Y-65867242D01*
X-41288687Y-65706823D01*
X-41305117Y-65540000D01*
X-41288687Y-65373177D01*
X-41240024Y-65212758D01*
X-41161005Y-65064924D01*
X-41161004Y-65064922D01*
X-41054659Y-64935341D01*
X-40925078Y-64828996D01*
X-40909906Y-64820886D01*
X-40777242Y-64749976D01*
X-40616823Y-64701313D01*
X-40491804Y-64689000D01*
X-39508196Y-64689000D01*
X-39383177Y-64701313D01*
G37*
G36*
X-56175451Y-63671116D02*
G01*
X-56064266Y-63693232D01*
X-55854797Y-63779997D01*
X-55666280Y-63905960D01*
X-55505960Y-64066280D01*
X-55379997Y-64254797D01*
X-55293232Y-64464266D01*
X-55249000Y-64686636D01*
X-55249000Y-64913364D01*
X-55293232Y-65135734D01*
X-55379997Y-65345203D01*
X-55505960Y-65533720D01*
X-55666280Y-65694040D01*
X-55854797Y-65820003D01*
X-56064266Y-65906768D01*
X-56175451Y-65928884D01*
X-56286635Y-65951000D01*
X-56513365Y-65951000D01*
X-56624549Y-65928884D01*
X-56735734Y-65906768D01*
X-56945203Y-65820003D01*
X-57133720Y-65694040D01*
X-57294040Y-65533720D01*
X-57420003Y-65345203D01*
X-57506768Y-65135734D01*
X-57551000Y-64913364D01*
X-57551000Y-64686636D01*
X-57506768Y-64464266D01*
X-57420003Y-64254797D01*
X-57294040Y-64066280D01*
X-57133720Y-63905960D01*
X-56945203Y-63779997D01*
X-56735734Y-63693232D01*
X-56624549Y-63671116D01*
X-56513365Y-63649000D01*
X-56286635Y-63649000D01*
X-56175451Y-63671116D01*
G37*
G36*
X105153512Y-63923927D02*
G01*
X105302812Y-63953624D01*
X105466784Y-64021544D01*
X105614354Y-64120147D01*
X105739853Y-64245646D01*
X105838456Y-64393216D01*
X105906376Y-64557188D01*
X105935044Y-64701314D01*
X105941000Y-64731258D01*
X105941000Y-64908742D01*
X105940080Y-64913365D01*
X105906376Y-65082812D01*
X105838456Y-65246784D01*
X105739853Y-65394354D01*
X105614354Y-65519853D01*
X105466784Y-65618456D01*
X105302812Y-65686376D01*
X105153512Y-65716073D01*
X105128742Y-65721000D01*
X104951258Y-65721000D01*
X104926488Y-65716073D01*
X104777188Y-65686376D01*
X104613216Y-65618456D01*
X104465646Y-65519853D01*
X104340147Y-65394354D01*
X104241544Y-65246784D01*
X104173624Y-65082812D01*
X104139920Y-64913365D01*
X104139000Y-64908742D01*
X104139000Y-64731258D01*
X104144956Y-64701314D01*
X104173624Y-64557188D01*
X104241544Y-64393216D01*
X104340147Y-64245646D01*
X104465646Y-64120147D01*
X104613216Y-64021544D01*
X104777188Y-63953624D01*
X104926488Y-63923927D01*
X104951258Y-63919000D01*
X105128742Y-63919000D01*
X105153512Y-63923927D01*
G37*
G36*
X102613512Y-63923927D02*
G01*
X102762812Y-63953624D01*
X102926784Y-64021544D01*
X103074354Y-64120147D01*
X103199853Y-64245646D01*
X103298456Y-64393216D01*
X103366376Y-64557188D01*
X103395044Y-64701314D01*
X103401000Y-64731258D01*
X103401000Y-64908742D01*
X103400080Y-64913365D01*
X103366376Y-65082812D01*
X103298456Y-65246784D01*
X103199853Y-65394354D01*
X103074354Y-65519853D01*
X102926784Y-65618456D01*
X102762812Y-65686376D01*
X102613512Y-65716073D01*
X102588742Y-65721000D01*
X102411258Y-65721000D01*
X102386488Y-65716073D01*
X102237188Y-65686376D01*
X102073216Y-65618456D01*
X101925646Y-65519853D01*
X101800147Y-65394354D01*
X101701544Y-65246784D01*
X101633624Y-65082812D01*
X101599920Y-64913365D01*
X101599000Y-64908742D01*
X101599000Y-64731258D01*
X101604956Y-64701314D01*
X101633624Y-64557188D01*
X101701544Y-64393216D01*
X101800147Y-64245646D01*
X101925646Y-64120147D01*
X102073216Y-64021544D01*
X102237188Y-63953624D01*
X102386488Y-63923927D01*
X102411258Y-63919000D01*
X102588742Y-63919000D01*
X102613512Y-63923927D01*
G37*
G36*
X-51095451Y-61766116D02*
G01*
X-50984266Y-61788232D01*
X-50774797Y-61874997D01*
X-50586280Y-62000960D01*
X-50425960Y-62161280D01*
X-50299997Y-62349797D01*
X-50213232Y-62559266D01*
X-50169000Y-62781636D01*
X-50169000Y-63008364D01*
X-50213232Y-63230734D01*
X-50299997Y-63440203D01*
X-50425960Y-63628720D01*
X-50586280Y-63789040D01*
X-50774797Y-63915003D01*
X-50774798Y-63915004D01*
X-50774799Y-63915004D01*
X-50836150Y-63940416D01*
X-50984266Y-64001768D01*
X-51083687Y-64021544D01*
X-51206635Y-64046000D01*
X-51433365Y-64046000D01*
X-51556313Y-64021544D01*
X-51655734Y-64001768D01*
X-51803850Y-63940416D01*
X-51865201Y-63915004D01*
X-51865202Y-63915004D01*
X-51865203Y-63915003D01*
X-52053720Y-63789040D01*
X-52214040Y-63628720D01*
X-52340003Y-63440203D01*
X-52426768Y-63230734D01*
X-52471000Y-63008364D01*
X-52471000Y-62781636D01*
X-52426768Y-62559266D01*
X-52340003Y-62349797D01*
X-52214040Y-62161280D01*
X-52053720Y-62000960D01*
X-51865203Y-61874997D01*
X-51655734Y-61788232D01*
X-51544549Y-61766116D01*
X-51433365Y-61744000D01*
X-51206635Y-61744000D01*
X-51095451Y-61766116D01*
G37*
G36*
X-39383177Y-62161313D02*
G01*
X-39222758Y-62209976D01*
X-39090094Y-62280886D01*
X-39074922Y-62288996D01*
X-38945341Y-62395341D01*
X-38838996Y-62524922D01*
X-38838995Y-62524924D01*
X-38759976Y-62672758D01*
X-38711313Y-62833177D01*
X-38694883Y-63000000D01*
X-38711313Y-63166823D01*
X-38759976Y-63327242D01*
X-38820354Y-63440201D01*
X-38838996Y-63475078D01*
X-38945341Y-63604659D01*
X-39074922Y-63711004D01*
X-39074924Y-63711005D01*
X-39222758Y-63790024D01*
X-39383177Y-63838687D01*
X-39508196Y-63851000D01*
X-40491804Y-63851000D01*
X-40616823Y-63838687D01*
X-40777242Y-63790024D01*
X-40925076Y-63711005D01*
X-40925078Y-63711004D01*
X-41054659Y-63604659D01*
X-41161004Y-63475078D01*
X-41179646Y-63440201D01*
X-41240024Y-63327242D01*
X-41288687Y-63166823D01*
X-41305117Y-63000000D01*
X-41288687Y-62833177D01*
X-41240024Y-62672758D01*
X-41161005Y-62524924D01*
X-41161004Y-62524922D01*
X-41054659Y-62395341D01*
X-40925078Y-62288996D01*
X-40909906Y-62280886D01*
X-40777242Y-62209976D01*
X-40616823Y-62161313D01*
X-40491804Y-62149000D01*
X-39508196Y-62149000D01*
X-39383177Y-62161313D01*
G37*
G36*
X105153512Y-61383927D02*
G01*
X105302812Y-61413624D01*
X105466784Y-61481544D01*
X105614354Y-61580147D01*
X105739853Y-61705646D01*
X105838456Y-61853216D01*
X105906376Y-62017188D01*
X105941000Y-62191259D01*
X105941000Y-62368741D01*
X105906376Y-62542812D01*
X105838456Y-62706784D01*
X105739853Y-62854354D01*
X105614354Y-62979853D01*
X105466784Y-63078456D01*
X105302812Y-63146376D01*
X105153512Y-63176073D01*
X105128742Y-63181000D01*
X104951258Y-63181000D01*
X104926488Y-63176073D01*
X104777188Y-63146376D01*
X104613216Y-63078456D01*
X104465646Y-62979853D01*
X104340147Y-62854354D01*
X104241544Y-62706784D01*
X104173624Y-62542812D01*
X104139000Y-62368741D01*
X104139000Y-62191259D01*
X104173624Y-62017188D01*
X104241544Y-61853216D01*
X104340147Y-61705646D01*
X104465646Y-61580147D01*
X104613216Y-61481544D01*
X104777188Y-61413624D01*
X104926488Y-61383927D01*
X104951258Y-61379000D01*
X105128742Y-61379000D01*
X105153512Y-61383927D01*
G37*
G36*
X102613512Y-61383927D02*
G01*
X102762812Y-61413624D01*
X102926784Y-61481544D01*
X103074354Y-61580147D01*
X103199853Y-61705646D01*
X103298456Y-61853216D01*
X103366376Y-62017188D01*
X103401000Y-62191259D01*
X103401000Y-62368741D01*
X103366376Y-62542812D01*
X103298456Y-62706784D01*
X103199853Y-62854354D01*
X103074354Y-62979853D01*
X102926784Y-63078456D01*
X102762812Y-63146376D01*
X102613512Y-63176073D01*
X102588742Y-63181000D01*
X102411258Y-63181000D01*
X102386488Y-63176073D01*
X102237188Y-63146376D01*
X102073216Y-63078456D01*
X101925646Y-62979853D01*
X101800147Y-62854354D01*
X101701544Y-62706784D01*
X101633624Y-62542812D01*
X101599000Y-62368741D01*
X101599000Y-62191259D01*
X101633624Y-62017188D01*
X101701544Y-61853216D01*
X101800147Y-61705646D01*
X101925646Y-61580147D01*
X102073216Y-61481544D01*
X102237188Y-61413624D01*
X102386488Y-61383927D01*
X102411258Y-61379000D01*
X102588742Y-61379000D01*
X102613512Y-61383927D01*
G37*
G36*
X-56175451Y-59861116D02*
G01*
X-56064266Y-59883232D01*
X-55854797Y-59969997D01*
X-55666280Y-60095960D01*
X-55505960Y-60256280D01*
X-55379997Y-60444797D01*
X-55293232Y-60654266D01*
X-55249000Y-60876636D01*
X-55249000Y-61103364D01*
X-55293232Y-61325734D01*
X-55379997Y-61535203D01*
X-55505960Y-61723720D01*
X-55666280Y-61884040D01*
X-55854797Y-62010003D01*
X-55854798Y-62010004D01*
X-55854799Y-62010004D01*
X-55916150Y-62035416D01*
X-56064266Y-62096768D01*
X-56175451Y-62118884D01*
X-56286635Y-62141000D01*
X-56513365Y-62141000D01*
X-56624549Y-62118884D01*
X-56735734Y-62096768D01*
X-56883850Y-62035416D01*
X-56945201Y-62010004D01*
X-56945202Y-62010004D01*
X-56945203Y-62010003D01*
X-57133720Y-61884040D01*
X-57294040Y-61723720D01*
X-57420003Y-61535203D01*
X-57506768Y-61325734D01*
X-57551000Y-61103364D01*
X-57551000Y-60876636D01*
X-57506768Y-60654266D01*
X-57420003Y-60444797D01*
X-57294040Y-60256280D01*
X-57133720Y-60095960D01*
X-56945203Y-59969997D01*
X-56735734Y-59883232D01*
X-56624549Y-59861116D01*
X-56513365Y-59839000D01*
X-56286635Y-59839000D01*
X-56175451Y-59861116D01*
G37*
G36*
X105153512Y-58843927D02*
G01*
X105302812Y-58873624D01*
X105466784Y-58941544D01*
X105614354Y-59040147D01*
X105739853Y-59165646D01*
X105838456Y-59313216D01*
X105906376Y-59477188D01*
X105936073Y-59626488D01*
X105941000Y-59651258D01*
X105941000Y-59828742D01*
X105936073Y-59853512D01*
X105906376Y-60002812D01*
X105838456Y-60166784D01*
X105739853Y-60314354D01*
X105614354Y-60439853D01*
X105466784Y-60538456D01*
X105302812Y-60606376D01*
X105153512Y-60636073D01*
X105128742Y-60641000D01*
X104951258Y-60641000D01*
X104926488Y-60636073D01*
X104777188Y-60606376D01*
X104613216Y-60538456D01*
X104465646Y-60439853D01*
X104340147Y-60314354D01*
X104241544Y-60166784D01*
X104173624Y-60002812D01*
X104143927Y-59853512D01*
X104139000Y-59828742D01*
X104139000Y-59651258D01*
X104143927Y-59626488D01*
X104173624Y-59477188D01*
X104241544Y-59313216D01*
X104340147Y-59165646D01*
X104465646Y-59040147D01*
X104613216Y-58941544D01*
X104777188Y-58873624D01*
X104926488Y-58843927D01*
X104951258Y-58839000D01*
X105128742Y-58839000D01*
X105153512Y-58843927D01*
G37*
G36*
X102613512Y-58843927D02*
G01*
X102762812Y-58873624D01*
X102926784Y-58941544D01*
X103074354Y-59040147D01*
X103199853Y-59165646D01*
X103298456Y-59313216D01*
X103366376Y-59477188D01*
X103396073Y-59626488D01*
X103401000Y-59651258D01*
X103401000Y-59828742D01*
X103396073Y-59853512D01*
X103366376Y-60002812D01*
X103298456Y-60166784D01*
X103199853Y-60314354D01*
X103074354Y-60439853D01*
X102926784Y-60538456D01*
X102762812Y-60606376D01*
X102613512Y-60636073D01*
X102588742Y-60641000D01*
X102411258Y-60641000D01*
X102386488Y-60636073D01*
X102237188Y-60606376D01*
X102073216Y-60538456D01*
X101925646Y-60439853D01*
X101800147Y-60314354D01*
X101701544Y-60166784D01*
X101633624Y-60002812D01*
X101603927Y-59853512D01*
X101599000Y-59828742D01*
X101599000Y-59651258D01*
X101603927Y-59626488D01*
X101633624Y-59477188D01*
X101701544Y-59313216D01*
X101800147Y-59165646D01*
X101925646Y-59040147D01*
X102073216Y-58941544D01*
X102237188Y-58873624D01*
X102386488Y-58843927D01*
X102411258Y-58839000D01*
X102588742Y-58839000D01*
X102613512Y-58843927D01*
G37*
G36*
X-51095451Y-57956116D02*
G01*
X-50984266Y-57978232D01*
X-50774797Y-58064997D01*
X-50586280Y-58190960D01*
X-50425960Y-58351280D01*
X-50299997Y-58539797D01*
X-50299996Y-58539799D01*
X-50213232Y-58749267D01*
X-50178192Y-58925422D01*
X-50169000Y-58971636D01*
X-50169000Y-59198364D01*
X-50213232Y-59420734D01*
X-50299997Y-59630203D01*
X-50425960Y-59818720D01*
X-50586280Y-59979040D01*
X-50774797Y-60105003D01*
X-50984266Y-60191768D01*
X-51095451Y-60213884D01*
X-51206635Y-60236000D01*
X-51433365Y-60236000D01*
X-51544549Y-60213884D01*
X-51655734Y-60191768D01*
X-51865203Y-60105003D01*
X-52053720Y-59979040D01*
X-52214040Y-59818720D01*
X-52340003Y-59630203D01*
X-52426768Y-59420734D01*
X-52471000Y-59198364D01*
X-52471000Y-58971636D01*
X-52461807Y-58925422D01*
X-52426768Y-58749267D01*
X-52340004Y-58539799D01*
X-52340003Y-58539797D01*
X-52214040Y-58351280D01*
X-52053720Y-58190960D01*
X-51865203Y-58064997D01*
X-51655734Y-57978232D01*
X-51544549Y-57956116D01*
X-51433365Y-57934000D01*
X-51206635Y-57934000D01*
X-51095451Y-57956116D01*
G37*
G36*
X-43153331Y-56127686D02*
G01*
X-42976942Y-56145059D01*
X-42637452Y-56248042D01*
X-42637450Y-56248043D01*
X-42324578Y-56415277D01*
X-42050339Y-56640339D01*
X-41825277Y-56914578D01*
X-41744001Y-57066635D01*
X-41658042Y-57227452D01*
X-41555059Y-57566942D01*
X-41520286Y-57920000D01*
X-41555059Y-58273058D01*
X-41635974Y-58539799D01*
X-41658043Y-58612550D01*
X-41825277Y-58925422D01*
X-42050339Y-59199661D01*
X-42324578Y-59424723D01*
X-42422733Y-59477188D01*
X-42637452Y-59591958D01*
X-42976942Y-59694941D01*
X-43153331Y-59712314D01*
X-43241524Y-59721000D01*
X-46918476Y-59721000D01*
X-47006669Y-59712314D01*
X-47183058Y-59694941D01*
X-47522548Y-59591958D01*
X-47737267Y-59477188D01*
X-47835422Y-59424723D01*
X-48109661Y-59199661D01*
X-48334723Y-58925422D01*
X-48501957Y-58612550D01*
X-48524026Y-58539799D01*
X-48604941Y-58273058D01*
X-48639714Y-57920000D01*
X-48604941Y-57566942D01*
X-48501958Y-57227452D01*
X-48415999Y-57066635D01*
X-48334723Y-56914578D01*
X-48109661Y-56640339D01*
X-47835422Y-56415277D01*
X-47522550Y-56248043D01*
X-47522548Y-56248042D01*
X-47183058Y-56145059D01*
X-47006669Y-56127686D01*
X-46918476Y-56119000D01*
X-43241524Y-56119000D01*
X-43153331Y-56127686D01*
G37*
G36*
X-56175451Y-56051116D02*
G01*
X-56064266Y-56073232D01*
X-55854797Y-56159997D01*
X-55666280Y-56285960D01*
X-55505960Y-56446280D01*
X-55379997Y-56634797D01*
X-55293232Y-56844266D01*
X-55249000Y-57066636D01*
X-55249000Y-57293364D01*
X-55293232Y-57515734D01*
X-55379997Y-57725203D01*
X-55505960Y-57913720D01*
X-55666280Y-58074040D01*
X-55854797Y-58200003D01*
X-56064266Y-58286768D01*
X-56175451Y-58308884D01*
X-56286635Y-58331000D01*
X-56513365Y-58331000D01*
X-56624549Y-58308884D01*
X-56735734Y-58286768D01*
X-56945203Y-58200003D01*
X-57133720Y-58074040D01*
X-57294040Y-57913720D01*
X-57420003Y-57725203D01*
X-57506768Y-57515734D01*
X-57551000Y-57293364D01*
X-57551000Y-57066636D01*
X-57506768Y-56844266D01*
X-57420003Y-56634797D01*
X-57294040Y-56446280D01*
X-57133720Y-56285960D01*
X-56945203Y-56159997D01*
X-56735734Y-56073232D01*
X-56624549Y-56051116D01*
X-56513365Y-56029000D01*
X-56286635Y-56029000D01*
X-56175451Y-56051116D01*
G37*
G36*
X102613512Y-56303927D02*
G01*
X102762812Y-56333624D01*
X102926784Y-56401544D01*
X103074354Y-56500147D01*
X103199853Y-56625646D01*
X103298456Y-56773216D01*
X103366376Y-56937188D01*
X103392124Y-57066635D01*
X103401000Y-57111258D01*
X103401000Y-57288742D01*
X103400080Y-57293365D01*
X103366376Y-57462812D01*
X103298456Y-57626784D01*
X103199853Y-57774354D01*
X103074354Y-57899853D01*
X102926784Y-57998456D01*
X102762812Y-58066376D01*
X102613512Y-58096073D01*
X102588742Y-58101000D01*
X102411258Y-58101000D01*
X102386488Y-58096073D01*
X102237188Y-58066376D01*
X102073216Y-57998456D01*
X101925646Y-57899853D01*
X101800147Y-57774354D01*
X101701544Y-57626784D01*
X101633624Y-57462812D01*
X101599920Y-57293365D01*
X101599000Y-57288742D01*
X101599000Y-57111258D01*
X101607876Y-57066635D01*
X101633624Y-56937188D01*
X101701544Y-56773216D01*
X101800147Y-56625646D01*
X101925646Y-56500147D01*
X102073216Y-56401544D01*
X102237188Y-56333624D01*
X102386488Y-56303927D01*
X102411258Y-56299000D01*
X102588742Y-56299000D01*
X102613512Y-56303927D01*
G37*
G36*
X105153512Y-56303927D02*
G01*
X105302812Y-56333624D01*
X105466784Y-56401544D01*
X105614354Y-56500147D01*
X105739853Y-56625646D01*
X105838456Y-56773216D01*
X105906376Y-56937188D01*
X105932124Y-57066635D01*
X105941000Y-57111258D01*
X105941000Y-57288742D01*
X105940080Y-57293365D01*
X105906376Y-57462812D01*
X105838456Y-57626784D01*
X105739853Y-57774354D01*
X105614354Y-57899853D01*
X105466784Y-57998456D01*
X105302812Y-58066376D01*
X105153512Y-58096073D01*
X105128742Y-58101000D01*
X104951258Y-58101000D01*
X104926488Y-58096073D01*
X104777188Y-58066376D01*
X104613216Y-57998456D01*
X104465646Y-57899853D01*
X104340147Y-57774354D01*
X104241544Y-57626784D01*
X104173624Y-57462812D01*
X104139920Y-57293365D01*
X104139000Y-57288742D01*
X104139000Y-57111258D01*
X104147876Y-57066635D01*
X104173624Y-56937188D01*
X104241544Y-56773216D01*
X104340147Y-56625646D01*
X104465646Y-56500147D01*
X104613216Y-56401544D01*
X104777188Y-56333624D01*
X104926488Y-56303927D01*
X104951258Y-56299000D01*
X105128742Y-56299000D01*
X105153512Y-56303927D01*
G37*
G36*
X-51095451Y-54146116D02*
G01*
X-50984266Y-54168232D01*
X-50774797Y-54254997D01*
X-50586280Y-54380960D01*
X-50425960Y-54541280D01*
X-50299997Y-54729797D01*
X-50213232Y-54939266D01*
X-50169000Y-55161636D01*
X-50169000Y-55388364D01*
X-50213232Y-55610734D01*
X-50299997Y-55820203D01*
X-50425960Y-56008720D01*
X-50586280Y-56169040D01*
X-50774797Y-56295003D01*
X-50774798Y-56295004D01*
X-50774799Y-56295004D01*
X-50836150Y-56320416D01*
X-50984266Y-56381768D01*
X-51083687Y-56401544D01*
X-51206635Y-56426000D01*
X-51433365Y-56426000D01*
X-51556313Y-56401544D01*
X-51655734Y-56381768D01*
X-51803850Y-56320416D01*
X-51865201Y-56295004D01*
X-51865202Y-56295004D01*
X-51865203Y-56295003D01*
X-52053720Y-56169040D01*
X-52214040Y-56008720D01*
X-52340003Y-55820203D01*
X-52426768Y-55610734D01*
X-52471000Y-55388364D01*
X-52471000Y-55161636D01*
X-52426768Y-54939266D01*
X-52340003Y-54729797D01*
X-52214040Y-54541280D01*
X-52053720Y-54380960D01*
X-51865203Y-54254997D01*
X-51655734Y-54168232D01*
X-51544549Y-54146116D01*
X-51433365Y-54124000D01*
X-51206635Y-54124000D01*
X-51095451Y-54146116D01*
G37*
G36*
X102613512Y-53763927D02*
G01*
X102762812Y-53793624D01*
X102926784Y-53861544D01*
X103074354Y-53960147D01*
X103199853Y-54085646D01*
X103298456Y-54233216D01*
X103366376Y-54397188D01*
X103401000Y-54571259D01*
X103401000Y-54748741D01*
X103366376Y-54922812D01*
X103298456Y-55086784D01*
X103199853Y-55234354D01*
X103074354Y-55359853D01*
X102926784Y-55458456D01*
X102762812Y-55526376D01*
X102613512Y-55556073D01*
X102588742Y-55561000D01*
X102411258Y-55561000D01*
X102386488Y-55556073D01*
X102237188Y-55526376D01*
X102073216Y-55458456D01*
X101925646Y-55359853D01*
X101800147Y-55234354D01*
X101701544Y-55086784D01*
X101633624Y-54922812D01*
X101599000Y-54748741D01*
X101599000Y-54571259D01*
X101633624Y-54397188D01*
X101701544Y-54233216D01*
X101800147Y-54085646D01*
X101925646Y-53960147D01*
X102073216Y-53861544D01*
X102237188Y-53793624D01*
X102386488Y-53763927D01*
X102411258Y-53759000D01*
X102588742Y-53759000D01*
X102613512Y-53763927D01*
G37*
G36*
X105153512Y-53763927D02*
G01*
X105302812Y-53793624D01*
X105466784Y-53861544D01*
X105614354Y-53960147D01*
X105739853Y-54085646D01*
X105838456Y-54233216D01*
X105906376Y-54397188D01*
X105941000Y-54571259D01*
X105941000Y-54748741D01*
X105906376Y-54922812D01*
X105838456Y-55086784D01*
X105739853Y-55234354D01*
X105614354Y-55359853D01*
X105466784Y-55458456D01*
X105302812Y-55526376D01*
X105153512Y-55556073D01*
X105128742Y-55561000D01*
X104951258Y-55561000D01*
X104926488Y-55556073D01*
X104777188Y-55526376D01*
X104613216Y-55458456D01*
X104465646Y-55359853D01*
X104340147Y-55234354D01*
X104241544Y-55086784D01*
X104173624Y-54922812D01*
X104139000Y-54748741D01*
X104139000Y-54571259D01*
X104173624Y-54397188D01*
X104241544Y-54233216D01*
X104340147Y-54085646D01*
X104465646Y-53960147D01*
X104613216Y-53861544D01*
X104777188Y-53793624D01*
X104926488Y-53763927D01*
X104951258Y-53759000D01*
X105128742Y-53759000D01*
X105153512Y-53763927D01*
G37*
G36*
X-56175451Y-52241116D02*
G01*
X-56064266Y-52263232D01*
X-55854797Y-52349997D01*
X-55666280Y-52475960D01*
X-55505960Y-52636280D01*
X-55379997Y-52824797D01*
X-55293232Y-53034266D01*
X-55249000Y-53256636D01*
X-55249000Y-53483364D01*
X-55293232Y-53705734D01*
X-55379997Y-53915203D01*
X-55505960Y-54103720D01*
X-55666280Y-54264040D01*
X-55854797Y-54390003D01*
X-55854798Y-54390004D01*
X-55854799Y-54390004D01*
X-55916150Y-54415416D01*
X-56064266Y-54476768D01*
X-56175451Y-54498884D01*
X-56286635Y-54521000D01*
X-56513365Y-54521000D01*
X-56624549Y-54498884D01*
X-56735734Y-54476768D01*
X-56883850Y-54415416D01*
X-56945201Y-54390004D01*
X-56945202Y-54390004D01*
X-56945203Y-54390003D01*
X-57133720Y-54264040D01*
X-57294040Y-54103720D01*
X-57420003Y-53915203D01*
X-57506768Y-53705734D01*
X-57551000Y-53483364D01*
X-57551000Y-53256636D01*
X-57506768Y-53034266D01*
X-57420003Y-52824797D01*
X-57294040Y-52636280D01*
X-57133720Y-52475960D01*
X-56945203Y-52349997D01*
X-56735734Y-52263232D01*
X-56624549Y-52241116D01*
X-56513365Y-52219000D01*
X-56286635Y-52219000D01*
X-56175451Y-52241116D01*
G37*
G36*
X-43153331Y-50287686D02*
G01*
X-42976942Y-50305059D01*
X-42637452Y-50408042D01*
X-42637450Y-50408043D01*
X-42324578Y-50575277D01*
X-42050339Y-50800339D01*
X-41825278Y-51074577D01*
X-41658042Y-51387452D01*
X-41555059Y-51726942D01*
X-41520286Y-52080000D01*
X-41555059Y-52433058D01*
X-41658042Y-52772548D01*
X-41658043Y-52772550D01*
X-41825277Y-53085422D01*
X-42050339Y-53359661D01*
X-42324578Y-53584723D01*
X-42550973Y-53705734D01*
X-42637452Y-53751958D01*
X-42976942Y-53854941D01*
X-43153331Y-53872314D01*
X-43241524Y-53881000D01*
X-46918476Y-53881000D01*
X-47006669Y-53872314D01*
X-47183058Y-53854941D01*
X-47522548Y-53751958D01*
X-47609027Y-53705734D01*
X-47835422Y-53584723D01*
X-48109661Y-53359661D01*
X-48334723Y-53085422D01*
X-48501957Y-52772550D01*
X-48501958Y-52772548D01*
X-48604941Y-52433058D01*
X-48639714Y-52080000D01*
X-48604941Y-51726942D01*
X-48501958Y-51387452D01*
X-48334722Y-51074577D01*
X-48109661Y-50800339D01*
X-47835422Y-50575277D01*
X-47522550Y-50408043D01*
X-47522548Y-50408042D01*
X-47183058Y-50305059D01*
X-47006669Y-50287686D01*
X-46918476Y-50279000D01*
X-43241524Y-50279000D01*
X-43153331Y-50287686D01*
G37*
G36*
X105153512Y-51223927D02*
G01*
X105302812Y-51253624D01*
X105466784Y-51321544D01*
X105614354Y-51420147D01*
X105739853Y-51545646D01*
X105838456Y-51693216D01*
X105906376Y-51857188D01*
X105936073Y-52006488D01*
X105941000Y-52031258D01*
X105941000Y-52208742D01*
X105936073Y-52233512D01*
X105906376Y-52382812D01*
X105838456Y-52546784D01*
X105739853Y-52694354D01*
X105614354Y-52819853D01*
X105466784Y-52918456D01*
X105302812Y-52986376D01*
X105153512Y-53016073D01*
X105128742Y-53021000D01*
X104951258Y-53021000D01*
X104926488Y-53016073D01*
X104777188Y-52986376D01*
X104613216Y-52918456D01*
X104465646Y-52819853D01*
X104340147Y-52694354D01*
X104241544Y-52546784D01*
X104173624Y-52382812D01*
X104143927Y-52233512D01*
X104139000Y-52208742D01*
X104139000Y-52031258D01*
X104143927Y-52006488D01*
X104173624Y-51857188D01*
X104241544Y-51693216D01*
X104340147Y-51545646D01*
X104465646Y-51420147D01*
X104613216Y-51321544D01*
X104777188Y-51253624D01*
X104926488Y-51223927D01*
X104951258Y-51219000D01*
X105128742Y-51219000D01*
X105153512Y-51223927D01*
G37*
G36*
X102613512Y-51223927D02*
G01*
X102762812Y-51253624D01*
X102926784Y-51321544D01*
X103074354Y-51420147D01*
X103199853Y-51545646D01*
X103298456Y-51693216D01*
X103366376Y-51857188D01*
X103396073Y-52006488D01*
X103401000Y-52031258D01*
X103401000Y-52208742D01*
X103396073Y-52233512D01*
X103366376Y-52382812D01*
X103298456Y-52546784D01*
X103199853Y-52694354D01*
X103074354Y-52819853D01*
X102926784Y-52918456D01*
X102762812Y-52986376D01*
X102613512Y-53016073D01*
X102588742Y-53021000D01*
X102411258Y-53021000D01*
X102386488Y-53016073D01*
X102237188Y-52986376D01*
X102073216Y-52918456D01*
X101925646Y-52819853D01*
X101800147Y-52694354D01*
X101701544Y-52546784D01*
X101633624Y-52382812D01*
X101603927Y-52233512D01*
X101599000Y-52208742D01*
X101599000Y-52031258D01*
X101603927Y-52006488D01*
X101633624Y-51857188D01*
X101701544Y-51693216D01*
X101800147Y-51545646D01*
X101925646Y-51420147D01*
X102073216Y-51321544D01*
X102237188Y-51253624D01*
X102386488Y-51223927D01*
X102411258Y-51219000D01*
X102588742Y-51219000D01*
X102613512Y-51223927D01*
G37*
G36*
X-51095451Y-50336116D02*
G01*
X-50984266Y-50358232D01*
X-50774797Y-50444997D01*
X-50586280Y-50570960D01*
X-50425960Y-50731280D01*
X-50299997Y-50919797D01*
X-50213232Y-51129266D01*
X-50169000Y-51351636D01*
X-50169000Y-51578364D01*
X-50213232Y-51800734D01*
X-50299997Y-52010203D01*
X-50425960Y-52198720D01*
X-50586280Y-52359040D01*
X-50774797Y-52485003D01*
X-50984266Y-52571768D01*
X-51095451Y-52593884D01*
X-51206635Y-52616000D01*
X-51433365Y-52616000D01*
X-51544549Y-52593884D01*
X-51655734Y-52571768D01*
X-51865203Y-52485003D01*
X-52053720Y-52359040D01*
X-52214040Y-52198720D01*
X-52340003Y-52010203D01*
X-52426768Y-51800734D01*
X-52471000Y-51578364D01*
X-52471000Y-51351636D01*
X-52426768Y-51129266D01*
X-52340003Y-50919797D01*
X-52214040Y-50731280D01*
X-52053720Y-50570960D01*
X-51865203Y-50444997D01*
X-51655734Y-50358232D01*
X-51544549Y-50336116D01*
X-51433365Y-50314000D01*
X-51206635Y-50314000D01*
X-51095451Y-50336116D01*
G37*
G36*
X-56175451Y-48431116D02*
G01*
X-56064266Y-48453232D01*
X-55854797Y-48539997D01*
X-55666280Y-48665960D01*
X-55505960Y-48826280D01*
X-55469967Y-48880148D01*
X-55379996Y-49014799D01*
X-55359234Y-49064924D01*
X-55293232Y-49224266D01*
X-55249000Y-49446636D01*
X-55249000Y-49673364D01*
X-55293232Y-49895734D01*
X-55379997Y-50105203D01*
X-55505960Y-50293720D01*
X-55666280Y-50454040D01*
X-55854797Y-50580003D01*
X-56064266Y-50666768D01*
X-56175451Y-50688884D01*
X-56286635Y-50711000D01*
X-56513365Y-50711000D01*
X-56624549Y-50688884D01*
X-56735734Y-50666768D01*
X-56945203Y-50580003D01*
X-57133720Y-50454040D01*
X-57294040Y-50293720D01*
X-57420003Y-50105203D01*
X-57506768Y-49895734D01*
X-57551000Y-49673364D01*
X-57551000Y-49446636D01*
X-57506768Y-49224266D01*
X-57440766Y-49064924D01*
X-57420004Y-49014799D01*
X-57330033Y-48880148D01*
X-57294040Y-48826280D01*
X-57133720Y-48665960D01*
X-56945203Y-48539997D01*
X-56735734Y-48453232D01*
X-56624549Y-48431116D01*
X-56513365Y-48409000D01*
X-56286635Y-48409000D01*
X-56175451Y-48431116D01*
G37*
G36*
X105153512Y-48683927D02*
G01*
X105302812Y-48713624D01*
X105466784Y-48781544D01*
X105614354Y-48880147D01*
X105739853Y-49005646D01*
X105838456Y-49153216D01*
X105906376Y-49317188D01*
X105932124Y-49446635D01*
X105941000Y-49491258D01*
X105941000Y-49668742D01*
X105940080Y-49673365D01*
X105906376Y-49842812D01*
X105838456Y-50006784D01*
X105739853Y-50154354D01*
X105614354Y-50279853D01*
X105466784Y-50378456D01*
X105302812Y-50446376D01*
X105153512Y-50476073D01*
X105128742Y-50481000D01*
X104951258Y-50481000D01*
X104926488Y-50476073D01*
X104777188Y-50446376D01*
X104613216Y-50378456D01*
X104465646Y-50279853D01*
X104340147Y-50154354D01*
X104241544Y-50006784D01*
X104173624Y-49842812D01*
X104139920Y-49673365D01*
X104139000Y-49668742D01*
X104139000Y-49491258D01*
X104147876Y-49446635D01*
X104173624Y-49317188D01*
X104241544Y-49153216D01*
X104340147Y-49005646D01*
X104465646Y-48880147D01*
X104613216Y-48781544D01*
X104777188Y-48713624D01*
X104926488Y-48683927D01*
X104951258Y-48679000D01*
X105128742Y-48679000D01*
X105153512Y-48683927D01*
G37*
G36*
X102613512Y-48683927D02*
G01*
X102762812Y-48713624D01*
X102926784Y-48781544D01*
X103074354Y-48880147D01*
X103199853Y-49005646D01*
X103298456Y-49153216D01*
X103366376Y-49317188D01*
X103392124Y-49446635D01*
X103401000Y-49491258D01*
X103401000Y-49668742D01*
X103400080Y-49673365D01*
X103366376Y-49842812D01*
X103298456Y-50006784D01*
X103199853Y-50154354D01*
X103074354Y-50279853D01*
X102926784Y-50378456D01*
X102762812Y-50446376D01*
X102613512Y-50476073D01*
X102588742Y-50481000D01*
X102411258Y-50481000D01*
X102386488Y-50476073D01*
X102237188Y-50446376D01*
X102073216Y-50378456D01*
X101925646Y-50279853D01*
X101800147Y-50154354D01*
X101701544Y-50006784D01*
X101633624Y-49842812D01*
X101599920Y-49673365D01*
X101599000Y-49668742D01*
X101599000Y-49491258D01*
X101607876Y-49446635D01*
X101633624Y-49317188D01*
X101701544Y-49153216D01*
X101800147Y-49005646D01*
X101925646Y-48880147D01*
X102073216Y-48781544D01*
X102237188Y-48713624D01*
X102386488Y-48683927D01*
X102411258Y-48679000D01*
X102588742Y-48679000D01*
X102613512Y-48683927D01*
G37*
G36*
X-39383177Y-48701313D02*
G01*
X-39222758Y-48749976D01*
X-39117945Y-48806000D01*
X-39074922Y-48828996D01*
X-38945341Y-48935341D01*
X-38838996Y-49064922D01*
X-38838995Y-49064924D01*
X-38759976Y-49212758D01*
X-38711313Y-49373177D01*
X-38694883Y-49540000D01*
X-38711313Y-49706823D01*
X-38759976Y-49867242D01*
X-38830886Y-49999906D01*
X-38838996Y-50015078D01*
X-38945341Y-50144659D01*
X-39074922Y-50251004D01*
X-39074924Y-50251005D01*
X-39222758Y-50330024D01*
X-39383177Y-50378687D01*
X-39508196Y-50391000D01*
X-40491804Y-50391000D01*
X-40616823Y-50378687D01*
X-40777242Y-50330024D01*
X-40925076Y-50251005D01*
X-40925078Y-50251004D01*
X-41054659Y-50144659D01*
X-41161004Y-50015078D01*
X-41169114Y-49999906D01*
X-41240024Y-49867242D01*
X-41288687Y-49706823D01*
X-41305117Y-49540000D01*
X-41288687Y-49373177D01*
X-41240024Y-49212758D01*
X-41161005Y-49064924D01*
X-41161004Y-49064922D01*
X-41054659Y-48935341D01*
X-40925078Y-48828996D01*
X-40882055Y-48806000D01*
X-40777242Y-48749976D01*
X-40616823Y-48701313D01*
X-40491804Y-48689000D01*
X-39508196Y-48689000D01*
X-39383177Y-48701313D01*
G37*
G36*
X-51101454Y-46524922D02*
G01*
X-50984266Y-46548232D01*
X-50774797Y-46634997D01*
X-50586280Y-46760960D01*
X-50425960Y-46921280D01*
X-50299997Y-47109797D01*
X-50213232Y-47319266D01*
X-50191116Y-47430451D01*
X-50169000Y-47541635D01*
X-50169000Y-47768365D01*
X-50182942Y-47838456D01*
X-50213232Y-47990734D01*
X-50299997Y-48200203D01*
X-50425960Y-48388720D01*
X-50586280Y-48549040D01*
X-50774797Y-48675003D01*
X-50774798Y-48675004D01*
X-50774799Y-48675004D01*
X-50808589Y-48689000D01*
X-50984266Y-48761768D01*
X-51083687Y-48781544D01*
X-51206635Y-48806000D01*
X-51433365Y-48806000D01*
X-51556313Y-48781544D01*
X-51655734Y-48761768D01*
X-51831411Y-48689000D01*
X-51865201Y-48675004D01*
X-51865202Y-48675004D01*
X-51865203Y-48675003D01*
X-52053720Y-48549040D01*
X-52214040Y-48388720D01*
X-52340003Y-48200203D01*
X-52426768Y-47990734D01*
X-52457058Y-47838456D01*
X-52471000Y-47768365D01*
X-52471000Y-47541635D01*
X-52448884Y-47430451D01*
X-52426768Y-47319266D01*
X-52340003Y-47109797D01*
X-52214040Y-46921280D01*
X-52053720Y-46760960D01*
X-51865203Y-46634997D01*
X-51655734Y-46548232D01*
X-51538546Y-46524922D01*
X-51433365Y-46504000D01*
X-51206635Y-46504000D01*
X-51101454Y-46524922D01*
G37*
G36*
X105153512Y-46143927D02*
G01*
X105302812Y-46173624D01*
X105466784Y-46241544D01*
X105614354Y-46340147D01*
X105739853Y-46465646D01*
X105838456Y-46613216D01*
X105906376Y-46777188D01*
X105941000Y-46951259D01*
X105941000Y-47128741D01*
X105906376Y-47302812D01*
X105838456Y-47466784D01*
X105739853Y-47614354D01*
X105614354Y-47739853D01*
X105466784Y-47838456D01*
X105302812Y-47906376D01*
X105153512Y-47936073D01*
X105128742Y-47941000D01*
X104951258Y-47941000D01*
X104926488Y-47936073D01*
X104777188Y-47906376D01*
X104613216Y-47838456D01*
X104465646Y-47739853D01*
X104340147Y-47614354D01*
X104241544Y-47466784D01*
X104173624Y-47302812D01*
X104139000Y-47128741D01*
X104139000Y-46951259D01*
X104173624Y-46777188D01*
X104241544Y-46613216D01*
X104340147Y-46465646D01*
X104465646Y-46340147D01*
X104613216Y-46241544D01*
X104777188Y-46173624D01*
X104926488Y-46143927D01*
X104951258Y-46139000D01*
X105128742Y-46139000D01*
X105153512Y-46143927D01*
G37*
G36*
X102613512Y-46143927D02*
G01*
X102762812Y-46173624D01*
X102926784Y-46241544D01*
X103074354Y-46340147D01*
X103199853Y-46465646D01*
X103298456Y-46613216D01*
X103366376Y-46777188D01*
X103401000Y-46951259D01*
X103401000Y-47128741D01*
X103366376Y-47302812D01*
X103298456Y-47466784D01*
X103199853Y-47614354D01*
X103074354Y-47739853D01*
X102926784Y-47838456D01*
X102762812Y-47906376D01*
X102613512Y-47936073D01*
X102588742Y-47941000D01*
X102411258Y-47941000D01*
X102386488Y-47936073D01*
X102237188Y-47906376D01*
X102073216Y-47838456D01*
X101925646Y-47739853D01*
X101800147Y-47614354D01*
X101701544Y-47466784D01*
X101633624Y-47302812D01*
X101599000Y-47128741D01*
X101599000Y-46951259D01*
X101633624Y-46777188D01*
X101701544Y-46613216D01*
X101800147Y-46465646D01*
X101925646Y-46340147D01*
X102073216Y-46241544D01*
X102237188Y-46173624D01*
X102386488Y-46143927D01*
X102411258Y-46139000D01*
X102588742Y-46139000D01*
X102613512Y-46143927D01*
G37*
G36*
X-39383177Y-46161313D02*
G01*
X-39222758Y-46209976D01*
X-39090094Y-46280886D01*
X-39074922Y-46288996D01*
X-38945341Y-46395341D01*
X-38838996Y-46524922D01*
X-38838995Y-46524924D01*
X-38759976Y-46672758D01*
X-38711313Y-46833177D01*
X-38694883Y-47000000D01*
X-38711313Y-47166823D01*
X-38759976Y-47327242D01*
X-38830886Y-47459906D01*
X-38838996Y-47475078D01*
X-38945341Y-47604659D01*
X-39074922Y-47711004D01*
X-39074924Y-47711005D01*
X-39222758Y-47790024D01*
X-39383177Y-47838687D01*
X-39508196Y-47851000D01*
X-40491804Y-47851000D01*
X-40616823Y-47838687D01*
X-40777242Y-47790024D01*
X-40925076Y-47711005D01*
X-40925078Y-47711004D01*
X-41054659Y-47604659D01*
X-41161004Y-47475078D01*
X-41169114Y-47459906D01*
X-41240024Y-47327242D01*
X-41288687Y-47166823D01*
X-41305117Y-47000000D01*
X-41288687Y-46833177D01*
X-41240024Y-46672758D01*
X-41161005Y-46524924D01*
X-41161004Y-46524922D01*
X-41054659Y-46395341D01*
X-40925078Y-46288996D01*
X-40909906Y-46280886D01*
X-40777242Y-46209976D01*
X-40616823Y-46161313D01*
X-40491804Y-46149000D01*
X-39508196Y-46149000D01*
X-39383177Y-46161313D01*
G37*
G36*
X-56175451Y-44621116D02*
G01*
X-56064266Y-44643232D01*
X-55854797Y-44729997D01*
X-55666280Y-44855960D01*
X-55505960Y-45016280D01*
X-55379997Y-45204797D01*
X-55379996Y-45204799D01*
X-55293232Y-45414267D01*
X-55249000Y-45636635D01*
X-55249000Y-45863365D01*
X-55293232Y-46085733D01*
X-55377425Y-46288995D01*
X-55379997Y-46295203D01*
X-55505960Y-46483720D01*
X-55666280Y-46644040D01*
X-55854797Y-46770003D01*
X-55854798Y-46770004D01*
X-55854799Y-46770004D01*
X-55916150Y-46795416D01*
X-56064266Y-46856768D01*
X-56175451Y-46878884D01*
X-56286635Y-46901000D01*
X-56513365Y-46901000D01*
X-56624549Y-46878884D01*
X-56735734Y-46856768D01*
X-56883850Y-46795416D01*
X-56945201Y-46770004D01*
X-56945202Y-46770004D01*
X-56945203Y-46770003D01*
X-57133720Y-46644040D01*
X-57294040Y-46483720D01*
X-57420003Y-46295203D01*
X-57422574Y-46288995D01*
X-57506768Y-46085733D01*
X-57551000Y-45863365D01*
X-57551000Y-45636635D01*
X-57506768Y-45414267D01*
X-57420004Y-45204799D01*
X-57420003Y-45204797D01*
X-57294040Y-45016280D01*
X-57133720Y-44855960D01*
X-56945203Y-44729997D01*
X-56735734Y-44643232D01*
X-56624549Y-44621116D01*
X-56513365Y-44599000D01*
X-56286635Y-44599000D01*
X-56175451Y-44621116D01*
G37*
G36*
X105153512Y-43603927D02*
G01*
X105302812Y-43633624D01*
X105466784Y-43701544D01*
X105614354Y-43800147D01*
X105739853Y-43925646D01*
X105838456Y-44073216D01*
X105906376Y-44237188D01*
X105936073Y-44386488D01*
X105941000Y-44411258D01*
X105941000Y-44588742D01*
X105936073Y-44613512D01*
X105906376Y-44762812D01*
X105838456Y-44926784D01*
X105739853Y-45074354D01*
X105614354Y-45199853D01*
X105466784Y-45298456D01*
X105302812Y-45366376D01*
X105153512Y-45396073D01*
X105128742Y-45401000D01*
X104951258Y-45401000D01*
X104926488Y-45396073D01*
X104777188Y-45366376D01*
X104613216Y-45298456D01*
X104465646Y-45199853D01*
X104340147Y-45074354D01*
X104241544Y-44926784D01*
X104173624Y-44762812D01*
X104143927Y-44613512D01*
X104139000Y-44588742D01*
X104139000Y-44411258D01*
X104143927Y-44386488D01*
X104173624Y-44237188D01*
X104241544Y-44073216D01*
X104340147Y-43925646D01*
X104465646Y-43800147D01*
X104613216Y-43701544D01*
X104777188Y-43633624D01*
X104926488Y-43603927D01*
X104951258Y-43599000D01*
X105128742Y-43599000D01*
X105153512Y-43603927D01*
G37*
G36*
X103401000Y-45401000D02*
G01*
X101599000Y-45401000D01*
X101599000Y-43599000D01*
X103401000Y-43599000D01*
X103401000Y-45401000D01*
G37*
G36*
X-51095451Y-42716116D02*
G01*
X-50984266Y-42738232D01*
X-50774797Y-42824997D01*
X-50586280Y-42950960D01*
X-50425960Y-43111280D01*
X-50366906Y-43199661D01*
X-50299996Y-43299799D01*
X-50213232Y-43509267D01*
X-50171115Y-43721000D01*
X-50169000Y-43731636D01*
X-50169000Y-43958364D01*
X-50213232Y-44180734D01*
X-50299997Y-44390203D01*
X-50425960Y-44578720D01*
X-50586280Y-44739040D01*
X-50774797Y-44865003D01*
X-50984266Y-44951768D01*
X-51095451Y-44973884D01*
X-51206635Y-44996000D01*
X-51433365Y-44996000D01*
X-51544549Y-44973884D01*
X-51655734Y-44951768D01*
X-51865203Y-44865003D01*
X-52053720Y-44739040D01*
X-52214040Y-44578720D01*
X-52340003Y-44390203D01*
X-52426768Y-44180734D01*
X-52471000Y-43958364D01*
X-52471000Y-43731636D01*
X-52468884Y-43721000D01*
X-52426768Y-43509267D01*
X-52340004Y-43299799D01*
X-52273094Y-43199661D01*
X-52214040Y-43111280D01*
X-52053720Y-42950960D01*
X-51865203Y-42824997D01*
X-51655734Y-42738232D01*
X-51544549Y-42716116D01*
X-51433365Y-42694000D01*
X-51206635Y-42694000D01*
X-51095451Y-42716116D01*
G37*
G36*
X-43153331Y-40127686D02*
G01*
X-42976942Y-40145059D01*
X-42637452Y-40248042D01*
X-42637450Y-40248043D01*
X-42324578Y-40415277D01*
X-42050339Y-40640339D01*
X-41825277Y-40914578D01*
X-41817547Y-40929040D01*
X-41658042Y-41227452D01*
X-41555059Y-41566942D01*
X-41520286Y-41920000D01*
X-41555059Y-42273058D01*
X-41658042Y-42612548D01*
X-41658043Y-42612550D01*
X-41825277Y-42925422D01*
X-42050339Y-43199661D01*
X-42324578Y-43424723D01*
X-42637450Y-43591957D01*
X-42637452Y-43591958D01*
X-42976942Y-43694941D01*
X-43153331Y-43712314D01*
X-43241524Y-43721000D01*
X-46918476Y-43721000D01*
X-47006669Y-43712314D01*
X-47183058Y-43694941D01*
X-47522548Y-43591958D01*
X-47522550Y-43591957D01*
X-47835422Y-43424723D01*
X-48109661Y-43199661D01*
X-48334723Y-42925422D01*
X-48501957Y-42612550D01*
X-48501958Y-42612548D01*
X-48604941Y-42273058D01*
X-48639714Y-41920000D01*
X-48604941Y-41566942D01*
X-48501958Y-41227452D01*
X-48342453Y-40929040D01*
X-48334723Y-40914578D01*
X-48109661Y-40640339D01*
X-47835422Y-40415277D01*
X-47522550Y-40248043D01*
X-47522548Y-40248042D01*
X-47183058Y-40145059D01*
X-47006669Y-40127686D01*
X-46918476Y-40119000D01*
X-43241524Y-40119000D01*
X-43153331Y-40127686D01*
G37*
G36*
X-56175451Y-40811116D02*
G01*
X-56064266Y-40833232D01*
X-55916150Y-40894584D01*
X-55867879Y-40914578D01*
X-55854797Y-40919997D01*
X-55666280Y-41045960D01*
X-55505960Y-41206280D01*
X-55379997Y-41394797D01*
X-55293232Y-41604266D01*
X-55249000Y-41826636D01*
X-55249000Y-42053364D01*
X-55293232Y-42275734D01*
X-55379997Y-42485203D01*
X-55505960Y-42673720D01*
X-55666280Y-42834040D01*
X-55854797Y-42960003D01*
X-56064266Y-43046768D01*
X-56175451Y-43068884D01*
X-56286635Y-43091000D01*
X-56513365Y-43091000D01*
X-56624549Y-43068884D01*
X-56735734Y-43046768D01*
X-56945203Y-42960003D01*
X-57133720Y-42834040D01*
X-57294040Y-42673720D01*
X-57420003Y-42485203D01*
X-57506768Y-42275734D01*
X-57551000Y-42053364D01*
X-57551000Y-41826636D01*
X-57506768Y-41604266D01*
X-57420003Y-41394797D01*
X-57294040Y-41206280D01*
X-57133720Y-41045960D01*
X-56945203Y-40919997D01*
X-56932120Y-40914578D01*
X-56883850Y-40894584D01*
X-56735734Y-40833232D01*
X-56624549Y-40811116D01*
X-56513365Y-40789000D01*
X-56286635Y-40789000D01*
X-56175451Y-40811116D01*
G37*
G36*
X-51095451Y-38906116D02*
G01*
X-50984266Y-38928232D01*
X-50774797Y-39014997D01*
X-50586280Y-39140960D01*
X-50425960Y-39301280D01*
X-50299997Y-39489797D01*
X-50213232Y-39699266D01*
X-50169000Y-39921636D01*
X-50169000Y-40148364D01*
X-50213232Y-40370734D01*
X-50299997Y-40580203D01*
X-50425960Y-40768720D01*
X-50586280Y-40929040D01*
X-50774797Y-41055003D01*
X-50984266Y-41141768D01*
X-51095451Y-41163884D01*
X-51206635Y-41186000D01*
X-51433365Y-41186000D01*
X-51544549Y-41163884D01*
X-51655734Y-41141768D01*
X-51865203Y-41055003D01*
X-52053720Y-40929040D01*
X-52214040Y-40768720D01*
X-52340003Y-40580203D01*
X-52426768Y-40370734D01*
X-52471000Y-40148364D01*
X-52471000Y-39921636D01*
X-52426768Y-39699266D01*
X-52340003Y-39489797D01*
X-52214040Y-39301280D01*
X-52053720Y-39140960D01*
X-51865203Y-39014997D01*
X-51655734Y-38928232D01*
X-51544549Y-38906116D01*
X-51433365Y-38884000D01*
X-51206635Y-38884000D01*
X-51095451Y-38906116D01*
G37*
G36*
X-56175451Y-37001116D02*
G01*
X-56064266Y-37023232D01*
X-55854797Y-37109997D01*
X-55666280Y-37235960D01*
X-55505960Y-37396280D01*
X-55379997Y-37584797D01*
X-55293232Y-37794266D01*
X-55249000Y-38016636D01*
X-55249000Y-38243364D01*
X-55293232Y-38465734D01*
X-55379997Y-38675203D01*
X-55505960Y-38863720D01*
X-55666280Y-39024040D01*
X-55854797Y-39150003D01*
X-56064266Y-39236768D01*
X-56175451Y-39258884D01*
X-56286635Y-39281000D01*
X-56513365Y-39281000D01*
X-56624549Y-39258884D01*
X-56735734Y-39236768D01*
X-56945203Y-39150003D01*
X-57133720Y-39024040D01*
X-57294040Y-38863720D01*
X-57420003Y-38675203D01*
X-57506768Y-38465734D01*
X-57551000Y-38243364D01*
X-57551000Y-38016636D01*
X-57506768Y-37794266D01*
X-57420003Y-37584797D01*
X-57294040Y-37396280D01*
X-57133720Y-37235960D01*
X-56945203Y-37109997D01*
X-56735734Y-37023232D01*
X-56624549Y-37001116D01*
X-56513365Y-36979000D01*
X-56286635Y-36979000D01*
X-56175451Y-37001116D01*
G37*
G36*
X-43153331Y-34287686D02*
G01*
X-42976942Y-34305059D01*
X-42637452Y-34408042D01*
X-42637450Y-34408043D01*
X-42324578Y-34575277D01*
X-42050339Y-34800339D01*
X-41825277Y-35074578D01*
X-41658043Y-35387450D01*
X-41658042Y-35387452D01*
X-41555059Y-35726942D01*
X-41520286Y-36080000D01*
X-41555059Y-36433058D01*
X-41657330Y-36770201D01*
X-41658043Y-36772550D01*
X-41825277Y-37085422D01*
X-42050339Y-37359661D01*
X-42324578Y-37584723D01*
X-42637450Y-37751957D01*
X-42637452Y-37751958D01*
X-42976942Y-37854941D01*
X-43153331Y-37872314D01*
X-43241524Y-37881000D01*
X-46918476Y-37881000D01*
X-47006669Y-37872314D01*
X-47183058Y-37854941D01*
X-47522548Y-37751958D01*
X-47522550Y-37751957D01*
X-47835422Y-37584723D01*
X-48109661Y-37359661D01*
X-48334723Y-37085422D01*
X-48501957Y-36772550D01*
X-48502670Y-36770201D01*
X-48604941Y-36433058D01*
X-48639714Y-36080000D01*
X-48604941Y-35726942D01*
X-48501958Y-35387452D01*
X-48501957Y-35387450D01*
X-48334723Y-35074578D01*
X-48109661Y-34800339D01*
X-47835422Y-34575277D01*
X-47522550Y-34408043D01*
X-47522548Y-34408042D01*
X-47183058Y-34305059D01*
X-47006669Y-34287686D01*
X-46918476Y-34279000D01*
X-43241524Y-34279000D01*
X-43153331Y-34287686D01*
G37*
G36*
X-51095451Y-35096116D02*
G01*
X-50984266Y-35118232D01*
X-50774797Y-35204997D01*
X-50586280Y-35330960D01*
X-50425960Y-35491280D01*
X-50299997Y-35679797D01*
X-50213232Y-35889266D01*
X-50169000Y-36111636D01*
X-50169000Y-36338364D01*
X-50213232Y-36560734D01*
X-50299997Y-36770203D01*
X-50425960Y-36958720D01*
X-50586280Y-37119040D01*
X-50774797Y-37245003D01*
X-50984266Y-37331768D01*
X-51095451Y-37353884D01*
X-51206635Y-37376000D01*
X-51433365Y-37376000D01*
X-51544549Y-37353884D01*
X-51655734Y-37331768D01*
X-51865203Y-37245003D01*
X-52053720Y-37119040D01*
X-52214040Y-36958720D01*
X-52340003Y-36770203D01*
X-52426768Y-36560734D01*
X-52471000Y-36338364D01*
X-52471000Y-36111636D01*
X-52426768Y-35889266D01*
X-52340003Y-35679797D01*
X-52214040Y-35491280D01*
X-52053720Y-35330960D01*
X-51865203Y-35204997D01*
X-51655734Y-35118232D01*
X-51544549Y-35096116D01*
X-51433365Y-35074000D01*
X-51206635Y-35074000D01*
X-51095451Y-35096116D01*
G37*
G36*
X-56175451Y-33191116D02*
G01*
X-56064266Y-33213232D01*
X-55854797Y-33299997D01*
X-55666280Y-33425960D01*
X-55505960Y-33586280D01*
X-55379997Y-33774797D01*
X-55293232Y-33984266D01*
X-55249000Y-34206636D01*
X-55249000Y-34433364D01*
X-55293232Y-34655734D01*
X-55379997Y-34865203D01*
X-55505960Y-35053720D01*
X-55666280Y-35214040D01*
X-55854797Y-35340003D01*
X-56064266Y-35426768D01*
X-56175451Y-35448884D01*
X-56286635Y-35471000D01*
X-56513365Y-35471000D01*
X-56624549Y-35448884D01*
X-56735734Y-35426768D01*
X-56945203Y-35340003D01*
X-57133720Y-35214040D01*
X-57294040Y-35053720D01*
X-57420003Y-34865203D01*
X-57506768Y-34655734D01*
X-57551000Y-34433364D01*
X-57551000Y-34206636D01*
X-57506768Y-33984266D01*
X-57420003Y-33774797D01*
X-57294040Y-33586280D01*
X-57133720Y-33425960D01*
X-56945203Y-33299997D01*
X-56735734Y-33213232D01*
X-56624549Y-33191116D01*
X-56513365Y-33169000D01*
X-56286635Y-33169000D01*
X-56175451Y-33191116D01*
G37*
G36*
X-39383177Y-32701313D02*
G01*
X-39222758Y-32749976D01*
X-39090094Y-32820886D01*
X-39074922Y-32828996D01*
X-38945341Y-32935341D01*
X-38838996Y-33064922D01*
X-38838995Y-33064924D01*
X-38759976Y-33212758D01*
X-38711313Y-33373177D01*
X-38694883Y-33540000D01*
X-38711313Y-33706823D01*
X-38759976Y-33867242D01*
X-38822527Y-33984266D01*
X-38838996Y-34015078D01*
X-38945341Y-34144659D01*
X-39074922Y-34251004D01*
X-39074924Y-34251005D01*
X-39222758Y-34330024D01*
X-39383177Y-34378687D01*
X-39508196Y-34391000D01*
X-40491804Y-34391000D01*
X-40616823Y-34378687D01*
X-40777242Y-34330024D01*
X-40925076Y-34251005D01*
X-40925078Y-34251004D01*
X-41054659Y-34144659D01*
X-41161004Y-34015078D01*
X-41177473Y-33984266D01*
X-41240024Y-33867242D01*
X-41288687Y-33706823D01*
X-41305117Y-33540000D01*
X-41288687Y-33373177D01*
X-41240024Y-33212758D01*
X-41161005Y-33064924D01*
X-41161004Y-33064922D01*
X-41054659Y-32935341D01*
X-40925078Y-32828996D01*
X-40909906Y-32820886D01*
X-40777242Y-32749976D01*
X-40616823Y-32701313D01*
X-40491804Y-32689000D01*
X-39508196Y-32689000D01*
X-39383177Y-32701313D01*
G37*
G36*
X-51095451Y-31286116D02*
G01*
X-50984266Y-31308232D01*
X-50774797Y-31394997D01*
X-50586280Y-31520960D01*
X-50425960Y-31681280D01*
X-50299997Y-31869797D01*
X-50213232Y-32079266D01*
X-50169000Y-32301636D01*
X-50169000Y-32528364D01*
X-50213232Y-32750734D01*
X-50299997Y-32960203D01*
X-50425960Y-33148720D01*
X-50586280Y-33309040D01*
X-50774797Y-33435003D01*
X-50984266Y-33521768D01*
X-51075925Y-33540000D01*
X-51206635Y-33566000D01*
X-51433365Y-33566000D01*
X-51564075Y-33540000D01*
X-51655734Y-33521768D01*
X-51865203Y-33435003D01*
X-52053720Y-33309040D01*
X-52214040Y-33148720D01*
X-52340003Y-32960203D01*
X-52426768Y-32750734D01*
X-52471000Y-32528364D01*
X-52471000Y-32301636D01*
X-52426768Y-32079266D01*
X-52340003Y-31869797D01*
X-52214040Y-31681280D01*
X-52053720Y-31520960D01*
X-51865203Y-31394997D01*
X-51655734Y-31308232D01*
X-51544549Y-31286116D01*
X-51433365Y-31264000D01*
X-51206635Y-31264000D01*
X-51095451Y-31286116D01*
G37*
G36*
X-39383177Y-30161313D02*
G01*
X-39222758Y-30209976D01*
X-39090094Y-30280886D01*
X-39074922Y-30288996D01*
X-38945341Y-30395341D01*
X-38838996Y-30524922D01*
X-38838995Y-30524924D01*
X-38759976Y-30672758D01*
X-38711313Y-30833177D01*
X-38694883Y-31000000D01*
X-38711313Y-31166823D01*
X-38759976Y-31327242D01*
X-38796192Y-31394997D01*
X-38838996Y-31475078D01*
X-38945341Y-31604659D01*
X-39074922Y-31711004D01*
X-39074924Y-31711005D01*
X-39222758Y-31790024D01*
X-39383177Y-31838687D01*
X-39508196Y-31851000D01*
X-40491804Y-31851000D01*
X-40616823Y-31838687D01*
X-40777242Y-31790024D01*
X-40925076Y-31711005D01*
X-40925078Y-31711004D01*
X-41054659Y-31604659D01*
X-41161004Y-31475078D01*
X-41203808Y-31394997D01*
X-41240024Y-31327242D01*
X-41288687Y-31166823D01*
X-41305117Y-31000000D01*
X-41288687Y-30833177D01*
X-41240024Y-30672758D01*
X-41161005Y-30524924D01*
X-41161004Y-30524922D01*
X-41054659Y-30395341D01*
X-40925078Y-30288996D01*
X-40909906Y-30280886D01*
X-40777242Y-30209976D01*
X-40616823Y-30161313D01*
X-40491804Y-30149000D01*
X-39508196Y-30149000D01*
X-39383177Y-30161313D01*
G37*
G36*
X-43153331Y-24127686D02*
G01*
X-42976942Y-24145059D01*
X-42637452Y-24248042D01*
X-42637450Y-24248043D01*
X-42324578Y-24415277D01*
X-42324576Y-24415278D01*
X-42324577Y-24415278D01*
X-42050339Y-24640339D01*
X-41825278Y-24914577D01*
X-41658042Y-25227452D01*
X-41555059Y-25566942D01*
X-41520286Y-25920000D01*
X-41555059Y-26273058D01*
X-41658042Y-26612548D01*
X-41658043Y-26612550D01*
X-41825277Y-26925422D01*
X-42050339Y-27199661D01*
X-42324578Y-27424723D01*
X-42637450Y-27591957D01*
X-42637452Y-27591958D01*
X-42976942Y-27694941D01*
X-43153331Y-27712314D01*
X-43241524Y-27721000D01*
X-46918476Y-27721000D01*
X-47006669Y-27712314D01*
X-47183058Y-27694941D01*
X-47522548Y-27591958D01*
X-47522550Y-27591957D01*
X-47835422Y-27424723D01*
X-48109661Y-27199661D01*
X-48334723Y-26925422D01*
X-48501957Y-26612550D01*
X-48501958Y-26612548D01*
X-48604941Y-26273058D01*
X-48639714Y-25920000D01*
X-48604941Y-25566942D01*
X-48501958Y-25227452D01*
X-48334722Y-24914577D01*
X-48109661Y-24640339D01*
X-47835423Y-24415278D01*
X-47835424Y-24415278D01*
X-47835422Y-24415277D01*
X-47522550Y-24248043D01*
X-47522548Y-24248042D01*
X-47183058Y-24145059D01*
X-47006669Y-24127686D01*
X-46918476Y-24119000D01*
X-43241524Y-24119000D01*
X-43153331Y-24127686D01*
G37*
G36*
X-39624744Y-17891298D02*
G01*
X-39518421Y-17912447D01*
X-39217958Y-18036903D01*
X-38947549Y-18217585D01*
X-38717585Y-18447549D01*
X-38536903Y-18717958D01*
X-38412447Y-19018421D01*
X-38349000Y-19337391D01*
X-38349000Y-19662609D01*
X-38412447Y-19981579D01*
X-38536903Y-20282042D01*
X-38717585Y-20552451D01*
X-38947549Y-20782415D01*
X-39217958Y-20963097D01*
X-39518421Y-21087553D01*
X-39624744Y-21108702D01*
X-39837389Y-21151000D01*
X-40162611Y-21151000D01*
X-40375256Y-21108702D01*
X-40481579Y-21087553D01*
X-40782042Y-20963097D01*
X-41052451Y-20782415D01*
X-41282415Y-20552451D01*
X-41463097Y-20282042D01*
X-41587553Y-19981579D01*
X-41651000Y-19662609D01*
X-41651000Y-19337391D01*
X-41587553Y-19018421D01*
X-41463097Y-18717958D01*
X-41282415Y-18447549D01*
X-41052451Y-18217585D01*
X-40782042Y-18036903D01*
X-40481579Y-17912447D01*
X-40375256Y-17891298D01*
X-40162611Y-17849000D01*
X-39837389Y-17849000D01*
X-39624744Y-17891298D01*
G37*
M02*
