G04 #@! TF.GenerationSoftware,KiCad,Pcbnew,(5.1.5)-2*
G04 #@! TF.CreationDate,2020-03-12T22:48:03+13:00*
G04 #@! TF.ProjectId,JVCard,4a564361-7264-42e6-9b69-6361645f7063,rev?*
G04 #@! TF.SameCoordinates,Original*
G04 #@! TF.FileFunction,Legend,Top*
G04 #@! TF.FilePolarity,Positive*
%FSLAX46Y46*%
G04 Gerber Fmt 4.6, Leading zero omitted, Abs format (unit mm)*
G04 Created by KiCad (PCBNEW (5.1.5)-2) date 2020-03-12 22:48:03*
%MOMM*%
%LPD*%
G04 APERTURE LIST*
%ADD10C,0.400000*%
%ADD11C,0.200000*%
%ADD12C,0.120000*%
%ADD13C,0.150000*%
G04 APERTURE END LIST*
D10*
X21723809Y-11504761D02*
X21723809Y-12933333D01*
X21628571Y-13219047D01*
X21438095Y-13409523D01*
X21152380Y-13504761D01*
X20961904Y-13504761D01*
X22390476Y-11504761D02*
X23057142Y-13504761D01*
X23723809Y-11504761D01*
X25533333Y-13314285D02*
X25438095Y-13409523D01*
X25152380Y-13504761D01*
X24961904Y-13504761D01*
X24676190Y-13409523D01*
X24485714Y-13219047D01*
X24390476Y-13028571D01*
X24295238Y-12647619D01*
X24295238Y-12361904D01*
X24390476Y-11980952D01*
X24485714Y-11790476D01*
X24676190Y-11600000D01*
X24961904Y-11504761D01*
X25152380Y-11504761D01*
X25438095Y-11600000D01*
X25533333Y-11695238D01*
X29057142Y-13504761D02*
X28390476Y-12552380D01*
X27914285Y-13504761D02*
X27914285Y-11504761D01*
X28676190Y-11504761D01*
X28866666Y-11600000D01*
X28961904Y-11695238D01*
X29057142Y-11885714D01*
X29057142Y-12171428D01*
X28961904Y-12361904D01*
X28866666Y-12457142D01*
X28676190Y-12552380D01*
X27914285Y-12552380D01*
X30961904Y-11600000D02*
X30771428Y-11504761D01*
X30485714Y-11504761D01*
X30199999Y-11600000D01*
X30009523Y-11790476D01*
X29914285Y-11980952D01*
X29819047Y-12361904D01*
X29819047Y-12647619D01*
X29914285Y-13028571D01*
X30009523Y-13219047D01*
X30199999Y-13409523D01*
X30485714Y-13504761D01*
X30676190Y-13504761D01*
X30961904Y-13409523D01*
X31057142Y-13314285D01*
X31057142Y-12647619D01*
X30676190Y-12647619D01*
X32580952Y-12457142D02*
X32866666Y-12552380D01*
X32961904Y-12647619D01*
X33057142Y-12838095D01*
X33057142Y-13123809D01*
X32961904Y-13314285D01*
X32866666Y-13409523D01*
X32676190Y-13504761D01*
X31914285Y-13504761D01*
X31914285Y-11504761D01*
X32580952Y-11504761D01*
X32771428Y-11600000D01*
X32866666Y-11695238D01*
X32961904Y-11885714D01*
X32961904Y-12076190D01*
X32866666Y-12266666D01*
X32771428Y-12361904D01*
X32580952Y-12457142D01*
X31914285Y-12457142D01*
X35342857Y-11409523D02*
X33628571Y-13980952D01*
X36390476Y-12552380D02*
X36390476Y-13504761D01*
X35723809Y-11504761D02*
X36390476Y-12552380D01*
X37057142Y-11504761D01*
X37723809Y-13504761D02*
X37723809Y-11504761D01*
X38485714Y-11504761D01*
X38676190Y-11600000D01*
X38771428Y-11695238D01*
X38866666Y-11885714D01*
X38866666Y-12171428D01*
X38771428Y-12361904D01*
X38676190Y-12457142D01*
X38485714Y-12552380D01*
X37723809Y-12552380D01*
X39723809Y-13504761D02*
X39723809Y-11504761D01*
X39723809Y-12266666D02*
X39914285Y-12171428D01*
X40295238Y-12171428D01*
X40485714Y-12266666D01*
X40580952Y-12361904D01*
X40676190Y-12552380D01*
X40676190Y-13123809D01*
X40580952Y-13314285D01*
X40485714Y-13409523D01*
X40295238Y-13504761D01*
X39914285Y-13504761D01*
X39723809Y-13409523D01*
X41533333Y-13504761D02*
X41533333Y-11504761D01*
X42295238Y-11504761D01*
X42485714Y-11600000D01*
X42580952Y-11695238D01*
X42676190Y-11885714D01*
X42676190Y-12171428D01*
X42580952Y-12361904D01*
X42485714Y-12457142D01*
X42295238Y-12552380D01*
X41533333Y-12552380D01*
X43533333Y-13504761D02*
X43533333Y-12171428D01*
X43533333Y-12552380D02*
X43628571Y-12361904D01*
X43723809Y-12266666D01*
X43914285Y-12171428D01*
X44104761Y-12171428D01*
X46295238Y-13504761D02*
X46295238Y-11504761D01*
X47247619Y-12171428D02*
X47247619Y-13504761D01*
X47247619Y-12361904D02*
X47342857Y-12266666D01*
X47533333Y-12171428D01*
X47819047Y-12171428D01*
X48009523Y-12266666D01*
X48104761Y-12457142D01*
X48104761Y-13504761D01*
X49057142Y-12171428D02*
X49057142Y-14171428D01*
X49057142Y-12266666D02*
X49247619Y-12171428D01*
X49628571Y-12171428D01*
X49819047Y-12266666D01*
X49914285Y-12361904D01*
X50009523Y-12552380D01*
X50009523Y-13123809D01*
X49914285Y-13314285D01*
X49819047Y-13409523D01*
X49628571Y-13504761D01*
X49247619Y-13504761D01*
X49057142Y-13409523D01*
X51723809Y-12171428D02*
X51723809Y-13504761D01*
X50866666Y-12171428D02*
X50866666Y-13219047D01*
X50961904Y-13409523D01*
X51152380Y-13504761D01*
X51438095Y-13504761D01*
X51628571Y-13409523D01*
X51723809Y-13314285D01*
X52390476Y-12171428D02*
X53152380Y-12171428D01*
X52676190Y-11504761D02*
X52676190Y-13219047D01*
X52771428Y-13409523D01*
X52961904Y-13504761D01*
X53152380Y-13504761D01*
X56485714Y-13314285D02*
X56390476Y-13409523D01*
X56104761Y-13504761D01*
X55914285Y-13504761D01*
X55628571Y-13409523D01*
X55438095Y-13219047D01*
X55342857Y-13028571D01*
X55247619Y-12647619D01*
X55247619Y-12361904D01*
X55342857Y-11980952D01*
X55438095Y-11790476D01*
X55628571Y-11600000D01*
X55914285Y-11504761D01*
X56104761Y-11504761D01*
X56390476Y-11600000D01*
X56485714Y-11695238D01*
X58200000Y-13504761D02*
X58200000Y-12457142D01*
X58104761Y-12266666D01*
X57914285Y-12171428D01*
X57533333Y-12171428D01*
X57342857Y-12266666D01*
X58200000Y-13409523D02*
X58009523Y-13504761D01*
X57533333Y-13504761D01*
X57342857Y-13409523D01*
X57247619Y-13219047D01*
X57247619Y-13028571D01*
X57342857Y-12838095D01*
X57533333Y-12742857D01*
X58009523Y-12742857D01*
X58200000Y-12647619D01*
X59152380Y-13504761D02*
X59152380Y-12171428D01*
X59152380Y-12552380D02*
X59247619Y-12361904D01*
X59342857Y-12266666D01*
X59533333Y-12171428D01*
X59723809Y-12171428D01*
X61247619Y-13504761D02*
X61247619Y-11504761D01*
X61247619Y-13409523D02*
X61057142Y-13504761D01*
X60676190Y-13504761D01*
X60485714Y-13409523D01*
X60390476Y-13314285D01*
X60295238Y-13123809D01*
X60295238Y-12552380D01*
X60390476Y-12361904D01*
X60485714Y-12266666D01*
X60676190Y-12171428D01*
X61057142Y-12171428D01*
X61247619Y-12266666D01*
D11*
X22282380Y-16085714D02*
X22220476Y-16157142D01*
X22034761Y-16228571D01*
X21910952Y-16228571D01*
X21725238Y-16157142D01*
X21601428Y-16014285D01*
X21539523Y-15871428D01*
X21477619Y-15585714D01*
X21477619Y-15371428D01*
X21539523Y-15085714D01*
X21601428Y-14942857D01*
X21725238Y-14800000D01*
X21910952Y-14728571D01*
X22034761Y-14728571D01*
X22220476Y-14800000D01*
X22282380Y-14871428D01*
X23025238Y-16228571D02*
X22901428Y-16157142D01*
X22839523Y-16085714D01*
X22777619Y-15942857D01*
X22777619Y-15514285D01*
X22839523Y-15371428D01*
X22901428Y-15300000D01*
X23025238Y-15228571D01*
X23210952Y-15228571D01*
X23334761Y-15300000D01*
X23396666Y-15371428D01*
X23458571Y-15514285D01*
X23458571Y-15942857D01*
X23396666Y-16085714D01*
X23334761Y-16157142D01*
X23210952Y-16228571D01*
X23025238Y-16228571D01*
X24015714Y-16228571D02*
X24015714Y-15228571D01*
X24015714Y-15371428D02*
X24077619Y-15300000D01*
X24201428Y-15228571D01*
X24387142Y-15228571D01*
X24510952Y-15300000D01*
X24572857Y-15442857D01*
X24572857Y-16228571D01*
X24572857Y-15442857D02*
X24634761Y-15300000D01*
X24758571Y-15228571D01*
X24944285Y-15228571D01*
X25068095Y-15300000D01*
X25130000Y-15442857D01*
X25130000Y-16228571D01*
X25749047Y-15228571D02*
X25749047Y-16728571D01*
X25749047Y-15300000D02*
X25872857Y-15228571D01*
X26120476Y-15228571D01*
X26244285Y-15300000D01*
X26306190Y-15371428D01*
X26368095Y-15514285D01*
X26368095Y-15942857D01*
X26306190Y-16085714D01*
X26244285Y-16157142D01*
X26120476Y-16228571D01*
X25872857Y-16228571D01*
X25749047Y-16157142D01*
X27482380Y-16228571D02*
X27482380Y-15442857D01*
X27420476Y-15300000D01*
X27296666Y-15228571D01*
X27049047Y-15228571D01*
X26925238Y-15300000D01*
X27482380Y-16157142D02*
X27358571Y-16228571D01*
X27049047Y-16228571D01*
X26925238Y-16157142D01*
X26863333Y-16014285D01*
X26863333Y-15871428D01*
X26925238Y-15728571D01*
X27049047Y-15657142D01*
X27358571Y-15657142D01*
X27482380Y-15585714D01*
X27915714Y-15228571D02*
X28410952Y-15228571D01*
X28101428Y-14728571D02*
X28101428Y-16014285D01*
X28163333Y-16157142D01*
X28287142Y-16228571D01*
X28410952Y-16228571D01*
X28844285Y-16228571D02*
X28844285Y-15228571D01*
X28844285Y-14728571D02*
X28782380Y-14800000D01*
X28844285Y-14871428D01*
X28906190Y-14800000D01*
X28844285Y-14728571D01*
X28844285Y-14871428D01*
X29463333Y-16228571D02*
X29463333Y-14728571D01*
X29463333Y-15300000D02*
X29587142Y-15228571D01*
X29834761Y-15228571D01*
X29958571Y-15300000D01*
X30020476Y-15371428D01*
X30082380Y-15514285D01*
X30082380Y-15942857D01*
X30020476Y-16085714D01*
X29958571Y-16157142D01*
X29834761Y-16228571D01*
X29587142Y-16228571D01*
X29463333Y-16157142D01*
X30825238Y-16228571D02*
X30701428Y-16157142D01*
X30639523Y-16014285D01*
X30639523Y-14728571D01*
X31815714Y-16157142D02*
X31691904Y-16228571D01*
X31444285Y-16228571D01*
X31320476Y-16157142D01*
X31258571Y-16014285D01*
X31258571Y-15442857D01*
X31320476Y-15300000D01*
X31444285Y-15228571D01*
X31691904Y-15228571D01*
X31815714Y-15300000D01*
X31877619Y-15442857D01*
X31877619Y-15585714D01*
X31258571Y-15728571D01*
X33301428Y-15228571D02*
X33549047Y-16228571D01*
X33796666Y-15514285D01*
X34044285Y-16228571D01*
X34291904Y-15228571D01*
X34787142Y-16228571D02*
X34787142Y-15228571D01*
X34787142Y-14728571D02*
X34725238Y-14800000D01*
X34787142Y-14871428D01*
X34849047Y-14800000D01*
X34787142Y-14728571D01*
X34787142Y-14871428D01*
X35220476Y-15228571D02*
X35715714Y-15228571D01*
X35406190Y-14728571D02*
X35406190Y-16014285D01*
X35468095Y-16157142D01*
X35591904Y-16228571D01*
X35715714Y-16228571D01*
X36149047Y-16228571D02*
X36149047Y-14728571D01*
X36706190Y-16228571D02*
X36706190Y-15442857D01*
X36644285Y-15300000D01*
X36520476Y-15228571D01*
X36334761Y-15228571D01*
X36210952Y-15300000D01*
X36149047Y-15371428D01*
X38687142Y-14728571D02*
X38687142Y-15800000D01*
X38625238Y-16014285D01*
X38501428Y-16157142D01*
X38315714Y-16228571D01*
X38191904Y-16228571D01*
X39120476Y-14728571D02*
X39553809Y-16228571D01*
X39987142Y-14728571D01*
X41163333Y-16085714D02*
X41101428Y-16157142D01*
X40915714Y-16228571D01*
X40791904Y-16228571D01*
X40606190Y-16157142D01*
X40482380Y-16014285D01*
X40420476Y-15871428D01*
X40358571Y-15585714D01*
X40358571Y-15371428D01*
X40420476Y-15085714D01*
X40482380Y-14942857D01*
X40606190Y-14800000D01*
X40791904Y-14728571D01*
X40915714Y-14728571D01*
X41101428Y-14800000D01*
X41163333Y-14871428D01*
X42710952Y-16228571D02*
X42710952Y-14728571D01*
X43763333Y-15442857D02*
X43330000Y-15442857D01*
X43330000Y-16228571D02*
X43330000Y-14728571D01*
X43949047Y-14728571D01*
X44444285Y-15657142D02*
X45434761Y-15657142D01*
X46796666Y-16085714D02*
X46734761Y-16157142D01*
X46549047Y-16228571D01*
X46425238Y-16228571D01*
X46239523Y-16157142D01*
X46115714Y-16014285D01*
X46053809Y-15871428D01*
X45991904Y-15585714D01*
X45991904Y-15371428D01*
X46053809Y-15085714D01*
X46115714Y-14942857D01*
X46239523Y-14800000D01*
X46425238Y-14728571D01*
X46549047Y-14728571D01*
X46734761Y-14800000D01*
X46796666Y-14871428D01*
X47601428Y-14728571D02*
X47725238Y-14728571D01*
X47849047Y-14800000D01*
X47910952Y-14871428D01*
X47972857Y-15014285D01*
X48034761Y-15300000D01*
X48034761Y-15657142D01*
X47972857Y-15942857D01*
X47910952Y-16085714D01*
X47849047Y-16157142D01*
X47725238Y-16228571D01*
X47601428Y-16228571D01*
X47477619Y-16157142D01*
X47415714Y-16085714D01*
X47353809Y-15942857D01*
X47291904Y-15657142D01*
X47291904Y-15300000D01*
X47353809Y-15014285D01*
X47415714Y-14871428D01*
X47477619Y-14800000D01*
X47601428Y-14728571D01*
X49272857Y-16228571D02*
X48530000Y-16228571D01*
X48901428Y-16228571D02*
X48901428Y-14728571D01*
X48777619Y-14942857D01*
X48653809Y-15085714D01*
X48530000Y-15157142D01*
X50572857Y-16085714D02*
X50510952Y-16157142D01*
X50325238Y-16228571D01*
X50201428Y-16228571D01*
X50015714Y-16157142D01*
X49891904Y-16014285D01*
X49830000Y-15871428D01*
X49768095Y-15585714D01*
X49768095Y-15371428D01*
X49830000Y-15085714D01*
X49891904Y-14942857D01*
X50015714Y-14800000D01*
X50201428Y-14728571D01*
X50325238Y-14728571D01*
X50510952Y-14800000D01*
X50572857Y-14871428D01*
X51377619Y-14728571D02*
X51625238Y-14728571D01*
X51749047Y-14800000D01*
X51872857Y-14942857D01*
X51934761Y-15228571D01*
X51934761Y-15728571D01*
X51872857Y-16014285D01*
X51749047Y-16157142D01*
X51625238Y-16228571D01*
X51377619Y-16228571D01*
X51253809Y-16157142D01*
X51130000Y-16014285D01*
X51068095Y-15728571D01*
X51068095Y-15228571D01*
X51130000Y-14942857D01*
X51253809Y-14800000D01*
X51377619Y-14728571D01*
X52491904Y-16228571D02*
X52491904Y-14728571D01*
X52925238Y-15800000D01*
X53358571Y-14728571D01*
X53358571Y-16228571D01*
X54658571Y-14800000D02*
X54534761Y-14728571D01*
X54349047Y-14728571D01*
X54163333Y-14800000D01*
X54039523Y-14942857D01*
X53977619Y-15085714D01*
X53915714Y-15371428D01*
X53915714Y-15585714D01*
X53977619Y-15871428D01*
X54039523Y-16014285D01*
X54163333Y-16157142D01*
X54349047Y-16228571D01*
X54472857Y-16228571D01*
X54658571Y-16157142D01*
X54720476Y-16085714D01*
X54720476Y-15585714D01*
X54472857Y-15585714D01*
X57196666Y-14657142D02*
X56082380Y-16585714D01*
X58620476Y-16228571D02*
X58620476Y-14728571D01*
X59115714Y-14728571D01*
X59239523Y-14800000D01*
X59301428Y-14871428D01*
X59363333Y-15014285D01*
X59363333Y-15228571D01*
X59301428Y-15371428D01*
X59239523Y-15442857D01*
X59115714Y-15514285D01*
X58620476Y-15514285D01*
X60477619Y-16228571D02*
X60477619Y-15442857D01*
X60415714Y-15300000D01*
X60291904Y-15228571D01*
X60044285Y-15228571D01*
X59920476Y-15300000D01*
X60477619Y-16157142D02*
X60353809Y-16228571D01*
X60044285Y-16228571D01*
X59920476Y-16157142D01*
X59858571Y-16014285D01*
X59858571Y-15871428D01*
X59920476Y-15728571D01*
X60044285Y-15657142D01*
X60353809Y-15657142D01*
X60477619Y-15585714D01*
X61096666Y-15228571D02*
X61096666Y-16228571D01*
X61096666Y-15371428D02*
X61158571Y-15300000D01*
X61282380Y-15228571D01*
X61468095Y-15228571D01*
X61591904Y-15300000D01*
X61653809Y-15442857D01*
X61653809Y-16228571D01*
X62830000Y-16228571D02*
X62830000Y-15442857D01*
X62768095Y-15300000D01*
X62644285Y-15228571D01*
X62396666Y-15228571D01*
X62272857Y-15300000D01*
X62830000Y-16157142D02*
X62706190Y-16228571D01*
X62396666Y-16228571D01*
X62272857Y-16157142D01*
X62210952Y-16014285D01*
X62210952Y-15871428D01*
X62272857Y-15728571D01*
X62396666Y-15657142D01*
X62706190Y-15657142D01*
X62830000Y-15585714D01*
X63387142Y-16157142D02*
X63510952Y-16228571D01*
X63758571Y-16228571D01*
X63882380Y-16157142D01*
X63944285Y-16014285D01*
X63944285Y-15942857D01*
X63882380Y-15800000D01*
X63758571Y-15728571D01*
X63572857Y-15728571D01*
X63449047Y-15657142D01*
X63387142Y-15514285D01*
X63387142Y-15442857D01*
X63449047Y-15300000D01*
X63572857Y-15228571D01*
X63758571Y-15228571D01*
X63882380Y-15300000D01*
X64687142Y-16228571D02*
X64563333Y-16157142D01*
X64501428Y-16085714D01*
X64439523Y-15942857D01*
X64439523Y-15514285D01*
X64501428Y-15371428D01*
X64563333Y-15300000D01*
X64687142Y-15228571D01*
X64872857Y-15228571D01*
X64996666Y-15300000D01*
X65058571Y-15371428D01*
X65120476Y-15514285D01*
X65120476Y-15942857D01*
X65058571Y-16085714D01*
X64996666Y-16157142D01*
X64872857Y-16228571D01*
X64687142Y-16228571D01*
X65677619Y-15228571D02*
X65677619Y-16228571D01*
X65677619Y-15371428D02*
X65739523Y-15300000D01*
X65863333Y-15228571D01*
X66049047Y-15228571D01*
X66172857Y-15300000D01*
X66234761Y-15442857D01*
X66234761Y-16228571D01*
X66853809Y-16228571D02*
X66853809Y-15228571D01*
X66853809Y-14728571D02*
X66791904Y-14800000D01*
X66853809Y-14871428D01*
X66915714Y-14800000D01*
X66853809Y-14728571D01*
X66853809Y-14871428D01*
X68030000Y-16157142D02*
X67906190Y-16228571D01*
X67658571Y-16228571D01*
X67534761Y-16157142D01*
X67472857Y-16085714D01*
X67410952Y-15942857D01*
X67410952Y-15514285D01*
X67472857Y-15371428D01*
X67534761Y-15300000D01*
X67658571Y-15228571D01*
X67906190Y-15228571D01*
X68030000Y-15300000D01*
X70010952Y-15442857D02*
X70196666Y-15514285D01*
X70258571Y-15585714D01*
X70320476Y-15728571D01*
X70320476Y-15942857D01*
X70258571Y-16085714D01*
X70196666Y-16157142D01*
X70072857Y-16228571D01*
X69577619Y-16228571D01*
X69577619Y-14728571D01*
X70010952Y-14728571D01*
X70134761Y-14800000D01*
X70196666Y-14871428D01*
X70258571Y-15014285D01*
X70258571Y-15157142D01*
X70196666Y-15300000D01*
X70134761Y-15371428D01*
X70010952Y-15442857D01*
X69577619Y-15442857D01*
X70691904Y-14728571D02*
X71434761Y-14728571D01*
X71063333Y-16228571D02*
X71063333Y-14728571D01*
X71868095Y-15657142D02*
X72858571Y-15657142D01*
X73725238Y-15514285D02*
X73725238Y-16228571D01*
X73291904Y-14728571D02*
X73725238Y-15514285D01*
X74158571Y-14728571D01*
X74530000Y-15800000D02*
X75149047Y-15800000D01*
X74406190Y-16228571D02*
X74839523Y-14728571D01*
X75272857Y-16228571D01*
X75582380Y-14728571D02*
X76449047Y-14728571D01*
X75891904Y-16228571D01*
X77191904Y-14728571D02*
X77315714Y-14728571D01*
X77439523Y-14800000D01*
X77501428Y-14871428D01*
X77563333Y-15014285D01*
X77625238Y-15300000D01*
X77625238Y-15657142D01*
X77563333Y-15942857D01*
X77501428Y-16085714D01*
X77439523Y-16157142D01*
X77315714Y-16228571D01*
X77191904Y-16228571D01*
X77068095Y-16157142D01*
X77006190Y-16085714D01*
X76944285Y-15942857D01*
X76882380Y-15657142D01*
X76882380Y-15300000D01*
X76944285Y-15014285D01*
X77006190Y-14871428D01*
X77068095Y-14800000D01*
X77191904Y-14728571D01*
X78120476Y-14871428D02*
X78182380Y-14800000D01*
X78306190Y-14728571D01*
X78615714Y-14728571D01*
X78739523Y-14800000D01*
X78801428Y-14871428D01*
X78863333Y-15014285D01*
X78863333Y-15157142D01*
X78801428Y-15371428D01*
X78058571Y-16228571D01*
X78863333Y-16228571D01*
X22282380Y-18678571D02*
X21849047Y-17964285D01*
X21539523Y-18678571D02*
X21539523Y-17178571D01*
X22034761Y-17178571D01*
X22158571Y-17250000D01*
X22220476Y-17321428D01*
X22282380Y-17464285D01*
X22282380Y-17678571D01*
X22220476Y-17821428D01*
X22158571Y-17892857D01*
X22034761Y-17964285D01*
X21539523Y-17964285D01*
X23334761Y-18607142D02*
X23210952Y-18678571D01*
X22963333Y-18678571D01*
X22839523Y-18607142D01*
X22777619Y-18464285D01*
X22777619Y-17892857D01*
X22839523Y-17750000D01*
X22963333Y-17678571D01*
X23210952Y-17678571D01*
X23334761Y-17750000D01*
X23396666Y-17892857D01*
X23396666Y-18035714D01*
X22777619Y-18178571D01*
X23830000Y-17678571D02*
X24139523Y-18678571D01*
X24449047Y-17678571D01*
X26553809Y-17178571D02*
X25934761Y-17178571D01*
X25872857Y-17892857D01*
X25934761Y-17821428D01*
X26058571Y-17750000D01*
X26368095Y-17750000D01*
X26491904Y-17821428D01*
X26553809Y-17892857D01*
X26615714Y-18035714D01*
X26615714Y-18392857D01*
X26553809Y-18535714D01*
X26491904Y-18607142D01*
X26368095Y-18678571D01*
X26058571Y-18678571D01*
X25934761Y-18607142D01*
X25872857Y-18535714D01*
X27172857Y-18535714D02*
X27234761Y-18607142D01*
X27172857Y-18678571D01*
X27110952Y-18607142D01*
X27172857Y-18535714D01*
X27172857Y-18678571D01*
X28472857Y-18678571D02*
X27730000Y-18678571D01*
X28101428Y-18678571D02*
X28101428Y-17178571D01*
X27977619Y-17392857D01*
X27853809Y-17535714D01*
X27730000Y-17607142D01*
X29958571Y-17321428D02*
X30020476Y-17250000D01*
X30144285Y-17178571D01*
X30453809Y-17178571D01*
X30577619Y-17250000D01*
X30639523Y-17321428D01*
X30701428Y-17464285D01*
X30701428Y-17607142D01*
X30639523Y-17821428D01*
X29896666Y-18678571D01*
X30701428Y-18678571D01*
X31506190Y-17178571D02*
X31630000Y-17178571D01*
X31753809Y-17250000D01*
X31815714Y-17321428D01*
X31877619Y-17464285D01*
X31939523Y-17750000D01*
X31939523Y-18107142D01*
X31877619Y-18392857D01*
X31815714Y-18535714D01*
X31753809Y-18607142D01*
X31630000Y-18678571D01*
X31506190Y-18678571D01*
X31382380Y-18607142D01*
X31320476Y-18535714D01*
X31258571Y-18392857D01*
X31196666Y-18107142D01*
X31196666Y-17750000D01*
X31258571Y-17464285D01*
X31320476Y-17321428D01*
X31382380Y-17250000D01*
X31506190Y-17178571D01*
X32434761Y-17321428D02*
X32496666Y-17250000D01*
X32620476Y-17178571D01*
X32930000Y-17178571D01*
X33053809Y-17250000D01*
X33115714Y-17321428D01*
X33177619Y-17464285D01*
X33177619Y-17607142D01*
X33115714Y-17821428D01*
X32372857Y-18678571D01*
X33177619Y-18678571D01*
X33982380Y-17178571D02*
X34106190Y-17178571D01*
X34230000Y-17250000D01*
X34291904Y-17321428D01*
X34353809Y-17464285D01*
X34415714Y-17750000D01*
X34415714Y-18107142D01*
X34353809Y-18392857D01*
X34291904Y-18535714D01*
X34230000Y-18607142D01*
X34106190Y-18678571D01*
X33982380Y-18678571D01*
X33858571Y-18607142D01*
X33796666Y-18535714D01*
X33734761Y-18392857D01*
X33672857Y-18107142D01*
X33672857Y-17750000D01*
X33734761Y-17464285D01*
X33796666Y-17321428D01*
X33858571Y-17250000D01*
X33982380Y-17178571D01*
X34972857Y-18107142D02*
X35963333Y-18107142D01*
X36830000Y-17178571D02*
X36953809Y-17178571D01*
X37077619Y-17250000D01*
X37139523Y-17321428D01*
X37201428Y-17464285D01*
X37263333Y-17750000D01*
X37263333Y-18107142D01*
X37201428Y-18392857D01*
X37139523Y-18535714D01*
X37077619Y-18607142D01*
X36953809Y-18678571D01*
X36830000Y-18678571D01*
X36706190Y-18607142D01*
X36644285Y-18535714D01*
X36582380Y-18392857D01*
X36520476Y-18107142D01*
X36520476Y-17750000D01*
X36582380Y-17464285D01*
X36644285Y-17321428D01*
X36706190Y-17250000D01*
X36830000Y-17178571D01*
X37696666Y-17178571D02*
X38501428Y-17178571D01*
X38068095Y-17750000D01*
X38253809Y-17750000D01*
X38377619Y-17821428D01*
X38439523Y-17892857D01*
X38501428Y-18035714D01*
X38501428Y-18392857D01*
X38439523Y-18535714D01*
X38377619Y-18607142D01*
X38253809Y-18678571D01*
X37882380Y-18678571D01*
X37758571Y-18607142D01*
X37696666Y-18535714D01*
X39058571Y-18107142D02*
X40049047Y-18107142D01*
X41349047Y-18678571D02*
X40606190Y-18678571D01*
X40977619Y-18678571D02*
X40977619Y-17178571D01*
X40853809Y-17392857D01*
X40730000Y-17535714D01*
X40606190Y-17607142D01*
X41844285Y-17321428D02*
X41906190Y-17250000D01*
X42030000Y-17178571D01*
X42339523Y-17178571D01*
X42463333Y-17250000D01*
X42525238Y-17321428D01*
X42587142Y-17464285D01*
X42587142Y-17607142D01*
X42525238Y-17821428D01*
X41782380Y-18678571D01*
X42587142Y-18678571D01*
X21415714Y-20128571D02*
X21663333Y-21128571D01*
X21910952Y-20414285D01*
X22158571Y-21128571D01*
X22406190Y-20128571D01*
X23458571Y-21128571D02*
X23458571Y-20342857D01*
X23396666Y-20200000D01*
X23272857Y-20128571D01*
X23025238Y-20128571D01*
X22901428Y-20200000D01*
X23458571Y-21057142D02*
X23334761Y-21128571D01*
X23025238Y-21128571D01*
X22901428Y-21057142D01*
X22839523Y-20914285D01*
X22839523Y-20771428D01*
X22901428Y-20628571D01*
X23025238Y-20557142D01*
X23334761Y-20557142D01*
X23458571Y-20485714D01*
X24077619Y-21128571D02*
X24077619Y-19628571D01*
X24201428Y-20557142D02*
X24572857Y-21128571D01*
X24572857Y-20128571D02*
X24077619Y-20700000D01*
X25687142Y-21128571D02*
X25687142Y-20342857D01*
X25625238Y-20200000D01*
X25501428Y-20128571D01*
X25253809Y-20128571D01*
X25130000Y-20200000D01*
X25687142Y-21057142D02*
X25563333Y-21128571D01*
X25253809Y-21128571D01*
X25130000Y-21057142D01*
X25068095Y-20914285D01*
X25068095Y-20771428D01*
X25130000Y-20628571D01*
X25253809Y-20557142D01*
X25563333Y-20557142D01*
X25687142Y-20485714D01*
X26306190Y-21128571D02*
X26306190Y-19628571D01*
X26306190Y-20200000D02*
X26430000Y-20128571D01*
X26677619Y-20128571D01*
X26801428Y-20200000D01*
X26863333Y-20271428D01*
X26925238Y-20414285D01*
X26925238Y-20842857D01*
X26863333Y-20985714D01*
X26801428Y-21057142D01*
X26677619Y-21128571D01*
X26430000Y-21128571D01*
X26306190Y-21057142D01*
X28039523Y-21128571D02*
X28039523Y-20342857D01*
X27977619Y-20200000D01*
X27853809Y-20128571D01*
X27606190Y-20128571D01*
X27482380Y-20200000D01*
X28039523Y-21057142D02*
X27915714Y-21128571D01*
X27606190Y-21128571D01*
X27482380Y-21057142D01*
X27420476Y-20914285D01*
X27420476Y-20771428D01*
X27482380Y-20628571D01*
X27606190Y-20557142D01*
X27915714Y-20557142D01*
X28039523Y-20485714D01*
X28534761Y-20128571D02*
X28844285Y-21128571D01*
X29153809Y-20128571D01*
X29649047Y-21128571D02*
X29649047Y-20128571D01*
X29649047Y-19628571D02*
X29587142Y-19700000D01*
X29649047Y-19771428D01*
X29710952Y-19700000D01*
X29649047Y-19628571D01*
X29649047Y-19771428D01*
X30825238Y-21128571D02*
X30825238Y-19628571D01*
X30825238Y-21057142D02*
X30701428Y-21128571D01*
X30453809Y-21128571D01*
X30330000Y-21057142D01*
X30268095Y-20985714D01*
X30206190Y-20842857D01*
X30206190Y-20414285D01*
X30268095Y-20271428D01*
X30330000Y-20200000D01*
X30453809Y-20128571D01*
X30701428Y-20128571D01*
X30825238Y-20200000D01*
X31939523Y-21057142D02*
X31815714Y-21128571D01*
X31568095Y-21128571D01*
X31444285Y-21057142D01*
X31382380Y-20914285D01*
X31382380Y-20342857D01*
X31444285Y-20200000D01*
X31568095Y-20128571D01*
X31815714Y-20128571D01*
X31939523Y-20200000D01*
X32001428Y-20342857D01*
X32001428Y-20485714D01*
X31382380Y-20628571D01*
X32744285Y-21128571D02*
X32620476Y-21057142D01*
X32558571Y-20985714D01*
X32496666Y-20842857D01*
X32496666Y-20414285D01*
X32558571Y-20271428D01*
X32620476Y-20200000D01*
X32744285Y-20128571D01*
X32930000Y-20128571D01*
X33053809Y-20200000D01*
X33115714Y-20271428D01*
X33177619Y-20414285D01*
X33177619Y-20842857D01*
X33115714Y-20985714D01*
X33053809Y-21057142D01*
X32930000Y-21128571D01*
X32744285Y-21128571D01*
X33734761Y-20985714D02*
X33796666Y-21057142D01*
X33734761Y-21128571D01*
X33672857Y-21057142D01*
X33734761Y-20985714D01*
X33734761Y-21128571D01*
X34910952Y-21057142D02*
X34787142Y-21128571D01*
X34539523Y-21128571D01*
X34415714Y-21057142D01*
X34353809Y-20985714D01*
X34291904Y-20842857D01*
X34291904Y-20414285D01*
X34353809Y-20271428D01*
X34415714Y-20200000D01*
X34539523Y-20128571D01*
X34787142Y-20128571D01*
X34910952Y-20200000D01*
X35653809Y-21128571D02*
X35530000Y-21057142D01*
X35468095Y-20985714D01*
X35406190Y-20842857D01*
X35406190Y-20414285D01*
X35468095Y-20271428D01*
X35530000Y-20200000D01*
X35653809Y-20128571D01*
X35839523Y-20128571D01*
X35963333Y-20200000D01*
X36025238Y-20271428D01*
X36087142Y-20414285D01*
X36087142Y-20842857D01*
X36025238Y-20985714D01*
X35963333Y-21057142D01*
X35839523Y-21128571D01*
X35653809Y-21128571D01*
X36644285Y-21128571D02*
X36644285Y-20128571D01*
X36644285Y-20271428D02*
X36706190Y-20200000D01*
X36830000Y-20128571D01*
X37015714Y-20128571D01*
X37139523Y-20200000D01*
X37201428Y-20342857D01*
X37201428Y-21128571D01*
X37201428Y-20342857D02*
X37263333Y-20200000D01*
X37387142Y-20128571D01*
X37572857Y-20128571D01*
X37696666Y-20200000D01*
X37758571Y-20342857D01*
X37758571Y-21128571D01*
D12*
X-8600000Y-104090000D02*
X-2590000Y-104090000D01*
X-6350000Y-110910000D02*
X-2590000Y-110910000D01*
X-2590000Y-104090000D02*
X-2590000Y-105350000D01*
X-2590000Y-110910000D02*
X-2590000Y-109650000D01*
X-10710000Y-109738748D02*
X-10710000Y-110261252D01*
X-9290000Y-109738748D02*
X-9290000Y-110261252D01*
X-10710000Y-105738748D02*
X-10710000Y-106261252D01*
X-9290000Y-105738748D02*
X-9290000Y-106261252D01*
X-42300000Y-119000000D02*
X-46150000Y-119000000D01*
X-42300000Y-117000000D02*
X-46150000Y-117000000D01*
X-42300000Y-119000000D02*
X-42300000Y-117000000D01*
X-25300000Y-100000000D02*
X-29150000Y-100000000D01*
X-25300000Y-98000000D02*
X-29150000Y-98000000D01*
X-25300000Y-100000000D02*
X-25300000Y-98000000D01*
X-25300000Y-84000000D02*
X-29150000Y-84000000D01*
X-25300000Y-82000000D02*
X-29150000Y-82000000D01*
X-25300000Y-84000000D02*
X-25300000Y-82000000D01*
X-24300000Y-70000000D02*
X-28150000Y-70000000D01*
X-24300000Y-68000000D02*
X-28150000Y-68000000D01*
X-24300000Y-70000000D02*
X-24300000Y-68000000D01*
X-24300000Y-54000000D02*
X-28150000Y-54000000D01*
X-24300000Y-52000000D02*
X-28150000Y-52000000D01*
X-24300000Y-54000000D02*
X-24300000Y-52000000D01*
X-24300000Y-38000000D02*
X-28150000Y-38000000D01*
X-24300000Y-36000000D02*
X-28150000Y-36000000D01*
X-24300000Y-38000000D02*
X-24300000Y-36000000D01*
D13*
X-56850000Y-76370000D02*
X-60350000Y-76370000D01*
X-56850000Y-73215000D02*
X-56850000Y-79370000D01*
X-49400000Y-73215000D02*
X-56850000Y-73215000D01*
X-49400000Y-29715000D02*
X-49400000Y-73215000D01*
X-56850000Y-29715000D02*
X-49400000Y-29715000D01*
X-56850000Y-29715000D02*
X-56850000Y-24100000D01*
X-60350000Y-27100000D02*
X-56850000Y-27100000D01*
X-60350000Y-79370000D02*
X-60350000Y-24100000D01*
X-56850000Y-79370000D02*
X-60350000Y-79370000D01*
X-60350000Y-24100000D02*
X-56850000Y-24100000D01*
X-56852120Y-76369700D02*
X-60344620Y-79356740D01*
X-60357320Y-76377320D02*
X-56854660Y-79366900D01*
X-56859740Y-24110720D02*
X-60339540Y-27082520D01*
X-60342080Y-24118340D02*
X-56874980Y-27085060D01*
D12*
X-30738748Y-113290000D02*
X-31261252Y-113290000D01*
X-30738748Y-114710000D02*
X-31261252Y-114710000D01*
X-13738748Y-94290000D02*
X-14261252Y-94290000D01*
X-13738748Y-95710000D02*
X-14261252Y-95710000D01*
X-13738748Y-78290000D02*
X-14261252Y-78290000D01*
X-13738748Y-79710000D02*
X-14261252Y-79710000D01*
X-11738748Y-62290000D02*
X-12261252Y-62290000D01*
X-11738748Y-63710000D02*
X-12261252Y-63710000D01*
X-11738748Y-46290000D02*
X-12261252Y-46290000D01*
X-11738748Y-47710000D02*
X-12261252Y-47710000D01*
X-11738748Y-30290000D02*
X-12261252Y-30290000D01*
X-11738748Y-31710000D02*
X-12261252Y-31710000D01*
X-34738748Y-115290000D02*
X-35261252Y-115290000D01*
X-34738748Y-116710000D02*
X-35261252Y-116710000D01*
X-17738748Y-96290000D02*
X-18261252Y-96290000D01*
X-17738748Y-97710000D02*
X-18261252Y-97710000D01*
X-17738748Y-80290000D02*
X-18261252Y-80290000D01*
X-17738748Y-81710000D02*
X-18261252Y-81710000D01*
X-15738748Y-64290000D02*
X-16261252Y-64290000D01*
X-15738748Y-65710000D02*
X-16261252Y-65710000D01*
X-15738748Y-48290000D02*
X-16261252Y-48290000D01*
X-15738748Y-49710000D02*
X-16261252Y-49710000D01*
X-15738748Y-32290000D02*
X-16261252Y-32290000D01*
X-15738748Y-33710000D02*
X-16261252Y-33710000D01*
X-38738748Y-115290000D02*
X-39261252Y-115290000D01*
X-38738748Y-116710000D02*
X-39261252Y-116710000D01*
X-39261252Y-112710000D02*
X-38738748Y-112710000D01*
X-39261252Y-111290000D02*
X-38738748Y-111290000D01*
X-21738748Y-96290000D02*
X-22261252Y-96290000D01*
X-21738748Y-97710000D02*
X-22261252Y-97710000D01*
X-22261252Y-93710000D02*
X-21738748Y-93710000D01*
X-22261252Y-92290000D02*
X-21738748Y-92290000D01*
X-21738748Y-80290000D02*
X-22261252Y-80290000D01*
X-21738748Y-81710000D02*
X-22261252Y-81710000D01*
X-22261252Y-77710000D02*
X-21738748Y-77710000D01*
X-22261252Y-76290000D02*
X-21738748Y-76290000D01*
X-19738748Y-64290000D02*
X-20261252Y-64290000D01*
X-19738748Y-65710000D02*
X-20261252Y-65710000D01*
X-20261252Y-61710000D02*
X-19738748Y-61710000D01*
X-20261252Y-60290000D02*
X-19738748Y-60290000D01*
X-19738748Y-48290000D02*
X-20261252Y-48290000D01*
X-19738748Y-49710000D02*
X-20261252Y-49710000D01*
X-20261252Y-45710000D02*
X-19738748Y-45710000D01*
X-20261252Y-44290000D02*
X-19738748Y-44290000D01*
X-19738748Y-32290000D02*
X-20261252Y-32290000D01*
X-19738748Y-33710000D02*
X-20261252Y-33710000D01*
X-20261252Y-29710000D02*
X-19738748Y-29710000D01*
X-20261252Y-28290000D02*
X-19738748Y-28290000D01*
X-38738748Y-113290000D02*
X-39261252Y-113290000D01*
X-38738748Y-114710000D02*
X-39261252Y-114710000D01*
X-21738748Y-94290000D02*
X-22261252Y-94290000D01*
X-21738748Y-95710000D02*
X-22261252Y-95710000D01*
X-21738748Y-78290000D02*
X-22261252Y-78290000D01*
X-21738748Y-79710000D02*
X-22261252Y-79710000D01*
X-19738748Y-62290000D02*
X-20261252Y-62290000D01*
X-19738748Y-63710000D02*
X-20261252Y-63710000D01*
X-19738748Y-46290000D02*
X-20261252Y-46290000D01*
X-19738748Y-47710000D02*
X-20261252Y-47710000D01*
X-19738748Y-30290000D02*
X-20261252Y-30290000D01*
X-19738748Y-31710000D02*
X-20261252Y-31710000D01*
X-34710000Y-95738748D02*
X-34710000Y-96261252D01*
X-33290000Y-95738748D02*
X-33290000Y-96261252D01*
X-34710000Y-79738748D02*
X-34710000Y-80261252D01*
X-33290000Y-79738748D02*
X-33290000Y-80261252D01*
X-34710000Y-63738748D02*
X-34710000Y-64261252D01*
X-33290000Y-63738748D02*
X-33290000Y-64261252D01*
X-34710000Y-47738748D02*
X-34710000Y-48261252D01*
X-33290000Y-47738748D02*
X-33290000Y-48261252D01*
X-34710000Y-31738748D02*
X-34710000Y-32261252D01*
X-33290000Y-31738748D02*
X-33290000Y-32261252D01*
X-33420000Y-112240000D02*
X-33420000Y-113700000D01*
X-36580000Y-112240000D02*
X-36580000Y-114400000D01*
X-36580000Y-112240000D02*
X-35650000Y-112240000D01*
X-33420000Y-112240000D02*
X-34350000Y-112240000D01*
X-16420000Y-93240000D02*
X-16420000Y-94700000D01*
X-19580000Y-93240000D02*
X-19580000Y-95400000D01*
X-19580000Y-93240000D02*
X-18650000Y-93240000D01*
X-16420000Y-93240000D02*
X-17350000Y-93240000D01*
X-16420000Y-77240000D02*
X-16420000Y-78700000D01*
X-19580000Y-77240000D02*
X-19580000Y-79400000D01*
X-19580000Y-77240000D02*
X-18650000Y-77240000D01*
X-16420000Y-77240000D02*
X-17350000Y-77240000D01*
X-14420000Y-61240000D02*
X-14420000Y-62700000D01*
X-17580000Y-61240000D02*
X-17580000Y-63400000D01*
X-17580000Y-61240000D02*
X-16650000Y-61240000D01*
X-14420000Y-61240000D02*
X-15350000Y-61240000D01*
X-14420000Y-45240000D02*
X-14420000Y-46700000D01*
X-17580000Y-45240000D02*
X-17580000Y-47400000D01*
X-17580000Y-45240000D02*
X-16650000Y-45240000D01*
X-14420000Y-45240000D02*
X-15350000Y-45240000D01*
X-14420000Y-29240000D02*
X-14420000Y-30700000D01*
X-17580000Y-29240000D02*
X-17580000Y-31400000D01*
X-17580000Y-29240000D02*
X-16650000Y-29240000D01*
X-14420000Y-29240000D02*
X-15350000Y-29240000D01*
X-52500000Y-95000000D02*
X-51500000Y-94000000D01*
X-52500000Y-95000000D02*
X-51500000Y-96000000D01*
X-37700000Y-102500000D02*
X-52700000Y-102500000D01*
X-37700000Y-87500000D02*
X-37700000Y-102500000D01*
X-52700000Y-87500000D02*
X-37700000Y-87500000D01*
X-52700000Y-102500000D02*
X-52700000Y-87500000D01*
X-50000000Y-132200000D02*
X-60000000Y-132200000D01*
X-50000000Y-121800000D02*
X-50000000Y-132200000D01*
X-60000000Y-121800000D02*
X-50000000Y-121800000D01*
X-60000000Y-132200000D02*
X-60000000Y-121800000D01*
X-52500000Y-31000000D02*
X-51500000Y-30000000D01*
X-52500000Y-31000000D02*
X-51500000Y-32000000D01*
X-37700000Y-38500000D02*
X-52700000Y-38500000D01*
X-37700000Y-23500000D02*
X-37700000Y-38500000D01*
X-52700000Y-23500000D02*
X-37700000Y-23500000D01*
X-52700000Y-38500000D02*
X-52700000Y-23500000D01*
X-50000000Y-119200000D02*
X-60000000Y-119200000D01*
X-50000000Y-108800000D02*
X-50000000Y-119200000D01*
X-60000000Y-108800000D02*
X-50000000Y-108800000D01*
X-60000000Y-119200000D02*
X-60000000Y-108800000D01*
X-52500000Y-79000000D02*
X-51500000Y-78000000D01*
X-52500000Y-79000000D02*
X-51500000Y-80000000D01*
X-37700000Y-86500000D02*
X-52700000Y-86500000D01*
X-37700000Y-71500000D02*
X-37700000Y-86500000D01*
X-52700000Y-71500000D02*
X-37700000Y-71500000D01*
X-52700000Y-86500000D02*
X-52700000Y-71500000D01*
X-52500000Y-47000000D02*
X-51500000Y-46000000D01*
X-52500000Y-47000000D02*
X-51500000Y-48000000D01*
X-37700000Y-54500000D02*
X-52700000Y-54500000D01*
X-37700000Y-39500000D02*
X-37700000Y-54500000D01*
X-52700000Y-39500000D02*
X-37700000Y-39500000D01*
X-52700000Y-54500000D02*
X-52700000Y-39500000D01*
X-52500000Y-63000000D02*
X-51500000Y-62000000D01*
X-52500000Y-63000000D02*
X-51500000Y-64000000D01*
X-37700000Y-70500000D02*
X-52700000Y-70500000D01*
X-37700000Y-55500000D02*
X-37700000Y-70500000D01*
X-52700000Y-55500000D02*
X-37700000Y-55500000D01*
X-52700000Y-70500000D02*
X-52700000Y-55500000D01*
X101230000Y-43230000D02*
X102500000Y-43230000D01*
X101230000Y-44500000D02*
X101230000Y-43230000D01*
X103542929Y-105840000D02*
X103997071Y-105840000D01*
X103542929Y-105080000D02*
X103997071Y-105080000D01*
X106082929Y-105840000D02*
X106480000Y-105840000D01*
X106082929Y-105080000D02*
X106480000Y-105080000D01*
X115140000Y-105840000D02*
X109140000Y-105840000D01*
X115140000Y-105080000D02*
X115140000Y-105840000D01*
X109140000Y-105080000D02*
X115140000Y-105080000D01*
X106480000Y-104190000D02*
X109140000Y-104190000D01*
X103542929Y-103300000D02*
X103997071Y-103300000D01*
X103542929Y-102540000D02*
X103997071Y-102540000D01*
X106082929Y-103300000D02*
X106480000Y-103300000D01*
X106082929Y-102540000D02*
X106480000Y-102540000D01*
X115140000Y-103300000D02*
X109140000Y-103300000D01*
X115140000Y-102540000D02*
X115140000Y-103300000D01*
X109140000Y-102540000D02*
X115140000Y-102540000D01*
X106480000Y-101650000D02*
X109140000Y-101650000D01*
X103542929Y-100760000D02*
X103997071Y-100760000D01*
X103542929Y-100000000D02*
X103997071Y-100000000D01*
X106082929Y-100760000D02*
X106480000Y-100760000D01*
X106082929Y-100000000D02*
X106480000Y-100000000D01*
X115140000Y-100760000D02*
X109140000Y-100760000D01*
X115140000Y-100000000D02*
X115140000Y-100760000D01*
X109140000Y-100000000D02*
X115140000Y-100000000D01*
X106480000Y-99110000D02*
X109140000Y-99110000D01*
X103542929Y-98220000D02*
X103997071Y-98220000D01*
X103542929Y-97460000D02*
X103997071Y-97460000D01*
X106082929Y-98220000D02*
X106480000Y-98220000D01*
X106082929Y-97460000D02*
X106480000Y-97460000D01*
X115140000Y-98220000D02*
X109140000Y-98220000D01*
X115140000Y-97460000D02*
X115140000Y-98220000D01*
X109140000Y-97460000D02*
X115140000Y-97460000D01*
X106480000Y-96570000D02*
X109140000Y-96570000D01*
X103542929Y-95680000D02*
X103997071Y-95680000D01*
X103542929Y-94920000D02*
X103997071Y-94920000D01*
X106082929Y-95680000D02*
X106480000Y-95680000D01*
X106082929Y-94920000D02*
X106480000Y-94920000D01*
X115140000Y-95680000D02*
X109140000Y-95680000D01*
X115140000Y-94920000D02*
X115140000Y-95680000D01*
X109140000Y-94920000D02*
X115140000Y-94920000D01*
X106480000Y-94030000D02*
X109140000Y-94030000D01*
X103542929Y-93140000D02*
X103997071Y-93140000D01*
X103542929Y-92380000D02*
X103997071Y-92380000D01*
X106082929Y-93140000D02*
X106480000Y-93140000D01*
X106082929Y-92380000D02*
X106480000Y-92380000D01*
X115140000Y-93140000D02*
X109140000Y-93140000D01*
X115140000Y-92380000D02*
X115140000Y-93140000D01*
X109140000Y-92380000D02*
X115140000Y-92380000D01*
X106480000Y-91490000D02*
X109140000Y-91490000D01*
X103542929Y-90600000D02*
X103997071Y-90600000D01*
X103542929Y-89840000D02*
X103997071Y-89840000D01*
X106082929Y-90600000D02*
X106480000Y-90600000D01*
X106082929Y-89840000D02*
X106480000Y-89840000D01*
X115140000Y-90600000D02*
X109140000Y-90600000D01*
X115140000Y-89840000D02*
X115140000Y-90600000D01*
X109140000Y-89840000D02*
X115140000Y-89840000D01*
X106480000Y-88950000D02*
X109140000Y-88950000D01*
X103542929Y-88060000D02*
X103997071Y-88060000D01*
X103542929Y-87300000D02*
X103997071Y-87300000D01*
X106082929Y-88060000D02*
X106480000Y-88060000D01*
X106082929Y-87300000D02*
X106480000Y-87300000D01*
X115140000Y-88060000D02*
X109140000Y-88060000D01*
X115140000Y-87300000D02*
X115140000Y-88060000D01*
X109140000Y-87300000D02*
X115140000Y-87300000D01*
X106480000Y-86410000D02*
X109140000Y-86410000D01*
X103542929Y-85520000D02*
X103997071Y-85520000D01*
X103542929Y-84760000D02*
X103997071Y-84760000D01*
X106082929Y-85520000D02*
X106480000Y-85520000D01*
X106082929Y-84760000D02*
X106480000Y-84760000D01*
X115140000Y-85520000D02*
X109140000Y-85520000D01*
X115140000Y-84760000D02*
X115140000Y-85520000D01*
X109140000Y-84760000D02*
X115140000Y-84760000D01*
X106480000Y-83870000D02*
X109140000Y-83870000D01*
X103542929Y-82980000D02*
X103997071Y-82980000D01*
X103542929Y-82220000D02*
X103997071Y-82220000D01*
X106082929Y-82980000D02*
X106480000Y-82980000D01*
X106082929Y-82220000D02*
X106480000Y-82220000D01*
X115140000Y-82980000D02*
X109140000Y-82980000D01*
X115140000Y-82220000D02*
X115140000Y-82980000D01*
X109140000Y-82220000D02*
X115140000Y-82220000D01*
X106480000Y-81330000D02*
X109140000Y-81330000D01*
X103542929Y-80440000D02*
X103997071Y-80440000D01*
X103542929Y-79680000D02*
X103997071Y-79680000D01*
X106082929Y-80440000D02*
X106480000Y-80440000D01*
X106082929Y-79680000D02*
X106480000Y-79680000D01*
X115140000Y-80440000D02*
X109140000Y-80440000D01*
X115140000Y-79680000D02*
X115140000Y-80440000D01*
X109140000Y-79680000D02*
X115140000Y-79680000D01*
X106480000Y-78790000D02*
X109140000Y-78790000D01*
X103542929Y-77900000D02*
X103997071Y-77900000D01*
X103542929Y-77140000D02*
X103997071Y-77140000D01*
X106082929Y-77900000D02*
X106480000Y-77900000D01*
X106082929Y-77140000D02*
X106480000Y-77140000D01*
X115140000Y-77900000D02*
X109140000Y-77900000D01*
X115140000Y-77140000D02*
X115140000Y-77900000D01*
X109140000Y-77140000D02*
X115140000Y-77140000D01*
X106480000Y-76250000D02*
X109140000Y-76250000D01*
X103542929Y-75360000D02*
X103997071Y-75360000D01*
X103542929Y-74600000D02*
X103997071Y-74600000D01*
X106082929Y-75360000D02*
X106480000Y-75360000D01*
X106082929Y-74600000D02*
X106480000Y-74600000D01*
X115140000Y-75360000D02*
X109140000Y-75360000D01*
X115140000Y-74600000D02*
X115140000Y-75360000D01*
X109140000Y-74600000D02*
X115140000Y-74600000D01*
X106480000Y-73710000D02*
X109140000Y-73710000D01*
X103542929Y-72820000D02*
X103997071Y-72820000D01*
X103542929Y-72060000D02*
X103997071Y-72060000D01*
X106082929Y-72820000D02*
X106480000Y-72820000D01*
X106082929Y-72060000D02*
X106480000Y-72060000D01*
X115140000Y-72820000D02*
X109140000Y-72820000D01*
X115140000Y-72060000D02*
X115140000Y-72820000D01*
X109140000Y-72060000D02*
X115140000Y-72060000D01*
X106480000Y-71170000D02*
X109140000Y-71170000D01*
X103542929Y-70280000D02*
X103997071Y-70280000D01*
X103542929Y-69520000D02*
X103997071Y-69520000D01*
X106082929Y-70280000D02*
X106480000Y-70280000D01*
X106082929Y-69520000D02*
X106480000Y-69520000D01*
X115140000Y-70280000D02*
X109140000Y-70280000D01*
X115140000Y-69520000D02*
X115140000Y-70280000D01*
X109140000Y-69520000D02*
X115140000Y-69520000D01*
X106480000Y-68630000D02*
X109140000Y-68630000D01*
X103542929Y-67740000D02*
X103997071Y-67740000D01*
X103542929Y-66980000D02*
X103997071Y-66980000D01*
X106082929Y-67740000D02*
X106480000Y-67740000D01*
X106082929Y-66980000D02*
X106480000Y-66980000D01*
X115140000Y-67740000D02*
X109140000Y-67740000D01*
X115140000Y-66980000D02*
X115140000Y-67740000D01*
X109140000Y-66980000D02*
X115140000Y-66980000D01*
X106480000Y-66090000D02*
X109140000Y-66090000D01*
X103542929Y-65200000D02*
X103997071Y-65200000D01*
X103542929Y-64440000D02*
X103997071Y-64440000D01*
X106082929Y-65200000D02*
X106480000Y-65200000D01*
X106082929Y-64440000D02*
X106480000Y-64440000D01*
X115140000Y-65200000D02*
X109140000Y-65200000D01*
X115140000Y-64440000D02*
X115140000Y-65200000D01*
X109140000Y-64440000D02*
X115140000Y-64440000D01*
X106480000Y-63550000D02*
X109140000Y-63550000D01*
X103542929Y-62660000D02*
X103997071Y-62660000D01*
X103542929Y-61900000D02*
X103997071Y-61900000D01*
X106082929Y-62660000D02*
X106480000Y-62660000D01*
X106082929Y-61900000D02*
X106480000Y-61900000D01*
X115140000Y-62660000D02*
X109140000Y-62660000D01*
X115140000Y-61900000D02*
X115140000Y-62660000D01*
X109140000Y-61900000D02*
X115140000Y-61900000D01*
X106480000Y-61010000D02*
X109140000Y-61010000D01*
X103542929Y-60120000D02*
X103997071Y-60120000D01*
X103542929Y-59360000D02*
X103997071Y-59360000D01*
X106082929Y-60120000D02*
X106480000Y-60120000D01*
X106082929Y-59360000D02*
X106480000Y-59360000D01*
X115140000Y-60120000D02*
X109140000Y-60120000D01*
X115140000Y-59360000D02*
X115140000Y-60120000D01*
X109140000Y-59360000D02*
X115140000Y-59360000D01*
X106480000Y-58470000D02*
X109140000Y-58470000D01*
X103542929Y-57580000D02*
X103997071Y-57580000D01*
X103542929Y-56820000D02*
X103997071Y-56820000D01*
X106082929Y-57580000D02*
X106480000Y-57580000D01*
X106082929Y-56820000D02*
X106480000Y-56820000D01*
X115140000Y-57580000D02*
X109140000Y-57580000D01*
X115140000Y-56820000D02*
X115140000Y-57580000D01*
X109140000Y-56820000D02*
X115140000Y-56820000D01*
X106480000Y-55930000D02*
X109140000Y-55930000D01*
X103542929Y-55040000D02*
X103997071Y-55040000D01*
X103542929Y-54280000D02*
X103997071Y-54280000D01*
X106082929Y-55040000D02*
X106480000Y-55040000D01*
X106082929Y-54280000D02*
X106480000Y-54280000D01*
X115140000Y-55040000D02*
X109140000Y-55040000D01*
X115140000Y-54280000D02*
X115140000Y-55040000D01*
X109140000Y-54280000D02*
X115140000Y-54280000D01*
X106480000Y-53390000D02*
X109140000Y-53390000D01*
X103542929Y-52500000D02*
X103997071Y-52500000D01*
X103542929Y-51740000D02*
X103997071Y-51740000D01*
X106082929Y-52500000D02*
X106480000Y-52500000D01*
X106082929Y-51740000D02*
X106480000Y-51740000D01*
X115140000Y-52500000D02*
X109140000Y-52500000D01*
X115140000Y-51740000D02*
X115140000Y-52500000D01*
X109140000Y-51740000D02*
X115140000Y-51740000D01*
X106480000Y-50850000D02*
X109140000Y-50850000D01*
X103542929Y-49960000D02*
X103997071Y-49960000D01*
X103542929Y-49200000D02*
X103997071Y-49200000D01*
X106082929Y-49960000D02*
X106480000Y-49960000D01*
X106082929Y-49200000D02*
X106480000Y-49200000D01*
X115140000Y-49960000D02*
X109140000Y-49960000D01*
X115140000Y-49200000D02*
X115140000Y-49960000D01*
X109140000Y-49200000D02*
X115140000Y-49200000D01*
X106480000Y-48310000D02*
X109140000Y-48310000D01*
X103542929Y-47420000D02*
X103997071Y-47420000D01*
X103542929Y-46660000D02*
X103997071Y-46660000D01*
X106082929Y-47420000D02*
X106480000Y-47420000D01*
X106082929Y-46660000D02*
X106480000Y-46660000D01*
X115140000Y-47420000D02*
X109140000Y-47420000D01*
X115140000Y-46660000D02*
X115140000Y-47420000D01*
X109140000Y-46660000D02*
X115140000Y-46660000D01*
X106480000Y-45770000D02*
X109140000Y-45770000D01*
X103610000Y-44880000D02*
X103997071Y-44880000D01*
X103610000Y-44120000D02*
X103997071Y-44120000D01*
X106082929Y-44880000D02*
X106480000Y-44880000D01*
X106082929Y-44120000D02*
X106480000Y-44120000D01*
X109140000Y-44780000D02*
X115140000Y-44780000D01*
X109140000Y-44660000D02*
X115140000Y-44660000D01*
X109140000Y-44540000D02*
X115140000Y-44540000D01*
X109140000Y-44420000D02*
X115140000Y-44420000D01*
X109140000Y-44300000D02*
X115140000Y-44300000D01*
X109140000Y-44180000D02*
X115140000Y-44180000D01*
X115140000Y-44880000D02*
X109140000Y-44880000D01*
X115140000Y-44120000D02*
X115140000Y-44880000D01*
X109140000Y-44120000D02*
X115140000Y-44120000D01*
X109140000Y-43170000D02*
X106480000Y-43170000D01*
X109140000Y-106790000D02*
X109140000Y-43170000D01*
X106480000Y-106790000D02*
X109140000Y-106790000D01*
X106480000Y-43170000D02*
X106480000Y-106790000D01*
X-15261252Y-27710000D02*
X-14738748Y-27710000D01*
X-15261252Y-26290000D02*
X-14738748Y-26290000D01*
X-34261252Y-110710000D02*
X-33738748Y-110710000D01*
X-34261252Y-109290000D02*
X-33738748Y-109290000D01*
X-15261252Y-43710000D02*
X-14738748Y-43710000D01*
X-15261252Y-42290000D02*
X-14738748Y-42290000D01*
X-15261252Y-59710000D02*
X-14738748Y-59710000D01*
X-15261252Y-58290000D02*
X-14738748Y-58290000D01*
X-17286252Y-75710000D02*
X-16763748Y-75710000D01*
X-17286252Y-74290000D02*
X-16763748Y-74290000D01*
X-17261252Y-91710000D02*
X-16738748Y-91710000D01*
X-17261252Y-90290000D02*
X-16738748Y-90290000D01*
X-45261252Y-114710000D02*
X-44738748Y-114710000D01*
X-45261252Y-113290000D02*
X-44738748Y-113290000D01*
X-30261252Y-95710000D02*
X-29738748Y-95710000D01*
X-30261252Y-94290000D02*
X-29738748Y-94290000D01*
X-30261252Y-79710000D02*
X-29738748Y-79710000D01*
X-30261252Y-78290000D02*
X-29738748Y-78290000D01*
X-22956250Y-65241250D02*
X-22956250Y-64453750D01*
X-22562500Y-64847500D02*
X-23350000Y-64847500D01*
X-23590000Y-60654437D02*
X-24654437Y-59590000D01*
X-23590000Y-65345563D02*
X-24654437Y-66410000D01*
X-23590000Y-65345563D02*
X-23590000Y-64060000D01*
X-23590000Y-60654437D02*
X-23590000Y-61940000D01*
X-24654437Y-59590000D02*
X-30410000Y-59590000D01*
X-24654437Y-66410000D02*
X-30410000Y-66410000D01*
X-30410000Y-66410000D02*
X-30410000Y-64060000D01*
X-30410000Y-59590000D02*
X-30410000Y-61940000D01*
X-22956250Y-49241250D02*
X-22956250Y-48453750D01*
X-22562500Y-48847500D02*
X-23350000Y-48847500D01*
X-23590000Y-44654437D02*
X-24654437Y-43590000D01*
X-23590000Y-49345563D02*
X-24654437Y-50410000D01*
X-23590000Y-49345563D02*
X-23590000Y-48060000D01*
X-23590000Y-44654437D02*
X-23590000Y-45940000D01*
X-24654437Y-43590000D02*
X-30410000Y-43590000D01*
X-24654437Y-50410000D02*
X-30410000Y-50410000D01*
X-30410000Y-50410000D02*
X-30410000Y-48060000D01*
X-30410000Y-43590000D02*
X-30410000Y-45940000D01*
X-22956250Y-33241250D02*
X-22956250Y-32453750D01*
X-22562500Y-32847500D02*
X-23350000Y-32847500D01*
X-23590000Y-28654437D02*
X-24654437Y-27590000D01*
X-23590000Y-33345563D02*
X-24654437Y-34410000D01*
X-23590000Y-33345563D02*
X-23590000Y-32060000D01*
X-23590000Y-28654437D02*
X-23590000Y-29940000D01*
X-24654437Y-27590000D02*
X-30410000Y-27590000D01*
X-24654437Y-34410000D02*
X-30410000Y-34410000D01*
X-30410000Y-34410000D02*
X-30410000Y-32060000D01*
X-30410000Y-27590000D02*
X-30410000Y-29940000D01*
X-20143750Y-105758750D02*
X-20143750Y-106546250D01*
X-20537500Y-106152500D02*
X-19750000Y-106152500D01*
X-19510000Y-110345563D02*
X-18445563Y-111410000D01*
X-19510000Y-105654437D02*
X-18445563Y-104590000D01*
X-19510000Y-105654437D02*
X-19510000Y-106940000D01*
X-19510000Y-110345563D02*
X-19510000Y-109060000D01*
X-18445563Y-111410000D02*
X-12690000Y-111410000D01*
X-18445563Y-104590000D02*
X-12690000Y-104590000D01*
X-12690000Y-104590000D02*
X-12690000Y-106940000D01*
X-12690000Y-111410000D02*
X-12690000Y-109060000D01*
X-6761252Y-113210000D02*
X-6238748Y-113210000D01*
X-6761252Y-111790000D02*
X-6238748Y-111790000D01*
D13*
X-5261904Y-102452380D02*
X-5261904Y-103261904D01*
X-5214285Y-103357142D01*
X-5166666Y-103404761D01*
X-5071428Y-103452380D01*
X-4880952Y-103452380D01*
X-4785714Y-103404761D01*
X-4738095Y-103357142D01*
X-4690476Y-103261904D01*
X-4690476Y-102452380D01*
X-3738095Y-102452380D02*
X-4214285Y-102452380D01*
X-4261904Y-102928571D01*
X-4214285Y-102880952D01*
X-4119047Y-102833333D01*
X-3880952Y-102833333D01*
X-3785714Y-102880952D01*
X-3738095Y-102928571D01*
X-3690476Y-103023809D01*
X-3690476Y-103261904D01*
X-3738095Y-103357142D01*
X-3785714Y-103404761D01*
X-3880952Y-103452380D01*
X-4119047Y-103452380D01*
X-4214285Y-103404761D01*
X-4261904Y-103357142D01*
X-9547619Y-113166666D02*
X-10023809Y-113500000D01*
X-9547619Y-113738095D02*
X-10547619Y-113738095D01*
X-10547619Y-113357142D01*
X-10500000Y-113261904D01*
X-10452380Y-113214285D01*
X-10357142Y-113166666D01*
X-10214285Y-113166666D01*
X-10119047Y-113214285D01*
X-10071428Y-113261904D01*
X-10023809Y-113357142D01*
X-10023809Y-113738095D01*
X-10452380Y-112785714D02*
X-10500000Y-112738095D01*
X-10547619Y-112642857D01*
X-10547619Y-112404761D01*
X-10500000Y-112309523D01*
X-10452380Y-112261904D01*
X-10357142Y-112214285D01*
X-10261904Y-112214285D01*
X-10119047Y-112261904D01*
X-9547619Y-112833333D01*
X-9547619Y-112214285D01*
X-9547619Y-103166666D02*
X-10023809Y-103500000D01*
X-9547619Y-103738095D02*
X-10547619Y-103738095D01*
X-10547619Y-103357142D01*
X-10500000Y-103261904D01*
X-10452380Y-103214285D01*
X-10357142Y-103166666D01*
X-10214285Y-103166666D01*
X-10119047Y-103214285D01*
X-10071428Y-103261904D01*
X-10023809Y-103357142D01*
X-10023809Y-103738095D01*
X-9547619Y-102214285D02*
X-9547619Y-102785714D01*
X-9547619Y-102500000D02*
X-10547619Y-102500000D01*
X-10404761Y-102595238D01*
X-10309523Y-102690476D01*
X-10261904Y-102785714D01*
X-45111095Y-120357380D02*
X-45111095Y-119357380D01*
X-44873000Y-119357380D01*
X-44730142Y-119405000D01*
X-44634904Y-119500238D01*
X-44587285Y-119595476D01*
X-44539666Y-119785952D01*
X-44539666Y-119928809D01*
X-44587285Y-120119285D01*
X-44634904Y-120214523D01*
X-44730142Y-120309761D01*
X-44873000Y-120357380D01*
X-45111095Y-120357380D01*
X-43682523Y-119357380D02*
X-43873000Y-119357380D01*
X-43968238Y-119405000D01*
X-44015857Y-119452619D01*
X-44111095Y-119595476D01*
X-44158714Y-119785952D01*
X-44158714Y-120166904D01*
X-44111095Y-120262142D01*
X-44063476Y-120309761D01*
X-43968238Y-120357380D01*
X-43777761Y-120357380D01*
X-43682523Y-120309761D01*
X-43634904Y-120262142D01*
X-43587285Y-120166904D01*
X-43587285Y-119928809D01*
X-43634904Y-119833571D01*
X-43682523Y-119785952D01*
X-43777761Y-119738333D01*
X-43968238Y-119738333D01*
X-44063476Y-119785952D01*
X-44111095Y-119833571D01*
X-44158714Y-119928809D01*
X-28111095Y-101357380D02*
X-28111095Y-100357380D01*
X-27873000Y-100357380D01*
X-27730142Y-100405000D01*
X-27634904Y-100500238D01*
X-27587285Y-100595476D01*
X-27539666Y-100785952D01*
X-27539666Y-100928809D01*
X-27587285Y-101119285D01*
X-27634904Y-101214523D01*
X-27730142Y-101309761D01*
X-27873000Y-101357380D01*
X-28111095Y-101357380D01*
X-26634904Y-100357380D02*
X-27111095Y-100357380D01*
X-27158714Y-100833571D01*
X-27111095Y-100785952D01*
X-27015857Y-100738333D01*
X-26777761Y-100738333D01*
X-26682523Y-100785952D01*
X-26634904Y-100833571D01*
X-26587285Y-100928809D01*
X-26587285Y-101166904D01*
X-26634904Y-101262142D01*
X-26682523Y-101309761D01*
X-26777761Y-101357380D01*
X-27015857Y-101357380D01*
X-27111095Y-101309761D01*
X-27158714Y-101262142D01*
X-28111095Y-85357380D02*
X-28111095Y-84357380D01*
X-27873000Y-84357380D01*
X-27730142Y-84405000D01*
X-27634904Y-84500238D01*
X-27587285Y-84595476D01*
X-27539666Y-84785952D01*
X-27539666Y-84928809D01*
X-27587285Y-85119285D01*
X-27634904Y-85214523D01*
X-27730142Y-85309761D01*
X-27873000Y-85357380D01*
X-28111095Y-85357380D01*
X-26682523Y-84690714D02*
X-26682523Y-85357380D01*
X-26920619Y-84309761D02*
X-27158714Y-85024047D01*
X-26539666Y-85024047D01*
X-27111095Y-71357380D02*
X-27111095Y-70357380D01*
X-26873000Y-70357380D01*
X-26730142Y-70405000D01*
X-26634904Y-70500238D01*
X-26587285Y-70595476D01*
X-26539666Y-70785952D01*
X-26539666Y-70928809D01*
X-26587285Y-71119285D01*
X-26634904Y-71214523D01*
X-26730142Y-71309761D01*
X-26873000Y-71357380D01*
X-27111095Y-71357380D01*
X-26206333Y-70357380D02*
X-25587285Y-70357380D01*
X-25920619Y-70738333D01*
X-25777761Y-70738333D01*
X-25682523Y-70785952D01*
X-25634904Y-70833571D01*
X-25587285Y-70928809D01*
X-25587285Y-71166904D01*
X-25634904Y-71262142D01*
X-25682523Y-71309761D01*
X-25777761Y-71357380D01*
X-26063476Y-71357380D01*
X-26158714Y-71309761D01*
X-26206333Y-71262142D01*
X-27111095Y-55357380D02*
X-27111095Y-54357380D01*
X-26873000Y-54357380D01*
X-26730142Y-54405000D01*
X-26634904Y-54500238D01*
X-26587285Y-54595476D01*
X-26539666Y-54785952D01*
X-26539666Y-54928809D01*
X-26587285Y-55119285D01*
X-26634904Y-55214523D01*
X-26730142Y-55309761D01*
X-26873000Y-55357380D01*
X-27111095Y-55357380D01*
X-26158714Y-54452619D02*
X-26111095Y-54405000D01*
X-26015857Y-54357380D01*
X-25777761Y-54357380D01*
X-25682523Y-54405000D01*
X-25634904Y-54452619D01*
X-25587285Y-54547857D01*
X-25587285Y-54643095D01*
X-25634904Y-54785952D01*
X-26206333Y-55357380D01*
X-25587285Y-55357380D01*
X-27111095Y-39357380D02*
X-27111095Y-38357380D01*
X-26873000Y-38357380D01*
X-26730142Y-38405000D01*
X-26634904Y-38500238D01*
X-26587285Y-38595476D01*
X-26539666Y-38785952D01*
X-26539666Y-38928809D01*
X-26587285Y-39119285D01*
X-26634904Y-39214523D01*
X-26730142Y-39309761D01*
X-26873000Y-39357380D01*
X-27111095Y-39357380D01*
X-25587285Y-39357380D02*
X-26158714Y-39357380D01*
X-25873000Y-39357380D02*
X-25873000Y-38357380D01*
X-25968238Y-38500238D01*
X-26063476Y-38595476D01*
X-26158714Y-38643095D01*
X-52925184Y-28184380D02*
X-52925184Y-28993904D01*
X-52877565Y-29089142D01*
X-52829946Y-29136761D01*
X-52734708Y-29184380D01*
X-52544232Y-29184380D01*
X-52448994Y-29136761D01*
X-52401375Y-29089142D01*
X-52353756Y-28993904D01*
X-52353756Y-28184380D01*
X-51448994Y-28517714D02*
X-51448994Y-29184380D01*
X-51687089Y-28136761D02*
X-51925184Y-28851047D01*
X-51306137Y-28851047D01*
X-31642857Y-116102380D02*
X-31976190Y-115626190D01*
X-32214285Y-116102380D02*
X-32214285Y-115102380D01*
X-31833333Y-115102380D01*
X-31738095Y-115150000D01*
X-31690476Y-115197619D01*
X-31642857Y-115292857D01*
X-31642857Y-115435714D01*
X-31690476Y-115530952D01*
X-31738095Y-115578571D01*
X-31833333Y-115626190D01*
X-32214285Y-115626190D01*
X-30785714Y-115435714D02*
X-30785714Y-116102380D01*
X-31023809Y-115054761D02*
X-31261904Y-115769047D01*
X-30642857Y-115769047D01*
X-30119047Y-115530952D02*
X-30214285Y-115483333D01*
X-30261904Y-115435714D01*
X-30309523Y-115340476D01*
X-30309523Y-115292857D01*
X-30261904Y-115197619D01*
X-30214285Y-115150000D01*
X-30119047Y-115102380D01*
X-29928571Y-115102380D01*
X-29833333Y-115150000D01*
X-29785714Y-115197619D01*
X-29738095Y-115292857D01*
X-29738095Y-115340476D01*
X-29785714Y-115435714D01*
X-29833333Y-115483333D01*
X-29928571Y-115530952D01*
X-30119047Y-115530952D01*
X-30214285Y-115578571D01*
X-30261904Y-115626190D01*
X-30309523Y-115721428D01*
X-30309523Y-115911904D01*
X-30261904Y-116007142D01*
X-30214285Y-116054761D01*
X-30119047Y-116102380D01*
X-29928571Y-116102380D01*
X-29833333Y-116054761D01*
X-29785714Y-116007142D01*
X-29738095Y-115911904D01*
X-29738095Y-115721428D01*
X-29785714Y-115626190D01*
X-29833333Y-115578571D01*
X-29928571Y-115530952D01*
X-14642857Y-97102380D02*
X-14976190Y-96626190D01*
X-15214285Y-97102380D02*
X-15214285Y-96102380D01*
X-14833333Y-96102380D01*
X-14738095Y-96150000D01*
X-14690476Y-96197619D01*
X-14642857Y-96292857D01*
X-14642857Y-96435714D01*
X-14690476Y-96530952D01*
X-14738095Y-96578571D01*
X-14833333Y-96626190D01*
X-15214285Y-96626190D01*
X-13785714Y-96435714D02*
X-13785714Y-97102380D01*
X-14023809Y-96054761D02*
X-14261904Y-96769047D01*
X-13642857Y-96769047D01*
X-13357142Y-96102380D02*
X-12690476Y-96102380D01*
X-13119047Y-97102380D01*
X-14642857Y-81102380D02*
X-14976190Y-80626190D01*
X-15214285Y-81102380D02*
X-15214285Y-80102380D01*
X-14833333Y-80102380D01*
X-14738095Y-80150000D01*
X-14690476Y-80197619D01*
X-14642857Y-80292857D01*
X-14642857Y-80435714D01*
X-14690476Y-80530952D01*
X-14738095Y-80578571D01*
X-14833333Y-80626190D01*
X-15214285Y-80626190D01*
X-13785714Y-80435714D02*
X-13785714Y-81102380D01*
X-14023809Y-80054761D02*
X-14261904Y-80769047D01*
X-13642857Y-80769047D01*
X-12833333Y-80102380D02*
X-13023809Y-80102380D01*
X-13119047Y-80150000D01*
X-13166666Y-80197619D01*
X-13261904Y-80340476D01*
X-13309523Y-80530952D01*
X-13309523Y-80911904D01*
X-13261904Y-81007142D01*
X-13214285Y-81054761D01*
X-13119047Y-81102380D01*
X-12928571Y-81102380D01*
X-12833333Y-81054761D01*
X-12785714Y-81007142D01*
X-12738095Y-80911904D01*
X-12738095Y-80673809D01*
X-12785714Y-80578571D01*
X-12833333Y-80530952D01*
X-12928571Y-80483333D01*
X-13119047Y-80483333D01*
X-13214285Y-80530952D01*
X-13261904Y-80578571D01*
X-13309523Y-80673809D01*
X-12642857Y-65102380D02*
X-12976190Y-64626190D01*
X-13214285Y-65102380D02*
X-13214285Y-64102380D01*
X-12833333Y-64102380D01*
X-12738095Y-64150000D01*
X-12690476Y-64197619D01*
X-12642857Y-64292857D01*
X-12642857Y-64435714D01*
X-12690476Y-64530952D01*
X-12738095Y-64578571D01*
X-12833333Y-64626190D01*
X-13214285Y-64626190D01*
X-11785714Y-64435714D02*
X-11785714Y-65102380D01*
X-12023809Y-64054761D02*
X-12261904Y-64769047D01*
X-11642857Y-64769047D01*
X-10785714Y-64102380D02*
X-11261904Y-64102380D01*
X-11309523Y-64578571D01*
X-11261904Y-64530952D01*
X-11166666Y-64483333D01*
X-10928571Y-64483333D01*
X-10833333Y-64530952D01*
X-10785714Y-64578571D01*
X-10738095Y-64673809D01*
X-10738095Y-64911904D01*
X-10785714Y-65007142D01*
X-10833333Y-65054761D01*
X-10928571Y-65102380D01*
X-11166666Y-65102380D01*
X-11261904Y-65054761D01*
X-11309523Y-65007142D01*
X-12642857Y-49102380D02*
X-12976190Y-48626190D01*
X-13214285Y-49102380D02*
X-13214285Y-48102380D01*
X-12833333Y-48102380D01*
X-12738095Y-48150000D01*
X-12690476Y-48197619D01*
X-12642857Y-48292857D01*
X-12642857Y-48435714D01*
X-12690476Y-48530952D01*
X-12738095Y-48578571D01*
X-12833333Y-48626190D01*
X-13214285Y-48626190D01*
X-11785714Y-48435714D02*
X-11785714Y-49102380D01*
X-12023809Y-48054761D02*
X-12261904Y-48769047D01*
X-11642857Y-48769047D01*
X-10833333Y-48435714D02*
X-10833333Y-49102380D01*
X-11071428Y-48054761D02*
X-11309523Y-48769047D01*
X-10690476Y-48769047D01*
X-12642857Y-33102380D02*
X-12976190Y-32626190D01*
X-13214285Y-33102380D02*
X-13214285Y-32102380D01*
X-12833333Y-32102380D01*
X-12738095Y-32150000D01*
X-12690476Y-32197619D01*
X-12642857Y-32292857D01*
X-12642857Y-32435714D01*
X-12690476Y-32530952D01*
X-12738095Y-32578571D01*
X-12833333Y-32626190D01*
X-13214285Y-32626190D01*
X-11785714Y-32435714D02*
X-11785714Y-33102380D01*
X-12023809Y-32054761D02*
X-12261904Y-32769047D01*
X-11642857Y-32769047D01*
X-11357142Y-32102380D02*
X-10738095Y-32102380D01*
X-11071428Y-32483333D01*
X-10928571Y-32483333D01*
X-10833333Y-32530952D01*
X-10785714Y-32578571D01*
X-10738095Y-32673809D01*
X-10738095Y-32911904D01*
X-10785714Y-33007142D01*
X-10833333Y-33054761D01*
X-10928571Y-33102380D01*
X-11214285Y-33102380D01*
X-11309523Y-33054761D01*
X-11357142Y-33007142D01*
X-35642857Y-118102380D02*
X-35976190Y-117626190D01*
X-36214285Y-118102380D02*
X-36214285Y-117102380D01*
X-35833333Y-117102380D01*
X-35738095Y-117150000D01*
X-35690476Y-117197619D01*
X-35642857Y-117292857D01*
X-35642857Y-117435714D01*
X-35690476Y-117530952D01*
X-35738095Y-117578571D01*
X-35833333Y-117626190D01*
X-36214285Y-117626190D01*
X-34785714Y-117435714D02*
X-34785714Y-118102380D01*
X-35023809Y-117054761D02*
X-35261904Y-117769047D01*
X-34642857Y-117769047D01*
X-34309523Y-117197619D02*
X-34261904Y-117150000D01*
X-34166666Y-117102380D01*
X-33928571Y-117102380D01*
X-33833333Y-117150000D01*
X-33785714Y-117197619D01*
X-33738095Y-117292857D01*
X-33738095Y-117388095D01*
X-33785714Y-117530952D01*
X-34357142Y-118102380D01*
X-33738095Y-118102380D01*
X-18642857Y-99102380D02*
X-18976190Y-98626190D01*
X-19214285Y-99102380D02*
X-19214285Y-98102380D01*
X-18833333Y-98102380D01*
X-18738095Y-98150000D01*
X-18690476Y-98197619D01*
X-18642857Y-98292857D01*
X-18642857Y-98435714D01*
X-18690476Y-98530952D01*
X-18738095Y-98578571D01*
X-18833333Y-98626190D01*
X-19214285Y-98626190D01*
X-17785714Y-98435714D02*
X-17785714Y-99102380D01*
X-18023809Y-98054761D02*
X-18261904Y-98769047D01*
X-17642857Y-98769047D01*
X-16738095Y-99102380D02*
X-17309523Y-99102380D01*
X-17023809Y-99102380D02*
X-17023809Y-98102380D01*
X-17119047Y-98245238D01*
X-17214285Y-98340476D01*
X-17309523Y-98388095D01*
X-18642857Y-83102380D02*
X-18976190Y-82626190D01*
X-19214285Y-83102380D02*
X-19214285Y-82102380D01*
X-18833333Y-82102380D01*
X-18738095Y-82150000D01*
X-18690476Y-82197619D01*
X-18642857Y-82292857D01*
X-18642857Y-82435714D01*
X-18690476Y-82530952D01*
X-18738095Y-82578571D01*
X-18833333Y-82626190D01*
X-19214285Y-82626190D01*
X-17785714Y-82435714D02*
X-17785714Y-83102380D01*
X-18023809Y-82054761D02*
X-18261904Y-82769047D01*
X-17642857Y-82769047D01*
X-17071428Y-82102380D02*
X-16976190Y-82102380D01*
X-16880952Y-82150000D01*
X-16833333Y-82197619D01*
X-16785714Y-82292857D01*
X-16738095Y-82483333D01*
X-16738095Y-82721428D01*
X-16785714Y-82911904D01*
X-16833333Y-83007142D01*
X-16880952Y-83054761D01*
X-16976190Y-83102380D01*
X-17071428Y-83102380D01*
X-17166666Y-83054761D01*
X-17214285Y-83007142D01*
X-17261904Y-82911904D01*
X-17309523Y-82721428D01*
X-17309523Y-82483333D01*
X-17261904Y-82292857D01*
X-17214285Y-82197619D01*
X-17166666Y-82150000D01*
X-17071428Y-82102380D01*
X-16642857Y-67102380D02*
X-16976190Y-66626190D01*
X-17214285Y-67102380D02*
X-17214285Y-66102380D01*
X-16833333Y-66102380D01*
X-16738095Y-66150000D01*
X-16690476Y-66197619D01*
X-16642857Y-66292857D01*
X-16642857Y-66435714D01*
X-16690476Y-66530952D01*
X-16738095Y-66578571D01*
X-16833333Y-66626190D01*
X-17214285Y-66626190D01*
X-16309523Y-66102380D02*
X-15690476Y-66102380D01*
X-16023809Y-66483333D01*
X-15880952Y-66483333D01*
X-15785714Y-66530952D01*
X-15738095Y-66578571D01*
X-15690476Y-66673809D01*
X-15690476Y-66911904D01*
X-15738095Y-67007142D01*
X-15785714Y-67054761D01*
X-15880952Y-67102380D01*
X-16166666Y-67102380D01*
X-16261904Y-67054761D01*
X-16309523Y-67007142D01*
X-15214285Y-67102380D02*
X-15023809Y-67102380D01*
X-14928571Y-67054761D01*
X-14880952Y-67007142D01*
X-14785714Y-66864285D01*
X-14738095Y-66673809D01*
X-14738095Y-66292857D01*
X-14785714Y-66197619D01*
X-14833333Y-66150000D01*
X-14928571Y-66102380D01*
X-15119047Y-66102380D01*
X-15214285Y-66150000D01*
X-15261904Y-66197619D01*
X-15309523Y-66292857D01*
X-15309523Y-66530952D01*
X-15261904Y-66626190D01*
X-15214285Y-66673809D01*
X-15119047Y-66721428D01*
X-14928571Y-66721428D01*
X-14833333Y-66673809D01*
X-14785714Y-66626190D01*
X-14738095Y-66530952D01*
X-16642857Y-51102380D02*
X-16976190Y-50626190D01*
X-17214285Y-51102380D02*
X-17214285Y-50102380D01*
X-16833333Y-50102380D01*
X-16738095Y-50150000D01*
X-16690476Y-50197619D01*
X-16642857Y-50292857D01*
X-16642857Y-50435714D01*
X-16690476Y-50530952D01*
X-16738095Y-50578571D01*
X-16833333Y-50626190D01*
X-17214285Y-50626190D01*
X-16309523Y-50102380D02*
X-15690476Y-50102380D01*
X-16023809Y-50483333D01*
X-15880952Y-50483333D01*
X-15785714Y-50530952D01*
X-15738095Y-50578571D01*
X-15690476Y-50673809D01*
X-15690476Y-50911904D01*
X-15738095Y-51007142D01*
X-15785714Y-51054761D01*
X-15880952Y-51102380D01*
X-16166666Y-51102380D01*
X-16261904Y-51054761D01*
X-16309523Y-51007142D01*
X-15119047Y-50530952D02*
X-15214285Y-50483333D01*
X-15261904Y-50435714D01*
X-15309523Y-50340476D01*
X-15309523Y-50292857D01*
X-15261904Y-50197619D01*
X-15214285Y-50150000D01*
X-15119047Y-50102380D01*
X-14928571Y-50102380D01*
X-14833333Y-50150000D01*
X-14785714Y-50197619D01*
X-14738095Y-50292857D01*
X-14738095Y-50340476D01*
X-14785714Y-50435714D01*
X-14833333Y-50483333D01*
X-14928571Y-50530952D01*
X-15119047Y-50530952D01*
X-15214285Y-50578571D01*
X-15261904Y-50626190D01*
X-15309523Y-50721428D01*
X-15309523Y-50911904D01*
X-15261904Y-51007142D01*
X-15214285Y-51054761D01*
X-15119047Y-51102380D01*
X-14928571Y-51102380D01*
X-14833333Y-51054761D01*
X-14785714Y-51007142D01*
X-14738095Y-50911904D01*
X-14738095Y-50721428D01*
X-14785714Y-50626190D01*
X-14833333Y-50578571D01*
X-14928571Y-50530952D01*
X-16642857Y-35102380D02*
X-16976190Y-34626190D01*
X-17214285Y-35102380D02*
X-17214285Y-34102380D01*
X-16833333Y-34102380D01*
X-16738095Y-34150000D01*
X-16690476Y-34197619D01*
X-16642857Y-34292857D01*
X-16642857Y-34435714D01*
X-16690476Y-34530952D01*
X-16738095Y-34578571D01*
X-16833333Y-34626190D01*
X-17214285Y-34626190D01*
X-16309523Y-34102380D02*
X-15690476Y-34102380D01*
X-16023809Y-34483333D01*
X-15880952Y-34483333D01*
X-15785714Y-34530952D01*
X-15738095Y-34578571D01*
X-15690476Y-34673809D01*
X-15690476Y-34911904D01*
X-15738095Y-35007142D01*
X-15785714Y-35054761D01*
X-15880952Y-35102380D01*
X-16166666Y-35102380D01*
X-16261904Y-35054761D01*
X-16309523Y-35007142D01*
X-15357142Y-34102380D02*
X-14690476Y-34102380D01*
X-15119047Y-35102380D01*
X-39642857Y-119452380D02*
X-39976190Y-118976190D01*
X-40214285Y-119452380D02*
X-40214285Y-118452380D01*
X-39833333Y-118452380D01*
X-39738095Y-118500000D01*
X-39690476Y-118547619D01*
X-39642857Y-118642857D01*
X-39642857Y-118785714D01*
X-39690476Y-118880952D01*
X-39738095Y-118928571D01*
X-39833333Y-118976190D01*
X-40214285Y-118976190D01*
X-39309523Y-118452380D02*
X-38690476Y-118452380D01*
X-39023809Y-118833333D01*
X-38880952Y-118833333D01*
X-38785714Y-118880952D01*
X-38738095Y-118928571D01*
X-38690476Y-119023809D01*
X-38690476Y-119261904D01*
X-38738095Y-119357142D01*
X-38785714Y-119404761D01*
X-38880952Y-119452380D01*
X-39166666Y-119452380D01*
X-39261904Y-119404761D01*
X-39309523Y-119357142D01*
X-37833333Y-118452380D02*
X-38023809Y-118452380D01*
X-38119047Y-118500000D01*
X-38166666Y-118547619D01*
X-38261904Y-118690476D01*
X-38309523Y-118880952D01*
X-38309523Y-119261904D01*
X-38261904Y-119357142D01*
X-38214285Y-119404761D01*
X-38119047Y-119452380D01*
X-37928571Y-119452380D01*
X-37833333Y-119404761D01*
X-37785714Y-119357142D01*
X-37738095Y-119261904D01*
X-37738095Y-119023809D01*
X-37785714Y-118928571D01*
X-37833333Y-118880952D01*
X-37928571Y-118833333D01*
X-38119047Y-118833333D01*
X-38214285Y-118880952D01*
X-38261904Y-118928571D01*
X-38309523Y-119023809D01*
X-39642857Y-110802380D02*
X-39976190Y-110326190D01*
X-40214285Y-110802380D02*
X-40214285Y-109802380D01*
X-39833333Y-109802380D01*
X-39738095Y-109850000D01*
X-39690476Y-109897619D01*
X-39642857Y-109992857D01*
X-39642857Y-110135714D01*
X-39690476Y-110230952D01*
X-39738095Y-110278571D01*
X-39833333Y-110326190D01*
X-40214285Y-110326190D01*
X-39309523Y-109802380D02*
X-38690476Y-109802380D01*
X-39023809Y-110183333D01*
X-38880952Y-110183333D01*
X-38785714Y-110230952D01*
X-38738095Y-110278571D01*
X-38690476Y-110373809D01*
X-38690476Y-110611904D01*
X-38738095Y-110707142D01*
X-38785714Y-110754761D01*
X-38880952Y-110802380D01*
X-39166666Y-110802380D01*
X-39261904Y-110754761D01*
X-39309523Y-110707142D01*
X-37785714Y-109802380D02*
X-38261904Y-109802380D01*
X-38309523Y-110278571D01*
X-38261904Y-110230952D01*
X-38166666Y-110183333D01*
X-37928571Y-110183333D01*
X-37833333Y-110230952D01*
X-37785714Y-110278571D01*
X-37738095Y-110373809D01*
X-37738095Y-110611904D01*
X-37785714Y-110707142D01*
X-37833333Y-110754761D01*
X-37928571Y-110802380D01*
X-38166666Y-110802380D01*
X-38261904Y-110754761D01*
X-38309523Y-110707142D01*
X-22642857Y-100452380D02*
X-22976190Y-99976190D01*
X-23214285Y-100452380D02*
X-23214285Y-99452380D01*
X-22833333Y-99452380D01*
X-22738095Y-99500000D01*
X-22690476Y-99547619D01*
X-22642857Y-99642857D01*
X-22642857Y-99785714D01*
X-22690476Y-99880952D01*
X-22738095Y-99928571D01*
X-22833333Y-99976190D01*
X-23214285Y-99976190D01*
X-22309523Y-99452380D02*
X-21690476Y-99452380D01*
X-22023809Y-99833333D01*
X-21880952Y-99833333D01*
X-21785714Y-99880952D01*
X-21738095Y-99928571D01*
X-21690476Y-100023809D01*
X-21690476Y-100261904D01*
X-21738095Y-100357142D01*
X-21785714Y-100404761D01*
X-21880952Y-100452380D01*
X-22166666Y-100452380D01*
X-22261904Y-100404761D01*
X-22309523Y-100357142D01*
X-20833333Y-99785714D02*
X-20833333Y-100452380D01*
X-21071428Y-99404761D02*
X-21309523Y-100119047D01*
X-20690476Y-100119047D01*
X-22642857Y-91802380D02*
X-22976190Y-91326190D01*
X-23214285Y-91802380D02*
X-23214285Y-90802380D01*
X-22833333Y-90802380D01*
X-22738095Y-90850000D01*
X-22690476Y-90897619D01*
X-22642857Y-90992857D01*
X-22642857Y-91135714D01*
X-22690476Y-91230952D01*
X-22738095Y-91278571D01*
X-22833333Y-91326190D01*
X-23214285Y-91326190D01*
X-22309523Y-90802380D02*
X-21690476Y-90802380D01*
X-22023809Y-91183333D01*
X-21880952Y-91183333D01*
X-21785714Y-91230952D01*
X-21738095Y-91278571D01*
X-21690476Y-91373809D01*
X-21690476Y-91611904D01*
X-21738095Y-91707142D01*
X-21785714Y-91754761D01*
X-21880952Y-91802380D01*
X-22166666Y-91802380D01*
X-22261904Y-91754761D01*
X-22309523Y-91707142D01*
X-21357142Y-90802380D02*
X-20738095Y-90802380D01*
X-21071428Y-91183333D01*
X-20928571Y-91183333D01*
X-20833333Y-91230952D01*
X-20785714Y-91278571D01*
X-20738095Y-91373809D01*
X-20738095Y-91611904D01*
X-20785714Y-91707142D01*
X-20833333Y-91754761D01*
X-20928571Y-91802380D01*
X-21214285Y-91802380D01*
X-21309523Y-91754761D01*
X-21357142Y-91707142D01*
X-22642857Y-84452380D02*
X-22976190Y-83976190D01*
X-23214285Y-84452380D02*
X-23214285Y-83452380D01*
X-22833333Y-83452380D01*
X-22738095Y-83500000D01*
X-22690476Y-83547619D01*
X-22642857Y-83642857D01*
X-22642857Y-83785714D01*
X-22690476Y-83880952D01*
X-22738095Y-83928571D01*
X-22833333Y-83976190D01*
X-23214285Y-83976190D01*
X-22309523Y-83452380D02*
X-21690476Y-83452380D01*
X-22023809Y-83833333D01*
X-21880952Y-83833333D01*
X-21785714Y-83880952D01*
X-21738095Y-83928571D01*
X-21690476Y-84023809D01*
X-21690476Y-84261904D01*
X-21738095Y-84357142D01*
X-21785714Y-84404761D01*
X-21880952Y-84452380D01*
X-22166666Y-84452380D01*
X-22261904Y-84404761D01*
X-22309523Y-84357142D01*
X-21309523Y-83547619D02*
X-21261904Y-83500000D01*
X-21166666Y-83452380D01*
X-20928571Y-83452380D01*
X-20833333Y-83500000D01*
X-20785714Y-83547619D01*
X-20738095Y-83642857D01*
X-20738095Y-83738095D01*
X-20785714Y-83880952D01*
X-21357142Y-84452380D01*
X-20738095Y-84452380D01*
X-22642857Y-75802380D02*
X-22976190Y-75326190D01*
X-23214285Y-75802380D02*
X-23214285Y-74802380D01*
X-22833333Y-74802380D01*
X-22738095Y-74850000D01*
X-22690476Y-74897619D01*
X-22642857Y-74992857D01*
X-22642857Y-75135714D01*
X-22690476Y-75230952D01*
X-22738095Y-75278571D01*
X-22833333Y-75326190D01*
X-23214285Y-75326190D01*
X-22309523Y-74802380D02*
X-21690476Y-74802380D01*
X-22023809Y-75183333D01*
X-21880952Y-75183333D01*
X-21785714Y-75230952D01*
X-21738095Y-75278571D01*
X-21690476Y-75373809D01*
X-21690476Y-75611904D01*
X-21738095Y-75707142D01*
X-21785714Y-75754761D01*
X-21880952Y-75802380D01*
X-22166666Y-75802380D01*
X-22261904Y-75754761D01*
X-22309523Y-75707142D01*
X-20738095Y-75802380D02*
X-21309523Y-75802380D01*
X-21023809Y-75802380D02*
X-21023809Y-74802380D01*
X-21119047Y-74945238D01*
X-21214285Y-75040476D01*
X-21309523Y-75088095D01*
X-20642857Y-68452380D02*
X-20976190Y-67976190D01*
X-21214285Y-68452380D02*
X-21214285Y-67452380D01*
X-20833333Y-67452380D01*
X-20738095Y-67500000D01*
X-20690476Y-67547619D01*
X-20642857Y-67642857D01*
X-20642857Y-67785714D01*
X-20690476Y-67880952D01*
X-20738095Y-67928571D01*
X-20833333Y-67976190D01*
X-21214285Y-67976190D01*
X-20309523Y-67452380D02*
X-19690476Y-67452380D01*
X-20023809Y-67833333D01*
X-19880952Y-67833333D01*
X-19785714Y-67880952D01*
X-19738095Y-67928571D01*
X-19690476Y-68023809D01*
X-19690476Y-68261904D01*
X-19738095Y-68357142D01*
X-19785714Y-68404761D01*
X-19880952Y-68452380D01*
X-20166666Y-68452380D01*
X-20261904Y-68404761D01*
X-20309523Y-68357142D01*
X-19071428Y-67452380D02*
X-18976190Y-67452380D01*
X-18880952Y-67500000D01*
X-18833333Y-67547619D01*
X-18785714Y-67642857D01*
X-18738095Y-67833333D01*
X-18738095Y-68071428D01*
X-18785714Y-68261904D01*
X-18833333Y-68357142D01*
X-18880952Y-68404761D01*
X-18976190Y-68452380D01*
X-19071428Y-68452380D01*
X-19166666Y-68404761D01*
X-19214285Y-68357142D01*
X-19261904Y-68261904D01*
X-19309523Y-68071428D01*
X-19309523Y-67833333D01*
X-19261904Y-67642857D01*
X-19214285Y-67547619D01*
X-19166666Y-67500000D01*
X-19071428Y-67452380D01*
X-20642857Y-59802380D02*
X-20976190Y-59326190D01*
X-21214285Y-59802380D02*
X-21214285Y-58802380D01*
X-20833333Y-58802380D01*
X-20738095Y-58850000D01*
X-20690476Y-58897619D01*
X-20642857Y-58992857D01*
X-20642857Y-59135714D01*
X-20690476Y-59230952D01*
X-20738095Y-59278571D01*
X-20833333Y-59326190D01*
X-21214285Y-59326190D01*
X-20261904Y-58897619D02*
X-20214285Y-58850000D01*
X-20119047Y-58802380D01*
X-19880952Y-58802380D01*
X-19785714Y-58850000D01*
X-19738095Y-58897619D01*
X-19690476Y-58992857D01*
X-19690476Y-59088095D01*
X-19738095Y-59230952D01*
X-20309523Y-59802380D01*
X-19690476Y-59802380D01*
X-19214285Y-59802380D02*
X-19023809Y-59802380D01*
X-18928571Y-59754761D01*
X-18880952Y-59707142D01*
X-18785714Y-59564285D01*
X-18738095Y-59373809D01*
X-18738095Y-58992857D01*
X-18785714Y-58897619D01*
X-18833333Y-58850000D01*
X-18928571Y-58802380D01*
X-19119047Y-58802380D01*
X-19214285Y-58850000D01*
X-19261904Y-58897619D01*
X-19309523Y-58992857D01*
X-19309523Y-59230952D01*
X-19261904Y-59326190D01*
X-19214285Y-59373809D01*
X-19119047Y-59421428D01*
X-18928571Y-59421428D01*
X-18833333Y-59373809D01*
X-18785714Y-59326190D01*
X-18738095Y-59230952D01*
X-20642857Y-52452380D02*
X-20976190Y-51976190D01*
X-21214285Y-52452380D02*
X-21214285Y-51452380D01*
X-20833333Y-51452380D01*
X-20738095Y-51500000D01*
X-20690476Y-51547619D01*
X-20642857Y-51642857D01*
X-20642857Y-51785714D01*
X-20690476Y-51880952D01*
X-20738095Y-51928571D01*
X-20833333Y-51976190D01*
X-21214285Y-51976190D01*
X-20261904Y-51547619D02*
X-20214285Y-51500000D01*
X-20119047Y-51452380D01*
X-19880952Y-51452380D01*
X-19785714Y-51500000D01*
X-19738095Y-51547619D01*
X-19690476Y-51642857D01*
X-19690476Y-51738095D01*
X-19738095Y-51880952D01*
X-20309523Y-52452380D01*
X-19690476Y-52452380D01*
X-19119047Y-51880952D02*
X-19214285Y-51833333D01*
X-19261904Y-51785714D01*
X-19309523Y-51690476D01*
X-19309523Y-51642857D01*
X-19261904Y-51547619D01*
X-19214285Y-51500000D01*
X-19119047Y-51452380D01*
X-18928571Y-51452380D01*
X-18833333Y-51500000D01*
X-18785714Y-51547619D01*
X-18738095Y-51642857D01*
X-18738095Y-51690476D01*
X-18785714Y-51785714D01*
X-18833333Y-51833333D01*
X-18928571Y-51880952D01*
X-19119047Y-51880952D01*
X-19214285Y-51928571D01*
X-19261904Y-51976190D01*
X-19309523Y-52071428D01*
X-19309523Y-52261904D01*
X-19261904Y-52357142D01*
X-19214285Y-52404761D01*
X-19119047Y-52452380D01*
X-18928571Y-52452380D01*
X-18833333Y-52404761D01*
X-18785714Y-52357142D01*
X-18738095Y-52261904D01*
X-18738095Y-52071428D01*
X-18785714Y-51976190D01*
X-18833333Y-51928571D01*
X-18928571Y-51880952D01*
X-20642857Y-43802380D02*
X-20976190Y-43326190D01*
X-21214285Y-43802380D02*
X-21214285Y-42802380D01*
X-20833333Y-42802380D01*
X-20738095Y-42850000D01*
X-20690476Y-42897619D01*
X-20642857Y-42992857D01*
X-20642857Y-43135714D01*
X-20690476Y-43230952D01*
X-20738095Y-43278571D01*
X-20833333Y-43326190D01*
X-21214285Y-43326190D01*
X-20261904Y-42897619D02*
X-20214285Y-42850000D01*
X-20119047Y-42802380D01*
X-19880952Y-42802380D01*
X-19785714Y-42850000D01*
X-19738095Y-42897619D01*
X-19690476Y-42992857D01*
X-19690476Y-43088095D01*
X-19738095Y-43230952D01*
X-20309523Y-43802380D01*
X-19690476Y-43802380D01*
X-19357142Y-42802380D02*
X-18690476Y-42802380D01*
X-19119047Y-43802380D01*
X-20642857Y-36452380D02*
X-20976190Y-35976190D01*
X-21214285Y-36452380D02*
X-21214285Y-35452380D01*
X-20833333Y-35452380D01*
X-20738095Y-35500000D01*
X-20690476Y-35547619D01*
X-20642857Y-35642857D01*
X-20642857Y-35785714D01*
X-20690476Y-35880952D01*
X-20738095Y-35928571D01*
X-20833333Y-35976190D01*
X-21214285Y-35976190D01*
X-20261904Y-35547619D02*
X-20214285Y-35500000D01*
X-20119047Y-35452380D01*
X-19880952Y-35452380D01*
X-19785714Y-35500000D01*
X-19738095Y-35547619D01*
X-19690476Y-35642857D01*
X-19690476Y-35738095D01*
X-19738095Y-35880952D01*
X-20309523Y-36452380D01*
X-19690476Y-36452380D01*
X-18833333Y-35452380D02*
X-19023809Y-35452380D01*
X-19119047Y-35500000D01*
X-19166666Y-35547619D01*
X-19261904Y-35690476D01*
X-19309523Y-35880952D01*
X-19309523Y-36261904D01*
X-19261904Y-36357142D01*
X-19214285Y-36404761D01*
X-19119047Y-36452380D01*
X-18928571Y-36452380D01*
X-18833333Y-36404761D01*
X-18785714Y-36357142D01*
X-18738095Y-36261904D01*
X-18738095Y-36023809D01*
X-18785714Y-35928571D01*
X-18833333Y-35880952D01*
X-18928571Y-35833333D01*
X-19119047Y-35833333D01*
X-19214285Y-35880952D01*
X-19261904Y-35928571D01*
X-19309523Y-36023809D01*
X-20642857Y-27802380D02*
X-20976190Y-27326190D01*
X-21214285Y-27802380D02*
X-21214285Y-26802380D01*
X-20833333Y-26802380D01*
X-20738095Y-26850000D01*
X-20690476Y-26897619D01*
X-20642857Y-26992857D01*
X-20642857Y-27135714D01*
X-20690476Y-27230952D01*
X-20738095Y-27278571D01*
X-20833333Y-27326190D01*
X-21214285Y-27326190D01*
X-20261904Y-26897619D02*
X-20214285Y-26850000D01*
X-20119047Y-26802380D01*
X-19880952Y-26802380D01*
X-19785714Y-26850000D01*
X-19738095Y-26897619D01*
X-19690476Y-26992857D01*
X-19690476Y-27088095D01*
X-19738095Y-27230952D01*
X-20309523Y-27802380D01*
X-19690476Y-27802380D01*
X-18785714Y-26802380D02*
X-19261904Y-26802380D01*
X-19309523Y-27278571D01*
X-19261904Y-27230952D01*
X-19166666Y-27183333D01*
X-18928571Y-27183333D01*
X-18833333Y-27230952D01*
X-18785714Y-27278571D01*
X-18738095Y-27373809D01*
X-18738095Y-27611904D01*
X-18785714Y-27707142D01*
X-18833333Y-27754761D01*
X-18928571Y-27802380D01*
X-19166666Y-27802380D01*
X-19261904Y-27754761D01*
X-19309523Y-27707142D01*
X-39642857Y-117952380D02*
X-39976190Y-117476190D01*
X-40214285Y-117952380D02*
X-40214285Y-116952380D01*
X-39833333Y-116952380D01*
X-39738095Y-117000000D01*
X-39690476Y-117047619D01*
X-39642857Y-117142857D01*
X-39642857Y-117285714D01*
X-39690476Y-117380952D01*
X-39738095Y-117428571D01*
X-39833333Y-117476190D01*
X-40214285Y-117476190D01*
X-39261904Y-117047619D02*
X-39214285Y-117000000D01*
X-39119047Y-116952380D01*
X-38880952Y-116952380D01*
X-38785714Y-117000000D01*
X-38738095Y-117047619D01*
X-38690476Y-117142857D01*
X-38690476Y-117238095D01*
X-38738095Y-117380952D01*
X-39309523Y-117952380D01*
X-38690476Y-117952380D01*
X-37833333Y-117285714D02*
X-37833333Y-117952380D01*
X-38071428Y-116904761D02*
X-38309523Y-117619047D01*
X-37690476Y-117619047D01*
X-22642857Y-99452380D02*
X-22976190Y-98976190D01*
X-23214285Y-99452380D02*
X-23214285Y-98452380D01*
X-22833333Y-98452380D01*
X-22738095Y-98500000D01*
X-22690476Y-98547619D01*
X-22642857Y-98642857D01*
X-22642857Y-98785714D01*
X-22690476Y-98880952D01*
X-22738095Y-98928571D01*
X-22833333Y-98976190D01*
X-23214285Y-98976190D01*
X-22261904Y-98547619D02*
X-22214285Y-98500000D01*
X-22119047Y-98452380D01*
X-21880952Y-98452380D01*
X-21785714Y-98500000D01*
X-21738095Y-98547619D01*
X-21690476Y-98642857D01*
X-21690476Y-98738095D01*
X-21738095Y-98880952D01*
X-22309523Y-99452380D01*
X-21690476Y-99452380D01*
X-21357142Y-98452380D02*
X-20738095Y-98452380D01*
X-21071428Y-98833333D01*
X-20928571Y-98833333D01*
X-20833333Y-98880952D01*
X-20785714Y-98928571D01*
X-20738095Y-99023809D01*
X-20738095Y-99261904D01*
X-20785714Y-99357142D01*
X-20833333Y-99404761D01*
X-20928571Y-99452380D01*
X-21214285Y-99452380D01*
X-21309523Y-99404761D01*
X-21357142Y-99357142D01*
X-22642857Y-83452380D02*
X-22976190Y-82976190D01*
X-23214285Y-83452380D02*
X-23214285Y-82452380D01*
X-22833333Y-82452380D01*
X-22738095Y-82500000D01*
X-22690476Y-82547619D01*
X-22642857Y-82642857D01*
X-22642857Y-82785714D01*
X-22690476Y-82880952D01*
X-22738095Y-82928571D01*
X-22833333Y-82976190D01*
X-23214285Y-82976190D01*
X-22261904Y-82547619D02*
X-22214285Y-82500000D01*
X-22119047Y-82452380D01*
X-21880952Y-82452380D01*
X-21785714Y-82500000D01*
X-21738095Y-82547619D01*
X-21690476Y-82642857D01*
X-21690476Y-82738095D01*
X-21738095Y-82880952D01*
X-22309523Y-83452380D01*
X-21690476Y-83452380D01*
X-21309523Y-82547619D02*
X-21261904Y-82500000D01*
X-21166666Y-82452380D01*
X-20928571Y-82452380D01*
X-20833333Y-82500000D01*
X-20785714Y-82547619D01*
X-20738095Y-82642857D01*
X-20738095Y-82738095D01*
X-20785714Y-82880952D01*
X-21357142Y-83452380D01*
X-20738095Y-83452380D01*
X-20642857Y-67452380D02*
X-20976190Y-66976190D01*
X-21214285Y-67452380D02*
X-21214285Y-66452380D01*
X-20833333Y-66452380D01*
X-20738095Y-66500000D01*
X-20690476Y-66547619D01*
X-20642857Y-66642857D01*
X-20642857Y-66785714D01*
X-20690476Y-66880952D01*
X-20738095Y-66928571D01*
X-20833333Y-66976190D01*
X-21214285Y-66976190D01*
X-20261904Y-66547619D02*
X-20214285Y-66500000D01*
X-20119047Y-66452380D01*
X-19880952Y-66452380D01*
X-19785714Y-66500000D01*
X-19738095Y-66547619D01*
X-19690476Y-66642857D01*
X-19690476Y-66738095D01*
X-19738095Y-66880952D01*
X-20309523Y-67452380D01*
X-19690476Y-67452380D01*
X-18738095Y-67452380D02*
X-19309523Y-67452380D01*
X-19023809Y-67452380D02*
X-19023809Y-66452380D01*
X-19119047Y-66595238D01*
X-19214285Y-66690476D01*
X-19309523Y-66738095D01*
X-20642857Y-51452380D02*
X-20976190Y-50976190D01*
X-21214285Y-51452380D02*
X-21214285Y-50452380D01*
X-20833333Y-50452380D01*
X-20738095Y-50500000D01*
X-20690476Y-50547619D01*
X-20642857Y-50642857D01*
X-20642857Y-50785714D01*
X-20690476Y-50880952D01*
X-20738095Y-50928571D01*
X-20833333Y-50976190D01*
X-21214285Y-50976190D01*
X-20261904Y-50547619D02*
X-20214285Y-50500000D01*
X-20119047Y-50452380D01*
X-19880952Y-50452380D01*
X-19785714Y-50500000D01*
X-19738095Y-50547619D01*
X-19690476Y-50642857D01*
X-19690476Y-50738095D01*
X-19738095Y-50880952D01*
X-20309523Y-51452380D01*
X-19690476Y-51452380D01*
X-19071428Y-50452380D02*
X-18976190Y-50452380D01*
X-18880952Y-50500000D01*
X-18833333Y-50547619D01*
X-18785714Y-50642857D01*
X-18738095Y-50833333D01*
X-18738095Y-51071428D01*
X-18785714Y-51261904D01*
X-18833333Y-51357142D01*
X-18880952Y-51404761D01*
X-18976190Y-51452380D01*
X-19071428Y-51452380D01*
X-19166666Y-51404761D01*
X-19214285Y-51357142D01*
X-19261904Y-51261904D01*
X-19309523Y-51071428D01*
X-19309523Y-50833333D01*
X-19261904Y-50642857D01*
X-19214285Y-50547619D01*
X-19166666Y-50500000D01*
X-19071428Y-50452380D01*
X-20642857Y-35452380D02*
X-20976190Y-34976190D01*
X-21214285Y-35452380D02*
X-21214285Y-34452380D01*
X-20833333Y-34452380D01*
X-20738095Y-34500000D01*
X-20690476Y-34547619D01*
X-20642857Y-34642857D01*
X-20642857Y-34785714D01*
X-20690476Y-34880952D01*
X-20738095Y-34928571D01*
X-20833333Y-34976190D01*
X-21214285Y-34976190D01*
X-19690476Y-35452380D02*
X-20261904Y-35452380D01*
X-19976190Y-35452380D02*
X-19976190Y-34452380D01*
X-20071428Y-34595238D01*
X-20166666Y-34690476D01*
X-20261904Y-34738095D01*
X-19214285Y-35452380D02*
X-19023809Y-35452380D01*
X-18928571Y-35404761D01*
X-18880952Y-35357142D01*
X-18785714Y-35214285D01*
X-18738095Y-35023809D01*
X-18738095Y-34642857D01*
X-18785714Y-34547619D01*
X-18833333Y-34500000D01*
X-18928571Y-34452380D01*
X-19119047Y-34452380D01*
X-19214285Y-34500000D01*
X-19261904Y-34547619D01*
X-19309523Y-34642857D01*
X-19309523Y-34880952D01*
X-19261904Y-34976190D01*
X-19214285Y-35023809D01*
X-19119047Y-35071428D01*
X-18928571Y-35071428D01*
X-18833333Y-35023809D01*
X-18785714Y-34976190D01*
X-18738095Y-34880952D01*
X-31897619Y-96642857D02*
X-32373809Y-96976190D01*
X-31897619Y-97214285D02*
X-32897619Y-97214285D01*
X-32897619Y-96833333D01*
X-32850000Y-96738095D01*
X-32802380Y-96690476D01*
X-32707142Y-96642857D01*
X-32564285Y-96642857D01*
X-32469047Y-96690476D01*
X-32421428Y-96738095D01*
X-32373809Y-96833333D01*
X-32373809Y-97214285D01*
X-31897619Y-95690476D02*
X-31897619Y-96261904D01*
X-31897619Y-95976190D02*
X-32897619Y-95976190D01*
X-32754761Y-96071428D01*
X-32659523Y-96166666D01*
X-32611904Y-96261904D01*
X-32469047Y-95119047D02*
X-32516666Y-95214285D01*
X-32564285Y-95261904D01*
X-32659523Y-95309523D01*
X-32707142Y-95309523D01*
X-32802380Y-95261904D01*
X-32850000Y-95214285D01*
X-32897619Y-95119047D01*
X-32897619Y-94928571D01*
X-32850000Y-94833333D01*
X-32802380Y-94785714D01*
X-32707142Y-94738095D01*
X-32659523Y-94738095D01*
X-32564285Y-94785714D01*
X-32516666Y-94833333D01*
X-32469047Y-94928571D01*
X-32469047Y-95119047D01*
X-32421428Y-95214285D01*
X-32373809Y-95261904D01*
X-32278571Y-95309523D01*
X-32088095Y-95309523D01*
X-31992857Y-95261904D01*
X-31945238Y-95214285D01*
X-31897619Y-95119047D01*
X-31897619Y-94928571D01*
X-31945238Y-94833333D01*
X-31992857Y-94785714D01*
X-32088095Y-94738095D01*
X-32278571Y-94738095D01*
X-32373809Y-94785714D01*
X-32421428Y-94833333D01*
X-32469047Y-94928571D01*
X-31897619Y-80642857D02*
X-32373809Y-80976190D01*
X-31897619Y-81214285D02*
X-32897619Y-81214285D01*
X-32897619Y-80833333D01*
X-32850000Y-80738095D01*
X-32802380Y-80690476D01*
X-32707142Y-80642857D01*
X-32564285Y-80642857D01*
X-32469047Y-80690476D01*
X-32421428Y-80738095D01*
X-32373809Y-80833333D01*
X-32373809Y-81214285D01*
X-31897619Y-79690476D02*
X-31897619Y-80261904D01*
X-31897619Y-79976190D02*
X-32897619Y-79976190D01*
X-32754761Y-80071428D01*
X-32659523Y-80166666D01*
X-32611904Y-80261904D01*
X-32897619Y-78785714D02*
X-32897619Y-79261904D01*
X-32421428Y-79309523D01*
X-32469047Y-79261904D01*
X-32516666Y-79166666D01*
X-32516666Y-78928571D01*
X-32469047Y-78833333D01*
X-32421428Y-78785714D01*
X-32326190Y-78738095D01*
X-32088095Y-78738095D01*
X-31992857Y-78785714D01*
X-31945238Y-78833333D01*
X-31897619Y-78928571D01*
X-31897619Y-79166666D01*
X-31945238Y-79261904D01*
X-31992857Y-79309523D01*
X-31897619Y-64642857D02*
X-32373809Y-64976190D01*
X-31897619Y-65214285D02*
X-32897619Y-65214285D01*
X-32897619Y-64833333D01*
X-32850000Y-64738095D01*
X-32802380Y-64690476D01*
X-32707142Y-64642857D01*
X-32564285Y-64642857D01*
X-32469047Y-64690476D01*
X-32421428Y-64738095D01*
X-32373809Y-64833333D01*
X-32373809Y-65214285D01*
X-31897619Y-63690476D02*
X-31897619Y-64261904D01*
X-31897619Y-63976190D02*
X-32897619Y-63976190D01*
X-32754761Y-64071428D01*
X-32659523Y-64166666D01*
X-32611904Y-64261904D01*
X-32564285Y-62833333D02*
X-31897619Y-62833333D01*
X-32945238Y-63071428D02*
X-32230952Y-63309523D01*
X-32230952Y-62690476D01*
X-31897619Y-48642857D02*
X-32373809Y-48976190D01*
X-31897619Y-49214285D02*
X-32897619Y-49214285D01*
X-32897619Y-48833333D01*
X-32850000Y-48738095D01*
X-32802380Y-48690476D01*
X-32707142Y-48642857D01*
X-32564285Y-48642857D01*
X-32469047Y-48690476D01*
X-32421428Y-48738095D01*
X-32373809Y-48833333D01*
X-32373809Y-49214285D01*
X-31897619Y-47690476D02*
X-31897619Y-48261904D01*
X-31897619Y-47976190D02*
X-32897619Y-47976190D01*
X-32754761Y-48071428D01*
X-32659523Y-48166666D01*
X-32611904Y-48261904D01*
X-32897619Y-47357142D02*
X-32897619Y-46738095D01*
X-32516666Y-47071428D01*
X-32516666Y-46928571D01*
X-32469047Y-46833333D01*
X-32421428Y-46785714D01*
X-32326190Y-46738095D01*
X-32088095Y-46738095D01*
X-31992857Y-46785714D01*
X-31945238Y-46833333D01*
X-31897619Y-46928571D01*
X-31897619Y-47214285D01*
X-31945238Y-47309523D01*
X-31992857Y-47357142D01*
X-31897619Y-32642857D02*
X-32373809Y-32976190D01*
X-31897619Y-33214285D02*
X-32897619Y-33214285D01*
X-32897619Y-32833333D01*
X-32850000Y-32738095D01*
X-32802380Y-32690476D01*
X-32707142Y-32642857D01*
X-32564285Y-32642857D01*
X-32469047Y-32690476D01*
X-32421428Y-32738095D01*
X-32373809Y-32833333D01*
X-32373809Y-33214285D01*
X-31897619Y-31690476D02*
X-31897619Y-32261904D01*
X-31897619Y-31976190D02*
X-32897619Y-31976190D01*
X-32754761Y-32071428D01*
X-32659523Y-32166666D01*
X-32611904Y-32261904D01*
X-32802380Y-31309523D02*
X-32850000Y-31261904D01*
X-32897619Y-31166666D01*
X-32897619Y-30928571D01*
X-32850000Y-30833333D01*
X-32802380Y-30785714D01*
X-32707142Y-30738095D01*
X-32611904Y-30738095D01*
X-32469047Y-30785714D01*
X-31897619Y-31357142D01*
X-31897619Y-30738095D01*
X-36952380Y-113095238D02*
X-37000000Y-113190476D01*
X-37095238Y-113285714D01*
X-37238095Y-113428571D01*
X-37285714Y-113523809D01*
X-37285714Y-113619047D01*
X-37047619Y-113571428D02*
X-37095238Y-113666666D01*
X-37190476Y-113761904D01*
X-37380952Y-113809523D01*
X-37714285Y-113809523D01*
X-37904761Y-113761904D01*
X-38000000Y-113666666D01*
X-38047619Y-113571428D01*
X-38047619Y-113380952D01*
X-38000000Y-113285714D01*
X-37904761Y-113190476D01*
X-37714285Y-113142857D01*
X-37380952Y-113142857D01*
X-37190476Y-113190476D01*
X-37095238Y-113285714D01*
X-37047619Y-113380952D01*
X-37047619Y-113571428D01*
X-38047619Y-112285714D02*
X-38047619Y-112476190D01*
X-38000000Y-112571428D01*
X-37952380Y-112619047D01*
X-37809523Y-112714285D01*
X-37619047Y-112761904D01*
X-37238095Y-112761904D01*
X-37142857Y-112714285D01*
X-37095238Y-112666666D01*
X-37047619Y-112571428D01*
X-37047619Y-112380952D01*
X-37095238Y-112285714D01*
X-37142857Y-112238095D01*
X-37238095Y-112190476D01*
X-37476190Y-112190476D01*
X-37571428Y-112238095D01*
X-37619047Y-112285714D01*
X-37666666Y-112380952D01*
X-37666666Y-112571428D01*
X-37619047Y-112666666D01*
X-37571428Y-112714285D01*
X-37476190Y-112761904D01*
X-15095238Y-93547619D02*
X-15190476Y-93500000D01*
X-15285714Y-93404761D01*
X-15428571Y-93261904D01*
X-15523809Y-93214285D01*
X-15619047Y-93214285D01*
X-15571428Y-93452380D02*
X-15666666Y-93404761D01*
X-15761904Y-93309523D01*
X-15809523Y-93119047D01*
X-15809523Y-92785714D01*
X-15761904Y-92595238D01*
X-15666666Y-92500000D01*
X-15571428Y-92452380D01*
X-15380952Y-92452380D01*
X-15285714Y-92500000D01*
X-15190476Y-92595238D01*
X-15142857Y-92785714D01*
X-15142857Y-93119047D01*
X-15190476Y-93309523D01*
X-15285714Y-93404761D01*
X-15380952Y-93452380D01*
X-15571428Y-93452380D01*
X-14238095Y-92452380D02*
X-14714285Y-92452380D01*
X-14761904Y-92928571D01*
X-14714285Y-92880952D01*
X-14619047Y-92833333D01*
X-14380952Y-92833333D01*
X-14285714Y-92880952D01*
X-14238095Y-92928571D01*
X-14190476Y-93023809D01*
X-14190476Y-93261904D01*
X-14238095Y-93357142D01*
X-14285714Y-93404761D01*
X-14380952Y-93452380D01*
X-14619047Y-93452380D01*
X-14714285Y-93404761D01*
X-14761904Y-93357142D01*
X-15095238Y-77547619D02*
X-15190476Y-77500000D01*
X-15285714Y-77404761D01*
X-15428571Y-77261904D01*
X-15523809Y-77214285D01*
X-15619047Y-77214285D01*
X-15571428Y-77452380D02*
X-15666666Y-77404761D01*
X-15761904Y-77309523D01*
X-15809523Y-77119047D01*
X-15809523Y-76785714D01*
X-15761904Y-76595238D01*
X-15666666Y-76500000D01*
X-15571428Y-76452380D01*
X-15380952Y-76452380D01*
X-15285714Y-76500000D01*
X-15190476Y-76595238D01*
X-15142857Y-76785714D01*
X-15142857Y-77119047D01*
X-15190476Y-77309523D01*
X-15285714Y-77404761D01*
X-15380952Y-77452380D01*
X-15571428Y-77452380D01*
X-14285714Y-76785714D02*
X-14285714Y-77452380D01*
X-14523809Y-76404761D02*
X-14761904Y-77119047D01*
X-14142857Y-77119047D01*
X-13095238Y-61547619D02*
X-13190476Y-61500000D01*
X-13285714Y-61404761D01*
X-13428571Y-61261904D01*
X-13523809Y-61214285D01*
X-13619047Y-61214285D01*
X-13571428Y-61452380D02*
X-13666666Y-61404761D01*
X-13761904Y-61309523D01*
X-13809523Y-61119047D01*
X-13809523Y-60785714D01*
X-13761904Y-60595238D01*
X-13666666Y-60500000D01*
X-13571428Y-60452380D01*
X-13380952Y-60452380D01*
X-13285714Y-60500000D01*
X-13190476Y-60595238D01*
X-13142857Y-60785714D01*
X-13142857Y-61119047D01*
X-13190476Y-61309523D01*
X-13285714Y-61404761D01*
X-13380952Y-61452380D01*
X-13571428Y-61452380D01*
X-12809523Y-60452380D02*
X-12190476Y-60452380D01*
X-12523809Y-60833333D01*
X-12380952Y-60833333D01*
X-12285714Y-60880952D01*
X-12238095Y-60928571D01*
X-12190476Y-61023809D01*
X-12190476Y-61261904D01*
X-12238095Y-61357142D01*
X-12285714Y-61404761D01*
X-12380952Y-61452380D01*
X-12666666Y-61452380D01*
X-12761904Y-61404761D01*
X-12809523Y-61357142D01*
X-13095238Y-45547619D02*
X-13190476Y-45500000D01*
X-13285714Y-45404761D01*
X-13428571Y-45261904D01*
X-13523809Y-45214285D01*
X-13619047Y-45214285D01*
X-13571428Y-45452380D02*
X-13666666Y-45404761D01*
X-13761904Y-45309523D01*
X-13809523Y-45119047D01*
X-13809523Y-44785714D01*
X-13761904Y-44595238D01*
X-13666666Y-44500000D01*
X-13571428Y-44452380D01*
X-13380952Y-44452380D01*
X-13285714Y-44500000D01*
X-13190476Y-44595238D01*
X-13142857Y-44785714D01*
X-13142857Y-45119047D01*
X-13190476Y-45309523D01*
X-13285714Y-45404761D01*
X-13380952Y-45452380D01*
X-13571428Y-45452380D01*
X-12761904Y-44547619D02*
X-12714285Y-44500000D01*
X-12619047Y-44452380D01*
X-12380952Y-44452380D01*
X-12285714Y-44500000D01*
X-12238095Y-44547619D01*
X-12190476Y-44642857D01*
X-12190476Y-44738095D01*
X-12238095Y-44880952D01*
X-12809523Y-45452380D01*
X-12190476Y-45452380D01*
X-13095238Y-29547619D02*
X-13190476Y-29500000D01*
X-13285714Y-29404761D01*
X-13428571Y-29261904D01*
X-13523809Y-29214285D01*
X-13619047Y-29214285D01*
X-13571428Y-29452380D02*
X-13666666Y-29404761D01*
X-13761904Y-29309523D01*
X-13809523Y-29119047D01*
X-13809523Y-28785714D01*
X-13761904Y-28595238D01*
X-13666666Y-28500000D01*
X-13571428Y-28452380D01*
X-13380952Y-28452380D01*
X-13285714Y-28500000D01*
X-13190476Y-28595238D01*
X-13142857Y-28785714D01*
X-13142857Y-29119047D01*
X-13190476Y-29309523D01*
X-13285714Y-29404761D01*
X-13380952Y-29452380D01*
X-13571428Y-29452380D01*
X-12190476Y-29452380D02*
X-12761904Y-29452380D01*
X-12476190Y-29452380D02*
X-12476190Y-28452380D01*
X-12571428Y-28595238D01*
X-12666666Y-28690476D01*
X-12761904Y-28738095D01*
X-36547619Y-95761904D02*
X-35833333Y-95761904D01*
X-35690476Y-95809523D01*
X-35595238Y-95904761D01*
X-35547619Y-96047619D01*
X-35547619Y-96142857D01*
X-36547619Y-95428571D02*
X-35547619Y-95095238D01*
X-36547619Y-94761904D01*
X-35547619Y-93904761D02*
X-35547619Y-94476190D01*
X-35547619Y-94190476D02*
X-36547619Y-94190476D01*
X-36404761Y-94285714D01*
X-36309523Y-94380952D01*
X-36261904Y-94476190D01*
X-63087619Y-131801904D02*
X-62373333Y-131801904D01*
X-62230476Y-131849523D01*
X-62135238Y-131944761D01*
X-62087619Y-132087619D01*
X-62087619Y-132182857D01*
X-62087619Y-130754285D02*
X-62563809Y-131087619D01*
X-62087619Y-131325714D02*
X-63087619Y-131325714D01*
X-63087619Y-130944761D01*
X-63040000Y-130849523D01*
X-62992380Y-130801904D01*
X-62897142Y-130754285D01*
X-62754285Y-130754285D01*
X-62659047Y-130801904D01*
X-62611428Y-130849523D01*
X-62563809Y-130944761D01*
X-62563809Y-131325714D01*
X-62087619Y-130325714D02*
X-62754285Y-130325714D01*
X-63087619Y-130325714D02*
X-63040000Y-130373333D01*
X-62992380Y-130325714D01*
X-63040000Y-130278095D01*
X-63087619Y-130325714D01*
X-62992380Y-130325714D01*
X-62754285Y-129420952D02*
X-61944761Y-129420952D01*
X-61849523Y-129468571D01*
X-61801904Y-129516190D01*
X-61754285Y-129611428D01*
X-61754285Y-129754285D01*
X-61801904Y-129849523D01*
X-62135238Y-129420952D02*
X-62087619Y-129516190D01*
X-62087619Y-129706666D01*
X-62135238Y-129801904D01*
X-62182857Y-129849523D01*
X-62278095Y-129897142D01*
X-62563809Y-129897142D01*
X-62659047Y-129849523D01*
X-62706666Y-129801904D01*
X-62754285Y-129706666D01*
X-62754285Y-129516190D01*
X-62706666Y-129420952D01*
X-62087619Y-128944761D02*
X-63087619Y-128944761D01*
X-62087619Y-128516190D02*
X-62611428Y-128516190D01*
X-62706666Y-128563809D01*
X-62754285Y-128659047D01*
X-62754285Y-128801904D01*
X-62706666Y-128897142D01*
X-62659047Y-128944761D01*
X-62754285Y-128182857D02*
X-62754285Y-127801904D01*
X-63087619Y-128040000D02*
X-62230476Y-128040000D01*
X-62135238Y-127992380D01*
X-62087619Y-127897142D01*
X-62087619Y-127801904D01*
X-62087619Y-126944761D02*
X-62087619Y-127516190D01*
X-62087619Y-127230476D02*
X-63087619Y-127230476D01*
X-62944761Y-127325714D01*
X-62849523Y-127420952D01*
X-62801904Y-127516190D01*
X-36547619Y-32714285D02*
X-35833333Y-32714285D01*
X-35690476Y-32761904D01*
X-35595238Y-32857142D01*
X-35547619Y-33000000D01*
X-35547619Y-33095238D01*
X-35547619Y-31666666D02*
X-36023809Y-32000000D01*
X-35547619Y-32238095D02*
X-36547619Y-32238095D01*
X-36547619Y-31857142D01*
X-36500000Y-31761904D01*
X-36452380Y-31714285D01*
X-36357142Y-31666666D01*
X-36214285Y-31666666D01*
X-36119047Y-31714285D01*
X-36071428Y-31761904D01*
X-36023809Y-31857142D01*
X-36023809Y-32238095D01*
X-35595238Y-30857142D02*
X-35547619Y-30952380D01*
X-35547619Y-31142857D01*
X-35595238Y-31238095D01*
X-35690476Y-31285714D01*
X-36071428Y-31285714D01*
X-36166666Y-31238095D01*
X-36214285Y-31142857D01*
X-36214285Y-30952380D01*
X-36166666Y-30857142D01*
X-36071428Y-30809523D01*
X-35976190Y-30809523D01*
X-35880952Y-31285714D01*
X-35547619Y-29952380D02*
X-36547619Y-29952380D01*
X-35595238Y-29952380D02*
X-35547619Y-30047619D01*
X-35547619Y-30238095D01*
X-35595238Y-30333333D01*
X-35642857Y-30380952D01*
X-35738095Y-30428571D01*
X-36023809Y-30428571D01*
X-36119047Y-30380952D01*
X-36166666Y-30333333D01*
X-36214285Y-30238095D01*
X-36214285Y-30047619D01*
X-36166666Y-29952380D01*
X-35547619Y-28952380D02*
X-35547619Y-29523809D01*
X-35547619Y-29238095D02*
X-36547619Y-29238095D01*
X-36404761Y-29333333D01*
X-36309523Y-29428571D01*
X-36261904Y-29523809D01*
X-63087619Y-118278095D02*
X-62373333Y-118278095D01*
X-62230476Y-118325714D01*
X-62135238Y-118420952D01*
X-62087619Y-118563809D01*
X-62087619Y-118659047D01*
X-62087619Y-117325714D02*
X-62087619Y-117801904D01*
X-63087619Y-117801904D01*
X-62135238Y-116611428D02*
X-62087619Y-116706666D01*
X-62087619Y-116897142D01*
X-62135238Y-116992380D01*
X-62230476Y-117040000D01*
X-62611428Y-117040000D01*
X-62706666Y-116992380D01*
X-62754285Y-116897142D01*
X-62754285Y-116706666D01*
X-62706666Y-116611428D01*
X-62611428Y-116563809D01*
X-62516190Y-116563809D01*
X-62420952Y-117040000D01*
X-62754285Y-116278095D02*
X-62754285Y-115897142D01*
X-62087619Y-116135238D02*
X-62944761Y-116135238D01*
X-63040000Y-116087619D01*
X-63087619Y-115992380D01*
X-63087619Y-115897142D01*
X-62754285Y-115706666D02*
X-62754285Y-115325714D01*
X-63087619Y-115563809D02*
X-62230476Y-115563809D01*
X-62135238Y-115516190D01*
X-62087619Y-115420952D01*
X-62087619Y-115325714D01*
X-62087619Y-114468571D02*
X-62087619Y-115040000D01*
X-62087619Y-114754285D02*
X-63087619Y-114754285D01*
X-62944761Y-114849523D01*
X-62849523Y-114944761D01*
X-62801904Y-115040000D01*
X-36547619Y-79857142D02*
X-35833333Y-79857142D01*
X-35690476Y-79904761D01*
X-35595238Y-80000000D01*
X-35547619Y-80142857D01*
X-35547619Y-80238095D01*
X-35547619Y-79380952D02*
X-36547619Y-79380952D01*
X-36071428Y-79380952D02*
X-36071428Y-78809523D01*
X-35547619Y-78809523D02*
X-36547619Y-78809523D01*
X-35547619Y-77809523D02*
X-35547619Y-78380952D01*
X-35547619Y-78095238D02*
X-36547619Y-78095238D01*
X-36404761Y-78190476D01*
X-36309523Y-78285714D01*
X-36261904Y-78380952D01*
X-36547619Y-49452380D02*
X-35833333Y-49452380D01*
X-35690476Y-49500000D01*
X-35595238Y-49595238D01*
X-35547619Y-49738095D01*
X-35547619Y-49833333D01*
X-36500000Y-48452380D02*
X-36547619Y-48547619D01*
X-36547619Y-48690476D01*
X-36500000Y-48833333D01*
X-36404761Y-48928571D01*
X-36309523Y-48976190D01*
X-36119047Y-49023809D01*
X-35976190Y-49023809D01*
X-35785714Y-48976190D01*
X-35690476Y-48928571D01*
X-35595238Y-48833333D01*
X-35547619Y-48690476D01*
X-35547619Y-48595238D01*
X-35595238Y-48452380D01*
X-35642857Y-48404761D01*
X-35976190Y-48404761D01*
X-35976190Y-48595238D01*
X-35547619Y-47976190D02*
X-36214285Y-47976190D01*
X-36023809Y-47976190D02*
X-36119047Y-47928571D01*
X-36166666Y-47880952D01*
X-36214285Y-47785714D01*
X-36214285Y-47690476D01*
X-35595238Y-46976190D02*
X-35547619Y-47071428D01*
X-35547619Y-47261904D01*
X-35595238Y-47357142D01*
X-35690476Y-47404761D01*
X-36071428Y-47404761D01*
X-36166666Y-47357142D01*
X-36214285Y-47261904D01*
X-36214285Y-47071428D01*
X-36166666Y-46976190D01*
X-36071428Y-46928571D01*
X-35976190Y-46928571D01*
X-35880952Y-47404761D01*
X-35595238Y-46119047D02*
X-35547619Y-46214285D01*
X-35547619Y-46404761D01*
X-35595238Y-46500000D01*
X-35690476Y-46547619D01*
X-36071428Y-46547619D01*
X-36166666Y-46500000D01*
X-36214285Y-46404761D01*
X-36214285Y-46214285D01*
X-36166666Y-46119047D01*
X-36071428Y-46071428D01*
X-35976190Y-46071428D01*
X-35880952Y-46547619D01*
X-36214285Y-45642857D02*
X-35547619Y-45642857D01*
X-36119047Y-45642857D02*
X-36166666Y-45595238D01*
X-36214285Y-45500000D01*
X-36214285Y-45357142D01*
X-36166666Y-45261904D01*
X-36071428Y-45214285D01*
X-35547619Y-45214285D01*
X-35547619Y-44214285D02*
X-35547619Y-44785714D01*
X-35547619Y-44500000D02*
X-36547619Y-44500000D01*
X-36404761Y-44595238D01*
X-36309523Y-44690476D01*
X-36261904Y-44785714D01*
X-36547619Y-64976190D02*
X-35833333Y-64976190D01*
X-35690476Y-65023809D01*
X-35595238Y-65119047D01*
X-35547619Y-65261904D01*
X-35547619Y-65357142D01*
X-36071428Y-64166666D02*
X-36023809Y-64023809D01*
X-35976190Y-63976190D01*
X-35880952Y-63928571D01*
X-35738095Y-63928571D01*
X-35642857Y-63976190D01*
X-35595238Y-64023809D01*
X-35547619Y-64119047D01*
X-35547619Y-64500000D01*
X-36547619Y-64500000D01*
X-36547619Y-64166666D01*
X-36500000Y-64071428D01*
X-36452380Y-64023809D01*
X-36357142Y-63976190D01*
X-36261904Y-63976190D01*
X-36166666Y-64023809D01*
X-36119047Y-64071428D01*
X-36071428Y-64166666D01*
X-36071428Y-64500000D01*
X-35547619Y-63357142D02*
X-35595238Y-63452380D01*
X-35690476Y-63500000D01*
X-36547619Y-63500000D01*
X-36214285Y-62547619D02*
X-35547619Y-62547619D01*
X-36214285Y-62976190D02*
X-35690476Y-62976190D01*
X-35595238Y-62928571D01*
X-35547619Y-62833333D01*
X-35547619Y-62690476D01*
X-35595238Y-62595238D01*
X-35642857Y-62547619D01*
X-35595238Y-61690476D02*
X-35547619Y-61785714D01*
X-35547619Y-61976190D01*
X-35595238Y-62071428D01*
X-35690476Y-62119047D01*
X-36071428Y-62119047D01*
X-36166666Y-62071428D01*
X-36214285Y-61976190D01*
X-36214285Y-61785714D01*
X-36166666Y-61690476D01*
X-36071428Y-61642857D01*
X-35976190Y-61642857D01*
X-35880952Y-62119047D01*
X-35547619Y-60690476D02*
X-35547619Y-61261904D01*
X-35547619Y-60976190D02*
X-36547619Y-60976190D01*
X-36404761Y-61071428D01*
X-36309523Y-61166666D01*
X-36261904Y-61261904D01*
X107821666Y-41682380D02*
X107821666Y-42396666D01*
X107774047Y-42539523D01*
X107678809Y-42634761D01*
X107535952Y-42682380D01*
X107440714Y-42682380D01*
X108726428Y-41682380D02*
X108535952Y-41682380D01*
X108440714Y-41730000D01*
X108393095Y-41777619D01*
X108297857Y-41920476D01*
X108250238Y-42110952D01*
X108250238Y-42491904D01*
X108297857Y-42587142D01*
X108345476Y-42634761D01*
X108440714Y-42682380D01*
X108631190Y-42682380D01*
X108726428Y-42634761D01*
X108774047Y-42587142D01*
X108821666Y-42491904D01*
X108821666Y-42253809D01*
X108774047Y-42158571D01*
X108726428Y-42110952D01*
X108631190Y-42063333D01*
X108440714Y-42063333D01*
X108345476Y-42110952D01*
X108297857Y-42158571D01*
X108250238Y-42253809D01*
X-40761904Y-15752380D02*
X-40761904Y-14752380D01*
X-40761904Y-15228571D02*
X-40190476Y-15228571D01*
X-40190476Y-15752380D02*
X-40190476Y-14752380D01*
X-39761904Y-14847619D02*
X-39714285Y-14800000D01*
X-39619047Y-14752380D01*
X-39380952Y-14752380D01*
X-39285714Y-14800000D01*
X-39238095Y-14847619D01*
X-39190476Y-14942857D01*
X-39190476Y-15038095D01*
X-39238095Y-15180952D01*
X-39809523Y-15752380D01*
X-39190476Y-15752380D01*
X-40761904Y-126752380D02*
X-40761904Y-125752380D01*
X-40761904Y-126228571D02*
X-40190476Y-126228571D01*
X-40190476Y-126752380D02*
X-40190476Y-125752380D01*
X-39190476Y-126752380D02*
X-39761904Y-126752380D01*
X-39476190Y-126752380D02*
X-39476190Y-125752380D01*
X-39571428Y-125895238D01*
X-39666666Y-125990476D01*
X-39761904Y-126038095D01*
X-15642857Y-25707142D02*
X-15690476Y-25754761D01*
X-15833333Y-25802380D01*
X-15928571Y-25802380D01*
X-16071428Y-25754761D01*
X-16166666Y-25659523D01*
X-16214285Y-25564285D01*
X-16261904Y-25373809D01*
X-16261904Y-25230952D01*
X-16214285Y-25040476D01*
X-16166666Y-24945238D01*
X-16071428Y-24850000D01*
X-15928571Y-24802380D01*
X-15833333Y-24802380D01*
X-15690476Y-24850000D01*
X-15642857Y-24897619D01*
X-15261904Y-24897619D02*
X-15214285Y-24850000D01*
X-15119047Y-24802380D01*
X-14880952Y-24802380D01*
X-14785714Y-24850000D01*
X-14738095Y-24897619D01*
X-14690476Y-24992857D01*
X-14690476Y-25088095D01*
X-14738095Y-25230952D01*
X-15309523Y-25802380D01*
X-14690476Y-25802380D01*
X-14357142Y-24802380D02*
X-13690476Y-24802380D01*
X-14119047Y-25802380D01*
X-34642857Y-108707142D02*
X-34690476Y-108754761D01*
X-34833333Y-108802380D01*
X-34928571Y-108802380D01*
X-35071428Y-108754761D01*
X-35166666Y-108659523D01*
X-35214285Y-108564285D01*
X-35261904Y-108373809D01*
X-35261904Y-108230952D01*
X-35214285Y-108040476D01*
X-35166666Y-107945238D01*
X-35071428Y-107850000D01*
X-34928571Y-107802380D01*
X-34833333Y-107802380D01*
X-34690476Y-107850000D01*
X-34642857Y-107897619D01*
X-34261904Y-107897619D02*
X-34214285Y-107850000D01*
X-34119047Y-107802380D01*
X-33880952Y-107802380D01*
X-33785714Y-107850000D01*
X-33738095Y-107897619D01*
X-33690476Y-107992857D01*
X-33690476Y-108088095D01*
X-33738095Y-108230952D01*
X-34309523Y-108802380D01*
X-33690476Y-108802380D01*
X-32833333Y-107802380D02*
X-33023809Y-107802380D01*
X-33119047Y-107850000D01*
X-33166666Y-107897619D01*
X-33261904Y-108040476D01*
X-33309523Y-108230952D01*
X-33309523Y-108611904D01*
X-33261904Y-108707142D01*
X-33214285Y-108754761D01*
X-33119047Y-108802380D01*
X-32928571Y-108802380D01*
X-32833333Y-108754761D01*
X-32785714Y-108707142D01*
X-32738095Y-108611904D01*
X-32738095Y-108373809D01*
X-32785714Y-108278571D01*
X-32833333Y-108230952D01*
X-32928571Y-108183333D01*
X-33119047Y-108183333D01*
X-33214285Y-108230952D01*
X-33261904Y-108278571D01*
X-33309523Y-108373809D01*
X-15642857Y-41707142D02*
X-15690476Y-41754761D01*
X-15833333Y-41802380D01*
X-15928571Y-41802380D01*
X-16071428Y-41754761D01*
X-16166666Y-41659523D01*
X-16214285Y-41564285D01*
X-16261904Y-41373809D01*
X-16261904Y-41230952D01*
X-16214285Y-41040476D01*
X-16166666Y-40945238D01*
X-16071428Y-40850000D01*
X-15928571Y-40802380D01*
X-15833333Y-40802380D01*
X-15690476Y-40850000D01*
X-15642857Y-40897619D01*
X-15261904Y-40897619D02*
X-15214285Y-40850000D01*
X-15119047Y-40802380D01*
X-14880952Y-40802380D01*
X-14785714Y-40850000D01*
X-14738095Y-40897619D01*
X-14690476Y-40992857D01*
X-14690476Y-41088095D01*
X-14738095Y-41230952D01*
X-15309523Y-41802380D01*
X-14690476Y-41802380D01*
X-13785714Y-40802380D02*
X-14261904Y-40802380D01*
X-14309523Y-41278571D01*
X-14261904Y-41230952D01*
X-14166666Y-41183333D01*
X-13928571Y-41183333D01*
X-13833333Y-41230952D01*
X-13785714Y-41278571D01*
X-13738095Y-41373809D01*
X-13738095Y-41611904D01*
X-13785714Y-41707142D01*
X-13833333Y-41754761D01*
X-13928571Y-41802380D01*
X-14166666Y-41802380D01*
X-14261904Y-41754761D01*
X-14309523Y-41707142D01*
X-15642857Y-57707142D02*
X-15690476Y-57754761D01*
X-15833333Y-57802380D01*
X-15928571Y-57802380D01*
X-16071428Y-57754761D01*
X-16166666Y-57659523D01*
X-16214285Y-57564285D01*
X-16261904Y-57373809D01*
X-16261904Y-57230952D01*
X-16214285Y-57040476D01*
X-16166666Y-56945238D01*
X-16071428Y-56850000D01*
X-15928571Y-56802380D01*
X-15833333Y-56802380D01*
X-15690476Y-56850000D01*
X-15642857Y-56897619D01*
X-15261904Y-56897619D02*
X-15214285Y-56850000D01*
X-15119047Y-56802380D01*
X-14880952Y-56802380D01*
X-14785714Y-56850000D01*
X-14738095Y-56897619D01*
X-14690476Y-56992857D01*
X-14690476Y-57088095D01*
X-14738095Y-57230952D01*
X-15309523Y-57802380D01*
X-14690476Y-57802380D01*
X-13833333Y-57135714D02*
X-13833333Y-57802380D01*
X-14071428Y-56754761D02*
X-14309523Y-57469047D01*
X-13690476Y-57469047D01*
X-17667857Y-73707142D02*
X-17715476Y-73754761D01*
X-17858333Y-73802380D01*
X-17953571Y-73802380D01*
X-18096428Y-73754761D01*
X-18191666Y-73659523D01*
X-18239285Y-73564285D01*
X-18286904Y-73373809D01*
X-18286904Y-73230952D01*
X-18239285Y-73040476D01*
X-18191666Y-72945238D01*
X-18096428Y-72850000D01*
X-17953571Y-72802380D01*
X-17858333Y-72802380D01*
X-17715476Y-72850000D01*
X-17667857Y-72897619D01*
X-17286904Y-72897619D02*
X-17239285Y-72850000D01*
X-17144047Y-72802380D01*
X-16905952Y-72802380D01*
X-16810714Y-72850000D01*
X-16763095Y-72897619D01*
X-16715476Y-72992857D01*
X-16715476Y-73088095D01*
X-16763095Y-73230952D01*
X-17334523Y-73802380D01*
X-16715476Y-73802380D01*
X-16382142Y-72802380D02*
X-15763095Y-72802380D01*
X-16096428Y-73183333D01*
X-15953571Y-73183333D01*
X-15858333Y-73230952D01*
X-15810714Y-73278571D01*
X-15763095Y-73373809D01*
X-15763095Y-73611904D01*
X-15810714Y-73707142D01*
X-15858333Y-73754761D01*
X-15953571Y-73802380D01*
X-16239285Y-73802380D01*
X-16334523Y-73754761D01*
X-16382142Y-73707142D01*
X-17642857Y-89707142D02*
X-17690476Y-89754761D01*
X-17833333Y-89802380D01*
X-17928571Y-89802380D01*
X-18071428Y-89754761D01*
X-18166666Y-89659523D01*
X-18214285Y-89564285D01*
X-18261904Y-89373809D01*
X-18261904Y-89230952D01*
X-18214285Y-89040476D01*
X-18166666Y-88945238D01*
X-18071428Y-88850000D01*
X-17928571Y-88802380D01*
X-17833333Y-88802380D01*
X-17690476Y-88850000D01*
X-17642857Y-88897619D01*
X-17261904Y-88897619D02*
X-17214285Y-88850000D01*
X-17119047Y-88802380D01*
X-16880952Y-88802380D01*
X-16785714Y-88850000D01*
X-16738095Y-88897619D01*
X-16690476Y-88992857D01*
X-16690476Y-89088095D01*
X-16738095Y-89230952D01*
X-17309523Y-89802380D01*
X-16690476Y-89802380D01*
X-16309523Y-88897619D02*
X-16261904Y-88850000D01*
X-16166666Y-88802380D01*
X-15928571Y-88802380D01*
X-15833333Y-88850000D01*
X-15785714Y-88897619D01*
X-15738095Y-88992857D01*
X-15738095Y-89088095D01*
X-15785714Y-89230952D01*
X-16357142Y-89802380D01*
X-15738095Y-89802380D01*
X-45642857Y-112707142D02*
X-45690476Y-112754761D01*
X-45833333Y-112802380D01*
X-45928571Y-112802380D01*
X-46071428Y-112754761D01*
X-46166666Y-112659523D01*
X-46214285Y-112564285D01*
X-46261904Y-112373809D01*
X-46261904Y-112230952D01*
X-46214285Y-112040476D01*
X-46166666Y-111945238D01*
X-46071428Y-111850000D01*
X-45928571Y-111802380D01*
X-45833333Y-111802380D01*
X-45690476Y-111850000D01*
X-45642857Y-111897619D01*
X-45261904Y-111897619D02*
X-45214285Y-111850000D01*
X-45119047Y-111802380D01*
X-44880952Y-111802380D01*
X-44785714Y-111850000D01*
X-44738095Y-111897619D01*
X-44690476Y-111992857D01*
X-44690476Y-112088095D01*
X-44738095Y-112230952D01*
X-45309523Y-112802380D01*
X-44690476Y-112802380D01*
X-43738095Y-112802380D02*
X-44309523Y-112802380D01*
X-44023809Y-112802380D02*
X-44023809Y-111802380D01*
X-44119047Y-111945238D01*
X-44214285Y-112040476D01*
X-44309523Y-112088095D01*
X-30642857Y-93707142D02*
X-30690476Y-93754761D01*
X-30833333Y-93802380D01*
X-30928571Y-93802380D01*
X-31071428Y-93754761D01*
X-31166666Y-93659523D01*
X-31214285Y-93564285D01*
X-31261904Y-93373809D01*
X-31261904Y-93230952D01*
X-31214285Y-93040476D01*
X-31166666Y-92945238D01*
X-31071428Y-92850000D01*
X-30928571Y-92802380D01*
X-30833333Y-92802380D01*
X-30690476Y-92850000D01*
X-30642857Y-92897619D01*
X-30261904Y-92897619D02*
X-30214285Y-92850000D01*
X-30119047Y-92802380D01*
X-29880952Y-92802380D01*
X-29785714Y-92850000D01*
X-29738095Y-92897619D01*
X-29690476Y-92992857D01*
X-29690476Y-93088095D01*
X-29738095Y-93230952D01*
X-30309523Y-93802380D01*
X-29690476Y-93802380D01*
X-29071428Y-92802380D02*
X-28976190Y-92802380D01*
X-28880952Y-92850000D01*
X-28833333Y-92897619D01*
X-28785714Y-92992857D01*
X-28738095Y-93183333D01*
X-28738095Y-93421428D01*
X-28785714Y-93611904D01*
X-28833333Y-93707142D01*
X-28880952Y-93754761D01*
X-28976190Y-93802380D01*
X-29071428Y-93802380D01*
X-29166666Y-93754761D01*
X-29214285Y-93707142D01*
X-29261904Y-93611904D01*
X-29309523Y-93421428D01*
X-29309523Y-93183333D01*
X-29261904Y-92992857D01*
X-29214285Y-92897619D01*
X-29166666Y-92850000D01*
X-29071428Y-92802380D01*
X-30642857Y-77707142D02*
X-30690476Y-77754761D01*
X-30833333Y-77802380D01*
X-30928571Y-77802380D01*
X-31071428Y-77754761D01*
X-31166666Y-77659523D01*
X-31214285Y-77564285D01*
X-31261904Y-77373809D01*
X-31261904Y-77230952D01*
X-31214285Y-77040476D01*
X-31166666Y-76945238D01*
X-31071428Y-76850000D01*
X-30928571Y-76802380D01*
X-30833333Y-76802380D01*
X-30690476Y-76850000D01*
X-30642857Y-76897619D01*
X-29690476Y-77802380D02*
X-30261904Y-77802380D01*
X-29976190Y-77802380D02*
X-29976190Y-76802380D01*
X-30071428Y-76945238D01*
X-30166666Y-77040476D01*
X-30261904Y-77088095D01*
X-29214285Y-77802380D02*
X-29023809Y-77802380D01*
X-28928571Y-77754761D01*
X-28880952Y-77707142D01*
X-28785714Y-77564285D01*
X-28738095Y-77373809D01*
X-28738095Y-76992857D01*
X-28785714Y-76897619D01*
X-28833333Y-76850000D01*
X-28928571Y-76802380D01*
X-29119047Y-76802380D01*
X-29214285Y-76850000D01*
X-29261904Y-76897619D01*
X-29309523Y-76992857D01*
X-29309523Y-77230952D01*
X-29261904Y-77326190D01*
X-29214285Y-77373809D01*
X-29119047Y-77421428D01*
X-28928571Y-77421428D01*
X-28833333Y-77373809D01*
X-28785714Y-77326190D01*
X-28738095Y-77230952D01*
X-27642857Y-67707142D02*
X-27690476Y-67754761D01*
X-27833333Y-67802380D01*
X-27928571Y-67802380D01*
X-28071428Y-67754761D01*
X-28166666Y-67659523D01*
X-28214285Y-67564285D01*
X-28261904Y-67373809D01*
X-28261904Y-67230952D01*
X-28214285Y-67040476D01*
X-28166666Y-66945238D01*
X-28071428Y-66850000D01*
X-27928571Y-66802380D01*
X-27833333Y-66802380D01*
X-27690476Y-66850000D01*
X-27642857Y-66897619D01*
X-26690476Y-67802380D02*
X-27261904Y-67802380D01*
X-26976190Y-67802380D02*
X-26976190Y-66802380D01*
X-27071428Y-66945238D01*
X-27166666Y-67040476D01*
X-27261904Y-67088095D01*
X-26119047Y-67230952D02*
X-26214285Y-67183333D01*
X-26261904Y-67135714D01*
X-26309523Y-67040476D01*
X-26309523Y-66992857D01*
X-26261904Y-66897619D01*
X-26214285Y-66850000D01*
X-26119047Y-66802380D01*
X-25928571Y-66802380D01*
X-25833333Y-66850000D01*
X-25785714Y-66897619D01*
X-25738095Y-66992857D01*
X-25738095Y-67040476D01*
X-25785714Y-67135714D01*
X-25833333Y-67183333D01*
X-25928571Y-67230952D01*
X-26119047Y-67230952D01*
X-26214285Y-67278571D01*
X-26261904Y-67326190D01*
X-26309523Y-67421428D01*
X-26309523Y-67611904D01*
X-26261904Y-67707142D01*
X-26214285Y-67754761D01*
X-26119047Y-67802380D01*
X-25928571Y-67802380D01*
X-25833333Y-67754761D01*
X-25785714Y-67707142D01*
X-25738095Y-67611904D01*
X-25738095Y-67421428D01*
X-25785714Y-67326190D01*
X-25833333Y-67278571D01*
X-25928571Y-67230952D01*
X-27642857Y-51707142D02*
X-27690476Y-51754761D01*
X-27833333Y-51802380D01*
X-27928571Y-51802380D01*
X-28071428Y-51754761D01*
X-28166666Y-51659523D01*
X-28214285Y-51564285D01*
X-28261904Y-51373809D01*
X-28261904Y-51230952D01*
X-28214285Y-51040476D01*
X-28166666Y-50945238D01*
X-28071428Y-50850000D01*
X-27928571Y-50802380D01*
X-27833333Y-50802380D01*
X-27690476Y-50850000D01*
X-27642857Y-50897619D01*
X-26690476Y-51802380D02*
X-27261904Y-51802380D01*
X-26976190Y-51802380D02*
X-26976190Y-50802380D01*
X-27071428Y-50945238D01*
X-27166666Y-51040476D01*
X-27261904Y-51088095D01*
X-26357142Y-50802380D02*
X-25690476Y-50802380D01*
X-26119047Y-51802380D01*
X-27642857Y-35707142D02*
X-27690476Y-35754761D01*
X-27833333Y-35802380D01*
X-27928571Y-35802380D01*
X-28071428Y-35754761D01*
X-28166666Y-35659523D01*
X-28214285Y-35564285D01*
X-28261904Y-35373809D01*
X-28261904Y-35230952D01*
X-28214285Y-35040476D01*
X-28166666Y-34945238D01*
X-28071428Y-34850000D01*
X-27928571Y-34802380D01*
X-27833333Y-34802380D01*
X-27690476Y-34850000D01*
X-27642857Y-34897619D01*
X-26690476Y-35802380D02*
X-27261904Y-35802380D01*
X-26976190Y-35802380D02*
X-26976190Y-34802380D01*
X-27071428Y-34945238D01*
X-27166666Y-35040476D01*
X-27261904Y-35088095D01*
X-25833333Y-34802380D02*
X-26023809Y-34802380D01*
X-26119047Y-34850000D01*
X-26166666Y-34897619D01*
X-26261904Y-35040476D01*
X-26309523Y-35230952D01*
X-26309523Y-35611904D01*
X-26261904Y-35707142D01*
X-26214285Y-35754761D01*
X-26119047Y-35802380D01*
X-25928571Y-35802380D01*
X-25833333Y-35754761D01*
X-25785714Y-35707142D01*
X-25738095Y-35611904D01*
X-25738095Y-35373809D01*
X-25785714Y-35278571D01*
X-25833333Y-35230952D01*
X-25928571Y-35183333D01*
X-26119047Y-35183333D01*
X-26214285Y-35230952D01*
X-26261904Y-35278571D01*
X-26309523Y-35373809D01*
X-16742857Y-104007142D02*
X-16790476Y-104054761D01*
X-16933333Y-104102380D01*
X-17028571Y-104102380D01*
X-17171428Y-104054761D01*
X-17266666Y-103959523D01*
X-17314285Y-103864285D01*
X-17361904Y-103673809D01*
X-17361904Y-103530952D01*
X-17314285Y-103340476D01*
X-17266666Y-103245238D01*
X-17171428Y-103150000D01*
X-17028571Y-103102380D01*
X-16933333Y-103102380D01*
X-16790476Y-103150000D01*
X-16742857Y-103197619D01*
X-15790476Y-104102380D02*
X-16361904Y-104102380D01*
X-16076190Y-104102380D02*
X-16076190Y-103102380D01*
X-16171428Y-103245238D01*
X-16266666Y-103340476D01*
X-16361904Y-103388095D01*
X-14885714Y-103102380D02*
X-15361904Y-103102380D01*
X-15409523Y-103578571D01*
X-15361904Y-103530952D01*
X-15266666Y-103483333D01*
X-15028571Y-103483333D01*
X-14933333Y-103530952D01*
X-14885714Y-103578571D01*
X-14838095Y-103673809D01*
X-14838095Y-103911904D01*
X-14885714Y-104007142D01*
X-14933333Y-104054761D01*
X-15028571Y-104102380D01*
X-15266666Y-104102380D01*
X-15361904Y-104054761D01*
X-15409523Y-104007142D01*
X-7142857Y-114857142D02*
X-7190476Y-114904761D01*
X-7333333Y-114952380D01*
X-7428571Y-114952380D01*
X-7571428Y-114904761D01*
X-7666666Y-114809523D01*
X-7714285Y-114714285D01*
X-7761904Y-114523809D01*
X-7761904Y-114380952D01*
X-7714285Y-114190476D01*
X-7666666Y-114095238D01*
X-7571428Y-114000000D01*
X-7428571Y-113952380D01*
X-7333333Y-113952380D01*
X-7190476Y-114000000D01*
X-7142857Y-114047619D01*
X-6190476Y-114952380D02*
X-6761904Y-114952380D01*
X-6476190Y-114952380D02*
X-6476190Y-113952380D01*
X-6571428Y-114095238D01*
X-6666666Y-114190476D01*
X-6761904Y-114238095D01*
X-5333333Y-114285714D02*
X-5333333Y-114952380D01*
X-5571428Y-113904761D02*
X-5809523Y-114619047D01*
X-5190476Y-114619047D01*
M02*
