M48
; DRILL file {KiCad (5.1.5)-2} date 09/07/2020 23:42:08
; FORMAT={-:-/ absolute / inch / decimal}
; #@! TF.CreationDate,2020-07-09T23:42:08+12:00
; #@! TF.GenerationSoftware,Kicad,Pcbnew,(5.1.5)-2
; #@! TF.FileFunction,NonPlated,1,2,NPTH
FMAT,2
INCH
T1C0.0315
T2C0.1260
%
G90
G05
T1
X4.3209Y-10.5044
X4.3209Y-10.5618
X4.3209Y-10.6193
X4.3209Y-10.6767
X0.8981Y-5.6791
X0.9555Y-5.6791
X1.013Y-5.6791
X1.0704Y-5.6791
X10.8981Y-5.6791
X10.9555Y-5.6791
X11.013Y-5.6791
X11.0704Y-5.6791
X4.5989Y-5.502
X4.6563Y-5.502
X4.7137Y-5.502
X4.7712Y-5.502
X0.8981Y-5.502
X0.9555Y-5.502
X1.013Y-5.502
X1.0704Y-5.502
X4.5989Y-5.6791
X4.6563Y-5.6791
X4.7137Y-5.6791
X4.7712Y-5.6791
X4.3209Y-0.5044
X4.3209Y-0.5618
X4.3209Y-0.6193
X4.3209Y-0.6767
X10.8981Y-5.502
X10.9555Y-5.502
X11.013Y-5.502
X11.0704Y-5.502
X7.7485Y-5.6791
X7.8059Y-5.6791
X7.8634Y-5.6791
X7.9208Y-5.6791
X4.498Y-0.5044
X4.498Y-0.5618
X4.498Y-0.6193
X4.498Y-0.6767
X4.0477Y-5.6791
X4.1051Y-5.6791
X4.1626Y-5.6791
X4.22Y-5.6791
X4.3209Y-5.2288
X4.3209Y-5.2862
X4.3209Y-5.3437
X4.3209Y-5.4011
X4.0477Y-5.502
X4.1051Y-5.502
X4.1626Y-5.502
X4.22Y-5.502
X-2.2515Y-5.502
X-2.1941Y-5.502
X-2.1366Y-5.502
X-2.0792Y-5.502
X4.498Y-5.2288
X4.498Y-5.2863
X4.498Y-5.3437
X4.498Y-5.4011
X4.3209Y-5.78
X4.3209Y-5.8374
X4.3209Y-5.8949
X4.3209Y-5.9523
X7.7485Y-5.502
X7.8059Y-5.502
X7.8634Y-5.502
X7.9208Y-5.502
X-2.2515Y-5.6791
X-2.1941Y-5.6791
X-2.1366Y-5.6791
X-2.0792Y-5.6791
X4.498Y-5.78
X4.498Y-5.8374
X4.498Y-5.8949
X4.498Y-5.9523
X4.498Y-10.5044
X4.498Y-10.5618
X4.498Y-10.6193
X4.498Y-10.6767
T2
X10.3937Y-5.1378
X-1.5748Y-5.1378
X10.3937Y-6.0433
X-1.5748Y-6.0433
X10.3937Y-10.4134
X-1.5748Y-0.7677
X10.3937Y-0.7677
X-1.5748Y-10.4134
T0
M30
