M48
; DRILL file {KiCad (5.1.5)-2} date 09/07/2020 23:42:08
; FORMAT={-:-/ absolute / inch / decimal}
; #@! TF.CreationDate,2020-07-09T23:42:08+12:00
; #@! TF.GenerationSoftware,Kicad,Pcbnew,(5.1.5)-2
; #@! TF.FileFunction,Plated,1,2,PTH
FMAT,2
INCH
T1C0.0157
T2C0.0350
T3C0.0394
T4C0.0512
T5C0.0787
T6C0.0791
T7C0.1417
%
G90
G05
T1
X-2.3031Y-3.2283
X-2.3031Y-3.9764
X-2.3031Y-8.5039
X-2.3031Y-9.252
X-2.2835Y-0.4724
X-2.2835Y-2.7756
X-2.2835Y-5.4331
X-2.2835Y-5.748
X-2.2835Y-8.0512
X-2.2835Y-10.7087
X-2.1654Y-2.7756
X-2.1654Y-3.2283
X-2.1654Y-3.9764
X-2.1654Y-8.0512
X-2.1654Y-8.5039
X-2.1654Y-9.252
X-2.126Y-4.3898
X-2.126Y-9.6654
X-2.0472Y-3.2283
X-2.0472Y-3.9567
X-2.0472Y-8.5039
X-2.0472Y-9.2323
X-2.0276Y-2.874
X-2.0276Y-8.1496
X-1.9488Y-4.4094
X-1.9488Y-9.685
X-1.9094Y-4.7441
X-1.9094Y-10.0197
X-1.811Y-4.4291
X-1.811Y-9.7047
X-1.6339Y-4.4094
X-1.6339Y-4.7244
X-1.6339Y-9.685
X-1.6339Y-10.0
X-1.5748Y-0.4528
X-1.5748Y-4.626
X-1.5748Y-5.4331
X-1.5748Y-5.7283
X-1.5748Y-9.9016
X-1.5748Y-10.7087
X-1.4173Y-4.626
X-1.4173Y-9.9016
X-1.3386Y-1.1614
X-1.3386Y-1.378
X-1.3386Y-1.7913
X-1.3386Y-2.0079
X-1.3386Y-2.4213
X-1.3386Y-2.6378
X-1.3386Y-3.0512
X-1.3386Y-3.2677
X-1.3386Y-3.6811
X-1.3386Y-3.8976
X-1.3386Y-6.437
X-1.3386Y-6.6535
X-1.3386Y-7.0669
X-1.3386Y-7.2835
X-1.3386Y-7.6969
X-1.3386Y-7.9134
X-1.3386Y-8.3268
X-1.3386Y-8.5433
X-1.3386Y-8.9567
X-1.3386Y-9.1732
X-1.2402Y-1.4567
X-1.2402Y-2.0866
X-1.2402Y-2.7165
X-1.2402Y-3.3661
X-1.2402Y-3.9961
X-1.2402Y-6.7323
X-1.2402Y-7.3622
X-1.2402Y-7.9921
X-1.2402Y-8.6417
X-1.2402Y-9.2717
X-1.2205Y-4.3307
X-1.2205Y-9.6063
X-1.1417Y-3.0512
X-1.1417Y-3.6811
X-1.1417Y-8.3268
X-1.1417Y-8.9567
X-1.063Y-1.1614
X-1.063Y-1.7913
X-1.063Y-2.4213
X-1.063Y-6.437
X-1.063Y-7.0669
X-1.063Y-7.6969
X-0.9843Y-1.5354
X-0.9843Y-2.1654
X-0.9843Y-2.7953
X-0.9843Y-6.811
X-0.9843Y-7.4409
X-0.9843Y-8.0709
X-0.9646Y-3.0315
X-0.9646Y-3.3465
X-0.9646Y-3.6614
X-0.9646Y-3.9764
X-0.9646Y-8.3071
X-0.9646Y-8.622
X-0.9646Y-8.937
X-0.9646Y-9.252
X-0.9252Y-4.5669
X-0.9252Y-9.8425
X-0.9055Y-3.248
X-0.9055Y-3.878
X-0.9055Y-4.1929
X-0.9055Y-4.311
X-0.9055Y-8.5236
X-0.9055Y-9.1535
X-0.9055Y-9.4685
X-0.9055Y-9.5866
X-0.8858Y-1.1417
X-0.8858Y-1.4567
X-0.8858Y-1.7717
X-0.8858Y-2.0866
X-0.8858Y-2.4016
X-0.8858Y-2.7165
X-0.8858Y-6.4173
X-0.8858Y-6.7323
X-0.8858Y-7.0472
X-0.8858Y-7.3622
X-0.8858Y-7.6772
X-0.8858Y-7.9921
X-0.8661Y-4.4094
X-0.8661Y-9.685
X-0.8465Y-1.0827
X-0.8465Y-1.7126
X-0.8465Y-2.3425
X-0.8465Y-2.9528
X-0.8465Y-3.5827
X-0.8465Y-4.252
X-0.8465Y-6.3583
X-0.8465Y-6.9882
X-0.8465Y-7.6181
X-0.8465Y-8.2283
X-0.8465Y-8.8583
X-0.8465Y-9.5276
X-0.8071Y-1.0039
X-0.8071Y-1.6339
X-0.8071Y-2.2638
X-0.8071Y-6.2795
X-0.8071Y-6.9094
X-0.8071Y-7.5394
X-0.7874Y-1.3583
X-0.7874Y-1.9882
X-0.7874Y-2.6181
X-0.7874Y-6.6339
X-0.7874Y-7.2638
X-0.7874Y-7.8937
X-0.748Y-3.248
X-0.748Y-3.878
X-0.748Y-4.1732
X-0.748Y-4.3307
X-0.748Y-8.5236
X-0.748Y-9.1535
X-0.748Y-9.4488
X-0.748Y-9.6063
X-0.6693Y-1.3583
X-0.6693Y-1.9882
X-0.6693Y-2.6181
X-0.6693Y-6.6339
X-0.6693Y-7.2638
X-0.6693Y-7.8937
X-0.5512Y-2.9528
X-0.5512Y-3.5827
X-0.5512Y-8.2283
X-0.5512Y-8.8583
X-0.5315Y-4.3504
X-0.5315Y-9.626
X-0.4724Y-1.063
X-0.4724Y-1.6929
X-0.4724Y-2.3228
X-0.4724Y-6.3386
X-0.4724Y-6.9685
X-0.4724Y-7.5984
X-0.4134Y-3.0315
X-0.4134Y-3.6614
X-0.4134Y-4.6457
X-0.4134Y-8.3071
X-0.4134Y-8.937
X-0.4134Y-9.9213
X-0.3937Y-4.4488
X-0.3937Y-9.7244
X-0.374Y-1.1614
X-0.374Y-3.7992
X-0.374Y-6.437
X-0.374Y-9.0748
X-0.3543Y-3.1693
X-0.3543Y-8.4449
X-0.3346Y-2.5197
X-0.3346Y-7.7953
X-0.315Y-1.2795
X-0.315Y-6.5551
X-0.2362Y-1.3976
X-0.2362Y-1.752
X-0.2362Y-2.1457
X-0.2362Y-6.6732
X-0.2362Y-7.0276
X-0.2362Y-7.4213
X-0.2165Y-2.8346
X-0.2165Y-8.1102
X-0.1969Y-5.2756
X-0.1969Y-10.5512
X-0.1772Y-3.4252
X-0.1772Y-8.7008
X-0.1378Y-4.4291
X-0.1378Y-4.9016
X-0.1378Y-9.7047
X-0.1378Y-10.1772
X-0.1181Y-2.9331
X-0.1181Y-5.1575
X-0.1181Y-8.2087
X-0.1181Y-10.4331
X-0.0984Y-0.8661
X-0.0984Y-6.1417
X-0.0787Y-1.4764
X-0.0787Y-1.8307
X-0.0787Y-2.2047
X-0.0787Y-2.5984
X-0.0787Y-6.752
X-0.0787Y-7.1063
X-0.0787Y-7.4803
X-0.0787Y-7.874
X-0.0591Y-3.5039
X-0.0591Y-4.7441
X-0.0591Y-8.7795
X-0.0591Y-10.0197
X0.0Y-0.9646
X0.0Y-6.2402
X0.0787Y-1.4961
X0.0787Y-1.9094
X0.0787Y-2.2638
X0.0787Y-2.6575
X0.0787Y-3.1496
X0.0787Y-6.7717
X0.0787Y-7.185
X0.0787Y-7.5394
X0.0787Y-7.9331
X0.0787Y-8.4252
X0.0984Y-1.063
X0.0984Y-6.3386
X0.1969Y-1.1614
X0.1969Y-6.437
X0.2362Y-1.9882
X0.2362Y-2.3228
X0.2362Y-2.7165
X0.2362Y-3.1496
X0.2362Y-7.2638
X0.2362Y-7.5984
X0.2362Y-7.9921
X0.2362Y-8.4252
X0.2559Y-1.4961
X0.2559Y-6.7717
X0.2756Y-0.4921
X0.2756Y-5.7677
X0.2953Y-1.2598
X0.2953Y-6.5354
X0.3543Y-0.6102
X0.3543Y-5.8858
X0.3937Y-1.3583
X0.3937Y-6.6339
X0.4331Y-0.7283
X0.4331Y-6.0039
X0.5118Y-0.8465
X0.5118Y-6.122
X0.5906Y-0.9646
X0.5906Y-6.2402
X0.6693Y-1.0827
X0.6693Y-6.3583
X1.3976Y-0.4921
X1.3976Y-0.6102
X1.3976Y-0.7283
X1.3976Y-0.8465
X1.3976Y-0.9646
X1.3976Y-1.0827
X1.3976Y-5.7677
X1.3976Y-5.8858
X1.3976Y-6.0039
X1.3976Y-6.122
X1.3976Y-6.2402
X1.3976Y-6.3583
X1.5157Y-4.7638
X1.5157Y-4.8819
X1.5157Y-5.1575
X1.5157Y-5.2756
X1.5157Y-10.0394
X1.5157Y-10.1575
X1.5157Y-10.4331
X1.5157Y-10.5512
X2.7559Y-0.4921
X2.7559Y-0.6102
X2.7559Y-0.7283
X2.7559Y-0.8465
X2.7559Y-0.9646
X2.7559Y-1.0827
X2.7559Y-5.7677
X2.7559Y-5.8858
X2.7559Y-6.0039
X2.7559Y-6.122
X2.7559Y-6.2402
X2.7559Y-6.3583
X3.0512Y-4.7638
X3.0512Y-10.0394
X3.1299Y-4.8819
X3.1299Y-10.1575
X3.189Y-5.1575
X3.189Y-10.4331
X3.2677Y-5.2756
X3.2677Y-10.5512
X3.5433Y-4.4488
X3.5433Y-9.7244
X3.6024Y-1.0827
X3.6024Y-6.3583
X3.6417Y-4.7244
X3.6417Y-10.0
X3.6614Y-0.9646
X3.6614Y-4.1732
X3.6614Y-6.2402
X3.6614Y-9.4488
X3.6811Y-1.1614
X3.6811Y-1.4567
X3.6811Y-2.0472
X3.6811Y-6.437
X3.6811Y-6.7323
X3.6811Y-7.3228
X3.7205Y-4.8031
X3.7205Y-10.0787
X3.7402Y-0.8465
X3.7402Y-6.122
X3.7992Y-1.1024
X3.7992Y-1.4567
X3.7992Y-2.0472
X3.7992Y-3.9173
X3.7992Y-6.378
X3.7992Y-6.7323
X3.7992Y-7.3228
X3.7992Y-9.1929
X3.8189Y-0.7283
X3.8189Y-6.0039
X3.8976Y-0.6102
X3.8976Y-4.0945
X3.8976Y-5.8858
X3.8976Y-9.3701
X3.9173Y-1.0236
X3.9173Y-1.4567
X3.9173Y-1.6535
X3.9173Y-2.0472
X3.9173Y-6.2992
X3.9173Y-6.7323
X3.9173Y-6.9291
X3.9173Y-7.3228
X3.937Y-2.1654
X3.937Y-2.3031
X3.937Y-4.4291
X3.937Y-7.4409
X3.937Y-7.5787
X3.937Y-9.7047
X3.9567Y-3.7402
X3.9567Y-3.9173
X3.9567Y-9.0157
X3.9567Y-9.1929
X3.9764Y-0.4921
X3.9764Y-1.5748
X3.9764Y-5.7677
X3.9764Y-6.8504
X4.0157Y-4.5079
X4.0157Y-9.7835
X4.0354Y-0.9449
X4.0354Y-1.5354
X4.0354Y-6.2205
X4.0354Y-6.811
X4.1339Y-4.2323
X4.1339Y-9.5079
X4.1535Y-0.8661
X4.1535Y-1.6142
X4.1535Y-6.1417
X4.1535Y-6.8898
X4.2126Y-4.311
X4.2126Y-9.5866
X4.252Y-0.4724
X4.252Y-5.4331
X4.252Y-5.748
X4.252Y-10.7087
X4.2717Y-0.7874
X4.2717Y-6.063
X4.5472Y-5.1181
X4.5472Y-10.3937
X4.5669Y-0.4724
X4.5669Y-5.4331
X4.5669Y-5.748
X4.5669Y-10.7087
X4.6063Y-1.5945
X4.6063Y-6.8701
X4.6654Y-4.2913
X4.6654Y-5.0394
X4.6654Y-9.5669
X4.6654Y-10.315
X4.685Y-1.6732
X4.685Y-6.9488
X4.7835Y-4.3701
X4.7835Y-4.9606
X4.7835Y-9.6457
X4.7835Y-10.2362
X4.8031Y-1.3976
X4.8031Y-6.6732
X4.8425Y-4.3307
X4.8425Y-5.4134
X4.8425Y-9.6063
X4.8425Y-10.689
X4.8622Y-1.9882
X4.8622Y-2.1654
X4.8622Y-7.2638
X4.8622Y-7.4409
X4.8819Y-1.4764
X4.8819Y-3.6024
X4.8819Y-3.7402
X4.8819Y-6.752
X4.8819Y-8.878
X4.8819Y-9.0157
X4.9016Y-3.8583
X4.9016Y-4.252
X4.9016Y-4.4488
X4.9016Y-4.8819
X4.9016Y-9.1339
X4.9016Y-9.5276
X4.9016Y-9.7244
X4.9016Y-10.1575
X4.9213Y-1.811
X4.9213Y-5.2953
X4.9213Y-7.0866
X4.9213Y-10.5709
X5.0Y-5.1772
X5.0Y-10.4528
X5.0197Y-1.9882
X5.0197Y-3.8583
X5.0197Y-4.4488
X5.0197Y-4.8031
X5.0197Y-7.2638
X5.0197Y-9.1339
X5.0197Y-9.7244
X5.0197Y-10.0787
X5.0787Y-5.0591
X5.0787Y-10.3346
X5.0984Y-1.1024
X5.0984Y-6.378
X5.1378Y-3.8583
X5.1378Y-4.4488
X5.1378Y-4.7441
X5.1378Y-9.1339
X5.1378Y-9.7244
X5.1378Y-10.0197
X5.1575Y-1.7323
X5.1575Y-4.9409
X5.1575Y-7.0079
X5.1575Y-10.2165
X5.1772Y-1.1811
X5.1772Y-6.4567
X5.2165Y-4.8228
X5.2165Y-10.0984
X5.2756Y-1.4567
X5.2756Y-6.7323
X5.5512Y-0.6299
X5.5512Y-5.9055
X5.6299Y-0.748
X5.6299Y-6.0236
X5.689Y-1.0236
X5.689Y-6.2992
X5.7677Y-1.1417
X5.7677Y-6.4173
X6.063Y-4.8228
X6.063Y-4.9409
X6.063Y-5.0591
X6.063Y-5.1772
X6.063Y-5.2953
X6.063Y-5.4134
X6.063Y-10.0984
X6.063Y-10.2165
X6.063Y-10.3346
X6.063Y-10.4528
X6.063Y-10.5709
X6.063Y-10.689
X7.3031Y-0.6299
X7.3031Y-0.748
X7.3031Y-1.0236
X7.3031Y-1.1417
X7.3031Y-5.9055
X7.3031Y-6.0236
X7.3031Y-6.2992
X7.3031Y-6.4173
X7.4213Y-4.8228
X7.4213Y-4.9409
X7.4213Y-5.0591
X7.4213Y-5.1772
X7.4213Y-5.2953
X7.4213Y-5.4134
X7.4213Y-10.0984
X7.4213Y-10.2165
X7.4213Y-10.3346
X7.4213Y-10.4528
X7.4213Y-10.5709
X7.4213Y-10.689
X8.1496Y-4.8228
X8.1496Y-10.0984
X8.2283Y-4.9409
X8.2283Y-10.2165
X8.3071Y-5.0591
X8.3071Y-10.3346
X8.3858Y-5.1772
X8.3858Y-10.4528
X8.4252Y-4.5472
X8.4252Y-9.8228
X8.4646Y-5.2953
X8.4646Y-10.5709
X8.5236Y-4.6457
X8.5236Y-9.9213
X8.5433Y-5.4134
X8.5433Y-10.689
X8.563Y-4.4094
X8.563Y-9.685
X8.5827Y-2.7559
X8.5827Y-3.189
X8.5827Y-3.5827
X8.5827Y-3.9173
X8.5827Y-8.0315
X8.5827Y-8.4646
X8.5827Y-8.8583
X8.5827Y-9.1929
X8.622Y-4.7441
X8.622Y-10.0197
X8.7205Y-4.8425
X8.7205Y-10.1181
X8.7402Y-2.7559
X8.7402Y-3.248
X8.7402Y-3.6417
X8.7402Y-3.9961
X8.7402Y-4.4094
X8.7402Y-8.0315
X8.7402Y-8.5236
X8.7402Y-8.9173
X8.7402Y-9.2717
X8.7402Y-9.685
X8.8189Y-4.9409
X8.8189Y-10.2165
X8.878Y-1.1614
X8.878Y-2.4016
X8.878Y-6.437
X8.878Y-7.6772
X8.8976Y-3.3071
X8.8976Y-3.7008
X8.8976Y-4.0748
X8.8976Y-4.4291
X8.8976Y-8.5827
X8.8976Y-8.9764
X8.8976Y-9.3504
X8.8976Y-9.7047
X8.9173Y-5.0394
X8.9173Y-10.315
X8.937Y-0.748
X8.937Y-2.9724
X8.937Y-6.0236
X8.937Y-8.248
X8.9567Y-1.0039
X8.9567Y-1.4764
X8.9567Y-6.2795
X8.9567Y-6.752
X8.9961Y-2.4803
X8.9961Y-7.7559
X9.0157Y-0.6299
X9.0157Y-5.9055
X9.0354Y-3.0709
X9.0354Y-8.3465
X9.0551Y-3.7598
X9.0551Y-4.1535
X9.0551Y-4.5079
X9.0551Y-9.0354
X9.0551Y-9.4291
X9.0551Y-9.7835
X9.1339Y-4.626
X9.1339Y-9.9016
X9.1535Y-3.3858
X9.1535Y-8.6614
X9.1732Y-2.7362
X9.1732Y-8.0118
X9.1929Y-2.1063
X9.1929Y-4.7441
X9.1929Y-7.3819
X9.1929Y-10.0197
X9.2126Y-1.4567
X9.2126Y-6.7323
X9.2323Y-1.2598
X9.2323Y-2.2441
X9.2323Y-2.874
X9.2323Y-6.5354
X9.2323Y-7.5197
X9.2323Y-8.1496
X9.2913Y-3.5827
X9.2913Y-4.2126
X9.2913Y-4.8425
X9.2913Y-8.8583
X9.2913Y-9.4882
X9.2913Y-10.1181
X9.3504Y-1.5551
X9.3504Y-6.8307
X9.3701Y-2.3228
X9.3701Y-2.9528
X9.3701Y-7.5984
X9.3701Y-8.2283
X9.4882Y-3.2874
X9.4882Y-3.9173
X9.4882Y-4.5472
X9.4882Y-8.563
X9.4882Y-9.1929
X9.4882Y-9.8228
X9.5669Y-1.5748
X9.5669Y-1.7323
X9.5669Y-2.0276
X9.5669Y-2.6575
X9.5669Y-6.8504
X9.5669Y-7.0079
X9.5669Y-7.3031
X9.5669Y-7.9331
X9.6063Y-3.2874
X9.6063Y-3.9173
X9.6063Y-4.5472
X9.6063Y-8.563
X9.6063Y-9.1929
X9.6063Y-9.8228
X9.626Y-3.6417
X9.626Y-4.2717
X9.626Y-4.9016
X9.626Y-8.9173
X9.626Y-9.5472
X9.626Y-10.1772
X9.6654Y-1.6535
X9.6654Y-2.3228
X9.6654Y-2.9528
X9.6654Y-3.563
X9.6654Y-4.1929
X9.6654Y-4.8228
X9.6654Y-6.9291
X9.6654Y-7.5984
X9.6654Y-8.2283
X9.6654Y-8.8386
X9.6654Y-9.4685
X9.6654Y-10.0984
X9.685Y-1.4961
X9.685Y-6.7717
X9.7047Y-3.189
X9.7047Y-3.5039
X9.7047Y-3.8189
X9.7047Y-4.1339
X9.7047Y-4.4488
X9.7047Y-4.7638
X9.7047Y-8.4646
X9.7047Y-8.7795
X9.7047Y-9.0945
X9.7047Y-9.4094
X9.7047Y-9.7244
X9.7047Y-10.0394
X9.7244Y-1.5945
X9.7244Y-1.7126
X9.7244Y-2.0276
X9.7244Y-2.6575
X9.7244Y-6.8701
X9.7244Y-6.9882
X9.7244Y-7.3031
X9.7244Y-7.9331
X9.7441Y-1.3386
X9.7441Y-6.6142
X9.7835Y-1.9291
X9.7835Y-2.2441
X9.7835Y-2.5591
X9.7835Y-2.874
X9.7835Y-7.2047
X9.7835Y-7.5197
X9.7835Y-7.8346
X9.7835Y-8.1496
X9.8031Y-3.1102
X9.8031Y-3.7402
X9.8031Y-4.3701
X9.8031Y-8.3858
X9.8031Y-9.0157
X9.8031Y-9.6457
X9.8819Y-3.4843
X9.8819Y-4.1142
X9.8819Y-4.7441
X9.8819Y-8.7598
X9.8819Y-9.3898
X9.8819Y-10.0197
X9.9606Y-2.2244
X9.9606Y-2.8543
X9.9606Y-7.5
X9.9606Y-8.1299
X10.0394Y-1.5748
X10.0394Y-6.8504
X10.0591Y-1.9094
X10.0591Y-2.5394
X10.0591Y-3.189
X10.0591Y-3.8189
X10.0591Y-4.4488
X10.0591Y-7.185
X10.0591Y-7.815
X10.0591Y-8.4646
X10.0591Y-9.0945
X10.0591Y-9.7244
X10.1575Y-2.0079
X10.1575Y-2.2244
X10.1575Y-2.6378
X10.1575Y-2.8543
X10.1575Y-3.2677
X10.1575Y-3.4843
X10.1575Y-3.8976
X10.1575Y-4.1142
X10.1575Y-4.5276
X10.1575Y-4.7441
X10.1575Y-7.2835
X10.1575Y-7.5
X10.1575Y-7.9134
X10.1575Y-8.1299
X10.1575Y-8.5433
X10.1575Y-8.7598
X10.1575Y-9.1732
X10.1575Y-9.3898
X10.1575Y-9.8031
X10.1575Y-10.0197
X10.2362Y-1.2795
X10.2362Y-6.5551
X10.3937Y-0.4724
X10.3937Y-1.2795
X10.3937Y-5.4528
X10.3937Y-5.748
X10.3937Y-6.5551
X10.3937Y-10.7283
X10.4528Y-1.1811
X10.4528Y-1.4961
X10.4528Y-6.4567
X10.4528Y-6.7717
X10.6299Y-1.4764
X10.6299Y-6.752
X10.7283Y-1.1614
X10.7283Y-6.437
X10.7677Y-1.4961
X10.7677Y-6.7717
X10.8465Y-3.0315
X10.8465Y-8.3071
X10.8661Y-1.9488
X10.8661Y-2.6772
X10.8661Y-7.2244
X10.8661Y-7.9528
X10.9449Y-1.5157
X10.9449Y-6.7913
X10.9843Y-1.9291
X10.9843Y-2.6772
X10.9843Y-3.1299
X10.9843Y-7.2047
X10.9843Y-7.9528
X10.9843Y-8.4055
X11.1024Y-0.4724
X11.1024Y-3.1299
X11.1024Y-5.4331
X11.1024Y-5.748
X11.1024Y-8.4055
X11.1024Y-10.7087
X11.122Y-1.9291
X11.122Y-2.6772
X11.122Y-7.2047
X11.122Y-7.9528
T2
X-1.6535Y-9.0157
X-1.6535Y-9.1157
X-1.6535Y-2.4803
X-1.6535Y-2.5803
X-1.6535Y-1.2205
X-1.6535Y-1.3205
X-1.6535Y-7.126
X-1.6535Y-7.226
X10.4724Y-2.0654
X10.4724Y-2.1654
X10.4724Y-2.6953
X10.4724Y-2.7953
X-1.6535Y-7.7559
X-1.6535Y-7.8559
X-1.6535Y-1.8504
X-1.6535Y-1.9504
X-1.6535Y-8.3858
X-1.6535Y-8.4858
X10.4724Y-7.3409
X10.4724Y-7.4409
X-1.6535Y-6.4961
X-1.6535Y-6.5961
X-1.6535Y-3.7402
X-1.6535Y-3.8402
X10.4724Y-9.2307
X10.4724Y-9.3307
X10.4724Y-7.9709
X10.4724Y-8.0709
X10.4724Y-9.8606
X10.4724Y-9.9606
X-1.6535Y-3.1102
X-1.6535Y-3.2102
X10.4724Y-4.585
X10.4724Y-4.685
X10.4724Y-3.9551
X10.4724Y-4.0551
X10.4724Y-8.6008
X10.4724Y-8.7008
X10.4724Y-3.3252
X10.4724Y-3.4252
T3
X4.0354Y-1.752
X4.0354Y-1.852
X4.0354Y-1.952
X4.0354Y-2.052
X4.0354Y-2.152
X4.0354Y-2.252
X4.0354Y-2.352
X4.0354Y-2.452
X4.0354Y-2.552
X4.0354Y-2.652
X4.0354Y-2.752
X4.0354Y-2.852
X4.0354Y-2.952
X4.0354Y-3.052
X4.0354Y-3.152
X4.0354Y-3.252
X4.0354Y-3.352
X4.0354Y-3.452
X4.0354Y-3.552
X4.0354Y-3.652
X4.0354Y-3.752
X4.0354Y-3.852
X4.0354Y-3.952
X4.0354Y-4.052
X4.0354Y-4.152
X4.1354Y-1.752
X4.1354Y-1.852
X4.1354Y-1.952
X4.1354Y-2.052
X4.1354Y-2.152
X4.1354Y-2.252
X4.1354Y-2.352
X4.1354Y-2.452
X4.1354Y-2.552
X4.1354Y-2.652
X4.1354Y-2.752
X4.1354Y-2.852
X4.1354Y-2.952
X4.1354Y-3.052
X4.1354Y-3.152
X4.1354Y-3.252
X4.1354Y-3.352
X4.1354Y-3.452
X4.1354Y-3.552
X4.1354Y-3.652
X4.1354Y-3.752
X4.1354Y-3.852
X4.1354Y-3.952
X4.1354Y-4.052
X4.1354Y-4.152
X4.6835Y-7.0291
X4.6835Y-7.1291
X4.6835Y-7.2291
X4.6835Y-7.3291
X4.6835Y-7.4291
X4.6835Y-7.5291
X4.6835Y-7.6291
X4.6835Y-7.7291
X4.6835Y-7.8291
X4.6835Y-7.9291
X4.6835Y-8.0291
X4.6835Y-8.1291
X4.6835Y-8.2291
X4.6835Y-8.3291
X4.6835Y-8.4291
X4.6835Y-8.5291
X4.6835Y-8.6291
X4.6835Y-8.7291
X4.6835Y-8.8291
X4.6835Y-8.9291
X4.6835Y-9.0291
X4.6835Y-9.1291
X4.6835Y-9.2291
X4.6835Y-9.3291
X4.6835Y-9.4291
X4.7835Y-7.0291
X4.7835Y-7.1291
X4.7835Y-7.2291
X4.7835Y-7.3291
X4.7835Y-7.4291
X4.7835Y-7.5291
X4.7835Y-7.6291
X4.7835Y-7.7291
X4.7835Y-7.8291
X4.7835Y-7.9291
X4.7835Y-8.0291
X4.7835Y-8.1291
X4.7835Y-8.2291
X4.7835Y-8.3291
X4.7835Y-8.4291
X4.7835Y-8.5291
X4.7835Y-8.6291
X4.7835Y-8.7291
X4.7835Y-8.8291
X4.7835Y-8.9291
X4.7835Y-9.0291
X4.7835Y-9.1291
X4.7835Y-9.2291
X4.7835Y-9.3291
X4.7835Y-9.4291
X4.6835Y-1.7535
X4.6835Y-1.8535
X4.6835Y-1.9535
X4.6835Y-2.0535
X4.6835Y-2.1535
X4.6835Y-2.2535
X4.6835Y-2.3535
X4.6835Y-2.4535
X4.6835Y-2.5535
X4.6835Y-2.6535
X4.6835Y-2.7535
X4.6835Y-2.8535
X4.6835Y-2.9535
X4.6835Y-3.0535
X4.6835Y-3.1535
X4.6835Y-3.2535
X4.6835Y-3.3535
X4.6835Y-3.4535
X4.6835Y-3.5535
X4.6835Y-3.6535
X4.6835Y-3.7535
X4.6835Y-3.8535
X4.6835Y-3.9535
X4.6835Y-4.0535
X4.6835Y-4.1535
X4.7835Y-1.7535
X4.7835Y-1.8535
X4.7835Y-1.9535
X4.7835Y-2.0535
X4.7835Y-2.1535
X4.7835Y-2.2535
X4.7835Y-2.3535
X4.7835Y-2.4535
X4.7835Y-2.5535
X4.7835Y-2.6535
X4.7835Y-2.7535
X4.7835Y-2.8535
X4.7835Y-2.9535
X4.7835Y-3.0535
X4.7835Y-3.1535
X4.7835Y-3.2535
X4.7835Y-3.3535
X4.7835Y-3.4535
X4.7835Y-3.5535
X4.7835Y-3.6535
X4.7835Y-3.7535
X4.7835Y-3.8535
X4.7835Y-3.9535
X4.7835Y-4.0535
X4.7835Y-4.1535
X4.0354Y-7.0276
X4.0354Y-7.1276
X4.0354Y-7.2276
X4.0354Y-7.3276
X4.0354Y-7.4276
X4.0354Y-7.5276
X4.0354Y-7.6276
X4.0354Y-7.7276
X4.0354Y-7.8276
X4.0354Y-7.9276
X4.0354Y-8.0276
X4.0354Y-8.1276
X4.0354Y-8.2276
X4.0354Y-8.3276
X4.0354Y-8.4276
X4.0354Y-8.5276
X4.0354Y-8.6276
X4.0354Y-8.7276
X4.0354Y-8.8276
X4.0354Y-8.9276
X4.0354Y-9.0276
X4.0354Y-9.1276
X4.0354Y-9.2276
X4.0354Y-9.3276
X4.0354Y-9.4276
X4.1354Y-7.0276
X4.1354Y-7.1276
X4.1354Y-7.2276
X4.1354Y-7.3276
X4.1354Y-7.4276
X4.1354Y-7.5276
X4.1354Y-7.6276
X4.1354Y-7.7276
X4.1354Y-7.8276
X4.1354Y-7.9276
X4.1354Y-8.0276
X4.1354Y-8.1276
X4.1354Y-8.2276
X4.1354Y-8.3276
X4.1354Y-8.4276
X4.1354Y-8.5276
X4.1354Y-8.6276
X4.1354Y-8.7276
X4.1354Y-8.8276
X4.1354Y-8.9276
X4.1354Y-9.0276
X4.1354Y-9.1276
X4.1354Y-9.2276
X4.1354Y-9.3276
X4.1354Y-9.4276
T4
X10.8394Y-3.1293
X10.8394Y-3.2793
X10.8394Y-3.4293
X10.8394Y-3.5793
X10.8394Y-3.7293
X10.8394Y-3.8793
X10.8394Y-4.0293
X10.8394Y-4.1793
X10.8394Y-4.3293
X10.8394Y-4.4793
X10.8394Y-4.6293
X11.0394Y-3.2043
X11.0394Y-3.3543
X11.0394Y-3.5043
X11.0394Y-3.6543
X11.0394Y-3.8043
X11.0394Y-3.9543
X11.0394Y-4.1043
X11.0394Y-4.2543
X11.0394Y-4.4043
X11.0394Y-4.5543
X-2.2205Y-6.6268
X-2.2205Y-6.7768
X-2.2205Y-6.9268
X-2.2205Y-7.0768
X-2.2205Y-7.2268
X-2.2205Y-7.3768
X-2.2205Y-7.5268
X-2.2205Y-7.6768
X-2.2205Y-7.8268
X-2.2205Y-7.9768
X-2.0205Y-6.5518
X-2.0205Y-6.7018
X-2.0205Y-6.8518
X-2.0205Y-7.0018
X-2.0205Y-7.1518
X-2.0205Y-7.3018
X-2.0205Y-7.4518
X-2.0205Y-7.6018
X-2.0205Y-7.7518
X-2.0205Y-7.9018
X-2.0205Y-8.0518
X-2.2205Y-1.3512
X-2.2205Y-1.5012
X-2.2205Y-1.6512
X-2.2205Y-1.8012
X-2.2205Y-1.9512
X-2.2205Y-2.1012
X-2.2205Y-2.2512
X-2.2205Y-2.4012
X-2.2205Y-2.5512
X-2.2205Y-2.7012
X-2.0205Y-1.2762
X-2.0205Y-1.4262
X-2.0205Y-1.5762
X-2.0205Y-1.7262
X-2.0205Y-1.8762
X-2.0205Y-2.0262
X-2.0205Y-2.1762
X-2.0205Y-2.3262
X-2.0205Y-2.4762
X-2.0205Y-2.6262
X-2.0205Y-2.7762
X10.8394Y-8.4049
X10.8394Y-8.5549
X10.8394Y-8.7049
X10.8394Y-8.8549
X10.8394Y-9.0049
X10.8394Y-9.1549
X10.8394Y-9.3049
X10.8394Y-9.4549
X10.8394Y-9.6049
X10.8394Y-9.7549
X10.8394Y-9.9049
X11.0394Y-8.4799
X11.0394Y-8.6299
X11.0394Y-8.7799
X11.0394Y-8.9299
X11.0394Y-9.0799
X11.0394Y-9.2299
X11.0394Y-9.3799
X11.0394Y-9.5299
X11.0394Y-9.6799
X11.0394Y-9.8299
T5
X-2.3287Y-9.5965
X-2.3287Y-9.9311
X11.1476Y-0.7382
X11.1476Y-1.0728
X-2.3287Y-4.8327
X-2.3287Y-5.1673
X-2.3287Y-10.1083
X-2.3287Y-10.4429
X11.1476Y-6.0138
X11.1476Y-6.3484
X-2.3287Y-4.3209
X-2.3287Y-4.6555
X11.1476Y-1.25
X11.1476Y-1.5846
X11.1476Y-6.5256
X11.1476Y-6.8602
T6
X10.6724Y-8.5008
X10.6724Y-8.9008
X10.6724Y-3.2252
X10.6724Y-3.6252
X-1.8535Y-8.8157
X-1.8535Y-9.2157
X-1.8535Y-2.2803
X-1.8535Y-2.6803
X-1.8535Y-1.0205
X-1.8535Y-1.4205
X-1.8535Y-6.926
X-1.8535Y-7.326
X10.6724Y-1.9654
X10.6724Y-2.3654
X10.6724Y-2.5953
X10.6724Y-2.9953
X-1.8535Y-7.5559
X-1.8535Y-7.9559
X-1.8535Y-1.6504
X-1.8535Y-2.0504
X-1.8535Y-8.1858
X-1.8535Y-8.5858
X10.6724Y-7.2409
X10.6724Y-7.6409
X-1.8535Y-6.2961
X-1.8535Y-6.6961
X-1.8535Y-3.5402
X-1.8535Y-3.9402
X10.6724Y-9.1307
X10.6724Y-9.5307
X10.6724Y-7.8709
X10.6724Y-8.2709
X10.6724Y-9.7606
X10.6724Y-10.1606
X-1.8535Y-2.9102
X-1.8535Y-3.3102
X10.6724Y-4.485
X10.6724Y-4.885
X10.6724Y-3.8551
X10.6724Y-4.2551
T7
X11.126Y-10.1728
X11.126Y-2.8394
X11.126Y-4.8972
X-2.3071Y-6.2839
X-2.3071Y-8.3417
X-2.3071Y-1.0083
X-2.3071Y-3.0661
X11.126Y-8.115
T3
G00X-2.0571Y-9.7638
M15
G01X-1.998Y-9.7638
M16
G05
G00X10.876Y-0.9055
M15
G01X10.8169Y-0.9055
M16
G05
G00X-2.0571Y-5.0
M15
G01X-1.998Y-5.0
M16
G05
G00X-2.0571Y-10.2756
M15
G01X-1.998Y-10.2756
M16
G05
G00X10.876Y-6.1811
M15
G01X10.8169Y-6.1811
M16
G05
G00X-2.0571Y-4.4882
M15
G01X-1.998Y-4.4882
M16
G05
G00X10.876Y-1.4173
M15
G01X10.8169Y-1.4173
M16
G05
G00X10.876Y-6.6929
M15
G01X10.8169Y-6.6929
M16
G05
T4
G00X11.0236Y-0.8819
M15
G01X11.0236Y-0.9291
M16
G05
G00X-2.2047Y-5.0236
M15
G01X-2.2047Y-4.9764
M16
G05
G00X-2.2047Y-10.2992
M15
G01X-2.2047Y-10.252
M16
G05
G00X11.0236Y-6.1575
M15
G01X11.0236Y-6.2047
M16
G05
G00X-2.2047Y-4.5118
M15
G01X-2.2047Y-4.4646
M16
G05
G00X11.0236Y-1.3937
M15
G01X11.0236Y-1.4409
M16
G05
G00X11.0236Y-6.6693
M15
G01X11.0236Y-6.7165
M16
G05
G00X-2.2047Y-9.7874
M15
G01X-2.2047Y-9.7402
M16
G05
T0
M30
