G04 #@! TF.GenerationSoftware,KiCad,Pcbnew,(5.1.5)-2*
G04 #@! TF.CreationDate,2020-07-09T23:44:57+12:00*
G04 #@! TF.ProjectId,output.JVCardx4,6f757470-7574-42e4-9a56-436172647834,rev?*
G04 #@! TF.SameCoordinates,Original*
G04 #@! TF.FileFunction,Profile,NP*
%FSLAX46Y46*%
G04 Gerber Fmt 4.6, Leading zero omitted, Abs format (unit mm)*
G04 Created by KiCad (PCBNEW (5.1.5)-2) date 2020-07-09 23:44:57*
%MOMM*%
%LPD*%
G04 APERTURE LIST*
%ADD10C,0.050000*%
%ADD11C,0.100000*%
G04 APERTURE END LIST*
D10*
X284000000Y-273000000D02*
X284000000Y-145000000D01*
X115000000Y-274000000D02*
X283000000Y-274000000D01*
X109000000Y-144000000D02*
G75*
G02X110000000Y-145000000I0J-1000000D01*
G01*
X-59000000Y-274000000D02*
X109000000Y-274000000D01*
X-60000000Y-145000000D02*
X-60000000Y-273000000D01*
X115000000Y-274000000D02*
G75*
G02X114000000Y-273000000I0J1000000D01*
G01*
X114000000Y-145000000D02*
G75*
G02X115000000Y-144000000I1000000J0D01*
G01*
X284000000Y-273000000D02*
G75*
G02X283000000Y-274000000I-1000000J0D01*
G01*
X283000000Y-144000000D02*
G75*
G02X284000000Y-145000000I0J-1000000D01*
G01*
X110000000Y-273000000D02*
G75*
G02X109000000Y-274000000I-1000000J0D01*
G01*
X-60000000Y-145000000D02*
G75*
G02X-59000000Y-144000000I1000000J0D01*
G01*
X-59000000Y-274000000D02*
G75*
G02X-60000000Y-273000000I0J1000000D01*
G01*
X110000000Y-139000000D02*
G75*
G02X109000000Y-140000000I-1000000J0D01*
G01*
X-59000000Y-140000000D02*
G75*
G02X-60000000Y-139000000I0J1000000D01*
G01*
X-60000000Y-11000000D02*
G75*
G02X-59000000Y-10000000I1000000J0D01*
G01*
X109000000Y-10000000D02*
G75*
G02X110000000Y-11000000I0J-1000000D01*
G01*
X-60000000Y-11000000D02*
X-60000000Y-139000000D01*
X109000000Y-10000000D02*
X-59000000Y-10000000D01*
X114000000Y-11000000D02*
G75*
G02X115000000Y-10000000I1000000J0D01*
G01*
X283000000Y-10000000D02*
G75*
G02X284000000Y-11000000I0J-1000000D01*
G01*
X284000000Y-139000000D02*
G75*
G02X283000000Y-140000000I-1000000J0D01*
G01*
X115000000Y-140000000D02*
G75*
G02X114000000Y-139000000I0J1000000D01*
G01*
X283000000Y-10000000D02*
X115000000Y-10000000D01*
X284000000Y-139000000D02*
X284000000Y-11000000D01*
D11*
X196499950Y-144000000D02*
X196599654Y-143992313D01*
X196499950Y-140000000D02*
X196599654Y-140007687D01*
X196599654Y-143992313D02*
X196698472Y-143976985D01*
X196599654Y-140007687D02*
X196698472Y-140023015D01*
X196698472Y-143976985D02*
X196795819Y-143954107D01*
X196698472Y-140023015D02*
X196795819Y-140045893D01*
X196795819Y-143954107D02*
X196891119Y-143923814D01*
X196795819Y-140045893D02*
X196891119Y-140076186D01*
X196891119Y-143923814D02*
X196983809Y-143886285D01*
X196891119Y-140076186D02*
X196983809Y-140113715D01*
X196983809Y-143886285D02*
X197073340Y-143841742D01*
X196983809Y-140113715D02*
X197073340Y-140158258D01*
X197073340Y-143841742D02*
X197159182Y-143790449D01*
X197073340Y-140158258D02*
X197159182Y-140209551D01*
X197159182Y-143790449D02*
X197240827Y-143732709D01*
X197159182Y-140209551D02*
X197240827Y-140267291D01*
X197240827Y-143732709D02*
X197317792Y-143668864D01*
X197240827Y-140267291D02*
X197317792Y-140331136D01*
X197317792Y-143668864D02*
X197389622Y-143599292D01*
X197317792Y-140331136D02*
X197389622Y-140400708D01*
X197389622Y-143599292D02*
X197455892Y-143524405D01*
X197389622Y-140400708D02*
X197455892Y-140475595D01*
X197455892Y-143524405D02*
X197516210Y-143444646D01*
X197455892Y-140475595D02*
X197516210Y-140555354D01*
X197516210Y-143444646D02*
X197570219Y-143360487D01*
X197516210Y-140555354D02*
X197570219Y-140639513D01*
X197570219Y-143360487D02*
X197617599Y-143272426D01*
X197570219Y-140639513D02*
X197617599Y-140727574D01*
X197617599Y-143272426D02*
X197658070Y-143180984D01*
X197617599Y-140727574D02*
X197658070Y-140819016D01*
X197658070Y-143180984D02*
X197691392Y-143086702D01*
X197658070Y-140819016D02*
X197691392Y-140913298D01*
X197691392Y-143086702D02*
X197717368Y-142990138D01*
X197691392Y-140913298D02*
X197717368Y-141009862D01*
X197717368Y-142990138D02*
X197735845Y-142891863D01*
X197717368Y-141009862D02*
X197735845Y-141108137D01*
X197735845Y-142891863D02*
X197746713Y-142792458D01*
X197735845Y-141108137D02*
X197746713Y-141207542D01*
X197746713Y-142792458D02*
X197749908Y-142692512D01*
X197746713Y-141207542D02*
X197749908Y-141307488D01*
X197749908Y-141307488D02*
X197749908Y-142692512D01*
X201500050Y-144000000D02*
X201400346Y-143992313D01*
X201500050Y-140000000D02*
X201400346Y-140007687D01*
X201400346Y-143992313D02*
X201301528Y-143976985D01*
X201400346Y-140007687D02*
X201301528Y-140023015D01*
X201301528Y-143976985D02*
X201204181Y-143954107D01*
X201301528Y-140023015D02*
X201204181Y-140045893D01*
X201204181Y-143954107D02*
X201108881Y-143923814D01*
X201204181Y-140045893D02*
X201108881Y-140076186D01*
X201108881Y-143923814D02*
X201016191Y-143886285D01*
X201108881Y-140076186D02*
X201016191Y-140113715D01*
X201016191Y-143886285D02*
X200926660Y-143841742D01*
X201016191Y-140113715D02*
X200926660Y-140158258D01*
X200926660Y-143841742D02*
X200840818Y-143790449D01*
X200926660Y-140158258D02*
X200840818Y-140209551D01*
X200840818Y-143790449D02*
X200759173Y-143732709D01*
X200840818Y-140209551D02*
X200759173Y-140267291D01*
X200759173Y-143732709D02*
X200682208Y-143668864D01*
X200759173Y-140267291D02*
X200682208Y-140331136D01*
X200682208Y-143668864D02*
X200610378Y-143599292D01*
X200682208Y-140331136D02*
X200610378Y-140400708D01*
X200610378Y-143599292D02*
X200544108Y-143524405D01*
X200610378Y-140400708D02*
X200544108Y-140475595D01*
X200544108Y-143524405D02*
X200483790Y-143444646D01*
X200544108Y-140475595D02*
X200483790Y-140555354D01*
X200483790Y-143444646D02*
X200429781Y-143360487D01*
X200483790Y-140555354D02*
X200429781Y-140639513D01*
X200429781Y-143360487D02*
X200382401Y-143272426D01*
X200429781Y-140639513D02*
X200382401Y-140727574D01*
X200382401Y-143272426D02*
X200341930Y-143180984D01*
X200382401Y-140727574D02*
X200341930Y-140819016D01*
X200341930Y-143180984D02*
X200308608Y-143086702D01*
X200341930Y-140819016D02*
X200308608Y-140913298D01*
X200308608Y-143086702D02*
X200282632Y-142990138D01*
X200308608Y-140913298D02*
X200282632Y-141009862D01*
X200282632Y-142990138D02*
X200264155Y-142891863D01*
X200282632Y-141009862D02*
X200264155Y-141108137D01*
X200264155Y-142891863D02*
X200253287Y-142792458D01*
X200264155Y-141108137D02*
X200253287Y-141207542D01*
X200253287Y-142792458D02*
X200250092Y-142692512D01*
X200253287Y-141207542D02*
X200250092Y-141307488D01*
X200250092Y-141307488D02*
X200250092Y-142692512D01*
X22499950Y-144000000D02*
X22599654Y-143992313D01*
X22499950Y-140000000D02*
X22599654Y-140007687D01*
X22599654Y-143992313D02*
X22698472Y-143976985D01*
X22599654Y-140007687D02*
X22698472Y-140023015D01*
X22698472Y-143976985D02*
X22795819Y-143954107D01*
X22698472Y-140023015D02*
X22795819Y-140045893D01*
X22795819Y-143954107D02*
X22891119Y-143923814D01*
X22795819Y-140045893D02*
X22891119Y-140076186D01*
X22891119Y-143923814D02*
X22983809Y-143886285D01*
X22891119Y-140076186D02*
X22983809Y-140113715D01*
X22983809Y-143886285D02*
X23073340Y-143841742D01*
X22983809Y-140113715D02*
X23073340Y-140158258D01*
X23073340Y-143841742D02*
X23159182Y-143790449D01*
X23073340Y-140158258D02*
X23159182Y-140209551D01*
X23159182Y-143790449D02*
X23240827Y-143732709D01*
X23159182Y-140209551D02*
X23240827Y-140267291D01*
X23240827Y-143732709D02*
X23317792Y-143668864D01*
X23240827Y-140267291D02*
X23317792Y-140331136D01*
X23317792Y-143668864D02*
X23389622Y-143599292D01*
X23317792Y-140331136D02*
X23389622Y-140400708D01*
X23389622Y-143599292D02*
X23455892Y-143524405D01*
X23389622Y-140400708D02*
X23455892Y-140475595D01*
X23455892Y-143524405D02*
X23516210Y-143444646D01*
X23455892Y-140475595D02*
X23516210Y-140555354D01*
X23516210Y-143444646D02*
X23570219Y-143360487D01*
X23516210Y-140555354D02*
X23570219Y-140639513D01*
X23570219Y-143360487D02*
X23617599Y-143272426D01*
X23570219Y-140639513D02*
X23617599Y-140727574D01*
X23617599Y-143272426D02*
X23658070Y-143180984D01*
X23617599Y-140727574D02*
X23658070Y-140819016D01*
X23658070Y-143180984D02*
X23691392Y-143086702D01*
X23658070Y-140819016D02*
X23691392Y-140913298D01*
X23691392Y-143086702D02*
X23717368Y-142990138D01*
X23691392Y-140913298D02*
X23717368Y-141009862D01*
X23717368Y-142990138D02*
X23735845Y-142891863D01*
X23717368Y-141009862D02*
X23735845Y-141108137D01*
X23735845Y-142891863D02*
X23746713Y-142792458D01*
X23735845Y-141108137D02*
X23746713Y-141207542D01*
X23746713Y-142792458D02*
X23749908Y-142692512D01*
X23746713Y-141207542D02*
X23749908Y-141307488D01*
X23749908Y-141307488D02*
X23749908Y-142692512D01*
X27500050Y-144000000D02*
X27400346Y-143992313D01*
X27500050Y-140000000D02*
X27400346Y-140007687D01*
X27400346Y-143992313D02*
X27301528Y-143976985D01*
X27400346Y-140007687D02*
X27301528Y-140023015D01*
X27301528Y-143976985D02*
X27204181Y-143954107D01*
X27301528Y-140023015D02*
X27204181Y-140045893D01*
X27204181Y-143954107D02*
X27108881Y-143923814D01*
X27204181Y-140045893D02*
X27108881Y-140076186D01*
X27108881Y-143923814D02*
X27016191Y-143886285D01*
X27108881Y-140076186D02*
X27016191Y-140113715D01*
X27016191Y-143886285D02*
X26926660Y-143841742D01*
X27016191Y-140113715D02*
X26926660Y-140158258D01*
X26926660Y-143841742D02*
X26840818Y-143790449D01*
X26926660Y-140158258D02*
X26840818Y-140209551D01*
X26840818Y-143790449D02*
X26759173Y-143732709D01*
X26840818Y-140209551D02*
X26759173Y-140267291D01*
X26759173Y-143732709D02*
X26682208Y-143668864D01*
X26759173Y-140267291D02*
X26682208Y-140331136D01*
X26682208Y-143668864D02*
X26610378Y-143599292D01*
X26682208Y-140331136D02*
X26610378Y-140400708D01*
X26610378Y-143599292D02*
X26544108Y-143524405D01*
X26610378Y-140400708D02*
X26544108Y-140475595D01*
X26544108Y-143524405D02*
X26483790Y-143444646D01*
X26544108Y-140475595D02*
X26483790Y-140555354D01*
X26483790Y-143444646D02*
X26429781Y-143360487D01*
X26483790Y-140555354D02*
X26429781Y-140639513D01*
X26429781Y-143360487D02*
X26382401Y-143272426D01*
X26429781Y-140639513D02*
X26382401Y-140727574D01*
X26382401Y-143272426D02*
X26341930Y-143180984D01*
X26382401Y-140727574D02*
X26341930Y-140819016D01*
X26341930Y-143180984D02*
X26308608Y-143086702D01*
X26341930Y-140819016D02*
X26308608Y-140913298D01*
X26308608Y-143086702D02*
X26282632Y-142990138D01*
X26308608Y-140913298D02*
X26282632Y-141009862D01*
X26282632Y-142990138D02*
X26264155Y-142891863D01*
X26282632Y-141009862D02*
X26264155Y-141108137D01*
X26264155Y-142891863D02*
X26253287Y-142792458D01*
X26264155Y-141108137D02*
X26253287Y-141207542D01*
X26253287Y-142792458D02*
X26250092Y-142692512D01*
X26253287Y-141207542D02*
X26250092Y-141307488D01*
X26250092Y-141307488D02*
X26250092Y-142692512D01*
X-52500045Y-140000000D02*
X22499950Y-140000000D01*
X-57500000Y-140000000D02*
X-59000000Y-140000000D01*
X-52500045Y-144000000D02*
X22499950Y-144000000D01*
X-57500000Y-144000000D02*
X-59000000Y-144000000D01*
X-57500000Y-144000000D02*
X-57400296Y-143992313D01*
X-57500000Y-140000000D02*
X-57400296Y-140007687D01*
X-57400296Y-143992313D02*
X-57301478Y-143976985D01*
X-57400296Y-140007687D02*
X-57301478Y-140023015D01*
X-57301478Y-143976985D02*
X-57204131Y-143954107D01*
X-57301478Y-140023015D02*
X-57204131Y-140045893D01*
X-57204131Y-143954107D02*
X-57108831Y-143923814D01*
X-57204131Y-140045893D02*
X-57108831Y-140076186D01*
X-57108831Y-143923814D02*
X-57016141Y-143886285D01*
X-57108831Y-140076186D02*
X-57016141Y-140113715D01*
X-57016141Y-143886285D02*
X-56926610Y-143841742D01*
X-57016141Y-140113715D02*
X-56926610Y-140158258D01*
X-56926610Y-143841742D02*
X-56840768Y-143790449D01*
X-56926610Y-140158258D02*
X-56840768Y-140209551D01*
X-56840768Y-143790449D02*
X-56759123Y-143732709D01*
X-56840768Y-140209551D02*
X-56759123Y-140267291D01*
X-56759123Y-143732709D02*
X-56682158Y-143668864D01*
X-56759123Y-140267291D02*
X-56682158Y-140331136D01*
X-56682158Y-143668864D02*
X-56610328Y-143599292D01*
X-56682158Y-140331136D02*
X-56610328Y-140400708D01*
X-56610328Y-143599292D02*
X-56544058Y-143524405D01*
X-56610328Y-140400708D02*
X-56544058Y-140475595D01*
X-56544058Y-143524405D02*
X-56483740Y-143444646D01*
X-56544058Y-140475595D02*
X-56483740Y-140555354D01*
X-56483740Y-143444646D02*
X-56429731Y-143360487D01*
X-56483740Y-140555354D02*
X-56429731Y-140639513D01*
X-56429731Y-143360487D02*
X-56382351Y-143272426D01*
X-56429731Y-140639513D02*
X-56382351Y-140727574D01*
X-56382351Y-143272426D02*
X-56341880Y-143180984D01*
X-56382351Y-140727574D02*
X-56341880Y-140819016D01*
X-56341880Y-143180984D02*
X-56308558Y-143086702D01*
X-56341880Y-140819016D02*
X-56308558Y-140913298D01*
X-56308558Y-143086702D02*
X-56282582Y-142990138D01*
X-56308558Y-140913298D02*
X-56282582Y-141009862D01*
X-56282582Y-142990138D02*
X-56264105Y-142891863D01*
X-56282582Y-141009862D02*
X-56264105Y-141108137D01*
X-56264105Y-142891863D02*
X-56253237Y-142792458D01*
X-56264105Y-141108137D02*
X-56253237Y-141207542D01*
X-56253237Y-142792458D02*
X-56250042Y-142692512D01*
X-56253237Y-141207542D02*
X-56250042Y-141307488D01*
X-56250042Y-141307488D02*
X-56250042Y-142692512D01*
X-52500045Y-144000000D02*
X-52599749Y-143992313D01*
X-52500045Y-140000000D02*
X-52599749Y-140007687D01*
X-52599749Y-143992313D02*
X-52698567Y-143976985D01*
X-52599749Y-140007687D02*
X-52698567Y-140023015D01*
X-52698567Y-143976985D02*
X-52795914Y-143954107D01*
X-52698567Y-140023015D02*
X-52795914Y-140045893D01*
X-52795914Y-143954107D02*
X-52891214Y-143923814D01*
X-52795914Y-140045893D02*
X-52891214Y-140076186D01*
X-52891214Y-143923814D02*
X-52983904Y-143886285D01*
X-52891214Y-140076186D02*
X-52983904Y-140113715D01*
X-52983904Y-143886285D02*
X-53073435Y-143841742D01*
X-52983904Y-140113715D02*
X-53073435Y-140158258D01*
X-53073435Y-143841742D02*
X-53159277Y-143790449D01*
X-53073435Y-140158258D02*
X-53159277Y-140209551D01*
X-53159277Y-143790449D02*
X-53240922Y-143732709D01*
X-53159277Y-140209551D02*
X-53240922Y-140267291D01*
X-53240922Y-143732709D02*
X-53317887Y-143668864D01*
X-53240922Y-140267291D02*
X-53317887Y-140331136D01*
X-53317887Y-143668864D02*
X-53389717Y-143599292D01*
X-53317887Y-140331136D02*
X-53389717Y-140400708D01*
X-53389717Y-143599292D02*
X-53455987Y-143524405D01*
X-53389717Y-140400708D02*
X-53455987Y-140475595D01*
X-53455987Y-143524405D02*
X-53516305Y-143444646D01*
X-53455987Y-140475595D02*
X-53516305Y-140555354D01*
X-53516305Y-143444646D02*
X-53570314Y-143360487D01*
X-53516305Y-140555354D02*
X-53570314Y-140639513D01*
X-53570314Y-143360487D02*
X-53617694Y-143272426D01*
X-53570314Y-140639513D02*
X-53617694Y-140727574D01*
X-53617694Y-143272426D02*
X-53658165Y-143180984D01*
X-53617694Y-140727574D02*
X-53658165Y-140819016D01*
X-53658165Y-143180984D02*
X-53691487Y-143086702D01*
X-53658165Y-140819016D02*
X-53691487Y-140913298D01*
X-53691487Y-143086702D02*
X-53717463Y-142990138D01*
X-53691487Y-140913298D02*
X-53717463Y-141009862D01*
X-53717463Y-142990138D02*
X-53735940Y-142891863D01*
X-53717463Y-141009862D02*
X-53735940Y-141108137D01*
X-53735940Y-142891863D02*
X-53746808Y-142792458D01*
X-53735940Y-141108137D02*
X-53746808Y-141207542D01*
X-53746808Y-142792458D02*
X-53750003Y-142692512D01*
X-53746808Y-141207542D02*
X-53750003Y-141307488D01*
X-53750003Y-141307488D02*
X-53750003Y-142692512D01*
X276500045Y-144000000D02*
X201500050Y-144000000D01*
X281500000Y-144000000D02*
X283000000Y-144000000D01*
X276500045Y-140000000D02*
X201500050Y-140000000D01*
X281500000Y-140000000D02*
X283000000Y-140000000D01*
X281500000Y-140000000D02*
X281400296Y-140007687D01*
X281500000Y-144000000D02*
X281400296Y-143992313D01*
X281400296Y-140007687D02*
X281301478Y-140023015D01*
X281400296Y-143992313D02*
X281301478Y-143976985D01*
X281301478Y-140023015D02*
X281204131Y-140045893D01*
X281301478Y-143976985D02*
X281204131Y-143954107D01*
X281204131Y-140045893D02*
X281108831Y-140076186D01*
X281204131Y-143954107D02*
X281108831Y-143923814D01*
X281108831Y-140076186D02*
X281016141Y-140113715D01*
X281108831Y-143923814D02*
X281016141Y-143886285D01*
X281016141Y-140113715D02*
X280926610Y-140158258D01*
X281016141Y-143886285D02*
X280926610Y-143841742D01*
X280926610Y-140158258D02*
X280840768Y-140209551D01*
X280926610Y-143841742D02*
X280840768Y-143790449D01*
X280840768Y-140209551D02*
X280759123Y-140267291D01*
X280840768Y-143790449D02*
X280759123Y-143732709D01*
X280759123Y-140267291D02*
X280682158Y-140331136D01*
X280759123Y-143732709D02*
X280682158Y-143668864D01*
X280682158Y-140331136D02*
X280610328Y-140400708D01*
X280682158Y-143668864D02*
X280610328Y-143599292D01*
X280610328Y-140400708D02*
X280544058Y-140475595D01*
X280610328Y-143599292D02*
X280544058Y-143524405D01*
X280544058Y-140475595D02*
X280483740Y-140555354D01*
X280544058Y-143524405D02*
X280483740Y-143444646D01*
X280483740Y-140555354D02*
X280429731Y-140639513D01*
X280483740Y-143444646D02*
X280429731Y-143360487D01*
X280429731Y-140639513D02*
X280382351Y-140727574D01*
X280429731Y-143360487D02*
X280382351Y-143272426D01*
X280382351Y-140727574D02*
X280341880Y-140819016D01*
X280382351Y-143272426D02*
X280341880Y-143180984D01*
X280341880Y-140819016D02*
X280308558Y-140913298D01*
X280341880Y-143180984D02*
X280308558Y-143086702D01*
X280308558Y-140913298D02*
X280282582Y-141009862D01*
X280308558Y-143086702D02*
X280282582Y-142990138D01*
X280282582Y-141009862D02*
X280264105Y-141108137D01*
X280282582Y-142990138D02*
X280264105Y-142891863D01*
X280264105Y-141108137D02*
X280253237Y-141207542D01*
X280264105Y-142891863D02*
X280253237Y-142792458D01*
X280253237Y-141207542D02*
X280250042Y-141307488D01*
X280253237Y-142792458D02*
X280250042Y-142692512D01*
X280250042Y-142692512D02*
X280250042Y-141307488D01*
X276500045Y-140000000D02*
X276599749Y-140007687D01*
X276500045Y-144000000D02*
X276599749Y-143992313D01*
X276599749Y-140007687D02*
X276698567Y-140023015D01*
X276599749Y-143992313D02*
X276698567Y-143976985D01*
X276698567Y-140023015D02*
X276795914Y-140045893D01*
X276698567Y-143976985D02*
X276795914Y-143954107D01*
X276795914Y-140045893D02*
X276891214Y-140076186D01*
X276795914Y-143954107D02*
X276891214Y-143923814D01*
X276891214Y-140076186D02*
X276983904Y-140113715D01*
X276891214Y-143923814D02*
X276983904Y-143886285D01*
X276983904Y-140113715D02*
X277073435Y-140158258D01*
X276983904Y-143886285D02*
X277073435Y-143841742D01*
X277073435Y-140158258D02*
X277159277Y-140209551D01*
X277073435Y-143841742D02*
X277159277Y-143790449D01*
X277159277Y-140209551D02*
X277240922Y-140267291D01*
X277159277Y-143790449D02*
X277240922Y-143732709D01*
X277240922Y-140267291D02*
X277317887Y-140331136D01*
X277240922Y-143732709D02*
X277317887Y-143668864D01*
X277317887Y-140331136D02*
X277389717Y-140400708D01*
X277317887Y-143668864D02*
X277389717Y-143599292D01*
X277389717Y-140400708D02*
X277455987Y-140475595D01*
X277389717Y-143599292D02*
X277455987Y-143524405D01*
X277455987Y-140475595D02*
X277516305Y-140555354D01*
X277455987Y-143524405D02*
X277516305Y-143444646D01*
X277516305Y-140555354D02*
X277570314Y-140639513D01*
X277516305Y-143444646D02*
X277570314Y-143360487D01*
X277570314Y-140639513D02*
X277617694Y-140727574D01*
X277570314Y-143360487D02*
X277617694Y-143272426D01*
X277617694Y-140727574D02*
X277658165Y-140819016D01*
X277617694Y-143272426D02*
X277658165Y-143180984D01*
X277658165Y-140819016D02*
X277691487Y-140913298D01*
X277658165Y-143180984D02*
X277691487Y-143086702D01*
X277691487Y-140913298D02*
X277717463Y-141009862D01*
X277691487Y-143086702D02*
X277717463Y-142990138D01*
X277717463Y-141009862D02*
X277735940Y-141108137D01*
X277717463Y-142990138D02*
X277735940Y-142891863D01*
X277735940Y-141108137D02*
X277746808Y-141207542D01*
X277735940Y-142891863D02*
X277746808Y-142792458D01*
X277746808Y-141207542D02*
X277750003Y-141307488D01*
X277746808Y-142792458D02*
X277750003Y-142692512D01*
X277750003Y-142692512D02*
X277750003Y-141307488D01*
X102500045Y-144000000D02*
X27500050Y-144000000D01*
X107500000Y-144000000D02*
X109000000Y-144000000D01*
X102500045Y-140000000D02*
X27500050Y-140000000D01*
X107500000Y-140000000D02*
X109000000Y-140000000D01*
X107500000Y-140000000D02*
X107400296Y-140007687D01*
X107500000Y-144000000D02*
X107400296Y-143992313D01*
X107400296Y-140007687D02*
X107301478Y-140023015D01*
X107400296Y-143992313D02*
X107301478Y-143976985D01*
X107301478Y-140023015D02*
X107204131Y-140045893D01*
X107301478Y-143976985D02*
X107204131Y-143954107D01*
X107204131Y-140045893D02*
X107108831Y-140076186D01*
X107204131Y-143954107D02*
X107108831Y-143923814D01*
X107108831Y-140076186D02*
X107016141Y-140113715D01*
X107108831Y-143923814D02*
X107016141Y-143886285D01*
X107016141Y-140113715D02*
X106926610Y-140158258D01*
X107016141Y-143886285D02*
X106926610Y-143841742D01*
X106926610Y-140158258D02*
X106840768Y-140209551D01*
X106926610Y-143841742D02*
X106840768Y-143790449D01*
X106840768Y-140209551D02*
X106759123Y-140267291D01*
X106840768Y-143790449D02*
X106759123Y-143732709D01*
X106759123Y-140267291D02*
X106682158Y-140331136D01*
X106759123Y-143732709D02*
X106682158Y-143668864D01*
X106682158Y-140331136D02*
X106610328Y-140400708D01*
X106682158Y-143668864D02*
X106610328Y-143599292D01*
X106610328Y-140400708D02*
X106544058Y-140475595D01*
X106610328Y-143599292D02*
X106544058Y-143524405D01*
X106544058Y-140475595D02*
X106483740Y-140555354D01*
X106544058Y-143524405D02*
X106483740Y-143444646D01*
X106483740Y-140555354D02*
X106429731Y-140639513D01*
X106483740Y-143444646D02*
X106429731Y-143360487D01*
X106429731Y-140639513D02*
X106382351Y-140727574D01*
X106429731Y-143360487D02*
X106382351Y-143272426D01*
X106382351Y-140727574D02*
X106341880Y-140819016D01*
X106382351Y-143272426D02*
X106341880Y-143180984D01*
X106341880Y-140819016D02*
X106308558Y-140913298D01*
X106341880Y-143180984D02*
X106308558Y-143086702D01*
X106308558Y-140913298D02*
X106282582Y-141009862D01*
X106308558Y-143086702D02*
X106282582Y-142990138D01*
X106282582Y-141009862D02*
X106264105Y-141108137D01*
X106282582Y-142990138D02*
X106264105Y-142891863D01*
X106264105Y-141108137D02*
X106253237Y-141207542D01*
X106264105Y-142891863D02*
X106253237Y-142792458D01*
X106253237Y-141207542D02*
X106250042Y-141307488D01*
X106253237Y-142792458D02*
X106250042Y-142692512D01*
X106250042Y-142692512D02*
X106250042Y-141307488D01*
X102500045Y-140000000D02*
X102599749Y-140007687D01*
X102500045Y-144000000D02*
X102599749Y-143992313D01*
X102599749Y-140007687D02*
X102698567Y-140023015D01*
X102599749Y-143992313D02*
X102698567Y-143976985D01*
X102698567Y-140023015D02*
X102795914Y-140045893D01*
X102698567Y-143976985D02*
X102795914Y-143954107D01*
X102795914Y-140045893D02*
X102891214Y-140076186D01*
X102795914Y-143954107D02*
X102891214Y-143923814D01*
X102891214Y-140076186D02*
X102983904Y-140113715D01*
X102891214Y-143923814D02*
X102983904Y-143886285D01*
X102983904Y-140113715D02*
X103073435Y-140158258D01*
X102983904Y-143886285D02*
X103073435Y-143841742D01*
X103073435Y-140158258D02*
X103159277Y-140209551D01*
X103073435Y-143841742D02*
X103159277Y-143790449D01*
X103159277Y-140209551D02*
X103240922Y-140267291D01*
X103159277Y-143790449D02*
X103240922Y-143732709D01*
X103240922Y-140267291D02*
X103317887Y-140331136D01*
X103240922Y-143732709D02*
X103317887Y-143668864D01*
X103317887Y-140331136D02*
X103389717Y-140400708D01*
X103317887Y-143668864D02*
X103389717Y-143599292D01*
X103389717Y-140400708D02*
X103455987Y-140475595D01*
X103389717Y-143599292D02*
X103455987Y-143524405D01*
X103455987Y-140475595D02*
X103516305Y-140555354D01*
X103455987Y-143524405D02*
X103516305Y-143444646D01*
X103516305Y-140555354D02*
X103570314Y-140639513D01*
X103516305Y-143444646D02*
X103570314Y-143360487D01*
X103570314Y-140639513D02*
X103617694Y-140727574D01*
X103570314Y-143360487D02*
X103617694Y-143272426D01*
X103617694Y-140727574D02*
X103658165Y-140819016D01*
X103617694Y-143272426D02*
X103658165Y-143180984D01*
X103658165Y-140819016D02*
X103691487Y-140913298D01*
X103658165Y-143180984D02*
X103691487Y-143086702D01*
X103691487Y-140913298D02*
X103717463Y-141009862D01*
X103691487Y-143086702D02*
X103717463Y-142990138D01*
X103717463Y-141009862D02*
X103735940Y-141108137D01*
X103717463Y-142990138D02*
X103735940Y-142891863D01*
X103735940Y-141108137D02*
X103746808Y-141207542D01*
X103735940Y-142891863D02*
X103746808Y-142792458D01*
X103746808Y-141207542D02*
X103750003Y-141307488D01*
X103746808Y-142792458D02*
X103750003Y-142692512D01*
X103750003Y-142692512D02*
X103750003Y-141307488D01*
X121499955Y-140000000D02*
X196499950Y-140000000D01*
X116500000Y-140000000D02*
X115000000Y-140000000D01*
X121499955Y-144000000D02*
X196499950Y-144000000D01*
X116500000Y-144000000D02*
X115000000Y-144000000D01*
X116500000Y-144000000D02*
X116599704Y-143992313D01*
X116500000Y-140000000D02*
X116599704Y-140007687D01*
X116599704Y-143992313D02*
X116698522Y-143976985D01*
X116599704Y-140007687D02*
X116698522Y-140023015D01*
X116698522Y-143976985D02*
X116795869Y-143954107D01*
X116698522Y-140023015D02*
X116795869Y-140045893D01*
X116795869Y-143954107D02*
X116891169Y-143923814D01*
X116795869Y-140045893D02*
X116891169Y-140076186D01*
X116891169Y-143923814D02*
X116983859Y-143886285D01*
X116891169Y-140076186D02*
X116983859Y-140113715D01*
X116983859Y-143886285D02*
X117073390Y-143841742D01*
X116983859Y-140113715D02*
X117073390Y-140158258D01*
X117073390Y-143841742D02*
X117159232Y-143790449D01*
X117073390Y-140158258D02*
X117159232Y-140209551D01*
X117159232Y-143790449D02*
X117240877Y-143732709D01*
X117159232Y-140209551D02*
X117240877Y-140267291D01*
X117240877Y-143732709D02*
X117317842Y-143668864D01*
X117240877Y-140267291D02*
X117317842Y-140331136D01*
X117317842Y-143668864D02*
X117389672Y-143599292D01*
X117317842Y-140331136D02*
X117389672Y-140400708D01*
X117389672Y-143599292D02*
X117455942Y-143524405D01*
X117389672Y-140400708D02*
X117455942Y-140475595D01*
X117455942Y-143524405D02*
X117516260Y-143444646D01*
X117455942Y-140475595D02*
X117516260Y-140555354D01*
X117516260Y-143444646D02*
X117570269Y-143360487D01*
X117516260Y-140555354D02*
X117570269Y-140639513D01*
X117570269Y-143360487D02*
X117617649Y-143272426D01*
X117570269Y-140639513D02*
X117617649Y-140727574D01*
X117617649Y-143272426D02*
X117658120Y-143180984D01*
X117617649Y-140727574D02*
X117658120Y-140819016D01*
X117658120Y-143180984D02*
X117691442Y-143086702D01*
X117658120Y-140819016D02*
X117691442Y-140913298D01*
X117691442Y-143086702D02*
X117717418Y-142990138D01*
X117691442Y-140913298D02*
X117717418Y-141009862D01*
X117717418Y-142990138D02*
X117735895Y-142891863D01*
X117717418Y-141009862D02*
X117735895Y-141108137D01*
X117735895Y-142891863D02*
X117746763Y-142792458D01*
X117735895Y-141108137D02*
X117746763Y-141207542D01*
X117746763Y-142792458D02*
X117749958Y-142692512D01*
X117746763Y-141207542D02*
X117749958Y-141307488D01*
X117749958Y-141307488D02*
X117749958Y-142692512D01*
X121499955Y-144000000D02*
X121400251Y-143992313D01*
X121499955Y-140000000D02*
X121400251Y-140007687D01*
X121400251Y-143992313D02*
X121301433Y-143976985D01*
X121400251Y-140007687D02*
X121301433Y-140023015D01*
X121301433Y-143976985D02*
X121204086Y-143954107D01*
X121301433Y-140023015D02*
X121204086Y-140045893D01*
X121204086Y-143954107D02*
X121108786Y-143923814D01*
X121204086Y-140045893D02*
X121108786Y-140076186D01*
X121108786Y-143923814D02*
X121016096Y-143886285D01*
X121108786Y-140076186D02*
X121016096Y-140113715D01*
X121016096Y-143886285D02*
X120926565Y-143841742D01*
X121016096Y-140113715D02*
X120926565Y-140158258D01*
X120926565Y-143841742D02*
X120840723Y-143790449D01*
X120926565Y-140158258D02*
X120840723Y-140209551D01*
X120840723Y-143790449D02*
X120759078Y-143732709D01*
X120840723Y-140209551D02*
X120759078Y-140267291D01*
X120759078Y-143732709D02*
X120682113Y-143668864D01*
X120759078Y-140267291D02*
X120682113Y-140331136D01*
X120682113Y-143668864D02*
X120610283Y-143599292D01*
X120682113Y-140331136D02*
X120610283Y-140400708D01*
X120610283Y-143599292D02*
X120544013Y-143524405D01*
X120610283Y-140400708D02*
X120544013Y-140475595D01*
X120544013Y-143524405D02*
X120483695Y-143444646D01*
X120544013Y-140475595D02*
X120483695Y-140555354D01*
X120483695Y-143444646D02*
X120429686Y-143360487D01*
X120483695Y-140555354D02*
X120429686Y-140639513D01*
X120429686Y-143360487D02*
X120382306Y-143272426D01*
X120429686Y-140639513D02*
X120382306Y-140727574D01*
X120382306Y-143272426D02*
X120341835Y-143180984D01*
X120382306Y-140727574D02*
X120341835Y-140819016D01*
X120341835Y-143180984D02*
X120308513Y-143086702D01*
X120341835Y-140819016D02*
X120308513Y-140913298D01*
X120308513Y-143086702D02*
X120282537Y-142990138D01*
X120308513Y-140913298D02*
X120282537Y-141009862D01*
X120282537Y-142990138D02*
X120264060Y-142891863D01*
X120282537Y-141009862D02*
X120264060Y-141108137D01*
X120264060Y-142891863D02*
X120253192Y-142792458D01*
X120264060Y-141108137D02*
X120253192Y-141207542D01*
X120253192Y-142792458D02*
X120249997Y-142692512D01*
X120253192Y-141207542D02*
X120249997Y-141307488D01*
X120249997Y-141307488D02*
X120249997Y-142692512D01*
X110000000Y-271500000D02*
X110000000Y-273000000D01*
X114000000Y-271500000D02*
X114000000Y-273000000D01*
X114000000Y-271500000D02*
X113992313Y-271400296D01*
X110000000Y-271500000D02*
X110007687Y-271400296D01*
X113992313Y-271400296D02*
X113976985Y-271301478D01*
X110007687Y-271400296D02*
X110023015Y-271301478D01*
X113976985Y-271301478D02*
X113954107Y-271204131D01*
X110023015Y-271301478D02*
X110045893Y-271204131D01*
X113954107Y-271204131D02*
X113923814Y-271108831D01*
X110045893Y-271204131D02*
X110076186Y-271108831D01*
X113923814Y-271108831D02*
X113886285Y-271016141D01*
X110076186Y-271108831D02*
X110113715Y-271016141D01*
X113886285Y-271016141D02*
X113841742Y-270926610D01*
X110113715Y-271016141D02*
X110158258Y-270926610D01*
X113841742Y-270926610D02*
X113790449Y-270840768D01*
X110158258Y-270926610D02*
X110209551Y-270840768D01*
X113790449Y-270840768D02*
X113732709Y-270759123D01*
X110209551Y-270840768D02*
X110267291Y-270759123D01*
X113732709Y-270759123D02*
X113668864Y-270682158D01*
X110267291Y-270759123D02*
X110331136Y-270682158D01*
X113668864Y-270682158D02*
X113599292Y-270610328D01*
X110331136Y-270682158D02*
X110400708Y-270610328D01*
X113599292Y-270610328D02*
X113524405Y-270544058D01*
X110400708Y-270610328D02*
X110475595Y-270544058D01*
X113524405Y-270544058D02*
X113444646Y-270483740D01*
X110475595Y-270544058D02*
X110555354Y-270483740D01*
X113444646Y-270483740D02*
X113360487Y-270429731D01*
X110555354Y-270483740D02*
X110639513Y-270429731D01*
X113360487Y-270429731D02*
X113272426Y-270382351D01*
X110639513Y-270429731D02*
X110727574Y-270382351D01*
X113272426Y-270382351D02*
X113180984Y-270341880D01*
X110727574Y-270382351D02*
X110819016Y-270341880D01*
X113180984Y-270341880D02*
X113086702Y-270308558D01*
X110819016Y-270341880D02*
X110913298Y-270308558D01*
X113086702Y-270308558D02*
X112990138Y-270282582D01*
X110913298Y-270308558D02*
X111009862Y-270282582D01*
X112990138Y-270282582D02*
X112891863Y-270264105D01*
X111009862Y-270282582D02*
X111108137Y-270264105D01*
X112891863Y-270264105D02*
X112792458Y-270253237D01*
X111108137Y-270264105D02*
X111207542Y-270253237D01*
X112792458Y-270253237D02*
X112692512Y-270250042D01*
X111207542Y-270253237D02*
X111307488Y-270250042D01*
X111307488Y-270250042D02*
X112692512Y-270250042D01*
X114000000Y-266500100D02*
X113992313Y-266599804D01*
X110000000Y-266499850D02*
X110007687Y-266599554D01*
X113992313Y-266599804D02*
X113976985Y-266698622D01*
X110007687Y-266599554D02*
X110023015Y-266698372D01*
X113976985Y-266698622D02*
X113954107Y-266795969D01*
X110023015Y-266698372D02*
X110045893Y-266795719D01*
X113954107Y-266795969D02*
X113923814Y-266891269D01*
X110045893Y-266795719D02*
X110076186Y-266891019D01*
X113923814Y-266891269D02*
X113886285Y-266983959D01*
X110076186Y-266891019D02*
X110113715Y-266983709D01*
X113886285Y-266983959D02*
X113841742Y-267073490D01*
X110113715Y-266983709D02*
X110158258Y-267073240D01*
X113841742Y-267073490D02*
X113790449Y-267159332D01*
X110158258Y-267073240D02*
X110209551Y-267159082D01*
X113790449Y-267159332D02*
X113732709Y-267240977D01*
X110209551Y-267159082D02*
X110267291Y-267240727D01*
X113732709Y-267240977D02*
X113668864Y-267317942D01*
X110267291Y-267240727D02*
X110331136Y-267317692D01*
X113668864Y-267317942D02*
X113599292Y-267389772D01*
X110331136Y-267317692D02*
X110400708Y-267389522D01*
X113599292Y-267389772D02*
X113524405Y-267456042D01*
X110400708Y-267389522D02*
X110475595Y-267455792D01*
X113524405Y-267456042D02*
X113444646Y-267516360D01*
X110475595Y-267455792D02*
X110555354Y-267516110D01*
X113444646Y-267516360D02*
X113360487Y-267570369D01*
X110555354Y-267516110D02*
X110639513Y-267570119D01*
X113360487Y-267570369D02*
X113272426Y-267617749D01*
X110639513Y-267570119D02*
X110727574Y-267617499D01*
X113272426Y-267617749D02*
X113180984Y-267658220D01*
X110727574Y-267617499D02*
X110819016Y-267657970D01*
X113180984Y-267658220D02*
X113086702Y-267691542D01*
X110819016Y-267657970D02*
X110913298Y-267691292D01*
X113086702Y-267691542D02*
X112990138Y-267717518D01*
X110913298Y-267691292D02*
X111009862Y-267717268D01*
X112990138Y-267717518D02*
X112891863Y-267735995D01*
X111009862Y-267717268D02*
X111108137Y-267735745D01*
X112891863Y-267735995D02*
X112792458Y-267746863D01*
X111108137Y-267735745D02*
X111207542Y-267746613D01*
X112792458Y-267746863D02*
X112692512Y-267750058D01*
X111207542Y-267746613D02*
X111307488Y-267749808D01*
X111307488Y-267749808D02*
X112692512Y-267750058D01*
X110000000Y-151500103D02*
X110000000Y-266499850D01*
X110000000Y-146500000D02*
X110000000Y-145000000D01*
X114000000Y-146500000D02*
X114000000Y-145000000D01*
X114000000Y-151500108D02*
X114000000Y-266500100D01*
X110000000Y-151500103D02*
X110007687Y-151400399D01*
X114000000Y-151500108D02*
X113992313Y-151400404D01*
X110007687Y-151400399D02*
X110023015Y-151301581D01*
X113992313Y-151400404D02*
X113976985Y-151301586D01*
X110023015Y-151301581D02*
X110045893Y-151204234D01*
X113976985Y-151301586D02*
X113954107Y-151204239D01*
X110045893Y-151204234D02*
X110076186Y-151108934D01*
X113954107Y-151204239D02*
X113923814Y-151108939D01*
X110076186Y-151108934D02*
X110113715Y-151016244D01*
X113923814Y-151108939D02*
X113886285Y-151016249D01*
X110113715Y-151016244D02*
X110158258Y-150926713D01*
X113886285Y-151016249D02*
X113841742Y-150926718D01*
X110158258Y-150926713D02*
X110209551Y-150840871D01*
X113841742Y-150926718D02*
X113790449Y-150840876D01*
X110209551Y-150840871D02*
X110267291Y-150759226D01*
X113790449Y-150840876D02*
X113732709Y-150759231D01*
X110267291Y-150759226D02*
X110331136Y-150682261D01*
X113732709Y-150759231D02*
X113668864Y-150682266D01*
X110331136Y-150682261D02*
X110400708Y-150610431D01*
X113668864Y-150682266D02*
X113599292Y-150610436D01*
X110400708Y-150610431D02*
X110475595Y-150544161D01*
X113599292Y-150610436D02*
X113524405Y-150544166D01*
X110475595Y-150544161D02*
X110555354Y-150483843D01*
X113524405Y-150544166D02*
X113444646Y-150483848D01*
X110555354Y-150483843D02*
X110639513Y-150429834D01*
X113444646Y-150483848D02*
X113360487Y-150429839D01*
X110639513Y-150429834D02*
X110727574Y-150382454D01*
X113360487Y-150429839D02*
X113272426Y-150382459D01*
X110727574Y-150382454D02*
X110819016Y-150341983D01*
X113272426Y-150382459D02*
X113180984Y-150341988D01*
X110819016Y-150341983D02*
X110913298Y-150308661D01*
X113180984Y-150341988D02*
X113086702Y-150308666D01*
X110913298Y-150308661D02*
X111009862Y-150282685D01*
X113086702Y-150308666D02*
X112990138Y-150282690D01*
X111009862Y-150282685D02*
X111108137Y-150264208D01*
X112990138Y-150282690D02*
X112891863Y-150264213D01*
X111108137Y-150264208D02*
X111207542Y-150253340D01*
X112891863Y-150264213D02*
X112792458Y-150253345D01*
X111207542Y-150253340D02*
X111307488Y-150250145D01*
X112792458Y-150253345D02*
X112692512Y-150250150D01*
X111307488Y-150250145D02*
X112692512Y-150250150D01*
X114000000Y-146500000D02*
X113992313Y-146599704D01*
X110000000Y-146500000D02*
X110007687Y-146599704D01*
X113992313Y-146599704D02*
X113976985Y-146698522D01*
X110007687Y-146599704D02*
X110023015Y-146698522D01*
X113976985Y-146698522D02*
X113954107Y-146795869D01*
X110023015Y-146698522D02*
X110045893Y-146795869D01*
X113954107Y-146795869D02*
X113923814Y-146891169D01*
X110045893Y-146795869D02*
X110076186Y-146891169D01*
X113923814Y-146891169D02*
X113886285Y-146983859D01*
X110076186Y-146891169D02*
X110113715Y-146983859D01*
X113886285Y-146983859D02*
X113841742Y-147073390D01*
X110113715Y-146983859D02*
X110158258Y-147073390D01*
X113841742Y-147073390D02*
X113790449Y-147159232D01*
X110158258Y-147073390D02*
X110209551Y-147159232D01*
X113790449Y-147159232D02*
X113732709Y-147240877D01*
X110209551Y-147159232D02*
X110267291Y-147240877D01*
X113732709Y-147240877D02*
X113668864Y-147317842D01*
X110267291Y-147240877D02*
X110331136Y-147317842D01*
X113668864Y-147317842D02*
X113599292Y-147389672D01*
X110331136Y-147317842D02*
X110400708Y-147389672D01*
X113599292Y-147389672D02*
X113524405Y-147455942D01*
X110400708Y-147389672D02*
X110475595Y-147455942D01*
X113524405Y-147455942D02*
X113444646Y-147516260D01*
X110475595Y-147455942D02*
X110555354Y-147516260D01*
X113444646Y-147516260D02*
X113360487Y-147570269D01*
X110555354Y-147516260D02*
X110639513Y-147570269D01*
X113360487Y-147570269D02*
X113272426Y-147617649D01*
X110639513Y-147570269D02*
X110727574Y-147617649D01*
X113272426Y-147617649D02*
X113180984Y-147658120D01*
X110727574Y-147617649D02*
X110819016Y-147658120D01*
X113180984Y-147658120D02*
X113086702Y-147691442D01*
X110819016Y-147658120D02*
X110913298Y-147691442D01*
X113086702Y-147691442D02*
X112990138Y-147717418D01*
X110913298Y-147691442D02*
X111009862Y-147717418D01*
X112990138Y-147717418D02*
X112891863Y-147735895D01*
X111009862Y-147717418D02*
X111108137Y-147735895D01*
X112891863Y-147735895D02*
X112792458Y-147746763D01*
X111108137Y-147735895D02*
X111207542Y-147746763D01*
X112792458Y-147746763D02*
X112692512Y-147749958D01*
X111207542Y-147746763D02*
X111307488Y-147749958D01*
X111307488Y-147749958D02*
X112692512Y-147749958D01*
X114000000Y-137500000D02*
X114000000Y-139000000D01*
X110000000Y-137500000D02*
X110000000Y-139000000D01*
X114000000Y-132500100D02*
X113992313Y-132599804D01*
X110000000Y-132499850D02*
X110007687Y-132599554D01*
X113992313Y-132599804D02*
X113976985Y-132698622D01*
X110007687Y-132599554D02*
X110023015Y-132698372D01*
X113976985Y-132698622D02*
X113954107Y-132795969D01*
X110023015Y-132698372D02*
X110045893Y-132795719D01*
X113954107Y-132795969D02*
X113923814Y-132891269D01*
X110045893Y-132795719D02*
X110076186Y-132891019D01*
X113923814Y-132891269D02*
X113886285Y-132983959D01*
X110076186Y-132891019D02*
X110113715Y-132983709D01*
X113886285Y-132983959D02*
X113841742Y-133073490D01*
X110113715Y-132983709D02*
X110158258Y-133073240D01*
X113841742Y-133073490D02*
X113790449Y-133159332D01*
X110158258Y-133073240D02*
X110209551Y-133159082D01*
X113790449Y-133159332D02*
X113732709Y-133240977D01*
X110209551Y-133159082D02*
X110267291Y-133240727D01*
X113732709Y-133240977D02*
X113668864Y-133317942D01*
X110267291Y-133240727D02*
X110331136Y-133317692D01*
X113668864Y-133317942D02*
X113599292Y-133389772D01*
X110331136Y-133317692D02*
X110400708Y-133389522D01*
X113599292Y-133389772D02*
X113524405Y-133456042D01*
X110400708Y-133389522D02*
X110475595Y-133455792D01*
X113524405Y-133456042D02*
X113444646Y-133516360D01*
X110475595Y-133455792D02*
X110555354Y-133516110D01*
X113444646Y-133516360D02*
X113360487Y-133570369D01*
X110555354Y-133516110D02*
X110639513Y-133570119D01*
X113360487Y-133570369D02*
X113272426Y-133617749D01*
X110639513Y-133570119D02*
X110727574Y-133617499D01*
X113272426Y-133617749D02*
X113180984Y-133658220D01*
X110727574Y-133617499D02*
X110819016Y-133657970D01*
X113180984Y-133658220D02*
X113086702Y-133691542D01*
X110819016Y-133657970D02*
X110913298Y-133691292D01*
X113086702Y-133691542D02*
X112990138Y-133717518D01*
X110913298Y-133691292D02*
X111009862Y-133717268D01*
X112990138Y-133717518D02*
X112891863Y-133735995D01*
X111009862Y-133717268D02*
X111108137Y-133735745D01*
X112891863Y-133735995D02*
X112792458Y-133746863D01*
X111108137Y-133735745D02*
X111207542Y-133746613D01*
X112792458Y-133746863D02*
X112692512Y-133750058D01*
X111207542Y-133746613D02*
X111307488Y-133749808D01*
X112692512Y-133750058D02*
X111307488Y-133749808D01*
X110000000Y-137500000D02*
X110007687Y-137400296D01*
X114000000Y-137500000D02*
X113992313Y-137400296D01*
X110007687Y-137400296D02*
X110023015Y-137301478D01*
X113992313Y-137400296D02*
X113976985Y-137301478D01*
X110023015Y-137301478D02*
X110045893Y-137204131D01*
X113976985Y-137301478D02*
X113954107Y-137204131D01*
X110045893Y-137204131D02*
X110076186Y-137108831D01*
X113954107Y-137204131D02*
X113923814Y-137108831D01*
X110076186Y-137108831D02*
X110113715Y-137016141D01*
X113923814Y-137108831D02*
X113886285Y-137016141D01*
X110113715Y-137016141D02*
X110158258Y-136926610D01*
X113886285Y-137016141D02*
X113841742Y-136926610D01*
X110158258Y-136926610D02*
X110209551Y-136840768D01*
X113841742Y-136926610D02*
X113790449Y-136840768D01*
X110209551Y-136840768D02*
X110267291Y-136759123D01*
X113790449Y-136840768D02*
X113732709Y-136759123D01*
X110267291Y-136759123D02*
X110331136Y-136682158D01*
X113732709Y-136759123D02*
X113668864Y-136682158D01*
X110331136Y-136682158D02*
X110400708Y-136610328D01*
X113668864Y-136682158D02*
X113599292Y-136610328D01*
X110400708Y-136610328D02*
X110475595Y-136544058D01*
X113599292Y-136610328D02*
X113524405Y-136544058D01*
X110475595Y-136544058D02*
X110555354Y-136483740D01*
X113524405Y-136544058D02*
X113444646Y-136483740D01*
X110555354Y-136483740D02*
X110639513Y-136429731D01*
X113444646Y-136483740D02*
X113360487Y-136429731D01*
X110639513Y-136429731D02*
X110727574Y-136382351D01*
X113360487Y-136429731D02*
X113272426Y-136382351D01*
X110727574Y-136382351D02*
X110819016Y-136341880D01*
X113272426Y-136382351D02*
X113180984Y-136341880D01*
X110819016Y-136341880D02*
X110913298Y-136308558D01*
X113180984Y-136341880D02*
X113086702Y-136308558D01*
X110913298Y-136308558D02*
X111009862Y-136282582D01*
X113086702Y-136308558D02*
X112990138Y-136282582D01*
X111009862Y-136282582D02*
X111108137Y-136264105D01*
X112990138Y-136282582D02*
X112891863Y-136264105D01*
X111108137Y-136264105D02*
X111207542Y-136253237D01*
X112891863Y-136264105D02*
X112792458Y-136253237D01*
X111207542Y-136253237D02*
X111307488Y-136250042D01*
X112792458Y-136253237D02*
X112692512Y-136250042D01*
X112692512Y-136250042D02*
X111307488Y-136250042D01*
X110000000Y-17500103D02*
X110000000Y-132499850D01*
X110000000Y-12500000D02*
X110000000Y-11000000D01*
X114000000Y-12500000D02*
X114000000Y-11000000D01*
X114000000Y-17500108D02*
X114000000Y-132500100D01*
X110000000Y-17500103D02*
X110007687Y-17400399D01*
X114000000Y-17500108D02*
X113992313Y-17400404D01*
X110007687Y-17400399D02*
X110023015Y-17301581D01*
X113992313Y-17400404D02*
X113976985Y-17301586D01*
X110023015Y-17301581D02*
X110045893Y-17204234D01*
X113976985Y-17301586D02*
X113954107Y-17204239D01*
X110045893Y-17204234D02*
X110076186Y-17108934D01*
X113954107Y-17204239D02*
X113923814Y-17108939D01*
X110076186Y-17108934D02*
X110113715Y-17016244D01*
X113923814Y-17108939D02*
X113886285Y-17016249D01*
X110113715Y-17016244D02*
X110158258Y-16926713D01*
X113886285Y-17016249D02*
X113841742Y-16926718D01*
X110158258Y-16926713D02*
X110209551Y-16840871D01*
X113841742Y-16926718D02*
X113790449Y-16840876D01*
X110209551Y-16840871D02*
X110267291Y-16759226D01*
X113790449Y-16840876D02*
X113732709Y-16759231D01*
X110267291Y-16759226D02*
X110331136Y-16682261D01*
X113732709Y-16759231D02*
X113668864Y-16682266D01*
X110331136Y-16682261D02*
X110400708Y-16610431D01*
X113668864Y-16682266D02*
X113599292Y-16610436D01*
X110400708Y-16610431D02*
X110475595Y-16544161D01*
X113599292Y-16610436D02*
X113524405Y-16544166D01*
X110475595Y-16544161D02*
X110555354Y-16483843D01*
X113524405Y-16544166D02*
X113444646Y-16483848D01*
X110555354Y-16483843D02*
X110639513Y-16429834D01*
X113444646Y-16483848D02*
X113360487Y-16429839D01*
X110639513Y-16429834D02*
X110727574Y-16382454D01*
X113360487Y-16429839D02*
X113272426Y-16382459D01*
X110727574Y-16382454D02*
X110819016Y-16341983D01*
X113272426Y-16382459D02*
X113180984Y-16341988D01*
X110819016Y-16341983D02*
X110913298Y-16308661D01*
X113180984Y-16341988D02*
X113086702Y-16308666D01*
X110913298Y-16308661D02*
X111009862Y-16282685D01*
X113086702Y-16308666D02*
X112990138Y-16282690D01*
X111009862Y-16282685D02*
X111108137Y-16264208D01*
X112990138Y-16282690D02*
X112891863Y-16264213D01*
X111108137Y-16264208D02*
X111207542Y-16253340D01*
X112891863Y-16264213D02*
X112792458Y-16253345D01*
X111207542Y-16253340D02*
X111307488Y-16250145D01*
X112792458Y-16253345D02*
X112692512Y-16250150D01*
X111307488Y-16250145D02*
X112692512Y-16250150D01*
X114000000Y-12500000D02*
X113992313Y-12599704D01*
X110000000Y-12500000D02*
X110007687Y-12599704D01*
X113992313Y-12599704D02*
X113976985Y-12698522D01*
X110007687Y-12599704D02*
X110023015Y-12698522D01*
X113976985Y-12698522D02*
X113954107Y-12795869D01*
X110023015Y-12698522D02*
X110045893Y-12795869D01*
X113954107Y-12795869D02*
X113923814Y-12891169D01*
X110045893Y-12795869D02*
X110076186Y-12891169D01*
X113923814Y-12891169D02*
X113886285Y-12983859D01*
X110076186Y-12891169D02*
X110113715Y-12983859D01*
X113886285Y-12983859D02*
X113841742Y-13073390D01*
X110113715Y-12983859D02*
X110158258Y-13073390D01*
X113841742Y-13073390D02*
X113790449Y-13159232D01*
X110158258Y-13073390D02*
X110209551Y-13159232D01*
X113790449Y-13159232D02*
X113732709Y-13240877D01*
X110209551Y-13159232D02*
X110267291Y-13240877D01*
X113732709Y-13240877D02*
X113668864Y-13317842D01*
X110267291Y-13240877D02*
X110331136Y-13317842D01*
X113668864Y-13317842D02*
X113599292Y-13389672D01*
X110331136Y-13317842D02*
X110400708Y-13389672D01*
X113599292Y-13389672D02*
X113524405Y-13455942D01*
X110400708Y-13389672D02*
X110475595Y-13455942D01*
X113524405Y-13455942D02*
X113444646Y-13516260D01*
X110475595Y-13455942D02*
X110555354Y-13516260D01*
X113444646Y-13516260D02*
X113360487Y-13570269D01*
X110555354Y-13516260D02*
X110639513Y-13570269D01*
X113360487Y-13570269D02*
X113272426Y-13617649D01*
X110639513Y-13570269D02*
X110727574Y-13617649D01*
X113272426Y-13617649D02*
X113180984Y-13658120D01*
X110727574Y-13617649D02*
X110819016Y-13658120D01*
X113180984Y-13658120D02*
X113086702Y-13691442D01*
X110819016Y-13658120D02*
X110913298Y-13691442D01*
X113086702Y-13691442D02*
X112990138Y-13717418D01*
X110913298Y-13691442D02*
X111009862Y-13717418D01*
X112990138Y-13717418D02*
X112891863Y-13735895D01*
X111009862Y-13717418D02*
X111108137Y-13735895D01*
X112891863Y-13735895D02*
X112792458Y-13746763D01*
X111108137Y-13735895D02*
X111207542Y-13746763D01*
X112792458Y-13746763D02*
X112692512Y-13749958D01*
X111207542Y-13746763D02*
X111307488Y-13749958D01*
X111307488Y-13749958D02*
X112692512Y-13749958D01*
M02*
