%TF.GenerationSoftware,KiCad,Pcbnew,8.0.7*%
%TF.CreationDate,2025-02-21T11:32:42+13:00*%
%TF.ProjectId,JVCard,4a564361-7264-42e6-9b69-6361645f7063,rev?*%
%TF.SameCoordinates,Original*%
%TF.FileFunction,Copper,L2,Bot*%
%TF.FilePolarity,Positive*%
%FSLAX46Y46*%
G04 Gerber Fmt 4.6, Leading zero omitted, Abs format (unit mm)*
G04 Created by KiCad (PCBNEW 8.0.7) date 2025-02-21 11:32:42*
%MOMM*%
%LPD*%
G01*
G04 APERTURE LIST*
%TA.AperFunction,ComponentPad*%
%ADD10O,2.500000X1.600000*%
%TD*%
%TA.AperFunction,ComponentPad*%
%ADD11O,4.000000X3.500000*%
%TD*%
%TA.AperFunction,ComponentPad*%
%ADD12C,4.000000*%
%TD*%
%TA.AperFunction,ComponentPad*%
%ADD13C,2.200000*%
%TD*%
%TA.AperFunction,ComponentPad*%
%ADD14O,1.700000X1.700000*%
%TD*%
%TA.AperFunction,ComponentPad*%
%ADD15R,1.700000X1.700000*%
%TD*%
%TA.AperFunction,ComponentPad*%
%ADD16O,3.000000X3.000000*%
%TD*%
%TA.AperFunction,ViaPad*%
%ADD17C,0.800000*%
%TD*%
%TA.AperFunction,Conductor*%
%ADD18C,0.800000*%
%TD*%
%TA.AperFunction,Conductor*%
%ADD19C,0.500000*%
%TD*%
%TA.AperFunction,Conductor*%
%ADD20C,0.250000*%
%TD*%
%TA.AperFunction,Conductor*%
%ADD21C,0.200000*%
%TD*%
G04 APERTURE END LIST*
D10*
%TO.P,JV1,1,In*%
%TO.N,/Vi*%
X-117000000Y-20000000D03*
D11*
%TO.P,JV1,2,Ext*%
%TO.N,GNDA*%
X-122080000Y-25080000D03*
D10*
X-117000000Y-22540000D03*
D11*
X-122080000Y-14920000D03*
%TD*%
D10*
%TO.P,JRed1,1,In*%
%TO.N,/Ri*%
X-117000000Y44000000D03*
D11*
%TO.P,JRed1,2,Ext*%
%TO.N,GNDA*%
X-122080000Y38920000D03*
D10*
X-117000000Y41460000D03*
D11*
X-122080000Y49080000D03*
%TD*%
D10*
%TO.P,JH1,1,In*%
%TO.N,/Hi*%
X-117000000Y-4000000D03*
D11*
%TO.P,JH1,2,Ext*%
%TO.N,GNDA*%
X-122080000Y-9080000D03*
D10*
X-117000000Y-6540000D03*
D11*
X-122080000Y1080000D03*
%TD*%
D10*
%TO.P,JGreen1,1,In*%
%TO.N,/Gi*%
X-117000000Y28000000D03*
D11*
%TO.P,JGreen1,2,Ext*%
%TO.N,GNDA*%
X-122080000Y22920000D03*
D10*
X-117000000Y25460000D03*
D11*
X-122080000Y33080000D03*
%TD*%
D10*
%TO.P,JBlue1,1,In*%
%TO.N,/Bi*%
X-117000000Y12000000D03*
D11*
%TO.P,JBlue1,2,Ext*%
%TO.N,GNDA*%
X-122080000Y6920000D03*
D10*
X-117000000Y9460000D03*
D11*
X-122080000Y17080000D03*
%TD*%
D12*
%TO.P,U4,0*%
%TO.N,N/C*%
X-133600000Y-2880000D03*
X-133600000Y49390000D03*
D13*
%TO.P,U4,2,AUD_IN_R*%
%TO.N,Net-(JRight1-In)*%
X-131400000Y6390000D03*
%TO.P,U4,3,AUD_OUT_L*%
%TO.N,unconnected-(U4-AUD_OUT_L-Pad3)*%
X-126320000Y8295000D03*
%TO.P,U4,4,AUD_GND*%
%TO.N,GNDA*%
X-131400000Y10200000D03*
%TO.P,U4,5,RGB_B_GND*%
X-126320000Y12105000D03*
%TO.P,U4,6,AUD_IN_L*%
%TO.N,/Ai*%
X-131400000Y14010000D03*
%TO.P,U4,7,RGB_B*%
%TO.N,/Bi*%
X-126320000Y15915000D03*
%TO.P,U4,8,VID_STAT*%
%TO.N,unconnected-(U4-VID_STAT-Pad8)*%
X-131400000Y17820000D03*
%TO.P,U4,9,RGB_G_GND*%
%TO.N,GNDA*%
X-126320000Y19725000D03*
%TO.P,U4,10,IOCTRL*%
%TO.N,unconnected-(U4-IOCTRL-Pad10)*%
X-131400000Y21630000D03*
%TO.P,U4,11,RGB_G*%
%TO.N,/Gi*%
X-126320000Y23535000D03*
%TO.P,U4,12,RSV*%
%TO.N,unconnected-(U4-RSV-Pad12)*%
X-131400000Y25440000D03*
%TO.P,U4,13,RGB_R_GND*%
%TO.N,GNDA*%
X-126320000Y27345000D03*
%TO.P,U4,20,SYNC_IN*%
%TO.N,/Hi*%
X-131400000Y40680000D03*
%TO.P,U4,15,RGB_R*%
%TO.N,/Ri*%
X-126320000Y31155000D03*
%TO.P,U4,14,RGB_STAT_GND*%
%TO.N,GNDA*%
X-131400000Y29250000D03*
%TO.P,U4,17,SYNC_GND*%
X-126320000Y34965000D03*
%TO.P,U4,16,RGB_STAT*%
%TO.N,unconnected-(U4-RGB_STAT-Pad16)*%
X-131400000Y33060000D03*
%TO.P,U4,19,SYNC_OUT*%
%TO.N,unconnected-(U4-SYNC_OUT-Pad19)*%
X-126320000Y38775000D03*
%TO.P,U4,18,SYNC_GND*%
%TO.N,GNDA*%
X-131400000Y36870000D03*
%TO.P,U4,21,GND*%
X-126320000Y42585000D03*
%TO.P,U4,1,AUD_OUT_R*%
%TO.N,unconnected-(U4-AUD_OUT_R-Pad1)*%
X-126320000Y4485000D03*
%TD*%
D14*
%TO.P,J6,50,Pin_50*%
%TO.N,GNDA*%
X30040000Y-30460000D03*
%TO.P,J6,49,Pin_49*%
X27500000Y-30460000D03*
%TO.P,J6,48,Pin_48*%
%TO.N,/Audio*%
X30040000Y-27920000D03*
%TO.P,J6,47,Pin_47*%
%TO.N,GNDA*%
X27500000Y-27920000D03*
%TO.P,J6,46,Pin_46*%
%TO.N,unconnected-(J6-Pin_46-Pad46)*%
X30040000Y-25380000D03*
%TO.P,J6,45,Pin_45*%
%TO.N,unconnected-(J6-Pin_45-Pad45)*%
X27500000Y-25380000D03*
%TO.P,J6,44,Pin_44*%
%TO.N,unconnected-(J6-Pin_44-Pad44)*%
X30040000Y-22840000D03*
%TO.P,J6,43,Pin_43*%
%TO.N,unconnected-(J6-Pin_43-Pad43)*%
X27500000Y-22840000D03*
%TO.P,J6,42,Pin_42*%
%TO.N,unconnected-(J6-Pin_42-Pad42)*%
X30040000Y-20300000D03*
%TO.P,J6,41,Pin_41*%
%TO.N,+15V*%
X27500000Y-20300000D03*
%TO.P,J6,40,Pin_40*%
%TO.N,unconnected-(J6-Pin_40-Pad40)*%
X30040000Y-17760000D03*
%TO.P,J6,39,Pin_39*%
%TO.N,+15V*%
X27500000Y-17760000D03*
%TO.P,J6,38,Pin_38*%
%TO.N,unconnected-(J6-Pin_38-Pad38)*%
X30040000Y-15220000D03*
%TO.P,J6,37,Pin_37*%
%TO.N,unconnected-(J6-Pin_37-Pad37)*%
X27500000Y-15220000D03*
%TO.P,J6,36,Pin_36*%
%TO.N,unconnected-(J6-Pin_36-Pad36)*%
X30040000Y-12680000D03*
%TO.P,J6,35,Pin_35*%
%TO.N,unconnected-(J6-Pin_35-Pad35)*%
X27500000Y-12680000D03*
%TO.P,J6,34,Pin_34*%
%TO.N,unconnected-(J6-Pin_34-Pad34)*%
X30040000Y-10140000D03*
%TO.P,J6,33,Pin_33*%
%TO.N,unconnected-(J6-Pin_33-Pad33)*%
X27500000Y-10140000D03*
%TO.P,J6,32,Pin_32*%
%TO.N,unconnected-(J6-Pin_32-Pad32)*%
X30040000Y-7600000D03*
%TO.P,J6,31,Pin_31*%
%TO.N,GNDA*%
X27500000Y-7600000D03*
%TO.P,J6,30,Pin_30*%
%TO.N,unconnected-(J6-Pin_30-Pad30)*%
X30040000Y-5060000D03*
%TO.P,J6,29,Pin_29*%
%TO.N,unconnected-(J6-Pin_29-Pad29)*%
X27500000Y-5060000D03*
%TO.P,J6,28,Pin_28*%
%TO.N,unconnected-(J6-Pin_28-Pad28)*%
X30040000Y-2520000D03*
%TO.P,J6,27,Pin_27*%
%TO.N,unconnected-(J6-Pin_27-Pad27)*%
X27500000Y-2520000D03*
%TO.P,J6,26,Pin_26*%
%TO.N,unconnected-(J6-Pin_26-Pad26)*%
X30040000Y20000D03*
%TO.P,J6,25,Pin_25*%
%TO.N,GNDA*%
X27500000Y20000D03*
%TO.P,J6,24,Pin_24*%
%TO.N,unconnected-(J6-Pin_24-Pad24)*%
X30040000Y2560000D03*
%TO.P,J6,23,Pin_23*%
%TO.N,unconnected-(J6-Pin_23-Pad23)*%
X27500000Y2560000D03*
%TO.P,J6,22,Pin_22*%
%TO.N,unconnected-(J6-Pin_22-Pad22)*%
X30040000Y5100000D03*
%TO.P,J6,21,Pin_21*%
%TO.N,GNDA*%
X27500000Y5100000D03*
%TO.P,J6,20,Pin_20*%
%TO.N,unconnected-(J6-Pin_20-Pad20)*%
X30040000Y7640000D03*
%TO.P,J6,19,Pin_19*%
%TO.N,GNDA*%
X27500000Y7640000D03*
%TO.P,J6,18,Pin_18*%
%TO.N,unconnected-(J6-Pin_18-Pad18)*%
X30040000Y10180000D03*
%TO.P,J6,17,Pin_17*%
%TO.N,unconnected-(J6-Pin_17-Pad17)*%
X27500000Y10180000D03*
%TO.P,J6,16,Pin_16*%
%TO.N,unconnected-(J6-Pin_16-Pad16)*%
X30040000Y12720000D03*
%TO.P,J6,15,Pin_15*%
%TO.N,unconnected-(J6-Pin_15-Pad15)*%
X27500000Y12720000D03*
%TO.P,J6,14,Pin_14*%
%TO.N,/Vs*%
X30040000Y15260000D03*
%TO.P,J6,13,Pin_13*%
%TO.N,GNDA*%
X27500000Y15260000D03*
%TO.P,J6,12,Pin_12*%
%TO.N,/Cs*%
X30040000Y17800000D03*
%TO.P,J6,11,Pin_11*%
%TO.N,GNDA*%
X27500000Y17800000D03*
%TO.P,J6,10,Pin_10*%
%TO.N,unconnected-(J6-Pin_10-Pad10)*%
X30040000Y20340000D03*
%TO.P,J6,9,Pin_9*%
%TO.N,unconnected-(J6-Pin_9-Pad9)*%
X27500000Y20340000D03*
%TO.P,J6,8,Pin_8*%
%TO.N,unconnected-(J6-Pin_8-Pad8)*%
X30040000Y22880000D03*
%TO.P,J6,7,Pin_7*%
%TO.N,GNDA*%
X27500000Y22880000D03*
%TO.P,J6,6,Pin_6*%
%TO.N,/Ro*%
X30040000Y25420000D03*
%TO.P,J6,5,Pin_5*%
%TO.N,GNDA*%
X27500000Y25420000D03*
%TO.P,J6,4,Pin_4*%
%TO.N,/Bo*%
X30040000Y27960000D03*
%TO.P,J6,3,Pin_3*%
%TO.N,GNDA*%
X27500000Y27960000D03*
%TO.P,J6,2,Pin_2*%
%TO.N,/Go*%
X30040000Y30500000D03*
D15*
%TO.P,J6,1,Pin_1*%
%TO.N,GNDA*%
X27500000Y30500000D03*
%TD*%
D13*
%TO.P,JRight1,0*%
%TO.N,N/C*%
X-134150000Y-56250000D03*
X-134150000Y-47750000D03*
D16*
%TO.P,JRight1,2,Ext*%
%TO.N,GNDA*%
X-131000000Y-52000000D03*
%TO.P,JRight1,1,In*%
%TO.N,Net-(JRight1-In)*%
X-126500000Y-52000000D03*
%TD*%
D13*
%TO.P,JLeft1,0*%
%TO.N,N/C*%
X-134150000Y-43250000D03*
X-134150000Y-34750000D03*
D16*
%TO.P,JLeft1,2,Ext*%
%TO.N,GNDA*%
X-131000000Y-39000000D03*
%TO.P,JLeft1,1,In*%
%TO.N,/Ai*%
X-126500000Y-39000000D03*
%TD*%
D17*
%TO.N,GNDA*%
X-95000000Y24500000D03*
X-92000000Y24500000D03*
X-106500000Y22000000D03*
X-109000000Y29500000D03*
X-100000000Y20000000D03*
X-97500000Y30000000D03*
X-109000000Y24000000D03*
X-95500000Y33500000D03*
X-97500000Y22000000D03*
X-102000000Y29500000D03*
X-95000000Y8500000D03*
X-92000000Y8500000D03*
X-106500000Y6000000D03*
X-109000000Y13500000D03*
X-100000000Y4000000D03*
X-97500000Y14000000D03*
X-109000000Y8000000D03*
X-95500000Y17500000D03*
X-97500000Y6000000D03*
X-102000000Y13500000D03*
X-98000000Y-7500000D03*
X-94000000Y-7500000D03*
X-106500000Y-10500000D03*
X-109000000Y-2500000D03*
X-99500000Y-2000000D03*
X-109000000Y-8000000D03*
X-99500000Y-10000000D03*
X-104000000Y-2500000D03*
X-98000000Y-23500000D03*
X-94000000Y-23500000D03*
X-109000000Y-18500000D03*
X-106500000Y-26500000D03*
X-109000000Y-24000000D03*
X-99500000Y-18000000D03*
X-104000000Y-18500000D03*
X-99500000Y-26000000D03*
X-89000000Y-16000000D03*
X-115000000Y-42500000D03*
X-111000000Y-42500000D03*
X-123500000Y-45500000D03*
X-116500000Y-37000000D03*
X-121000000Y-37500000D03*
X-116500000Y-45000000D03*
X-106000000Y-35000000D03*
X30500000Y34000000D03*
X27500000Y36000000D03*
X24500000Y38000000D03*
X24500000Y33000000D03*
X24500000Y23000000D03*
X24500000Y49000000D03*
X27500000Y51000000D03*
X30500000Y53000000D03*
X24000000Y59500000D03*
X22000000Y56500000D03*
X20000000Y53500000D03*
X18000000Y50500000D03*
X21500000Y47000000D03*
X26000000Y62500000D03*
X33500000Y55000000D03*
X-66000000Y59500000D03*
X-68000000Y62500000D03*
X-64000000Y56500000D03*
X-62000000Y53500000D03*
X-60000000Y50500000D03*
X-70000000Y45500000D03*
X-72500000Y48000000D03*
X-75000000Y50500000D03*
X-77500000Y53000000D03*
X-67500000Y43000000D03*
X-84500000Y45500000D03*
X-83000000Y42500000D03*
X-81000000Y39500000D03*
X-77000000Y37500000D03*
X-73000000Y37000000D03*
X-39500000Y62500000D03*
X-39500000Y59500000D03*
X-39500000Y56500000D03*
X-39500000Y53500000D03*
X-39500000Y50500000D03*
X-5000000Y62500000D03*
X-5000000Y59500000D03*
X-5000000Y56500000D03*
X-5000000Y53500000D03*
X-5000000Y50500000D03*
X-5000000Y47500000D03*
X-39500000Y47500000D03*
X-58000000Y47500000D03*
X-65000000Y40500000D03*
X-68500000Y37000000D03*
X-81000000Y30500000D03*
X-77000000Y28500000D03*
X-73000000Y26500000D03*
X-73000000Y17500000D03*
X-77000000Y19000000D03*
X-81000000Y20500000D03*
X-77000000Y9000000D03*
X-73000000Y7500000D03*
X-73000000Y-5000000D03*
X-69000000Y-5000000D03*
X-69000000Y6000000D03*
X-69000000Y16000000D03*
X-69000000Y24500000D03*
X-89000000Y0D03*
X-87000000Y16000000D03*
X-87000000Y32000000D03*
X-87000000Y48000000D03*
X-92000000Y40500000D03*
X-95000000Y40500000D03*
X-106500000Y38000000D03*
X-109000000Y40000000D03*
X-109000000Y45500000D03*
X-102000000Y45500000D03*
X-97500000Y46000000D03*
X-95500000Y49500000D03*
X-97500000Y38000000D03*
X-100000000Y36000000D03*
X-130000000Y-26000000D03*
X-130000000Y4500000D03*
X-130000000Y-7000000D03*
X-133500000Y-7000000D03*
X-133500000Y-26000000D03*
X-127000000Y-25500000D03*
X-127000000Y-7000000D03*
X-126500000Y2000000D03*
X-133000000Y4500000D03*
X-129000000Y-36500000D03*
X-124500000Y-37000000D03*
X18500000Y45500000D03*
X16500000Y47500000D03*
X21500000Y38000000D03*
X21500000Y23000000D03*
X18500000Y23000000D03*
X18500000Y38000000D03*
X-85500000Y-18000000D03*
X-84500000Y-21500000D03*
X-76500000Y-14000000D03*
X-79500000Y-12000000D03*
X-84000000Y-5500000D03*
X-85500000Y-2000000D03*
X-80500000Y3000000D03*
X-78000000Y500000D03*
X-83500000Y11000000D03*
X-85000000Y-38000000D03*
X-78500000Y-37500000D03*
X-88500000Y-35500000D03*
X-98000000Y-31500000D03*
X-98000000Y-34500000D03*
X-94000000Y-31000000D03*
X-94000000Y-35000000D03*
X-85500000Y-43000000D03*
X-76500000Y-45500000D03*
X-78500000Y-49500000D03*
X-97000000Y-37000000D03*
X-98500000Y-41000000D03*
X-78000000Y-56000000D03*
X-80000000Y-59000000D03*
X6000000Y-56000000D03*
X8000000Y-59000000D03*
X2500000Y-46000000D03*
X4500000Y-49000000D03*
X25500000Y-24500000D03*
X25500000Y-20000000D03*
X21500000Y-24500000D03*
X24000000Y-29000000D03*
X18000000Y-31000000D03*
X15000000Y-38000000D03*
X30000000Y-32500000D03*
X25000000Y-37500000D03*
X27000000Y-39500000D03*
X32000000Y-34500000D03*
X17500000Y-45000000D03*
X19500000Y-47000000D03*
X-36500000Y-46000000D03*
X-36500000Y-49000000D03*
X-36500000Y-56000000D03*
X-36500000Y-59000000D03*
X-133000000Y63000000D03*
X-133000000Y-63000000D03*
X33000000Y-63000000D03*
X33000000Y63000000D03*
X-115000000Y63500000D03*
X-115000000Y-63000000D03*
%TO.N,+12V*%
X-96500000Y0D03*
X-96500000Y31500000D03*
X-96500000Y-16000000D03*
X-96500000Y15500000D03*
X-96500000Y47500000D03*
X-96500000Y-33000000D03*
%TO.N,/Vs*%
X25000000Y16500000D03*
%TO.N,/Cs*%
X25000000Y20000000D03*
%TO.N,/Bo*%
X26000000Y35000000D03*
%TD*%
D18*
%TO.N,+12V*%
X-96500000Y17019998D02*
X-96500000Y31500000D01*
X-96500000Y13519998D02*
X-96500000Y15500000D01*
X-96500000Y15500000D02*
X-96500000Y17019998D01*
X-96500000Y46934315D02*
X-96500000Y47500000D01*
X-96500000Y31500000D02*
X-96500000Y46934315D01*
D19*
X-96500000Y-33000000D02*
X-96500000Y-16000000D01*
X-96500000Y0D02*
X-96500000Y15500000D01*
X-96500000Y0D02*
X-96500000Y-16000000D01*
D20*
%TO.N,/Vs*%
X28740000Y16500000D02*
X30000000Y15240000D01*
X25000000Y16500000D02*
X28740000Y16500000D01*
%TO.N,/Cs*%
X25000000Y20000000D02*
X26000000Y19000000D01*
X28780000Y19000000D02*
X30000000Y17780000D01*
X26000000Y19000000D02*
X28780000Y19000000D01*
D21*
%TO.N,/Bo*%
X28849999Y31330003D02*
X28180002Y32000000D01*
X30000000Y27940000D02*
X28849999Y29090001D01*
X28849999Y29090001D02*
X28849999Y31330003D01*
D18*
X28180002Y32819998D02*
X26000000Y35000000D01*
X28180002Y32000000D02*
X28180002Y32819998D01*
%TD*%
%TA.AperFunction,Conductor*%
%TO.N,GNDA*%
G36*
X29574075Y-30267007D02*
G01*
X29540000Y-30394174D01*
X29540000Y-30525826D01*
X29574075Y-30652993D01*
X29609297Y-30714000D01*
X27930703Y-30714000D01*
X27965925Y-30652993D01*
X28000000Y-30525826D01*
X28000000Y-30394174D01*
X27965925Y-30267007D01*
X27930703Y-30206000D01*
X29609297Y-30206000D01*
X29574075Y-30267007D01*
G37*
%TD.AperFunction*%
%TA.AperFunction,Conductor*%
G36*
X27754000Y-30029297D02*
G01*
X27692993Y-29994075D01*
X27565826Y-29960000D01*
X27434174Y-29960000D01*
X27307007Y-29994075D01*
X27246000Y-30029297D01*
X27246000Y-28350702D01*
X27307007Y-28385925D01*
X27434174Y-28420000D01*
X27565826Y-28420000D01*
X27692993Y-28385925D01*
X27754000Y-28350702D01*
X27754000Y-30029297D01*
G37*
%TD.AperFunction*%
%TA.AperFunction,Conductor*%
G36*
X27754000Y5530703D02*
G01*
X27692993Y5565925D01*
X27565826Y5600000D01*
X27434174Y5600000D01*
X27307007Y5565925D01*
X27246000Y5530703D01*
X27246000Y7209298D01*
X27307007Y7174075D01*
X27434174Y7140000D01*
X27565826Y7140000D01*
X27692993Y7174075D01*
X27754000Y7209298D01*
X27754000Y5530703D01*
G37*
%TD.AperFunction*%
%TA.AperFunction,Conductor*%
G36*
X27696121Y16104498D02*
G01*
X27742614Y16050842D01*
X27754000Y15998500D01*
X27754000Y15690703D01*
X27692993Y15725925D01*
X27565826Y15760000D01*
X27434174Y15760000D01*
X27307007Y15725925D01*
X27246000Y15690703D01*
X27246000Y15998500D01*
X27266002Y16066621D01*
X27319658Y16113114D01*
X27372000Y16124500D01*
X27628000Y16124500D01*
X27696121Y16104498D01*
G37*
%TD.AperFunction*%
%TA.AperFunction,Conductor*%
G36*
X27754000Y17001500D02*
G01*
X27733998Y16933379D01*
X27680342Y16886886D01*
X27628000Y16875500D01*
X27372000Y16875500D01*
X27303879Y16895502D01*
X27257386Y16949158D01*
X27246000Y17001500D01*
X27246000Y17369298D01*
X27307007Y17334075D01*
X27434174Y17300000D01*
X27565826Y17300000D01*
X27692993Y17334075D01*
X27754000Y17369298D01*
X27754000Y17001500D01*
G37*
%TD.AperFunction*%
%TA.AperFunction,Conductor*%
G36*
X27754000Y23310703D02*
G01*
X27692993Y23345925D01*
X27565826Y23380000D01*
X27434174Y23380000D01*
X27307007Y23345925D01*
X27246000Y23310703D01*
X27246000Y24989298D01*
X27307007Y24954075D01*
X27434174Y24920000D01*
X27565826Y24920000D01*
X27692993Y24954075D01*
X27754000Y24989298D01*
X27754000Y23310703D01*
G37*
%TD.AperFunction*%
%TA.AperFunction,Conductor*%
G36*
X27754000Y25850703D02*
G01*
X27692993Y25885925D01*
X27565826Y25920000D01*
X27434174Y25920000D01*
X27307007Y25885925D01*
X27246000Y25850703D01*
X27246000Y27529298D01*
X27307007Y27494075D01*
X27434174Y27460000D01*
X27565826Y27460000D01*
X27692993Y27494075D01*
X27754000Y27529298D01*
X27754000Y25850703D01*
G37*
%TD.AperFunction*%
%TA.AperFunction,Conductor*%
G36*
X27754000Y28390703D02*
G01*
X27692993Y28425925D01*
X27565826Y28460000D01*
X27434174Y28460000D01*
X27307007Y28425925D01*
X27246000Y28390703D01*
X27246000Y30069298D01*
X27307007Y30034075D01*
X27434174Y30000000D01*
X27565826Y30000000D01*
X27692993Y30034075D01*
X27754000Y30069298D01*
X27754000Y28390703D01*
G37*
%TD.AperFunction*%
%TA.AperFunction,Conductor*%
G36*
X33942121Y63979998D02*
G01*
X33988614Y63926342D01*
X34000000Y63874000D01*
X34000000Y-63874000D01*
X33979998Y-63942121D01*
X33926342Y-63988614D01*
X33874000Y-64000000D01*
X-133874000Y-64000000D01*
X-133942121Y-63979998D01*
X-133988614Y-63926342D01*
X-134000000Y-63874000D01*
X-134000000Y-57704631D01*
X-133979998Y-57636510D01*
X-133926342Y-57590017D01*
X-133906616Y-57582926D01*
X-133686337Y-57523903D01*
X-133472170Y-57424035D01*
X-133278599Y-57288495D01*
X-133111505Y-57121401D01*
X-132975965Y-56927830D01*
X-132876097Y-56713663D01*
X-132876096Y-56713661D01*
X-132814937Y-56485411D01*
X-132794341Y-56250000D01*
X-132814937Y-56014588D01*
X-132876096Y-55786338D01*
X-132876098Y-55786334D01*
X-132975966Y-55572167D01*
X-133111424Y-55378712D01*
X-116850500Y-55378712D01*
X-116850500Y-55621288D01*
X-116818838Y-55861789D01*
X-116756054Y-56096100D01*
X-116663224Y-56320212D01*
X-116541936Y-56530289D01*
X-116394265Y-56722738D01*
X-116222738Y-56894265D01*
X-116030289Y-57041936D01*
X-115820212Y-57163224D01*
X-115596100Y-57256054D01*
X-115361789Y-57318838D01*
X-115361782Y-57318838D01*
X-115361782Y-57318839D01*
X-115338637Y-57321885D01*
X-115121288Y-57350500D01*
X-115121281Y-57350500D01*
X-114878719Y-57350500D01*
X-114878712Y-57350500D01*
X-114700202Y-57326999D01*
X-114638217Y-57318839D01*
X-114638215Y-57318838D01*
X-114638211Y-57318838D01*
X-114403900Y-57256054D01*
X-114179788Y-57163224D01*
X-114179779Y-57163218D01*
X-114179775Y-57163217D01*
X-113969714Y-57041938D01*
X-113969711Y-57041936D01*
X-113777262Y-56894265D01*
X-113777256Y-56894259D01*
X-113777251Y-56894255D01*
X-113605744Y-56722748D01*
X-113605739Y-56722742D01*
X-113605735Y-56722738D01*
X-113458064Y-56530289D01*
X-113458063Y-56530288D01*
X-113458061Y-56530285D01*
X-113336782Y-56320224D01*
X-113336777Y-56320213D01*
X-113336776Y-56320212D01*
X-113243946Y-56096100D01*
X-113243945Y-56096097D01*
X-113243944Y-56096095D01*
X-113181160Y-55861782D01*
X-113149500Y-55621290D01*
X-113149500Y-55378709D01*
X-113181160Y-55138217D01*
X-113243944Y-54903904D01*
X-113243946Y-54903900D01*
X-113336777Y-54679786D01*
X-113336782Y-54679775D01*
X-113458061Y-54469714D01*
X-113605735Y-54277262D01*
X-113605744Y-54277251D01*
X-113777251Y-54105744D01*
X-113777262Y-54105735D01*
X-113969714Y-53958061D01*
X-114179775Y-53836782D01*
X-114179786Y-53836777D01*
X-114299867Y-53787038D01*
X-114403900Y-53743946D01*
X-114403904Y-53743944D01*
X-114638217Y-53681160D01*
X-114878709Y-53649500D01*
X-114878712Y-53649500D01*
X-115121288Y-53649500D01*
X-115121290Y-53649500D01*
X-115361782Y-53681160D01*
X-115596095Y-53743944D01*
X-115596097Y-53743945D01*
X-115596100Y-53743946D01*
X-115820212Y-53836776D01*
X-115820216Y-53836778D01*
X-115820224Y-53836782D01*
X-116030285Y-53958061D01*
X-116030288Y-53958063D01*
X-116030289Y-53958064D01*
X-116222738Y-54105735D01*
X-116222742Y-54105739D01*
X-116222748Y-54105744D01*
X-116394255Y-54277251D01*
X-116394259Y-54277256D01*
X-116394265Y-54277262D01*
X-116541936Y-54469711D01*
X-116541938Y-54469714D01*
X-116663217Y-54679775D01*
X-116663218Y-54679779D01*
X-116663224Y-54679788D01*
X-116756054Y-54903900D01*
X-116818838Y-55138211D01*
X-116850500Y-55378712D01*
X-133111424Y-55378712D01*
X-133111498Y-55378607D01*
X-133111507Y-55378596D01*
X-133278596Y-55211507D01*
X-133278602Y-55211502D01*
X-133472169Y-55075965D01*
X-133686334Y-54976098D01*
X-133686338Y-54976096D01*
X-133814771Y-54941683D01*
X-133906612Y-54917075D01*
X-133967233Y-54880125D01*
X-133998255Y-54816264D01*
X-134000000Y-54795369D01*
X-134000000Y-51745999D01*
X-132995318Y-51745999D01*
X-132995318Y-51746000D01*
X-131650000Y-51746000D01*
X-131650000Y-52254000D01*
X-132995318Y-52254000D01*
X-132993947Y-52274050D01*
X-132993947Y-52274051D01*
X-132938057Y-52543011D01*
X-132938055Y-52543019D01*
X-132846061Y-52801865D01*
X-132719685Y-53045756D01*
X-132719677Y-53045770D01*
X-132561270Y-53270182D01*
X-132373771Y-53470944D01*
X-132373763Y-53470951D01*
X-132160674Y-53644312D01*
X-131925969Y-53787038D01*
X-131674010Y-53896480D01*
X-131409490Y-53970595D01*
X-131254001Y-53991967D01*
X-131254000Y-53991966D01*
X-131254000Y-53198344D01*
X-131189598Y-53225021D01*
X-131064019Y-53250000D01*
X-130935981Y-53250000D01*
X-130810402Y-53225021D01*
X-130746000Y-53198344D01*
X-130746000Y-53991966D01*
X-130745998Y-53991967D01*
X-130590509Y-53970595D01*
X-130325989Y-53896480D01*
X-130074030Y-53787038D01*
X-129839325Y-53644312D01*
X-129626236Y-53470951D01*
X-129626228Y-53470944D01*
X-129438729Y-53270182D01*
X-129280322Y-53045770D01*
X-129280314Y-53045756D01*
X-129153938Y-52801865D01*
X-129061944Y-52543019D01*
X-129061942Y-52543011D01*
X-129006052Y-52274051D01*
X-129006052Y-52274050D01*
X-129004681Y-52254000D01*
X-130350000Y-52254000D01*
X-130350000Y-52000000D01*
X-128255408Y-52000000D01*
X-128235802Y-52261630D01*
X-128177420Y-52517416D01*
X-128081568Y-52761643D01*
X-127950386Y-52988857D01*
X-127786805Y-53193981D01*
X-127594479Y-53372433D01*
X-127377704Y-53520228D01*
X-127141323Y-53634063D01*
X-127141316Y-53634064D01*
X-127141314Y-53634066D01*
X-126890619Y-53711395D01*
X-126890617Y-53711395D01*
X-126890615Y-53711396D01*
X-126631182Y-53750500D01*
X-126631177Y-53750500D01*
X-126368823Y-53750500D01*
X-126368818Y-53750500D01*
X-126109385Y-53711396D01*
X-126109383Y-53711395D01*
X-126109380Y-53711395D01*
X-125858685Y-53634066D01*
X-125858672Y-53634061D01*
X-125758570Y-53585854D01*
X-125622296Y-53520228D01*
X-125622293Y-53520226D01*
X-125622286Y-53520222D01*
X-125405527Y-53372437D01*
X-125405521Y-53372433D01*
X-125213195Y-53193981D01*
X-125049614Y-52988857D01*
X-125049613Y-52988856D01*
X-125049611Y-52988853D01*
X-124918433Y-52761647D01*
X-124918430Y-52761639D01*
X-124822581Y-52517419D01*
X-124822580Y-52517417D01*
X-124764198Y-52261633D01*
X-124744592Y-52000000D01*
X-124764198Y-51738366D01*
X-124822580Y-51482582D01*
X-124822581Y-51482580D01*
X-124918430Y-51238360D01*
X-124918433Y-51238352D01*
X-125049611Y-51011146D01*
X-125213195Y-50806018D01*
X-125405522Y-50627566D01*
X-125405527Y-50627562D01*
X-125622286Y-50479777D01*
X-125622293Y-50479773D01*
X-125858672Y-50365938D01*
X-125858685Y-50365933D01*
X-126109380Y-50288604D01*
X-126239101Y-50269052D01*
X-126368818Y-50249500D01*
X-126631182Y-50249500D01*
X-126775311Y-50271224D01*
X-126890619Y-50288604D01*
X-127141314Y-50365933D01*
X-127141327Y-50365938D01*
X-127377706Y-50479773D01*
X-127377713Y-50479777D01*
X-127594472Y-50627562D01*
X-127594479Y-50627567D01*
X-127786805Y-50806019D01*
X-127905009Y-50954243D01*
X-127950388Y-51011146D01*
X-128081566Y-51238352D01*
X-128081567Y-51238356D01*
X-128081568Y-51238357D01*
X-128177420Y-51482584D01*
X-128235802Y-51738370D01*
X-128255408Y-52000000D01*
X-130350000Y-52000000D01*
X-130350000Y-51746000D01*
X-129004682Y-51746000D01*
X-129004681Y-51745999D01*
X-129006052Y-51725949D01*
X-129006052Y-51725948D01*
X-129061942Y-51456988D01*
X-129061944Y-51456980D01*
X-129153938Y-51198134D01*
X-129280314Y-50954243D01*
X-129280322Y-50954229D01*
X-129438729Y-50729817D01*
X-129626228Y-50529055D01*
X-129626236Y-50529048D01*
X-129839325Y-50355687D01*
X-130074030Y-50212961D01*
X-130325989Y-50103519D01*
X-130590509Y-50029404D01*
X-130745999Y-50008031D01*
X-130746000Y-50008032D01*
X-130746000Y-50801655D01*
X-130810402Y-50774979D01*
X-130935981Y-50750000D01*
X-131064019Y-50750000D01*
X-131189598Y-50774979D01*
X-131254000Y-50801655D01*
X-131254000Y-50008031D01*
X-131409488Y-50029404D01*
X-131409492Y-50029404D01*
X-131674010Y-50103519D01*
X-131925969Y-50212961D01*
X-132160674Y-50355687D01*
X-132373763Y-50529048D01*
X-132373771Y-50529055D01*
X-132561270Y-50729817D01*
X-132719677Y-50954229D01*
X-132719685Y-50954243D01*
X-132846061Y-51198134D01*
X-132938055Y-51456980D01*
X-132938057Y-51456988D01*
X-132993947Y-51725948D01*
X-132993947Y-51725949D01*
X-132995318Y-51745999D01*
X-134000000Y-51745999D01*
X-134000000Y-49204631D01*
X-133979998Y-49136510D01*
X-133926342Y-49090017D01*
X-133906616Y-49082926D01*
X-133686337Y-49023903D01*
X-133472170Y-48924035D01*
X-133278599Y-48788495D01*
X-133111505Y-48621401D01*
X-132975965Y-48427830D01*
X-132876097Y-48213663D01*
X-132876096Y-48213661D01*
X-132814937Y-47985411D01*
X-132794341Y-47750000D01*
X-132814937Y-47514588D01*
X-132876096Y-47286338D01*
X-132876098Y-47286334D01*
X-132975966Y-47072167D01*
X-133111498Y-46878607D01*
X-133111507Y-46878596D01*
X-133278596Y-46711507D01*
X-133278602Y-46711502D01*
X-133472169Y-46575965D01*
X-133686334Y-46476098D01*
X-133686338Y-46476096D01*
X-133814771Y-46441683D01*
X-133906612Y-46417075D01*
X-133967233Y-46380125D01*
X-133998255Y-46316264D01*
X-134000000Y-46295369D01*
X-134000000Y-44704631D01*
X-133979998Y-44636510D01*
X-133926342Y-44590017D01*
X-133906616Y-44582926D01*
X-133686337Y-44523903D01*
X-133472170Y-44424035D01*
X-133278599Y-44288495D01*
X-133111505Y-44121401D01*
X-132975965Y-43927830D01*
X-132876097Y-43713663D01*
X-132876096Y-43713661D01*
X-132814937Y-43485411D01*
X-132794341Y-43250000D01*
X-132814937Y-43014588D01*
X-132876096Y-42786338D01*
X-132876098Y-42786334D01*
X-132975966Y-42572167D01*
X-133111498Y-42378607D01*
X-133111507Y-42378596D01*
X-133278596Y-42211507D01*
X-133278602Y-42211502D01*
X-133472169Y-42075965D01*
X-133686334Y-41976098D01*
X-133686338Y-41976096D01*
X-133814771Y-41941683D01*
X-133906612Y-41917075D01*
X-133967233Y-41880125D01*
X-133998255Y-41816264D01*
X-134000000Y-41795369D01*
X-134000000Y-38745999D01*
X-132995318Y-38745999D01*
X-132995318Y-38746000D01*
X-131650000Y-38746000D01*
X-131650000Y-39254000D01*
X-132995318Y-39254000D01*
X-132993947Y-39274050D01*
X-132993947Y-39274051D01*
X-132938057Y-39543011D01*
X-132938055Y-39543019D01*
X-132846061Y-39801865D01*
X-132719685Y-40045756D01*
X-132719677Y-40045770D01*
X-132561270Y-40270182D01*
X-132373771Y-40470944D01*
X-132373763Y-40470951D01*
X-132160674Y-40644312D01*
X-131925969Y-40787038D01*
X-131674010Y-40896480D01*
X-131409490Y-40970595D01*
X-131254001Y-40991967D01*
X-131254000Y-40991966D01*
X-131254000Y-40198344D01*
X-131189598Y-40225021D01*
X-131064019Y-40250000D01*
X-130935981Y-40250000D01*
X-130810402Y-40225021D01*
X-130746000Y-40198344D01*
X-130746000Y-40991966D01*
X-130745998Y-40991967D01*
X-130590509Y-40970595D01*
X-130325989Y-40896480D01*
X-130074030Y-40787038D01*
X-129839325Y-40644312D01*
X-129626236Y-40470951D01*
X-129626228Y-40470944D01*
X-129438729Y-40270182D01*
X-129280322Y-40045770D01*
X-129280314Y-40045756D01*
X-129153938Y-39801865D01*
X-129061944Y-39543019D01*
X-129061942Y-39543011D01*
X-129006052Y-39274051D01*
X-129006052Y-39274050D01*
X-129004681Y-39254000D01*
X-130350000Y-39254000D01*
X-130350000Y-39000000D01*
X-128255408Y-39000000D01*
X-128235802Y-39261630D01*
X-128177420Y-39517416D01*
X-128081568Y-39761643D01*
X-127950386Y-39988857D01*
X-127786805Y-40193981D01*
X-127594479Y-40372433D01*
X-127377704Y-40520228D01*
X-127141323Y-40634063D01*
X-127141316Y-40634064D01*
X-127141314Y-40634066D01*
X-126890619Y-40711395D01*
X-126890617Y-40711395D01*
X-126890615Y-40711396D01*
X-126631182Y-40750500D01*
X-126631177Y-40750500D01*
X-126368823Y-40750500D01*
X-126368818Y-40750500D01*
X-126109385Y-40711396D01*
X-126109383Y-40711395D01*
X-126109380Y-40711395D01*
X-125858685Y-40634066D01*
X-125858672Y-40634061D01*
X-125758570Y-40585854D01*
X-125622296Y-40520228D01*
X-125622293Y-40520226D01*
X-125622286Y-40520222D01*
X-125405527Y-40372437D01*
X-125405521Y-40372433D01*
X-125213195Y-40193981D01*
X-125049614Y-39988857D01*
X-125049613Y-39988856D01*
X-125049611Y-39988853D01*
X-124918433Y-39761647D01*
X-124918430Y-39761639D01*
X-124822581Y-39517419D01*
X-124822580Y-39517417D01*
X-124764198Y-39261633D01*
X-124744592Y-39000000D01*
X-124764198Y-38738366D01*
X-124822580Y-38482582D01*
X-124822581Y-38482580D01*
X-124918430Y-38238360D01*
X-124918433Y-38238352D01*
X-125049611Y-38011146D01*
X-125213195Y-37806018D01*
X-125405522Y-37627566D01*
X-125405527Y-37627562D01*
X-125622286Y-37479777D01*
X-125622293Y-37479773D01*
X-125858672Y-37365938D01*
X-125858685Y-37365933D01*
X-126109380Y-37288604D01*
X-126239101Y-37269052D01*
X-126368818Y-37249500D01*
X-126631182Y-37249500D01*
X-126775311Y-37271224D01*
X-126890619Y-37288604D01*
X-127141314Y-37365933D01*
X-127141327Y-37365938D01*
X-127377706Y-37479773D01*
X-127377713Y-37479777D01*
X-127594472Y-37627562D01*
X-127594479Y-37627567D01*
X-127786805Y-37806019D01*
X-127905009Y-37954243D01*
X-127950388Y-38011146D01*
X-128081566Y-38238352D01*
X-128081567Y-38238356D01*
X-128081568Y-38238357D01*
X-128177420Y-38482584D01*
X-128235802Y-38738370D01*
X-128255408Y-39000000D01*
X-130350000Y-39000000D01*
X-130350000Y-38746000D01*
X-129004682Y-38746000D01*
X-129004681Y-38745999D01*
X-129006052Y-38725949D01*
X-129006052Y-38725948D01*
X-129061942Y-38456988D01*
X-129061944Y-38456980D01*
X-129153938Y-38198134D01*
X-129280314Y-37954243D01*
X-129280322Y-37954229D01*
X-129438729Y-37729817D01*
X-129626228Y-37529055D01*
X-129626236Y-37529048D01*
X-129839325Y-37355687D01*
X-130074030Y-37212961D01*
X-130325989Y-37103519D01*
X-130590509Y-37029404D01*
X-130745999Y-37008031D01*
X-130746000Y-37008032D01*
X-130746000Y-37801655D01*
X-130810402Y-37774979D01*
X-130935981Y-37750000D01*
X-131064019Y-37750000D01*
X-131189598Y-37774979D01*
X-131254000Y-37801655D01*
X-131254000Y-37008031D01*
X-131409488Y-37029404D01*
X-131409492Y-37029404D01*
X-131674010Y-37103519D01*
X-131925969Y-37212961D01*
X-132160674Y-37355687D01*
X-132373763Y-37529048D01*
X-132373771Y-37529055D01*
X-132561270Y-37729817D01*
X-132719677Y-37954229D01*
X-132719685Y-37954243D01*
X-132846061Y-38198134D01*
X-132938055Y-38456980D01*
X-132938057Y-38456988D01*
X-132993947Y-38725948D01*
X-132993947Y-38725949D01*
X-132995318Y-38745999D01*
X-134000000Y-38745999D01*
X-134000000Y-36204631D01*
X-133979998Y-36136510D01*
X-133926342Y-36090017D01*
X-133906616Y-36082926D01*
X-133686337Y-36023903D01*
X-133472170Y-35924035D01*
X-133278599Y-35788495D01*
X-133111505Y-35621401D01*
X-132975965Y-35427830D01*
X-132876097Y-35213663D01*
X-132876096Y-35213661D01*
X-132814937Y-34985411D01*
X-132794341Y-34750000D01*
X-132814937Y-34514588D01*
X-132876096Y-34286338D01*
X-132876098Y-34286334D01*
X-132975966Y-34072167D01*
X-133111498Y-33878607D01*
X-133111507Y-33878596D01*
X-133278596Y-33711507D01*
X-133278602Y-33711502D01*
X-133472169Y-33575965D01*
X-133686334Y-33476098D01*
X-133686338Y-33476096D01*
X-133814771Y-33441683D01*
X-133906612Y-33417075D01*
X-133967233Y-33380125D01*
X-133998255Y-33316264D01*
X-134000000Y-33295369D01*
X-134000000Y-24825999D01*
X-124574044Y-24825999D01*
X-124574044Y-24826000D01*
X-123054166Y-24826000D01*
X-123085000Y-24981016D01*
X-123085000Y-25178984D01*
X-123054166Y-25334000D01*
X-124574044Y-25334000D01*
X-124549366Y-25521451D01*
X-124472755Y-25807367D01*
X-124359482Y-26080832D01*
X-124359477Y-26080843D01*
X-124211484Y-26337174D01*
X-124031301Y-26571991D01*
X-124031282Y-26572012D01*
X-123822012Y-26781282D01*
X-123821991Y-26781301D01*
X-123587174Y-26961484D01*
X-123330843Y-27109477D01*
X-123330832Y-27109482D01*
X-123057367Y-27222755D01*
X-122771451Y-27299366D01*
X-122477999Y-27337999D01*
X-122477990Y-27338000D01*
X-122334000Y-27338000D01*
X-122334000Y-26054165D01*
X-122178984Y-26085000D01*
X-121981016Y-26085000D01*
X-121826000Y-26054165D01*
X-121826000Y-27338000D01*
X-121682010Y-27338000D01*
X-121682000Y-27337999D01*
X-121388548Y-27299366D01*
X-121102632Y-27222755D01*
X-120829167Y-27109482D01*
X-120829156Y-27109477D01*
X-120572825Y-26961484D01*
X-120338008Y-26781301D01*
X-120337987Y-26781282D01*
X-120128717Y-26572012D01*
X-120128698Y-26571991D01*
X-119948515Y-26337174D01*
X-119800522Y-26080843D01*
X-119800517Y-26080832D01*
X-119687244Y-25807367D01*
X-119610633Y-25521451D01*
X-119585956Y-25334000D01*
X-121105834Y-25334000D01*
X-121075000Y-25178984D01*
X-121075000Y-24981016D01*
X-121105834Y-24826000D01*
X-119585956Y-24826000D01*
X-119585955Y-24825999D01*
X-119610633Y-24638548D01*
X-119687244Y-24352632D01*
X-119800517Y-24079167D01*
X-119800522Y-24079156D01*
X-119948515Y-23822825D01*
X-120128698Y-23588008D01*
X-120128717Y-23587987D01*
X-120337987Y-23378717D01*
X-120338008Y-23378698D01*
X-120572825Y-23198515D01*
X-120829156Y-23050522D01*
X-120829167Y-23050517D01*
X-121102632Y-22937244D01*
X-121388548Y-22860633D01*
X-121682000Y-22822000D01*
X-121826000Y-22822000D01*
X-121826000Y-24105834D01*
X-121981016Y-24075000D01*
X-122178984Y-24075000D01*
X-122334000Y-24105834D01*
X-122334000Y-22822000D01*
X-122477999Y-22822000D01*
X-122771451Y-22860633D01*
X-123057367Y-22937244D01*
X-123330832Y-23050517D01*
X-123330843Y-23050522D01*
X-123587174Y-23198515D01*
X-123821991Y-23378698D01*
X-123822012Y-23378717D01*
X-124031282Y-23587987D01*
X-124031301Y-23588008D01*
X-124211484Y-23822825D01*
X-124359477Y-24079156D01*
X-124359482Y-24079167D01*
X-124472755Y-24352632D01*
X-124549366Y-24638548D01*
X-124574044Y-24825999D01*
X-134000000Y-24825999D01*
X-134000000Y-22286000D01*
X-118734074Y-22286000D01*
X-117367195Y-22286000D01*
X-117414674Y-22368236D01*
X-117445000Y-22481415D01*
X-117445000Y-22598585D01*
X-117414674Y-22711764D01*
X-117367195Y-22794000D01*
X-118734074Y-22794000D01*
X-118725791Y-22846295D01*
X-118662173Y-23042093D01*
X-118662170Y-23042099D01*
X-118568699Y-23225545D01*
X-118447684Y-23392107D01*
X-118447682Y-23392110D01*
X-118302110Y-23537682D01*
X-118302107Y-23537684D01*
X-118135545Y-23658699D01*
X-117952099Y-23752170D01*
X-117952093Y-23752173D01*
X-117756294Y-23815791D01*
X-117756298Y-23815791D01*
X-117552939Y-23848000D01*
X-117254000Y-23848000D01*
X-117254000Y-22907194D01*
X-117171764Y-22954674D01*
X-117058585Y-22985000D01*
X-116941415Y-22985000D01*
X-116828236Y-22954674D01*
X-116746000Y-22907194D01*
X-116746000Y-23848000D01*
X-116447061Y-23848000D01*
X-116243703Y-23815791D01*
X-116047906Y-23752173D01*
X-116047900Y-23752170D01*
X-115864454Y-23658699D01*
X-115697892Y-23537684D01*
X-115697889Y-23537682D01*
X-115552317Y-23392110D01*
X-115552315Y-23392107D01*
X-115431300Y-23225545D01*
X-115337829Y-23042099D01*
X-115337826Y-23042093D01*
X-115274208Y-22846295D01*
X-115265926Y-22794000D01*
X-116632805Y-22794000D01*
X-116585326Y-22711764D01*
X-116555000Y-22598585D01*
X-116555000Y-22481415D01*
X-116585326Y-22368236D01*
X-116632805Y-22286000D01*
X-115265926Y-22286000D01*
X-115274208Y-22233704D01*
X-115337826Y-22037906D01*
X-115337829Y-22037900D01*
X-115431300Y-21854454D01*
X-115552315Y-21687892D01*
X-115552317Y-21687889D01*
X-115697889Y-21542317D01*
X-115697892Y-21542315D01*
X-115864454Y-21421300D01*
X-116047900Y-21327829D01*
X-116047906Y-21327826D01*
X-116243705Y-21264208D01*
X-116243708Y-21264207D01*
X-116257862Y-21261965D01*
X-116322014Y-21231551D01*
X-116359539Y-21171281D01*
X-116358523Y-21100292D01*
X-116319288Y-21041121D01*
X-116262728Y-21013938D01*
X-116243580Y-21010130D01*
X-116052402Y-20930941D01*
X-115880345Y-20815977D01*
X-115880343Y-20815975D01*
X-115880337Y-20815970D01*
X-115734029Y-20669662D01*
X-115734024Y-20669656D01*
X-115622725Y-20503084D01*
X-115619059Y-20497598D01*
X-115539870Y-20306420D01*
X-115499500Y-20103465D01*
X-115499500Y-19896535D01*
X-115499500Y-19896532D01*
X-115539870Y-19693579D01*
X-115539872Y-19693574D01*
X-115619059Y-19502402D01*
X-115734024Y-19330343D01*
X-115734029Y-19330337D01*
X-115880337Y-19184029D01*
X-115880343Y-19184024D01*
X-116052402Y-19069059D01*
X-116243574Y-18989872D01*
X-116243579Y-18989870D01*
X-116446532Y-18949500D01*
X-116446535Y-18949500D01*
X-117553465Y-18949500D01*
X-117553467Y-18949500D01*
X-117756420Y-18989870D01*
X-117947598Y-19069059D01*
X-118119655Y-19184023D01*
X-118119656Y-19184024D01*
X-118119662Y-19184029D01*
X-118265970Y-19330337D01*
X-118265975Y-19330343D01*
X-118265977Y-19330345D01*
X-118380941Y-19502402D01*
X-118460130Y-19693580D01*
X-118500500Y-19896535D01*
X-118500500Y-20103465D01*
X-118460130Y-20306420D01*
X-118380941Y-20497598D01*
X-118265977Y-20669655D01*
X-118119655Y-20815977D01*
X-117947598Y-20930941D01*
X-117756420Y-21010130D01*
X-117737271Y-21013938D01*
X-117674363Y-21046844D01*
X-117639230Y-21108538D01*
X-117643028Y-21179433D01*
X-117684552Y-21237020D01*
X-117742138Y-21261965D01*
X-117756290Y-21264206D01*
X-117756294Y-21264208D01*
X-117952093Y-21327826D01*
X-117952099Y-21327829D01*
X-118135545Y-21421300D01*
X-118302107Y-21542315D01*
X-118302110Y-21542317D01*
X-118447682Y-21687889D01*
X-118447684Y-21687892D01*
X-118568699Y-21854454D01*
X-118662170Y-22037900D01*
X-118662173Y-22037906D01*
X-118725791Y-22233704D01*
X-118734074Y-22286000D01*
X-134000000Y-22286000D01*
X-134000000Y-14665999D01*
X-124574044Y-14665999D01*
X-124574044Y-14666000D01*
X-123054166Y-14666000D01*
X-123085000Y-14821016D01*
X-123085000Y-15018984D01*
X-123054166Y-15174000D01*
X-124574044Y-15174000D01*
X-124549366Y-15361451D01*
X-124472755Y-15647367D01*
X-124359482Y-15920832D01*
X-124359477Y-15920843D01*
X-124211484Y-16177174D01*
X-124031301Y-16411991D01*
X-124031282Y-16412012D01*
X-123822012Y-16621282D01*
X-123821991Y-16621301D01*
X-123587174Y-16801484D01*
X-123330843Y-16949477D01*
X-123330832Y-16949482D01*
X-123057367Y-17062755D01*
X-122771451Y-17139366D01*
X-122477999Y-17177999D01*
X-122477990Y-17178000D01*
X-122334000Y-17178000D01*
X-122334000Y-15894165D01*
X-122178984Y-15925000D01*
X-121981016Y-15925000D01*
X-121826000Y-15894165D01*
X-121826000Y-17178000D01*
X-121682010Y-17178000D01*
X-121682000Y-17177999D01*
X-121388548Y-17139366D01*
X-121102632Y-17062755D01*
X-120829167Y-16949482D01*
X-120829156Y-16949477D01*
X-120572825Y-16801484D01*
X-120338008Y-16621301D01*
X-120337987Y-16621282D01*
X-120128717Y-16412012D01*
X-120128698Y-16411991D01*
X-119948515Y-16177174D01*
X-119800522Y-15920843D01*
X-119800517Y-15920832D01*
X-119687244Y-15647367D01*
X-119610633Y-15361451D01*
X-119585956Y-15174000D01*
X-121105834Y-15174000D01*
X-121075000Y-15018984D01*
X-121075000Y-14821016D01*
X-121105834Y-14666000D01*
X-119585956Y-14666000D01*
X-119585955Y-14665999D01*
X-119610633Y-14478548D01*
X-119687244Y-14192632D01*
X-119800517Y-13919167D01*
X-119800522Y-13919156D01*
X-119948515Y-13662825D01*
X-120128698Y-13428008D01*
X-120128717Y-13427987D01*
X-120337987Y-13218717D01*
X-120338008Y-13218698D01*
X-120572825Y-13038515D01*
X-120829156Y-12890522D01*
X-120829167Y-12890517D01*
X-121102632Y-12777244D01*
X-121388548Y-12700633D01*
X-121682000Y-12662000D01*
X-121826000Y-12662000D01*
X-121826000Y-13945834D01*
X-121981016Y-13915000D01*
X-122178984Y-13915000D01*
X-122334000Y-13945834D01*
X-122334000Y-12662000D01*
X-122477999Y-12662000D01*
X-122771451Y-12700633D01*
X-123057367Y-12777244D01*
X-123330832Y-12890517D01*
X-123330843Y-12890522D01*
X-123587174Y-13038515D01*
X-123821991Y-13218698D01*
X-123822012Y-13218717D01*
X-124031282Y-13427987D01*
X-124031301Y-13428008D01*
X-124211484Y-13662825D01*
X-124359477Y-13919156D01*
X-124359482Y-13919167D01*
X-124472755Y-14192632D01*
X-124549366Y-14478548D01*
X-124574044Y-14665999D01*
X-134000000Y-14665999D01*
X-134000000Y-8825999D01*
X-124574044Y-8825999D01*
X-124574044Y-8826000D01*
X-123054166Y-8826000D01*
X-123085000Y-8981016D01*
X-123085000Y-9178984D01*
X-123054166Y-9334000D01*
X-124574044Y-9334000D01*
X-124549366Y-9521451D01*
X-124472755Y-9807367D01*
X-124359482Y-10080832D01*
X-124359477Y-10080843D01*
X-124211484Y-10337174D01*
X-124031301Y-10571991D01*
X-124031282Y-10572012D01*
X-123822012Y-10781282D01*
X-123821991Y-10781301D01*
X-123587174Y-10961484D01*
X-123330843Y-11109477D01*
X-123330832Y-11109482D01*
X-123057367Y-11222755D01*
X-122771451Y-11299366D01*
X-122477999Y-11337999D01*
X-122477990Y-11338000D01*
X-122334000Y-11338000D01*
X-122334000Y-10054165D01*
X-122178984Y-10085000D01*
X-121981016Y-10085000D01*
X-121826000Y-10054165D01*
X-121826000Y-11338000D01*
X-121682010Y-11338000D01*
X-121682000Y-11337999D01*
X-121388548Y-11299366D01*
X-121102632Y-11222755D01*
X-120829167Y-11109482D01*
X-120829156Y-11109477D01*
X-120572825Y-10961484D01*
X-120338008Y-10781301D01*
X-120337987Y-10781282D01*
X-120128717Y-10572012D01*
X-120128698Y-10571991D01*
X-119948515Y-10337174D01*
X-119800522Y-10080843D01*
X-119800517Y-10080832D01*
X-119687244Y-9807367D01*
X-119610633Y-9521451D01*
X-119585956Y-9334000D01*
X-121105834Y-9334000D01*
X-121075000Y-9178984D01*
X-121075000Y-8981016D01*
X-121105834Y-8826000D01*
X-119585956Y-8826000D01*
X-119585955Y-8825999D01*
X-119610633Y-8638548D01*
X-119687244Y-8352632D01*
X-119800517Y-8079167D01*
X-119800522Y-8079156D01*
X-119948515Y-7822825D01*
X-120128698Y-7588008D01*
X-120128717Y-7587987D01*
X-120337987Y-7378717D01*
X-120338008Y-7378698D01*
X-120572825Y-7198515D01*
X-120829156Y-7050522D01*
X-120829167Y-7050517D01*
X-121102632Y-6937244D01*
X-121388548Y-6860633D01*
X-121682000Y-6822000D01*
X-121826000Y-6822000D01*
X-121826000Y-8105834D01*
X-121981016Y-8075000D01*
X-122178984Y-8075000D01*
X-122334000Y-8105834D01*
X-122334000Y-6822000D01*
X-122477999Y-6822000D01*
X-122771451Y-6860633D01*
X-123057367Y-6937244D01*
X-123330832Y-7050517D01*
X-123330843Y-7050522D01*
X-123587174Y-7198515D01*
X-123821991Y-7378698D01*
X-123822012Y-7378717D01*
X-124031282Y-7587987D01*
X-124031301Y-7588008D01*
X-124211484Y-7822825D01*
X-124359477Y-8079156D01*
X-124359482Y-8079167D01*
X-124472755Y-8352632D01*
X-124549366Y-8638548D01*
X-124574044Y-8825999D01*
X-134000000Y-8825999D01*
X-134000000Y-6286000D01*
X-118734074Y-6286000D01*
X-117367195Y-6286000D01*
X-117414674Y-6368236D01*
X-117445000Y-6481415D01*
X-117445000Y-6598585D01*
X-117414674Y-6711764D01*
X-117367195Y-6794000D01*
X-118734074Y-6794000D01*
X-118725791Y-6846295D01*
X-118662173Y-7042093D01*
X-118662170Y-7042099D01*
X-118568699Y-7225545D01*
X-118447684Y-7392107D01*
X-118447682Y-7392110D01*
X-118302110Y-7537682D01*
X-118302107Y-7537684D01*
X-118135545Y-7658699D01*
X-117952099Y-7752170D01*
X-117952093Y-7752173D01*
X-117756294Y-7815791D01*
X-117756298Y-7815791D01*
X-117552939Y-7848000D01*
X-117254000Y-7848000D01*
X-117254000Y-6907194D01*
X-117171764Y-6954674D01*
X-117058585Y-6985000D01*
X-116941415Y-6985000D01*
X-116828236Y-6954674D01*
X-116746000Y-6907194D01*
X-116746000Y-7848000D01*
X-116447061Y-7848000D01*
X-116243703Y-7815791D01*
X-116047906Y-7752173D01*
X-116047900Y-7752170D01*
X-115864454Y-7658699D01*
X-115697892Y-7537684D01*
X-115697889Y-7537682D01*
X-115552317Y-7392110D01*
X-115552315Y-7392107D01*
X-115431300Y-7225545D01*
X-115337829Y-7042099D01*
X-115337826Y-7042093D01*
X-115274208Y-6846295D01*
X-115265926Y-6794000D01*
X-116632805Y-6794000D01*
X-116585326Y-6711764D01*
X-116555000Y-6598585D01*
X-116555000Y-6481415D01*
X-116585326Y-6368236D01*
X-116632805Y-6286000D01*
X-115265926Y-6286000D01*
X-115274208Y-6233704D01*
X-115337826Y-6037906D01*
X-115337829Y-6037900D01*
X-115431300Y-5854454D01*
X-115552315Y-5687892D01*
X-115552317Y-5687889D01*
X-115697889Y-5542317D01*
X-115697892Y-5542315D01*
X-115864454Y-5421300D01*
X-116047900Y-5327829D01*
X-116047906Y-5327826D01*
X-116243705Y-5264208D01*
X-116243708Y-5264207D01*
X-116257862Y-5261965D01*
X-116322014Y-5231551D01*
X-116359539Y-5171281D01*
X-116358523Y-5100292D01*
X-116319288Y-5041121D01*
X-116262728Y-5013938D01*
X-116243580Y-5010130D01*
X-116052402Y-4930941D01*
X-115880345Y-4815977D01*
X-115880343Y-4815975D01*
X-115880337Y-4815970D01*
X-115734029Y-4669662D01*
X-115734024Y-4669656D01*
X-115734023Y-4669655D01*
X-115619059Y-4497598D01*
X-115539870Y-4306420D01*
X-115529235Y-4252955D01*
X-115499500Y-4103467D01*
X-115499500Y-3896532D01*
X-115539870Y-3693579D01*
X-115539872Y-3693574D01*
X-115619059Y-3502402D01*
X-115734024Y-3330343D01*
X-115734029Y-3330337D01*
X-115880337Y-3184029D01*
X-115880343Y-3184024D01*
X-116052402Y-3069059D01*
X-116243574Y-2989872D01*
X-116243579Y-2989870D01*
X-116446532Y-2949500D01*
X-116446535Y-2949500D01*
X-117553465Y-2949500D01*
X-117553467Y-2949500D01*
X-117756420Y-2989870D01*
X-117947598Y-3069059D01*
X-118119655Y-3184023D01*
X-118119656Y-3184024D01*
X-118119662Y-3184029D01*
X-118265970Y-3330337D01*
X-118265975Y-3330343D01*
X-118265977Y-3330345D01*
X-118380941Y-3502402D01*
X-118460130Y-3693580D01*
X-118500500Y-3896535D01*
X-118500500Y-4103465D01*
X-118460130Y-4306420D01*
X-118380941Y-4497598D01*
X-118265977Y-4669655D01*
X-118119655Y-4815977D01*
X-117947598Y-4930941D01*
X-117756420Y-5010130D01*
X-117737271Y-5013938D01*
X-117674363Y-5046844D01*
X-117639230Y-5108538D01*
X-117643028Y-5179433D01*
X-117684552Y-5237020D01*
X-117742138Y-5261965D01*
X-117756290Y-5264206D01*
X-117756294Y-5264208D01*
X-117952093Y-5327826D01*
X-117952099Y-5327829D01*
X-118135545Y-5421300D01*
X-118302107Y-5542315D01*
X-118302110Y-5542317D01*
X-118447682Y-5687889D01*
X-118447684Y-5687892D01*
X-118568699Y-5854454D01*
X-118662170Y-6037900D01*
X-118662173Y-6037906D01*
X-118725791Y-6233704D01*
X-118734074Y-6286000D01*
X-134000000Y-6286000D01*
X-134000000Y-5243639D01*
X-133979998Y-5175518D01*
X-133926342Y-5129025D01*
X-133865762Y-5117909D01*
X-133645572Y-5132341D01*
X-133600003Y-5135329D01*
X-133600000Y-5135329D01*
X-133599997Y-5135329D01*
X-133473837Y-5127059D01*
X-133305620Y-5116034D01*
X-133016278Y-5058481D01*
X-132736923Y-4963652D01*
X-132472335Y-4833172D01*
X-132227616Y-4669656D01*
X-132227044Y-4669274D01*
X-132202746Y-4647965D01*
X-132005242Y-4474758D01*
X-131810727Y-4252957D01*
X-131810725Y-4252955D01*
X-131646826Y-4007662D01*
X-131516351Y-3743083D01*
X-131516348Y-3743077D01*
X-131462017Y-3583024D01*
X-131421520Y-3463727D01*
X-131421518Y-3463720D01*
X-131363968Y-3174393D01*
X-131363965Y-3174375D01*
X-131344671Y-2880003D01*
X-131344671Y-2879996D01*
X-131363965Y-2585624D01*
X-131363968Y-2585606D01*
X-131421518Y-2296279D01*
X-131421520Y-2296272D01*
X-131516347Y-2016923D01*
X-131646826Y-1752338D01*
X-131810721Y-1507050D01*
X-131850695Y-1461469D01*
X-132005242Y-1285242D01*
X-132070648Y-1227882D01*
X-132227044Y-1090725D01*
X-132472337Y-926826D01*
X-132736916Y-796351D01*
X-132736920Y-796349D01*
X-132736923Y-796348D01*
X-132741789Y-794695D01*
X-133016272Y-701520D01*
X-133016279Y-701518D01*
X-133305606Y-643968D01*
X-133305624Y-643965D01*
X-133599997Y-624671D01*
X-133600003Y-624671D01*
X-133865759Y-642090D01*
X-133935042Y-626586D01*
X-133984945Y-576087D01*
X-134000000Y-516360D01*
X-134000000Y1334001D01*
X-124574044Y1334001D01*
X-124574044Y1334000D01*
X-123054166Y1334000D01*
X-123085000Y1178984D01*
X-123085000Y981016D01*
X-123054166Y826000D01*
X-124574044Y826000D01*
X-124549366Y638549D01*
X-124472755Y352633D01*
X-124359482Y79168D01*
X-124359477Y79157D01*
X-124211484Y-177174D01*
X-124031301Y-411991D01*
X-124031282Y-412012D01*
X-123822012Y-621282D01*
X-123821991Y-621301D01*
X-123587174Y-801484D01*
X-123330843Y-949477D01*
X-123330832Y-949482D01*
X-123057367Y-1062755D01*
X-122771451Y-1139366D01*
X-122477999Y-1177999D01*
X-122477990Y-1178000D01*
X-122334000Y-1178000D01*
X-122334000Y105835D01*
X-122178984Y75000D01*
X-121981016Y75000D01*
X-121826000Y105835D01*
X-121826000Y-1178000D01*
X-121682010Y-1178000D01*
X-121682000Y-1177999D01*
X-121388548Y-1139366D01*
X-121102632Y-1062755D01*
X-120829167Y-949482D01*
X-120829156Y-949477D01*
X-120572825Y-801484D01*
X-120338008Y-621301D01*
X-120337987Y-621282D01*
X-120128717Y-412012D01*
X-120128698Y-411991D01*
X-119948515Y-177174D01*
X-119800522Y79157D01*
X-119800517Y79168D01*
X-119687244Y352633D01*
X-119610633Y638549D01*
X-119585956Y826000D01*
X-121105834Y826000D01*
X-121075000Y981016D01*
X-121075000Y1178984D01*
X-121105834Y1334000D01*
X-119585956Y1334000D01*
X-119585955Y1334001D01*
X-119610633Y1521452D01*
X-119687244Y1807368D01*
X-119800517Y2080833D01*
X-119800522Y2080844D01*
X-119948515Y2337175D01*
X-120128698Y2571992D01*
X-120128717Y2572013D01*
X-120337987Y2781283D01*
X-120338008Y2781302D01*
X-120572825Y2961485D01*
X-120829156Y3109478D01*
X-120829167Y3109483D01*
X-121102632Y3222756D01*
X-121388548Y3299367D01*
X-121682000Y3338000D01*
X-121826000Y3338000D01*
X-121826000Y2054166D01*
X-121981016Y2085000D01*
X-122178984Y2085000D01*
X-122334000Y2054166D01*
X-122334000Y3338000D01*
X-122477999Y3338000D01*
X-122771451Y3299367D01*
X-123057367Y3222756D01*
X-123330832Y3109483D01*
X-123330843Y3109478D01*
X-123587174Y2961485D01*
X-123821991Y2781302D01*
X-123822012Y2781283D01*
X-124031282Y2572013D01*
X-124031301Y2571992D01*
X-124211484Y2337175D01*
X-124359477Y2080844D01*
X-124359482Y2080833D01*
X-124472755Y1807368D01*
X-124549366Y1521452D01*
X-124574044Y1334001D01*
X-134000000Y1334001D01*
X-134000000Y4485000D01*
X-127675659Y4485000D01*
X-127655063Y4249592D01*
X-127593903Y4021337D01*
X-127494035Y3807170D01*
X-127358495Y3613599D01*
X-127191401Y3446505D01*
X-126997830Y3310965D01*
X-126783663Y3211097D01*
X-126555408Y3149937D01*
X-126320000Y3129341D01*
X-126084592Y3149937D01*
X-125856337Y3211097D01*
X-125642170Y3310965D01*
X-125448599Y3446505D01*
X-125281505Y3613599D01*
X-125278051Y3618531D01*
X-125145965Y3807170D01*
X-125046098Y4021335D01*
X-125046096Y4021339D01*
X-124984937Y4249589D01*
X-124964341Y4485000D01*
X-124984937Y4720412D01*
X-125046096Y4948662D01*
X-125046098Y4948666D01*
X-125145966Y5162833D01*
X-125281498Y5356393D01*
X-125281507Y5356404D01*
X-125448596Y5523493D01*
X-125448602Y5523498D01*
X-125642169Y5659035D01*
X-125856334Y5758902D01*
X-125856338Y5758904D01*
X-126084588Y5820063D01*
X-126320000Y5840659D01*
X-126555411Y5820063D01*
X-126783661Y5758904D01*
X-126783665Y5758902D01*
X-126997832Y5659034D01*
X-127191392Y5523502D01*
X-127191397Y5523498D01*
X-127191401Y5523495D01*
X-127358495Y5356401D01*
X-127358498Y5356397D01*
X-127358501Y5356393D01*
X-127494033Y5162833D01*
X-127494034Y5162830D01*
X-127494035Y5162829D01*
X-127593903Y4948663D01*
X-127655063Y4720408D01*
X-127675659Y4485000D01*
X-134000000Y4485000D01*
X-134000000Y6390000D01*
X-132755659Y6390000D01*
X-132735063Y6154592D01*
X-132673903Y5926337D01*
X-132574035Y5712170D01*
X-132438495Y5518599D01*
X-132271401Y5351505D01*
X-132077830Y5215965D01*
X-131863663Y5116097D01*
X-131635408Y5054937D01*
X-131400000Y5034341D01*
X-131164592Y5054937D01*
X-130936337Y5116097D01*
X-130722170Y5215965D01*
X-130528599Y5351505D01*
X-130361505Y5518599D01*
X-130358074Y5523498D01*
X-130225965Y5712170D01*
X-130166049Y5840659D01*
X-130126097Y5926337D01*
X-130126096Y5926339D01*
X-130064937Y6154589D01*
X-130044341Y6390000D01*
X-130064937Y6625412D01*
X-130126096Y6853662D01*
X-130126098Y6853666D01*
X-130225966Y7067833D01*
X-130361498Y7261393D01*
X-130361507Y7261404D01*
X-130528596Y7428493D01*
X-130528602Y7428498D01*
X-130722169Y7564035D01*
X-130936334Y7663902D01*
X-130936338Y7663904D01*
X-131164588Y7725063D01*
X-131400000Y7745659D01*
X-131635411Y7725063D01*
X-131863661Y7663904D01*
X-131863665Y7663902D01*
X-132077832Y7564034D01*
X-132271392Y7428502D01*
X-132271397Y7428498D01*
X-132271401Y7428495D01*
X-132438495Y7261401D01*
X-132438498Y7261397D01*
X-132438501Y7261393D01*
X-132574033Y7067833D01*
X-132574034Y7067830D01*
X-132574035Y7067829D01*
X-132673903Y6853663D01*
X-132735063Y6625408D01*
X-132755659Y6390000D01*
X-134000000Y6390000D01*
X-134000000Y8295000D01*
X-127675659Y8295000D01*
X-127655063Y8059592D01*
X-127593903Y7831337D01*
X-127494035Y7617170D01*
X-127358495Y7423599D01*
X-127191401Y7256505D01*
X-126997830Y7120965D01*
X-126783663Y7021097D01*
X-126555408Y6959937D01*
X-126320000Y6939341D01*
X-126084592Y6959937D01*
X-125856337Y7021097D01*
X-125642170Y7120965D01*
X-125566427Y7174001D01*
X-124574044Y7174001D01*
X-124574044Y7174000D01*
X-123054166Y7174000D01*
X-123085000Y7018984D01*
X-123085000Y6821016D01*
X-123054166Y6666000D01*
X-124574044Y6666000D01*
X-124549366Y6478549D01*
X-124472755Y6192633D01*
X-124359482Y5919168D01*
X-124359477Y5919157D01*
X-124211484Y5662826D01*
X-124031301Y5428009D01*
X-124031282Y5427988D01*
X-123822012Y5218718D01*
X-123821991Y5218699D01*
X-123587174Y5038516D01*
X-123330843Y4890523D01*
X-123330832Y4890518D01*
X-123057367Y4777245D01*
X-122771451Y4700634D01*
X-122477999Y4662001D01*
X-122477990Y4662000D01*
X-122334000Y4662000D01*
X-122334000Y5945835D01*
X-122178984Y5915000D01*
X-121981016Y5915000D01*
X-121826000Y5945835D01*
X-121826000Y4662000D01*
X-121682010Y4662000D01*
X-121682000Y4662001D01*
X-121388548Y4700634D01*
X-121102632Y4777245D01*
X-120829167Y4890518D01*
X-120829156Y4890523D01*
X-120572825Y5038516D01*
X-120338008Y5218699D01*
X-120337987Y5218718D01*
X-120128717Y5427988D01*
X-120128698Y5428009D01*
X-119948515Y5662826D01*
X-119800522Y5919157D01*
X-119800517Y5919168D01*
X-119687244Y6192633D01*
X-119610633Y6478549D01*
X-119585956Y6666000D01*
X-121105834Y6666000D01*
X-121075000Y6821016D01*
X-121075000Y7018984D01*
X-121105834Y7174000D01*
X-119585956Y7174000D01*
X-119585955Y7174001D01*
X-119610633Y7361452D01*
X-119687244Y7647368D01*
X-119800517Y7920833D01*
X-119800522Y7920844D01*
X-119948515Y8177175D01*
X-120128698Y8411992D01*
X-120128717Y8412013D01*
X-120337987Y8621283D01*
X-120338008Y8621302D01*
X-120572825Y8801485D01*
X-120829156Y8949478D01*
X-120829167Y8949483D01*
X-121102632Y9062756D01*
X-121388548Y9139367D01*
X-121682000Y9178000D01*
X-121826000Y9178000D01*
X-121826000Y7894166D01*
X-121981016Y7925000D01*
X-122178984Y7925000D01*
X-122334000Y7894166D01*
X-122334000Y9178000D01*
X-122477999Y9178000D01*
X-122771451Y9139367D01*
X-123057367Y9062756D01*
X-123330832Y8949483D01*
X-123330843Y8949478D01*
X-123587174Y8801485D01*
X-123821991Y8621302D01*
X-123822012Y8621283D01*
X-124031282Y8412013D01*
X-124031301Y8411992D01*
X-124211484Y8177175D01*
X-124359477Y7920844D01*
X-124359482Y7920833D01*
X-124472755Y7647368D01*
X-124549366Y7361452D01*
X-124574044Y7174001D01*
X-125566427Y7174001D01*
X-125448599Y7256505D01*
X-125281505Y7423599D01*
X-125278074Y7428498D01*
X-125145965Y7617170D01*
X-125046098Y7831335D01*
X-125046096Y7831339D01*
X-124984937Y8059589D01*
X-124964341Y8295000D01*
X-124984937Y8530412D01*
X-125046096Y8758662D01*
X-125046098Y8758666D01*
X-125145966Y8972833D01*
X-125281498Y9166393D01*
X-125281507Y9166404D01*
X-125448596Y9333493D01*
X-125448602Y9333498D01*
X-125642169Y9469035D01*
X-125856334Y9568902D01*
X-125856338Y9568904D01*
X-126084588Y9630063D01*
X-126320000Y9650659D01*
X-126555411Y9630063D01*
X-126783661Y9568904D01*
X-126783665Y9568902D01*
X-126997832Y9469034D01*
X-127191392Y9333502D01*
X-127191397Y9333498D01*
X-127191401Y9333495D01*
X-127358495Y9166401D01*
X-127358498Y9166397D01*
X-127358501Y9166393D01*
X-127494033Y8972833D01*
X-127494034Y8972830D01*
X-127494035Y8972829D01*
X-127593903Y8758663D01*
X-127655063Y8530408D01*
X-127675659Y8295000D01*
X-134000000Y8295000D01*
X-134000000Y10200000D01*
X-133012971Y10200000D01*
X-132993113Y9947677D01*
X-132934028Y9701566D01*
X-132837167Y9467723D01*
X-132705822Y9253389D01*
X-132705820Y9253389D01*
X-132002698Y9956511D01*
X-131976022Y9892110D01*
X-131904888Y9785649D01*
X-131814351Y9695112D01*
X-131707890Y9623978D01*
X-131643489Y9597302D01*
X-132346611Y8894180D01*
X-132346611Y8894178D01*
X-132132277Y8762833D01*
X-131898434Y8665972D01*
X-131652323Y8606887D01*
X-131400000Y8587029D01*
X-131147676Y8606887D01*
X-130901565Y8665972D01*
X-130667727Y8762831D01*
X-130453387Y8894178D01*
X-130453387Y8894180D01*
X-131156510Y9597302D01*
X-131092110Y9623978D01*
X-130985649Y9695112D01*
X-130895112Y9785649D01*
X-130823978Y9892110D01*
X-130797301Y9956512D01*
X-130094178Y9253389D01*
X-130094177Y9253389D01*
X-129962830Y9467728D01*
X-129865971Y9701566D01*
X-129862986Y9714000D01*
X-118734074Y9714000D01*
X-117367195Y9714000D01*
X-117414674Y9631764D01*
X-117445000Y9518585D01*
X-117445000Y9401415D01*
X-117414674Y9288236D01*
X-117367195Y9206000D01*
X-118734074Y9206000D01*
X-118725791Y9153705D01*
X-118662173Y8957907D01*
X-118662170Y8957901D01*
X-118568699Y8774455D01*
X-118447684Y8607893D01*
X-118447682Y8607890D01*
X-118302110Y8462318D01*
X-118302107Y8462316D01*
X-118135545Y8341301D01*
X-117952099Y8247830D01*
X-117952093Y8247827D01*
X-117756294Y8184209D01*
X-117756298Y8184209D01*
X-117552939Y8152000D01*
X-117254000Y8152000D01*
X-117254000Y9092806D01*
X-117171764Y9045326D01*
X-117058585Y9015000D01*
X-116941415Y9015000D01*
X-116828236Y9045326D01*
X-116746000Y9092806D01*
X-116746000Y8152000D01*
X-116447061Y8152000D01*
X-116243703Y8184209D01*
X-116047906Y8247827D01*
X-116047900Y8247830D01*
X-115864454Y8341301D01*
X-115697892Y8462316D01*
X-115697889Y8462318D01*
X-115552317Y8607890D01*
X-115552315Y8607893D01*
X-115431300Y8774455D01*
X-115337829Y8957901D01*
X-115337826Y8957907D01*
X-115274208Y9153705D01*
X-115265926Y9206000D01*
X-116632805Y9206000D01*
X-116585326Y9288236D01*
X-116555000Y9401415D01*
X-116555000Y9518585D01*
X-116585326Y9631764D01*
X-116632805Y9714000D01*
X-115265926Y9714000D01*
X-115274208Y9766296D01*
X-115337826Y9962094D01*
X-115337829Y9962100D01*
X-115431300Y10145546D01*
X-115552315Y10312108D01*
X-115552317Y10312111D01*
X-115697889Y10457683D01*
X-115697892Y10457685D01*
X-115864454Y10578700D01*
X-116047900Y10672171D01*
X-116047906Y10672174D01*
X-116243705Y10735792D01*
X-116243708Y10735793D01*
X-116257862Y10738035D01*
X-116322014Y10768449D01*
X-116359539Y10828719D01*
X-116358523Y10899708D01*
X-116319288Y10958879D01*
X-116262728Y10986062D01*
X-116243580Y10989870D01*
X-116052402Y11069059D01*
X-115880345Y11184023D01*
X-115880343Y11184025D01*
X-115880337Y11184030D01*
X-115734029Y11330338D01*
X-115734024Y11330344D01*
X-115734023Y11330345D01*
X-115619059Y11502402D01*
X-115539870Y11693580D01*
X-115532496Y11730652D01*
X-115499500Y11896533D01*
X-115499500Y12103468D01*
X-115539870Y12306421D01*
X-115539872Y12306426D01*
X-115619059Y12497598D01*
X-115734024Y12669657D01*
X-115734029Y12669663D01*
X-115880337Y12815971D01*
X-115880343Y12815976D01*
X-116052402Y12930941D01*
X-116243574Y13010128D01*
X-116243579Y13010130D01*
X-116446532Y13050500D01*
X-116446535Y13050500D01*
X-117553465Y13050500D01*
X-117553467Y13050500D01*
X-117756420Y13010130D01*
X-117947598Y12930941D01*
X-118119655Y12815977D01*
X-118119656Y12815976D01*
X-118119662Y12815971D01*
X-118265970Y12669663D01*
X-118265975Y12669657D01*
X-118265977Y12669655D01*
X-118380941Y12497598D01*
X-118460130Y12306420D01*
X-118500500Y12103465D01*
X-118500500Y11896535D01*
X-118460130Y11693580D01*
X-118380941Y11502402D01*
X-118265977Y11330345D01*
X-118119655Y11184023D01*
X-117947598Y11069059D01*
X-117756420Y10989870D01*
X-117737271Y10986062D01*
X-117674363Y10953156D01*
X-117639230Y10891462D01*
X-117643028Y10820567D01*
X-117684552Y10762980D01*
X-117742138Y10738035D01*
X-117756290Y10735794D01*
X-117756294Y10735792D01*
X-117952093Y10672174D01*
X-117952099Y10672171D01*
X-118135545Y10578700D01*
X-118302107Y10457685D01*
X-118302110Y10457683D01*
X-118447682Y10312111D01*
X-118447684Y10312108D01*
X-118568699Y10145546D01*
X-118662170Y9962100D01*
X-118662173Y9962094D01*
X-118725791Y9766296D01*
X-118734074Y9714000D01*
X-129862986Y9714000D01*
X-129806886Y9947677D01*
X-129787028Y10200000D01*
X-129806886Y10452324D01*
X-129865971Y10698435D01*
X-129962830Y10932273D01*
X-130094176Y11146613D01*
X-130094178Y11146613D01*
X-130797301Y10443490D01*
X-130823978Y10507890D01*
X-130895112Y10614351D01*
X-130985649Y10704888D01*
X-131092110Y10776022D01*
X-131156510Y10802699D01*
X-130453387Y11505822D01*
X-130453387Y11505824D01*
X-130667727Y11637170D01*
X-130901565Y11734029D01*
X-131147676Y11793114D01*
X-131400000Y11812972D01*
X-131652323Y11793114D01*
X-131898434Y11734029D01*
X-132132272Y11637170D01*
X-132346611Y11505823D01*
X-132346611Y11505822D01*
X-131643488Y10802699D01*
X-131707890Y10776022D01*
X-131814351Y10704888D01*
X-131904888Y10614351D01*
X-131976022Y10507890D01*
X-132002697Y10443491D01*
X-132705820Y11146613D01*
X-132705822Y11146613D01*
X-132837169Y10932273D01*
X-132934028Y10698435D01*
X-132993113Y10452324D01*
X-133012971Y10200000D01*
X-134000000Y10200000D01*
X-134000000Y12105000D01*
X-127932971Y12105000D01*
X-127913113Y11852677D01*
X-127854028Y11606566D01*
X-127757167Y11372723D01*
X-127625822Y11158389D01*
X-127625820Y11158389D01*
X-126922698Y11861511D01*
X-126896022Y11797110D01*
X-126824888Y11690649D01*
X-126734351Y11600112D01*
X-126627890Y11528978D01*
X-126563489Y11502302D01*
X-127266611Y10799180D01*
X-127266611Y10799178D01*
X-127052277Y10667833D01*
X-126818434Y10570972D01*
X-126572323Y10511887D01*
X-126320000Y10492029D01*
X-126067676Y10511887D01*
X-125821565Y10570972D01*
X-125587727Y10667831D01*
X-125373387Y10799178D01*
X-125373387Y10799180D01*
X-126076510Y11502302D01*
X-126012110Y11528978D01*
X-125905649Y11600112D01*
X-125815112Y11690649D01*
X-125743978Y11797110D01*
X-125717301Y11861512D01*
X-125014178Y11158389D01*
X-125014177Y11158389D01*
X-124882830Y11372728D01*
X-124785971Y11606566D01*
X-124726886Y11852677D01*
X-124707028Y12105000D01*
X-124726886Y12357324D01*
X-124785971Y12603435D01*
X-124882830Y12837273D01*
X-125014176Y13051613D01*
X-125014178Y13051613D01*
X-125717301Y12348490D01*
X-125743978Y12412890D01*
X-125815112Y12519351D01*
X-125905649Y12609888D01*
X-126012110Y12681022D01*
X-126076510Y12707699D01*
X-125373387Y13410822D01*
X-125373387Y13410824D01*
X-125587727Y13542170D01*
X-125821565Y13639029D01*
X-126067676Y13698114D01*
X-126320000Y13717972D01*
X-126572323Y13698114D01*
X-126818434Y13639029D01*
X-127052272Y13542170D01*
X-127266611Y13410823D01*
X-127266611Y13410822D01*
X-126563488Y12707699D01*
X-126627890Y12681022D01*
X-126734351Y12609888D01*
X-126824888Y12519351D01*
X-126896022Y12412890D01*
X-126922697Y12348491D01*
X-127625820Y13051613D01*
X-127625822Y13051613D01*
X-127757169Y12837273D01*
X-127854028Y12603435D01*
X-127913113Y12357324D01*
X-127932971Y12105000D01*
X-134000000Y12105000D01*
X-134000000Y14010000D01*
X-132755659Y14010000D01*
X-132735063Y13774592D01*
X-132673903Y13546337D01*
X-132574035Y13332170D01*
X-132438495Y13138599D01*
X-132271401Y12971505D01*
X-132077830Y12835965D01*
X-131863663Y12736097D01*
X-131635408Y12674937D01*
X-131400000Y12654341D01*
X-131164592Y12674937D01*
X-130936337Y12736097D01*
X-130722170Y12835965D01*
X-130528599Y12971505D01*
X-130361505Y13138599D01*
X-130225965Y13332170D01*
X-130126097Y13546337D01*
X-130111187Y13601982D01*
X-130064937Y13774589D01*
X-130044341Y14010000D01*
X-130064937Y14245412D01*
X-130126096Y14473662D01*
X-130126098Y14473666D01*
X-130225966Y14687833D01*
X-130361498Y14881393D01*
X-130361507Y14881404D01*
X-130528596Y15048493D01*
X-130528602Y15048498D01*
X-130722169Y15184035D01*
X-130936334Y15283902D01*
X-130936338Y15283904D01*
X-131164588Y15345063D01*
X-131400000Y15365659D01*
X-131635411Y15345063D01*
X-131863661Y15283904D01*
X-131863665Y15283902D01*
X-132077832Y15184034D01*
X-132271392Y15048502D01*
X-132271397Y15048498D01*
X-132271401Y15048495D01*
X-132438495Y14881401D01*
X-132438498Y14881397D01*
X-132438501Y14881393D01*
X-132574033Y14687833D01*
X-132574034Y14687830D01*
X-132574035Y14687829D01*
X-132673903Y14473663D01*
X-132735063Y14245408D01*
X-132755659Y14010000D01*
X-134000000Y14010000D01*
X-134000000Y15915000D01*
X-127675659Y15915000D01*
X-127655063Y15679592D01*
X-127593903Y15451337D01*
X-127494035Y15237170D01*
X-127358495Y15043599D01*
X-127191401Y14876505D01*
X-126997830Y14740965D01*
X-126783663Y14641097D01*
X-126555408Y14579937D01*
X-126320000Y14559341D01*
X-126084592Y14579937D01*
X-125856337Y14641097D01*
X-125642170Y14740965D01*
X-125448599Y14876505D01*
X-125281505Y15043599D01*
X-125278074Y15048498D01*
X-125145965Y15237170D01*
X-125046098Y15451335D01*
X-125046096Y15451339D01*
X-124984937Y15679589D01*
X-124964341Y15915000D01*
X-124984937Y16150412D01*
X-125046096Y16378662D01*
X-125046098Y16378666D01*
X-125145966Y16592833D01*
X-125281498Y16786393D01*
X-125281507Y16786404D01*
X-125448596Y16953493D01*
X-125448602Y16953498D01*
X-125642169Y17089035D01*
X-125856334Y17188902D01*
X-125856338Y17188904D01*
X-126084588Y17250063D01*
X-126320000Y17270659D01*
X-126555411Y17250063D01*
X-126783661Y17188904D01*
X-126783665Y17188902D01*
X-126997832Y17089034D01*
X-127191392Y16953502D01*
X-127191397Y16953498D01*
X-127191401Y16953495D01*
X-127358495Y16786401D01*
X-127358498Y16786397D01*
X-127358501Y16786393D01*
X-127494033Y16592833D01*
X-127494034Y16592830D01*
X-127494035Y16592829D01*
X-127593903Y16378663D01*
X-127655063Y16150408D01*
X-127675659Y15915000D01*
X-134000000Y15915000D01*
X-134000000Y17820000D01*
X-132755659Y17820000D01*
X-132735063Y17584592D01*
X-132673903Y17356337D01*
X-132574035Y17142170D01*
X-132438495Y16948599D01*
X-132271401Y16781505D01*
X-132077830Y16645965D01*
X-131863663Y16546097D01*
X-131635408Y16484937D01*
X-131400000Y16464341D01*
X-131164592Y16484937D01*
X-130936337Y16546097D01*
X-130722170Y16645965D01*
X-130528599Y16781505D01*
X-130361505Y16948599D01*
X-130361113Y16949158D01*
X-130225965Y17142170D01*
X-130136513Y17334000D01*
X-130136513Y17334001D01*
X-124574044Y17334001D01*
X-124574044Y17334000D01*
X-123054166Y17334000D01*
X-123085000Y17178984D01*
X-123085000Y16981016D01*
X-123054166Y16826000D01*
X-124574044Y16826000D01*
X-124549366Y16638549D01*
X-124472755Y16352633D01*
X-124359482Y16079168D01*
X-124359477Y16079157D01*
X-124211484Y15822826D01*
X-124031301Y15588009D01*
X-124031282Y15587988D01*
X-123822012Y15378718D01*
X-123821991Y15378699D01*
X-123587174Y15198516D01*
X-123330843Y15050523D01*
X-123330832Y15050518D01*
X-123057367Y14937245D01*
X-122771451Y14860634D01*
X-122477999Y14822001D01*
X-122477990Y14822000D01*
X-122334000Y14822000D01*
X-122334000Y16105835D01*
X-122178984Y16075000D01*
X-121981016Y16075000D01*
X-121826000Y16105835D01*
X-121826000Y14822000D01*
X-121682010Y14822000D01*
X-121682000Y14822001D01*
X-121388548Y14860634D01*
X-121102632Y14937245D01*
X-120829167Y15050518D01*
X-120829156Y15050523D01*
X-120572825Y15198516D01*
X-120338008Y15378699D01*
X-120337987Y15378718D01*
X-120128717Y15587988D01*
X-120128698Y15588009D01*
X-119948515Y15822826D01*
X-119800522Y16079157D01*
X-119800517Y16079168D01*
X-119687244Y16352633D01*
X-119610633Y16638549D01*
X-119585956Y16826000D01*
X-121105834Y16826000D01*
X-121075000Y16981016D01*
X-121075000Y17178984D01*
X-121105834Y17334000D01*
X-119585956Y17334000D01*
X-119585955Y17334001D01*
X-119610633Y17521452D01*
X-119687244Y17807368D01*
X-119800517Y18080833D01*
X-119800522Y18080844D01*
X-119948515Y18337175D01*
X-120128698Y18571992D01*
X-120128717Y18572013D01*
X-120337987Y18781283D01*
X-120338008Y18781302D01*
X-120572825Y18961485D01*
X-120829156Y19109478D01*
X-120829167Y19109483D01*
X-121102632Y19222756D01*
X-121388548Y19299367D01*
X-121682000Y19338000D01*
X-121826000Y19338000D01*
X-121826000Y18054166D01*
X-121981016Y18085000D01*
X-122178984Y18085000D01*
X-122334000Y18054166D01*
X-122334000Y19338000D01*
X-122477999Y19338000D01*
X-122771451Y19299367D01*
X-123057367Y19222756D01*
X-123330832Y19109483D01*
X-123330843Y19109478D01*
X-123587174Y18961485D01*
X-123821991Y18781302D01*
X-123822012Y18781283D01*
X-124031282Y18572013D01*
X-124031301Y18571992D01*
X-124211484Y18337175D01*
X-124359477Y18080844D01*
X-124359482Y18080833D01*
X-124472755Y17807368D01*
X-124549366Y17521452D01*
X-124574044Y17334001D01*
X-130136513Y17334001D01*
X-130126097Y17356337D01*
X-130126096Y17356339D01*
X-130064937Y17584589D01*
X-130044341Y17820000D01*
X-130064937Y18055412D01*
X-130126096Y18283662D01*
X-130126098Y18283666D01*
X-130225966Y18497833D01*
X-130361498Y18691393D01*
X-130361507Y18691404D01*
X-130528596Y18858493D01*
X-130528602Y18858498D01*
X-130722169Y18994035D01*
X-130936334Y19093902D01*
X-130936338Y19093904D01*
X-131164588Y19155063D01*
X-131400000Y19175659D01*
X-131635411Y19155063D01*
X-131863661Y19093904D01*
X-131863665Y19093902D01*
X-132077832Y18994034D01*
X-132271392Y18858502D01*
X-132271397Y18858498D01*
X-132271401Y18858495D01*
X-132438495Y18691401D01*
X-132438498Y18691397D01*
X-132438501Y18691393D01*
X-132574033Y18497833D01*
X-132574034Y18497830D01*
X-132574035Y18497829D01*
X-132673903Y18283663D01*
X-132696521Y18199250D01*
X-132728250Y18080833D01*
X-132735063Y18055408D01*
X-132755659Y17820000D01*
X-134000000Y17820000D01*
X-134000000Y19725000D01*
X-127932971Y19725000D01*
X-127913113Y19472677D01*
X-127854028Y19226566D01*
X-127757167Y18992723D01*
X-127625822Y18778389D01*
X-127625820Y18778389D01*
X-126922698Y19481511D01*
X-126896022Y19417110D01*
X-126824888Y19310649D01*
X-126734351Y19220112D01*
X-126627890Y19148978D01*
X-126563489Y19122302D01*
X-127266611Y18419180D01*
X-127266611Y18419178D01*
X-127052277Y18287833D01*
X-126818434Y18190972D01*
X-126572323Y18131887D01*
X-126320000Y18112029D01*
X-126067676Y18131887D01*
X-125821565Y18190972D01*
X-125587727Y18287831D01*
X-125373387Y18419178D01*
X-125373387Y18419180D01*
X-126076510Y19122302D01*
X-126012110Y19148978D01*
X-125905649Y19220112D01*
X-125815112Y19310649D01*
X-125743978Y19417110D01*
X-125717301Y19481512D01*
X-125014178Y18778389D01*
X-125014177Y18778389D01*
X-124882830Y18992728D01*
X-124785971Y19226566D01*
X-124726886Y19472677D01*
X-124707028Y19725000D01*
X-124726886Y19977324D01*
X-124785971Y20223435D01*
X-124882830Y20457273D01*
X-125014176Y20671613D01*
X-125014178Y20671613D01*
X-125717301Y19968490D01*
X-125743978Y20032890D01*
X-125815112Y20139351D01*
X-125905649Y20229888D01*
X-126012110Y20301022D01*
X-126076510Y20327699D01*
X-125373387Y21030822D01*
X-125373387Y21030824D01*
X-125587727Y21162170D01*
X-125821565Y21259029D01*
X-126067676Y21318114D01*
X-126320000Y21337972D01*
X-126572323Y21318114D01*
X-126818434Y21259029D01*
X-127052272Y21162170D01*
X-127266611Y21030823D01*
X-127266611Y21030822D01*
X-126563488Y20327699D01*
X-126627890Y20301022D01*
X-126734351Y20229888D01*
X-126824888Y20139351D01*
X-126896022Y20032890D01*
X-126922697Y19968491D01*
X-127625820Y20671613D01*
X-127625822Y20671613D01*
X-127757169Y20457273D01*
X-127854028Y20223435D01*
X-127913113Y19977324D01*
X-127932971Y19725000D01*
X-134000000Y19725000D01*
X-134000000Y21630000D01*
X-132755659Y21630000D01*
X-132735063Y21394592D01*
X-132673903Y21166337D01*
X-132574035Y20952170D01*
X-132438495Y20758599D01*
X-132271401Y20591505D01*
X-132077830Y20455965D01*
X-131863663Y20356097D01*
X-131635408Y20294937D01*
X-131400000Y20274341D01*
X-131164592Y20294937D01*
X-130936337Y20356097D01*
X-130722170Y20455965D01*
X-130528599Y20591505D01*
X-130361505Y20758599D01*
X-130225965Y20952170D01*
X-130126097Y21166337D01*
X-130126096Y21166339D01*
X-130064937Y21394589D01*
X-130044341Y21630000D01*
X-130064937Y21865412D01*
X-130126096Y22093662D01*
X-130126098Y22093666D01*
X-130225966Y22307833D01*
X-130361498Y22501393D01*
X-130361507Y22501404D01*
X-130528596Y22668493D01*
X-130528602Y22668498D01*
X-130722169Y22804035D01*
X-130936334Y22903902D01*
X-130936338Y22903904D01*
X-131164588Y22965063D01*
X-131400000Y22985659D01*
X-131635411Y22965063D01*
X-131863661Y22903904D01*
X-131863665Y22903902D01*
X-132077832Y22804034D01*
X-132271392Y22668502D01*
X-132271397Y22668498D01*
X-132271401Y22668495D01*
X-132438495Y22501401D01*
X-132438498Y22501397D01*
X-132438501Y22501393D01*
X-132574033Y22307833D01*
X-132574034Y22307830D01*
X-132574035Y22307829D01*
X-132673903Y22093663D01*
X-132735063Y21865408D01*
X-132755659Y21630000D01*
X-134000000Y21630000D01*
X-134000000Y23535000D01*
X-127675659Y23535000D01*
X-127655063Y23299592D01*
X-127593903Y23071337D01*
X-127494035Y22857170D01*
X-127358495Y22663599D01*
X-127191401Y22496505D01*
X-126997830Y22360965D01*
X-126783663Y22261097D01*
X-126555408Y22199937D01*
X-126320000Y22179341D01*
X-126084592Y22199937D01*
X-125856337Y22261097D01*
X-125642170Y22360965D01*
X-125448599Y22496505D01*
X-125281505Y22663599D01*
X-125278074Y22668498D01*
X-125145965Y22857170D01*
X-125046098Y23071335D01*
X-125046096Y23071339D01*
X-125018588Y23174001D01*
X-124574044Y23174001D01*
X-124574044Y23174000D01*
X-123054166Y23174000D01*
X-123085000Y23018984D01*
X-123085000Y22821016D01*
X-123054166Y22666000D01*
X-124574044Y22666000D01*
X-124549366Y22478549D01*
X-124472755Y22192633D01*
X-124359482Y21919168D01*
X-124359477Y21919157D01*
X-124211484Y21662826D01*
X-124031301Y21428009D01*
X-124031282Y21427988D01*
X-123822012Y21218718D01*
X-123821991Y21218699D01*
X-123587174Y21038516D01*
X-123330843Y20890523D01*
X-123330832Y20890518D01*
X-123057367Y20777245D01*
X-122771451Y20700634D01*
X-122477999Y20662001D01*
X-122477990Y20662000D01*
X-122334000Y20662000D01*
X-122334000Y21945835D01*
X-122178984Y21915000D01*
X-121981016Y21915000D01*
X-121826000Y21945835D01*
X-121826000Y20662000D01*
X-121682010Y20662000D01*
X-121682000Y20662001D01*
X-121388548Y20700634D01*
X-121102632Y20777245D01*
X-120829167Y20890518D01*
X-120829156Y20890523D01*
X-120572825Y21038516D01*
X-120338008Y21218699D01*
X-120337987Y21218718D01*
X-120128717Y21427988D01*
X-120128698Y21428009D01*
X-119948515Y21662826D01*
X-119800522Y21919157D01*
X-119800517Y21919168D01*
X-119687244Y22192633D01*
X-119610633Y22478549D01*
X-119585956Y22666000D01*
X-121105834Y22666000D01*
X-121075000Y22821016D01*
X-121075000Y23018984D01*
X-121105834Y23174000D01*
X-119585956Y23174000D01*
X-119585955Y23174001D01*
X-119610633Y23361452D01*
X-119687244Y23647368D01*
X-119800517Y23920833D01*
X-119800522Y23920844D01*
X-119948515Y24177175D01*
X-120128698Y24411992D01*
X-120128717Y24412013D01*
X-120337987Y24621283D01*
X-120338008Y24621302D01*
X-120572825Y24801485D01*
X-120829156Y24949478D01*
X-120829167Y24949483D01*
X-121102632Y25062756D01*
X-121388548Y25139367D01*
X-121682000Y25178000D01*
X-121826000Y25178000D01*
X-121826000Y23894166D01*
X-121981016Y23925000D01*
X-122178984Y23925000D01*
X-122334000Y23894166D01*
X-122334000Y25178000D01*
X-122477999Y25178000D01*
X-122771451Y25139367D01*
X-123057367Y25062756D01*
X-123330832Y24949483D01*
X-123330843Y24949478D01*
X-123587174Y24801485D01*
X-123821991Y24621302D01*
X-123822012Y24621283D01*
X-124031282Y24412013D01*
X-124031301Y24411992D01*
X-124211484Y24177175D01*
X-124359477Y23920844D01*
X-124359482Y23920833D01*
X-124472755Y23647368D01*
X-124549366Y23361452D01*
X-124574044Y23174001D01*
X-125018588Y23174001D01*
X-124984937Y23299589D01*
X-124964341Y23535000D01*
X-124984937Y23770412D01*
X-125046096Y23998662D01*
X-125046098Y23998666D01*
X-125145966Y24212833D01*
X-125281498Y24406393D01*
X-125281507Y24406404D01*
X-125448596Y24573493D01*
X-125448602Y24573498D01*
X-125642169Y24709035D01*
X-125856334Y24808902D01*
X-125856338Y24808904D01*
X-126084588Y24870063D01*
X-126320000Y24890659D01*
X-126555411Y24870063D01*
X-126783661Y24808904D01*
X-126783665Y24808902D01*
X-126997832Y24709034D01*
X-127191392Y24573502D01*
X-127191397Y24573498D01*
X-127191401Y24573495D01*
X-127358495Y24406401D01*
X-127358498Y24406397D01*
X-127358501Y24406393D01*
X-127494033Y24212833D01*
X-127494034Y24212830D01*
X-127494035Y24212829D01*
X-127593903Y23998663D01*
X-127655063Y23770408D01*
X-127675659Y23535000D01*
X-134000000Y23535000D01*
X-134000000Y25440000D01*
X-132755659Y25440000D01*
X-132735063Y25204592D01*
X-132673903Y24976337D01*
X-132574035Y24762170D01*
X-132438495Y24568599D01*
X-132271401Y24401505D01*
X-132077830Y24265965D01*
X-131863663Y24166097D01*
X-131635408Y24104937D01*
X-131400000Y24084341D01*
X-131164592Y24104937D01*
X-130936337Y24166097D01*
X-130722170Y24265965D01*
X-130528599Y24401505D01*
X-130361505Y24568599D01*
X-130358074Y24573498D01*
X-130225965Y24762170D01*
X-130126098Y24976335D01*
X-130126096Y24976339D01*
X-130064937Y25204589D01*
X-130044341Y25440000D01*
X-130064937Y25675412D01*
X-130075277Y25714000D01*
X-118734074Y25714000D01*
X-117367195Y25714000D01*
X-117414674Y25631764D01*
X-117445000Y25518585D01*
X-117445000Y25401415D01*
X-117414674Y25288236D01*
X-117367195Y25206000D01*
X-118734074Y25206000D01*
X-118725791Y25153705D01*
X-118662173Y24957907D01*
X-118662170Y24957901D01*
X-118568699Y24774455D01*
X-118447684Y24607893D01*
X-118447682Y24607890D01*
X-118302110Y24462318D01*
X-118302107Y24462316D01*
X-118135545Y24341301D01*
X-117952099Y24247830D01*
X-117952093Y24247827D01*
X-117756294Y24184209D01*
X-117756298Y24184209D01*
X-117552939Y24152000D01*
X-117254000Y24152000D01*
X-117254000Y25092806D01*
X-117171764Y25045326D01*
X-117058585Y25015000D01*
X-116941415Y25015000D01*
X-116828236Y25045326D01*
X-116746000Y25092806D01*
X-116746000Y24152000D01*
X-116447061Y24152000D01*
X-116243703Y24184209D01*
X-116047906Y24247827D01*
X-116047900Y24247830D01*
X-115864454Y24341301D01*
X-115697892Y24462316D01*
X-115697889Y24462318D01*
X-115552317Y24607890D01*
X-115552315Y24607893D01*
X-115431300Y24774455D01*
X-115337829Y24957901D01*
X-115337826Y24957907D01*
X-115274208Y25153705D01*
X-115265926Y25206000D01*
X-116632805Y25206000D01*
X-116585326Y25288236D01*
X-116555000Y25401415D01*
X-116555000Y25518585D01*
X-116585326Y25631764D01*
X-116632805Y25714000D01*
X-115265926Y25714000D01*
X-115274208Y25766296D01*
X-115337826Y25962094D01*
X-115337829Y25962100D01*
X-115431300Y26145546D01*
X-115552315Y26312108D01*
X-115552317Y26312111D01*
X-115697889Y26457683D01*
X-115697892Y26457685D01*
X-115864454Y26578700D01*
X-116047900Y26672171D01*
X-116047906Y26672174D01*
X-116243705Y26735792D01*
X-116243708Y26735793D01*
X-116257862Y26738035D01*
X-116322014Y26768449D01*
X-116359539Y26828719D01*
X-116358523Y26899708D01*
X-116319288Y26958879D01*
X-116262728Y26986062D01*
X-116243580Y26989870D01*
X-116052402Y27069059D01*
X-115880345Y27184023D01*
X-115880343Y27184025D01*
X-115880337Y27184030D01*
X-115734029Y27330338D01*
X-115734024Y27330344D01*
X-115724231Y27345000D01*
X-115619059Y27502402D01*
X-115539870Y27693580D01*
X-115537756Y27704210D01*
X-115499500Y27896533D01*
X-115499500Y28103468D01*
X-115539870Y28306421D01*
X-115539872Y28306426D01*
X-115619059Y28497598D01*
X-115734024Y28669657D01*
X-115734029Y28669663D01*
X-115880337Y28815971D01*
X-115880343Y28815976D01*
X-116052402Y28930941D01*
X-116243574Y29010128D01*
X-116243579Y29010130D01*
X-116446532Y29050500D01*
X-116446535Y29050500D01*
X-117553465Y29050500D01*
X-117553467Y29050500D01*
X-117756420Y29010130D01*
X-117947598Y28930941D01*
X-118119655Y28815977D01*
X-118119656Y28815976D01*
X-118119662Y28815971D01*
X-118265970Y28669663D01*
X-118265975Y28669657D01*
X-118265977Y28669655D01*
X-118380941Y28497598D01*
X-118460130Y28306420D01*
X-118500500Y28103465D01*
X-118500500Y27896535D01*
X-118460130Y27693580D01*
X-118380941Y27502402D01*
X-118265977Y27330345D01*
X-118119655Y27184023D01*
X-117947598Y27069059D01*
X-117756420Y26989870D01*
X-117737271Y26986062D01*
X-117674363Y26953156D01*
X-117639230Y26891462D01*
X-117643028Y26820567D01*
X-117684552Y26762980D01*
X-117742138Y26738035D01*
X-117756290Y26735794D01*
X-117756294Y26735792D01*
X-117952093Y26672174D01*
X-117952099Y26672171D01*
X-118135545Y26578700D01*
X-118302107Y26457685D01*
X-118302110Y26457683D01*
X-118447682Y26312111D01*
X-118447684Y26312108D01*
X-118568699Y26145546D01*
X-118662170Y25962100D01*
X-118662173Y25962094D01*
X-118725791Y25766296D01*
X-118734074Y25714000D01*
X-130075277Y25714000D01*
X-130126096Y25903662D01*
X-130126098Y25903666D01*
X-130225966Y26117833D01*
X-130361498Y26311393D01*
X-130361507Y26311404D01*
X-130528596Y26478493D01*
X-130528602Y26478498D01*
X-130722169Y26614035D01*
X-130936334Y26713902D01*
X-130936338Y26713904D01*
X-131164588Y26775063D01*
X-131400000Y26795659D01*
X-131635411Y26775063D01*
X-131863661Y26713904D01*
X-131863665Y26713902D01*
X-132077832Y26614034D01*
X-132271392Y26478502D01*
X-132271397Y26478498D01*
X-132271401Y26478495D01*
X-132438495Y26311401D01*
X-132438498Y26311397D01*
X-132438501Y26311393D01*
X-132574033Y26117833D01*
X-132574034Y26117830D01*
X-132574035Y26117829D01*
X-132673903Y25903663D01*
X-132735063Y25675408D01*
X-132755659Y25440000D01*
X-134000000Y25440000D01*
X-134000000Y27345000D01*
X-127932971Y27345000D01*
X-127913113Y27092677D01*
X-127854028Y26846566D01*
X-127757167Y26612723D01*
X-127625822Y26398389D01*
X-127625820Y26398389D01*
X-126922698Y27101511D01*
X-126896022Y27037110D01*
X-126824888Y26930649D01*
X-126734351Y26840112D01*
X-126627890Y26768978D01*
X-126563489Y26742302D01*
X-127266611Y26039180D01*
X-127266611Y26039178D01*
X-127052277Y25907833D01*
X-126818434Y25810972D01*
X-126572323Y25751887D01*
X-126320000Y25732029D01*
X-126067676Y25751887D01*
X-125821565Y25810972D01*
X-125587727Y25907831D01*
X-125373387Y26039178D01*
X-125373387Y26039180D01*
X-126076510Y26742302D01*
X-126012110Y26768978D01*
X-125905649Y26840112D01*
X-125815112Y26930649D01*
X-125743978Y27037110D01*
X-125717301Y27101512D01*
X-125014178Y26398389D01*
X-125014177Y26398389D01*
X-124882830Y26612728D01*
X-124785971Y26846566D01*
X-124726886Y27092677D01*
X-124707028Y27345000D01*
X-124726886Y27597324D01*
X-124785971Y27843435D01*
X-124882830Y28077273D01*
X-125014176Y28291613D01*
X-125014178Y28291613D01*
X-125717301Y27588490D01*
X-125743978Y27652890D01*
X-125815112Y27759351D01*
X-125905649Y27849888D01*
X-126012110Y27921022D01*
X-126076510Y27947699D01*
X-125373387Y28650822D01*
X-125373387Y28650824D01*
X-125587727Y28782170D01*
X-125821565Y28879029D01*
X-126067676Y28938114D01*
X-126320000Y28957972D01*
X-126572323Y28938114D01*
X-126818434Y28879029D01*
X-127052272Y28782170D01*
X-127266611Y28650823D01*
X-127266611Y28650822D01*
X-126563488Y27947699D01*
X-126627890Y27921022D01*
X-126734351Y27849888D01*
X-126824888Y27759351D01*
X-126896022Y27652890D01*
X-126922697Y27588491D01*
X-127625820Y28291613D01*
X-127625822Y28291613D01*
X-127757169Y28077273D01*
X-127854028Y27843435D01*
X-127913113Y27597324D01*
X-127932971Y27345000D01*
X-134000000Y27345000D01*
X-134000000Y29250000D01*
X-133012971Y29250000D01*
X-132993113Y28997677D01*
X-132934028Y28751566D01*
X-132837167Y28517723D01*
X-132705822Y28303389D01*
X-132705820Y28303389D01*
X-132002698Y29006511D01*
X-131976022Y28942110D01*
X-131904888Y28835649D01*
X-131814351Y28745112D01*
X-131707890Y28673978D01*
X-131643489Y28647302D01*
X-132346611Y27944180D01*
X-132346611Y27944178D01*
X-132132277Y27812833D01*
X-131898434Y27715972D01*
X-131652323Y27656887D01*
X-131400000Y27637029D01*
X-131147676Y27656887D01*
X-130901565Y27715972D01*
X-130667727Y27812831D01*
X-130453387Y27944178D01*
X-130453387Y27944180D01*
X-131156510Y28647302D01*
X-131092110Y28673978D01*
X-130985649Y28745112D01*
X-130895112Y28835649D01*
X-130823978Y28942110D01*
X-130797301Y29006512D01*
X-130094178Y28303389D01*
X-130094177Y28303389D01*
X-129962830Y28517728D01*
X-129865971Y28751566D01*
X-129806886Y28997677D01*
X-129787028Y29250000D01*
X-129806886Y29502324D01*
X-129865971Y29748435D01*
X-129962830Y29982273D01*
X-130094176Y30196613D01*
X-130094178Y30196613D01*
X-130797301Y29493490D01*
X-130823978Y29557890D01*
X-130895112Y29664351D01*
X-130985649Y29754888D01*
X-131092110Y29826022D01*
X-131156510Y29852699D01*
X-130453387Y30555822D01*
X-130453387Y30555824D01*
X-130667727Y30687170D01*
X-130901565Y30784029D01*
X-131147676Y30843114D01*
X-131400000Y30862972D01*
X-131652323Y30843114D01*
X-131898434Y30784029D01*
X-132132272Y30687170D01*
X-132346611Y30555823D01*
X-132346611Y30555822D01*
X-131643488Y29852699D01*
X-131707890Y29826022D01*
X-131814351Y29754888D01*
X-131904888Y29664351D01*
X-131976022Y29557890D01*
X-132002697Y29493491D01*
X-132705820Y30196613D01*
X-132705822Y30196613D01*
X-132837169Y29982273D01*
X-132934028Y29748435D01*
X-132993113Y29502324D01*
X-133012971Y29250000D01*
X-134000000Y29250000D01*
X-134000000Y31155000D01*
X-127675659Y31155000D01*
X-127655063Y30919592D01*
X-127593903Y30691337D01*
X-127494035Y30477170D01*
X-127358495Y30283599D01*
X-127191401Y30116505D01*
X-126997830Y29980965D01*
X-126783663Y29881097D01*
X-126555408Y29819937D01*
X-126320000Y29799341D01*
X-126084592Y29819937D01*
X-125856337Y29881097D01*
X-125642170Y29980965D01*
X-125448599Y30116505D01*
X-125281505Y30283599D01*
X-125272179Y30296917D01*
X-125145965Y30477170D01*
X-125046098Y30691335D01*
X-125046096Y30691339D01*
X-124984937Y30919589D01*
X-124964341Y31155000D01*
X-124984937Y31390412D01*
X-125046096Y31618662D01*
X-125046098Y31618666D01*
X-125145966Y31832833D01*
X-125281498Y32026393D01*
X-125281507Y32026404D01*
X-125448596Y32193493D01*
X-125448602Y32193498D01*
X-125642169Y32329035D01*
X-125856334Y32428902D01*
X-125856338Y32428904D01*
X-126084588Y32490063D01*
X-126320000Y32510659D01*
X-126555411Y32490063D01*
X-126783661Y32428904D01*
X-126783665Y32428902D01*
X-126997832Y32329034D01*
X-127191392Y32193502D01*
X-127191397Y32193498D01*
X-127191401Y32193495D01*
X-127358495Y32026401D01*
X-127358498Y32026397D01*
X-127358501Y32026393D01*
X-127494033Y31832833D01*
X-127494034Y31832830D01*
X-127494035Y31832829D01*
X-127593903Y31618663D01*
X-127655063Y31390408D01*
X-127675659Y31155000D01*
X-134000000Y31155000D01*
X-134000000Y33060000D01*
X-132755659Y33060000D01*
X-132735063Y32824592D01*
X-132673903Y32596337D01*
X-132574035Y32382170D01*
X-132438495Y32188599D01*
X-132271401Y32021505D01*
X-132077830Y31885965D01*
X-131863663Y31786097D01*
X-131635408Y31724937D01*
X-131400000Y31704341D01*
X-131164592Y31724937D01*
X-130936337Y31786097D01*
X-130722170Y31885965D01*
X-130528599Y32021505D01*
X-130361505Y32188599D01*
X-130358074Y32193498D01*
X-130225965Y32382170D01*
X-130166049Y32510659D01*
X-130126097Y32596337D01*
X-130075049Y32786852D01*
X-130064937Y32824589D01*
X-130044341Y33060000D01*
X-130064937Y33295412D01*
X-130075277Y33334001D01*
X-124574044Y33334001D01*
X-124574044Y33334000D01*
X-123054166Y33334000D01*
X-123085000Y33178984D01*
X-123085000Y32981016D01*
X-123054166Y32826000D01*
X-124574044Y32826000D01*
X-124549366Y32638549D01*
X-124472755Y32352633D01*
X-124359482Y32079168D01*
X-124359477Y32079157D01*
X-124211484Y31822826D01*
X-124031301Y31588009D01*
X-124031282Y31587988D01*
X-123822012Y31378718D01*
X-123821991Y31378699D01*
X-123587174Y31198516D01*
X-123330843Y31050523D01*
X-123330832Y31050518D01*
X-123057367Y30937245D01*
X-122771451Y30860634D01*
X-122477999Y30822001D01*
X-122477990Y30822000D01*
X-122334000Y30822000D01*
X-122334000Y32105835D01*
X-122178984Y32075000D01*
X-121981016Y32075000D01*
X-121826000Y32105835D01*
X-121826000Y30822000D01*
X-121682010Y30822000D01*
X-121682000Y30822001D01*
X-121388548Y30860634D01*
X-121102632Y30937245D01*
X-120829167Y31050518D01*
X-120829156Y31050523D01*
X-120572825Y31198516D01*
X-120338008Y31378699D01*
X-120337987Y31378718D01*
X-120128717Y31587988D01*
X-120128698Y31588009D01*
X-119948515Y31822826D01*
X-119800522Y32079157D01*
X-119800517Y32079168D01*
X-119687244Y32352633D01*
X-119610633Y32638549D01*
X-119585956Y32826000D01*
X-121105834Y32826000D01*
X-121075000Y32981016D01*
X-121075000Y33178984D01*
X-121105834Y33334000D01*
X-119585956Y33334000D01*
X-119585955Y33334001D01*
X-119610633Y33521452D01*
X-119687244Y33807368D01*
X-119800517Y34080833D01*
X-119800522Y34080844D01*
X-119948515Y34337175D01*
X-120128698Y34571992D01*
X-120128717Y34572013D01*
X-120337987Y34781283D01*
X-120338008Y34781302D01*
X-120572825Y34961485D01*
X-120829156Y35109478D01*
X-120829167Y35109483D01*
X-121102632Y35222756D01*
X-121388548Y35299367D01*
X-121682000Y35338000D01*
X-121826000Y35338000D01*
X-121826000Y34054166D01*
X-121981016Y34085000D01*
X-122178984Y34085000D01*
X-122334000Y34054166D01*
X-122334000Y35338000D01*
X-122477999Y35338000D01*
X-122771451Y35299367D01*
X-123057367Y35222756D01*
X-123330832Y35109483D01*
X-123330843Y35109478D01*
X-123587174Y34961485D01*
X-123821991Y34781302D01*
X-123822012Y34781283D01*
X-124031282Y34572013D01*
X-124031301Y34571992D01*
X-124211484Y34337175D01*
X-124359477Y34080844D01*
X-124359482Y34080833D01*
X-124472755Y33807368D01*
X-124549366Y33521452D01*
X-124574044Y33334001D01*
X-130075277Y33334001D01*
X-130126096Y33523662D01*
X-130126098Y33523666D01*
X-130225966Y33737833D01*
X-130361498Y33931393D01*
X-130361507Y33931404D01*
X-130528596Y34098493D01*
X-130528602Y34098498D01*
X-130722169Y34234035D01*
X-130936334Y34333902D01*
X-130936338Y34333904D01*
X-131164588Y34395063D01*
X-131400000Y34415659D01*
X-131635411Y34395063D01*
X-131863661Y34333904D01*
X-131863665Y34333902D01*
X-132077832Y34234034D01*
X-132271392Y34098502D01*
X-132271397Y34098498D01*
X-132271401Y34098495D01*
X-132438495Y33931401D01*
X-132438498Y33931397D01*
X-132438501Y33931393D01*
X-132574033Y33737833D01*
X-132574034Y33737830D01*
X-132574035Y33737829D01*
X-132673903Y33523663D01*
X-132735063Y33295408D01*
X-132755659Y33060000D01*
X-134000000Y33060000D01*
X-134000000Y34965000D01*
X-127932971Y34965000D01*
X-127913113Y34712677D01*
X-127854028Y34466566D01*
X-127757167Y34232723D01*
X-127625822Y34018389D01*
X-127625820Y34018389D01*
X-126922698Y34721511D01*
X-126896022Y34657110D01*
X-126824888Y34550649D01*
X-126734351Y34460112D01*
X-126627890Y34388978D01*
X-126563489Y34362302D01*
X-127266611Y33659180D01*
X-127266611Y33659178D01*
X-127052277Y33527833D01*
X-126818434Y33430972D01*
X-126572323Y33371887D01*
X-126320000Y33352029D01*
X-126067676Y33371887D01*
X-125821565Y33430972D01*
X-125587727Y33527831D01*
X-125373387Y33659178D01*
X-125373387Y33659180D01*
X-126076510Y34362302D01*
X-126012110Y34388978D01*
X-125905649Y34460112D01*
X-125815112Y34550649D01*
X-125743978Y34657110D01*
X-125717301Y34721512D01*
X-125014178Y34018389D01*
X-125014177Y34018389D01*
X-124882830Y34232728D01*
X-124785971Y34466566D01*
X-124726886Y34712677D01*
X-124707028Y34965000D01*
X-124726886Y35217324D01*
X-124785971Y35463435D01*
X-124882830Y35697273D01*
X-125014176Y35911613D01*
X-125014178Y35911613D01*
X-125717301Y35208490D01*
X-125743978Y35272890D01*
X-125815112Y35379351D01*
X-125905649Y35469888D01*
X-126012110Y35541022D01*
X-126076510Y35567699D01*
X-125373387Y36270822D01*
X-125373387Y36270824D01*
X-125587727Y36402170D01*
X-125821565Y36499029D01*
X-126067676Y36558114D01*
X-126320000Y36577972D01*
X-126572323Y36558114D01*
X-126818434Y36499029D01*
X-127052272Y36402170D01*
X-127266611Y36270823D01*
X-127266611Y36270822D01*
X-126563488Y35567699D01*
X-126627890Y35541022D01*
X-126734351Y35469888D01*
X-126824888Y35379351D01*
X-126896022Y35272890D01*
X-126922697Y35208491D01*
X-127625820Y35911613D01*
X-127625822Y35911613D01*
X-127757169Y35697273D01*
X-127854028Y35463435D01*
X-127913113Y35217324D01*
X-127932971Y34965000D01*
X-134000000Y34965000D01*
X-134000000Y36870000D01*
X-133012971Y36870000D01*
X-132993113Y36617677D01*
X-132934028Y36371566D01*
X-132837167Y36137723D01*
X-132705822Y35923389D01*
X-132705820Y35923389D01*
X-132002698Y36626511D01*
X-131976022Y36562110D01*
X-131904888Y36455649D01*
X-131814351Y36365112D01*
X-131707890Y36293978D01*
X-131643489Y36267302D01*
X-132346611Y35564180D01*
X-132346611Y35564178D01*
X-132132277Y35432833D01*
X-131898434Y35335972D01*
X-131652323Y35276887D01*
X-131400000Y35257029D01*
X-131147676Y35276887D01*
X-130901565Y35335972D01*
X-130667727Y35432831D01*
X-130453387Y35564178D01*
X-130453387Y35564180D01*
X-131156510Y36267302D01*
X-131092110Y36293978D01*
X-130985649Y36365112D01*
X-130895112Y36455649D01*
X-130823978Y36562110D01*
X-130797301Y36626512D01*
X-130094178Y35923389D01*
X-130094177Y35923389D01*
X-129962830Y36137728D01*
X-129865971Y36371566D01*
X-129806886Y36617677D01*
X-129787028Y36870000D01*
X-129806886Y37122324D01*
X-129865971Y37368435D01*
X-129962830Y37602273D01*
X-130094176Y37816613D01*
X-130094178Y37816613D01*
X-130797301Y37113490D01*
X-130823978Y37177890D01*
X-130895112Y37284351D01*
X-130985649Y37374888D01*
X-131092110Y37446022D01*
X-131156510Y37472699D01*
X-130453387Y38175822D01*
X-130453387Y38175824D01*
X-130667727Y38307170D01*
X-130901565Y38404029D01*
X-131147676Y38463114D01*
X-131400000Y38482972D01*
X-131652323Y38463114D01*
X-131898434Y38404029D01*
X-132132272Y38307170D01*
X-132346611Y38175823D01*
X-132346611Y38175822D01*
X-131643488Y37472699D01*
X-131707890Y37446022D01*
X-131814351Y37374888D01*
X-131904888Y37284351D01*
X-131976022Y37177890D01*
X-132002697Y37113491D01*
X-132705820Y37816613D01*
X-132705822Y37816613D01*
X-132837169Y37602273D01*
X-132934028Y37368435D01*
X-132993113Y37122324D01*
X-133012971Y36870000D01*
X-134000000Y36870000D01*
X-134000000Y38775000D01*
X-127675659Y38775000D01*
X-127655063Y38539592D01*
X-127593903Y38311337D01*
X-127494035Y38097170D01*
X-127358495Y37903599D01*
X-127191401Y37736505D01*
X-126997830Y37600965D01*
X-126783663Y37501097D01*
X-126555408Y37439937D01*
X-126320000Y37419341D01*
X-126084592Y37439937D01*
X-125856337Y37501097D01*
X-125642170Y37600965D01*
X-125448599Y37736505D01*
X-125281505Y37903599D01*
X-125145965Y38097170D01*
X-125046097Y38311337D01*
X-125046096Y38311339D01*
X-124984937Y38539589D01*
X-124964341Y38775000D01*
X-124984937Y39010412D01*
X-125028770Y39174001D01*
X-124574044Y39174001D01*
X-124574044Y39174000D01*
X-123054166Y39174000D01*
X-123085000Y39018984D01*
X-123085000Y38821016D01*
X-123054166Y38666000D01*
X-124574044Y38666000D01*
X-124549366Y38478549D01*
X-124472755Y38192633D01*
X-124359482Y37919168D01*
X-124359477Y37919157D01*
X-124211484Y37662826D01*
X-124031301Y37428009D01*
X-124031282Y37427988D01*
X-123822012Y37218718D01*
X-123821991Y37218699D01*
X-123587174Y37038516D01*
X-123330843Y36890523D01*
X-123330832Y36890518D01*
X-123057367Y36777245D01*
X-122771451Y36700634D01*
X-122477999Y36662001D01*
X-122477990Y36662000D01*
X-122334000Y36662000D01*
X-122334000Y37945835D01*
X-122178984Y37915000D01*
X-121981016Y37915000D01*
X-121826000Y37945835D01*
X-121826000Y36662000D01*
X-121682010Y36662000D01*
X-121682000Y36662001D01*
X-121388548Y36700634D01*
X-121102632Y36777245D01*
X-120829167Y36890518D01*
X-120829156Y36890523D01*
X-120572825Y37038516D01*
X-120338008Y37218699D01*
X-120337987Y37218718D01*
X-120128717Y37427988D01*
X-120128698Y37428009D01*
X-119948515Y37662826D01*
X-119800522Y37919157D01*
X-119800517Y37919168D01*
X-119687244Y38192633D01*
X-119610633Y38478549D01*
X-119585956Y38666000D01*
X-121105834Y38666000D01*
X-121075000Y38821016D01*
X-121075000Y39018984D01*
X-121105834Y39174000D01*
X-119585956Y39174000D01*
X-119585955Y39174001D01*
X-119610633Y39361452D01*
X-119687244Y39647368D01*
X-119800517Y39920833D01*
X-119800522Y39920844D01*
X-119948515Y40177175D01*
X-120128698Y40411992D01*
X-120128717Y40412013D01*
X-120337987Y40621283D01*
X-120338008Y40621302D01*
X-120572825Y40801485D01*
X-120829156Y40949478D01*
X-120829167Y40949483D01*
X-121102632Y41062756D01*
X-121388548Y41139367D01*
X-121682000Y41178000D01*
X-121826000Y41178000D01*
X-121826000Y39894166D01*
X-121981016Y39925000D01*
X-122178984Y39925000D01*
X-122334000Y39894166D01*
X-122334000Y41178000D01*
X-122477999Y41178000D01*
X-122771451Y41139367D01*
X-123057367Y41062756D01*
X-123330832Y40949483D01*
X-123330843Y40949478D01*
X-123587174Y40801485D01*
X-123821991Y40621302D01*
X-123822012Y40621283D01*
X-124031282Y40412013D01*
X-124031301Y40411992D01*
X-124211484Y40177175D01*
X-124359477Y39920844D01*
X-124359482Y39920833D01*
X-124472755Y39647368D01*
X-124549366Y39361452D01*
X-124574044Y39174001D01*
X-125028770Y39174001D01*
X-125046096Y39238662D01*
X-125046098Y39238666D01*
X-125145966Y39452833D01*
X-125281498Y39646393D01*
X-125281507Y39646404D01*
X-125448596Y39813493D01*
X-125448602Y39813498D01*
X-125642169Y39949035D01*
X-125856334Y40048902D01*
X-125856338Y40048904D01*
X-126084588Y40110063D01*
X-126320000Y40130659D01*
X-126555411Y40110063D01*
X-126783661Y40048904D01*
X-126783665Y40048902D01*
X-126997832Y39949034D01*
X-127191392Y39813502D01*
X-127191397Y39813498D01*
X-127191401Y39813495D01*
X-127358495Y39646401D01*
X-127358498Y39646397D01*
X-127358501Y39646393D01*
X-127494033Y39452833D01*
X-127494034Y39452830D01*
X-127494035Y39452829D01*
X-127593903Y39238663D01*
X-127655063Y39010408D01*
X-127675659Y38775000D01*
X-134000000Y38775000D01*
X-134000000Y40680000D01*
X-132755659Y40680000D01*
X-132735063Y40444592D01*
X-132673903Y40216337D01*
X-132574035Y40002170D01*
X-132438495Y39808599D01*
X-132271401Y39641505D01*
X-132077830Y39505965D01*
X-131863663Y39406097D01*
X-131635408Y39344937D01*
X-131400000Y39324341D01*
X-131164592Y39344937D01*
X-130936337Y39406097D01*
X-130722170Y39505965D01*
X-130528599Y39641505D01*
X-130361505Y39808599D01*
X-130358074Y39813498D01*
X-130225965Y40002170D01*
X-130126098Y40216335D01*
X-130126096Y40216339D01*
X-130064937Y40444589D01*
X-130044341Y40680000D01*
X-130064937Y40915412D01*
X-130126096Y41143662D01*
X-130126098Y41143666D01*
X-130225966Y41357833D01*
X-130361498Y41551393D01*
X-130361507Y41551404D01*
X-130528596Y41718493D01*
X-130528602Y41718498D01*
X-130722169Y41854035D01*
X-130936334Y41953902D01*
X-130936338Y41953904D01*
X-131164588Y42015063D01*
X-131400000Y42035659D01*
X-131635411Y42015063D01*
X-131863661Y41953904D01*
X-131863665Y41953902D01*
X-132077832Y41854034D01*
X-132271392Y41718502D01*
X-132271397Y41718498D01*
X-132271401Y41718495D01*
X-132438495Y41551401D01*
X-132438498Y41551397D01*
X-132438501Y41551393D01*
X-132574033Y41357833D01*
X-132574034Y41357830D01*
X-132574035Y41357829D01*
X-132673903Y41143663D01*
X-132735063Y40915408D01*
X-132755659Y40680000D01*
X-134000000Y40680000D01*
X-134000000Y42585000D01*
X-127932971Y42585000D01*
X-127913113Y42332677D01*
X-127854028Y42086566D01*
X-127757167Y41852723D01*
X-127625822Y41638389D01*
X-127625820Y41638389D01*
X-126922698Y42341511D01*
X-126896022Y42277110D01*
X-126824888Y42170649D01*
X-126734351Y42080112D01*
X-126627890Y42008978D01*
X-126563489Y41982302D01*
X-127266611Y41279180D01*
X-127266611Y41279178D01*
X-127052277Y41147833D01*
X-126818434Y41050972D01*
X-126572323Y40991887D01*
X-126320000Y40972029D01*
X-126067676Y40991887D01*
X-125821565Y41050972D01*
X-125587727Y41147831D01*
X-125373387Y41279178D01*
X-125373387Y41279180D01*
X-126076510Y41982302D01*
X-126012110Y42008978D01*
X-125905649Y42080112D01*
X-125815112Y42170649D01*
X-125743978Y42277110D01*
X-125717301Y42341512D01*
X-125014178Y41638389D01*
X-125014177Y41638389D01*
X-124967843Y41714000D01*
X-118734074Y41714000D01*
X-117367195Y41714000D01*
X-117414674Y41631764D01*
X-117445000Y41518585D01*
X-117445000Y41401415D01*
X-117414674Y41288236D01*
X-117367195Y41206000D01*
X-118734074Y41206000D01*
X-118725791Y41153705D01*
X-118662173Y40957907D01*
X-118662170Y40957901D01*
X-118568699Y40774455D01*
X-118447684Y40607893D01*
X-118447682Y40607890D01*
X-118302110Y40462318D01*
X-118302107Y40462316D01*
X-118135545Y40341301D01*
X-117952099Y40247830D01*
X-117952093Y40247827D01*
X-117756294Y40184209D01*
X-117756298Y40184209D01*
X-117552939Y40152000D01*
X-117254000Y40152000D01*
X-117254000Y41092806D01*
X-117171764Y41045326D01*
X-117058585Y41015000D01*
X-116941415Y41015000D01*
X-116828236Y41045326D01*
X-116746000Y41092806D01*
X-116746000Y40152000D01*
X-116447061Y40152000D01*
X-116243703Y40184209D01*
X-116047906Y40247827D01*
X-116047900Y40247830D01*
X-115864454Y40341301D01*
X-115697892Y40462316D01*
X-115697889Y40462318D01*
X-115552317Y40607890D01*
X-115552315Y40607893D01*
X-115431300Y40774455D01*
X-115337829Y40957901D01*
X-115337826Y40957907D01*
X-115274208Y41153705D01*
X-115265926Y41206000D01*
X-116632805Y41206000D01*
X-116585326Y41288236D01*
X-116555000Y41401415D01*
X-116555000Y41518585D01*
X-116585326Y41631764D01*
X-116632805Y41714000D01*
X-115265926Y41714000D01*
X-115274208Y41766296D01*
X-115337826Y41962094D01*
X-115337829Y41962100D01*
X-115431300Y42145546D01*
X-115552315Y42312108D01*
X-115552317Y42312111D01*
X-115697889Y42457683D01*
X-115697892Y42457685D01*
X-115864454Y42578700D01*
X-116047900Y42672171D01*
X-116047906Y42672174D01*
X-116243705Y42735792D01*
X-116243708Y42735793D01*
X-116257862Y42738035D01*
X-116322014Y42768449D01*
X-116359539Y42828719D01*
X-116358523Y42899708D01*
X-116319288Y42958879D01*
X-116262728Y42986062D01*
X-116243580Y42989870D01*
X-116052402Y43069059D01*
X-115880345Y43184023D01*
X-115880343Y43184025D01*
X-115880337Y43184030D01*
X-115734029Y43330338D01*
X-115734024Y43330344D01*
X-115734023Y43330345D01*
X-115619059Y43502402D01*
X-115539870Y43693580D01*
X-115499500Y43896535D01*
X-115499500Y44103465D01*
X-115499500Y44103468D01*
X-115539870Y44306421D01*
X-115539872Y44306426D01*
X-115619059Y44497598D01*
X-115734024Y44669657D01*
X-115734029Y44669663D01*
X-115880337Y44815971D01*
X-115880343Y44815976D01*
X-116052402Y44930941D01*
X-116243574Y45010128D01*
X-116243579Y45010130D01*
X-116446532Y45050500D01*
X-116446535Y45050500D01*
X-117553465Y45050500D01*
X-117553467Y45050500D01*
X-117756420Y45010130D01*
X-117947598Y44930941D01*
X-118119655Y44815977D01*
X-118119656Y44815976D01*
X-118119662Y44815971D01*
X-118265970Y44669663D01*
X-118265975Y44669657D01*
X-118265977Y44669655D01*
X-118380941Y44497598D01*
X-118460130Y44306420D01*
X-118500500Y44103465D01*
X-118500500Y43896535D01*
X-118460130Y43693580D01*
X-118380941Y43502402D01*
X-118265977Y43330345D01*
X-118119655Y43184023D01*
X-117947598Y43069059D01*
X-117756420Y42989870D01*
X-117737271Y42986062D01*
X-117674363Y42953156D01*
X-117639230Y42891462D01*
X-117643028Y42820567D01*
X-117684552Y42762980D01*
X-117742138Y42738035D01*
X-117756290Y42735794D01*
X-117756294Y42735792D01*
X-117952093Y42672174D01*
X-117952099Y42672171D01*
X-118135545Y42578700D01*
X-118302107Y42457685D01*
X-118302110Y42457683D01*
X-118447682Y42312111D01*
X-118447684Y42312108D01*
X-118568699Y42145546D01*
X-118662170Y41962100D01*
X-118662173Y41962094D01*
X-118725791Y41766296D01*
X-118734074Y41714000D01*
X-124967843Y41714000D01*
X-124882830Y41852728D01*
X-124785971Y42086566D01*
X-124726886Y42332677D01*
X-124707028Y42585000D01*
X-124726886Y42837324D01*
X-124785971Y43083435D01*
X-124882830Y43317273D01*
X-125014176Y43531613D01*
X-125014178Y43531613D01*
X-125717301Y42828490D01*
X-125743978Y42892890D01*
X-125815112Y42999351D01*
X-125905649Y43089888D01*
X-126012110Y43161022D01*
X-126076510Y43187699D01*
X-125373387Y43890822D01*
X-125373387Y43890824D01*
X-125587727Y44022170D01*
X-125821565Y44119029D01*
X-126067676Y44178114D01*
X-126320000Y44197972D01*
X-126572323Y44178114D01*
X-126818434Y44119029D01*
X-127052272Y44022170D01*
X-127266611Y43890823D01*
X-127266611Y43890822D01*
X-126563488Y43187699D01*
X-126627890Y43161022D01*
X-126734351Y43089888D01*
X-126824888Y42999351D01*
X-126896022Y42892890D01*
X-126922697Y42828491D01*
X-127625820Y43531613D01*
X-127625822Y43531613D01*
X-127757169Y43317273D01*
X-127854028Y43083435D01*
X-127913113Y42837324D01*
X-127932971Y42585000D01*
X-134000000Y42585000D01*
X-134000000Y47026361D01*
X-133979998Y47094482D01*
X-133926342Y47140975D01*
X-133865762Y47152091D01*
X-133645572Y47137659D01*
X-133600003Y47134671D01*
X-133600000Y47134671D01*
X-133599997Y47134671D01*
X-133473837Y47142941D01*
X-133305620Y47153966D01*
X-133016278Y47211519D01*
X-132736923Y47306348D01*
X-132472335Y47436828D01*
X-132330226Y47531782D01*
X-132227044Y47600726D01*
X-132147804Y47670218D01*
X-132005242Y47795242D01*
X-131815583Y48011506D01*
X-131810725Y48017045D01*
X-131646826Y48262338D01*
X-131516351Y48526917D01*
X-131516348Y48526923D01*
X-131428113Y48786852D01*
X-131421520Y48806273D01*
X-131421518Y48806280D01*
X-131363968Y49095607D01*
X-131363965Y49095625D01*
X-131348341Y49334001D01*
X-124574044Y49334001D01*
X-124574044Y49334000D01*
X-123054166Y49334000D01*
X-123085000Y49178984D01*
X-123085000Y48981016D01*
X-123054166Y48826000D01*
X-124574044Y48826000D01*
X-124549366Y48638549D01*
X-124472755Y48352633D01*
X-124359482Y48079168D01*
X-124359477Y48079157D01*
X-124211484Y47822826D01*
X-124031301Y47588009D01*
X-124031282Y47587988D01*
X-123822012Y47378718D01*
X-123821991Y47378699D01*
X-123587174Y47198516D01*
X-123330843Y47050523D01*
X-123330832Y47050518D01*
X-123057367Y46937245D01*
X-122771451Y46860634D01*
X-122477999Y46822001D01*
X-122477990Y46822000D01*
X-122334000Y46822000D01*
X-122334000Y48105835D01*
X-122178984Y48075000D01*
X-121981016Y48075000D01*
X-121826000Y48105835D01*
X-121826000Y46822000D01*
X-121682010Y46822000D01*
X-121682000Y46822001D01*
X-121388548Y46860634D01*
X-121102632Y46937245D01*
X-120829167Y47050518D01*
X-120829156Y47050523D01*
X-120572825Y47198516D01*
X-120338008Y47378699D01*
X-120337987Y47378718D01*
X-120216703Y47500002D01*
X-97155278Y47500002D01*
X-97155278Y47500000D01*
X-97151419Y47468220D01*
X-97150500Y47453031D01*
X-97150500Y31546970D01*
X-97151419Y31531782D01*
X-97155278Y31500002D01*
X-97155278Y31500000D01*
X-97151419Y31468220D01*
X-97150500Y31453031D01*
X-97150500Y15546970D01*
X-97151419Y15531782D01*
X-97155278Y15500002D01*
X-97155278Y15500000D01*
X-97151419Y15468220D01*
X-97150500Y15453031D01*
X-97150500Y13455929D01*
X-97125501Y13330254D01*
X-97076465Y13211871D01*
X-97027509Y13138603D01*
X-97021735Y13129962D01*
X-97000520Y13062209D01*
X-97000500Y13059960D01*
X-97000500Y459281D01*
X-97020502Y391160D01*
X-97022804Y387705D01*
X-97080220Y304523D01*
X-97123888Y189380D01*
X-97136238Y156816D01*
X-97152850Y20000D01*
X-97155278Y0D01*
X-97136237Y-156818D01*
X-97080220Y-304523D01*
X-97028053Y-380099D01*
X-97022804Y-387704D01*
X-97000568Y-455129D01*
X-97000500Y-459280D01*
X-97000500Y-15540719D01*
X-97020502Y-15608840D01*
X-97022804Y-15612295D01*
X-97080220Y-15695477D01*
X-97120551Y-15801821D01*
X-97136238Y-15843184D01*
X-97155278Y-15999996D01*
X-97155278Y-16000000D01*
X-97136237Y-16156818D01*
X-97080220Y-16304523D01*
X-97022804Y-16387704D01*
X-97000568Y-16455129D01*
X-97000500Y-16459280D01*
X-97000500Y-32540719D01*
X-97020502Y-32608840D01*
X-97022804Y-32612295D01*
X-97080220Y-32695477D01*
X-97123980Y-32810865D01*
X-97136238Y-32843184D01*
X-97155278Y-32999996D01*
X-97155278Y-33000003D01*
X-97136238Y-33156815D01*
X-97136237Y-33156817D01*
X-97136237Y-33156818D01*
X-97080220Y-33304523D01*
X-96990483Y-33434530D01*
X-96872240Y-33539283D01*
X-96732365Y-33612696D01*
X-96578985Y-33650500D01*
X-96578983Y-33650500D01*
X-96421017Y-33650500D01*
X-96421015Y-33650500D01*
X-96344325Y-33631598D01*
X-96267638Y-33612697D01*
X-96267636Y-33612696D01*
X-96267635Y-33612696D01*
X-96127760Y-33539283D01*
X-96009517Y-33434530D01*
X-95995993Y-33414937D01*
X-95919783Y-33304529D01*
X-95919782Y-33304526D01*
X-95919781Y-33304525D01*
X-95919780Y-33304523D01*
X-95891771Y-33230670D01*
X-95863761Y-33156815D01*
X-95844722Y-33000003D01*
X-95844722Y-32999996D01*
X-95863761Y-32843184D01*
X-95919781Y-32695474D01*
X-95977196Y-32612295D01*
X-95999432Y-32544870D01*
X-95999500Y-32540719D01*
X-95999500Y-27665999D01*
X26163455Y-27665999D01*
X26163456Y-27666000D01*
X27069297Y-27666000D01*
X27034075Y-27727007D01*
X27000000Y-27854174D01*
X27000000Y-27985826D01*
X27034075Y-28112993D01*
X27069297Y-28174000D01*
X26163455Y-28174000D01*
X26211176Y-28362449D01*
X26211179Y-28362456D01*
X26301580Y-28568548D01*
X26424674Y-28756958D01*
X26577097Y-28922534D01*
X26754698Y-29060767D01*
X26754699Y-29060768D01*
X26788734Y-29079187D01*
X26839123Y-29129201D01*
X26854475Y-29198518D01*
X26829913Y-29265130D01*
X26788734Y-29300813D01*
X26754699Y-29319231D01*
X26754698Y-29319232D01*
X26577097Y-29457465D01*
X26424674Y-29623041D01*
X26301580Y-29811451D01*
X26211179Y-30017543D01*
X26211176Y-30017550D01*
X26163455Y-30205999D01*
X26163456Y-30206000D01*
X27069297Y-30206000D01*
X27034075Y-30267007D01*
X27000000Y-30394174D01*
X27000000Y-30525826D01*
X27034075Y-30652993D01*
X27069297Y-30714000D01*
X26163455Y-30714000D01*
X26211176Y-30902449D01*
X26211179Y-30902456D01*
X26301580Y-31108548D01*
X26424674Y-31296958D01*
X26577097Y-31462534D01*
X26754698Y-31600767D01*
X26754699Y-31600768D01*
X26952628Y-31707882D01*
X26952630Y-31707883D01*
X27165483Y-31780955D01*
X27165492Y-31780957D01*
X27246000Y-31794391D01*
X27246000Y-30890702D01*
X27307007Y-30925925D01*
X27434174Y-30960000D01*
X27565826Y-30960000D01*
X27692993Y-30925925D01*
X27754000Y-30890702D01*
X27754000Y-31794390D01*
X27834507Y-31780957D01*
X27834516Y-31780955D01*
X28047369Y-31707883D01*
X28047371Y-31707882D01*
X28245300Y-31600768D01*
X28245301Y-31600767D01*
X28422902Y-31462534D01*
X28575327Y-31296955D01*
X28664517Y-31160441D01*
X28718521Y-31114352D01*
X28788868Y-31104777D01*
X28853226Y-31134754D01*
X28875483Y-31160441D01*
X28964672Y-31296955D01*
X29117097Y-31462534D01*
X29294698Y-31600767D01*
X29294699Y-31600768D01*
X29492628Y-31707882D01*
X29492630Y-31707883D01*
X29705483Y-31780955D01*
X29705492Y-31780957D01*
X29786000Y-31794391D01*
X29786000Y-30890702D01*
X29847007Y-30925925D01*
X29974174Y-30960000D01*
X30105826Y-30960000D01*
X30232993Y-30925925D01*
X30294000Y-30890702D01*
X30294000Y-31794390D01*
X30374507Y-31780957D01*
X30374516Y-31780955D01*
X30587369Y-31707883D01*
X30587371Y-31707882D01*
X30785300Y-31600768D01*
X30785301Y-31600767D01*
X30962902Y-31462534D01*
X31115325Y-31296958D01*
X31238419Y-31108548D01*
X31328820Y-30902456D01*
X31328823Y-30902449D01*
X31376544Y-30714000D01*
X30470703Y-30714000D01*
X30505925Y-30652993D01*
X30540000Y-30525826D01*
X30540000Y-30394174D01*
X30505925Y-30267007D01*
X30470703Y-30206000D01*
X31376544Y-30206000D01*
X31376544Y-30205999D01*
X31328823Y-30017550D01*
X31328820Y-30017543D01*
X31238419Y-29811451D01*
X31115325Y-29623041D01*
X30962902Y-29457465D01*
X30785301Y-29319232D01*
X30785300Y-29319231D01*
X30587371Y-29212117D01*
X30587368Y-29212116D01*
X30470324Y-29171935D01*
X30412389Y-29130898D01*
X30385837Y-29065053D01*
X30399099Y-28995306D01*
X30447963Y-28943801D01*
X30465707Y-28935276D01*
X30532637Y-28909348D01*
X30706041Y-28801981D01*
X30856764Y-28664579D01*
X30979673Y-28501821D01*
X31070582Y-28319250D01*
X31126397Y-28123083D01*
X31145215Y-27920000D01*
X31126397Y-27716917D01*
X31070582Y-27520750D01*
X30979673Y-27338179D01*
X30950363Y-27299366D01*
X30856765Y-27175421D01*
X30706040Y-27038018D01*
X30706039Y-27038017D01*
X30532648Y-26930658D01*
X30532641Y-26930654D01*
X30532637Y-26930652D01*
X30416133Y-26885518D01*
X30342457Y-26856976D01*
X30275629Y-26844484D01*
X30141976Y-26819500D01*
X29938024Y-26819500D01*
X29837784Y-26838238D01*
X29737542Y-26856976D01*
X29590190Y-26914060D01*
X29547363Y-26930652D01*
X29547362Y-26930652D01*
X29547361Y-26930653D01*
X29547351Y-26930658D01*
X29373960Y-27038017D01*
X29373959Y-27038018D01*
X29223234Y-27175421D01*
X29100329Y-27338175D01*
X29100327Y-27338178D01*
X29100327Y-27338179D01*
X29030933Y-27477543D01*
X29021827Y-27495830D01*
X28973558Y-27547893D01*
X28904803Y-27565596D01*
X28837393Y-27543317D01*
X28792729Y-27488130D01*
X28789863Y-27480579D01*
X28788821Y-27477544D01*
X28698419Y-27271451D01*
X28575325Y-27083041D01*
X28422902Y-26917465D01*
X28245301Y-26779232D01*
X28245300Y-26779231D01*
X28047371Y-26672117D01*
X28047368Y-26672116D01*
X27930324Y-26631935D01*
X27872389Y-26590898D01*
X27845837Y-26525053D01*
X27859099Y-26455306D01*
X27907963Y-26403801D01*
X27925707Y-26395276D01*
X27992637Y-26369348D01*
X28166041Y-26261981D01*
X28316764Y-26124579D01*
X28439673Y-25961821D01*
X28530582Y-25779250D01*
X28586397Y-25583083D01*
X28605215Y-25380000D01*
X28934785Y-25380000D01*
X28953603Y-25583084D01*
X29009416Y-25779245D01*
X29009417Y-25779247D01*
X29009418Y-25779250D01*
X29100327Y-25961821D01*
X29100328Y-25961822D01*
X29100329Y-25961824D01*
X29223234Y-26124578D01*
X29373959Y-26261981D01*
X29373960Y-26261982D01*
X29547351Y-26369341D01*
X29547354Y-26369342D01*
X29547363Y-26369348D01*
X29737544Y-26443024D01*
X29938024Y-26480500D01*
X29938026Y-26480500D01*
X30141974Y-26480500D01*
X30141976Y-26480500D01*
X30342456Y-26443024D01*
X30532637Y-26369348D01*
X30706041Y-26261981D01*
X30856764Y-26124579D01*
X30979673Y-25961821D01*
X31070582Y-25779250D01*
X31126397Y-25583083D01*
X31145215Y-25380000D01*
X31126397Y-25176917D01*
X31070582Y-24980750D01*
X30979673Y-24798179D01*
X30971119Y-24786852D01*
X30856765Y-24635421D01*
X30706040Y-24498018D01*
X30706039Y-24498017D01*
X30532648Y-24390658D01*
X30532641Y-24390654D01*
X30532637Y-24390652D01*
X30416133Y-24345518D01*
X30342457Y-24316976D01*
X30248245Y-24299365D01*
X30141976Y-24279500D01*
X29938024Y-24279500D01*
X29837784Y-24298238D01*
X29737542Y-24316976D01*
X29590190Y-24374060D01*
X29547363Y-24390652D01*
X29547362Y-24390652D01*
X29547361Y-24390653D01*
X29547351Y-24390658D01*
X29373960Y-24498017D01*
X29373959Y-24498018D01*
X29223234Y-24635421D01*
X29100329Y-24798175D01*
X29009416Y-24980754D01*
X28953603Y-25176915D01*
X28934785Y-25380000D01*
X28605215Y-25380000D01*
X28586397Y-25176917D01*
X28530582Y-24980750D01*
X28439673Y-24798179D01*
X28431119Y-24786852D01*
X28316765Y-24635421D01*
X28166040Y-24498018D01*
X28166039Y-24498017D01*
X27992648Y-24390658D01*
X27992641Y-24390654D01*
X27992637Y-24390652D01*
X27876133Y-24345518D01*
X27802457Y-24316976D01*
X27708245Y-24299365D01*
X27601976Y-24279500D01*
X27398024Y-24279500D01*
X27297784Y-24298238D01*
X27197542Y-24316976D01*
X27050190Y-24374060D01*
X27007363Y-24390652D01*
X27007362Y-24390652D01*
X27007361Y-24390653D01*
X27007351Y-24390658D01*
X26833960Y-24498017D01*
X26833959Y-24498018D01*
X26683234Y-24635421D01*
X26560329Y-24798175D01*
X26469416Y-24980754D01*
X26413603Y-25176915D01*
X26394785Y-25380000D01*
X26413603Y-25583084D01*
X26469416Y-25779245D01*
X26469417Y-25779247D01*
X26469418Y-25779250D01*
X26560327Y-25961821D01*
X26560328Y-25961822D01*
X26560329Y-25961824D01*
X26683234Y-26124578D01*
X26833959Y-26261981D01*
X26833960Y-26261982D01*
X27007351Y-26369341D01*
X27007356Y-26369343D01*
X27007363Y-26369348D01*
X27074280Y-26395271D01*
X27130574Y-26438529D01*
X27154545Y-26505356D01*
X27138582Y-26574535D01*
X27087751Y-26624101D01*
X27069676Y-26631935D01*
X26952628Y-26672118D01*
X26754699Y-26779231D01*
X26754698Y-26779232D01*
X26577097Y-26917465D01*
X26424674Y-27083041D01*
X26301580Y-27271451D01*
X26211179Y-27477543D01*
X26211176Y-27477550D01*
X26163455Y-27665999D01*
X-95999500Y-27665999D01*
X-95999500Y-22840000D01*
X26394785Y-22840000D01*
X26413603Y-23043084D01*
X26469416Y-23239245D01*
X26469417Y-23239247D01*
X26469418Y-23239250D01*
X26560327Y-23421821D01*
X26560328Y-23421822D01*
X26560329Y-23421824D01*
X26683234Y-23584578D01*
X26833959Y-23721981D01*
X26833960Y-23721982D01*
X27007351Y-23829341D01*
X27007354Y-23829342D01*
X27007363Y-23829348D01*
X27197544Y-23903024D01*
X27398024Y-23940500D01*
X27398026Y-23940500D01*
X27601974Y-23940500D01*
X27601976Y-23940500D01*
X27802456Y-23903024D01*
X27992637Y-23829348D01*
X28166041Y-23721981D01*
X28316764Y-23584579D01*
X28439673Y-23421821D01*
X28530582Y-23239250D01*
X28586397Y-23043083D01*
X28605215Y-22840000D01*
X28934785Y-22840000D01*
X28953603Y-23043084D01*
X29009416Y-23239245D01*
X29009417Y-23239247D01*
X29009418Y-23239250D01*
X29100327Y-23421821D01*
X29100328Y-23421822D01*
X29100329Y-23421824D01*
X29223234Y-23584578D01*
X29373959Y-23721981D01*
X29373960Y-23721982D01*
X29547351Y-23829341D01*
X29547354Y-23829342D01*
X29547363Y-23829348D01*
X29737544Y-23903024D01*
X29938024Y-23940500D01*
X29938026Y-23940500D01*
X30141974Y-23940500D01*
X30141976Y-23940500D01*
X30342456Y-23903024D01*
X30532637Y-23829348D01*
X30706041Y-23721981D01*
X30856764Y-23584579D01*
X30979673Y-23421821D01*
X31070582Y-23239250D01*
X31126397Y-23043083D01*
X31145215Y-22840000D01*
X31126397Y-22636917D01*
X31070582Y-22440750D01*
X30979673Y-22258179D01*
X30979670Y-22258175D01*
X30856765Y-22095421D01*
X30706040Y-21958018D01*
X30706039Y-21958017D01*
X30532648Y-21850658D01*
X30532641Y-21850654D01*
X30532637Y-21850652D01*
X30416133Y-21805518D01*
X30342457Y-21776976D01*
X30275629Y-21764484D01*
X30141976Y-21739500D01*
X29938024Y-21739500D01*
X29837784Y-21758238D01*
X29737542Y-21776976D01*
X29590190Y-21834060D01*
X29547363Y-21850652D01*
X29547362Y-21850652D01*
X29547361Y-21850653D01*
X29547351Y-21850658D01*
X29373960Y-21958017D01*
X29373959Y-21958018D01*
X29223234Y-22095421D01*
X29100329Y-22258175D01*
X29009416Y-22440754D01*
X28953603Y-22636915D01*
X28934785Y-22840000D01*
X28605215Y-22840000D01*
X28586397Y-22636917D01*
X28530582Y-22440750D01*
X28439673Y-22258179D01*
X28439670Y-22258175D01*
X28316765Y-22095421D01*
X28166040Y-21958018D01*
X28166039Y-21958017D01*
X27992648Y-21850658D01*
X27992641Y-21850654D01*
X27992637Y-21850652D01*
X27876133Y-21805518D01*
X27802457Y-21776976D01*
X27735629Y-21764484D01*
X27601976Y-21739500D01*
X27398024Y-21739500D01*
X27297784Y-21758238D01*
X27197542Y-21776976D01*
X27050190Y-21834060D01*
X27007363Y-21850652D01*
X27007362Y-21850652D01*
X27007361Y-21850653D01*
X27007351Y-21850658D01*
X26833960Y-21958017D01*
X26833959Y-21958018D01*
X26683234Y-22095421D01*
X26560329Y-22258175D01*
X26469416Y-22440754D01*
X26413603Y-22636915D01*
X26394785Y-22840000D01*
X-95999500Y-22840000D01*
X-95999500Y-20300000D01*
X26394785Y-20300000D01*
X26413603Y-20503084D01*
X26469416Y-20699245D01*
X26469417Y-20699247D01*
X26469418Y-20699250D01*
X26560327Y-20881821D01*
X26560328Y-20881822D01*
X26560329Y-20881824D01*
X26683234Y-21044578D01*
X26833959Y-21181981D01*
X26833960Y-21181982D01*
X27007351Y-21289341D01*
X27007354Y-21289342D01*
X27007363Y-21289348D01*
X27197544Y-21363024D01*
X27398024Y-21400500D01*
X27398026Y-21400500D01*
X27601974Y-21400500D01*
X27601976Y-21400500D01*
X27802456Y-21363024D01*
X27992637Y-21289348D01*
X28166041Y-21181981D01*
X28316764Y-21044579D01*
X28319376Y-21041121D01*
X28402580Y-20930940D01*
X28439673Y-20881821D01*
X28530582Y-20699250D01*
X28586397Y-20503083D01*
X28605215Y-20300000D01*
X28934785Y-20300000D01*
X28953603Y-20503084D01*
X29009416Y-20699245D01*
X29009417Y-20699247D01*
X29009418Y-20699250D01*
X29100327Y-20881821D01*
X29100328Y-20881822D01*
X29100329Y-20881824D01*
X29223234Y-21044578D01*
X29373959Y-21181981D01*
X29373960Y-21181982D01*
X29547351Y-21289341D01*
X29547354Y-21289342D01*
X29547363Y-21289348D01*
X29737544Y-21363024D01*
X29938024Y-21400500D01*
X29938026Y-21400500D01*
X30141974Y-21400500D01*
X30141976Y-21400500D01*
X30342456Y-21363024D01*
X30532637Y-21289348D01*
X30706041Y-21181981D01*
X30856764Y-21044579D01*
X30859376Y-21041121D01*
X30942580Y-20930940D01*
X30979673Y-20881821D01*
X31070582Y-20699250D01*
X31126397Y-20503083D01*
X31145215Y-20300000D01*
X31126397Y-20096917D01*
X31070582Y-19900750D01*
X30979673Y-19718179D01*
X30961092Y-19693574D01*
X30856765Y-19555421D01*
X30706040Y-19418018D01*
X30706039Y-19418017D01*
X30532648Y-19310658D01*
X30532641Y-19310654D01*
X30532637Y-19310652D01*
X30416133Y-19265518D01*
X30342457Y-19236976D01*
X30275629Y-19224484D01*
X30141976Y-19199500D01*
X29938024Y-19199500D01*
X29837784Y-19218238D01*
X29737542Y-19236976D01*
X29590190Y-19294060D01*
X29547363Y-19310652D01*
X29547362Y-19310652D01*
X29547361Y-19310653D01*
X29547351Y-19310658D01*
X29373960Y-19418017D01*
X29373959Y-19418018D01*
X29223234Y-19555421D01*
X29100329Y-19718175D01*
X29009416Y-19900754D01*
X28953603Y-20096915D01*
X28934785Y-20300000D01*
X28605215Y-20300000D01*
X28586397Y-20096917D01*
X28530582Y-19900750D01*
X28439673Y-19718179D01*
X28421092Y-19693574D01*
X28316765Y-19555421D01*
X28166040Y-19418018D01*
X28166039Y-19418017D01*
X27992648Y-19310658D01*
X27992641Y-19310654D01*
X27992637Y-19310652D01*
X27876133Y-19265518D01*
X27802457Y-19236976D01*
X27735629Y-19224484D01*
X27601976Y-19199500D01*
X27398024Y-19199500D01*
X27297784Y-19218238D01*
X27197542Y-19236976D01*
X27050190Y-19294060D01*
X27007363Y-19310652D01*
X27007362Y-19310652D01*
X27007361Y-19310653D01*
X27007351Y-19310658D01*
X26833960Y-19418017D01*
X26833959Y-19418018D01*
X26683234Y-19555421D01*
X26560329Y-19718175D01*
X26469416Y-19900754D01*
X26413603Y-20096915D01*
X26394785Y-20300000D01*
X-95999500Y-20300000D01*
X-95999500Y-17760000D01*
X26394785Y-17760000D01*
X26413603Y-17963084D01*
X26469416Y-18159245D01*
X26469417Y-18159247D01*
X26469418Y-18159250D01*
X26560327Y-18341821D01*
X26560328Y-18341822D01*
X26560329Y-18341824D01*
X26683234Y-18504578D01*
X26833959Y-18641981D01*
X26833960Y-18641982D01*
X27007351Y-18749341D01*
X27007354Y-18749342D01*
X27007363Y-18749348D01*
X27197544Y-18823024D01*
X27398024Y-18860500D01*
X27398026Y-18860500D01*
X27601974Y-18860500D01*
X27601976Y-18860500D01*
X27802456Y-18823024D01*
X27992637Y-18749348D01*
X28166041Y-18641981D01*
X28316764Y-18504579D01*
X28439673Y-18341821D01*
X28530582Y-18159250D01*
X28586397Y-17963083D01*
X28605215Y-17760000D01*
X28934785Y-17760000D01*
X28953603Y-17963084D01*
X29009416Y-18159245D01*
X29009417Y-18159247D01*
X29009418Y-18159250D01*
X29100327Y-18341821D01*
X29100328Y-18341822D01*
X29100329Y-18341824D01*
X29223234Y-18504578D01*
X29373959Y-18641981D01*
X29373960Y-18641982D01*
X29547351Y-18749341D01*
X29547354Y-18749342D01*
X29547363Y-18749348D01*
X29737544Y-18823024D01*
X29938024Y-18860500D01*
X29938026Y-18860500D01*
X30141974Y-18860500D01*
X30141976Y-18860500D01*
X30342456Y-18823024D01*
X30532637Y-18749348D01*
X30706041Y-18641981D01*
X30856764Y-18504579D01*
X30979673Y-18341821D01*
X31070582Y-18159250D01*
X31126397Y-17963083D01*
X31145215Y-17760000D01*
X31126397Y-17556917D01*
X31070582Y-17360750D01*
X30979673Y-17178179D01*
X30950363Y-17139366D01*
X30856765Y-17015421D01*
X30706040Y-16878018D01*
X30706039Y-16878017D01*
X30532648Y-16770658D01*
X30532641Y-16770654D01*
X30532637Y-16770652D01*
X30416133Y-16725518D01*
X30342457Y-16696976D01*
X30275629Y-16684484D01*
X30141976Y-16659500D01*
X29938024Y-16659500D01*
X29837784Y-16678238D01*
X29737542Y-16696976D01*
X29590190Y-16754060D01*
X29547363Y-16770652D01*
X29547362Y-16770652D01*
X29547361Y-16770653D01*
X29547351Y-16770658D01*
X29373960Y-16878017D01*
X29373959Y-16878018D01*
X29223234Y-17015421D01*
X29100329Y-17178175D01*
X29009416Y-17360754D01*
X28953603Y-17556915D01*
X28934785Y-17760000D01*
X28605215Y-17760000D01*
X28586397Y-17556917D01*
X28530582Y-17360750D01*
X28439673Y-17178179D01*
X28410363Y-17139366D01*
X28316765Y-17015421D01*
X28166040Y-16878018D01*
X28166039Y-16878017D01*
X27992648Y-16770658D01*
X27992641Y-16770654D01*
X27992637Y-16770652D01*
X27876133Y-16725518D01*
X27802457Y-16696976D01*
X27735629Y-16684484D01*
X27601976Y-16659500D01*
X27398024Y-16659500D01*
X27297784Y-16678238D01*
X27197542Y-16696976D01*
X27050190Y-16754060D01*
X27007363Y-16770652D01*
X27007362Y-16770652D01*
X27007361Y-16770653D01*
X27007351Y-16770658D01*
X26833960Y-16878017D01*
X26833959Y-16878018D01*
X26683234Y-17015421D01*
X26560329Y-17178175D01*
X26469416Y-17360754D01*
X26413603Y-17556915D01*
X26394785Y-17760000D01*
X-95999500Y-17760000D01*
X-95999500Y-16459280D01*
X-95979498Y-16391159D01*
X-95977196Y-16387704D01*
X-95919782Y-16304526D01*
X-95919778Y-16304518D01*
X-95863762Y-16156816D01*
X-95844722Y-16000003D01*
X-95844722Y-15999996D01*
X-95863761Y-15843184D01*
X-95919781Y-15695474D01*
X-95977196Y-15612295D01*
X-95999432Y-15544870D01*
X-95999500Y-15540719D01*
X-95999500Y-15220000D01*
X26394785Y-15220000D01*
X26413603Y-15423084D01*
X26469416Y-15619245D01*
X26469417Y-15619247D01*
X26469418Y-15619250D01*
X26560327Y-15801821D01*
X26560328Y-15801822D01*
X26560329Y-15801824D01*
X26683234Y-15964578D01*
X26833959Y-16101981D01*
X26833960Y-16101982D01*
X27007351Y-16209341D01*
X27007354Y-16209342D01*
X27007363Y-16209348D01*
X27197544Y-16283024D01*
X27398024Y-16320500D01*
X27398026Y-16320500D01*
X27601974Y-16320500D01*
X27601976Y-16320500D01*
X27802456Y-16283024D01*
X27992637Y-16209348D01*
X28166041Y-16101981D01*
X28316764Y-15964579D01*
X28439673Y-15801821D01*
X28530582Y-15619250D01*
X28586397Y-15423083D01*
X28605215Y-15220000D01*
X28934785Y-15220000D01*
X28953603Y-15423084D01*
X29009416Y-15619245D01*
X29009417Y-15619247D01*
X29009418Y-15619250D01*
X29100327Y-15801821D01*
X29100328Y-15801822D01*
X29100329Y-15801824D01*
X29223234Y-15964578D01*
X29373959Y-16101981D01*
X29373960Y-16101982D01*
X29547351Y-16209341D01*
X29547354Y-16209342D01*
X29547363Y-16209348D01*
X29737544Y-16283024D01*
X29938024Y-16320500D01*
X29938026Y-16320500D01*
X30141974Y-16320500D01*
X30141976Y-16320500D01*
X30342456Y-16283024D01*
X30532637Y-16209348D01*
X30706041Y-16101981D01*
X30856764Y-15964579D01*
X30979673Y-15801821D01*
X31070582Y-15619250D01*
X31126397Y-15423083D01*
X31145215Y-15220000D01*
X31126397Y-15016917D01*
X31070582Y-14820750D01*
X30979673Y-14638179D01*
X30971119Y-14626852D01*
X30856765Y-14475421D01*
X30706040Y-14338018D01*
X30706039Y-14338017D01*
X30532648Y-14230658D01*
X30532641Y-14230654D01*
X30532637Y-14230652D01*
X30416133Y-14185518D01*
X30342457Y-14156976D01*
X30248245Y-14139365D01*
X30141976Y-14119500D01*
X29938024Y-14119500D01*
X29837784Y-14138238D01*
X29737542Y-14156976D01*
X29590190Y-14214060D01*
X29547363Y-14230652D01*
X29547362Y-14230652D01*
X29547361Y-14230653D01*
X29547351Y-14230658D01*
X29373960Y-14338017D01*
X29373959Y-14338018D01*
X29223234Y-14475421D01*
X29100329Y-14638175D01*
X29009416Y-14820754D01*
X28953603Y-15016915D01*
X28934785Y-15220000D01*
X28605215Y-15220000D01*
X28586397Y-15016917D01*
X28530582Y-14820750D01*
X28439673Y-14638179D01*
X28431119Y-14626852D01*
X28316765Y-14475421D01*
X28166040Y-14338018D01*
X28166039Y-14338017D01*
X27992648Y-14230658D01*
X27992641Y-14230654D01*
X27992637Y-14230652D01*
X27876133Y-14185518D01*
X27802457Y-14156976D01*
X27708245Y-14139365D01*
X27601976Y-14119500D01*
X27398024Y-14119500D01*
X27297784Y-14138238D01*
X27197542Y-14156976D01*
X27050190Y-14214060D01*
X27007363Y-14230652D01*
X27007362Y-14230652D01*
X27007361Y-14230653D01*
X27007351Y-14230658D01*
X26833960Y-14338017D01*
X26833959Y-14338018D01*
X26683234Y-14475421D01*
X26560329Y-14638175D01*
X26469416Y-14820754D01*
X26413603Y-15016915D01*
X26394785Y-15220000D01*
X-95999500Y-15220000D01*
X-95999500Y-12680000D01*
X26394785Y-12680000D01*
X26413603Y-12883084D01*
X26469416Y-13079245D01*
X26469417Y-13079247D01*
X26469418Y-13079250D01*
X26560327Y-13261821D01*
X26560328Y-13261822D01*
X26560329Y-13261824D01*
X26683234Y-13424578D01*
X26833959Y-13561981D01*
X26833960Y-13561982D01*
X27007351Y-13669341D01*
X27007354Y-13669342D01*
X27007363Y-13669348D01*
X27197544Y-13743024D01*
X27398024Y-13780500D01*
X27398026Y-13780500D01*
X27601974Y-13780500D01*
X27601976Y-13780500D01*
X27802456Y-13743024D01*
X27992637Y-13669348D01*
X28166041Y-13561981D01*
X28316764Y-13424579D01*
X28439673Y-13261821D01*
X28530582Y-13079250D01*
X28586397Y-12883083D01*
X28605215Y-12680000D01*
X28934785Y-12680000D01*
X28953603Y-12883084D01*
X29009416Y-13079245D01*
X29009417Y-13079247D01*
X29009418Y-13079250D01*
X29100327Y-13261821D01*
X29100328Y-13261822D01*
X29100329Y-13261824D01*
X29223234Y-13424578D01*
X29373959Y-13561981D01*
X29373960Y-13561982D01*
X29547351Y-13669341D01*
X29547354Y-13669342D01*
X29547363Y-13669348D01*
X29737544Y-13743024D01*
X29938024Y-13780500D01*
X29938026Y-13780500D01*
X30141974Y-13780500D01*
X30141976Y-13780500D01*
X30342456Y-13743024D01*
X30532637Y-13669348D01*
X30706041Y-13561981D01*
X30856764Y-13424579D01*
X30979673Y-13261821D01*
X31070582Y-13079250D01*
X31126397Y-12883083D01*
X31145215Y-12680000D01*
X31126397Y-12476917D01*
X31070582Y-12280750D01*
X30979673Y-12098179D01*
X30979670Y-12098175D01*
X30856765Y-11935421D01*
X30706040Y-11798018D01*
X30706039Y-11798017D01*
X30532648Y-11690658D01*
X30532641Y-11690654D01*
X30532637Y-11690652D01*
X30416133Y-11645518D01*
X30342457Y-11616976D01*
X30275629Y-11604484D01*
X30141976Y-11579500D01*
X29938024Y-11579500D01*
X29837784Y-11598238D01*
X29737542Y-11616976D01*
X29590190Y-11674060D01*
X29547363Y-11690652D01*
X29547362Y-11690652D01*
X29547361Y-11690653D01*
X29547351Y-11690658D01*
X29373960Y-11798017D01*
X29373959Y-11798018D01*
X29223234Y-11935421D01*
X29100329Y-12098175D01*
X29009416Y-12280754D01*
X28953603Y-12476915D01*
X28934785Y-12680000D01*
X28605215Y-12680000D01*
X28586397Y-12476917D01*
X28530582Y-12280750D01*
X28439673Y-12098179D01*
X28439670Y-12098175D01*
X28316765Y-11935421D01*
X28166040Y-11798018D01*
X28166039Y-11798017D01*
X27992648Y-11690658D01*
X27992641Y-11690654D01*
X27992637Y-11690652D01*
X27876133Y-11645518D01*
X27802457Y-11616976D01*
X27735629Y-11604484D01*
X27601976Y-11579500D01*
X27398024Y-11579500D01*
X27297784Y-11598238D01*
X27197542Y-11616976D01*
X27050190Y-11674060D01*
X27007363Y-11690652D01*
X27007362Y-11690652D01*
X27007361Y-11690653D01*
X27007351Y-11690658D01*
X26833960Y-11798017D01*
X26833959Y-11798018D01*
X26683234Y-11935421D01*
X26560329Y-12098175D01*
X26469416Y-12280754D01*
X26413603Y-12476915D01*
X26394785Y-12680000D01*
X-95999500Y-12680000D01*
X-95999500Y-7345999D01*
X26163455Y-7345999D01*
X26163456Y-7346000D01*
X27069297Y-7346000D01*
X27034075Y-7407007D01*
X27000000Y-7534174D01*
X27000000Y-7665826D01*
X27034075Y-7792993D01*
X27069297Y-7854000D01*
X26163455Y-7854000D01*
X26211176Y-8042449D01*
X26211179Y-8042456D01*
X26301580Y-8248548D01*
X26424674Y-8436958D01*
X26577097Y-8602534D01*
X26754698Y-8740767D01*
X26754699Y-8740768D01*
X26952628Y-8847882D01*
X26952630Y-8847883D01*
X27069675Y-8888064D01*
X27127610Y-8929101D01*
X27154162Y-8994945D01*
X27140901Y-9064692D01*
X27092037Y-9116198D01*
X27074280Y-9124728D01*
X27007367Y-9150650D01*
X27007351Y-9150658D01*
X26833960Y-9258017D01*
X26833959Y-9258018D01*
X26683234Y-9395421D01*
X26560329Y-9558175D01*
X26469416Y-9740754D01*
X26413603Y-9936915D01*
X26394785Y-10140000D01*
X26413603Y-10343084D01*
X26469416Y-10539245D01*
X26469417Y-10539247D01*
X26469418Y-10539250D01*
X26560327Y-10721821D01*
X26560328Y-10721822D01*
X26560329Y-10721824D01*
X26683234Y-10884578D01*
X26833959Y-11021981D01*
X26833960Y-11021982D01*
X27007351Y-11129341D01*
X27007354Y-11129342D01*
X27007363Y-11129348D01*
X27197544Y-11203024D01*
X27398024Y-11240500D01*
X27398026Y-11240500D01*
X27601974Y-11240500D01*
X27601976Y-11240500D01*
X27802456Y-11203024D01*
X27992637Y-11129348D01*
X28166041Y-11021981D01*
X28316764Y-10884579D01*
X28439673Y-10721821D01*
X28530582Y-10539250D01*
X28586397Y-10343083D01*
X28605215Y-10140000D01*
X28934785Y-10140000D01*
X28953603Y-10343084D01*
X29009416Y-10539245D01*
X29009417Y-10539247D01*
X29009418Y-10539250D01*
X29100327Y-10721821D01*
X29100328Y-10721822D01*
X29100329Y-10721824D01*
X29223234Y-10884578D01*
X29373959Y-11021981D01*
X29373960Y-11021982D01*
X29547351Y-11129341D01*
X29547354Y-11129342D01*
X29547363Y-11129348D01*
X29737544Y-11203024D01*
X29938024Y-11240500D01*
X29938026Y-11240500D01*
X30141974Y-11240500D01*
X30141976Y-11240500D01*
X30342456Y-11203024D01*
X30532637Y-11129348D01*
X30706041Y-11021981D01*
X30856764Y-10884579D01*
X30979673Y-10721821D01*
X31070582Y-10539250D01*
X31126397Y-10343083D01*
X31145215Y-10140000D01*
X31126397Y-9936917D01*
X31070582Y-9740750D01*
X30979673Y-9558179D01*
X30978062Y-9556046D01*
X30856765Y-9395421D01*
X30706040Y-9258018D01*
X30706039Y-9258017D01*
X30532648Y-9150658D01*
X30532641Y-9150654D01*
X30532637Y-9150652D01*
X30416133Y-9105518D01*
X30342457Y-9076976D01*
X30275629Y-9064484D01*
X30141976Y-9039500D01*
X29938024Y-9039500D01*
X29837784Y-9058238D01*
X29737542Y-9076976D01*
X29614281Y-9124728D01*
X29547363Y-9150652D01*
X29547362Y-9150652D01*
X29547361Y-9150653D01*
X29547351Y-9150658D01*
X29373960Y-9258017D01*
X29373959Y-9258018D01*
X29223234Y-9395421D01*
X29100329Y-9558175D01*
X29009416Y-9740754D01*
X28953603Y-9936915D01*
X28934785Y-10140000D01*
X28605215Y-10140000D01*
X28586397Y-9936917D01*
X28530582Y-9740750D01*
X28439673Y-9558179D01*
X28438062Y-9556046D01*
X28316765Y-9395421D01*
X28166040Y-9258018D01*
X28166039Y-9258017D01*
X27992648Y-9150658D01*
X27992641Y-9150654D01*
X27992637Y-9150652D01*
X27925718Y-9124727D01*
X27869425Y-9081469D01*
X27845454Y-9014642D01*
X27861418Y-8945463D01*
X27912249Y-8895897D01*
X27930325Y-8888064D01*
X28047365Y-8847884D01*
X28047371Y-8847882D01*
X28245300Y-8740768D01*
X28245301Y-8740767D01*
X28422902Y-8602534D01*
X28575325Y-8436958D01*
X28698419Y-8248548D01*
X28788819Y-8042460D01*
X28789861Y-8039425D01*
X28790621Y-8038351D01*
X28790916Y-8037680D01*
X28791054Y-8037740D01*
X28830896Y-7981488D01*
X28896740Y-7954933D01*
X28966487Y-7968192D01*
X29017994Y-8017054D01*
X29021815Y-8024147D01*
X29100327Y-8181821D01*
X29100328Y-8181822D01*
X29100329Y-8181824D01*
X29223234Y-8344578D01*
X29373959Y-8481981D01*
X29373960Y-8481982D01*
X29547351Y-8589341D01*
X29547354Y-8589342D01*
X29547363Y-8589348D01*
X29737544Y-8663024D01*
X29938024Y-8700500D01*
X29938026Y-8700500D01*
X30141974Y-8700500D01*
X30141976Y-8700500D01*
X30342456Y-8663024D01*
X30532637Y-8589348D01*
X30706041Y-8481981D01*
X30856764Y-8344579D01*
X30979673Y-8181821D01*
X31070582Y-7999250D01*
X31126397Y-7803083D01*
X31145215Y-7600000D01*
X31126397Y-7396917D01*
X31070582Y-7200750D01*
X30979673Y-7018179D01*
X30979670Y-7018175D01*
X30856765Y-6855421D01*
X30706040Y-6718018D01*
X30706039Y-6718017D01*
X30532648Y-6610658D01*
X30532641Y-6610654D01*
X30532637Y-6610652D01*
X30416133Y-6565518D01*
X30342457Y-6536976D01*
X30275629Y-6524484D01*
X30141976Y-6499500D01*
X29938024Y-6499500D01*
X29837784Y-6518238D01*
X29737542Y-6536976D01*
X29590190Y-6594060D01*
X29547363Y-6610652D01*
X29547362Y-6610652D01*
X29547361Y-6610653D01*
X29547351Y-6610658D01*
X29373960Y-6718017D01*
X29373959Y-6718018D01*
X29223234Y-6855421D01*
X29100329Y-7018175D01*
X29100327Y-7018178D01*
X29100327Y-7018179D01*
X29030933Y-7157543D01*
X29021827Y-7175830D01*
X28973558Y-7227893D01*
X28904803Y-7245596D01*
X28837393Y-7223317D01*
X28792729Y-7168130D01*
X28789863Y-7160579D01*
X28788821Y-7157544D01*
X28698419Y-6951451D01*
X28575325Y-6763041D01*
X28422902Y-6597465D01*
X28245301Y-6459232D01*
X28245300Y-6459231D01*
X28047371Y-6352117D01*
X28047368Y-6352116D01*
X27930324Y-6311935D01*
X27872389Y-6270898D01*
X27845837Y-6205053D01*
X27859099Y-6135306D01*
X27907963Y-6083801D01*
X27925707Y-6075276D01*
X27992637Y-6049348D01*
X28166041Y-5941981D01*
X28316764Y-5804579D01*
X28439673Y-5641821D01*
X28530582Y-5459250D01*
X28586397Y-5263083D01*
X28605215Y-5060000D01*
X28934785Y-5060000D01*
X28953603Y-5263084D01*
X29009416Y-5459245D01*
X29009417Y-5459247D01*
X29009418Y-5459250D01*
X29100327Y-5641821D01*
X29100328Y-5641822D01*
X29100329Y-5641824D01*
X29223234Y-5804578D01*
X29373959Y-5941981D01*
X29373960Y-5941982D01*
X29547351Y-6049341D01*
X29547354Y-6049342D01*
X29547363Y-6049348D01*
X29737544Y-6123024D01*
X29938024Y-6160500D01*
X29938026Y-6160500D01*
X30141974Y-6160500D01*
X30141976Y-6160500D01*
X30342456Y-6123024D01*
X30532637Y-6049348D01*
X30706041Y-5941981D01*
X30856764Y-5804579D01*
X30979673Y-5641821D01*
X31070582Y-5459250D01*
X31126397Y-5263083D01*
X31145215Y-5060000D01*
X31126397Y-4856917D01*
X31070582Y-4660750D01*
X30979673Y-4478179D01*
X30977089Y-4474757D01*
X30856765Y-4315421D01*
X30706040Y-4178018D01*
X30706039Y-4178017D01*
X30532648Y-4070658D01*
X30532641Y-4070654D01*
X30532637Y-4070652D01*
X30370048Y-4007665D01*
X30342457Y-3996976D01*
X30275629Y-3984484D01*
X30141976Y-3959500D01*
X29938024Y-3959500D01*
X29837784Y-3978238D01*
X29737542Y-3996976D01*
X29590190Y-4054060D01*
X29547363Y-4070652D01*
X29547362Y-4070652D01*
X29547361Y-4070653D01*
X29547351Y-4070658D01*
X29373960Y-4178017D01*
X29373959Y-4178018D01*
X29223234Y-4315421D01*
X29100329Y-4478175D01*
X29009416Y-4660754D01*
X28953603Y-4856915D01*
X28934785Y-5060000D01*
X28605215Y-5060000D01*
X28586397Y-4856917D01*
X28530582Y-4660750D01*
X28439673Y-4478179D01*
X28437089Y-4474757D01*
X28316765Y-4315421D01*
X28166040Y-4178018D01*
X28166039Y-4178017D01*
X27992648Y-4070658D01*
X27992641Y-4070654D01*
X27992637Y-4070652D01*
X27830048Y-4007665D01*
X27802457Y-3996976D01*
X27735629Y-3984484D01*
X27601976Y-3959500D01*
X27398024Y-3959500D01*
X27297784Y-3978238D01*
X27197542Y-3996976D01*
X27050190Y-4054060D01*
X27007363Y-4070652D01*
X27007362Y-4070652D01*
X27007361Y-4070653D01*
X27007351Y-4070658D01*
X26833960Y-4178017D01*
X26833959Y-4178018D01*
X26683234Y-4315421D01*
X26560329Y-4478175D01*
X26469416Y-4660754D01*
X26413603Y-4856915D01*
X26394785Y-5060000D01*
X26413603Y-5263084D01*
X26469416Y-5459245D01*
X26469417Y-5459247D01*
X26469418Y-5459250D01*
X26560327Y-5641821D01*
X26560328Y-5641822D01*
X26560329Y-5641824D01*
X26683234Y-5804578D01*
X26833959Y-5941981D01*
X26833960Y-5941982D01*
X27007351Y-6049341D01*
X27007356Y-6049343D01*
X27007363Y-6049348D01*
X27074280Y-6075271D01*
X27130574Y-6118529D01*
X27154545Y-6185356D01*
X27138582Y-6254535D01*
X27087751Y-6304101D01*
X27069676Y-6311935D01*
X26952628Y-6352118D01*
X26754699Y-6459231D01*
X26754698Y-6459232D01*
X26577097Y-6597465D01*
X26424674Y-6763041D01*
X26301580Y-6951451D01*
X26211179Y-7157543D01*
X26211176Y-7157550D01*
X26163455Y-7345999D01*
X-95999500Y-7345999D01*
X-95999500Y-459280D01*
X-95979498Y-391159D01*
X-95977196Y-387704D01*
X-95971360Y-379250D01*
X-95919780Y-304523D01*
X-95871483Y-177174D01*
X-95863762Y-156816D01*
X-95844722Y-3D01*
X-95844722Y4D01*
X-95863761Y156816D01*
X-95919781Y304526D01*
X-95977196Y387705D01*
X-95999432Y455130D01*
X-95999500Y459281D01*
X-95999500Y7894001D01*
X26163455Y7894001D01*
X26163456Y7894000D01*
X27069297Y7894000D01*
X27034075Y7832993D01*
X27000000Y7705826D01*
X27000000Y7574174D01*
X27034075Y7447007D01*
X27069297Y7386000D01*
X26163455Y7386000D01*
X26211176Y7197551D01*
X26211179Y7197544D01*
X26301580Y6991452D01*
X26424674Y6803042D01*
X26577097Y6637466D01*
X26754698Y6499233D01*
X26754699Y6499232D01*
X26788734Y6480813D01*
X26839123Y6430799D01*
X26854475Y6361482D01*
X26829913Y6294870D01*
X26788734Y6259187D01*
X26754699Y6240769D01*
X26754698Y6240768D01*
X26577097Y6102535D01*
X26424674Y5936959D01*
X26301580Y5748549D01*
X26211179Y5542457D01*
X26211176Y5542450D01*
X26163455Y5354001D01*
X26163456Y5354000D01*
X27069297Y5354000D01*
X27034075Y5292993D01*
X27000000Y5165826D01*
X27000000Y5034174D01*
X27034075Y4907007D01*
X27069297Y4846000D01*
X26163455Y4846000D01*
X26211176Y4657551D01*
X26211179Y4657544D01*
X26301580Y4451452D01*
X26424674Y4263042D01*
X26577097Y4097466D01*
X26754698Y3959233D01*
X26754699Y3959232D01*
X26952628Y3852118D01*
X26952630Y3852117D01*
X27069675Y3811936D01*
X27127610Y3770899D01*
X27154162Y3705055D01*
X27140901Y3635308D01*
X27092037Y3583802D01*
X27074280Y3575272D01*
X27007367Y3549350D01*
X27007351Y3549342D01*
X26833960Y3441983D01*
X26833959Y3441982D01*
X26683234Y3304579D01*
X26560329Y3141825D01*
X26469416Y2959246D01*
X26413603Y2763085D01*
X26394785Y2560000D01*
X26413603Y2356916D01*
X26469416Y2160755D01*
X26469417Y2160753D01*
X26469418Y2160750D01*
X26560327Y1978179D01*
X26560328Y1978178D01*
X26560329Y1978176D01*
X26683234Y1815422D01*
X26833959Y1678019D01*
X26833960Y1678018D01*
X27007351Y1570659D01*
X27007356Y1570657D01*
X27007363Y1570652D01*
X27074280Y1544729D01*
X27130574Y1501471D01*
X27154545Y1434644D01*
X27138582Y1365465D01*
X27087751Y1315899D01*
X27069676Y1308065D01*
X26952628Y1267882D01*
X26754699Y1160769D01*
X26754698Y1160768D01*
X26577097Y1022535D01*
X26424674Y856959D01*
X26301580Y668549D01*
X26211179Y462457D01*
X26211176Y462450D01*
X26163455Y274001D01*
X26163456Y274000D01*
X27069297Y274000D01*
X27034075Y212993D01*
X27000000Y85826D01*
X27000000Y-45826D01*
X27034075Y-172993D01*
X27069297Y-234000D01*
X26163455Y-234000D01*
X26211176Y-422449D01*
X26211179Y-422456D01*
X26301580Y-628548D01*
X26424674Y-816958D01*
X26577097Y-982534D01*
X26754698Y-1120767D01*
X26754699Y-1120768D01*
X26952628Y-1227882D01*
X26952630Y-1227883D01*
X27069675Y-1268064D01*
X27127610Y-1309101D01*
X27154162Y-1374945D01*
X27140901Y-1444692D01*
X27092037Y-1496198D01*
X27074280Y-1504728D01*
X27007367Y-1530650D01*
X27007351Y-1530658D01*
X26833960Y-1638017D01*
X26833959Y-1638018D01*
X26683234Y-1775421D01*
X26560329Y-1938175D01*
X26469416Y-2120754D01*
X26413603Y-2316915D01*
X26394785Y-2520000D01*
X26413603Y-2723084D01*
X26469416Y-2919245D01*
X26469417Y-2919247D01*
X26469418Y-2919250D01*
X26560327Y-3101821D01*
X26560328Y-3101822D01*
X26560329Y-3101824D01*
X26683234Y-3264578D01*
X26833959Y-3401981D01*
X26833960Y-3401982D01*
X27007351Y-3509341D01*
X27007354Y-3509342D01*
X27007363Y-3509348D01*
X27197544Y-3583024D01*
X27398024Y-3620500D01*
X27398026Y-3620500D01*
X27601974Y-3620500D01*
X27601976Y-3620500D01*
X27802456Y-3583024D01*
X27992637Y-3509348D01*
X28166041Y-3401981D01*
X28316764Y-3264579D01*
X28439673Y-3101821D01*
X28530582Y-2919250D01*
X28586397Y-2723083D01*
X28605215Y-2520000D01*
X28934785Y-2520000D01*
X28953603Y-2723084D01*
X29009416Y-2919245D01*
X29009417Y-2919247D01*
X29009418Y-2919250D01*
X29100327Y-3101821D01*
X29100328Y-3101822D01*
X29100329Y-3101824D01*
X29223234Y-3264578D01*
X29373959Y-3401981D01*
X29373960Y-3401982D01*
X29547351Y-3509341D01*
X29547354Y-3509342D01*
X29547363Y-3509348D01*
X29737544Y-3583024D01*
X29938024Y-3620500D01*
X29938026Y-3620500D01*
X30141974Y-3620500D01*
X30141976Y-3620500D01*
X30342456Y-3583024D01*
X30532637Y-3509348D01*
X30706041Y-3401981D01*
X30856764Y-3264579D01*
X30979673Y-3101821D01*
X31070582Y-2919250D01*
X31126397Y-2723083D01*
X31145215Y-2520000D01*
X31126397Y-2316917D01*
X31070582Y-2120750D01*
X30979673Y-1938179D01*
X30979670Y-1938175D01*
X30856765Y-1775421D01*
X30706040Y-1638018D01*
X30706039Y-1638017D01*
X30532648Y-1530658D01*
X30532641Y-1530654D01*
X30532637Y-1530652D01*
X30416133Y-1485518D01*
X30342457Y-1456976D01*
X30275629Y-1444484D01*
X30141976Y-1419500D01*
X29938024Y-1419500D01*
X29837784Y-1438238D01*
X29737542Y-1456976D01*
X29614281Y-1504728D01*
X29547363Y-1530652D01*
X29547362Y-1530652D01*
X29547361Y-1530653D01*
X29547351Y-1530658D01*
X29373960Y-1638017D01*
X29373959Y-1638018D01*
X29223234Y-1775421D01*
X29100329Y-1938175D01*
X29009416Y-2120754D01*
X28953603Y-2316915D01*
X28934785Y-2520000D01*
X28605215Y-2520000D01*
X28586397Y-2316917D01*
X28530582Y-2120750D01*
X28439673Y-1938179D01*
X28439670Y-1938175D01*
X28316765Y-1775421D01*
X28166040Y-1638018D01*
X28166039Y-1638017D01*
X27992648Y-1530658D01*
X27992641Y-1530654D01*
X27992637Y-1530652D01*
X27925718Y-1504727D01*
X27869425Y-1461469D01*
X27845454Y-1394642D01*
X27861418Y-1325463D01*
X27912249Y-1275897D01*
X27930325Y-1268064D01*
X28047365Y-1227884D01*
X28047371Y-1227882D01*
X28245300Y-1120768D01*
X28245301Y-1120767D01*
X28422902Y-982534D01*
X28575325Y-816958D01*
X28698419Y-628548D01*
X28788819Y-422460D01*
X28789861Y-419425D01*
X28790621Y-418351D01*
X28790916Y-417680D01*
X28791054Y-417740D01*
X28830896Y-361488D01*
X28896740Y-334933D01*
X28966487Y-348192D01*
X29017994Y-397054D01*
X29021815Y-404147D01*
X29100327Y-561821D01*
X29100328Y-561822D01*
X29100329Y-561824D01*
X29223234Y-724578D01*
X29373959Y-861981D01*
X29373960Y-861982D01*
X29547351Y-969341D01*
X29547354Y-969342D01*
X29547363Y-969348D01*
X29737544Y-1043024D01*
X29938024Y-1080500D01*
X29938026Y-1080500D01*
X30141974Y-1080500D01*
X30141976Y-1080500D01*
X30342456Y-1043024D01*
X30532637Y-969348D01*
X30706041Y-861981D01*
X30856764Y-724579D01*
X30979673Y-561821D01*
X31070582Y-379250D01*
X31126397Y-183083D01*
X31145215Y20000D01*
X31126397Y223083D01*
X31070582Y419250D01*
X30979673Y601821D01*
X30978062Y603954D01*
X30856765Y764579D01*
X30706040Y901982D01*
X30706039Y901983D01*
X30532648Y1009342D01*
X30532641Y1009346D01*
X30532637Y1009348D01*
X30416133Y1054482D01*
X30342457Y1083024D01*
X30275629Y1095516D01*
X30141976Y1120500D01*
X29938024Y1120500D01*
X29837784Y1101762D01*
X29737542Y1083024D01*
X29590190Y1025940D01*
X29547363Y1009348D01*
X29547362Y1009348D01*
X29547361Y1009347D01*
X29547351Y1009342D01*
X29373960Y901983D01*
X29373959Y901982D01*
X29223234Y764579D01*
X29100329Y601825D01*
X29100327Y601822D01*
X29100327Y601821D01*
X29030933Y462457D01*
X29021827Y444170D01*
X28973558Y392107D01*
X28904803Y374404D01*
X28837393Y396683D01*
X28792729Y451870D01*
X28789863Y459421D01*
X28788821Y462456D01*
X28698419Y668549D01*
X28575325Y856959D01*
X28422902Y1022535D01*
X28245301Y1160768D01*
X28245300Y1160769D01*
X28047371Y1267883D01*
X28047368Y1267884D01*
X27930324Y1308065D01*
X27872389Y1349102D01*
X27845837Y1414947D01*
X27859099Y1484694D01*
X27907963Y1536199D01*
X27925707Y1544724D01*
X27992637Y1570652D01*
X28166041Y1678019D01*
X28316764Y1815421D01*
X28439673Y1978179D01*
X28530582Y2160750D01*
X28586397Y2356917D01*
X28605215Y2560000D01*
X28934785Y2560000D01*
X28953603Y2356916D01*
X29009416Y2160755D01*
X29009417Y2160753D01*
X29009418Y2160750D01*
X29100327Y1978179D01*
X29100328Y1978178D01*
X29100329Y1978176D01*
X29223234Y1815422D01*
X29373959Y1678019D01*
X29373960Y1678018D01*
X29547351Y1570659D01*
X29547354Y1570658D01*
X29547363Y1570652D01*
X29737544Y1496976D01*
X29938024Y1459500D01*
X29938026Y1459500D01*
X30141974Y1459500D01*
X30141976Y1459500D01*
X30342456Y1496976D01*
X30532637Y1570652D01*
X30706041Y1678019D01*
X30856764Y1815421D01*
X30979673Y1978179D01*
X31070582Y2160750D01*
X31126397Y2356917D01*
X31145215Y2560000D01*
X31126397Y2763083D01*
X31070582Y2959250D01*
X30979673Y3141821D01*
X30973543Y3149938D01*
X30856765Y3304579D01*
X30706040Y3441982D01*
X30706039Y3441983D01*
X30532648Y3549342D01*
X30532641Y3549346D01*
X30532637Y3549348D01*
X30416133Y3594482D01*
X30342457Y3623024D01*
X30275629Y3635516D01*
X30141976Y3660500D01*
X29938024Y3660500D01*
X29837784Y3641762D01*
X29737542Y3623024D01*
X29614281Y3575272D01*
X29547363Y3549348D01*
X29547362Y3549348D01*
X29547361Y3549347D01*
X29547351Y3549342D01*
X29373960Y3441983D01*
X29373959Y3441982D01*
X29223234Y3304579D01*
X29100329Y3141825D01*
X29009416Y2959246D01*
X28953603Y2763085D01*
X28934785Y2560000D01*
X28605215Y2560000D01*
X28586397Y2763083D01*
X28530582Y2959250D01*
X28439673Y3141821D01*
X28433543Y3149938D01*
X28316765Y3304579D01*
X28166040Y3441982D01*
X28166039Y3441983D01*
X27992648Y3549342D01*
X27992641Y3549346D01*
X27992637Y3549348D01*
X27925718Y3575273D01*
X27869425Y3618531D01*
X27845454Y3685358D01*
X27861418Y3754537D01*
X27912249Y3804103D01*
X27930325Y3811936D01*
X28047365Y3852116D01*
X28047371Y3852118D01*
X28245300Y3959232D01*
X28245301Y3959233D01*
X28422902Y4097466D01*
X28575325Y4263042D01*
X28698419Y4451452D01*
X28788819Y4657540D01*
X28789861Y4660575D01*
X28790621Y4661649D01*
X28790916Y4662320D01*
X28791054Y4662260D01*
X28830896Y4718512D01*
X28896740Y4745067D01*
X28966487Y4731808D01*
X29017994Y4682946D01*
X29021815Y4675853D01*
X29100327Y4518179D01*
X29100328Y4518178D01*
X29100329Y4518176D01*
X29223234Y4355422D01*
X29373959Y4218019D01*
X29373960Y4218018D01*
X29547351Y4110659D01*
X29547354Y4110658D01*
X29547363Y4110652D01*
X29737544Y4036976D01*
X29938024Y3999500D01*
X29938026Y3999500D01*
X30141974Y3999500D01*
X30141976Y3999500D01*
X30342456Y4036976D01*
X30532637Y4110652D01*
X30706041Y4218019D01*
X30856764Y4355421D01*
X30979673Y4518179D01*
X31070582Y4700750D01*
X31126397Y4896917D01*
X31145215Y5100000D01*
X31126397Y5303083D01*
X31070582Y5499250D01*
X30979673Y5681821D01*
X30956755Y5712170D01*
X30856765Y5844579D01*
X30706040Y5981982D01*
X30706039Y5981983D01*
X30532648Y6089342D01*
X30532641Y6089346D01*
X30532637Y6089348D01*
X30416133Y6134482D01*
X30342457Y6163024D01*
X30275629Y6175516D01*
X30141976Y6200500D01*
X29938024Y6200500D01*
X29837784Y6181762D01*
X29737542Y6163024D01*
X29590190Y6105940D01*
X29547363Y6089348D01*
X29547362Y6089348D01*
X29547361Y6089347D01*
X29547351Y6089342D01*
X29373960Y5981983D01*
X29373959Y5981982D01*
X29223234Y5844579D01*
X29100329Y5681825D01*
X29100327Y5681822D01*
X29100327Y5681821D01*
X29030933Y5542457D01*
X29021827Y5524170D01*
X28973558Y5472107D01*
X28904803Y5454404D01*
X28837393Y5476683D01*
X28792729Y5531870D01*
X28789863Y5539421D01*
X28788821Y5542456D01*
X28698419Y5748549D01*
X28575325Y5936959D01*
X28422902Y6102535D01*
X28245301Y6240768D01*
X28245300Y6240769D01*
X28211267Y6259186D01*
X28160876Y6309199D01*
X28145524Y6378516D01*
X28170085Y6445129D01*
X28211267Y6480814D01*
X28245300Y6499232D01*
X28245301Y6499233D01*
X28422902Y6637466D01*
X28575325Y6803042D01*
X28698419Y6991452D01*
X28788819Y7197540D01*
X28789861Y7200575D01*
X28790621Y7201649D01*
X28790916Y7202320D01*
X28791054Y7202260D01*
X28830896Y7258512D01*
X28896740Y7285067D01*
X28966487Y7271808D01*
X29017994Y7222946D01*
X29021815Y7215853D01*
X29100327Y7058179D01*
X29100328Y7058178D01*
X29100329Y7058176D01*
X29223234Y6895422D01*
X29373959Y6758019D01*
X29373960Y6758018D01*
X29547351Y6650659D01*
X29547354Y6650658D01*
X29547363Y6650652D01*
X29737544Y6576976D01*
X29938024Y6539500D01*
X29938026Y6539500D01*
X30141974Y6539500D01*
X30141976Y6539500D01*
X30342456Y6576976D01*
X30532637Y6650652D01*
X30706041Y6758019D01*
X30856764Y6895421D01*
X30979673Y7058179D01*
X31070582Y7240750D01*
X31126397Y7436917D01*
X31145215Y7640000D01*
X31126397Y7843083D01*
X31070582Y8039250D01*
X30979673Y8221821D01*
X30960032Y8247830D01*
X30856765Y8384579D01*
X30706040Y8521982D01*
X30706039Y8521983D01*
X30532648Y8629342D01*
X30532641Y8629346D01*
X30532637Y8629348D01*
X30416133Y8674482D01*
X30342457Y8703024D01*
X30275629Y8715516D01*
X30141976Y8740500D01*
X29938024Y8740500D01*
X29837784Y8721762D01*
X29737542Y8703024D01*
X29590190Y8645940D01*
X29547363Y8629348D01*
X29547362Y8629348D01*
X29547361Y8629347D01*
X29547351Y8629342D01*
X29373960Y8521983D01*
X29373959Y8521982D01*
X29223234Y8384579D01*
X29100329Y8221825D01*
X29100327Y8221822D01*
X29100327Y8221821D01*
X29030933Y8082457D01*
X29021827Y8064170D01*
X28973558Y8012107D01*
X28904803Y7994404D01*
X28837393Y8016683D01*
X28792729Y8071870D01*
X28789863Y8079421D01*
X28788821Y8082456D01*
X28698419Y8288549D01*
X28575325Y8476959D01*
X28422902Y8642535D01*
X28245301Y8780768D01*
X28245300Y8780769D01*
X28047371Y8887883D01*
X28047368Y8887884D01*
X27930324Y8928065D01*
X27872389Y8969102D01*
X27845837Y9034947D01*
X27859099Y9104694D01*
X27907963Y9156199D01*
X27925707Y9164724D01*
X27992637Y9190652D01*
X28166041Y9298019D01*
X28316764Y9435421D01*
X28439673Y9598179D01*
X28530582Y9780750D01*
X28586397Y9976917D01*
X28605215Y10180000D01*
X28934785Y10180000D01*
X28953603Y9976916D01*
X29009416Y9780755D01*
X29009417Y9780753D01*
X29009418Y9780750D01*
X29100327Y9598179D01*
X29100328Y9598178D01*
X29100329Y9598176D01*
X29223234Y9435422D01*
X29373959Y9298019D01*
X29373960Y9298018D01*
X29547351Y9190659D01*
X29547354Y9190658D01*
X29547363Y9190652D01*
X29737544Y9116976D01*
X29938024Y9079500D01*
X29938026Y9079500D01*
X30141974Y9079500D01*
X30141976Y9079500D01*
X30342456Y9116976D01*
X30532637Y9190652D01*
X30706041Y9298019D01*
X30856764Y9435421D01*
X30979673Y9598179D01*
X31070582Y9780750D01*
X31126397Y9976917D01*
X31145215Y10180000D01*
X31126397Y10383083D01*
X31070582Y10579250D01*
X30979673Y10761821D01*
X30968949Y10776022D01*
X30856765Y10924579D01*
X30706040Y11061982D01*
X30706039Y11061983D01*
X30532648Y11169342D01*
X30532641Y11169346D01*
X30532637Y11169348D01*
X30416133Y11214482D01*
X30342457Y11243024D01*
X30275629Y11255516D01*
X30141976Y11280500D01*
X29938024Y11280500D01*
X29837784Y11261762D01*
X29737542Y11243024D01*
X29590190Y11185940D01*
X29547363Y11169348D01*
X29547362Y11169348D01*
X29547361Y11169347D01*
X29547351Y11169342D01*
X29373960Y11061983D01*
X29373959Y11061982D01*
X29223234Y10924579D01*
X29100329Y10761825D01*
X29009416Y10579246D01*
X28953603Y10383085D01*
X28934785Y10180000D01*
X28605215Y10180000D01*
X28586397Y10383083D01*
X28530582Y10579250D01*
X28439673Y10761821D01*
X28428949Y10776022D01*
X28316765Y10924579D01*
X28166040Y11061982D01*
X28166039Y11061983D01*
X27992648Y11169342D01*
X27992641Y11169346D01*
X27992637Y11169348D01*
X27876133Y11214482D01*
X27802457Y11243024D01*
X27735629Y11255516D01*
X27601976Y11280500D01*
X27398024Y11280500D01*
X27297784Y11261762D01*
X27197542Y11243024D01*
X27050190Y11185940D01*
X27007363Y11169348D01*
X27007362Y11169348D01*
X27007361Y11169347D01*
X27007351Y11169342D01*
X26833960Y11061983D01*
X26833959Y11061982D01*
X26683234Y10924579D01*
X26560329Y10761825D01*
X26469416Y10579246D01*
X26413603Y10383085D01*
X26394785Y10180000D01*
X26413603Y9976916D01*
X26469416Y9780755D01*
X26469417Y9780753D01*
X26469418Y9780750D01*
X26560327Y9598179D01*
X26560328Y9598178D01*
X26560329Y9598176D01*
X26683234Y9435422D01*
X26833959Y9298019D01*
X26833960Y9298018D01*
X27007351Y9190659D01*
X27007356Y9190657D01*
X27007363Y9190652D01*
X27074280Y9164729D01*
X27130574Y9121471D01*
X27154545Y9054644D01*
X27138582Y8985465D01*
X27087751Y8935899D01*
X27069676Y8928065D01*
X26952628Y8887882D01*
X26754699Y8780769D01*
X26754698Y8780768D01*
X26577097Y8642535D01*
X26424674Y8476959D01*
X26301580Y8288549D01*
X26211179Y8082457D01*
X26211176Y8082450D01*
X26163455Y7894001D01*
X-95999500Y7894001D01*
X-95999500Y13059960D01*
X-95979498Y13128081D01*
X-95978265Y13129962D01*
X-95923536Y13211870D01*
X-95923535Y13211871D01*
X-95874499Y13330254D01*
X-95849500Y13455929D01*
X-95849500Y15453031D01*
X-95848581Y15468220D01*
X-95844722Y15500000D01*
X-95844722Y15500002D01*
X-95848581Y15531782D01*
X-95849500Y15546970D01*
X-95849500Y20000004D01*
X24344722Y20000004D01*
X24344722Y19999997D01*
X24363761Y19843185D01*
X24384304Y19789019D01*
X24419780Y19695477D01*
X24419781Y19695475D01*
X24419782Y19695474D01*
X24419783Y19695471D01*
X24496718Y19584012D01*
X24509517Y19565470D01*
X24627760Y19460717D01*
X24767635Y19387304D01*
X24767636Y19387304D01*
X24767638Y19387303D01*
X24844325Y19368402D01*
X24921015Y19349500D01*
X24921017Y19349500D01*
X25067273Y19349500D01*
X25135394Y19329498D01*
X25156363Y19312600D01*
X25769438Y18699525D01*
X25855063Y18650089D01*
X25950564Y18624500D01*
X25950565Y18624500D01*
X26185903Y18624500D01*
X26254024Y18604498D01*
X26300517Y18550842D01*
X26310621Y18480568D01*
X26301290Y18447886D01*
X26211179Y18242457D01*
X26211176Y18242450D01*
X26163455Y18054001D01*
X26163456Y18054000D01*
X27069297Y18054000D01*
X27034075Y17992993D01*
X27000000Y17865826D01*
X27000000Y17734174D01*
X27034075Y17607007D01*
X27069297Y17546000D01*
X26163455Y17546000D01*
X26211176Y17357551D01*
X26211179Y17357544D01*
X26301581Y17151449D01*
X26354523Y17070415D01*
X26375036Y17002447D01*
X26355547Y16934178D01*
X26302242Y16887283D01*
X26249040Y16875500D01*
X25597358Y16875500D01*
X25529237Y16895502D01*
X25493660Y16929927D01*
X25490482Y16934531D01*
X25372240Y17039283D01*
X25232365Y17112696D01*
X25232361Y17112698D01*
X25078987Y17150500D01*
X25078985Y17150500D01*
X24921015Y17150500D01*
X24921012Y17150500D01*
X24767638Y17112698D01*
X24767634Y17112696D01*
X24627759Y17039283D01*
X24509518Y16934532D01*
X24509516Y16934530D01*
X24419783Y16804530D01*
X24419782Y16804527D01*
X24419781Y16804525D01*
X24419780Y16804523D01*
X24411050Y16781503D01*
X24363761Y16656816D01*
X24344722Y16500004D01*
X24344722Y16499997D01*
X24363761Y16343185D01*
X24380474Y16299118D01*
X24419780Y16195477D01*
X24419781Y16195475D01*
X24419782Y16195474D01*
X24419783Y16195471D01*
X24509516Y16065471D01*
X24509517Y16065470D01*
X24627760Y15960717D01*
X24767635Y15887304D01*
X24767636Y15887304D01*
X24767638Y15887303D01*
X24844325Y15868402D01*
X24921015Y15849500D01*
X24921017Y15849500D01*
X25078983Y15849500D01*
X25078985Y15849500D01*
X25232365Y15887304D01*
X25372240Y15960717D01*
X25490483Y16065470D01*
X25493660Y16070074D01*
X25548816Y16114774D01*
X25597358Y16124500D01*
X26209840Y16124500D01*
X26277961Y16104498D01*
X26324454Y16050842D01*
X26334558Y15980568D01*
X26315324Y15929586D01*
X26301581Y15908551D01*
X26211179Y15702457D01*
X26211176Y15702450D01*
X26163455Y15514001D01*
X26163456Y15514000D01*
X27069297Y15514000D01*
X27034075Y15452993D01*
X27000000Y15325826D01*
X27000000Y15194174D01*
X27034075Y15067007D01*
X27069297Y15006000D01*
X26163455Y15006000D01*
X26211176Y14817551D01*
X26211179Y14817544D01*
X26301580Y14611452D01*
X26424674Y14423042D01*
X26577097Y14257466D01*
X26754698Y14119233D01*
X26754699Y14119232D01*
X26952628Y14012118D01*
X26952630Y14012117D01*
X27069675Y13971936D01*
X27127610Y13930899D01*
X27154162Y13865055D01*
X27140901Y13795308D01*
X27092037Y13743802D01*
X27074280Y13735272D01*
X27007367Y13709350D01*
X27007351Y13709342D01*
X26833960Y13601983D01*
X26833959Y13601982D01*
X26683234Y13464579D01*
X26560329Y13301825D01*
X26469416Y13119246D01*
X26413603Y12923085D01*
X26394785Y12720000D01*
X26413603Y12516916D01*
X26469416Y12320755D01*
X26469417Y12320753D01*
X26469418Y12320750D01*
X26560327Y12138179D01*
X26560328Y12138178D01*
X26560329Y12138176D01*
X26683234Y11975422D01*
X26833959Y11838019D01*
X26833960Y11838018D01*
X27007351Y11730659D01*
X27007354Y11730658D01*
X27007363Y11730652D01*
X27197544Y11656976D01*
X27398024Y11619500D01*
X27398026Y11619500D01*
X27601974Y11619500D01*
X27601976Y11619500D01*
X27802456Y11656976D01*
X27992637Y11730652D01*
X28166041Y11838019D01*
X28316764Y11975421D01*
X28439673Y12138179D01*
X28530582Y12320750D01*
X28586397Y12516917D01*
X28605215Y12720000D01*
X28934785Y12720000D01*
X28953603Y12516916D01*
X29009416Y12320755D01*
X29009417Y12320753D01*
X29009418Y12320750D01*
X29100327Y12138179D01*
X29100328Y12138178D01*
X29100329Y12138176D01*
X29223234Y11975422D01*
X29373959Y11838019D01*
X29373960Y11838018D01*
X29547351Y11730659D01*
X29547354Y11730658D01*
X29547363Y11730652D01*
X29737544Y11656976D01*
X29938024Y11619500D01*
X29938026Y11619500D01*
X30141974Y11619500D01*
X30141976Y11619500D01*
X30342456Y11656976D01*
X30532637Y11730652D01*
X30706041Y11838019D01*
X30856764Y11975421D01*
X30979673Y12138179D01*
X31070582Y12320750D01*
X31126397Y12516917D01*
X31145215Y12720000D01*
X31126397Y12923083D01*
X31070582Y13119250D01*
X30979673Y13301821D01*
X30958202Y13330253D01*
X30856765Y13464579D01*
X30706040Y13601982D01*
X30706039Y13601983D01*
X30532648Y13709342D01*
X30532641Y13709346D01*
X30532637Y13709348D01*
X30416133Y13754482D01*
X30342457Y13783024D01*
X30275629Y13795516D01*
X30141976Y13820500D01*
X29938024Y13820500D01*
X29837784Y13801762D01*
X29737542Y13783024D01*
X29614281Y13735272D01*
X29547363Y13709348D01*
X29547362Y13709348D01*
X29547361Y13709347D01*
X29547351Y13709342D01*
X29373960Y13601983D01*
X29373959Y13601982D01*
X29223234Y13464579D01*
X29100329Y13301825D01*
X29009416Y13119246D01*
X28953603Y12923085D01*
X28934785Y12720000D01*
X28605215Y12720000D01*
X28586397Y12923083D01*
X28530582Y13119250D01*
X28439673Y13301821D01*
X28418202Y13330253D01*
X28316765Y13464579D01*
X28166040Y13601982D01*
X28166039Y13601983D01*
X27992648Y13709342D01*
X27992641Y13709346D01*
X27992637Y13709348D01*
X27925718Y13735273D01*
X27869425Y13778531D01*
X27845454Y13845358D01*
X27861418Y13914537D01*
X27912249Y13964103D01*
X27930325Y13971936D01*
X28047365Y14012116D01*
X28047371Y14012118D01*
X28245300Y14119232D01*
X28245301Y14119233D01*
X28422902Y14257466D01*
X28575325Y14423042D01*
X28698419Y14611452D01*
X28788819Y14817540D01*
X28789861Y14820575D01*
X28790621Y14821649D01*
X28790916Y14822320D01*
X28791054Y14822260D01*
X28830896Y14878512D01*
X28896740Y14905067D01*
X28966487Y14891808D01*
X29017994Y14842946D01*
X29021815Y14835853D01*
X29100327Y14678179D01*
X29100328Y14678178D01*
X29100329Y14678176D01*
X29223234Y14515422D01*
X29373959Y14378019D01*
X29373960Y14378018D01*
X29547351Y14270659D01*
X29547354Y14270658D01*
X29547363Y14270652D01*
X29737544Y14196976D01*
X29938024Y14159500D01*
X29938026Y14159500D01*
X30141974Y14159500D01*
X30141976Y14159500D01*
X30342456Y14196976D01*
X30532637Y14270652D01*
X30706041Y14378019D01*
X30856764Y14515421D01*
X30979673Y14678179D01*
X31070582Y14860750D01*
X31126397Y15056917D01*
X31145215Y15260000D01*
X31126397Y15463083D01*
X31070582Y15659250D01*
X30979673Y15841821D01*
X30924411Y15915000D01*
X30856765Y16004579D01*
X30706040Y16141982D01*
X30706039Y16141983D01*
X30532648Y16249342D01*
X30532641Y16249346D01*
X30532637Y16249348D01*
X30404165Y16299118D01*
X30342457Y16323024D01*
X30275629Y16335516D01*
X30141976Y16360500D01*
X29938024Y16360500D01*
X29837784Y16341762D01*
X29737542Y16323024D01*
X29605414Y16271837D01*
X29534668Y16265881D01*
X29471932Y16299118D01*
X29470803Y16300234D01*
X28970563Y16800474D01*
X28970558Y16800478D01*
X28884942Y16849908D01*
X28884940Y16849909D01*
X28884938Y16849910D01*
X28884935Y16849911D01*
X28884930Y16849913D01*
X28837185Y16862706D01*
X28837184Y16862706D01*
X28789439Y16875500D01*
X28789436Y16875500D01*
X28789435Y16875500D01*
X28750960Y16875500D01*
X28682839Y16895502D01*
X28636346Y16949158D01*
X28626242Y17019432D01*
X28645477Y17070415D01*
X28698418Y17151449D01*
X28788819Y17357540D01*
X28789861Y17360575D01*
X28790621Y17361649D01*
X28790916Y17362320D01*
X28791054Y17362260D01*
X28830896Y17418512D01*
X28896740Y17445067D01*
X28966487Y17431808D01*
X29017994Y17382946D01*
X29021815Y17375853D01*
X29100327Y17218179D01*
X29100328Y17218178D01*
X29100329Y17218176D01*
X29223234Y17055422D01*
X29373959Y16918019D01*
X29373960Y16918018D01*
X29547351Y16810659D01*
X29547354Y16810658D01*
X29547363Y16810652D01*
X29737544Y16736976D01*
X29938024Y16699500D01*
X29938026Y16699500D01*
X30141974Y16699500D01*
X30141976Y16699500D01*
X30342456Y16736976D01*
X30532637Y16810652D01*
X30706041Y16918019D01*
X30856764Y17055421D01*
X30878397Y17084067D01*
X30900016Y17112696D01*
X30979673Y17218179D01*
X31070582Y17400750D01*
X31126397Y17596917D01*
X31145215Y17800000D01*
X31126397Y18003083D01*
X31070582Y18199250D01*
X30979673Y18381821D01*
X30979670Y18381825D01*
X30856765Y18544579D01*
X30706040Y18681982D01*
X30706039Y18681983D01*
X30532648Y18789342D01*
X30532641Y18789346D01*
X30532637Y18789348D01*
X30401284Y18840234D01*
X30342457Y18863024D01*
X30275629Y18875516D01*
X30141976Y18900500D01*
X29938024Y18900500D01*
X29837784Y18881762D01*
X29737542Y18863024D01*
X29605414Y18811837D01*
X29534668Y18805881D01*
X29471932Y18839118D01*
X29470803Y18840234D01*
X29010563Y19300474D01*
X29010558Y19300478D01*
X28924942Y19349908D01*
X28924940Y19349909D01*
X28924938Y19349910D01*
X28924935Y19349911D01*
X28924930Y19349913D01*
X28877185Y19362706D01*
X28877184Y19362706D01*
X28829439Y19375500D01*
X28829436Y19375500D01*
X28829435Y19375500D01*
X28400766Y19375500D01*
X28332645Y19395502D01*
X28286152Y19449158D01*
X28276048Y19519432D01*
X28305542Y19584012D01*
X28315884Y19594619D01*
X28316764Y19595421D01*
X28439673Y19758179D01*
X28530582Y19940750D01*
X28586397Y20136917D01*
X28605215Y20340000D01*
X28934785Y20340000D01*
X28953603Y20136916D01*
X29009416Y19940755D01*
X29009417Y19940753D01*
X29009418Y19940750D01*
X29100327Y19758179D01*
X29100328Y19758178D01*
X29100329Y19758176D01*
X29223234Y19595422D01*
X29373959Y19458019D01*
X29373960Y19458018D01*
X29547351Y19350659D01*
X29547354Y19350658D01*
X29547363Y19350652D01*
X29737544Y19276976D01*
X29938024Y19239500D01*
X29938026Y19239500D01*
X30141974Y19239500D01*
X30141976Y19239500D01*
X30342456Y19276976D01*
X30532637Y19350652D01*
X30706041Y19458019D01*
X30856764Y19595421D01*
X30856767Y19595424D01*
X30887491Y19636111D01*
X30979673Y19758179D01*
X31070582Y19940750D01*
X31126397Y20136917D01*
X31145215Y20340000D01*
X31126397Y20543083D01*
X31070582Y20739250D01*
X30979673Y20921821D01*
X30956755Y20952170D01*
X30856765Y21084579D01*
X30706040Y21221982D01*
X30706039Y21221983D01*
X30532648Y21329342D01*
X30532641Y21329346D01*
X30532637Y21329348D01*
X30416133Y21374482D01*
X30342457Y21403024D01*
X30275629Y21415516D01*
X30141976Y21440500D01*
X29938024Y21440500D01*
X29837784Y21421762D01*
X29737542Y21403024D01*
X29614281Y21355272D01*
X29547363Y21329348D01*
X29547362Y21329348D01*
X29547361Y21329347D01*
X29547351Y21329342D01*
X29373960Y21221983D01*
X29373959Y21221982D01*
X29223234Y21084579D01*
X29100329Y20921825D01*
X29009416Y20739246D01*
X28953603Y20543085D01*
X28934785Y20340000D01*
X28605215Y20340000D01*
X28586397Y20543083D01*
X28530582Y20739250D01*
X28439673Y20921821D01*
X28416755Y20952170D01*
X28316765Y21084579D01*
X28166040Y21221982D01*
X28166039Y21221983D01*
X27992648Y21329342D01*
X27992641Y21329346D01*
X27992637Y21329348D01*
X27925718Y21355273D01*
X27869425Y21398531D01*
X27845454Y21465358D01*
X27861418Y21534537D01*
X27912249Y21584103D01*
X27930325Y21591936D01*
X28047365Y21632116D01*
X28047371Y21632118D01*
X28245300Y21739232D01*
X28245301Y21739233D01*
X28422902Y21877466D01*
X28575325Y22043042D01*
X28698419Y22231452D01*
X28788819Y22437540D01*
X28789861Y22440575D01*
X28790621Y22441649D01*
X28790916Y22442320D01*
X28791054Y22442260D01*
X28830896Y22498512D01*
X28896740Y22525067D01*
X28966487Y22511808D01*
X29017994Y22462946D01*
X29021815Y22455853D01*
X29100327Y22298179D01*
X29100328Y22298178D01*
X29100329Y22298176D01*
X29223234Y22135422D01*
X29373959Y21998019D01*
X29373960Y21998018D01*
X29547351Y21890659D01*
X29547354Y21890658D01*
X29547363Y21890652D01*
X29737544Y21816976D01*
X29938024Y21779500D01*
X29938026Y21779500D01*
X30141974Y21779500D01*
X30141976Y21779500D01*
X30342456Y21816976D01*
X30532637Y21890652D01*
X30706041Y21998019D01*
X30856764Y22135421D01*
X30859743Y22139365D01*
X30929283Y22231452D01*
X30979673Y22298179D01*
X31070582Y22480750D01*
X31126397Y22676917D01*
X31145215Y22880000D01*
X31126397Y23083083D01*
X31070582Y23279250D01*
X30979673Y23461821D01*
X30979670Y23461825D01*
X30856765Y23624579D01*
X30706040Y23761982D01*
X30706039Y23761983D01*
X30532648Y23869342D01*
X30532641Y23869346D01*
X30532637Y23869348D01*
X30388982Y23925000D01*
X30342457Y23943024D01*
X30275629Y23955516D01*
X30141976Y23980500D01*
X29938024Y23980500D01*
X29837784Y23961762D01*
X29737542Y23943024D01*
X29591325Y23886379D01*
X29547363Y23869348D01*
X29547362Y23869348D01*
X29547361Y23869347D01*
X29547351Y23869342D01*
X29373960Y23761983D01*
X29373959Y23761982D01*
X29223234Y23624579D01*
X29100329Y23461825D01*
X29100327Y23461822D01*
X29100327Y23461821D01*
X29030933Y23322457D01*
X29021827Y23304170D01*
X28973558Y23252107D01*
X28904803Y23234404D01*
X28837393Y23256683D01*
X28792729Y23311870D01*
X28789863Y23319421D01*
X28788821Y23322456D01*
X28698419Y23528549D01*
X28575325Y23716959D01*
X28422902Y23882535D01*
X28245301Y24020768D01*
X28245300Y24020769D01*
X28211267Y24039186D01*
X28160876Y24089199D01*
X28145524Y24158516D01*
X28170085Y24225129D01*
X28211267Y24260814D01*
X28245300Y24279232D01*
X28245301Y24279233D01*
X28422902Y24417466D01*
X28575325Y24583042D01*
X28698419Y24771452D01*
X28788819Y24977540D01*
X28789861Y24980575D01*
X28790621Y24981649D01*
X28790916Y24982320D01*
X28791054Y24982260D01*
X28830896Y25038512D01*
X28896740Y25065067D01*
X28966487Y25051808D01*
X29017994Y25002946D01*
X29021815Y24995853D01*
X29100327Y24838179D01*
X29100328Y24838178D01*
X29100329Y24838176D01*
X29223234Y24675422D01*
X29373959Y24538019D01*
X29373960Y24538018D01*
X29547351Y24430659D01*
X29547354Y24430658D01*
X29547363Y24430652D01*
X29737544Y24356976D01*
X29938024Y24319500D01*
X29938026Y24319500D01*
X30141974Y24319500D01*
X30141976Y24319500D01*
X30342456Y24356976D01*
X30532637Y24430652D01*
X30706041Y24538019D01*
X30856764Y24675421D01*
X30979673Y24838179D01*
X31070582Y25020750D01*
X31126397Y25216917D01*
X31145215Y25420000D01*
X31126397Y25623083D01*
X31070582Y25819250D01*
X30979673Y26001821D01*
X30979670Y26001825D01*
X30856765Y26164579D01*
X30706040Y26301982D01*
X30706039Y26301983D01*
X30532648Y26409342D01*
X30532641Y26409346D01*
X30532637Y26409348D01*
X30407864Y26457685D01*
X30342457Y26483024D01*
X30275629Y26495516D01*
X30141976Y26520500D01*
X29938024Y26520500D01*
X29837784Y26501762D01*
X29737542Y26483024D01*
X29590190Y26425940D01*
X29547363Y26409348D01*
X29547362Y26409348D01*
X29547361Y26409347D01*
X29547351Y26409342D01*
X29373960Y26301983D01*
X29373959Y26301982D01*
X29223234Y26164579D01*
X29100329Y26001825D01*
X29100327Y26001822D01*
X29100327Y26001821D01*
X29030933Y25862457D01*
X29021827Y25844170D01*
X28973558Y25792107D01*
X28904803Y25774404D01*
X28837393Y25796683D01*
X28792729Y25851870D01*
X28789863Y25859421D01*
X28788821Y25862456D01*
X28698419Y26068549D01*
X28575325Y26256959D01*
X28422902Y26422535D01*
X28245301Y26560768D01*
X28245300Y26560769D01*
X28211267Y26579186D01*
X28160876Y26629199D01*
X28145524Y26698516D01*
X28170085Y26765129D01*
X28211267Y26800814D01*
X28245300Y26819232D01*
X28245301Y26819233D01*
X28422902Y26957466D01*
X28575325Y27123042D01*
X28698419Y27311452D01*
X28788819Y27517540D01*
X28789861Y27520575D01*
X28790621Y27521649D01*
X28790916Y27522320D01*
X28791054Y27522260D01*
X28830896Y27578512D01*
X28896740Y27605067D01*
X28966487Y27591808D01*
X29017994Y27542946D01*
X29021815Y27535853D01*
X29100327Y27378179D01*
X29100328Y27378178D01*
X29100329Y27378176D01*
X29223234Y27215422D01*
X29373959Y27078019D01*
X29373960Y27078018D01*
X29547351Y26970659D01*
X29547354Y26970658D01*
X29547363Y26970652D01*
X29737544Y26896976D01*
X29938024Y26859500D01*
X29938026Y26859500D01*
X30141974Y26859500D01*
X30141976Y26859500D01*
X30342456Y26896976D01*
X30532637Y26970652D01*
X30706041Y27078019D01*
X30856764Y27215421D01*
X30979673Y27378179D01*
X31070582Y27560750D01*
X31126397Y27756917D01*
X31145215Y27960000D01*
X31126397Y28163083D01*
X31070582Y28359250D01*
X30979673Y28541821D01*
X30979670Y28541825D01*
X30856765Y28704579D01*
X30706040Y28841982D01*
X30706039Y28841983D01*
X30532648Y28949342D01*
X30532641Y28949346D01*
X30532637Y28949348D01*
X30375745Y29010128D01*
X30342457Y29023024D01*
X30275629Y29035516D01*
X30141976Y29060500D01*
X29938024Y29060500D01*
X29837784Y29041762D01*
X29737542Y29023024D01*
X29579931Y28961965D01*
X29509185Y28956009D01*
X29446449Y28989247D01*
X29445320Y28990362D01*
X29237404Y29198278D01*
X29203378Y29260590D01*
X29200499Y29287373D01*
X29200499Y29499208D01*
X29220501Y29567329D01*
X29274157Y29613822D01*
X29344431Y29623926D01*
X29392828Y29606336D01*
X29547363Y29510652D01*
X29737544Y29436976D01*
X29938024Y29399500D01*
X29938026Y29399500D01*
X30141974Y29399500D01*
X30141976Y29399500D01*
X30342456Y29436976D01*
X30532637Y29510652D01*
X30706041Y29618019D01*
X30856764Y29755421D01*
X30979673Y29918179D01*
X31070582Y30100750D01*
X31126397Y30296917D01*
X31145215Y30500000D01*
X31126397Y30703083D01*
X31070582Y30899250D01*
X30979673Y31081821D01*
X30924411Y31155000D01*
X30856765Y31244579D01*
X30706040Y31381982D01*
X30706039Y31381983D01*
X30532648Y31489342D01*
X30532641Y31489346D01*
X30532637Y31489348D01*
X30416133Y31534482D01*
X30342457Y31563024D01*
X30275629Y31575516D01*
X30141976Y31600500D01*
X29938024Y31600500D01*
X29856877Y31585331D01*
X29737542Y31563024D01*
X29590190Y31505940D01*
X29547363Y31489348D01*
X29547362Y31489348D01*
X29547361Y31489347D01*
X29547351Y31489342D01*
X29369006Y31378915D01*
X29367718Y31380995D01*
X29311145Y31359657D01*
X29241716Y31374494D01*
X29191330Y31424511D01*
X29179991Y31452684D01*
X29176613Y31465291D01*
X29162727Y31489342D01*
X29130471Y31545212D01*
X29130466Y31545218D01*
X29057018Y31618666D01*
X28863066Y31812618D01*
X28829043Y31874928D01*
X28828584Y31926290D01*
X28830502Y31935931D01*
X28830502Y32884067D01*
X28805503Y33009742D01*
X28756467Y33128125D01*
X28756464Y33128130D01*
X28742725Y33148692D01*
X28742724Y33148693D01*
X28685277Y33234669D01*
X28685274Y33234673D01*
X26509872Y35410074D01*
X26495269Y35427596D01*
X26490483Y35434530D01*
X26448908Y35471362D01*
X26443378Y35476568D01*
X26414669Y35505277D01*
X26414668Y35505278D01*
X26414667Y35505279D01*
X26405347Y35511506D01*
X26391796Y35521959D01*
X26372242Y35539282D01*
X26372235Y35539286D01*
X26338669Y35556904D01*
X26327224Y35563705D01*
X26308128Y35576465D01*
X26281468Y35587508D01*
X26271139Y35592346D01*
X26232365Y35612696D01*
X26232362Y35612697D01*
X26212710Y35617541D01*
X26194652Y35623469D01*
X26189750Y35625500D01*
X26189744Y35625502D01*
X26144171Y35634568D01*
X26138607Y35635807D01*
X26078994Y35650499D01*
X26078986Y35650500D01*
X26078985Y35650500D01*
X25921015Y35650500D01*
X25921013Y35650500D01*
X25861380Y35635803D01*
X25855816Y35634565D01*
X25810257Y35625502D01*
X25810253Y35625500D01*
X25805336Y35623464D01*
X25787298Y35617544D01*
X25767637Y35612697D01*
X25728858Y35592345D01*
X25718527Y35587507D01*
X25691873Y35576466D01*
X25672762Y35563697D01*
X25661324Y35556900D01*
X25627759Y35539283D01*
X25608205Y35521959D01*
X25594656Y35511508D01*
X25585334Y35505280D01*
X25585325Y35505272D01*
X25556619Y35476568D01*
X25551083Y35471356D01*
X25509521Y35434535D01*
X25509512Y35434525D01*
X25504515Y35427286D01*
X25498234Y35418949D01*
X25494723Y35414671D01*
X25462425Y35366333D01*
X25461357Y35364761D01*
X25419783Y35304529D01*
X25419776Y35304517D01*
X25395924Y35241624D01*
X25394523Y35238091D01*
X25374499Y35189747D01*
X25373582Y35186725D01*
X25368849Y35170229D01*
X25363763Y35156819D01*
X25357775Y35107508D01*
X25356273Y35098120D01*
X25349502Y35064078D01*
X25349501Y35064066D01*
X25349501Y35046978D01*
X25348582Y35031790D01*
X25344722Y35000002D01*
X25344722Y35000000D01*
X25348582Y34968212D01*
X25349501Y34953023D01*
X25349501Y34935925D01*
X25356273Y34901882D01*
X25357775Y34892492D01*
X25363763Y34843182D01*
X25363764Y34843179D01*
X25368848Y34829773D01*
X25373562Y34813343D01*
X25374497Y34810260D01*
X25394509Y34761947D01*
X25395911Y34758411D01*
X25419776Y34695485D01*
X25419781Y34695476D01*
X25461337Y34635271D01*
X25462405Y34633698D01*
X25494721Y34585333D01*
X25498228Y34581060D01*
X25504526Y34572700D01*
X25509513Y34565475D01*
X25509518Y34565469D01*
X25551090Y34528640D01*
X25556632Y34523422D01*
X27492597Y32587457D01*
X27526623Y32525145D01*
X27529502Y32498362D01*
X27529502Y31935931D01*
X27545004Y31858000D01*
X27552000Y31822826D01*
X27554501Y31810256D01*
X27603537Y31691873D01*
X27674726Y31585331D01*
X27674728Y31585329D01*
X27717095Y31542962D01*
X27751121Y31480650D01*
X27754000Y31453867D01*
X27754000Y30930703D01*
X27692993Y30965925D01*
X27565826Y31000000D01*
X27434174Y31000000D01*
X27307007Y30965925D01*
X27246000Y30930703D01*
X27246000Y31858000D01*
X26601402Y31858000D01*
X26540906Y31851495D01*
X26404035Y31800445D01*
X26404034Y31800445D01*
X26287095Y31712905D01*
X26199555Y31595966D01*
X26199555Y31595965D01*
X26148505Y31459094D01*
X26142000Y31398598D01*
X26142000Y30754000D01*
X27069297Y30754000D01*
X27034075Y30692993D01*
X27000000Y30565826D01*
X27000000Y30434174D01*
X27034075Y30307007D01*
X27069297Y30246000D01*
X26142000Y30246000D01*
X26142000Y29601403D01*
X26148505Y29540907D01*
X26199555Y29404036D01*
X26199555Y29404035D01*
X26287095Y29287096D01*
X26404034Y29199556D01*
X26519677Y29156424D01*
X26576513Y29113877D01*
X26601324Y29047357D01*
X26586233Y28977983D01*
X26568347Y28953031D01*
X26424674Y28796959D01*
X26301580Y28608549D01*
X26211179Y28402457D01*
X26211176Y28402450D01*
X26163455Y28214001D01*
X26163456Y28214000D01*
X27069297Y28214000D01*
X27034075Y28152993D01*
X27000000Y28025826D01*
X27000000Y27894174D01*
X27034075Y27767007D01*
X27069297Y27706000D01*
X26163455Y27706000D01*
X26211176Y27517551D01*
X26211179Y27517544D01*
X26301580Y27311452D01*
X26424674Y27123042D01*
X26577097Y26957466D01*
X26754698Y26819233D01*
X26754699Y26819232D01*
X26788734Y26800813D01*
X26839123Y26750799D01*
X26854475Y26681482D01*
X26829913Y26614870D01*
X26788734Y26579187D01*
X26754699Y26560769D01*
X26754698Y26560768D01*
X26577097Y26422535D01*
X26424674Y26256959D01*
X26301580Y26068549D01*
X26211179Y25862457D01*
X26211176Y25862450D01*
X26163455Y25674001D01*
X26163456Y25674000D01*
X27069297Y25674000D01*
X27034075Y25612993D01*
X27000000Y25485826D01*
X27000000Y25354174D01*
X27034075Y25227007D01*
X27069297Y25166000D01*
X26163455Y25166000D01*
X26211176Y24977551D01*
X26211179Y24977544D01*
X26301580Y24771452D01*
X26424674Y24583042D01*
X26577097Y24417466D01*
X26754698Y24279233D01*
X26754699Y24279232D01*
X26788734Y24260813D01*
X26839123Y24210799D01*
X26854475Y24141482D01*
X26829913Y24074870D01*
X26788734Y24039187D01*
X26754699Y24020769D01*
X26754698Y24020768D01*
X26577097Y23882535D01*
X26424674Y23716959D01*
X26301580Y23528549D01*
X26211179Y23322457D01*
X26211176Y23322450D01*
X26163455Y23134001D01*
X26163456Y23134000D01*
X27069297Y23134000D01*
X27034075Y23072993D01*
X27000000Y22945826D01*
X27000000Y22814174D01*
X27034075Y22687007D01*
X27069297Y22626000D01*
X26163455Y22626000D01*
X26211176Y22437551D01*
X26211179Y22437544D01*
X26301580Y22231452D01*
X26424674Y22043042D01*
X26577097Y21877466D01*
X26754698Y21739233D01*
X26754699Y21739232D01*
X26952628Y21632118D01*
X26952630Y21632117D01*
X27069675Y21591936D01*
X27127610Y21550899D01*
X27154162Y21485055D01*
X27140901Y21415308D01*
X27092037Y21363802D01*
X27074280Y21355272D01*
X27007367Y21329350D01*
X27007351Y21329342D01*
X26833960Y21221983D01*
X26833959Y21221982D01*
X26683234Y21084579D01*
X26560329Y20921825D01*
X26469416Y20739246D01*
X26413603Y20543085D01*
X26394785Y20340000D01*
X26413603Y20136916D01*
X26469416Y19940755D01*
X26469417Y19940753D01*
X26469418Y19940750D01*
X26560327Y19758179D01*
X26560328Y19758178D01*
X26560329Y19758176D01*
X26683233Y19595424D01*
X26684116Y19594619D01*
X26684416Y19594125D01*
X26687160Y19591115D01*
X26686571Y19590579D01*
X26720985Y19533946D01*
X26719199Y19462972D01*
X26679325Y19404230D01*
X26614023Y19376371D01*
X26599234Y19375500D01*
X26207727Y19375500D01*
X26139606Y19395502D01*
X26118632Y19412405D01*
X25685206Y19845831D01*
X25651180Y19908143D01*
X25649220Y19950113D01*
X25655278Y20000000D01*
X25655278Y20000004D01*
X25636238Y20156816D01*
X25628392Y20177502D01*
X25580220Y20304523D01*
X25580216Y20304528D01*
X25580216Y20304530D01*
X25490483Y20434530D01*
X25490481Y20434532D01*
X25372240Y20539283D01*
X25232365Y20612696D01*
X25232361Y20612698D01*
X25078987Y20650500D01*
X25078985Y20650500D01*
X24921015Y20650500D01*
X24921012Y20650500D01*
X24767638Y20612698D01*
X24767634Y20612696D01*
X24627759Y20539283D01*
X24509518Y20434532D01*
X24509516Y20434530D01*
X24419783Y20304530D01*
X24419782Y20304527D01*
X24419781Y20304525D01*
X24419780Y20304523D01*
X24416145Y20294938D01*
X24363761Y20156816D01*
X24344722Y20000004D01*
X-95849500Y20000004D01*
X-95849500Y31453031D01*
X-95848581Y31468220D01*
X-95844722Y31500000D01*
X-95844722Y31500002D01*
X-95848581Y31531782D01*
X-95849500Y31546970D01*
X-95849500Y47453031D01*
X-95848581Y47468220D01*
X-95844722Y47500000D01*
X-95844722Y47500002D01*
X-95848581Y47531782D01*
X-95849500Y47546970D01*
X-95849500Y47564076D01*
X-95856274Y47598129D01*
X-95857776Y47607518D01*
X-95863763Y47656819D01*
X-95868849Y47670229D01*
X-95873582Y47686725D01*
X-95874499Y47689747D01*
X-95894523Y47738091D01*
X-95895924Y47741624D01*
X-95919777Y47804518D01*
X-95919778Y47804521D01*
X-95961365Y47864770D01*
X-95962433Y47866343D01*
X-95994721Y47914666D01*
X-95998222Y47918932D01*
X-96004506Y47927273D01*
X-96009514Y47934528D01*
X-96009517Y47934531D01*
X-96051091Y47971363D01*
X-96056629Y47976576D01*
X-96085330Y48005276D01*
X-96094654Y48011506D01*
X-96108194Y48021950D01*
X-96127760Y48039283D01*
X-96127759Y48039283D01*
X-96127762Y48039285D01*
X-96127765Y48039287D01*
X-96161330Y48056904D01*
X-96172765Y48063699D01*
X-96191874Y48076466D01*
X-96191877Y48076468D01*
X-96218527Y48087507D01*
X-96228858Y48092345D01*
X-96267637Y48112697D01*
X-96287298Y48117544D01*
X-96305336Y48123464D01*
X-96310255Y48125501D01*
X-96355829Y48134568D01*
X-96361392Y48135806D01*
X-96421013Y48150500D01*
X-96421015Y48150500D01*
X-96578985Y48150500D01*
X-96578987Y48150500D01*
X-96578992Y48150499D01*
X-96638609Y48135806D01*
X-96644175Y48134567D01*
X-96689742Y48125502D01*
X-96689750Y48125500D01*
X-96694652Y48123469D01*
X-96712710Y48117541D01*
X-96732362Y48112697D01*
X-96732365Y48112696D01*
X-96771139Y48092346D01*
X-96781468Y48087508D01*
X-96808127Y48076465D01*
X-96827234Y48063699D01*
X-96838673Y48056901D01*
X-96872240Y48039283D01*
X-96891806Y48021949D01*
X-96905347Y48011505D01*
X-96914669Y48005276D01*
X-96914670Y48005275D01*
X-96914674Y48005272D01*
X-96943359Y47976587D01*
X-96948899Y47971371D01*
X-96970798Y47951969D01*
X-96990483Y47934530D01*
X-96990484Y47934528D01*
X-96995478Y47927293D01*
X-97001780Y47918928D01*
X-97005274Y47914671D01*
X-97005276Y47914669D01*
X-97037565Y47866343D01*
X-97038604Y47864813D01*
X-97080220Y47804523D01*
X-97104074Y47741624D01*
X-97104078Y47741614D01*
X-97105474Y47738093D01*
X-97125499Y47689747D01*
X-97125501Y47689743D01*
X-97126446Y47686628D01*
X-97131151Y47670229D01*
X-97136237Y47656818D01*
X-97142224Y47607505D01*
X-97143720Y47598150D01*
X-97150500Y47564069D01*
X-97150500Y47564065D01*
X-97150500Y47546970D01*
X-97151419Y47531782D01*
X-97155278Y47500002D01*
X-120216703Y47500002D01*
X-120128717Y47587988D01*
X-120128698Y47588009D01*
X-119948515Y47822826D01*
X-119800522Y48079157D01*
X-119800517Y48079168D01*
X-119687244Y48352633D01*
X-119610633Y48638549D01*
X-119585956Y48826000D01*
X-121105834Y48826000D01*
X-121075000Y48981016D01*
X-121075000Y49178984D01*
X-121105834Y49334000D01*
X-119585956Y49334000D01*
X-119585955Y49334001D01*
X-119610633Y49521452D01*
X-119687244Y49807368D01*
X-119800517Y50080833D01*
X-119800522Y50080844D01*
X-119948515Y50337175D01*
X-120128698Y50571992D01*
X-120128717Y50572013D01*
X-120337987Y50781283D01*
X-120338008Y50781302D01*
X-120572825Y50961485D01*
X-120829156Y51109478D01*
X-120829167Y51109483D01*
X-121102632Y51222756D01*
X-121388548Y51299367D01*
X-121682000Y51338000D01*
X-121826000Y51338000D01*
X-121826000Y50054166D01*
X-121981016Y50085000D01*
X-122178984Y50085000D01*
X-122334000Y50054166D01*
X-122334000Y51338000D01*
X-122477999Y51338000D01*
X-122771451Y51299367D01*
X-123057367Y51222756D01*
X-123330832Y51109483D01*
X-123330843Y51109478D01*
X-123587174Y50961485D01*
X-123821991Y50781302D01*
X-123822012Y50781283D01*
X-124031282Y50572013D01*
X-124031301Y50571992D01*
X-124211484Y50337175D01*
X-124359477Y50080844D01*
X-124359482Y50080833D01*
X-124472755Y49807368D01*
X-124549366Y49521452D01*
X-124574044Y49334001D01*
X-131348341Y49334001D01*
X-131344671Y49389997D01*
X-131344671Y49390004D01*
X-131363965Y49684376D01*
X-131363968Y49684394D01*
X-131421518Y49973721D01*
X-131421520Y49973728D01*
X-131516347Y50253077D01*
X-131646826Y50517662D01*
X-131810721Y50762950D01*
X-132005242Y50984758D01*
X-132227044Y51179275D01*
X-132472337Y51343174D01*
X-132736916Y51473649D01*
X-132736920Y51473651D01*
X-132736923Y51473652D01*
X-132741789Y51475305D01*
X-133016272Y51568480D01*
X-133016279Y51568482D01*
X-133305606Y51626032D01*
X-133305624Y51626035D01*
X-133599997Y51645329D01*
X-133600003Y51645329D01*
X-133865759Y51627910D01*
X-133935042Y51643414D01*
X-133984945Y51693913D01*
X-134000000Y51753640D01*
X-134000000Y55621288D01*
X-116850500Y55621288D01*
X-116850500Y55378712D01*
X-116818838Y55138211D01*
X-116756054Y54903900D01*
X-116663224Y54679788D01*
X-116541936Y54469711D01*
X-116394265Y54277262D01*
X-116222738Y54105735D01*
X-116030289Y53958064D01*
X-115820212Y53836776D01*
X-115596100Y53743946D01*
X-115361789Y53681162D01*
X-115361782Y53681162D01*
X-115361782Y53681161D01*
X-115338637Y53678115D01*
X-115121288Y53649500D01*
X-115121281Y53649500D01*
X-114878719Y53649500D01*
X-114878712Y53649500D01*
X-114700202Y53673001D01*
X-114638217Y53681161D01*
X-114638215Y53681162D01*
X-114638211Y53681162D01*
X-114403900Y53743946D01*
X-114179788Y53836776D01*
X-114179779Y53836782D01*
X-114179775Y53836783D01*
X-113969714Y53958062D01*
X-113969711Y53958064D01*
X-113777262Y54105735D01*
X-113777256Y54105741D01*
X-113777251Y54105745D01*
X-113605744Y54277252D01*
X-113605739Y54277258D01*
X-113605735Y54277262D01*
X-113458064Y54469711D01*
X-113458063Y54469712D01*
X-113458061Y54469715D01*
X-113336782Y54679776D01*
X-113336777Y54679787D01*
X-113336776Y54679788D01*
X-113243946Y54903900D01*
X-113243945Y54903903D01*
X-113243944Y54903905D01*
X-113181160Y55138218D01*
X-113149500Y55378710D01*
X-113149500Y55621291D01*
X-113181160Y55861783D01*
X-113243944Y56096096D01*
X-113243946Y56096100D01*
X-113336777Y56320214D01*
X-113336782Y56320225D01*
X-113458061Y56530286D01*
X-113605735Y56722738D01*
X-113605744Y56722749D01*
X-113777251Y56894256D01*
X-113777262Y56894265D01*
X-113969714Y57041939D01*
X-114179775Y57163218D01*
X-114179786Y57163223D01*
X-114403900Y57256054D01*
X-114403904Y57256056D01*
X-114638217Y57318840D01*
X-114878709Y57350500D01*
X-114878712Y57350500D01*
X-115121288Y57350500D01*
X-115121290Y57350500D01*
X-115361782Y57318840D01*
X-115596095Y57256056D01*
X-115596097Y57256055D01*
X-115596100Y57256054D01*
X-115820212Y57163224D01*
X-115820216Y57163222D01*
X-115820224Y57163218D01*
X-116030285Y57041939D01*
X-116030288Y57041937D01*
X-116030289Y57041936D01*
X-116222738Y56894265D01*
X-116222742Y56894261D01*
X-116222748Y56894256D01*
X-116394255Y56722749D01*
X-116394259Y56722744D01*
X-116394265Y56722738D01*
X-116541936Y56530289D01*
X-116541938Y56530286D01*
X-116663217Y56320225D01*
X-116663218Y56320221D01*
X-116663224Y56320212D01*
X-116756054Y56096100D01*
X-116818838Y55861789D01*
X-116850500Y55621288D01*
X-134000000Y55621288D01*
X-134000000Y63874000D01*
X-133979998Y63942121D01*
X-133926342Y63988614D01*
X-133874000Y64000000D01*
X33874000Y64000000D01*
X33942121Y63979998D01*
G37*
%TD.AperFunction*%
%TD*%
M02*
