%TF.GenerationSoftware,KiCad,Pcbnew,8.0.7*%
%TF.CreationDate,2025-02-21T11:32:42+13:00*%
%TF.ProjectId,JVCard,4a564361-7264-42e6-9b69-6361645f7063,rev?*%
%TF.SameCoordinates,Original*%
%TF.FileFunction,Legend,Bot*%
%TF.FilePolarity,Positive*%
%FSLAX46Y46*%
G04 Gerber Fmt 4.6, Leading zero omitted, Abs format (unit mm)*
G04 Created by KiCad (PCBNEW 8.0.7) date 2025-02-21 11:32:42*
%MOMM*%
%LPD*%
G01*
G04 APERTURE LIST*
G04 Aperture macros list*
%AMRoundRect*
0 Rectangle with rounded corners*
0 $1 Rounding radius*
0 $2 $3 $4 $5 $6 $7 $8 $9 X,Y pos of 4 corners*
0 Add a 4 corners polygon primitive as box body*
4,1,4,$2,$3,$4,$5,$6,$7,$8,$9,$2,$3,0*
0 Add four circle primitives for the rounded corners*
1,1,$1+$1,$2,$3*
1,1,$1+$1,$4,$5*
1,1,$1+$1,$6,$7*
1,1,$1+$1,$8,$9*
0 Add four rect primitives between the rounded corners*
20,1,$1+$1,$2,$3,$4,$5,0*
20,1,$1+$1,$4,$5,$6,$7,0*
20,1,$1+$1,$6,$7,$8,$9,0*
20,1,$1+$1,$8,$9,$2,$3,0*%
G04 Aperture macros list end*
%ADD10O,2.602000X1.702000*%
%ADD11O,4.102000X3.602000*%
%ADD12C,4.102000*%
%ADD13C,2.302000*%
%ADD14O,1.802000X1.802000*%
%ADD15RoundRect,0.051000X-0.850000X-0.850000X0.850000X-0.850000X0.850000X0.850000X-0.850000X0.850000X0*%
%ADD16C,3.302000*%
%ADD17O,3.102000X3.102000*%
G04 APERTURE END LIST*
%LPC*%
D10*
%TO.C,JV1*%
X-117000000Y-20000000D03*
D11*
X-122080000Y-25080000D03*
D10*
X-117000000Y-22540000D03*
D11*
X-122080000Y-14920000D03*
%TD*%
D10*
%TO.C,JRed1*%
X-117000000Y44000000D03*
D11*
X-122080000Y38920000D03*
D10*
X-117000000Y41460000D03*
D11*
X-122080000Y49080000D03*
%TD*%
D10*
%TO.C,JH1*%
X-117000000Y-4000000D03*
D11*
X-122080000Y-9080000D03*
D10*
X-117000000Y-6540000D03*
D11*
X-122080000Y1080000D03*
%TD*%
D10*
%TO.C,JGreen1*%
X-117000000Y28000000D03*
D11*
X-122080000Y22920000D03*
D10*
X-117000000Y25460000D03*
D11*
X-122080000Y33080000D03*
%TD*%
D10*
%TO.C,JBlue1*%
X-117000000Y12000000D03*
D11*
X-122080000Y6920000D03*
D10*
X-117000000Y9460000D03*
D11*
X-122080000Y17080000D03*
%TD*%
D12*
%TO.C,U4*%
X-133600000Y-2880000D03*
X-133600000Y49390000D03*
D13*
X-131400000Y6390000D03*
X-126320000Y8295000D03*
X-131400000Y10200000D03*
X-126320000Y12105000D03*
X-131400000Y14010000D03*
X-126320000Y15915000D03*
X-131400000Y17820000D03*
X-126320000Y19725000D03*
X-131400000Y21630000D03*
X-126320000Y23535000D03*
X-131400000Y25440000D03*
X-126320000Y27345000D03*
X-131400000Y40680000D03*
X-126320000Y31155000D03*
X-131400000Y29250000D03*
X-126320000Y34965000D03*
X-131400000Y33060000D03*
X-126320000Y38775000D03*
X-131400000Y36870000D03*
X-126320000Y42585000D03*
X-126320000Y4485000D03*
%TD*%
D14*
%TO.C,J6*%
X30040000Y-30460000D03*
X27500000Y-30460000D03*
X30040000Y-27920000D03*
X27500000Y-27920000D03*
X30040000Y-25380000D03*
X27500000Y-25380000D03*
X30040000Y-22840000D03*
X27500000Y-22840000D03*
X30040000Y-20300000D03*
X27500000Y-20300000D03*
X30040000Y-17760000D03*
X27500000Y-17760000D03*
X30040000Y-15220000D03*
X27500000Y-15220000D03*
X30040000Y-12680000D03*
X27500000Y-12680000D03*
X30040000Y-10140000D03*
X27500000Y-10140000D03*
X30040000Y-7600000D03*
X27500000Y-7600000D03*
X30040000Y-5060000D03*
X27500000Y-5060000D03*
X30040000Y-2520000D03*
X27500000Y-2520000D03*
X30040000Y20000D03*
X27500000Y20000D03*
X30040000Y2560000D03*
X27500000Y2560000D03*
X30040000Y5100000D03*
X27500000Y5100000D03*
X30040000Y7640000D03*
X27500000Y7640000D03*
X30040000Y10180000D03*
X27500000Y10180000D03*
X30040000Y12720000D03*
X27500000Y12720000D03*
X30040000Y15260000D03*
X27500000Y15260000D03*
X30040000Y17800000D03*
X27500000Y17800000D03*
X30040000Y20340000D03*
X27500000Y20340000D03*
X30040000Y22880000D03*
X27500000Y22880000D03*
X30040000Y25420000D03*
X27500000Y25420000D03*
X30040000Y27960000D03*
X27500000Y27960000D03*
X30040000Y30500000D03*
D15*
X27500000Y30500000D03*
%TD*%
D16*
%TO.C,H2*%
X-115000000Y55500000D03*
%TD*%
%TO.C,H1*%
X-115000000Y-55500000D03*
%TD*%
D13*
%TO.C,JRight1*%
X-134150000Y-56250000D03*
X-134150000Y-47750000D03*
D17*
X-131000000Y-52000000D03*
X-126500000Y-52000000D03*
%TD*%
D13*
%TO.C,JLeft1*%
X-134150000Y-43250000D03*
X-134150000Y-34750000D03*
D17*
X-131000000Y-39000000D03*
X-126500000Y-39000000D03*
%TD*%
%LPD*%
M02*
