M48
; DRILL file {KiCad 8.0.7} date 2025-02-21T11:32:42+1300
; FORMAT={-:-/ absolute / inch / decimal}
; #@! TF.CreationDate,2025-02-21T11:32:42+13:00
; #@! TF.GenerationSoftware,Kicad,Pcbnew,8.0.7
; #@! TF.FileFunction,Plated,1,2,PTH
FMAT,2
INCH
; #@! TA.AperFunction,Plated,PTH,ViaDrill
T1C0.0157
; #@! TA.AperFunction,Plated,PTH,ComponentDrill
T2C0.0350
; #@! TA.AperFunction,Plated,PTH,ComponentDrill
T3C0.0394
; #@! TA.AperFunction,Plated,PTH,ComponentDrill
T4C0.0512
; #@! TA.AperFunction,Plated,PTH,ComponentDrill
T5C0.0787
; #@! TA.AperFunction,Plated,PTH,ComponentDrill
T6C0.0791
; #@! TA.AperFunction,Plated,PTH,ComponentDrill
T7C0.1417
%
G90
G05
T1
X-5.2559Y-0.2756
X-5.2559Y-1.0236
X-5.2362Y2.4803
X-5.2362Y0.1772
X-5.2362Y-2.4803
X-5.1181Y0.1772
X-5.1181Y-0.2756
X-5.1181Y-1.0236
X-5.0787Y-1.437
X-5.0Y-0.2756
X-5.0Y-1.0039
X-4.9803Y0.0787
X-4.9016Y-1.4567
X-4.8622Y-1.7913
X-4.7638Y-1.4764
X-4.5866Y-1.4567
X-4.5866Y-1.7717
X-4.5276Y2.5
X-4.5276Y-1.6732
X-4.5276Y-2.4803
X-4.3701Y-1.6732
X-4.2913Y1.7913
X-4.2913Y1.5748
X-4.2913Y1.1614
X-4.2913Y0.9449
X-4.2913Y0.5315
X-4.2913Y0.315
X-4.2913Y-0.0984
X-4.2913Y-0.315
X-4.2913Y-0.7283
X-4.2913Y-0.9449
X-4.1929Y1.4961
X-4.1929Y0.8661
X-4.1929Y0.2362
X-4.1929Y-0.4134
X-4.1929Y-1.0433
X-4.1732Y-1.378
X-4.0945Y-0.0984
X-4.0945Y-0.7283
X-4.0157Y1.7913
X-4.0157Y1.1614
X-4.0157Y0.5315
X-3.937Y1.4173
X-3.937Y0.7874
X-3.937Y0.1575
X-3.9173Y-0.0787
X-3.9173Y-0.3937
X-3.9173Y-0.7087
X-3.9173Y-1.0236
X-3.878Y-1.6142
X-3.8583Y-0.2953
X-3.8583Y-0.9252
X-3.8583Y-1.2402
X-3.8583Y-1.3583
X-3.8386Y1.811
X-3.8386Y1.4961
X-3.8386Y1.1811
X-3.8386Y0.8661
X-3.8386Y0.5512
X-3.8386Y0.2362
X-3.8189Y-1.4567
X-3.7992Y1.8701
X-3.7992Y1.2402
X-3.7992Y0.6102
X-3.7992Y0.0
X-3.7992Y-0.6299
X-3.7992Y-1.2992
X-3.7598Y1.9488
X-3.7598Y1.3189
X-3.7598Y0.689
X-3.7402Y1.5945
X-3.7402Y0.9646
X-3.7402Y0.3346
X-3.7008Y-0.2953
X-3.7008Y-0.9252
X-3.7008Y-1.2205
X-3.7008Y-1.378
X-3.622Y1.5945
X-3.622Y0.9646
X-3.622Y0.3346
X-3.5039Y0.0
X-3.5039Y-0.6299
X-3.4843Y-1.3976
X-3.4252Y1.8898
X-3.4252Y1.2598
X-3.4252Y0.6299
X-3.3661Y-0.0787
X-3.3661Y-0.7087
X-3.3661Y-1.6929
X-3.3465Y-1.4961
X-3.3268Y1.7913
X-3.3268Y-0.8465
X-3.3071Y-0.2165
X-3.2874Y0.4331
X-3.2677Y1.6732
X-3.189Y1.5551
X-3.189Y1.2008
X-3.189Y0.8071
X-3.1693Y0.1181
X-3.1496Y-2.3228
X-3.1299Y-0.4724
X-3.0906Y-1.4764
X-3.0906Y-1.9488
X-3.0709Y0.0197
X-3.0709Y-2.2047
X-3.0512Y2.0866
X-3.0315Y1.4764
X-3.0315Y1.122
X-3.0315Y0.748
X-3.0315Y0.3543
X-3.0118Y-0.5512
X-3.0118Y-1.7913
X-2.9528Y1.9882
X-2.874Y1.4567
X-2.874Y1.0433
X-2.874Y0.689
X-2.874Y0.2953
X-2.874Y-0.1969
X-2.8543Y1.8898
X-2.7559Y1.7913
X-2.7165Y0.9646
X-2.7165Y0.6299
X-2.7165Y0.2362
X-2.7165Y-0.1969
X-2.6969Y1.4567
X-2.6772Y2.4606
X-2.6575Y1.6929
X-2.5984Y2.3425
X-2.5591Y1.5945
X-2.5197Y2.2244
X-2.4409Y2.1063
X-2.3622Y1.9882
X-2.2835Y1.8701
X-1.5551Y2.4606
X-1.5551Y2.3425
X-1.5551Y2.2244
X-1.5551Y2.1063
X-1.5551Y1.9882
X-1.5551Y1.8701
X-1.437Y-1.811
X-1.437Y-1.9291
X-1.437Y-2.2047
X-1.437Y-2.3228
X-0.1969Y2.4606
X-0.1969Y2.3425
X-0.1969Y2.2244
X-0.1969Y2.1063
X-0.1969Y1.9882
X-0.1969Y1.8701
X0.0984Y-1.811
X0.1772Y-1.9291
X0.2362Y-2.2047
X0.315Y-2.3228
X0.5906Y-1.4961
X0.6496Y1.8701
X0.689Y-1.7717
X0.7087Y1.9882
X0.7087Y-1.2205
X0.7283Y1.7913
X0.7283Y1.4961
X0.7283Y0.9055
X0.7677Y-1.8504
X0.7874Y2.1063
X0.8465Y1.8504
X0.8465Y1.4961
X0.8465Y0.9055
X0.8465Y-0.9646
X0.8661Y2.2244
X0.9449Y2.3425
X0.9449Y-1.1417
X0.9646Y1.9291
X0.9646Y1.4961
X0.9646Y1.2992
X0.9646Y0.9055
X0.9843Y0.7874
X0.9843Y0.6496
X0.9843Y-1.4764
X1.0039Y-0.7874
X1.0039Y-0.9646
X1.0236Y2.4606
X1.0236Y1.378
X1.063Y-1.5551
X1.0827Y2.0079
X1.0827Y1.4173
X1.1811Y-1.2795
X1.2008Y2.0866
X1.2008Y1.3386
X1.2598Y-1.3583
X1.2992Y2.4803
X1.2992Y-2.4803
X1.3189Y2.1654
T2
X-4.6063Y1.7323
X-4.6063Y1.6323
X-4.6063Y1.1024
X-4.6063Y1.0024
X-4.6063Y0.4724
X-4.6063Y0.3724
X-4.6063Y-0.1575
X-4.6063Y-0.2575
X-4.6063Y-0.7874
X-4.6063Y-0.8874
T3
X1.0827Y1.2008
X1.0827Y1.1008
X1.0827Y1.0008
X1.0827Y0.9008
X1.0827Y0.8008
X1.0827Y0.7008
X1.0827Y0.6008
X1.0827Y0.5008
X1.0827Y0.4008
X1.0827Y0.3008
X1.0827Y0.2008
X1.0827Y0.1008
X1.0827Y0.0008
X1.0827Y-0.0992
X1.0827Y-0.1992
X1.0827Y-0.2992
X1.0827Y-0.3992
X1.0827Y-0.4992
X1.0827Y-0.5992
X1.0827Y-0.6992
X1.0827Y-0.7992
X1.0827Y-0.8992
X1.0827Y-0.9992
X1.0827Y-1.0992
X1.0827Y-1.1992
X1.1827Y1.2008
X1.1827Y1.1008
X1.1827Y1.0008
X1.1827Y0.9008
X1.1827Y0.8008
X1.1827Y0.7008
X1.1827Y0.6008
X1.1827Y0.5008
X1.1827Y0.4008
X1.1827Y0.3008
X1.1827Y0.2008
X1.1827Y0.1008
X1.1827Y0.0008
X1.1827Y-0.0992
X1.1827Y-0.1992
X1.1827Y-0.2992
X1.1827Y-0.3992
X1.1827Y-0.4992
X1.1827Y-0.5992
X1.1827Y-0.6992
X1.1827Y-0.7992
X1.1827Y-0.8992
X1.1827Y-0.9992
X1.1827Y-1.0992
X1.1827Y-1.1992
T4
X-5.1732Y1.6016
X-5.1732Y1.4516
X-5.1732Y1.3016
X-5.1732Y1.1516
X-5.1732Y1.0016
X-5.1732Y0.8516
X-5.1732Y0.7016
X-5.1732Y0.5516
X-5.1732Y0.4016
X-5.1732Y0.2516
X-4.9732Y1.6766
X-4.9732Y1.5266
X-4.9732Y1.3766
X-4.9732Y1.2266
X-4.9732Y1.0766
X-4.9732Y0.9266
X-4.9732Y0.7766
X-4.9732Y0.6266
X-4.9732Y0.4766
X-4.9732Y0.3266
X-4.9732Y0.1766
T5
X-5.2815Y-1.3681
X-5.2815Y-1.7028
X-5.2815Y-1.8799
X-5.2815Y-2.2146
T6
X-4.8063Y1.9323
X-4.8063Y1.5323
X-4.8063Y1.3024
X-4.8063Y0.9024
X-4.8063Y0.6724
X-4.8063Y0.2724
X-4.8063Y0.0425
X-4.8063Y-0.3575
X-4.8063Y-0.5874
X-4.8063Y-0.9874
T7
X-5.2598Y1.9445
X-5.2598Y-0.1134
T3
G00X-5.0098Y-1.5354
M15
G01X-4.9508Y-1.5354
M16
G05
G00X-5.0098Y-2.0472
M15
G01X-4.9508Y-2.0472
M16
G05
T4
G00X-5.1575Y-1.5591
M15
G01X-5.1575Y-1.5118
M16
G05
G00X-5.1575Y-2.0709
M15
G01X-5.1575Y-2.0236
M16
G05
M30
